<svg width="86" height="137" viewBox="0 0 86 137" fill="none" xmlns="http://www.w3.org/2000/svg">
<path d="M49.2271 131.945L48.4596 129.625H50.6746L50.932 131.7L49.2271 131.945Z" fill="#333B33" stroke="black"/>
<path fill-rule="evenodd" clip-rule="evenodd" d="M60.7907 124.625C60.7907 124.625 65.9036 128.929 65.6279 131.75C65.4843 133.221 61.7708 133.972 58.1861 134C54.6013 134.028 50.5407 133.576 49.2558 130.25C49.1178 132.254 48.8837 132.875 48.8837 132.875L41.814 131L45.1628 123.5L60.7907 124.625Z" fill="#404840"/>
<path d="M65.1303 131.701L65.1303 131.701C65.1158 131.85 65.0037 132.058 64.6348 132.3C64.2732 132.537 63.7404 132.752 63.0675 132.933C61.7272 133.294 59.9479 133.486 58.1821 133.5C56.4018 133.514 54.5568 133.407 53.0124 132.907C51.4812 132.412 50.2937 131.549 49.7222 130.07L48.757 130.216C48.689 131.202 48.5981 131.839 48.5265 132.222C48.524 132.235 48.5216 132.248 48.5192 132.261L42.5101 130.667L45.4765 124.024L60.5897 125.112C60.6156 125.134 60.6453 125.161 60.6786 125.19C60.8145 125.31 61.0092 125.486 61.2424 125.705C61.7096 126.146 62.3277 126.76 62.9356 127.458C63.5455 128.158 64.1337 128.931 64.5504 129.688C64.9734 130.456 65.1846 131.146 65.1303 131.701ZM60.7907 124.625C60.7907 124.625 65.9036 128.929 65.6279 131.75L60.7907 124.625Z" stroke="black" stroke-opacity="0.56"/>
<path fill-rule="evenodd" clip-rule="evenodd" d="M55.2092 93.5C55.2092 93.5 62.7113 102.681 63.0231 109.25C63.3922 117.029 60.7906 124.25 60.7906 124.25C60.7906 124.25 55.1664 127.451 46.651 123.5C46.3816 118.635 44.0464 98.75 44.0464 98.75L55.2092 93.5Z" fill="#73A6CC"/>
<path d="M44.6439 99.5562L44.5848 99.0493L55.0643 94.1207C55.0873 94.1501 55.1118 94.1814 55.1378 94.2148C55.341 94.4753 55.6324 94.8558 55.9834 95.3333C56.6857 96.2887 57.625 97.6298 58.5732 99.1733C60.4852 102.286 62.3744 106.128 62.5237 109.274C62.7055 113.105 62.1555 116.808 61.5567 119.561C61.2576 120.935 60.9473 122.069 60.7122 122.857C60.5946 123.251 60.496 123.559 60.427 123.767C60.4109 123.816 60.3964 123.859 60.3837 123.897C60.3642 123.906 60.3431 123.916 60.3202 123.927C60.1626 124.001 59.9238 124.105 59.609 124.218C58.9793 124.446 58.0465 124.712 56.8525 124.861C54.5208 125.15 51.1781 124.988 47.1321 123.17C46.9639 120.542 46.3375 114.602 45.7447 109.246C45.4358 106.455 45.1354 103.817 44.9122 101.876C44.8006 100.906 44.7083 100.11 44.6439 99.5562Z" stroke="black" stroke-opacity="0.57"/>
<path opacity="0.12" fill-rule="evenodd" clip-rule="evenodd" d="M48.5116 102.125C51.4534 106.926 53.6782 116.363 48.1395 128.375C46.9738 130.904 47.0311 132.012 47.3481 132.5L41.814 129.875L43.3023 97.25L53.7209 95C53.7209 95 54.6203 98.9544 48.5116 102.125Z" fill="black"/>
<path d="M30.5058 134.187L29.5179 132.693L31.5836 131.652L32.8321 133.666L30.5058 134.187Z" fill="#333B33" stroke="black"/>
<path fill-rule="evenodd" clip-rule="evenodd" d="M28.7907 124.25C28.7907 124.25 25.9275 128.362 25.4419 133.625C28.8953 135.138 30.2791 135.125 30.2791 135.125L31.3954 133.625C31.3954 133.625 34.3814 136.924 41.4419 136.625C47.0903 136.385 47.8828 135.539 48.1396 134.375C48.3963 133.211 47.7444 130.309 44.4186 127.25C41.0929 124.191 28.7907 124.25 28.7907 124.25Z" fill="#404840"/>
<path d="M41.4207 136.125C37.975 136.271 35.5452 135.539 33.9886 134.787C33.2088 134.41 32.6448 134.027 32.2799 133.742C32.0975 133.599 31.9648 133.482 31.8798 133.402C31.8373 133.362 31.8067 133.331 31.7879 133.312C31.7784 133.302 31.7719 133.296 31.7683 133.292L31.7657 133.289L31.7654 133.289L31.7651 133.288L31.765 133.288C31.7649 133.288 31.7649 133.288 31.765 133.288L31.3577 132.838L30.9943 133.326L30.0436 134.604C29.8789 134.583 29.6247 134.541 29.2717 134.456C28.5773 134.29 27.5024 133.962 25.9769 133.312C26.2524 130.9 27.0268 128.749 27.7525 127.173C28.1327 126.348 28.4975 125.684 28.7664 125.229C28.8854 125.027 28.9854 124.867 29.0594 124.751C29.1323 124.751 29.2194 124.752 29.3195 124.753C29.6591 124.758 30.1489 124.767 30.7474 124.788C31.945 124.83 33.5745 124.918 35.3052 125.1C37.0381 125.283 38.8601 125.559 40.447 125.974C42.052 126.395 43.3432 126.94 44.0802 127.618C45.6972 129.105 46.6482 130.54 47.1642 131.723C47.6872 132.922 47.7486 133.826 47.6513 134.267C47.5962 134.517 47.522 134.706 47.3896 134.87C47.2566 135.036 47.034 135.214 46.6216 135.385C45.7736 135.735 44.2413 136.006 41.4207 136.125ZM41.4207 136.125L41.4419 136.625M41.4207 136.125L41.4419 136.625M41.4419 136.625C35.7966 136.864 32.7561 134.803 31.7641 133.967M41.4419 136.625C47.0903 136.385 47.8828 135.539 48.1396 134.375C48.3963 133.211 47.7444 130.309 44.4186 127.25C41.0929 124.191 28.7907 124.25 28.7907 124.25L31.7641 133.967M31.7641 133.967L31.7965 133.923L31.3954 133.625C31.0247 133.961 31.0249 133.961 31.0251 133.961L31.0256 133.962L31.0268 133.963L31.0301 133.966L31.04 133.977C31.0481 133.986 31.0593 133.997 31.0734 134.012C31.0794 134.018 31.0858 134.024 31.0929 134.031L31.7641 133.967Z" stroke="black" stroke-opacity="0.56"/>
<path fill-rule="evenodd" clip-rule="evenodd" d="M56.3256 93.5C56.3256 93.5 53.0634 99.3819 46.2791 101.75C46.8993 103.271 50.1968 110.613 49.6279 114.5C49.059 118.387 45.5349 127.625 45.5349 127.625C45.5349 127.625 37.5836 130.561 28.0465 125C29.4463 120.883 31.136 116.274 30.6512 112.25C29.462 102.382 18.2486 97.2106 18 86C25.8136 87.4674 56.3256 93.5 56.3256 93.5Z" fill="#73A6CC"/>
<path d="M46.1143 101.278L45.6173 101.451L45.8161 101.939C45.8712 102.074 45.946 102.252 46.0363 102.466C46.4651 103.486 47.2443 105.338 47.9247 107.395C48.3361 108.638 48.7074 109.945 48.9407 111.175C49.1752 112.411 49.2637 113.536 49.1332 114.428C48.8565 116.318 47.8494 119.556 46.8947 122.359C46.4202 123.752 45.9633 125.025 45.6249 125.949C45.4557 126.411 45.3163 126.786 45.2192 127.045C45.1937 127.113 45.1711 127.173 45.1516 127.225C45.1165 127.236 45.0771 127.248 45.0335 127.261C44.8091 127.327 44.4739 127.416 44.0405 127.508C43.1733 127.69 41.914 127.879 40.361 127.898C37.3361 127.935 33.1932 127.328 28.6527 124.771C28.6904 124.661 28.7283 124.55 28.7662 124.439C29.3952 122.599 30.061 120.65 30.5409 118.71C31.0843 116.514 31.4004 114.289 31.1476 112.19L31.1476 112.19C30.576 107.447 27.7591 103.761 24.9897 100.137C24.7829 99.8665 24.5764 99.5962 24.371 99.3259C21.5022 95.5487 18.8331 91.7232 18.5253 86.6079C22.7534 87.4089 31.8148 89.1825 39.9964 90.7909C44.2986 91.6366 48.3567 92.4365 51.3392 93.025C52.8305 93.3193 54.0528 93.5606 54.9024 93.7284L55.5181 93.8501C55.4539 93.9467 55.3813 94.0535 55.3002 94.1693C54.8998 94.7415 54.295 95.5313 53.4825 96.3942C51.8555 98.1217 49.4088 100.128 46.1143 101.278Z" stroke="black" stroke-opacity="0.56"/>
<path opacity="0.12" fill-rule="evenodd" clip-rule="evenodd" d="M33.6279 114.5C32.5537 124.303 30.6512 126.875 30.6512 126.875C30.6512 126.875 26.7732 128.418 28.022 134.619C27.3373 134.399 26.4856 134.083 25.4419 133.625C25.795 129.797 27.402 126.587 28.2545 125.116C28.1849 125.076 28.1161 125.041 28.0465 125C29.4463 120.883 31.136 116.274 30.6512 112.25C29.462 102.382 18.2486 97.2106 18 86C18.8439 86.1586 19.9539 86.3705 21.2603 86.6221C18.56 94.4458 34.9142 102.762 33.6279 114.5Z" fill="black"/>
<path d="M62.0942 69.4962C62.1558 69.5156 62.1981 69.5335 62.2255 69.5472C62.2466 69.6668 62.2682 69.7717 62.2866 69.8613L62.2902 69.8787C62.3149 69.9991 62.3309 70.08 62.3394 70.1503C62.3529 70.2617 62.3458 70.3217 62.3001 70.4155C62.2387 70.5416 62.1046 70.728 61.8049 71.0545C61.5108 71.375 61.0889 71.7974 60.4841 72.3941C60.0447 72.8277 59.4776 72.9197 58.772 72.7421C58.0501 72.5603 57.2526 72.1076 56.4888 71.5511C55.7321 70.9998 55.0434 70.3728 54.5413 69.8802C54.4953 69.8351 54.4509 69.7911 54.4082 69.7485C54.5445 69.7325 54.6923 69.7154 54.8499 69.6976C55.7056 69.6013 56.8462 69.486 57.9911 69.4093C59.1406 69.3322 60.2752 69.2954 61.1263 69.3512C61.5562 69.3794 61.8824 69.4296 62.0942 69.4962Z" fill="white" stroke="black"/>
<path fill-rule="evenodd" clip-rule="evenodd" d="M60.4614 69C60.4614 69 64.8743 79.5994 75.4064 79.5C78.5834 79.4299 78.4933 78.1774 80.2636 78.375C82.0338 78.5726 84.0297 80.2028 83.6262 81.75C83.2227 83.2972 81.2253 82.7528 80.2636 82.5C79.5421 83.0201 78.5908 83.8717 78.769 84.75C78.9473 85.6283 81.6318 86.1705 82.1317 87.375C82.6312 88.5795 82.7556 89.706 82.1317 90.75C81.5077 91.794 80.4455 91.8806 79.5163 91.5C78.5867 91.1194 78.769 88.875 78.769 88.875L76.5273 90.375C76.5273 90.375 77.671 92.3048 77.2745 93.375C76.8781 94.4452 74.5904 96.6157 73.1647 95.625C71.7389 94.6343 73.1647 92.25 73.1647 92.25L72.4174 90.75C72.4174 90.75 61.2945 88.8015 57.4723 84.375C53.6501 79.9485 50.7471 72 50.7471 72L60.4614 69Z" fill="#FFD90D"/>
<path d="M79.2672 88.9185L79.2674 88.9155L79.2674 88.9154L79.2674 88.9153L79.2674 88.9152L79.2674 88.9151L79.3512 87.8839L78.491 88.4594L76.2492 89.9594L75.8558 90.2227L76.097 90.6296L76.097 90.6297L76.0971 90.6298L76.0972 90.6299L76.0972 90.63L76.0988 90.6328L76.1066 90.6462C76.1097 90.6516 76.1135 90.6582 76.1179 90.6659C76.1237 90.6762 76.1307 90.6886 76.1387 90.703C76.1667 90.7534 76.207 90.8278 76.2546 90.9208C76.3501 91.1077 76.4726 91.3657 76.5827 91.6527C76.6936 91.9418 76.7868 92.2473 76.8309 92.5315C76.8761 92.822 76.863 93.0467 76.8057 93.2013C76.7357 93.3902 76.5604 93.6745 76.2873 93.9905C76.0199 94.3 75.6833 94.6114 75.3214 94.8615C74.5489 95.3953 73.8827 95.5151 73.45 95.2144C73.01 94.9086 72.948 94.3622 73.1153 93.6861C73.1942 93.3675 73.3144 93.0702 73.4174 92.8492C73.4684 92.7398 73.514 92.6516 73.5463 92.5917C73.5624 92.5618 73.5751 92.5392 73.5833 92.5247L73.5923 92.5092L73.5938 92.5066L73.5939 92.5064L73.594 92.5062L73.594 92.5062L73.5941 92.506L73.7342 92.2719L73.6122 92.0271L72.8649 90.5271L72.7524 90.3011L72.5037 90.2575L72.5037 90.2575L72.5035 90.2575L72.5023 90.2573L72.4969 90.2563L72.4742 90.2522C72.454 90.2486 72.4234 90.243 72.3831 90.2355C72.3026 90.2205 72.1832 90.1978 72.0295 90.1672C71.7219 90.1061 71.2772 90.0137 70.7311 89.8889C69.6382 89.6393 68.1426 89.261 66.5303 88.7461C64.9165 88.2308 63.1951 87.5818 61.647 86.793C60.0932 86.0013 58.7459 85.0849 57.8508 84.0482C55.985 81.8874 54.3268 78.8434 53.1282 76.3135C52.5313 75.0534 52.0526 73.9302 51.7234 73.1224C51.5926 72.8013 51.4854 72.5302 51.4038 72.3205L60.1896 69.6072C60.2 69.6289 60.2108 69.6513 60.2221 69.6744C60.3681 69.9738 60.5874 70.3985 60.8835 70.9064C61.475 71.9212 62.3761 73.274 63.6159 74.6253C66.0955 77.328 69.9577 80.0514 75.4111 80L75.4111 80L75.4174 79.9999C77.0915 79.9629 77.9353 79.6089 78.5856 79.2845C78.6434 79.2557 78.6974 79.2284 78.7484 79.2026C78.9831 79.084 79.156 78.9966 79.3538 78.9348C79.5734 78.8661 79.8297 78.8297 80.2081 78.8719C80.9771 78.9578 81.8205 79.363 82.4187 79.9218C83.0279 80.4907 83.277 81.1075 83.1424 81.6238C83.0717 81.895 82.9446 82.0412 82.8 82.132C82.6414 82.2315 82.4199 82.2894 82.135 82.3004C81.5556 82.3226 80.8938 82.1487 80.397 82.0181L80.3906 82.0164L80.1625 81.9565L79.9712 82.0944C79.5963 82.3647 79.1345 82.7395 78.7863 83.1811C78.4447 83.6143 78.1467 84.1973 78.279 84.8494C78.3668 85.2819 78.7291 85.5785 79.0185 85.775C79.3024 85.9677 79.6564 86.1525 79.9911 86.3274C80.0269 86.346 80.0625 86.3646 80.0977 86.3831C80.4785 86.5825 80.8362 86.7756 81.1282 86.9859C81.4254 87.2 81.5977 87.3928 81.6698 87.5665C82.1403 88.7009 82.2108 89.6431 81.7025 90.4935C81.4576 90.9032 81.1485 91.0987 80.8276 91.1717C80.4926 91.2479 80.1013 91.1993 79.7058 91.0373L79.7058 91.0373C79.6451 91.0125 79.5551 90.9371 79.4666 90.7316C79.3802 90.5307 79.3234 90.2684 79.2908 89.9871C79.2587 89.7105 79.2526 89.4406 79.255 89.2376C79.2562 89.1368 79.2595 89.0542 79.2624 88.9977C79.2638 88.9694 79.2652 88.9478 79.2661 88.9338L79.2672 88.9185Z" stroke="black" stroke-opacity="0.56"/>
<path opacity="0.12" fill-rule="evenodd" clip-rule="evenodd" d="M66.0658 87.375C69.7225 88.1205 71.1456 89.6381 71.6979 90.6101C69.1774 90.0941 60.7088 88.1231 57.4724 84.375C56.7229 83.5072 56.0097 82.503 55.3461 81.4507L54.4834 76.875C54.4834 76.875 60.445 86.2294 66.0658 87.375Z" fill="black"/>
<path fill-rule="evenodd" clip-rule="evenodd" d="M63.0769 69.375C63.0769 69.375 57.3402 68.4101 52.989 74.25C48.6377 80.0899 50.3736 63.375 50.3736 63.375C50.3736 63.375 55.3529 62.9861 57.0989 63.75C58.8448 64.5139 63.0769 69.375 63.0769 69.375Z" fill="white"/>
<path d="M61.9076 68.8179C61.2885 68.8317 60.4733 68.9077 59.5447 69.1371C57.4684 69.6502 54.8412 70.9273 52.5881 73.9513C52.0514 74.6714 51.689 74.9237 51.4943 74.9774C51.4228 74.9972 51.3905 74.9861 51.3653 74.9728C51.3265 74.9523 51.2572 74.8963 51.173 74.7565C50.9997 74.4689 50.8514 73.9757 50.7431 73.2967C50.6369 72.6311 50.5765 71.8375 50.5493 70.9865C50.4951 69.2855 50.575 67.3968 50.6693 65.9275C50.7164 65.1941 50.7669 64.5679 50.8056 64.1254C50.8147 64.0218 50.8231 63.9283 50.8307 63.8458C50.9379 63.8395 51.0633 63.8325 51.2037 63.8256C51.6923 63.8013 52.3609 63.7769 53.0821 63.776C53.8047 63.7752 54.5725 63.798 55.2619 63.8667C55.9635 63.9366 56.537 64.0499 56.8985 64.2081C57.2568 64.3648 57.7975 64.7638 58.4399 65.3271C59.0682 65.878 59.7507 66.5469 60.3844 67.1978C60.9636 67.7926 61.498 68.3682 61.9076 68.8179Z" stroke="black" stroke-opacity="0.56"/>
<path fill-rule="evenodd" clip-rule="evenodd" d="M64.8333 44.7043C64.7808 47.4062 64.4444 47.6957 64.4444 47.6957C64.4444 47.6957 64.7746 49.244 63.6667 50.687C62.5587 52.1299 60.9444 52.5565 60.9444 52.5565L59.7778 55.1739L52.7778 67.887L48.8889 72L38 59.287L39.1667 52.9304C39.1667 52.9304 40.4547 51.3563 41.7979 48.9756C40.7526 48.3564 39.6026 47.272 40.7222 45.8261C41.612 44.6774 42.4691 44.747 43.1131 45.1142C43.6867 39.2931 43.2193 26.371 57.8333 29.7478C69.6357 32.4751 64.8862 41.9897 64.8333 44.7043Z" fill="#FFD90D"/>
<path d="M64.3334 44.6946L64.3334 44.6946C64.3075 46.0299 64.2116 46.7409 64.131 47.1053C64.0997 47.2466 64.0724 47.3284 64.0559 47.3703L63.8936 47.51L63.9549 47.7976L63.955 47.7977L63.955 47.7979L63.9551 47.7985L63.9561 47.8037C63.9567 47.8068 63.9574 47.8109 63.9583 47.8161C63.9594 47.8225 63.9607 47.8306 63.9621 47.8401C63.9674 47.8748 63.9746 47.9293 63.9804 48.0007C63.992 48.1437 63.998 48.3519 63.9734 48.6011C63.9243 49.0991 63.7544 49.7517 63.2701 50.3824C62.7723 51.0308 62.1557 51.4564 61.6561 51.721C61.4075 51.8526 61.1916 51.9423 61.0401 51.9985C60.9645 52.0265 60.9054 52.0461 60.8667 52.0582C60.8474 52.0642 60.8332 52.0684 60.8247 52.0708L60.8167 52.0731L60.8164 52.0732L60.8162 52.0732L60.8161 52.0733L60.8157 52.0734L60.8153 52.0735L60.5852 52.1343L60.4878 52.353L59.3297 54.9511L52.3706 67.5898L48.9072 71.2528L38.5348 59.1427L39.6358 53.1444C39.6737 53.0963 39.7242 53.0317 39.7856 52.9516C39.9308 52.7623 40.1376 52.4861 40.3865 52.1349C40.8841 51.4329 41.5516 50.4296 42.2334 49.2213L42.4739 48.7949L42.0527 48.5454C41.5528 48.2493 41.103 47.882 40.8908 47.4782C40.7904 47.2872 40.7468 47.0954 40.7682 46.8937C40.7897 46.69 40.8818 46.4366 41.1175 46.1323C41.5128 45.6219 41.8532 45.4424 42.1068 45.3922C42.3607 45.342 42.613 45.4046 42.8655 45.5485L43.5351 45.9303L43.6107 45.1632C43.6634 44.6285 43.7065 44.0509 43.7521 43.4396C43.8345 42.3346 43.9252 41.1196 44.0956 39.849C44.3578 37.894 44.8004 35.9022 45.6546 34.2068C46.5039 32.5211 47.7531 31.1405 49.6382 30.3683C51.5324 29.5924 54.1306 29.4054 57.7208 30.235C60.6038 30.9012 62.4189 31.9685 63.5458 33.1923C64.6691 34.4122 65.1482 35.8303 65.2812 37.2766C65.415 38.7321 65.1971 40.2036 64.9317 41.5058C64.8508 41.9028 64.769 42.2685 64.6913 42.6156C64.6395 42.8474 64.5894 43.0709 64.5428 43.29C64.4316 43.8122 64.3411 44.3014 64.3334 44.6946Z" stroke="black" stroke-opacity="0.56"/>
<path fill-rule="evenodd" clip-rule="evenodd" d="M56.6668 54.4261C58.108 54.6893 59.7779 54.0522 59.7779 54.0522C59.7779 54.0522 60.7921 56.219 60.9445 57.4174C61.097 58.6158 60.7645 59.711 60.9445 60.4087C61.1242 61.1064 61.6947 61.2653 60.9445 62.6522C60.1944 64.039 59.0685 63.2329 58.6112 63.7739C58.1539 64.315 57.2832 65.4427 56.2779 64.8956C55.2726 64.3486 55.8987 64.5386 55.1112 64.5217C54.3237 64.5049 47.9825 66.0877 45.389 62.6522C42.7955 59.2167 43.3839 56.4243 44.6112 54.8C45.8385 53.1757 48.4072 51.5297 50.8334 51.8087C53.2597 52.0876 55.3002 54.1767 56.6668 54.4261Z" fill="#D9A659"/>
<path d="M59.5054 54.6664C59.598 54.8786 59.7166 55.1585 59.8389 55.4688C60.112 56.1615 60.3811 56.9502 60.4485 57.4805C60.5173 58.021 60.4777 58.5453 60.4358 59.0602C60.434 59.0828 60.4321 59.1055 60.4303 59.1284C60.3924 59.5891 60.35 60.1055 60.4603 60.5334L59.5054 54.6664ZM59.5054 54.6664C59.3311 54.7173 59.1132 54.7748 58.8662 54.827C58.2418 54.9591 57.3904 55.0665 56.577 54.918L59.5054 54.6664ZM60.6759 61.0767C60.6096 60.9435 60.5192 60.7619 60.4604 60.5336L60.6759 61.0767ZM60.6759 61.0767L60.6782 61.0813M60.6759 61.0767L60.6782 61.0813M60.6782 61.0813C60.7495 61.2247 60.7866 61.3025 60.8068 61.3875M60.6782 61.0813L60.8068 61.3875M60.8068 61.3875C60.8369 61.5144 60.8546 61.7675 60.5048 62.4143M60.8068 61.3875L60.5048 62.4143M60.5048 62.4143C60.3534 62.694 60.2021 62.8305 60.0749 62.9051M60.5048 62.4143L60.0749 62.9051M60.0749 62.9051C59.9444 62.9816 59.8 63.0161 59.6226 63.0323M60.0749 62.9051L59.6226 63.0323M59.6226 63.0323C59.5361 63.0402 59.4502 63.0432 59.3516 63.0466M59.6226 63.0323L59.3516 63.0466M59.3516 63.0466L59.3351 63.0472M59.3516 63.0466L59.3351 63.0472M59.3351 63.0472C59.2361 63.0507 59.1181 63.055 59.0026 63.0691M59.3351 63.0472L59.0026 63.0691M59.0026 63.0691C58.7688 63.0977 58.4625 63.1753 58.2294 63.4511M59.0026 63.0691L58.2294 63.4511M58.2294 63.4511C58.2068 63.4778 58.184 63.505 58.1608 63.5326M58.2294 63.4511L58.1608 63.5326M58.1608 63.5326C57.9306 63.8064 57.6672 64.1198 57.3627 64.3336M58.1608 63.5326L57.3627 64.3336M57.3627 64.3336C57.0458 64.5561 56.7873 64.6036 56.5169 64.4565M57.3627 64.3336L56.5169 64.4565M56.5169 64.4565C56.275 64.3248 56.1343 64.2393 56.0473 64.1849M56.5169 64.4565L56.0473 64.1849M56.0473 64.1849C56.0341 64.1766 56.0199 64.1676 56.0057 64.1587M56.0473 64.1849L56.0057 64.1587M56.0057 64.1587C55.9792 64.142 55.9529 64.1253 55.9334 64.1136M56.0057 64.1587L55.9334 64.1136M55.9334 64.1136C55.9035 64.0954 55.8457 64.0609 55.774 64.0365M55.9334 64.1136L55.774 64.0365M55.774 64.0365C55.6176 63.9833 55.4554 64.0094 55.4357 64.0126M55.774 64.0365L55.4357 64.0126M55.4357 64.0126C55.4346 64.0128 55.434 64.0129 55.4338 64.0129M55.4357 64.0126L55.4338 64.0129M55.4338 64.0129C55.3852 64.0178 55.2972 64.0256 55.1219 64.0218M55.4338 64.0129L55.1219 64.0218M55.1219 64.0218C54.974 64.0187 54.7412 64.0497 54.5055 64.0822M55.1219 64.0218L54.5055 64.0822M54.5055 64.0822C54.4436 64.0907 54.3784 64.0998 54.31 64.1094M54.5055 64.0822L54.31 64.1094M54.31 64.1094C54.0928 64.1398 53.8433 64.1747 53.5632 64.2094M54.31 64.1094L53.5632 64.2094M53.5632 64.2094C52.8286 64.3004 51.907 64.3864 50.9363 64.369M53.5632 64.2094L50.9363 64.369M50.9363 64.369C48.9647 64.3338 46.9392 63.8758 45.7881 62.3509M50.9363 64.369L45.7881 62.3509M45.7881 62.3509C44.5425 60.701 44.0887 59.2439 44.0672 58.038M45.7881 62.3509L44.0672 58.038M44.0672 58.038C44.0457 56.8309 44.4565 55.8341 45.0101 55.1014M44.0672 58.038L45.0101 55.1014M45.0101 55.1014C45.5768 54.3515 46.4678 53.5805 47.506 53.0329M45.0101 55.1014L47.506 53.0329M47.506 53.0329C48.5449 52.4849 49.6916 52.1807 50.7763 52.3054M47.506 53.0329L50.7763 52.3054M50.7763 52.3054C51.8746 52.4317 52.9116 52.9722 53.891 53.5576M50.7763 52.3054L53.891 53.5576M53.891 53.5576C54.0557 53.6561 54.2219 53.7578 54.3867 53.8585M53.891 53.5576L54.3867 53.8585M54.3867 53.8585C54.6944 54.0467 54.9971 54.2318 55.2762 54.3877M54.3867 53.8585L55.2762 54.3877M55.2762 54.3877C55.7054 54.6273 56.1495 54.8399 56.5769 54.9179L55.2762 54.3877Z" stroke="black" stroke-opacity="0.56"/>
<path opacity="0.12" fill-rule="evenodd" clip-rule="evenodd" d="M43.4442 47.3217C43.5037 52.3976 40.1496 54.7907 38.6772 55.5953L39.1665 52.9304C39.1665 52.9304 41.074 50.6021 42.6665 47.3217C44.0179 44.5387 41.7273 30.9956 51.4102 29.3582C49.8345 30.8946 48.0658 32.8719 47.3331 34.6087C45.8775 38.0592 43.4065 44.0986 43.4442 47.3217ZM48.4998 48.4435C46.4173 47.465 47.332 40.4847 52.7776 42.087C49.934 43.4357 48.751 46.5964 48.4998 48.4435ZM44.6109 54.8C45.6656 53.4042 47.7107 51.9964 49.8045 51.8035C47.6057 52.6407 45.1188 54.4141 44.9998 58.1652C44.8839 61.8109 48.1533 63.8046 51.2006 64.8702C49.1251 64.8721 46.7447 64.4485 45.3887 62.6522C42.7952 59.2167 43.3836 56.4243 44.6109 54.8Z" fill="black"/>
<path fill-rule="evenodd" clip-rule="evenodd" d="M24.6002 70.0459C24.6002 70.0459 19.0816 72.9457 16.3741 81.055C15.8484 83.7593 22.2225 93.3971 38.8089 94.633C55.3953 95.869 59.0002 92.0642 59.0002 92.0642C59.0002 92.0642 59.0664 79.102 53.0176 74.0826C53.4872 70.7255 53.0176 65.2752 53.0176 65.2752L48.9045 70.7798L45.1654 64.5413L37.6871 55L24.9741 69.6789" fill="white"/>
<path d="M24.6002 70.0459C24.6002 70.0459 19.0816 72.9457 16.3741 81.055C15.8484 83.7593 22.2225 93.3971 38.8089 94.633C55.3953 95.869 59.0002 92.0642 59.0002 92.0642C59.0002 92.0642 59.0664 79.102 53.0176 74.0826C53.4872 70.7255 53.0176 65.2752 53.0176 65.2752L48.9045 70.7798L45.1654 64.5413L37.6871 55L24.9741 69.6789" stroke="black" stroke-opacity="0.56"/>
<path opacity="0.12" fill-rule="evenodd" clip-rule="evenodd" d="M38.0608 63.8073L35.4435 69.3119L31.3304 78.8532C31.3304 78.8532 23.2105 75.6088 20.4869 78.1193C18.6032 79.8558 18.2521 83.4022 18.2147 85.425C16.7792 83.5828 16.2011 81.9438 16.3739 81.055C19.0814 72.9457 24.6 70.0459 24.6 70.0459L24.9739 69.6789L32.0562 61.5013L38.0608 63.8073Z" fill="black"/>
<path fill-rule="evenodd" clip-rule="evenodd" d="M22.2407 54.1852C23 56.1615 25.3325 64.0426 37.1984 64.9341C38.3137 61.1356 35.3907 56.7996 32.6986 55.2963C30.0064 53.793 25.0722 53.0004 22.2407 54.1852Z" fill="white"/>
<path d="M35.9347 59.489C36.7573 61.0376 37.1646 62.7761 36.8179 64.4008C31.2573 63.8951 27.9424 61.8042 25.9211 59.6263C24.1169 57.6823 23.3178 55.6461 22.885 54.4816C24.1432 54.0826 25.7852 54.0217 27.4605 54.2289C29.3369 54.461 31.178 55.0198 32.4548 55.7328C33.7043 56.4306 35.0447 57.8136 35.9347 59.489Z" stroke="black" stroke-opacity="0.56"/>
<path fill-rule="evenodd" clip-rule="evenodd" d="M26.3493 54.5556C26.3493 54.5556 36.6682 56.0348 36.4337 61.963C34.1139 65.3763 33.4457 66.037 33.4457 66.037C33.4457 66.037 38.6989 68.7467 41.2891 71.2222C43.8793 73.6978 43.7041 75.5459 45.3975 76.4074C47.0909 77.2689 48.8064 77.2015 49.8794 78.6296C50.9525 80.0578 51.6808 82.7122 49.8794 83.4444C48.0781 84.1767 46.8915 80.8519 46.8915 80.8519C46.8915 80.8519 43.8856 81.0244 43.5301 82.3333C43.1745 83.6422 43.4572 86.3293 43.5301 86.7778C43.6029 87.2263 43.0344 88.6707 41.6626 88.6296C40.2907 88.5885 39.2961 88.3485 39.4216 86.7778C39.5471 85.207 39.4198 84.2519 39.4216 83.4444C39.4235 82.637 37.5907 82.6767 37.1807 83.4444C36.7706 84.2122 36.5681 84.6815 36.0602 86.037C35.6975 87.0048 35.8809 87.3737 34.5662 87.1482C33.1854 86.9111 32.5792 84.9474 33.0722 83.8148C33.5652 82.6822 34.1927 81.963 34.1927 81.963C34.1927 81.963 32.9299 81.243 32.3252 79.3704C30.7625 79.0659 18.5157 72.33 20.3734 64.5556C22.2312 56.7811 26.3493 54.5556 26.3493 54.5556Z" fill="#FFD90D"/>
<path d="M34.6507 86.6553C34.9697 86.7101 35.1492 86.7191 35.2517 86.7085C35.2768 86.7059 35.2925 86.7027 35.3016 86.7002C35.3059 86.6933 35.3125 86.6816 35.3211 86.6632C35.3385 86.6256 35.3579 86.5737 35.3831 86.496C35.3955 86.458 35.4094 86.4129 35.4251 86.3622C35.4674 86.2251 35.5223 86.0475 35.592 85.8616C36.1032 84.4972 36.3146 84.0047 36.7396 83.2089C36.9134 82.8835 37.214 82.674 37.5059 82.548C37.8026 82.4198 38.1367 82.3568 38.4508 82.3538C38.7591 82.3508 39.0937 82.4054 39.3708 82.5577C39.6633 82.7185 39.9226 83.0142 39.9216 83.4456C39.9211 83.6591 39.9316 83.9004 39.9436 84.1746C39.9725 84.838 40.0098 85.6943 39.92 86.8176C39.8926 87.1603 39.9302 87.3877 39.9905 87.5393C40.0473 87.6821 40.1328 87.7803 40.2521 87.8574C40.5259 88.0345 40.984 88.1091 41.6776 88.1299C42.1595 88.1443 42.5023 87.9063 42.736 87.5902C42.8544 87.4299 42.9376 87.2572 42.9865 87.1072C43.037 86.9524 43.0365 86.8674 43.0365 86.8586C43.0365 86.8581 43.0365 86.8578 43.0365 86.8579C42.9961 86.609 42.9057 85.8043 42.8698 84.898C42.8344 84.0063 42.8476 82.9382 43.0475 82.2023C43.1842 81.6994 43.5613 81.3543 43.9469 81.1216C44.337 80.8862 44.7979 80.7271 45.2184 80.6178C45.6433 80.5074 46.0524 80.4416 46.353 80.4033C46.5041 80.384 46.6295 80.3715 46.7179 80.3637C46.7622 80.3599 46.7973 80.3572 46.8219 80.3554L46.8508 80.3534L46.859 80.3529L46.8614 80.3528L46.8623 80.3527L46.8626 80.3527C46.8627 80.3527 46.8628 80.3527 46.8915 80.8519L46.8628 80.3527L47.2366 80.3312L47.3623 80.6834L47.3623 80.6834L47.3623 80.6836L47.3624 80.6838L47.3625 80.6841L47.3644 80.6891L47.373 80.7123C47.381 80.7335 47.3933 80.7656 47.4099 80.8068C47.4432 80.8895 47.4931 81.0083 47.5586 81.1494C47.6905 81.4337 47.8808 81.7976 48.1185 82.1345C48.3603 82.4772 48.6272 82.7575 48.9011 82.9144C49.1552 83.0599 49.406 83.0972 49.6912 82.9813C50.0213 82.847 50.2183 82.6369 50.3343 82.379C50.4561 82.1082 50.4997 81.7571 50.4597 81.3465C50.379 80.5188 49.9706 79.5833 49.4797 78.93C49.0317 78.3337 48.4466 78.0355 47.7069 77.7783C47.5114 77.7103 47.2984 77.6438 47.0741 77.5737C46.4833 77.3891 45.813 77.1797 45.1708 76.8531C44.187 76.3526 43.7412 75.5551 43.2682 74.7088L43.2432 74.6641L43.2431 74.6639C42.7573 73.7952 42.1828 72.7681 40.9436 71.5837C39.691 70.3865 37.7707 69.1137 36.1379 68.1295C35.3265 67.6403 34.5949 67.2277 34.0663 66.9374C33.8021 66.7923 33.5889 66.6779 33.4421 66.5999C33.3687 66.561 33.3119 66.5311 33.2736 66.5112L33.2304 66.4886L33.2197 66.4831L33.2172 66.4817L33.2166 66.4815L33.2165 66.4814L33.2165 66.4814L32.6045 66.1657L33.0921 65.6835C33.0922 65.6835 33.0922 65.6834 33.0922 65.6834C33.0926 65.6831 33.093 65.6826 33.0935 65.682C33.095 65.6806 33.0972 65.6782 33.1002 65.675C33.1032 65.6719 33.1068 65.6679 33.1113 65.6631C33.1296 65.6432 33.1608 65.6086 33.2069 65.5549C33.2991 65.4474 33.4496 65.265 33.674 64.9744C34.1122 64.4069 34.8285 63.4315 35.9374 61.8035C35.958 59.2633 33.7695 57.579 31.2798 56.4946C30.04 55.9546 28.7875 55.5926 27.8413 55.3655C27.3692 55.2522 26.9758 55.173 26.7015 55.1224C26.6021 55.104 26.5184 55.0894 26.4524 55.0783C26.4491 55.0804 26.4458 55.0826 26.4425 55.0848C26.3385 55.1528 26.183 55.2611 25.9881 55.4161C25.5983 55.7261 25.0508 56.2231 24.4436 56.9585C23.2308 58.4274 21.771 60.8581 20.8597 64.6718C20.0012 68.2648 22.3919 71.7126 25.3992 74.3908C26.8832 75.7125 28.4755 76.8077 29.7927 77.5906C30.451 77.9818 31.0366 78.2928 31.5014 78.5137C31.9826 78.7423 32.294 78.8549 32.4208 78.8796L32.7104 78.936L32.801 79.2167C33.0772 80.0718 33.5009 80.657 33.8491 81.0255C34.0236 81.2101 34.1792 81.3404 34.2877 81.4225C34.3419 81.4636 34.3841 81.4924 34.4109 81.5099C34.4168 81.5138 34.422 81.5171 34.4264 81.5199C34.4318 81.5233 34.4359 81.5258 34.4387 81.5275L34.4417 81.5294L34.4426 81.5299L34.4426 81.5299L34.443 81.5301L34.9711 81.8312L34.57 82.291L34.5699 82.2912L34.5697 82.2914L34.5697 82.2914L34.5696 82.2915C34.5695 82.2916 34.5695 82.2917 34.1927 81.963M34.6507 86.6553C34.6508 86.6553 34.6508 86.6554 34.6508 86.6554L34.5662 87.1482L34.6507 86.6553ZM34.6507 86.6553C34.1924 86.5766 33.8058 86.1993 33.5813 85.633C33.3559 85.0645 33.3489 84.4319 33.5307 84.0144C33.7621 83.4828 34.0256 83.0472 34.2308 82.7453C34.3332 82.5947 34.4205 82.4783 34.4809 82.4009C34.5111 82.3623 34.5346 82.3334 34.5499 82.315L34.5664 82.2953L34.5695 82.2917L34.1927 81.963M34.1927 81.963C33.945 82.3973 33.9448 82.3972 33.9446 82.3971L33.9442 82.3968L33.9433 82.3963L33.941 82.395L33.9351 82.3916L33.918 82.3813C33.9096 82.3762 33.8995 82.3699 33.8877 82.3624L32.3252 79.3704C32.7123 80.569 33.369 81.2954 33.7916 81.663L33.8047 81.6474L33.8121 81.6387L33.8145 81.636L33.8153 81.635L33.8156 81.6346L33.8158 81.6344C33.8159 81.6343 33.8159 81.6343 34.1927 81.963ZM34.1927 81.963C34.4404 81.5286 34.4405 81.5287 34.4407 81.5288L34.4404 81.5286L34.1927 81.963ZM26.5884 54.9947C26.5887 54.9945 26.5887 54.9945 26.5885 54.9946L26.5884 54.9947ZM35.3122 86.6964C35.3124 86.6965 35.3112 86.6972 35.3079 86.6984C35.3104 86.6969 35.312 86.6963 35.3122 86.6964Z" stroke="black" stroke-opacity="0.56"/>
<path opacity="0.12" fill-rule="evenodd" clip-rule="evenodd" d="M21.8674 66.7778C22.2895 70.6667 24.7784 74.0485 27.264 76.5233C23.4828 73.7863 19.2227 69.3711 20.3735 64.5556C22.2312 56.7811 26.3494 54.5556 26.3494 54.5556C26.3494 54.5556 27.0276 54.6533 28.0293 54.897C26.2903 56.0285 21.1305 59.9896 21.8674 66.7778Z" fill="black"/>
<path fill-rule="evenodd" clip-rule="evenodd" d="M22.2407 54.5556C23.1498 54.1885 27.2261 53.6759 31.9516 57.8889C36.677 62.1019 37.554 64.9259 37.554 64.9259C37.554 64.9259 41.9806 53.897 37.1805 50.4815C32.3803 47.0659 22.6762 52.0759 22.2407 54.5556Z" fill="white"/>
<path d="M37.6934 63.0001C37.6232 63.2245 37.5558 63.4317 37.4931 63.6189C37.3477 63.3567 37.1666 63.0534 36.9427 62.7127C36.1071 61.4411 34.6772 59.6491 32.2843 57.5157C28.4868 54.13 25.0419 53.6734 23.1946 53.8491C23.4787 53.5202 23.8793 53.1616 24.3789 52.7962C25.3831 52.0617 26.7448 51.3306 28.2468 50.777C29.7491 50.2232 31.3694 49.8552 32.8912 49.8283C34.4141 49.8014 35.8044 50.116 36.8906 50.8889C37.9467 51.6404 38.5246 52.8282 38.7711 54.264C39.0181 55.7025 38.9226 57.3406 38.6735 58.906C38.4252 60.4666 38.0289 61.9272 37.6934 63.0001Z" stroke="black" stroke-opacity="0.56"/>
<path opacity="0.12" fill-rule="evenodd" clip-rule="evenodd" d="M34.77 49.4867C32.1671 50.1226 28.3877 51.5515 26.3402 54.667C24.2692 54.0959 22.7528 54.3489 22.2407 54.5556C22.6116 52.4433 29.708 48.4982 34.77 49.4867Z" fill="black"/>
<path fill-rule="evenodd" clip-rule="evenodd" d="M55.8894 62.8487C55.8975 62.7516 55.8897 62.734 55.8838 62.8703C55.8842 62.8638 55.8882 62.8555 55.8894 62.8487C55.8633 63.1509 55.6769 64.2391 54.7676 63.9523C54.2087 63.776 54.6068 62.924 55.1396 62.5096C55.3737 62.3275 56.3217 61.8947 57 62.149C56.3537 62.1782 55.9232 62.6229 55.8894 62.8487ZM41.745 48.0826C41.1378 48.0047 41.0008 49.1646 41.0008 49.1646C41.0008 49.1646 40.945 46.9609 41.745 47.0005C42.5449 47.0402 42.4891 48.8039 42.4891 48.8039C42.4891 48.8039 42.3522 48.1605 41.745 48.0826Z" fill="black"/>
<path d="M48.9624 30.4933C48.9624 30.4933 53.2966 20.8214 58.9854 30.4933" stroke="black" stroke-opacity="0.56"/>
<path d="M62.2073 33.1092C62.2073 33.1092 62.2595 28.0446 59.0421 27.0978C55.8248 26.1511 53.0146 28.5712 53.0146 29.5751" stroke="black" stroke-opacity="0.56"/>
<path d="M40.0791 44.3809L41.7564 39.9448L42.9056 44.8869L45.482 39.5447L45.5425 45.3522" stroke="black" stroke-opacity="0.56"/>
<path d="M49.9817 42.4708C49.9817 42.4708 46.5586 42.4059 46.5586 46.0419" stroke="black" stroke-opacity="0.56"/>
<path d="M42.7979 44.9363C42.7979 44.9363 43.6215 45.1965 43.9631 46.0831" stroke="black" stroke-opacity="0.56"/>
<path d="M42.802 49.554C41.8585 49.8315 41.2266 49.41 41.2266 49.41" stroke="black" stroke-opacity="0.56"/>
<path d="M51.6065 41.5819C51.6065 41.5819 55.844 45.6098 56.1676 46.3403C56.4912 47.0708 55.2592 50.3233 54.0811 50.3233C52.903 50.3233 51.6701 48.4991 50.5663 48.3042C49.4625 48.1093 49.0513 48.5103 49.0513 48.5103" stroke="black" stroke-opacity="0.56"/>
<path d="M46.5283 45.0088C46.5283 45.0088 53.052 46.23 55.4389 49.1224C57.8247 48.4674 61.523 49.5325 62.4181 50.8456" stroke="black" stroke-opacity="0.56"/>
<path d="M58.2239 44.9257C58.2239 44.9257 57.3349 46.4765 56.209 46.1428" stroke="black" stroke-opacity="0.56"/>
<path d="M58.019 46.7407C58.019 46.7407 61.0561 45.6795 61.804 46.2101C62.5519 46.7407 63.2101 48.4465 63.2101 48.4465" stroke="black" stroke-opacity="0.56"/>
<path d="M55.1011 49.8075C55.1011 49.8075 59.3718 50.5052 59.2539 52.6682C59.136 54.8311 56.5011 54.7607 55.5748 54.3699" stroke="black" stroke-opacity="0.56"/>
<path d="M44.7729 65.027L40.7037 69.4345L38.1313 65.0699" stroke="black" stroke-opacity="0.56"/>
<path d="M55.1598 64.8519V71.0507L53.0679 69.627" stroke="black" stroke-opacity="0.56"/>
<path d="M74.1726 82.0256C74.1726 82.0256 73.7051 83.2081 74.1747 84.0227C74.6444 84.8373 76.4521 87.1644 75.5328 88.1418C74.6135 89.1192 72.4988 88.4454 71.0244 85.9171C70.401 84.8481 69.208 85.549 69.208 85.549" stroke="black" stroke-opacity="0.56"/>
<path d="M30.0728 121.121C30.0728 121.121 35.709 125.759 47.8165 123.046" stroke="black" stroke-opacity="0.56"/>
<path d="M62.1926 120.464C62.1926 120.464 54.9067 122.359 48.9697 119.9" stroke="black" stroke-opacity="0.56"/>
<path fill-rule="evenodd" clip-rule="evenodd" d="M34.2194 37.5087C33.9103 39.5459 37.5707 41.517 37.9882 41.6784C33.9412 42.8312 31.2336 40.6452 29.7992 38.9051C28.284 39.2084 26.6723 39.3722 25 39.3722C16.1635 39.3722 9 34.8119 9 29.1861C9 23.5603 16.1635 19 25 19C33.8365 19 41 23.5603 41 29.1861C41 32.6255 38.3199 35.6644 34.2194 37.5087Z" fill="white" stroke="#C9CCD0"/>
<path d="M15.7188 26.3633V32H17.6523C19.3281 32 20.3125 30.957 20.3125 29.1797C20.3125 27.4062 19.3242 26.3633 17.6523 26.3633H15.7188ZM16.4219 26.9961H17.6055C18.8555 26.9961 19.5938 27.8086 19.5938 29.1875C19.5938 30.5625 18.8633 31.3672 17.6055 31.3672H16.4219V26.9961ZM22.1367 28.4688V26.3633H21.5117V28.4688H22.1367ZM25.1992 32.0742C26.3984 32.0742 27.1406 31.2461 27.1406 29.8945C27.1406 28.5391 26.3984 27.7148 25.1992 27.7148C24 27.7148 23.2578 28.5391 23.2578 29.8945C23.2578 31.2461 24 32.0742 25.1992 32.0742ZM25.1992 31.4688C24.4023 31.4688 23.9531 30.8906 23.9531 29.8945C23.9531 28.8945 24.4023 28.3203 25.1992 28.3203C25.9961 28.3203 26.4453 28.8945 26.4453 29.8945C26.4453 30.8906 25.9961 31.4688 25.1992 31.4688ZM28.2344 32H28.9062V29.5078C28.9062 28.7969 29.3203 28.3203 30.0742 28.3203C30.7109 28.3203 31.0469 28.6914 31.0469 29.4375V32H31.7188V29.2734C31.7188 28.2852 31.1562 27.7148 30.2656 27.7148C29.6211 27.7148 29.1797 27.9883 28.9688 28.4531H28.9062V26.1172H28.2344V32ZM33.1641 26.3594L33.2305 30.125H33.8789L33.9453 26.3594H33.1641ZM33.5586 32.0703C33.875 32.0703 34.0977 31.8438 34.0977 31.5273C34.0977 31.207 33.875 30.9805 33.5586 30.9805C33.2422 30.9805 33.0156 31.207 33.0156 31.5273C33.0156 31.8438 33.2422 32.0703 33.5586 32.0703Z" fill="#797C80"/>
</svg>
