<?xml version="1.0" encoding="UTF-8" standalone="no"?>
<svg width="76px" height="119px" viewBox="0 0 76 119" version="1.1" xmlns="http://www.w3.org/2000/svg" xmlns:xlink="http://www.w3.org/1999/xlink">
    <!-- Generator: Sketch 39 (31667) - http://www.bohemiancoding.com/sketch -->
    <title>img-error</title>
    <desc>Created with Sketch.</desc>
    <defs>
        <polygon id="path-1" points="29.7674419 43.125 33.1162791 43.125 33.4883721 46.125 30.8837209 46.5"></polygon>
        <mask id="mask-2" maskContentUnits="userSpaceOnUse" maskUnits="objectBoundingBox" x="0" y="0" width="3.72093023" height="3.375" fill="white">
            <use xlink:href="#path-1"></use>
        </mask>
        <path d="M42.7906977,38.625 C42.7906977,38.625 47.9036279,42.9285 47.627907,45.75 C47.4842791,47.221125 43.7707907,47.971875 40.1860465,48 C36.6013023,48.028125 32.5406512,47.575875 31.255814,44.25 C31.1177674,46.254 30.8837209,46.875 30.8837209,46.875 L23.8139535,45 L27.1627907,37.5 L42.7906977,38.625 Z" id="path-3"></path>
        <mask id="mask-4" maskContentUnits="userSpaceOnUse" maskUnits="objectBoundingBox" x="0" y="0" width="23.8247171" height="10.5011807" fill="white">
            <use xlink:href="#path-3"></use>
        </mask>
        <path d="M37.2093023,7.5 C37.2093023,7.5 44.7114419,16.68075 45.0232558,23.25 C45.3923721,31.029 42.7906977,38.25 42.7906977,38.25 C42.7906977,38.25 37.1665116,41.451375 28.6511628,37.5 C28.3817674,32.6355 26.0465116,12.75 26.0465116,12.75 L37.2093023,7.5 L37.2093023,7.5 Z" id="path-5"></path>
        <mask id="mask-6" maskContentUnits="userSpaceOnUse" maskUnits="objectBoundingBox" x="0" y="0" width="19.0126094" height="31.9741731" fill="white">
            <use xlink:href="#path-5"></use>
        </mask>
        <polygon id="path-7" points="12.2790698 48.75 15.627907 48 13.7674419 45 10.7906977 46.5"></polygon>
        <mask id="mask-8" maskContentUnits="userSpaceOnUse" maskUnits="objectBoundingBox" x="0" y="0" width="4.8372093" height="3.75" fill="white">
            <use xlink:href="#path-7"></use>
        </mask>
        <path d="M10.7906977,38.25 C10.7906977,38.25 7.92744186,42.361875 7.44186047,47.625 C10.8952558,49.1385 12.2790698,49.125 12.2790698,49.125 L13.3953488,47.625 C13.3953488,47.625 16.3813953,50.92425 23.4418605,50.625 C29.0902326,50.385375 29.8827907,49.539 30.1395349,48.375 C30.3962791,47.211 29.7443721,44.308875 26.4186047,41.25 C23.0928372,38.191125 10.7906977,38.25 10.7906977,38.25 L10.7906977,38.25 Z" id="path-9"></path>
        <mask id="mask-10" maskContentUnits="userSpaceOnUse" maskUnits="objectBoundingBox" x="0" y="0" width="22.7479154" height="12.3942731" fill="white">
            <use xlink:href="#path-9"></use>
        </mask>
        <path d="M38.3255814,7.5 C38.3255814,7.5 35.0634419,13.381875 28.2790698,15.75 C28.8993488,17.270625 32.1968372,24.61275 31.627907,28.5 C31.0589767,32.38725 27.5348837,41.625 27.5348837,41.625 C27.5348837,41.625 19.5836279,44.560875 10.0465116,39 C11.4463256,34.882875 13.136,30.2745 12.6511628,26.25 C11.4619535,16.3815 0.24855814,11.210625 0,0 C7.8135814,1.467375 38.3255814,7.5 38.3255814,7.5 Z" id="path-11"></path>
        <mask id="mask-12" maskContentUnits="userSpaceOnUse" maskUnits="objectBoundingBox" x="0" y="0" width="38.3255814" height="42.3994275" fill="white">
            <use xlink:href="#path-11"></use>
        </mask>
        <path d="M12.7032967,6.375 C12.9046813,7.614 13.2476703,7.3695 10.8351648,9.75 C8.42265934,12.1305 3.36263736,6.375 3.36263736,6.375 C3.36263736,6.375 12.5019121,5.136 12.7032967,6.375 L12.7032967,6.375 Z" id="path-13"></path>
        <mask id="mask-14" maskContentUnits="userSpaceOnUse" maskUnits="objectBoundingBox" x="0" y="0" width="9.48257804" height="4.50261156" fill="white">
            <use xlink:href="#path-13"></use>
        </mask>
        <path d="M10.4615385,6 C10.4615385,6 14.8744396,16.599375 25.4065934,16.5 C28.5835385,16.429875 28.4934945,15.177375 30.2637363,15.375 C32.033978,15.572625 34.0298901,17.20275 33.6263736,18.75 C33.2228571,20.29725 31.2254505,19.75275 30.2637363,19.5 C29.5422637,20.020125 28.591011,20.87175 28.7692308,21.75 C28.9474505,22.62825 31.631956,23.1705 32.1318681,24.375 C32.6314066,25.5795 32.7558242,26.706 32.1318681,27.75 C31.5079121,28.794 30.4456923,28.880625 29.5164835,28.5 C28.5869011,28.119375 28.7692308,25.875 28.7692308,25.875 L26.5274725,27.375 C26.5274725,27.375 27.6711429,29.30475 27.2747253,30.375 C26.8783077,31.44525 24.5905934,33.61575 23.1648352,32.625 C21.7390769,31.63425 23.1648352,29.25 23.1648352,29.25 L22.4175824,27.75 C22.4175824,27.75 11.2947253,25.8015 7.47252747,21.375 C3.65032967,16.9485 0.747252747,9 0.747252747,9 L10.4615385,6 L10.4615385,6 Z" id="path-15"></path>
        <mask id="mask-16" maskContentUnits="userSpaceOnUse" maskUnits="objectBoundingBox" x="0" y="0" width="32.9316955" height="26.8776112" fill="white">
            <use xlink:href="#path-15"></use>
        </mask>
        <path d="M13.0769231,6.375 C13.0769231,6.375 7.34026374,5.410125 2.98901099,11.25 C-1.36224176,17.089875 0.373626374,0.375 0.373626374,0.375 C0.373626374,0.375 5.35294505,-0.013875 7.0989011,0.75 C8.84485714,1.513875 13.0769231,6.375 13.0769231,6.375 L13.0769231,6.375 Z" id="path-17"></path>
        <mask id="mask-18" maskContentUnits="userSpaceOnUse" maskUnits="objectBoundingBox" x="0" y="0" width="13.0451697" height="12.2120928" fill="white">
            <use xlink:href="#path-17"></use>
        </mask>
        <path d="M26.8333333,15.7043478 C26.7808333,18.4062435 26.4444444,18.6956522 26.4444444,18.6956522 C26.4444444,18.6956522 26.7746111,20.2440261 25.6666667,21.6869565 C24.5587222,23.129887 22.9444444,23.5565217 22.9444444,23.5565217 L21.7777778,26.173913 L14.7777778,38.8869565 L10.8888889,43 L0,30.2869565 L1.16666667,23.9304348 C1.16666667,23.9304348 2.45466667,22.3562609 3.79788889,19.9755565 C2.75255556,19.3563565 1.60261111,18.2720087 2.72222222,16.826087 C3.612,15.6774261 4.46911111,15.7469739 5.11311111,16.1141565 C5.68672222,10.2930783 5.21927778,-2.62898261 19.8333333,0.747826087 C31.6357222,3.47514783 26.8862222,12.9897391 26.8333333,15.7043478 L26.8333333,15.7043478 Z" id="path-19"></path>
        <mask id="mask-20" maskContentUnits="userSpaceOnUse" maskUnits="objectBoundingBox" x="0" y="0" width="27.8217367" height="42.8063183" fill="white">
            <use xlink:href="#path-19"></use>
        </mask>
        <path d="M18.6666667,25.426087 C20.1078889,25.6893217 21.7777778,25.0521739 21.7777778,25.0521739 C21.7777778,25.0521739 22.792,27.219 22.9444444,28.4173913 C23.0968889,29.6157826 22.7643889,30.7109739 22.9444444,31.4086957 C23.1241111,32.1064174 23.6946111,32.2653304 22.9444444,33.6521739 C22.1942778,35.0390174 21.0684444,34.2328609 20.6111111,34.773913 C20.1537778,35.3149652 19.2830556,36.442687 18.2777778,35.8956522 C17.2725,35.3486174 17.8986111,35.5385652 17.1111111,35.5217391 C16.3236111,35.504913 9.98238889,37.087687 7.38888889,33.6521739 C4.79538889,30.2166609 5.38377778,27.4242783 6.61111111,25.8 C7.83844444,24.1757217 10.4070556,22.5297565 12.8333333,22.8086957 C15.2596111,23.0876348 17.3001111,25.176687 18.6666667,25.426087 L18.6666667,25.426087 Z" id="path-21"></path>
        <mask id="mask-22" maskContentUnits="userSpaceOnUse" maskUnits="objectBoundingBox" x="0" y="0" width="17.7551782" height="13.2640376" fill="white">
            <use xlink:href="#path-21"></use>
        </mask>
        <path d="M2.24096386,5.18518519 C3.00027711,7.16148148 5.33274699,15.0425926 17.1986506,15.9340741 C18.3139036,12.1355556 15.3909398,7.79962963 12.6987952,6.2962963 C10.0066506,4.79296296 5.07242169,4.00037037 2.24096386,5.18518519 L2.24096386,5.18518519 Z" id="path-23"></path>
        <mask id="mask-24" maskContentUnits="userSpaceOnUse" maskUnits="objectBoundingBox" x="0" y="0" width="15.201379" height="11.3215071" fill="white">
            <use xlink:href="#path-23"></use>
        </mask>
        <path d="M6.34939759,5.55555556 C6.34939759,5.55555556 16.6682892,7.03481481 16.4337349,12.962963 C14.1139639,16.3762963 13.4457831,17.037037 13.4457831,17.037037 C13.4457831,17.037037 18.6989759,19.7466667 21.2891566,22.2222222 C23.8793373,24.6977778 23.7041687,26.5459259 25.3975904,27.4074074 C27.091012,28.2688889 28.8064699,28.2014815 29.8795181,29.6296296 C30.9525663,31.0577778 31.6808795,33.7122222 29.8795181,34.4444444 C28.0781566,35.1766667 26.8915663,31.8518519 26.8915663,31.8518519 C26.8915663,31.8518519 23.8856867,32.0244444 23.5301205,33.3333333 C23.1745542,34.6422222 23.4572892,37.3292593 23.5301205,37.7777778 C23.6029518,38.2262963 23.034494,39.6707407 21.6626506,39.6296296 C20.2908072,39.5885185 19.2961928,39.3485185 19.4216867,37.7777778 C19.5471807,36.207037 19.4198193,35.2518519 19.4216867,34.4444444 C19.4235542,33.637037 17.5908193,33.6766667 17.1807229,34.4444444 C16.7706265,35.2122222 16.5681928,35.6814815 16.060241,37.037037 C15.6975783,38.0048148 15.8809639,38.3737037 14.5662651,38.1481481 C13.1854578,37.9111111 12.5792771,35.9474074 13.0722892,34.8148148 C13.5653012,33.6822222 14.1927711,32.962963 14.1927711,32.962963 C14.1927711,32.962963 12.929988,32.242963 12.3253012,30.3703704 C10.7626024,30.0659259 -1.48426506,23.33 0.373493976,15.5555556 C2.23125301,7.78111111 6.34939759,5.55555556 6.34939759,5.55555556 L6.34939759,5.55555556 Z" id="path-25"></path>
        <mask id="mask-26" maskContentUnits="userSpaceOnUse" maskUnits="objectBoundingBox" x="0" y="0" width="30.7920047" height="34.074934" fill="white">
            <use xlink:href="#path-25"></use>
        </mask>
        <path d="M2.24096386,5.55555556 C3.15004819,5.18851852 7.22636145,4.67592593 11.9518072,8.88888889 C16.677253,13.1018519 17.5542169,15.9259259 17.5542169,15.9259259 C17.5542169,15.9259259 21.9808675,4.89703704 17.1807229,1.48148148 C12.3805783,-1.93407407 2.67645783,3.07592593 2.24096386,5.55555556 L2.24096386,5.55555556 Z" id="path-27"></path>
        <mask id="mask-28" maskContentUnits="userSpaceOnUse" maskUnits="objectBoundingBox" x="0" y="0" width="17.1744879" height="15.5991639" fill="white">
            <use xlink:href="#path-27"></use>
        </mask>
    </defs>
    <g id="Export" stroke="none" stroke-width="1" fill="none" fill-rule="evenodd">
        <g id="Illustrations" fill="#000000">
            <g id="Img-/-Homer" transform="translate(-8.000000, -18.000000)">
                <g id="Group" stroke-width="1" fill="none" transform="translate(18.000000, 86.000000)">
                    <use id="Shape" stroke="#000000" mask="url(#mask-2)" stroke-width="2" fill="#333B33" xlink:href="#path-1"></use>
                    <use id="Boot-B" stroke-opacity="0.58" stroke="#000000" mask="url(#mask-4)" stroke-width="2" fill="#404840" xlink:href="#path-3"></use>
                    <use id="Leg-B" stroke-opacity="0.57" stroke="#000000" mask="url(#mask-6)" stroke-width="2" fill="#73A6CC" xlink:href="#path-5"></use>
                    <path d="M30.5116279,16.125 C33.4533953,20.92575 35.6781395,30.362625 30.1395349,42.375 C28.9737674,44.903625 29.0310698,46.01175 29.348093,46.499625 L23.8139535,43.875 L25.3023256,11.25 L35.7209302,9 C35.7209302,9 36.6202791,12.954375 30.5116279,16.125 L30.5116279,16.125 Z" id="Shade-Leg-B" fill="#000000" opacity="0.12"></path>
                    <use id="Heel-F" stroke="#000000" mask="url(#mask-8)" stroke-width="2" fill="#333B33" xlink:href="#path-7"></use>
                    <use id="Boot-F" stroke-opacity="0.58" stroke="#000000" mask="url(#mask-10)" stroke-width="2" fill="#404840" xlink:href="#path-9"></use>
                    <use id="Leg-F" stroke-opacity="0.58" stroke="#000000" mask="url(#mask-12)" stroke-width="2" fill="#73A6CC" xlink:href="#path-11"></use>
                    <path d="M15.627907,28.5 C14.5536744,38.302875 12.6511628,40.875 12.6511628,40.875 C12.6511628,40.875 8.7732093,42.4185 10.0219535,48.6195 C9.33730233,48.398625 8.4855814,48.0825 7.44186047,47.625 C7.79497674,43.797 9.40204651,40.587 10.2545116,39.11625 C10.1849302,39.0765 10.116093,39.0405 10.0465116,39 C11.4463256,34.882875 13.136,30.2745 12.6511628,26.25 C11.4619535,16.3815 0.24855814,11.210625 0,0 C0.843906977,0.158625 1.95386047,0.3705 3.26027907,0.622125 C0.56,8.44575 16.9142326,16.76175 15.627907,28.5 L15.627907,28.5 Z" id="Shade-Leg-F" fill="#000000" opacity="0.12"></path>
                </g>
                <g id="Group" stroke-width="1" fill="none" transform="translate(50.000000, 63.000000)">
                    <use id="Shape" stroke="#000000" mask="url(#mask-14)" stroke-width="2" fill="#FFFFFF" xlink:href="#path-13"></use>
                    <use id="Shape" stroke-opacity="0.58" stroke="#000000" mask="url(#mask-16)" stroke-width="2" fill="#FFD90D" xlink:href="#path-15"></use>
                    <path d="M16.0659341,24.375 C19.7226154,25.1205 21.1457582,26.638125 21.697978,27.610125 C19.1774945,27.094125 10.7088791,25.123125 7.47252747,21.375 C6.72303297,20.50725 6.00978022,19.503 5.34621978,18.45075 L4.48351648,13.875 C4.48351648,13.875 10.4450989,23.229375 16.0659341,24.375 L16.0659341,24.375 Z" id="Shape" fill="#000000" opacity="0.12"></path>
                    <use id="Shape" stroke-opacity="0.58" stroke="#000000" mask="url(#mask-18)" stroke-width="2" fill="#FFFFFF" xlink:href="#path-17"></use>
                </g>
                <g id="Group" stroke-width="1" fill="none" transform="translate(38.000000, 29.000000)">
                    <use id="Shape" stroke-opacity="0.58" stroke="#000000" mask="url(#mask-20)" stroke-width="2" fill="#FFD90D" xlink:href="#path-19"></use>
                    <use id="Shape" stroke-opacity="0.58" stroke="#000000" mask="url(#mask-22)" stroke-width="2" fill="#D9A659" xlink:href="#path-21"></use>
                    <path d="M5.44444444,18.3217391 C5.50394444,23.3976087 2.14977778,25.7906522 0.677444444,26.595313 L1.16666667,23.9304348 C1.16666667,23.9304348 3.07416667,21.6020783 4.66666667,18.3217391 C6.01805556,15.5387043 3.7275,1.99557391 13.4104444,0.358208696 C11.8346667,1.89461739 10.066,3.87186957 9.33333333,5.60869565 C7.87772222,9.05916522 5.40672222,15.0986087 5.44444444,18.3217391 L5.44444444,18.3217391 Z M10.5,19.4434783 C8.4175,18.4649478 9.33216667,11.4847391 14.7777778,13.0869565 C11.9342222,14.4356609 10.7512222,17.5963478 10.5,19.4434783 L10.5,19.4434783 Z M6.61111111,25.8 C7.66577778,24.4041826 9.71094444,22.9964 11.8047222,22.8034609 C9.60594444,23.6406522 7.119,25.4141217 7,29.1652174 C6.88411111,32.8108696 10.1535,34.8045739 13.2008333,35.8702261 C11.1253333,35.8720957 8.74494444,35.4484522 7.38888889,33.6521739 C4.79538889,30.2166609 5.38377778,27.4242783 6.61111111,25.8 L6.61111111,25.8 Z" id="Shape" fill="#000000" opacity="0.12"></path>
                </g>
                <g id="Group" stroke-width="1" fill="none" transform="translate(16.000000, 55.000000)">
                    <path d="M8.6,15.0458716 C8.6,15.0458716 3.08141739,17.9456881 0.373913043,26.0550459 C-0.151808696,28.7592661 6.22228696,38.3970642 22.8086957,39.6330275 C39.3951043,40.8689908 43,37.0642202 43,37.0642202 C43,37.0642202 43.0661826,24.1020183 37.0173913,19.0825688 C37.4870261,15.7255046 37.0173913,10.2752294 37.0173913,10.2752294 L32.9043478,15.7798165 L29.1652174,9.5412844 L21.6869565,0 L8.97391304,14.6788991" id="Shape" stroke-opacity="0.58" stroke="#000000" fill="#FFFFFF"></path>
                    <path d="M22.0608696,8.80733945 L19.4434783,14.3119266 L15.3304348,23.853211 C15.3304348,23.853211 7.21053913,20.6088073 4.48695652,23.1192661 C2.60318261,24.8557798 2.25207826,28.4022018 2.21468696,30.4249541 C0.779234783,28.5827523 0.201165217,26.9438532 0.373913043,26.0550459 C3.08141739,17.9456881 8.6,15.0458716 8.6,15.0458716 L8.97391304,14.6788991 L16.0562,6.5012844 L22.0608696,8.80733945 L22.0608696,8.80733945 Z" id="Shape" fill="#000000" opacity="0.12"></path>
                </g>
                <g id="Group" stroke-width="1" fill="none" transform="translate(20.000000, 49.000000)">
                    <use id="Shape" stroke-opacity="0.58" stroke="#000000" mask="url(#mask-24)" stroke-width="2" fill="#FFFFFF" xlink:href="#path-23"></use>
                    <use id="Shape" stroke-opacity="0.58" stroke="#000000" mask="url(#mask-26)" stroke-width="2" fill="#FFD90D" xlink:href="#path-25"></use>
                    <path d="M1.86746988,17.7777778 C2.28951807,21.6666667 4.77848193,25.0485185 7.26408434,27.5233333 C3.48283133,24.7862963 -0.777240964,20.3711111 0.373493976,15.5555556 C2.23125301,7.78111111 6.34939759,5.55555556 6.34939759,5.55555556 C6.34939759,5.55555556 7.02766265,5.65333333 8.02937349,5.89703704 C6.29038554,7.02851852 1.13056627,10.9896296 1.86746988,17.7777778 L1.86746988,17.7777778 Z" id="Shape" fill="#000000" opacity="0.12"></path>
                    <use id="Shape" stroke-opacity="0.58" stroke="#000000" mask="url(#mask-28)" stroke-width="2" fill="#FFFFFF" xlink:href="#path-27"></use>
                    <path d="M14.7701928,0.486666667 C12.1673133,1.12259259 8.38792771,2.55148148 6.34043373,5.66703704 C4.26940964,5.09592593 2.7530241,5.34888889 2.24096386,5.55555556 C2.61184337,3.44333333 9.70822892,-0.501851852 14.7701928,0.486666667 L14.7701928,0.486666667 Z" id="Shape" fill="#000000" opacity="0.12"></path>
                </g>
                <path d="M55.8893604,62.8486667 C55.897546,62.7516447 55.8897325,62.7339715 55.8837793,62.8703073 C55.8841514,62.8638151 55.8882442,62.8555196 55.8893604,62.8486667 C55.8633153,63.1509139 55.6769064,64.2390757 54.7675586,63.9523376 C54.2087041,63.7759667 54.6068228,62.9240482 55.1396322,62.5096306 C55.3736665,62.3274888 56.3217099,61.8946767 57,62.1489538 C56.3537082,62.1781686 55.9232191,62.6228831 55.8893604,62.8486667 L55.8893604,62.8486667 Z M41.7449839,48.0825597 C41.1377599,48.0046535 41.0008368,49.16459 41.0008368,49.16459 C41.0008368,49.16459 40.9450258,46.9608549 41.7449839,47.0005293 C42.5449421,47.0402038 42.4891311,48.8039132 42.4891311,48.8039132 C42.4891311,48.8039132 42.352208,48.1604658 41.7449839,48.0825597 L41.7449839,48.0825597 Z" id="Shape"></path>
                <g id="Outlines" stroke-width="1" fill="none" transform="translate(30.000000, 26.000000)" stroke-opacity="0.56" stroke="#000000">
                    <path d="M18.9624653,4.49328002 C18.9624653,4.49328002 23.2967017,-5.1786024 28.9854776,4.49328005" id="Path-162"></path>
                    <path d="M32.207173,7.10916547 C32.207173,7.10916547 32.2593403,2.0446001 29.0419922,1.09783585 C25.824644,0.1510716 23.0144909,2.57115062 23.0144909,3.57511674" id="Path-163"></path>
                    <polyline id="Path-164" points="10.0791646 18.3808669 11.7564894 13.9447887 12.90562 18.8868834 15.4821069 13.5447423 15.5426065 19.3521986"></polyline>
                    <path d="M19.9819021,16.4708378 C19.9819021,16.4708378 16.5587828,16.4059357 16.5587828,20.0419211" id="Path-165"></path>
                    <path d="M12.7980248,18.9362933 C12.7980248,18.9362933 13.6216529,19.1964518 13.9632765,20.0830808" id="Path-166"></path>
                    <path d="" id="Path-167"></path>
                    <path d="M21.6066973,15.5819171 C21.6066973,15.5819171 25.8442068,19.6097903 26.1678073,20.3403058 C26.4914078,21.0708214 25.2594073,24.3232609 24.0812949,24.3232609 C22.9031825,24.3232609 21.6702763,22.4991263 20.5665204,22.3042366 C19.4627646,22.1093469 19.051494,22.51031 19.051494,22.51031" id="Path-168"></path>
                    <path d="M16.5281707,19.008804 C16.5281707,19.008804 23.0518956,20.2300275 25.4387325,23.1223884 C27.8245731,22.4674086 31.522839,23.5325184 32.4179254,24.8455946" id="Path-169"></path>
                    <path d="M28.2237982,18.9256596 C28.2237982,18.9256596 27.3347798,20.476527 26.2088347,20.1428494" id="Path-170"></path>
                    <path d="M28.0192044,20.7407189 C28.0192044,20.7407189 31.0562311,19.6795509 31.8041441,20.2101349 C32.5520571,20.7407189 33.2102169,22.4465079 33.2102169,22.4465079" id="Path-171"></path>
                    <path d="M25.1010033,23.8075274 C25.1010033,23.8075274 29.3717514,24.5052252 29.2538314,26.6681708 C29.1359115,28.8311164 26.5010081,28.7607141 25.5747661,28.3699264" id="Path-172"></path>
                    <polyline id="Path-173" points="14.7726854 39.0269827 10.7034518 43.4344599 8.13113108 39.0698841"></polyline>
                    <polyline id="Path-174" points="25.1596474 38.8518897 25.1596474 45.0506936 23.0676934 43.6270017"></polyline>
                    <path d="M44.1724409,56.0256121 C44.1724409,56.0256121 43.7049651,57.2081123 44.1746198,58.0227104 C44.6442744,58.8373085 46.4519794,61.1644159 45.5326765,62.1418134 C44.6133735,63.1192109 42.4987284,62.4453579 41.0243086,59.9171569 C40.4008693,58.8481399 39.207888,59.5490541 39.207888,59.5490541" id="Path-175"></path>
                    <path d="M0.0728168953,95.121206 C0.0728168953,95.121206 5.7090896,99.7594791 17.8165145,97.0460238" id="Path-176"></path>
                    <path d="M32.1923843,94.4642915 C32.1923843,94.4642915 24.9064975,96.3587381 18.9695553,93.8997067" id="Path-177"></path>
                </g>
                <path d="M34.2193882,37.5086755 C33.9103059,39.5458906 37.5707294,41.5169922 37.9882353,41.6784319 C33.9411765,42.8311881 31.2336,40.6452179 29.7992471,38.9051288 C28.2839529,39.2084047 26.6722824,39.3721507 25,39.3721507 C16.1634824,39.3721507 9,34.811864 9,29.1860754 C9,23.5602867 16.1634824,19 25,19 C33.8365176,19 41,23.5602867 41,29.1860754 C41,32.6255094 38.3199059,35.6644193 34.2193882,37.5086755 L34.2193882,37.5086755 Z" id="Shape" stroke="#C9CCD0" stroke-width="1" fill="#FFFFFF"></path>
                <text id="Блин!" fill="none" font-family="HelveticaNeue, Helvetica Neue" font-size="8" font-weight="normal">
                    <tspan x="15" y="32" fill="#797C80">Блин!</tspan>
                </text>
            </g>
        </g>
    </g>
</svg>