<svg width="270" height="339" viewBox="0 0 270 339" fill="none" xmlns="http://www.w3.org/2000/svg"><g clip-path="url(#clip0_607_6688)"><g clip-path="url(#clip1_607_6688)" fill="#FF9D14"><path d="M234 31l-8.229 4.326 1.572-9.163-6.658-6.49 9.201-1.336L234 10l4.114 8.337 9.201 1.337-6.658 6.49 1.572 9.162L234 31z"/><path d="M209 31l-8.229 4.326 1.572-9.163-6.658-6.49 9.201-1.336L209 10l4.114 8.337 9.201 1.337-6.658 6.49 1.572 9.162L209 31z"/><path d="M184 31l-8.229 4.326 1.572-9.163-6.658-6.49 9.201-1.336L184 10l4.114 8.337 9.201 1.337-6.658 6.49 1.572 9.162L184 31zm50 27l-8.229 4.326 1.572-9.163-6.658-6.49 9.201-1.336L234 37l4.114 8.337 9.201 1.337-6.658 6.49 1.572 9.162L234 58z"/><path d="M209 58l-8.229 4.326 1.572-9.163-6.658-6.49 9.201-1.336L209 37l4.114 8.337 9.201 1.337-6.658 6.49 1.572 9.162L209 58z"/><path d="M184 58l-8.229 4.326 1.572-9.163-6.658-6.49 9.201-1.336L184 37l4.114 8.337 9.201 1.337-6.658 6.49 1.572 9.162L184 58zm50 28l-8.229 4.326 1.572-9.163-6.658-6.49 9.201-1.336L234 65l4.114 8.337 9.201 1.337-6.658 6.49 1.572 9.162L234 86z"/><path d="M209 86l-8.229 4.326 1.572-9.163-6.658-6.49 9.201-1.336L209 65l4.114 8.337 9.201 1.337-6.658 6.49 1.572 9.162L209 86z"/><path d="M184 86l-8.229 4.326 1.572-9.163-6.658-6.49 9.201-1.336L184 65l4.114 8.337 9.201 1.337-6.658 6.49 1.572 9.162L184 86zm50 168l-8.229 4.326 1.572-9.163-6.658-6.489 9.201-1.337L234 233l4.114 8.337 9.201 1.337-6.658 6.489 1.572 9.163L234 254z"/><path d="M209 254l-8.229 4.326 1.572-9.163-6.658-6.489 9.201-1.337L209 233l4.114 8.337 9.201 1.337-6.658 6.489 1.572 9.163L209 254z"/><path d="M184 254l-8.229 4.326 1.572-9.163-6.658-6.489 9.201-1.337L184 233l4.114 8.337 9.201 1.337-6.658 6.489 1.572 9.163L184 254zm50 28l-8.229 4.326 1.572-9.163-6.658-6.489 9.201-1.337L234 261l4.114 8.337 9.201 1.337-6.658 6.489 1.572 9.163L234 282z"/><path d="M209 282l-8.229 4.326 1.572-9.163-6.658-6.489 9.201-1.337L209 261l4.114 8.337 9.201 1.337-6.658 6.489 1.572 9.163L209 282z"/><path d="M184 282l-8.229 4.326 1.572-9.163-6.658-6.489 9.201-1.337L184 261l4.114 8.337 9.201 1.337-6.658 6.489 1.572 9.163L184 282zm25 28l-8.229 4.326 1.572-9.163-6.658-6.489 9.201-1.337L209 289l4.114 8.337 9.201 1.337-6.658 6.489 1.572 9.163L209 310z"/><path d="M184 310l-8.229 4.326 1.572-9.163-6.658-6.489 9.201-1.337L184 289l4.114 8.337 9.201 1.337-6.658 6.489 1.572 9.163L184 310z"/></g><g clip-path="url(#clip2_607_6688)"><rect y="200" width="194" height="55" rx="3" fill="#DB8000"/><path fill="url(#paint0_linear_607_6688)" d="M115.5 254h54v23h-54z"/><path fill-rule="evenodd" clip-rule="evenodd" d="M111.5 254h4v23h-4a2 2 0 01-2-2v-19a2 2 0 012-2z" fill="url(#paint1_linear_607_6688)"/><path fill-rule="evenodd" clip-rule="evenodd" d="M169.5 254h4a2 2 0 012 2v19a2 2 0 01-2 2h-4v-23z" fill="url(#paint2_linear_607_6688)"/><path fill="url(#paint3_linear_607_6688)" d="M148 229h23v23h-23z"/><path fill="url(#paint4_linear_607_6688)" d="M82 229h12v23H82z"/><path fill="url(#paint5_linear_607_6688)" d="M124 229h12v23h-12z"/><path fill="url(#paint6_linear_607_6688)" d="M100 229h6v23h-6z"/><path fill="url(#paint7_linear_607_6688)" d="M112 229h6v23h-6z"/><path fill="url(#paint8_linear_607_6688)" d="M9 229h20v23H9z"/><path fill="url(#paint9_linear_607_6688)" d="M47 229h20v23H47z"/><path fill="url(#paint10_linear_607_6688)" d="M35 229h6v23h-6z"/><path fill-rule="evenodd" clip-rule="evenodd" d="M5 229h4v23H5a2 2 0 01-2-2v-19a2 2 0 012-2z" fill="url(#paint11_linear_607_6688)"/><path fill="url(#paint12_linear_607_6688)" d="M94 229h6v23h-6z"/><path fill="url(#paint13_linear_607_6688)" d="M106 229h6v23h-6z"/><path fill="url(#paint14_linear_607_6688)" d="M118 229h6v23h-6z"/><path fill="url(#paint15_linear_607_6688)" d="M142 229h3v23h-3z"/><path fill="url(#paint16_linear_607_6688)" d="M29 229h6v23h-6z"/><path fill="url(#paint17_linear_607_6688)" d="M41 229h6v23h-6z"/><path fill="url(#paint18_linear_607_6688)" d="M67 229h6v23h-6z"/><path fill="url(#paint19_linear_607_6688)" d="M73 229h3v23h-3z"/><path fill="url(#paint20_linear_607_6688)" d="M76 229h6v23h-6z"/><path fill="url(#paint21_linear_607_6688)" d="M136 229h6v23h-6z"/><path fill="url(#paint22_linear_607_6688)" d="M145 229h3v23h-3z"/><path fill-rule="evenodd" clip-rule="evenodd" d="M5 203h21v23H5a2 2 0 01-2-2v-19a2 2 0 012-2z" fill="url(#paint23_linear_607_6688)"/><path fill="url(#paint24_linear_607_6688)" d="M43 203h23v23H43z"/><path fill="url(#paint25_linear_607_6688)" d="M29 203h11v23H29z"/><path fill="url(#paint26_linear_607_6688)" d="M26 203h3v23h-3z"/><path fill="url(#paint27_linear_607_6688)" d="M40 203h3v23h-3z"/><path fill="url(#paint28_linear_607_6688)" d="M66 203h3v23h-3z"/><path fill="url(#paint29_linear_607_6688)" d="M102 203h30v23h-30z"/><path fill="url(#paint30_linear_607_6688)" d="M135 203h30v23h-30z"/><path fill="url(#paint31_linear_607_6688)" d="M69 203h30v23H69z"/><path fill="url(#paint32_linear_607_6688)" d="M99 203h3v23h-3z"/><path fill="url(#paint33_linear_607_6688)" d="M132 203h3v23h-3z"/><path d="M3 204.5h127m-127 2h127m-127 2h127m-127 2h127m-127 2h127m-127 2h127m-127 2h127m-127 2h127m-127 2h127m-127 2h127m-127 2h127m-127 6h127m-127 2h127m-127 2h127m-127 2h127m-127 2h127m-127 2h127m-127 2h127m-127 2h127m-127 2h127m-127 2h127m-127 2h127" stroke="#F58F00" opacity=".16"/></g><circle cx="128.5" cy="278.5" r="59.5" transform="rotate(-27 128.5 278.5)" fill="#FFAF3E" stroke="#F58F00" stroke-width="2"/><path opacity=".18" fill-rule="evenodd" clip-rule="evenodd" d="M153.294 326.72a79.693 79.693 0 0023.866-18.58 54.943 54.943 0 01-52.926 26.967 79.7 79.7 0 0029.06-8.387z" fill="#FFCC86"/><path opacity=".5" fill-rule="evenodd" clip-rule="evenodd" d="M103.027 228.067a79.7 79.7 0 0129.06-8.387 54.94 54.94 0 00-52.926 26.967 79.69 79.69 0 0123.866-18.58z" fill="#E08300" fill-opacity=".5"/><g filter="url(#filter0_d_607_6688)"><path fill-rule="evenodd" clip-rule="evenodd" d="M121.798 309.277c.229.176.499.289.785.33.296.044.599.032.89-.038.329-.074.647-.191.945-.348.214-.111.42-.238.615-.38.206-.144.39-.317.546-.514.143-.192.245-.412.299-.646a1.114 1.114 0 00-.126-.733 1.062 1.062 0 00-.604-.545 2.487 2.487 0 00-.913-.074c-.378.04-.752.107-1.121.201l-.219.051c-.334.078-.678.158-1.022.222-.426.095-.857.169-1.291.22a4.748 4.748 0 01-1.243-.039 2.858 2.858 0 01-1.104-.47 2.81 2.81 0 01-.876-1.058 3.008 3.008 0 01-.356-1.536c.032-.495.168-.978.401-1.416.239-.452.557-.858.939-1.197a5.76 5.76 0 011.268-.882 7.472 7.472 0 011.623-.602 4.448 4.448 0 011.605-.089c.509.078.993.273 1.413.571.473.342.851.798 1.102 1.324l-2.166 1.104a2.135 2.135 0 00-.577-.649 1.32 1.32 0 00-.677-.25 1.912 1.912 0 00-.737.073 3.863 3.863 0 00-1.319.649 1.77 1.77 0 00-.391.446 1.558 1.558 0 00-.183.543c-.014.214.033.427.134.616.078.176.205.325.366.431.193.089.406.128.618.112a6.51 6.51 0 001.094-.165l1.746-.385c.135-.069.34-.103.591-.145.096-.016.198-.033.306-.054a4.173 4.173 0 011.252-.032c.475.048.933.197 1.345.437a2.76 2.76 0 011.083 1.222c.231.442.364.929.391 1.428.026.496-.068.991-.275 1.442a4.26 4.26 0 01-.983 1.354 6.767 6.767 0 01-1.708 1.185 7.018 7.018 0 01-1.74.617 4.538 4.538 0 01-1.726.071 3.57 3.57 0 01-2.703-2.091l2.165-1.103c.112.304.297.576.538.792zm13.594-3.761l-.522-1.025-.045.023c-.039.51-.229.996-.544 1.399a3.365 3.365 0 01-1.111.925 4.002 4.002 0 01-1.436.463 2.162 2.162 0 01-1.129-.188 2.756 2.756 0 01-.904-.74 6.719 6.719 0 01-.76-1.184l-2.311-4.535 2.031-1.035 2.12 4.161c.214.485.552.905.98 1.218.398.196.87.169 1.243-.072.477-.188.83-.599.944-1.099a2.996 2.996 0 00-.452-1.812l-1.966-3.858 2.023-1.031 3.773 7.404-1.934.986zm1.636-10.116l.477.936a2.52 2.52 0 01.49-1.372 3.226 3.226 0 011.107-.912 3.614 3.614 0 011.665-.433c.519.007 1.03.13 1.496.36.475.231.901.551 1.255.943.383.423.707.896.963 1.406.25.48.428.994.531 1.525.098.502.101 1.017.011 1.521a3.294 3.294 0 01-.561 1.408c-.331.44-.762.795-1.258 1.034-.433.223-.91.347-1.397.364a2.72 2.72 0 01-1.371-.334l1.779 3.493-2.022 1.03-5.089-9.988 1.924-.981zm5.651 4.483a1.91 1.91 0 00.276-.802 2.641 2.641 0 00-.087-.898 5.29 5.29 0 00-.374-.932 4.632 4.632 0 00-.543-.846 2.566 2.566 0 00-.698-.598 1.87 1.87 0 00-.82-.267 1.687 1.687 0 00-.925.213 1.7 1.7 0 00-.733.631 1.851 1.851 0 00-.271.812c-.023.304.012.611.101.903.087.324.21.638.365.936.153.299.335.582.543.846.192.236.424.437.684.594a1.73 1.73 0 001.74.022c.28-.133.52-.337.698-.591l.044-.023zm7.682-3.689a2.002 2.002 0 01-1.532.23 2.264 2.264 0 01-1.27-1.148l5.346-2.724a5.578 5.578 0 00-.978-1.567 4.409 4.409 0 00-1.354-1.072 3.718 3.718 0 00-1.649-.395 3.997 3.997 0 00-1.825.471 4.35 4.35 0 00-1.378 1.083 4.01 4.01 0 00-.777 1.428 4.088 4.088 0 00-.139 1.62 5.136 5.136 0 001.584 3.11c.397.371.865.66 1.375.848.51.177 1.052.241 1.589.189a4.869 4.869 0 001.709-.522 4.387 4.387 0 001.848-1.66c.409-.789.53-1.696.343-2.565l-1.782.908c.039.324-.036.652-.212.927-.204.367-.518.66-.898.839zm-2.535-4.646c.391-.24.865-.302 1.305-.171l.027.009a2.52 2.52 0 011.08.909l-3.288 1.675a2.514 2.514 0 01-.16-.535 1.672 1.672 0 01.316-1.318c.193-.243.439-.437.72-.569zm6.79-3.392l-.694-1.363-1.952.994 3.755 7.369 2.022-1.031-1.702-3.341a4.883 4.883 0 01-.356-.941 2.306 2.306 0 01-.043-.921 1.84 1.84 0 01.356-.821c.235-.278.526-.503.854-.66.123-.073.251-.139.383-.195.122-.049.247-.09.375-.124l-.963-1.888a2.009 2.009 0 00-.482.155c-.249.13-.479.296-.68.493-.196.198-.366.42-.505.661-.141.245-.245.51-.307.785a3.071 3.071 0 00-.061.828zm-26.277 23.849l5.943 5.782-1.309-8.143 3.154-1.607 5.184 10.175-2.076 1.058-3.677-7.217 1.182 8.488-1.719.876-6.127-5.857 3.632 7.129-2.094 1.066-5.184-10.175 3.091-1.575zm12.064.239a2.51 2.51 0 01.173-2.524c.232-.371.53-.697.878-.963.36-.287.748-.537 1.157-.747a9.08 9.08 0 011.164-.492c.386-.136.792-.21 1.201-.219.378-.014.753.07 1.089.242.379.204.679.529.852.924l1.952 3.831c.162.319.342.628.539.926a2 2 0 00.555.582l-2.058 1.049a2.724 2.724 0 01-.266-.302 2.88 2.88 0 01-.24-.339c-.15.486-.42.925-.786 1.277a5.15 5.15 0 01-1.232.886 4.02 4.02 0 01-1.058.37 2.403 2.403 0 01-.992.012 2.061 2.061 0 01-.885-.414 2.536 2.536 0 01-.699-.889 2.363 2.363 0 01-.304-1.147c.004-.326.087-.646.243-.932.155-.294.364-.557.616-.774.253-.23.524-.447.791-.65l.832-.57c.252-.158.493-.333.72-.524.177-.142.32-.322.417-.527a.61.61 0 00-.058-.576 1.193 1.193 0 00-.37-.462.994.994 0 00-.44-.158 1.342 1.342 0 00-.491.071 4.577 4.577 0 00-.508.259c-.32.154-.585.403-.76.712-.15.354-.13.757.053 1.095l-2.085.973zm5.481-.851a1.006 1.006 0 01-.23.342 3.256 3.256 0 01-.364.32l-.427.307-.445.317c-.138.108-.27.224-.396.347a1.607 1.607 0 00-.283.391 1.012 1.012 0 00-.104.435.993.993 0 00.134.527 1 1 0 00.338.4.802.802 0 00.417.157c.162.009.323-.009.478-.052.165-.067.323-.147.473-.241a2 2 0 00.791-.65c.138-.219.219-.468.236-.726a1.653 1.653 0 00-.09-.662l-.232-.454-.296-.758zm3.559-6.606l.694 1.364a3.068 3.068 0 01.061-.828c.063-.276.166-.541.307-.785.139-.241.309-.464.505-.661.202-.197.431-.363.681-.493.153-.073.315-.125.481-.156l.963 1.889a3.358 3.358 0 00-.375.124c-.132.056-.26.121-.383.195a2.617 2.617 0 00-.854.659 1.942 1.942 0 00-.356.821c-.047.307-.033.62.043.921.086.325.205.641.356.941l1.703 3.342-2.005 1.021-3.755-7.369 1.934-.985zm8.371-4.298l-1.196 3.976-2.778-5.453-2.023 1.03 5.185 10.175 2.023-1.03-1.326-2.602.398-1.157 3.711 2.262 2.451-1.249-5.475-3.08 1.426-4.094-2.396 1.222z" fill="#E08300" fill-opacity=".5" shape-rendering="crispEdges"/></g><path fill-rule="evenodd" clip-rule="evenodd" d="M131.977 235.763l3.632 7.129c5.516 10.825 1.212 24.073-9.614 29.589-10.826 5.517-24.074 1.212-29.59-9.614l-3.632-7.128-8.91 4.54 21.337 41.877 8.91-4.54-7.159-14.051c16.299 4.807 33.513-3.964 39.204-19.975l7.16 14.051 8.91-4.54-21.338-41.877-8.91 4.539z" fill="#E08300" fill-opacity=".5"/><path fill-rule="evenodd" clip-rule="evenodd" d="M131.523 234.872l3.632 7.129c5.516 10.826 1.212 24.073-9.614 29.589-10.826 5.517-24.074 1.212-29.59-9.614l-3.632-7.128-8.91 4.54 21.337 41.877 8.91-4.54-7.159-14.051c16.299 4.807 33.513-3.964 39.204-19.975l7.16 14.051 8.91-4.54-21.338-41.877-8.91 4.539z" fill="#FFB854"/><path d="M27.747 255.772C38.284 265.24 52.219 271 67.5 271c32.861 0 59.5-26.639 59.5-59.5 0-32.861-26.639-59.5-59.5-59.5-28.982 0-53.124 20.721-58.42 48.156" stroke="#fff" stroke-opacity=".4" stroke-dasharray="2"/><circle cx="67.5" cy="129.5" r="59.5" fill="#FFB854"/><circle cx="126.5" cy="60.5" r="59.5" fill="#FFAF3E" stroke="#F58F00" stroke-width="2"/><path opacity=".18" fill-rule="evenodd" clip-rule="evenodd" d="M126.7 114.72a79.69 79.69 0 0029.7-5.72 54.941 54.941 0 01-59.4 0 79.69 79.69 0 0029.7 5.72z" fill="#FFCC86"/><path opacity=".5" fill-rule="evenodd" clip-rule="evenodd" d="M126.7 4a79.681 79.681 0 0129.7 5.72 54.94 54.94 0 00-59.4 0A79.681 79.681 0 01126.7 4z" fill="#E08300" fill-opacity=".5"/><g filter="url(#filter1_d_607_6688)"><path fill-rule="evenodd" clip-rule="evenodd" d="M106.95 86.88c.124.26.314.485.55.65.244.174.519.3.81.37.327.084.663.124 1 .12.241-.002.482-.022.72-.06a2.59 2.59 0 00.72-.21c.215-.106.406-.256.56-.44a1.11 1.11 0 00.22-.71 1.06 1.06 0 00-.29-.76 2.47 2.47 0 00-.78-.48 7.888 7.888 0 00-1.09-.33l-.218-.054h-.001c-.332-.083-.675-.168-1.011-.266-.423-.109-.84-.24-1.25-.39a4.777 4.777 0 01-1.09-.6 2.845 2.845 0 01-.77-.92 2.793 2.793 0 01-.3-1.34 2.998 2.998 0 01.38-1.53 3.496 3.496 0 011-1.08 4.258 4.258 0 011.38-.64 5.757 5.757 0 011.53-.21c.579 0 1.156.067 1.72.2a4.448 4.448 0 011.47.65c.418.3.761.694 1 1.15.265.52.396 1.097.38 1.68h-2.43a2.137 2.137 0 00-.22-.84 1.323 1.323 0 00-.49-.53 1.92 1.92 0 00-.69-.27 3.869 3.869 0 00-.86-.08c-.205 0-.409.02-.61.06-.194.042-.38.116-.55.22-.16.107-.299.243-.41.4a1.147 1.147 0 00-.16.61c-.01.192.035.383.13.55.132.167.304.298.5.38.339.147.69.264 1.05.35l1.73.45c.152 0 .35.063.592.139.093.03.193.06.298.091.402.122.783.304 1.13.54.401.258.742.599 1 1 .293.473.436 1.024.41 1.58.005.5-.097.994-.3 1.45a3.076 3.076 0 01-.9 1.16c-.442.35-.948.607-1.49.76-.668.2-1.363.294-2.06.28a7.003 7.003 0 01-1.83-.24 4.515 4.515 0 01-1.57-.72 3.57 3.57 0 01-1.46-3.09h2.43c-.038.322.004.648.12.95zm13.82 2.82v-1.15h-.05a2.598 2.598 0 01-1.12 1 3.368 3.368 0 01-1.41.32 4.001 4.001 0 01-1.49-.24 2.162 2.162 0 01-.92-.68 2.74 2.74 0 01-.47-1.07 6.787 6.787 0 01-.14-1.4v-5.09h2.28v4.67c-.03.53.08 1.057.32 1.53.265.356.698.546 1.14.5a1.55 1.55 0 001.34-.55c.33-.547.477-1.184.42-1.82v-4.33h2.27v8.31h-2.17zm6.05-8.27v1.05a2.52 2.52 0 011.06-1 3.231 3.231 0 011.4-.31 3.62 3.62 0 011.68.37c.46.242.859.584 1.17 1 .318.422.552.9.69 1.41.149.55.223 1.12.22 1.69.004.541-.07 1.08-.22 1.6a4.14 4.14 0 01-.68 1.36c-.297.417-.688.76-1.14 1a3.45 3.45 0 01-1.59.35 3.309 3.309 0 01-1.41-.31 2.726 2.726 0 01-1.07-.92v3.92h-2.27V81.43h2.16zm3 6.56a1.91 1.91 0 00.61-.59c.158-.259.269-.543.33-.84.062-.33.092-.665.09-1a4.603 4.603 0 00-.1-1 2.575 2.575 0 00-.35-.85 1.87 1.87 0 00-.61-.61 1.68 1.68 0 00-.92-.23 1.7 1.7 0 00-.94.23c-.248.15-.457.355-.61.6a2.47 2.47 0 00-.32.85c-.07.329-.103.664-.1 1 .001.336.035.67.1 1 .064.297.179.582.34.84.33.527.918.837 1.54.81.31.008.617-.064.89-.21h.05zm8.52.2a2 2 0 01-1.47-.49 2.263 2.263 0 01-.61-1.6h6a5.591 5.591 0 00-.16-1.84 4.411 4.411 0 00-.72-1.57 3.708 3.708 0 00-1.29-1.1 4 4 0 00-1.84-.41 4.36 4.36 0 00-1.72.34 4 4 0 00-1.34.92 4.083 4.083 0 00-.86 1.38 5.14 5.14 0 000 3.49c.185.511.471.98.84 1.38a3.75 3.75 0 001.33.89 4.88 4.88 0 001.76.31 4.38 4.38 0 002.4-.64 3.818 3.818 0 001.47-2.13h-2a1.402 1.402 0 01-.61.73 2 2 0 01-1.18.34zm-.15-5.29a1.61 1.61 0 011.24.44l.02.02c.303.372.494.823.55 1.3h-3.69a2.45 2.45 0 01.1-.55 1.668 1.668 0 01.88-1.03c.282-.129.59-.19.9-.18zm7.59.06v-1.53h-2.19v8.27h2.27v-3.75c.002-.336.039-.671.11-1 .069-.303.198-.588.38-.84.18-.244.417-.44.69-.57.335-.14.696-.21 1.06-.2.143-.01.287-.01.43 0 .131.012.261.032.39.06v-2.12a2.009 2.009 0 00-.5-.08 2.876 2.876 0 00-.83.13 3.241 3.241 0 00-.75.36 2.816 2.816 0 00-.63.56c-.175.216-.32.455-.43.71zm-37.75 9.67a5.793 5.793 0 00-2.06-.35H101v11.37h4.93a5.54 5.54 0 002.28-.44 4.566 4.566 0 001.62-1.21c.457-.53.798-1.15 1-1.82a7.722 7.722 0 00.33-2.31 7.167 7.167 0 00-.4-2.48 4.82 4.82 0 00-1.09-1.76 4.366 4.366 0 00-1.64-1zm-1.23 8.78a3.126 3.126 0 01-1 .18h-2.28v-7.2h1.79a4.171 4.171 0 011.56.26c.394.162.739.424 1 .76a3.2 3.2 0 01.56 1.19c.113.512.166 1.036.16 1.56a4.65 4.65 0 01-.24 1.6 2.887 2.887 0 01-.64 1.07 2.322 2.322 0 01-.91.58zm8.29.29a2 2 0 001.47.49c.422.012.838-.107 1.19-.34a1.38 1.38 0 00.6-.73h2a3.819 3.819 0 01-1.47 2.13 4.38 4.38 0 01-2.4.64 4.874 4.874 0 01-1.76-.31 3.837 3.837 0 01-1.33-.89 4.089 4.089 0 01-.84-1.38 5.22 5.22 0 01-.29-1.76 4.908 4.908 0 01.3-1.73 4.06 4.06 0 012.2-2.3 4.36 4.36 0 011.72-.34 3.93 3.93 0 011.84.41 3.71 3.71 0 011.29 1.1 4.44 4.44 0 01.73 1.57c.15.601.204 1.222.16 1.84h-6a2.3 2.3 0 00.59 1.6zm2.57-4.36a1.63 1.63 0 00-1.24-.44 2.001 2.001 0 00-.91.18 1.554 1.554 0 00-.57.46c-.141.167-.247.36-.31.57a2.45 2.45 0 00-.1.55h3.7a2.688 2.688 0 00-.57-1.3v-.02zm6.09 4.3c.103.171.239.321.4.44.167.114.353.195.55.24.212.057.431.084.65.08a2.2 2.2 0 00.5 0c.168-.036.33-.096.48-.18.144-.076.268-.186.36-.32a.8.8 0 00.14-.5c0-.34-.22-.6-.67-.77a14.012 14.012 0 00-1.9-.51c-.33-.08-.65-.16-1-.27a3.249 3.249 0 01-.84-.4 1.944 1.944 0 01-.59-.62 1.779 1.779 0 01-.22-.92c-.02-.457.087-.91.31-1.31.202-.334.484-.612.82-.81a3.582 3.582 0 011.15-.42c.435-.08.877-.12 1.32-.12.436.003.872.046 1.3.13.398.08.78.225 1.13.43.327.209.607.485.82.81.235.384.369.82.39 1.27h-2.16a1 1 0 00-.49-.88 2.21 2.21 0 00-1.06-.24h-.42a1.308 1.308 0 00-.4.1.936.936 0 00-.32.23.66.66 0 00-.12.41.63.63 0 00.22.5c.175.14.375.246.59.31.269.088.543.162.82.22l.94.2c.338.076.672.17 1 .28.301.093.585.235.84.42.243.173.445.399.59.66.167.306.247.652.23 1a2.521 2.521 0 01-1.19 2.26 3.541 3.541 0 01-1.2.47 7.132 7.132 0 01-1.39.14 6.616 6.616 0 01-1.41-.15 3.463 3.463 0 01-1.22-.48 2.74 2.74 0 01-.88-.88 2.773 2.773 0 01-.38-1.39h2.16c.003.199.054.395.15.57zm6.75-7.49v-1.87h2.27v1.87h-2.27zm2.27 1.28v8.27h-2.27v-8.27h2.27zm9.02 10.07c.288-.344.491-.752.59-1.19.088-.371.138-.749.15-1.13v-7.74h-2.16v1.1a2.4 2.4 0 00-1-1 3.24 3.24 0 00-1.43-.31 3.27 3.27 0 00-2.64 1.24c-.308.393-.539.84-.68 1.32a4.995 4.995 0 00-.23 1.54 5.99 5.99 0 00.2 1.61c.119.481.334.933.63 1.33.293.377.67.682 1.1.89a3.602 3.602 0 001.6.33 3.36 3.36 0 001.43-.31 2.201 2.201 0 001-1v1.09a2.269 2.269 0 01-.42 1.45 1.628 1.628 0 01-1.4.58 2.19 2.19 0 01-1.07-.25 1.299 1.299 0 01-.63-.89h-2.25c.016.432.151.85.39 1.21.228.332.521.614.86.83.36.215.752.374 1.16.47.406.099.822.149 1.24.15.775.029 1.547-.1 2.27-.38a3.546 3.546 0 001.29-.94zm-1.92-4.46a1.766 1.766 0 01-.6.52 1.925 1.925 0 01-.85.16c-.309.01-.615-.07-.88-.23a1.726 1.726 0 01-.57-.57 2.576 2.576 0 01-.3-.79 4.435 4.435 0 01-.09-.89c-.003-.3.031-.599.1-.89.064-.27.179-.524.34-.75a1.59 1.59 0 011.4-.71c.322-.01.641.06.93.2.238.138.44.33.59.56.151.25.259.524.32.81.063.33.093.665.09 1 .004.29-.033.58-.11.86a2.218 2.218 0 01-.37.72zm6.63-4.46v-1.15h-2.16v8.27h2.27v-4.34a3 3 0 01.42-1.81c.328-.394.83-.6 1.34-.55a1.25 1.25 0 011.14.5c.24.473.35 1 .32 1.53v4.67h2.27v-5.04a6.65 6.65 0 00-.14-1.4 2.686 2.686 0 00-.47-1.07 2.26 2.26 0 00-.92-.69 4 4 0 00-1.5-.25c-.486 0-.965.114-1.4.33a2.565 2.565 0 00-1.12 1h-.05z" fill="#E08300" fill-opacity=".5" shape-rendering="crispEdges"/></g><path fill-rule="evenodd" clip-rule="evenodd" d="M148.86 19h-43.72L93 36.18 117.29 73h19.42L161 36.18 148.86 19zM142 46.36A15.599 15.599 0 01126.43 62H115V25h11.43A15.602 15.602 0 01142 40.64v5.72z" fill="#E08300" fill-opacity=".5"/><path fill-rule="evenodd" clip-rule="evenodd" d="M148.86 18h-43.72L93 35.18 117.29 72h19.42L161 35.18 148.86 18zM142 45.36A15.599 15.599 0 01126.43 61H115V24h11.43A15.602 15.602 0 01142 39.64v5.72z" fill="#FFB854"/><circle cx="170.5" cy="166.5" r="96.5" fill="#fff" fill-opacity=".08"/><circle cx="68" cy="130" r="23" fill="#fff" fill-opacity=".12"/><path fill-rule="evenodd" clip-rule="evenodd" d="M110.483 110.246l-19.876 74.178a21.922 21.922 0 005.63 21.142l54.161 54.264a21.722 21.722 0 0021.077 5.648l74.038-19.914a21.922 21.922 0 0015.447-15.494l19.875-74.178a21.92 21.92 0 00-5.63-21.142l-54.161-54.264a21.72 21.72 0 00-21.077-5.648L125.93 94.751a21.92 21.92 0 00-15.447 15.495h0z" fill="#FFAF3E" stroke="#F58F00" stroke-width="2.4"/><path fill-rule="evenodd" clip-rule="evenodd" d="M179.546 173.204c3.14-11.72-2.908-15.117-8.737-16.679a103.515 103.515 0 00-14.337-2.42 102.98 102.98 0 01-14.171-2.376c-15.31-4.102-19.107-15.904-15.345-29.943l.888-3.315 9.963 2.669-.732 2.735c-2.388 9.576 1.866 14.358 10.849 16.765 4.004.917 8.058 1.6 12.142 2.045a80.405 80.405 0 0113 2.098c10.705 2.69 14.762 8.805 14.874 16.421l.333.089c3.727-6.605 10.646-9.778 21.258-6.739a82.607 82.607 0 0112.473 4.727 105.057 105.057 0 0011.687 4.34c9.333 2.501 15.37-.039 17.961-9.045l.729-2.718 8.303 2.225-.929 3.464c-3.624 13.526-12.408 22.329-29.229 17.822a79.304 79.304 0 01-13.25-5.149 134.942 134.942 0 00-13.173-4.774c-5.314-1.423-12.915-1.684-16.055 10.036l-8.502-2.278zm19.157-53.495c-6.42-1.72-13.016 2.08-14.733 8.488-1.717 6.409 2.095 12.998 8.515 14.718 6.42 1.72 13.016-2.08 14.733-8.488 1.717-6.409-2.095-12.998-8.515-14.718z" fill="#E08300" fill-opacity=".5"/><path fill-rule="evenodd" clip-rule="evenodd" d="M180.384 172.078c3.14-11.719-2.909-15.117-8.737-16.678a103.556 103.556 0 00-14.338-2.421 102.98 102.98 0 01-14.171-2.376c-15.31-4.102-19.107-15.903-15.345-29.943l.889-3.315 9.963 2.669-.733 2.735c-2.388 9.576 1.866 14.358 10.85 16.765 4.004.918 8.058 1.6 12.141 2.045a80.515 80.515 0 0113 2.098c10.705 2.691 14.762 8.805 14.875 16.422l.332.089c3.727-6.605 10.647-9.779 21.259-6.74a82.586 82.586 0 0112.473 4.728 105.177 105.177 0 0011.687 4.339c9.332 2.501 15.37-.039 17.961-9.044l.728-2.719 8.303 2.225-.928 3.464c-3.625 13.526-12.408 22.329-29.23 17.822a79.338 79.338 0 01-13.25-5.149 135.012 135.012 0 00-13.172-4.773c-5.314-1.424-12.915-1.684-16.055 10.035l-8.502-2.278zm19.157-53.495c-6.42-1.72-13.016 2.081-14.733 8.489-1.717 6.408 2.095 12.997 8.514 14.717 6.42 1.721 13.016-2.08 14.733-8.488 1.717-6.408-2.095-12.998-8.514-14.718z" fill="#FFB854"/><g filter="url(#filter2_d_607_6688)"><path fill-rule="evenodd" clip-rule="evenodd" d="M144.169 193.066a2.926 2.926 0 01-.625-1.347 3.547 3.547 0 01.231-1.662l-4.062-1.088a6.288 6.288 0 001.039 5.885 7.78 7.78 0 002.297 1.922c.925.539 1.917.951 2.951 1.226 1.158.335 2.363.486 3.57.448a7.345 7.345 0 002.835-.619 5.374 5.374 0 002.031-1.56 6.172 6.172 0 001.159-2.321 4.868 4.868 0 00.031-2.858 5.786 5.786 0 00-1.218-2.141 7.127 7.127 0 00-1.644-1.42 24.902 24.902 0 01-.456-.287v-.001c-.37-.237-.673-.432-.927-.5l-2.688-1.537a10.954 10.954 0 01-1.596-1.062 2.166 2.166 0 01-.663-.868 1.762 1.762 0 01.032-.989c.09-.365.278-.698.544-.961.257-.217.551-.384.867-.493.33-.1.675-.143 1.019-.127a5.54 5.54 0 011.047.172c.485.12.955.295 1.401.521a3.3 3.3 0 011.031.766c.292.31.492.696.579 1.116.097.502.093 1.02-.014 1.521l4.062 1.088a6.168 6.168 0 00.127-3.014 5.778 5.778 0 00-1.15-2.395 7.66 7.66 0 00-2.162-1.758 12.656 12.656 0 00-2.785-1.109 9.843 9.843 0 00-2.652-.33 7.342 7.342 0 00-2.597.465 6.099 6.099 0 00-2.162 1.381 5.322 5.322 0 00-1.329 2.42 4.936 4.936 0 00-.106 2.402c.153.691.449 1.339.87 1.903.449.568.97 1.073 1.549 1.504.617.439 1.255.846 1.913 1.22.517.317 1.051.614 1.57.903h.001l.34.189c.582.308 1.14.658 1.672 1.047.431.315.799.709 1.086 1.162.231.433.282.943.14 1.417a1.963 1.963 0 01-.69 1.103c-.341.242-.728.41-1.135.494a4.42 4.42 0 01-1.299.033 8.143 8.143 0 01-1.231-.221 6.569 6.569 0 01-1.617-.651 4.005 4.005 0 01-1.186-.989zm21.718 7.67l-.521 1.947 3.644.976 3.769-14.067-3.828-1.026-1.964 7.33a5.316 5.316 0 01-1.527 2.893 2.67 2.67 0 01-2.49.331 2.17 2.17 0 01-1.679-1.357 5.324 5.324 0 01.16-2.734l2.118-7.905-3.794-1.017-2.309 8.617c-.217.795-.351 1.61-.401 2.432a4.847 4.847 0 00.3 2.022 3.744 3.744 0 001.229 1.563 6.84 6.84 0 002.382 1.074c.817.213 1.67.243 2.502.09a4.519 4.519 0 002.326-1.191l.083.022zm12.866-7.566l.477-1.777-3.577-.959-5.076 18.943 3.794 1.017 1.778-6.636a4.735 4.735 0 001.329 2.061 5.668 5.668 0 002.216 1.157c.915.266 1.88.307 2.817.119a5.736 5.736 0 002.359-1.182 7.276 7.276 0 001.753-1.998 9.963 9.963 0 001.094-2.61c.264-.964.398-1.96.399-2.959a7.283 7.283 0 00-.514-2.696 6.072 6.072 0 00-1.502-2.217 6.205 6.205 0 00-2.641-1.379 5.54 5.54 0 00-2.48-.102c-.843.176-1.617.6-2.226 1.218zm3.803 9.946a3.326 3.326 0 01-1.287.725l-.084-.022a3.068 3.068 0 01-1.583-.043 2.986 2.986 0 01-2.207-2.061 4.675 4.675 0 01-.187-1.574 9.22 9.22 0 01.287-1.738c.147-.57.355-1.123.62-1.648.225-.485.537-.925.921-1.296.367-.346.81-.6 1.291-.742a2.916 2.916 0 011.676.031 2.883 2.883 0 011.434.802c.345.37.599.817.742 1.306a4.53 4.53 0 01.2 1.595 8.121 8.121 0 01-.287 1.738 9.19 9.19 0 01-.604 1.653 4.643 4.643 0 01-.932 1.274zm10.628 3.392a3.434 3.434 0 002.235 1.488 3.43 3.43 0 002.127-.047 2.449 2.449 0 001.351-.963l3.343.896a6.699 6.699 0 01-3.424 2.947 7.502 7.502 0 01-4.302.009 8.343 8.343 0 01-2.801-1.313 6.488 6.488 0 01-1.819-2.102 7.177 7.177 0 01-.778-2.713 9.116 9.116 0 011.583-5.908 7.17 7.17 0 012.063-1.951 6.919 6.919 0 012.657-.957 7.46 7.46 0 013.029.195 6.835 6.835 0 012.89 1.518 6.444 6.444 0 011.657 2.44c.357.95.524 1.962.492 2.98a9.957 9.957 0 01-.567 3.187l-10.03-2.688a3.99 3.99 0 00.294 2.982zm6.257-6.234a2.76 2.76 0 00-1.873-1.3 3.42 3.42 0 00-1.586-.099 2.89 2.89 0 00-1.178.519c-.302.227-.56.509-.76.831a4.372 4.372 0 00-.417.886l6.168 1.653a4.443 4.443 0 00-.363-2.456l.009-.034zm11.481-.39l-.694 2.591c.3-.383.65-.722 1.04-1.01a4.918 4.918 0 011.307-.666c.46-.152.936-.244 1.417-.273.488-.021.975.03 1.447.151.28.085.549.206.799.36l-.961 3.589a5.709 5.709 0 00-.625-.277 5.56 5.56 0 00-.719-.192 4.388 4.388 0 00-1.862-.136 3.178 3.178 0 00-1.412.656 4.08 4.08 0 00-1.017 1.251 8.727 8.727 0 00-.637 1.644l-1.701 6.348-3.794-1.017 3.751-13.999 3.661.98zm-93.38-3.792a7.352 7.352 0 012.452 1.147 5.68 5.68 0 011.714 1.893c.44.796.698 1.684.755 2.597a9.293 9.293 0 01-.342 3.283 10.626 10.626 0 01-1.186 2.821 6.54 6.54 0 01-1.837 1.975 5.785 5.785 0 01-2.435.999 6.983 6.983 0 01-3.008-.207l-6.168-1.653 3.887-14.508 6.168 1.653zm-3.392 11.792a4.11 4.11 0 001.384.117c.472-.023.93-.169 1.331-.424a3.696 3.696 0 001.166-1.139c.39-.597.676-1.257.845-1.951a9.346 9.346 0 00.33-2.034 4.11 4.11 0 00-.277-1.708 3.452 3.452 0 00-1.029-1.309 5.132 5.132 0 00-1.869-.846l-2.24-.6-2.449 9.141 2.808.753zm13.318 4.385a2.594 2.594 0 01-1.671-1.119 2.986 2.986 0 01-.116-2.172l7.488 2.006c.263-.77.406-1.577.426-2.39a6.19 6.19 0 00-.389-2.227 4.685 4.685 0 00-1.295-1.853 5.145 5.145 0 00-2.171-1.126c-2.17-.635-4.509.196-5.821 2.069a6.465 6.465 0 00-.953 2.086 6.589 6.589 0 00-.231 2.333 5.49 5.49 0 00.599 1.975c.335.62.804 1.155 1.372 1.565a5.866 5.866 0 002.081.993 5.52 5.52 0 003.227-.007 5.008 5.008 0 002.581-2.211l-2.507-.672c-.255.346-.612.6-1.019.725a2.621 2.621 0 01-1.601.025zm1.634-6.766a2.047 2.047 0 011.4.993l-.033-.009c.262.579.363 1.221.291 1.856l-4.63-1.241a3.2 3.2 0 01.319-.658c.149-.246.347-.459.58-.625.26-.191.558-.322.873-.383.4-.072.811-.048 1.2.067zm6.287-.329l.731 11.445 3.126.838 6.322-9.555-2.841-.762-4.092 6.579-.271-7.748-2.975-.797zm13.993 12.967a2.56 2.56 0 01-1.671-1.119 2.985 2.985 0 01-.161-2.076l7.472 2.002a7.083 7.083 0 00.425-2.389 5.84 5.84 0 00-.371-2.223 4.843 4.843 0 00-1.296-1.853 5.136 5.136 0 00-2.17-1.126 5.455 5.455 0 00-2.27-.154 5.305 5.305 0 00-1.984.72 5.246 5.246 0 00-1.54 1.402 6.454 6.454 0 00-.97 2.08 6.614 6.614 0 00-.214 2.338 4.94 4.94 0 00.599 1.975 4.725 4.725 0 001.372 1.565c.627.469 1.34.807 2.098.998a5.516 5.516 0 003.226-.007 5.009 5.009 0 002.581-2.211l-2.507-.672c-.254.346-.611.6-1.018.725a2.629 2.629 0 01-1.601.025zm1.617-6.77a2.063 2.063 0 011.417.996l-.067-.018a3.52 3.52 0 01.324 1.865l-4.63-1.24c.082-.231.189-.452.32-.658.149-.243.339-.456.563-.63.269-.185.571-.313.889-.378.395-.073.8-.052 1.184.063zm7.419 11.223l3.887-14.508-2.841-.761-3.887 14.508 2.841.761zm5.865-8.317a5.464 5.464 0 00-1.54 1.402 6.919 6.919 0 00-.98 2.187 6.783 6.783 0 00-.244 2.384 5.27 5.27 0 00.632 1.984 4.802 4.802 0 001.373 1.565 6.239 6.239 0 002.102.98 6.409 6.409 0 002.327.207 4.791 4.791 0 001.971-.67 4.973 4.973 0 001.54-1.402c.459-.661.797-1.4.997-2.182a6.9 6.9 0 00.228-2.388 5.265 5.265 0 00-.633-1.984 5.267 5.267 0 00-1.372-1.565 6.4 6.4 0 00-2.119-.985 6.235 6.235 0 00-2.311-.202 5.277 5.277 0 00-1.971.669zm.235 6.813a3.353 3.353 0 01-.127-1.196c.028-.428.099-.853.214-1.267.108-.415.259-.819.448-1.204.172-.361.411-.685.704-.955.27-.268.606-.46.973-.556a2.284 2.284 0 011.285.018c.43.101.824.319 1.138.632.27.266.465.6.565.968.119.38.164.78.132 1.178-.028.428-.1.853-.214 1.267a6.3 6.3 0 01-.448 1.205 3.36 3.36 0 01-.708.971 2.455 2.455 0 01-.973.556c-.43.093-.875.073-1.293-.056a2.175 2.175 0 01-1.696-1.561zm13.929-4.379l-.358 1.338a3.145 3.145 0 011.668-.878 3.963 3.963 0 011.859.081 4.673 4.673 0 011.984 1.022 4.569 4.569 0 011.135 1.647c.255.642.382 1.329.372 2.022a7.75 7.75 0 01-.287 2.21 7.102 7.102 0 01-.829 1.955 5.069 5.069 0 01-1.306 1.464 4.065 4.065 0 01-1.743.821c-.7.15-1.425.124-2.111-.075a4.11 4.11 0 01-1.68-.886 3.366 3.366 0 01-1.007-1.522l-1.334 4.977-2.842-.761 3.788-14.136 2.691.721zm1.462 9.319c.357-.107.688-.291.969-.539.294-.266.528-.593.687-.959a6.072 6.072 0 00.667-2.488 3.38 3.38 0 00-.145-1.2 2.304 2.304 0 00-.564-.968 2.447 2.447 0 00-2.324-.622 2.298 2.298 0 00-.973.555 3.112 3.112 0 00-.687.959 6.565 6.565 0 00-.474 1.234 6.439 6.439 0 00-.197 1.272c-.023.398.022.796.132 1.178.12.36.321.687.586.956a2.72 2.72 0 002.323.622zm10.857-6.018l-.381 1.422a4.546 4.546 0 011.694-.906 3.898 3.898 0 011.94.048 4.031 4.031 0 011.684.868c.491.43.803 1.032.874 1.686a4.512 4.512 0 011.581-.883 3.424 3.424 0 012.012-.023 5.615 5.615 0 011.467.61c.409.243.76.573 1.031.966.263.415.424.887.473 1.379a5.106 5.106 0 01-.17 1.769l-1.896 7.076-2.841-.761 1.596-5.959a9.54 9.54 0 00.263-.982c.056-.288.056-.584.001-.871a1.367 1.367 0 00-.385-.702 1.973 1.973 0 00-.899-.458 1.898 1.898 0 00-1.033-.023c-.283.084-.54.24-.748.453-.21.227-.383.487-.511.77a9.735 9.735 0 00-.259.965l-1.569 5.857-2.842-.761 1.579-5.892.249-.931c.061-.289.074-.586.039-.878a1.275 1.275 0 00-.334-.761 1.909 1.909 0 00-.956-.51 1.963 1.963 0 00-.562-.042 1.71 1.71 0 00-.743.164 1.946 1.946 0 00-.713.589c-.273.35-.468.757-.57 1.19l-1.632 6.094-2.909-.779 2.812-10.496 2.658.712zm16.317 12.918c.383.587.986.991 1.671 1.119a2.621 2.621 0 001.601-.024c.407-.125.764-.38 1.018-.725l2.508.672a5.017 5.017 0 01-2.581 2.211 5.519 5.519 0 01-3.227.006 5.905 5.905 0 01-2.097-.997 4.737 4.737 0 01-1.373-1.565 4.966 4.966 0 01-.599-1.975 6.614 6.614 0 01.214-2.338 6.49 6.49 0 01.97-2.081 5.255 5.255 0 011.54-1.401 5.323 5.323 0 011.985-.721 5.469 5.469 0 012.269.155 5.145 5.145 0 012.171 1.126 4.852 4.852 0 011.295 1.853 5.84 5.84 0 01.372 2.222 7.462 7.462 0 01-.426 2.39l-7.471-2.002c-.197.69-.14 1.428.16 2.075zm4.688-4.658a2.01 2.01 0 00-1.4-.993 2.494 2.494 0 00-1.183-.063 2.424 2.424 0 00-.89.379 2.383 2.383 0 00-.563.629 2.499 2.499 0 00-.32.659l4.664 1.249a3.347 3.347 0 00-.308-1.86zm8.614-.323l-.39 1.456a3.35 3.35 0 011.763-.961c.59-.115 1.197-.1 1.78.041.649.15 1.263.426 1.807.811.399.307.71.716.901 1.185.19.48.271.998.239 1.515a8.733 8.733 0 01-.309 1.823l-1.733 6.466-2.842-.761 1.588-5.925a3.849 3.849 0 00.121-2.054 1.724 1.724 0 00-1.266-1.029 1.997 1.997 0 00-1.862.263 4.018 4.018 0 00-1.151 2.159l-1.475 5.502-2.841-.761 2.812-10.496 2.858.766zm14.36 5.916l.517-1.93-2.023-.542.844-3.149-2.842-.761-.843 3.149-1.672-.448-.512 1.913 1.671.448-1.66 6.195a2.85 2.85 0 00-.073 1.342c.082.36.26.69.515.954.274.265.593.479.941.633.401.166.812.307 1.231.421l.869.233.808.126.581-2.167-.418-.112-.468-.126a1.404 1.404 0 01-.901-.513 1.484 1.484 0 01.024-1.028l1.388-5.18 2.023.542z" fill="#E08300" fill-opacity=".5" shape-rendering="crispEdges"/></g></g><defs><linearGradient id="paint0_linear_607_6688" x1="169.5" y1="277" x2="169.5" y2="254" gradientUnits="userSpaceOnUse"><stop stop-color="#D97F00"/><stop offset="1" stop-color="#F28D00"/></linearGradient><linearGradient id="paint1_linear_607_6688" x1="115.453" y1="276.88" x2="115.453" y2="254.24" gradientUnits="userSpaceOnUse"><stop stop-color="#F28D00"/><stop offset="1" stop-color="#FFCF8C"/></linearGradient><linearGradient id="paint2_linear_607_6688" x1="175.453" y1="276.88" x2="175.453" y2="254.24" gradientUnits="userSpaceOnUse"><stop stop-color="#F28D00"/><stop offset="1" stop-color="#FFCF8C"/></linearGradient><linearGradient id="paint3_linear_607_6688" x1="171" y1="252" x2="171" y2="229" gradientUnits="userSpaceOnUse"><stop stop-color="#E58600"/><stop offset="1" stop-color="#FF9F19"/></linearGradient><linearGradient id="paint4_linear_607_6688" x1="94" y1="252" x2="94" y2="229" gradientUnits="userSpaceOnUse"><stop stop-color="#D97F00"/><stop offset="1" stop-color="#F28D00"/></linearGradient><linearGradient id="paint5_linear_607_6688" x1="136" y1="252" x2="136" y2="229" gradientUnits="userSpaceOnUse"><stop stop-color="#D97F00"/><stop offset="1" stop-color="#F28D00"/></linearGradient><linearGradient id="paint6_linear_607_6688" x1="106" y1="252" x2="106" y2="229" gradientUnits="userSpaceOnUse"><stop stop-color="#D97F00"/><stop offset="1" stop-color="#F28D00"/></linearGradient><linearGradient id="paint7_linear_607_6688" x1="118" y1="252" x2="118" y2="229" gradientUnits="userSpaceOnUse"><stop stop-color="#D97F00"/><stop offset="1" stop-color="#F28D00"/></linearGradient><linearGradient id="paint8_linear_607_6688" x1="29" y1="252" x2="29" y2="229" gradientUnits="userSpaceOnUse"><stop stop-color="#D97F00"/><stop offset="1" stop-color="#F28D00"/></linearGradient><linearGradient id="paint9_linear_607_6688" x1="67" y1="252" x2="67" y2="229" gradientUnits="userSpaceOnUse"><stop stop-color="#D97F00"/><stop offset="1" stop-color="#F28D00"/></linearGradient><linearGradient id="paint10_linear_607_6688" x1="41" y1="252" x2="41" y2="229" gradientUnits="userSpaceOnUse"><stop stop-color="#D97F00"/><stop offset="1" stop-color="#F28D00"/></linearGradient><linearGradient id="paint11_linear_607_6688" x1="8.953" y1="251.88" x2="8.953" y2="229.24" gradientUnits="userSpaceOnUse"><stop stop-color="#F28D00"/><stop offset="1" stop-color="#FFCF8C"/></linearGradient><linearGradient id="paint12_linear_607_6688" x1="99.953" y1="251.88" x2="99.953" y2="229.24" gradientUnits="userSpaceOnUse"><stop stop-color="#F08C00"/><stop offset="1" stop-color="#FFA424"/></linearGradient><linearGradient id="paint13_linear_607_6688" x1="111.953" y1="251.88" x2="111.953" y2="229.24" gradientUnits="userSpaceOnUse"><stop stop-color="#F08C00"/><stop offset="1" stop-color="#FFA424"/></linearGradient><linearGradient id="paint14_linear_607_6688" x1="123.953" y1="251.88" x2="123.953" y2="229.24" gradientUnits="userSpaceOnUse"><stop stop-color="#F08C00"/><stop offset="1" stop-color="#FFA424"/></linearGradient><linearGradient id="paint15_linear_607_6688" x1="144.977" y1="251.88" x2="144.977" y2="229.24" gradientUnits="userSpaceOnUse"><stop stop-color="#F08C00"/><stop offset="1" stop-color="#FFA424"/></linearGradient><linearGradient id="paint16_linear_607_6688" x1="34.953" y1="251.88" x2="34.953" y2="229.24" gradientUnits="userSpaceOnUse"><stop stop-color="#F08C00"/><stop offset="1" stop-color="#FFA424"/></linearGradient><linearGradient id="paint17_linear_607_6688" x1="46.953" y1="251.88" x2="46.953" y2="229.24" gradientUnits="userSpaceOnUse"><stop stop-color="#F08C00"/><stop offset="1" stop-color="#FFA424"/></linearGradient><linearGradient id="paint18_linear_607_6688" x1="72.953" y1="251.88" x2="72.953" y2="229.24" gradientUnits="userSpaceOnUse"><stop stop-color="#F28D00"/><stop offset="1" stop-color="#FFCF8C"/></linearGradient><linearGradient id="paint19_linear_607_6688" x1="75.977" y1="251.88" x2="75.977" y2="229.24" gradientUnits="userSpaceOnUse"><stop stop-color="#F08C00"/><stop offset="1" stop-color="#FFA424"/></linearGradient><linearGradient id="paint20_linear_607_6688" x1="81.953" y1="251.88" x2="81.953" y2="229.24" gradientUnits="userSpaceOnUse"><stop stop-color="#F28D00"/><stop offset="1" stop-color="#FFCF8C"/></linearGradient><linearGradient id="paint21_linear_607_6688" x1="141.953" y1="251.88" x2="141.953" y2="229.24" gradientUnits="userSpaceOnUse"><stop stop-color="#F28D00"/><stop offset="1" stop-color="#FFCF8C"/></linearGradient><linearGradient id="paint22_linear_607_6688" x1="147.977" y1="251.88" x2="147.977" y2="229.24" gradientUnits="userSpaceOnUse"><stop stop-color="#F28D00"/><stop offset="1" stop-color="#FFCF8C"/></linearGradient><linearGradient id="paint23_linear_607_6688" x1="26" y1="226" x2="26" y2="203" gradientUnits="userSpaceOnUse"><stop stop-color="#E58600"/><stop offset="1" stop-color="#FF9F19"/></linearGradient><linearGradient id="paint24_linear_607_6688" x1="66" y1="226" x2="66" y2="203" gradientUnits="userSpaceOnUse"><stop stop-color="#E58600"/><stop offset="1" stop-color="#FF9F19"/></linearGradient><linearGradient id="paint25_linear_607_6688" x1="40" y1="226" x2="40" y2="203" gradientUnits="userSpaceOnUse"><stop stop-color="#D97F00"/><stop offset="1" stop-color="#F28D00"/></linearGradient><linearGradient id="paint26_linear_607_6688" x1="28.977" y1="225.88" x2="28.977" y2="203.24" gradientUnits="userSpaceOnUse"><stop stop-color="#F28D00"/><stop offset="1" stop-color="#FFCF8C"/></linearGradient><linearGradient id="paint27_linear_607_6688" x1="42.977" y1="225.88" x2="42.977" y2="203.24" gradientUnits="userSpaceOnUse"><stop stop-color="#F28D00"/><stop offset="1" stop-color="#FFCF8C"/></linearGradient><linearGradient id="paint28_linear_607_6688" x1="68.977" y1="225.88" x2="68.977" y2="203.24" gradientUnits="userSpaceOnUse"><stop stop-color="#F08C00"/><stop offset="1" stop-color="#FFA424"/></linearGradient><linearGradient id="paint29_linear_607_6688" x1="132" y1="226" x2="132" y2="203" gradientUnits="userSpaceOnUse"><stop stop-color="#D97F00"/><stop offset="1" stop-color="#F28D00"/></linearGradient><linearGradient id="paint30_linear_607_6688" x1="165" y1="226" x2="165" y2="203" gradientUnits="userSpaceOnUse"><stop stop-color="#D97F00"/><stop offset="1" stop-color="#F28D00"/></linearGradient><linearGradient id="paint31_linear_607_6688" x1="99" y1="226" x2="99" y2="203" gradientUnits="userSpaceOnUse"><stop stop-color="#D97F00"/><stop offset="1" stop-color="#F28D00"/></linearGradient><linearGradient id="paint32_linear_607_6688" x1="101.977" y1="225.88" x2="101.977" y2="203.24" gradientUnits="userSpaceOnUse"><stop stop-color="#F28D00"/><stop offset="1" stop-color="#FFCF8C"/></linearGradient><linearGradient id="paint33_linear_607_6688" x1="134.977" y1="225.88" x2="134.977" y2="203.24" gradientUnits="userSpaceOnUse"><stop stop-color="#F08C00"/><stop offset="1" stop-color="#FFA424"/></linearGradient><clipPath id="clip0_607_6688"><path fill="#fff" d="M0 0h270v339H0z"/></clipPath><clipPath id="clip1_607_6688"><path fill="#fff" transform="translate(170 10)" d="M0 0h78v307H0z"/></clipPath><clipPath id="clip2_607_6688"><path fill="#fff" transform="translate(0 200)" d="M0 0h194v55H0z"/></clipPath><filter id="filter0_d_607_6688" x="117.001" y="284.234" width="47.258" height="39.522" filterUnits="userSpaceOnUse" color-interpolation-filters="sRGB"><feFlood flood-opacity="0" result="BackgroundImageFix"/><feColorMatrix in="SourceAlpha" values="0 0 0 0 0 0 0 0 0 0 0 0 0 0 0 0 0 0 127 0" result="hardAlpha"/><feOffset dy="-1"/><feComposite in2="hardAlpha" operator="out"/><feColorMatrix values="0 0 0 0 1 0 0 0 0 0.75 0 0 0 0 0.4 0 0 0 1 0"/><feBlend in2="BackgroundImageFix" result="effect1_dropShadow_607_6688"/><feBlend in="SourceGraphic" in2="effect1_dropShadow_607_6688" result="shape"/></filter><filter id="filter1_d_607_6688" x="101" y="77" width="51.1" height="29.824" filterUnits="userSpaceOnUse" color-interpolation-filters="sRGB"><feFlood flood-opacity="0" result="BackgroundImageFix"/><feColorMatrix in="SourceAlpha" values="0 0 0 0 0 0 0 0 0 0 0 0 0 0 0 0 0 0 127 0" result="hardAlpha"/><feOffset dy="-1"/><feComposite in2="hardAlpha" operator="out"/><feColorMatrix values="0 0 0 0 1 0 0 0 0 0.75 0 0 0 0 0.4 0 0 0 1 0"/><feBlend in2="BackgroundImageFix" result="effect1_dropShadow_607_6688"/><feBlend in="SourceGraphic" in2="effect1_dropShadow_607_6688" result="shape"/></filter><filter id="filter2_d_607_6688" x="107.487" y="176.283" width="127.775" height="66.165" filterUnits="userSpaceOnUse" color-interpolation-filters="sRGB"><feFlood flood-opacity="0" result="BackgroundImageFix"/><feColorMatrix in="SourceAlpha" values="0 0 0 0 0 0 0 0 0 0 0 0 0 0 0 0 0 0 127 0" result="hardAlpha"/><feOffset dy="-1"/><feComposite in2="hardAlpha" operator="out"/><feColorMatrix values="0 0 0 0 1 0 0 0 0 0.75 0 0 0 0 0.4 0 0 0 1 0"/><feBlend in2="BackgroundImageFix" result="effect1_dropShadow_607_6688"/><feBlend in="SourceGraphic" in2="effect1_dropShadow_607_6688" result="shape"/></filter></defs></svg>