<svg xmlns="http://www.w3.org/2000/svg" xmlns:xlink="http://www.w3.org/1999/xlink" width="270" height="339" viewBox="0 0 270 339"><defs><linearGradient id="awards-b" x1="50%" x2="50%" y1="100%" y2="0%"><stop offset="0%" stop-color="#D99900"/><stop offset="100%" stop-color="#F2B200"/></linearGradient><linearGradient id="awards-c" x1="50%" x2="50%" y1="99.478%" y2="1.043%"><stop offset="0%" stop-color="#F2B200"/><stop offset="100%" stop-color="#FFE58C"/></linearGradient><linearGradient id="awards-d" x1="50%" x2="50%" y1="100%" y2="0%"><stop offset="0%" stop-color="#E5A600"/><stop offset="100%" stop-color="#FFCC19"/></linearGradient><linearGradient id="awards-e" x1="50%" x2="50%" y1="99.478%" y2="1.043%"><stop offset="0%" stop-color="#BF8000"/><stop offset="100%" stop-color="#F2B200"/></linearGradient><linearGradient id="awards-f" x1="50%" x2="50%" y1="100%" y2="0%"><stop offset="0%" stop-color="#BF8000"/><stop offset="100%" stop-color="#F2B200"/></linearGradient><path id="awards-h" d="M39.556 83.88c.124.26.314.484.55.65.244.174.519.3.81.37a3.83 3.83 0 001 .12 4.76 4.76 0 00.72-.06 2.59 2.59 0 00.72-.21 1.74 1.74 0 00.56-.44 1.11 1.11 0 00.22-.71 1.06 1.06 0 00-.29-.76 2.47 2.47 0 00-.78-.48 7.88 7.88 0 00-1.09-.33c-.4-.1-.82-.2-1.23-.32a13 13 0 01-1.25-.39 4.77 4.77 0 01-1.09-.6 2.85 2.85 0 01-.77-.92 2.79 2.79 0 01-.3-1.34 3 3 0 01.38-1.53 3.49 3.49 0 011-1.08 4.26 4.26 0 011.38-.64 5.76 5.76 0 011.53-.21c.58 0 1.156.067 1.72.2a4.45 4.45 0 011.47.65 3.3 3.3 0 011 1.15 3.48 3.48 0 01.38 1.68h-2.43a2.15 2.15 0 00-.22-.84 1.32 1.32 0 00-.49-.53 1.92 1.92 0 00-.69-.27 3.87 3.87 0 00-.86-.08c-.205 0-.41.02-.61.06a1.76 1.76 0 00-.55.22c-.16.107-.3.243-.41.4a1.15 1.15 0 00-.16.61 1 1 0 00.13.55c.132.167.304.298.5.38.34.147.69.264 1.05.35l1.73.45c.21 0 .51.12.89.23a4.16 4.16 0 011.13.54 3.33 3.33 0 011 1 2.75 2.75 0 01.41 1.58c.005.5-.097.994-.3 1.45a3.07 3.07 0 01-.9 1.16 4.27 4.27 0 01-1.49.76 6.75 6.75 0 01-2.06.28 7 7 0 01-1.83-.24 4.52 4.52 0 01-1.57-.72 3.57 3.57 0 01-1.46-3.09h2.43a2 2 0 00.12.95zm13.82 2.82v-1.15h-.05a2.6 2.6 0 01-1.12 1 3.37 3.37 0 01-1.41.32 4 4 0 01-1.49-.24 2.16 2.16 0 01-.92-.68 2.75 2.75 0 01-.47-1.07 6.78 6.78 0 01-.14-1.4v-5.09h2.28v4.67a3 3 0 00.32 1.53 1.26 1.26 0 001.14.5 1.55 1.55 0 001.34-.55 3 3 0 00.42-1.82v-4.33h2.27v8.31h-2.17zm6.05-8.27v1.05a2.52 2.52 0 011.06-1 3.23 3.23 0 011.4-.31 3.62 3.62 0 011.68.37c.46.242.86.584 1.17 1 .318.422.552.9.69 1.41.15.55.223 1.12.22 1.69a5.62 5.62 0 01-.22 1.6 4.14 4.14 0 01-.68 1.36 3.3 3.3 0 01-1.14 1 3.45 3.45 0 01-1.59.35 3.31 3.31 0 01-1.41-.31 2.72 2.72 0 01-1.07-.92v3.92h-2.27V78.43h2.16zm3 6.56a1.91 1.91 0 00.61-.59 2.63 2.63 0 00.33-.84 5.23 5.23 0 00.09-1 4.59 4.59 0 00-.1-1 2.58 2.58 0 00-.35-.85 1.87 1.87 0 00-.61-.61 1.68 1.68 0 00-.92-.23 1.7 1.7 0 00-.94.23 1.84 1.84 0 00-.61.6 2.46 2.46 0 00-.32.85 4.62 4.62 0 00-.1 1c.001.336.035.67.1 1 .064.298.18.582.34.84.33.527.918.837 1.54.81.31.008.616-.064.89-.21h.05zm7.05-.29a2 2 0 001.47.49 2 2 0 001.18-.34 1.4 1.4 0 00.61-.73h2a3.82 3.82 0 01-1.47 2.13 4.38 4.38 0 01-2.4.64 4.88 4.88 0 01-1.76-.31 3.75 3.75 0 01-1.33-.89 4.09 4.09 0 01-.84-1.38 5.14 5.14 0 010-3.49 4.08 4.08 0 01.86-1.38 4 4 0 011.34-.92 4.36 4.36 0 011.72-.34 4 4 0 011.84.41c.51.262.95.639 1.29 1.1.34.47.586 1.004.72 1.57a5.6 5.6 0 01.16 1.84h-6a2.26 2.26 0 00.61 1.6zm2.56-4.36a1.61 1.61 0 00-1.24-.44 2 2 0 00-.9.18 1.67 1.67 0 00-.88 1.03 2.48 2.48 0 00-.1.55h3.69a2.52 2.52 0 00-.55-1.3l-.02-.02zm6.35-1.91v1.53a3.06 3.06 0 01.43-.71 2.81 2.81 0 01.63-.56 3.24 3.24 0 01.75-.36 2.88 2.88 0 01.83-.13 2 2 0 01.5.08v2.12a3.24 3.24 0 00-.39-.06 3.17 3.17 0 00-.43 0 2.57 2.57 0 00-1.06.2 1.84 1.84 0 00-.69.57 2.31 2.31 0 00-.38.84 4.88 4.88 0 00-.11 1v3.75h-2.27v-8.27h2.19zm-34.24 10.85l2.67 7.85 2.53-7.85h3.54v11.42h-2.33v-8.1l-2.8 8.1h-1.93l-2.8-8v8h-2.35V89.28h3.47zm10.64 5.69a2.51 2.51 0 011.3-2.17 3.64 3.64 0 011.22-.46 7 7 0 011.37-.14c.422 0 .843.03 1.26.09a3.9 3.9 0 011.17.35c.343.16.639.404.86.71.245.354.365.78.34 1.21v4.3c0 .358.02.715.06 1.07a2 2 0 00.23.77h-2.31a2.79 2.79 0 01-.1-.39 2.9 2.9 0 01-.06-.41 3 3 0 01-1.28.78 5.1 5.1 0 01-1.5.23 4 4 0 01-1.11-.15 2.4 2.4 0 01-.89-.44 2.06 2.06 0 01-.6-.77 2.53 2.53 0 01-.22-1.11c-.016-.402.07-.8.25-1.16a2 2 0 01.64-.72 2.65 2.65 0 01.9-.41c.33-.09.67-.16 1-.22l1-.13a6.5 6.5 0 00.88-.14 1.5 1.5 0 00.61-.28.61.61 0 00.21-.54c.01-.2-.032-.4-.12-.58a1 1 0 00-.32-.34 1.37 1.37 0 00-.47-.16 4.78 4.78 0 00-.57 0 1.74 1.74 0 00-1 .29 1.26 1.26 0 00-.45 1l-2.3-.08zm5.27 1.73a1 1 0 01-.36.2 3.23 3.23 0 01-.47.12l-.52.08-.54.08a4.77 4.77 0 00-.51.13 1.59 1.59 0 00-.43.22 1 1 0 00-.29.34 1 1 0 00-.12.53 1 1 0 00.12.51.8.8 0 00.3.33c.14.08.292.138.45.17.176.015.354.015.53 0a2 2 0 001-.22 1.55 1.55 0 00.54-.54 1.64 1.64 0 00.22-.63v-.51l.08-.81zm6.17-4.27v1.53a3.06 3.06 0 01.43-.71 2.81 2.81 0 01.63-.56 3.24 3.24 0 01.75-.36 2.88 2.88 0 01.83-.13c.17.004.338.031.5.08v2.12a3.24 3.24 0 00-.39-.06 3.17 3.17 0 00-.43 0 2.6 2.6 0 00-1.06.2 1.92 1.92 0 00-.69.57 2.31 2.31 0 00-.38.84 4.88 4.88 0 00-.11 1v3.75h-2.25v-8.27h2.17zm6.54-3.15v6.12l2.87-3h2.69l-3.13 3 3.48 5.23h-2.75l-2.28-3.7-.88.85v2.92h-2.27V89.28h2.27z"/><path id="awards-a" d="M27.747 254.772C38.284 264.24 52.219 270 67.5 270c32.86 0 59.5-26.64 59.5-59.5S100.36 151 67.5 151c-28.982 0-53.124 20.721-58.42 48.156"/><path id="awards-k" d="M39.95 85.88c.124.26.314.484.55.65.244.174.519.3.81.37a3.83 3.83 0 001 .12 4.76 4.76 0 00.72-.06 2.59 2.59 0 00.72-.21 1.74 1.74 0 00.56-.44 1.11 1.11 0 00.22-.71 1.06 1.06 0 00-.29-.76 2.47 2.47 0 00-.78-.48 7.88 7.88 0 00-1.09-.33c-.4-.1-.82-.2-1.23-.32a13 13 0 01-1.25-.39 4.77 4.77 0 01-1.09-.6 2.85 2.85 0 01-.77-.92 2.79 2.79 0 01-.3-1.34 3 3 0 01.38-1.53 3.49 3.49 0 011-1.08 4.26 4.26 0 011.38-.64 5.76 5.76 0 011.53-.21c.58 0 1.156.067 1.72.2a4.45 4.45 0 011.47.65 3.3 3.3 0 011 1.15 3.48 3.48 0 01.38 1.68h-2.43a2.15 2.15 0 00-.22-.84 1.32 1.32 0 00-.49-.53 1.92 1.92 0 00-.69-.27 3.87 3.87 0 00-.86-.08c-.205 0-.409.02-.61.06a1.76 1.76 0 00-.55.22c-.16.107-.3.243-.41.4a1.15 1.15 0 00-.16.61 1 1 0 00.13.55c.132.167.304.298.5.38.34.147.69.264 1.05.35l1.73.45c.21 0 .51.12.89.23a4.16 4.16 0 011.13.54 3.33 3.33 0 011 1 2.75 2.75 0 01.41 1.58c.005.5-.097.994-.3 1.45a3.07 3.07 0 01-.9 1.16 4.27 4.27 0 01-1.49.76 6.75 6.75 0 01-2.06.28 7 7 0 01-1.83-.24 4.52 4.52 0 01-1.57-.72 3.57 3.57 0 01-1.46-3.09h2.43a2 2 0 00.12.95zm13.82 2.82v-1.15h-.05a2.6 2.6 0 01-1.12 1 3.37 3.37 0 01-1.41.32 4 4 0 01-1.49-.24 2.16 2.16 0 01-.92-.68 2.75 2.75 0 01-.47-1.07 6.78 6.78 0 01-.14-1.4v-5.09h2.28v4.67a3 3 0 00.32 1.53 1.26 1.26 0 001.14.5 1.55 1.55 0 001.34-.55 3 3 0 00.42-1.82v-4.33h2.27v8.31h-2.17zm6.05-8.27v1.05a2.52 2.52 0 011.06-1 3.23 3.23 0 011.4-.31 3.62 3.62 0 011.68.37c.46.242.86.584 1.17 1 .318.422.552.9.69 1.41.15.55.223 1.12.22 1.69a5.62 5.62 0 01-.22 1.6 4.14 4.14 0 01-.68 1.36 3.3 3.3 0 01-1.14 1 3.45 3.45 0 01-1.59.35 3.31 3.31 0 01-1.41-.31 2.72 2.72 0 01-1.07-.92v3.92h-2.27V80.43h2.16zm3 6.56a1.91 1.91 0 00.61-.59 2.63 2.63 0 00.33-.84 5.23 5.23 0 00.09-1 4.59 4.59 0 00-.1-1 2.58 2.58 0 00-.35-.85 1.87 1.87 0 00-.61-.61 1.68 1.68 0 00-.92-.23 1.7 1.7 0 00-.94.23 1.84 1.84 0 00-.61.6 2.46 2.46 0 00-.32.85 4.62 4.62 0 00-.1 1c.001.336.035.67.1 1 .064.298.18.582.34.84.33.527.918.837 1.54.81.31.008.617-.064.89-.21h.05zm7.05-.29a2 2 0 001.47.49 2 2 0 001.18-.34 1.4 1.4 0 00.61-.73h2a3.82 3.82 0 01-1.47 2.13 4.38 4.38 0 01-2.4.64 4.88 4.88 0 01-1.76-.31 3.75 3.75 0 01-1.33-.89 4.09 4.09 0 01-.84-1.38 5.14 5.14 0 010-3.49 4.08 4.08 0 01.86-1.38 4 4 0 011.34-.92 4.36 4.36 0 011.72-.34 4 4 0 011.84.41c.51.262.95.639 1.29 1.1.34.47.586 1.004.72 1.57a5.6 5.6 0 01.16 1.84h-6a2.26 2.26 0 00.61 1.6zm2.56-4.36a1.61 1.61 0 00-1.24-.44 2 2 0 00-.9.18 1.67 1.67 0 00-.88 1.03 2.48 2.48 0 00-.1.55H73a2.52 2.52 0 00-.55-1.3l-.02-.02zm6.35-1.91v1.53a3.06 3.06 0 01.43-.71 2.81 2.81 0 01.63-.56 3.24 3.24 0 01.75-.36 2.88 2.88 0 01.83-.13 2 2 0 01.5.08v2.12a3.24 3.24 0 00-.39-.06 3.17 3.17 0 00-.43 0 2.57 2.57 0 00-1.06.2 1.84 1.84 0 00-.69.57 2.31 2.31 0 00-.38.84 4.88 4.88 0 00-.11 1v3.75h-2.27v-8.27h2.19zM38.97 91.28c.702-.01 1.4.11 2.06.35a4.36 4.36 0 011.64 1 4.82 4.82 0 011.09 1.76 7.16 7.16 0 01.4 2.48 7.72 7.72 0 01-.33 2.31 5 5 0 01-1 1.82 4.57 4.57 0 01-1.62 1.21 5.55 5.55 0 01-2.28.44H34V91.28h4.97zm-.17 9.31a3.13 3.13 0 001-.18 2.32 2.32 0 00.91-.58 2.88 2.88 0 00.64-1.07 4.65 4.65 0 00.24-1.6 6.86 6.86 0 00-.16-1.56 3.2 3.2 0 00-.56-1.19 2.44 2.44 0 00-1-.76 4.17 4.17 0 00-1.56-.26h-1.79v7.2h2.28zm9.29.11a2 2 0 001.47.49 2.05 2.05 0 001.19-.34 1.38 1.38 0 00.6-.73h2a3.82 3.82 0 01-1.47 2.13 4.38 4.38 0 01-2.4.64 4.88 4.88 0 01-1.76-.31 3.84 3.84 0 01-1.33-.89 4.09 4.09 0 01-.84-1.38 5.2 5.2 0 01-.29-1.76 4.91 4.91 0 01.3-1.73 4.06 4.06 0 012.2-2.3 4.36 4.36 0 011.72-.34 3.93 3.93 0 011.84.41c.51.262.95.639 1.29 1.1a4.44 4.44 0 01.73 1.57 5.88 5.88 0 01.16 1.84h-6a2.3 2.3 0 00.59 1.6zm2.57-4.36a1.63 1.63 0 00-1.24-.44 2 2 0 00-.91.18 1.55 1.55 0 00-.57.46 1.6 1.6 0 00-.31.57 2.48 2.48 0 00-.1.55h3.7a2.69 2.69 0 00-.57-1.3v-.02zm6.09 4.3c.103.171.24.32.4.44.167.114.353.195.55.24.212.057.43.084.65.08a2.2 2.2 0 00.5 0 1.71 1.71 0 00.48-.18 1 1 0 00.36-.32.8.8 0 00.14-.5c0-.34-.22-.6-.67-.77a14 14 0 00-1.9-.51c-.33-.08-.65-.16-1-.27a3.26 3.26 0 01-.84-.4 1.94 1.94 0 01-.59-.62 1.77 1.77 0 01-.22-.92 2.47 2.47 0 01.31-1.31 2.35 2.35 0 01.82-.81 3.59 3.59 0 011.15-.42 7.2 7.2 0 011.32-.12 7 7 0 011.3.13c.398.08.78.225 1.13.43.327.209.607.485.82.81.235.384.369.82.39 1.27h-2.16a1 1 0 00-.49-.88 2.21 2.21 0 00-1.06-.24h-.42a1.31 1.31 0 00-.4.1.94.94 0 00-.32.23.66.66 0 00-.12.41.63.63 0 00.22.5c.175.14.375.246.59.31.27.088.543.161.82.22l.94.2c.338.076.672.17 1 .28.301.093.585.235.84.42a2 2 0 01.59.66c.167.306.247.652.23 1a2.52 2.52 0 01-1.19 2.26 3.54 3.54 0 01-1.2.47 7.2 7.2 0 01-1.39.14 6.62 6.62 0 01-1.41-.15 3.46 3.46 0 01-1.22-.48 2.74 2.74 0 01-.88-.88 2.78 2.78 0 01-.38-1.39h2.16c.003.2.054.395.15.57zm6.75-7.49v-1.87h2.27v1.87H63.5zm2.27 1.28v8.27H63.5v-8.27h2.27zm9.61 8.88a2.83 2.83 0 01-.59 1.19 3.54 3.54 0 01-1.29.94 5.7 5.7 0 01-2.27.38 5.32 5.32 0 01-1.24-.15 4.1 4.1 0 01-1.16-.47 3 3 0 01-.86-.83 2.35 2.35 0 01-.39-1.21h2.25c.07.375.3.7.63.89a2.2 2.2 0 001.07.25 1.63 1.63 0 001.4-.58 2.27 2.27 0 00.42-1.45v-1.09a2.2 2.2 0 01-1 1 3.35 3.35 0 01-1.43.31 3.6 3.6 0 01-1.6-.33 3.11 3.11 0 01-1.1-.89 3.72 3.72 0 01-.63-1.33 6 6 0 01-.2-1.61 5 5 0 01.23-1.54 3.94 3.94 0 01.68-1.32 3.27 3.27 0 012.64-1.24 3.24 3.24 0 011.43.31 2.4 2.4 0 011 1v-1.1h2.16v7.74a5.61 5.61 0 01-.15 1.13zm-3.11-2.75a1.77 1.77 0 00.6-.52 2.23 2.23 0 00.37-.72c.077-.28.114-.57.11-.86a5.07 5.07 0 00-.09-1 2.64 2.64 0 00-.32-.81 1.76 1.76 0 00-.59-.56 2 2 0 00-.93-.2 1.59 1.59 0 00-1.4.71 2.14 2.14 0 00-.34.75 3.68 3.68 0 00-.1.89c0 .299.03.597.09.89.056.278.157.545.3.79.142.232.338.428.57.57.265.16.57.24.88.23a1.93 1.93 0 00.85-.16zm7.23-6.13v1.15h.05a2.57 2.57 0 011.12-1 3.16 3.16 0 011.4-.33 4 4 0 011.5.25c.361.147.678.385.92.69.233.318.394.683.47 1.07.096.46.143.93.14 1.4v5.04h-2.27v-4.67a3 3 0 00-.32-1.53 1.25 1.25 0 00-1.14-.5 1.55 1.55 0 00-1.34.55 3 3 0 00-.42 1.81v4.34h-2.27v-8.27h2.16z"/><path id="awards-m" d="M53.022 130.44c.215.457.543.85.952 1.14.421.306.897.526 1.401.648a6.548 6.548 0 001.73.21 8.136 8.136 0 001.247-.104c.43-.061.85-.185 1.246-.368.372-.187.702-.45.969-.772.264-.358.399-.797.38-1.244a1.871 1.871 0 00-.501-1.332 4.266 4.266 0 00-1.35-.841 13.508 13.508 0 00-1.886-.578c-.692-.176-1.42-.35-2.129-.561a22.29 22.29 0 01-2.163-.684 8.224 8.224 0 01-1.886-1.051 4.98 4.98 0 01-1.333-1.613 4.941 4.941 0 01-.519-2.348 5.311 5.311 0 01.658-2.682 6.087 6.087 0 011.73-1.892 7.33 7.33 0 012.388-1.122 9.85 9.85 0 012.648-.368 12.703 12.703 0 012.976.35c.91.22 1.772.607 2.544 1.14a5.763 5.763 0 011.73 2.015c.46.91.686 1.923.658 2.944h-4.205a3.806 3.806 0 00-.38-1.472 2.302 2.302 0 00-.848-.929 3.298 3.298 0 00-1.194-.473 6.615 6.615 0 00-1.489-.14 5.521 5.521 0 00-1.055.105 3.024 3.024 0 00-.952.386 2.716 2.716 0 00-.71.7 2.035 2.035 0 00-.276 1.07c-.018.336.06.671.225.964.227.293.525.522.865.666a10.91 10.91 0 001.817.613l2.994.789c.363 0 .882.21 1.54.403a7.16 7.16 0 011.955.946 5.8 5.8 0 011.73 1.753c.508.829.756 1.794.71 2.769a6.166 6.166 0 01-.519 2.541 5.372 5.372 0 01-1.557 2.033 7.355 7.355 0 01-2.579 1.332 11.543 11.543 0 01-3.565.49 11.97 11.97 0 01-3.166-.42 7.776 7.776 0 01-2.717-1.262 6.287 6.287 0 01-2.527-5.415h4.205a3.547 3.547 0 00.208 1.665zm23.915 4.943v-2.015h-.086a4.519 4.519 0 01-1.938 1.752 5.77 5.77 0 01-2.44.561 6.843 6.843 0 01-2.579-.42 3.742 3.742 0 01-1.592-1.192 4.85 4.85 0 01-.813-1.876 12.029 12.029 0 01-.242-2.453v-8.92h3.928v8.184a5.314 5.314 0 00.553 2.681c.46.624 1.21.957 1.973.876a2.666 2.666 0 002.319-.963 5.312 5.312 0 00.727-3.19v-7.589h3.963v14.564h-3.773zm10.47-14.494v1.84a4.384 4.384 0 011.834-1.752 5.53 5.53 0 012.423-.543 6.198 6.198 0 012.907.648 6.06 6.06 0 012.024 1.753c.55.739.956 1.577 1.194 2.47.259.966.387 1.962.381 2.963a9.967 9.967 0 01-.38 2.804 7.292 7.292 0 01-1.177 2.383 5.734 5.734 0 01-1.973 1.753c-.856.424-1.8.634-2.751.613a5.667 5.667 0 01-2.44-.543 4.728 4.728 0 01-1.817-1.647v6.87h-3.929v-19.612h3.704zm5.191 11.497a3.32 3.32 0 001.056-1.034c.272-.454.466-.952.57-1.472a9.28 9.28 0 00.156-1.753 8.143 8.143 0 00-.173-1.752 4.554 4.554 0 00-.605-1.49 3.257 3.257 0 00-1.056-1.069 2.878 2.878 0 00-1.592-.403 2.912 2.912 0 00-1.627.403c-.428.262-.79.622-1.055 1.052a4.345 4.345 0 00-.554 1.49 8.197 8.197 0 00-.173 1.752c.002.588.06 1.175.173 1.752.111.522.31 1.02.588 1.473a2.984 2.984 0 002.665 1.42 3.066 3.066 0 001.54-.369h.087zm12.2-.508c.7.62 1.616.93 2.544.859a3.43 3.43 0 002.042-.596 2.446 2.446 0 001.055-1.28h3.461a6.696 6.696 0 01-2.544 3.733 7.507 7.507 0 01-4.153 1.122 8.35 8.35 0 01-3.045-.543 6.485 6.485 0 01-2.302-1.56 7.185 7.185 0 01-1.453-2.419 9.116 9.116 0 010-6.116c.33-.9.836-1.722 1.488-2.419a6.92 6.92 0 012.319-1.612 7.462 7.462 0 012.976-.596 6.85 6.85 0 013.184.719 6.443 6.443 0 012.232 1.928 7.793 7.793 0 011.246 2.751 9.935 9.935 0 01.277 3.225h-10.383a3.99 3.99 0 001.056 2.804zm4.43-7.641a2.765 2.765 0 00-2.146-.771 3.423 3.423 0 00-1.557.315 2.91 2.91 0 00-1.004.806 3.063 3.063 0 00-.52 1 4.396 4.396 0 00-.172.963h6.385a4.444 4.444 0 00-.986-2.278v-.035zm10.989-3.348v2.682c.19-.447.441-.866.744-1.245.312-.38.68-.711 1.09-.981.404-.266.84-.478 1.298-.63a4.899 4.899 0 011.436-.229c.293.01.584.057.865.14v3.716a5.541 5.541 0 00-.675-.105 5.417 5.417 0 00-.744 0 4.398 4.398 0 00-1.834.35 3.193 3.193 0 00-1.194 1 4.073 4.073 0 00-.658 1.471 8.657 8.657 0 00-.19 1.753v6.572h-3.928V120.89h3.79zm-91.18 20.505a7.357 7.357 0 012.665.474c.81.291 1.543.765 2.146 1.384a6.165 6.165 0 011.402 2.314 9.326 9.326 0 01.519 3.26 10.64 10.64 0 01-.415 3.031 6.546 6.546 0 01-1.264 2.384 5.787 5.787 0 01-2.093 1.595 6.983 6.983 0 01-2.96.578h-6.385v-15.02h6.385zm-.224 12.268a4.09 4.09 0 001.367-.245 2.73 2.73 0 001.176-.754c.377-.398.66-.877.831-1.402a6.26 6.26 0 00.311-2.103 9.332 9.332 0 00-.207-2.05 4.108 4.108 0 00-.71-1.578 3.464 3.464 0 00-1.332-.998 5.132 5.132 0 00-2.025-.333h-2.319v9.463h2.908zm12.096.14a2.594 2.594 0 001.903.65 2.623 2.623 0 001.54-.44c.361-.225.64-.563.796-.963h2.596a5.013 5.013 0 01-1.92 2.804 5.519 5.519 0 01-3.116.841 5.87 5.87 0 01-2.267-.42 4.65 4.65 0 01-1.73-1.157 5.478 5.478 0 01-1.09-1.753 6.613 6.613 0 01-.381-2.313c-.009-.77.12-1.537.38-2.26.783-2.15 2.827-3.558 5.088-3.506.826-.02 1.645.16 2.388.526.686.335 1.28.834 1.73 1.455.44.617.763 1.313.953 2.05.192.79.262 1.606.207 2.419h-7.752c-.043.75.198 1.49.675 2.068zm3.34-5.713a2.044 2.044 0 00-1.61-.596 2.602 2.602 0 00-1.177.246c-.288.14-.542.344-.744.596a2.112 2.112 0 00-.398.753c-.073.234-.12.475-.138.719h4.793a3.526 3.526 0 00-.761-1.718h.034zm8.046 8.325l-3.668-10.866h3.08l2.267 7.413 2.25-7.413h2.941l-3.634 10.866h-3.236zm11.3-2.611a2.558 2.558 0 001.904.648 2.623 2.623 0 001.54-.438c.36-.226.64-.564.796-.964h2.596a5.013 5.013 0 01-1.921 2.804 5.519 5.519 0 01-3.115.841 5.904 5.904 0 01-2.284-.42 4.72 4.72 0 01-1.73-1.157 4.951 4.951 0 01-1.091-1.753 6.612 6.612 0 01-.398-2.313 6.47 6.47 0 01.398-2.26 5.265 5.265 0 011.125-1.753 5.329 5.329 0 011.73-1.21 5.46 5.46 0 012.233-.438c.826-.02 1.644.16 2.388.526a4.85 4.85 0 011.73 1.455 5.84 5.84 0 01.935 2.05c.207.788.277 1.606.207 2.419h-7.735a2.985 2.985 0 00.692 1.963zm3.34-5.714a2.061 2.061 0 00-1.627-.596c-.4-.01-.797.073-1.16.246-.29.145-.549.347-.76.596-.171.226-.3.48-.381.753-.073.234-.12.475-.139.719h4.794a3.525 3.525 0 00-.796-1.718h.069zm8.445-6.695v15.02h-2.942v-15.02h2.942zm2.388 7.221a5.476 5.476 0 011.125-1.753 5.273 5.273 0 011.73-1.156 6.245 6.245 0 012.284-.403 6.416 6.416 0 012.302.403 5.273 5.273 0 011.73 1.156c.487.503.87 1.098 1.125 1.753.27.759.404 1.56.398 2.366a6.772 6.772 0 01-.398 2.366 4.967 4.967 0 01-1.125 1.753 4.789 4.789 0 01-1.73 1.156 6.416 6.416 0 01-2.302.403 6.245 6.245 0 01-2.284-.403 4.789 4.789 0 01-1.73-1.156 5.265 5.265 0 01-1.125-1.753 6.772 6.772 0 01-.38-2.366 6.914 6.914 0 01.38-2.366zm2.682 3.645c.076.398.222.778.433 1.122a2.173 2.173 0 002.042 1.07c.437.016.872-.08 1.263-.281.322-.198.594-.467.796-.789.21-.344.357-.724.433-1.122a6.28 6.28 0 00.12-1.279 6.405 6.405 0 00-.12-1.28 3.125 3.125 0 00-.433-1.104 2.159 2.159 0 00-.796-.788 2.381 2.381 0 00-1.263-.316 2.279 2.279 0 00-1.246.316c-.33.187-.604.46-.796.788-.213.337-.36.712-.433 1.105-.083.42-.124.85-.121 1.279-.004.43.037.858.121 1.28zm12.754-6.712v1.385a3.147 3.147 0 011.384-1.28 3.955 3.955 0 011.817-.403 4.674 4.674 0 012.18.473 4.583 4.583 0 011.523 1.297c.413.554.713 1.186.883 1.858a7.73 7.73 0 01.294 2.208 7.094 7.094 0 01-.294 2.103 5.072 5.072 0 01-.883 1.753 4.08 4.08 0 01-1.47 1.244 4.315 4.315 0 01-2.06.473 4.11 4.11 0 01-1.851-.42 3.37 3.37 0 01-1.368-1.21v5.153h-2.941v-14.634h2.786zm3.824 8.623c.317-.196.589-.46.796-.771.215-.334.357-.71.415-1.105a6.069 6.069 0 000-2.576 3.39 3.39 0 00-.45-1.122 2.298 2.298 0 00-.796-.788 2.447 2.447 0 00-2.405 0 2.298 2.298 0 00-.796.788 3.108 3.108 0 00-.415 1.105 6.51 6.51 0 00-.139 1.314c.004.43.05.859.139 1.28.08.39.227.763.432 1.104.21.316.488.58.814.77a2.72 2.72 0 002.405 0zm8.93-8.623v1.472a4.54 4.54 0 011.401-1.314 3.905 3.905 0 011.886-.456 4.04 4.04 0 011.852.403 2.616 2.616 0 011.28 1.402 4.508 4.508 0 011.298-1.262 3.428 3.428 0 011.938-.543 5.609 5.609 0 011.575.21c.458.13.883.356 1.246.666.361.333.64.748.813 1.21.2.562.3 1.155.295 1.752v7.326H116.6v-6.17a9.496 9.496 0 000-1.016 2.301 2.301 0 00-.225-.84 1.36 1.36 0 00-.554-.58 1.969 1.969 0 00-.986-.21 1.901 1.901 0 00-1.004.246c-.252.155-.46.372-.606.63a2.9 2.9 0 00-.294.877 9.691 9.691 0 000 1v6.063h-2.942v-7.063a2.71 2.71 0 00-.19-.859 1.276 1.276 0 00-.52-.648 1.918 1.918 0 00-1.055-.245 1.985 1.985 0 00-.553.105 1.723 1.723 0 00-.675.35c-.237.204-.42.462-.537.754a3.083 3.083 0 00-.242 1.297v6.309h-3.011v-10.866h2.751zm19.104 8.255a2.558 2.558 0 001.903.648 2.623 2.623 0 001.54-.438c.361-.226.64-.564.797-.964h2.595a5.013 5.013 0 01-1.92 2.804 5.519 5.519 0 01-3.115.841 5.904 5.904 0 01-2.285-.42 4.72 4.72 0 01-1.73-1.157 4.951 4.951 0 01-1.09-1.753 6.612 6.612 0 01-.398-2.313 6.47 6.47 0 01.398-2.26 5.265 5.265 0 011.124-1.753 5.329 5.329 0 011.731-1.21 5.46 5.46 0 012.232-.438c.826-.02 1.645.16 2.388.526.682.34 1.275.839 1.73 1.455.442.615.76 1.311.935 2.05.2.79.271 1.606.208 2.419h-7.735a2.985 2.985 0 00.692 1.963zm3.322-5.714a2.01 2.01 0 00-1.609-.596 2.48 2.48 0 00-1.16.246c-.29.145-.549.347-.76.596-.171.226-.3.48-.381.753a2.481 2.481 0 00-.139.719h4.828a3.35 3.35 0 00-.779-1.718zm8.237-2.541v1.507c.334-.6.842-1.084 1.454-1.384a4.179 4.179 0 011.73-.42 5.132 5.132 0 011.956.315c.465.193.87.508 1.177.91.307.416.52.895.623 1.403.122.605.18 1.222.173 1.84v6.695h-2.942v-6.134a3.844 3.844 0 00-.415-2.015 1.721 1.721 0 00-1.489-.666 1.996 1.996 0 00-1.73.736 4.019 4.019 0 00-.554 2.383v5.696h-2.942v-10.866h2.96zm15.402 0v1.998h-2.094v5.363c-.04.351.045.706.242.999.29.212.649.306 1.004.263h.917v2.243l-.813.088h-.9a10.254 10.254 0 01-1.298-.088 3.243 3.243 0 01-1.073-.368 2.022 2.022 0 01-.744-.789 2.852 2.852 0 01-.277-1.314v-6.415h-1.73v-1.98h1.73v-3.26h2.942v3.26h2.094z"/><filter id="awards-g" width="102.2%" height="107.7%" x="-1.1%" y="-1.9%" filterUnits="objectBoundingBox"><feOffset dy="1" in="SourceAlpha" result="shadowOffsetOuter1"/><feColorMatrix in="shadowOffsetOuter1" values="0 0 0 0 1 0 0 0 0 0.8 0 0 0 0 0.0980392157 0 0 0 0.5 0"/></filter><filter id="awards-j" width="102%" height="106.9%" x="-1%" y="-1.7%" filterUnits="objectBoundingBox"><feOffset dy="1" in="SourceAlpha" result="shadowOffsetOuter1"/><feColorMatrix in="shadowOffsetOuter1" values="0 0 0 0 1 0 0 0 0 0.8 0 0 0 0 0.0980392157 0 0 0 0.5 0"/></filter><filter id="awards-l" width="100.8%" height="104.4%" x="-.4%" y="-1.1%" filterUnits="objectBoundingBox"><feOffset dy="1" in="SourceAlpha" result="shadowOffsetOuter1"/><feColorMatrix in="shadowOffsetOuter1" values="0 0 0 0 1 0 0 0 0 0.8 0 0 0 0 0.0980392157 0 0 0 0.5 0"/></filter><mask id="awards-i" width="117.92" height="119" x="0" y="0" fill="#fff"><use xlink:href="#awards-a"/></mask></defs><g fill="none" fill-rule="evenodd" transform="translate(0 1)"><g fill="#E8AA00" fill-rule="nonzero"><path d="M234 30l-8.229 4.326 1.572-9.163-6.658-6.489 9.201-1.337L234 9l4.114 8.337 9.201 1.337-6.658 6.489 1.572 9.163z"/><path d="M209 30l-8.229 4.326 1.572-9.163-6.658-6.489 9.201-1.337L209 9l4.114 8.337 9.201 1.337-6.658 6.489 1.572 9.163z"/><path d="M184 30l-8.229 4.326 1.572-9.163-6.658-6.489 9.201-1.337L184 9l4.114 8.337 9.201 1.337-6.658 6.489 1.572 9.163zm50 27l-8.229 4.326 1.572-9.163-6.658-6.489 9.201-1.337L234 36l4.114 8.337 9.201 1.337-6.658 6.489 1.572 9.163z"/><path d="M209 57l-8.229 4.326 1.572-9.163-6.658-6.489 9.201-1.337L209 36l4.114 8.337 9.201 1.337-6.658 6.489 1.572 9.163z"/><path d="M184 57l-8.229 4.326 1.572-9.163-6.658-6.489 9.201-1.337L184 36l4.114 8.337 9.201 1.337-6.658 6.489 1.572 9.163zm50 28l-8.229 4.326 1.572-9.163-6.658-6.489 9.201-1.337L234 64l4.114 8.337 9.201 1.337-6.658 6.489 1.572 9.163z"/><path d="M209 85l-8.229 4.326 1.572-9.163-6.658-6.489 9.201-1.337L209 64l4.114 8.337 9.201 1.337-6.658 6.489 1.572 9.163z"/><path d="M184 85l-8.229 4.326 1.572-9.163-6.658-6.489 9.201-1.337L184 64l4.114 8.337 9.201 1.337-6.658 6.489 1.572 9.163zm50 168l-8.229 4.326 1.572-9.163-6.658-6.489 9.201-1.337L234 232l4.114 8.337 9.201 1.337-6.658 6.489 1.572 9.163z"/><path d="M209 253l-8.229 4.326 1.572-9.163-6.658-6.489 9.201-1.337L209 232l4.114 8.337 9.201 1.337-6.658 6.489 1.572 9.163z"/><path d="M184 253l-8.229 4.326 1.572-9.163-6.658-6.489 9.201-1.337L184 232l4.114 8.337 9.201 1.337-6.658 6.489 1.572 9.163zm50 28l-8.229 4.326 1.572-9.163-6.658-6.489 9.201-1.337L234 260l4.114 8.337 9.201 1.337-6.658 6.489 1.572 9.163z"/><path d="M209 281l-8.229 4.326 1.572-9.163-6.658-6.489 9.201-1.337L209 260l4.114 8.337 9.201 1.337-6.658 6.489 1.572 9.163z"/><path d="M184 281l-8.229 4.326 1.572-9.163-6.658-6.489 9.201-1.337L184 260l4.114 8.337 9.201 1.337-6.658 6.489 1.572 9.163zm25 28l-8.229 4.326 1.572-9.163-6.658-6.489 9.201-1.337L209 288l4.114 8.337 9.201 1.337-6.658 6.489 1.572 9.163z"/><path d="M184 309l-8.229 4.326 1.572-9.163-6.658-6.489 9.201-1.337L184 288l4.114 8.337 9.201 1.337-6.658 6.489 1.572 9.163z"/></g><g opacity=".315" transform="translate(0 199)"><rect width="194" height="55" fill="#D99900" fill-rule="nonzero" rx="3"/><path fill="url(#awards-b)" d="M115.5 54h54v23h-54z"/><path fill="url(#awards-c)" d="M111.5 54h4v23h-4a2 2 0 01-2-2V56a2 2 0 012-2zm58 0h4a2 2 0 012 2v19a2 2 0 01-2 2h-4V54z"/><path fill="url(#awards-d)" d="M148 29h23v23h-23z"/><path fill="url(#awards-b)" d="M82 29h12v23H82zm42 0h12v23h-12zm-24 0h6v23h-6zm12 0h6v23h-6zM9 29h20v23H9zm38 0h20v23H47zm-12 0h6v23h-6z"/><path fill="url(#awards-c)" d="M5 29h4v23H5a2 2 0 01-2-2V31a2 2 0 012-2z"/><path fill="url(#awards-e)" d="M94 29h6v23h-6zm12 0h6v23h-6zm12 0h6v23h-6zm24 0h3v23h-3zM29 29h6v23h-6zm12 0h6v23h-6z"/><path fill="url(#awards-c)" d="M67 29h6v23h-6z"/><path fill="url(#awards-e)" d="M73 29h3v23h-3z"/><path fill="url(#awards-c)" d="M76 29h6v23h-6zm60 0h6v23h-6zm9 0h3v23h-3z"/><path fill="url(#awards-d)" d="M5 3h21v23H5a2 2 0 01-2-2V5a2 2 0 012-2zm38 0h23v23H43z"/><path fill="url(#awards-b)" d="M29 3h11v23H29z"/><path fill="url(#awards-c)" d="M26 3h3v23h-3zm14 0h3v23h-3z"/><path fill="url(#awards-f)" d="M66 3h3v23h-3z"/><path fill="url(#awards-b)" d="M102 3h30v23h-30zm33 0h30v23h-30zM69 3h30v23H69z"/><path fill="url(#awards-c)" d="M99 3h3v23h-3z"/><path fill="url(#awards-f)" d="M132 3h3v23h-3z"/><path stroke="#D99900" d="M3 4.75l156-.5-156 .5zm0 2l156-.5-156 .5zm0 2l156-.5-156 .5zm0 2l156-.5-156 .5zm0 2l156-.5-156 .5zm0 2l156-.5-156 .5zm0 2l156-.5-156 .5zm0 2l156-.5-156 .5zm0 2l156-.5-156 .5zm0 2l156-.5-156 .5zm0 2l156-.5-156 .5zm0 6l156-.5-156 .5zm0 2l156-.5-156 .5zm0 2l156-.5-156 .5zm0 2l156-.5-156 .5zm0 2l156-.5-156 .5zm0 2l156-.5-156 .5zm0 2l156-.5-156 .5zm0 2l156-.5-156 .5zm0 2l156-.5-156 .5zm0 2l156-.5-156 .5zm0 2l156-.5-156 .5z" opacity=".16" style="mix-blend-mode:multiply"/></g><g transform="rotate(-27 548.018 24.797)"><circle cx="59.5" cy="59.5" r="59.5" fill="#F2B405" stroke="#E7AC12" stroke-width="2"/><path fill="#FFCC19" d="M59.7 113.72A79.68 79.68 0 0089.4 108a54.94 54.94 0 01-59.4 0 79.68 79.68 0 0029.7 5.72z" opacity=".18"/><path fill="#E5A600" d="M59.7 3a79.68 79.68 0 0129.7 5.72 54.94 54.94 0 00-59.4 0A79.68 79.68 0 0159.7 3z" opacity=".5"/><use fill="#000" filter="url(#awards-g)" xlink:href="#awards-h"/><use fill="#E5A600" xlink:href="#awards-h"/><path fill="#E5A600" d="M82 23v8c0 12.15-9.85 22-22 22s-22-9.85-22-22v-8H28v47h10V54.23c12.34 11.683 31.66 11.683 44 0V70h10V23H82z"/><path fill="#FAB905" d="M82 22v8c0 12.15-9.85 22-22 22s-22-9.85-22-22v-8H28v47h10V53.23c12.34 11.683 31.66 11.683 44 0V69h10V22H82z"/></g><use stroke="#FFF" stroke-dasharray="2" stroke-opacity=".4" stroke-width="2" mask="url(#awards-i)" xlink:href="#awards-a"/><circle cx="67.5" cy="128.5" r="59.5" fill="#FAB905"/><g transform="translate(67)"><circle cx="59.5" cy="59.5" r="59.5" fill="#F2B405" stroke="#E7AC12" stroke-width="2"/><path fill="#FFCC19" d="M59.7 113.72A79.68 79.68 0 0089.4 108a54.94 54.94 0 01-59.4 0 79.68 79.68 0 0029.7 5.72z" opacity=".18"/><path fill="#E5A600" d="M59.7 3a79.68 79.68 0 0129.7 5.72 54.94 54.94 0 00-59.4 0A79.68 79.68 0 0159.7 3z" opacity=".5"/><use fill="#000" filter="url(#awards-j)" xlink:href="#awards-k"/><use fill="#E5A600" xlink:href="#awards-k"/><path fill="#E5A600" d="M81.86 18H38.14L26 35.18 50.29 72h19.42L94 35.18 81.86 18zM75 45.36A15.6 15.6 0 0159.43 61H48V24h11.43A15.6 15.6 0 0175 39.64v5.72z"/><path fill="#FAB905" d="M81.86 17H38.14L26 34.18 50.29 71h19.42L94 34.18 81.86 17zM75 44.36A15.6 15.6 0 0159.43 60H48V23h11.43A15.6 15.6 0 0175 38.64v5.72z"/></g><circle cx="170.5" cy="165.5" r="96.5" fill="#FFF" fill-opacity=".08"/><circle cx="68" cy="129" r="23" fill="#FFF" fill-opacity=".12"/><g transform="rotate(15 -130.647 504.374)"><path fill="#F2B405" stroke="#E7AC12" stroke-width="2.4" d="M0 60.3v76.795c0 7.82 4.158 15.048 10.91 18.965l66.36 38.397a21.72 21.72 0 0021.821 0l66.36-38.397a21.922 21.922 0 0010.911-18.965V60.301c0-7.82-4.158-15.048-10.91-18.965L99.092 2.94a21.72 21.72 0 00-21.821 0L10.91 41.336A21.922 21.922 0 000 60.301z"/><path fill="#E5A600" d="M83.005 103.238c0-12.132-6.722-13.848-12.756-13.848-4.852.117-9.689.576-14.475 1.372a103 103 0 01-14.304 1.373c-15.85 0-22.572-10.416-22.572-24.951v-3.432h10.315v2.831c.172 9.867 5.519 13.385 14.819 13.385 4.105-.15 8.198-.54 12.257-1.167a80.439 80.439 0 0113.1-1.338c11.037-.172 16.538 4.685 18.618 12.012h.344c1.891-7.344 7.753-12.2 18.79-12.012a82.66 82.66 0 0113.272 1.338c4.11.635 8.255 1.024 12.412 1.167 9.661 0 14.836-4.015 15.008-13.385V63.77h8.595v3.586c0 14.003-6.206 24.78-23.62 24.78a79.301 79.301 0 01-14.132-1.544 134.98 134.98 0 00-13.959-1.201c-5.501 0-12.91 1.716-12.91 13.848h-8.802zm4.658-56.63c-6.646 0-12.034 5.378-12.034 12.013 0 6.634 5.388 12.012 12.034 12.012 6.646 0 12.034-5.378 12.034-12.012 0-6.635-5.388-12.013-12.034-12.013z"/><path fill="#F7B705" d="M83.522 101.934c0-12.133-6.722-13.849-12.756-13.849-4.851.118-9.688.577-14.475 1.373-4.73.79-9.509 1.249-14.303 1.373-15.85 0-22.572-10.416-22.572-24.951v-3.433h10.315v2.832c.172 9.867 5.518 13.385 14.819 13.385 4.105-.15 8.197-.54 12.257-1.167a80.439 80.439 0 0113.1-1.338c11.036-.172 16.538 4.685 18.618 12.012h.344c1.89-7.345 7.753-12.201 18.79-12.012a82.66 82.66 0 0113.271 1.338c4.11.635 8.256 1.024 12.412 1.167 9.662 0 14.836-4.015 15.008-13.385v-2.814h8.596v3.586c0 14.003-6.206 24.78-23.62 24.78a79.302 79.302 0 01-14.132-1.544 134.98 134.98 0 00-13.96-1.202c-5.5 0-12.91 1.716-12.91 13.849h-8.802zm4.659-56.63c-6.646 0-12.034 5.378-12.034 12.012 0 6.635 5.388 12.013 12.034 12.013 6.646 0 12.034-5.378 12.034-12.013 0-6.634-5.388-12.012-12.034-12.012z"/><use fill="#000" filter="url(#awards-l)" xlink:href="#awards-m"/><use fill="#E5A600" xlink:href="#awards-m"/></g></g></svg>