<svg width="32" height="32" viewBox="0 0 32 32" fill="none" xmlns="http://www.w3.org/2000/svg"><g clip-path="url(#clip0_2467_8485)"><path fill="#FCFCFD" d="M0 0h32v32H0z"/><path fill="#534F63" d="M-8-12h48v48H-8z"/><path fill="#FCFCFD" d="M-6-10h44v44H-6z"/><path fill-rule="evenodd" clip-rule="evenodd" d="M2 30h28v2H2v-2zm14-4c-3.054 0-5.782-2.334-7.616-6h2.214c.424.734.902 1.354 1.402 1.906V0l2-2v25.456c.642.318 1.304.544 2 .544s1.358-.226 2-.544V-2l2 2v21.906c.5-.552.978-1.172 1.402-1.906h2.214c-1.834 3.666-4.562 6-7.616 6z" fill="#534F63"/><path fill-rule="evenodd" clip-rule="evenodd" d="M2.164 1.169C-.954.15-3.156-.043-7.462 1.11c-.06-.026-.489-1.908-.52-1.94 5.796-1.553 7.974-.986 10.405-.55 2.178.39 4.56.675 9.929-.764l1.037 3.87c-2.436.653-8.107.46-11.225-.558zm27.061 0C32.343.15 34.545-.043 38.85 1.11c.06-.026.489-1.908.52-1.94-5.796-1.553-7.974-.986-10.405-.55-2.178.39-4.56.675-9.929-.764L18 1.727c2.436.653 8.107.46 11.225-.558z" fill="#534F63"/><path fill-rule="evenodd" clip-rule="evenodd" d="M29 6a3.001 3.001 0 010-6 3.001 3.001 0 010 6zM3 6a3.001 3.001 0 010-6 3.001 3.001 0 010 6z" fill="#534F63"/><path fill-rule="evenodd" clip-rule="evenodd" d="M30 16c-5.522 0-10-4.478-10-10S24.478-4 30-4 40 .478 40 6s-4.478 10-10 10zm0-18a8 8 0 100 16 8 8 0 000-16zM2 16C-3.522 16-8 11.522-8 6S-3.522-4 2-4 12 .478 12 6 7.522 16 2 16zM2-2a8 8 0 100 16A8 8 0 002-2z" fill="#534F63"/></g><defs><clipPath id="clip0_2467_8485"><path fill="#fff" d="M0 0h32v32H0z"/></clipPath></defs></svg>