<svg xmlns="http://www.w3.org/2000/svg" xmlns:xlink="http://www.w3.org/1999/xlink"><symbol fill="none" viewBox="0 0 20 20" id="icon-arrow-up" xmlns="http://www.w3.org/2000/svg"><path d="M10 4.167v11.666m0-11.666 5 5m-5-5-5 5" stroke="var(--icon-stroke)" stroke-width="var(--icon-stroke-width)" stroke-linecap="round" stroke-linejoin="round"/></symbol><symbol fill="none" viewBox="0 0 20 20" id="icon-article" xmlns="http://www.w3.org/2000/svg"><rect x="5" y="3" width="10" height="14" rx="1" stroke="var(--icon-stroke)" stroke-width="var(--icon-stroke-width)" stroke-linejoin="round"/><path d="M8 7h4M8 10h4M8 13h2" stroke="var(--icon-stroke)" stroke-width="var(--icon-stroke-width)" stroke-linecap="round"/></symbol><symbol fill="none" viewBox="0 0 20 20" id="icon-brush" xmlns="http://www.w3.org/2000/svg"><path d="M5.707 7.243 4.293 8.657a2 2 0 0 0 0 2.828l.707.707-1.414 1.415a2 2 0 1 0 2.828 2.828l1.414-1.414.708.707a2 2 0 0 0 2.828 0l1.414-1.414m-7.07-7.071L9.95 3l2.828 2.828m-7.07 1.415 7.07 7.07m0 0 4.243-4.242-4.243-4.243m0 0L10.657 7.95" stroke="var(--icon-stroke)" stroke-width="var(--icon-stroke-width)" stroke-linejoin="round"/></symbol><symbol fill="none" viewBox="0 0 20 20" id="icon-chevron-left" xmlns="http://www.w3.org/2000/svg"><path d="m12 14-4-4 4-4" stroke="var(--icon-stroke)" stroke-width="var(--icon-stroke-width)" stroke-linecap="round" stroke-linejoin="round"/></symbol><symbol fill="none" viewBox="0 0 20 20" id="icon-chevron-right" xmlns="http://www.w3.org/2000/svg"><path d="m8 14 4-4-4-4" stroke="var(--icon-stroke)" stroke-width="var(--icon-stroke-width)" stroke-linecap="round" stroke-linejoin="round"/></symbol><symbol fill="none" viewBox="0 0 20 20" id="icon-ex-twitter" xmlns="http://www.w3.org/2000/svg"><path d="m3.833 3.333 9.778 13.334h3.556L7.389 3.333H3.833ZM3.833 16.667l5.64-5.64m2.05-2.05 5.644-5.644" stroke="var(--icon-stroke)" stroke-width="var(--icon-stroke-width)" stroke-linecap="round" stroke-linejoin="round"/></symbol><symbol fill="none" viewBox="0 0 20 20" id="icon-facebook" xmlns="http://www.w3.org/2000/svg"><path d="M11 17v-7m3-4h-1a2 2 0 0 0-2 2v2m0 0H9.5m1.5 0h2.5" stroke="var(--icon-stroke)" stroke-width="var(--icon-stroke-width)" stroke-linecap="round"/><rect x="3" y="3" width="14" height="14" rx="1" stroke="var(--icon-stroke)" stroke-width="var(--icon-stroke-width)" stroke-linejoin="round"/></symbol><symbol fill="none" viewBox="0 0 20 20" id="icon-flag-ru" xmlns="http://www.w3.org/2000/svg"><path fill="#FCFCFD" d="M2.5 5h15v11h-15z"/><path fill="#F13B10" d="M2.5 12h15v4h-15z"/><path fill="#007AC4" d="M2.5 9h15v3h-15z"/><path fill-rule="evenodd" clip-rule="evenodd" d="M2.5 5h15v11h-15V5Zm1 1h13v9h-13V6Z" fill="#000" fill-opacity=".12"/></symbol><symbol fill="none" viewBox="0 0 20 20" id="icon-flag-us" xmlns="http://www.w3.org/2000/svg"><path fill="#FCFCFD" d="M2 5h15v11H2z"/><path fill-rule="evenodd" clip-rule="evenodd" d="M10 5h7v1h-7V5Zm0 2h7v1h-7V7Zm0 2h7v1h-7V9Zm0 2h7v1h-7v-1Zm-8 2h15v1H2v-1Zm0 2h15v1H2v-1Z" fill="#CD1D28"/><path fill="#0E2E64" d="M2 5h8v7H2z"/><path fill-rule="evenodd" clip-rule="evenodd" d="M3 5h1v1H3V5Zm2 0h1v1H5V5Zm2 0h1v1H7V5Zm2 0h1v1H9V5ZM4 6h1v1H4V6ZM2 6h1v1H2V6Zm4 0h1v1H6V6Zm2 0h1v1H8V6ZM5 7h1v1H5V7ZM3 7h1v1H3V7Zm4 0h1v1H7V7Zm2 0h1v1H9V7ZM4 8h1v1H4V8ZM2 8h1v1H2V8Zm4 0h1v1H6V8Zm2 0h1v1H8V8ZM5 9h1v1H5V9ZM3 9h1v1H3V9Zm4 0h1v1H7V9Zm2 0h1v1H9V9Zm-5 1h1v1H4v-1Zm-2 0h1v1H2v-1Zm4 0h1v1H6v-1Zm2 0h1v1H8v-1Zm-3 1h1v1H5v-1Zm-2 0h1v1H3v-1Zm4 0h1v1H7v-1Zm2 0h1v1H9v-1Z" fill="#8799B7"/><path fill-rule="evenodd" clip-rule="evenodd" d="M2 5h15v11H2V5Zm1 1h13v9H3V6Z" fill="#000" fill-opacity=".12"/></symbol><symbol fill="none" viewBox="0 0 20 20" id="icon-hamburger" xmlns="http://www.w3.org/2000/svg"><path stroke="var(--icon-stroke)" stroke-width="var(--icon-stroke-width)" stroke-linecap="round" d="M15 5H5M15 10H5M15 15H5"/></symbol><symbol fill="none" viewBox="0 0 20 20" id="icon-link" xmlns="http://www.w3.org/2000/svg"><path d="M8.258 11.742a3.049 3.049 0 0 0 4.355 0l3.485-3.484a3.08 3.08 0 1 0-4.356-4.356l-.435.436m.435 3.92a3.05 3.05 0 0 0-4.355 0l-3.485 3.484a3.08 3.08 0 1 0 4.356 4.356l.435-.436" stroke="var(--icon-stroke)" stroke-width="var(--icon-stroke-width)" stroke-linecap="round" stroke-linejoin="round"/></symbol><symbol fill="none" viewBox="0 0 20 20" id="icon-mail" xmlns="http://www.w3.org/2000/svg"><path d="m4 5 6 5 6-5" stroke="var(--icon-stroke)" stroke-width="var(--icon-stroke-width)" stroke-linecap="round" stroke-linejoin="round"/><rect x="3" y="4" width="14" height="12" rx="1" stroke="var(--icon-stroke)" stroke-width="var(--icon-stroke-width)"/></symbol><symbol fill="none" viewBox="0 0 36 36" id="icon-md-alert" xmlns="http://www.w3.org/2000/svg"><path d="M6.346 31H29.69a3.309 3.309 0 0 0 1.558-.403c.479-.26.887-.635 1.19-1.092a3.39 3.39 0 0 0 .32-3.136L20.919 5.738a3.353 3.353 0 0 0-1.224-1.271 3.31 3.31 0 0 0-3.388 0 3.353 3.353 0 0 0-1.224 1.27L3.245 26.37a3.4 3.4 0 0 0 .276 3.076 3.35 3.35 0 0 0 1.134 1.101c.46.27.977.426 1.508.454" fill="#D9D67D"/><path d="M6.346 31H29.69a3.309 3.309 0 0 0 1.558-.403c.479-.26.887-.635 1.19-1.092a3.39 3.39 0 0 0 .32-3.136L20.919 5.738a3.353 3.353 0 0 0-1.224-1.271 3.31 3.31 0 0 0-3.388 0 3.353 3.353 0 0 0-1.224 1.27L3.245 26.37a3.4 3.4 0 0 0 .276 3.076 3.35 3.35 0 0 0 1.134 1.101c.46.27.977.426 1.508.454M18 11.5v7m0 6v.015" stroke="#777422" stroke-width="var(--icon-stroke-width)" stroke-linecap="round" stroke-linejoin="round"/></symbol><symbol fill="none" viewBox="0 0 20 20" id="icon-message" xmlns="http://www.w3.org/2000/svg"><path d="M3 5a2 2 0 0 1 2-2h10a2 2 0 0 1 2 2v8a2 2 0 0 1-2 2h-2.5L10 17l-2.5-2H5a2 2 0 0 1-2-2V5Z" stroke="var(--icon-stroke)" stroke-width="var(--icon-stroke-width)" stroke-linejoin="round"/><path stroke="var(--icon-stroke)" stroke-width="var(--icon-stroke-width)" stroke-linecap="round" d="M13 7H7M11 11H7"/></symbol><symbol fill="none" viewBox="0 0 20 20" id="icon-modal" xmlns="http://www.w3.org/2000/svg"><path d="M10 17a7 7 0 1 0 0-14 7 7 0 0 0 0 14ZM11.5 8.5 8 12" stroke="var(--icon-stroke)" stroke-width="var(--icon-stroke-width)" stroke-linecap="round" stroke-linejoin="round"/><path d="M12 12V8H8" stroke="var(--icon-stroke)" stroke-width="var(--icon-stroke-width)" stroke-linecap="round" stroke-linejoin="round"/></symbol><symbol fill="none" viewBox="0 0 20 20" id="icon-portfolio" xmlns="http://www.w3.org/2000/svg"><path d="M3 8.538c0-.408.164-.799.456-1.087.291-.289.687-.451 1.1-.451h10.888c.413 0 .809.162 1.1.45.292.29.456.68.456 1.088v6.923c0 .409-.164.8-.456 1.088-.291.289-.687.451-1.1.451H4.556c-.413 0-.809-.162-1.1-.45A1.53 1.53 0 0 1 3 15.46V8.538ZM10 10.5v.008" stroke="var(--icon-stroke)" stroke-width="var(--icon-stroke-width)" stroke-linecap="round" stroke-linejoin="round"/><path d="M3 12a14.717 14.717 0 0 0 7 1.783c2.431 0 4.829-.61 7-1.783" stroke="var(--icon-stroke)" stroke-width="var(--icon-stroke-width)" stroke-linecap="round" stroke-linejoin="round"/><path d="M7 5a2 2 0 0 1 2-2h2a2 2 0 0 1 2 2v2H7V5Z" stroke="var(--icon-stroke)" stroke-width="var(--icon-stroke-width)"/></symbol><symbol fill="none" viewBox="0 0 20 20" id="icon-reply" xmlns="http://www.w3.org/2000/svg"><path d="M10.833 11.667 7.5 8.333m0 0L10.833 5M7.5 8.333h5.833a3.333 3.333 0 0 1 0 6.667H12.5m-5.833-3.333L3.333 8.333 6.667 5" stroke="var(--icon-stroke)" stroke-width="var(--icon-stroke-width)" stroke-linecap="round" stroke-linejoin="round"/></symbol><symbol fill="none" viewBox="0 0 20 20" id="icon-rss" xmlns="http://www.w3.org/2000/svg"><path d="M4 17a1 1 0 1 0 0-2 1 1 0 0 0 0 2ZM3 3a14 14 0 0 1 14 14M3 9.125A7.875 7.875 0 0 1 10.875 17" stroke="var(--icon-stroke)" stroke-width="var(--icon-stroke-width)" stroke-linecap="round" stroke-linejoin="round"/></symbol><symbol fill="none" viewBox="0 0 20 20" id="icon-scroll" xmlns="http://www.w3.org/2000/svg"><path d="M5 13V5a2 2 0 0 1 2-2h7m-2 14a2 2 0 0 0 2-2V7m-2 10a2 2 0 0 1-2-2v-2H3v2a2 2 0 0 0 2 2h7Zm2-14h1a2 2 0 0 1 2 2v2h-3m0-4v4" stroke="var(--icon-stroke)" stroke-width="var(--icon-stroke-width)" stroke-linejoin="round"/><path d="M8 7h3m-3 3h3" stroke="var(--icon-stroke)" stroke-width="var(--icon-stroke-width)" stroke-linecap="round"/></symbol><symbol fill="none" viewBox="0 0 20 20" id="icon-search" xmlns="http://www.w3.org/2000/svg"><path d="M8 13A5 5 0 1 0 8 3a5 5 0 0 0 0 10ZM17 17l-5-5" stroke="var(--icon-stroke)" stroke-width="var(--icon-stroke-width)" stroke-linecap="round" stroke-linejoin="round"/></symbol><symbol fill="none" viewBox="0 0 20 20" id="icon-share" xmlns="http://www.w3.org/2000/svg"><path d="M7.5 9H6.25C5.56 9 5 9.448 5 10v6c0 .552.56 1 1.25 1h7.5c.69 0 1.25-.448 1.25-1v-6c0-.552-.56-1-1.25-1H12.5" stroke="var(--icon-stroke)" stroke-width="var(--icon-stroke-width)"/><path d="M10 14V3m0 0L6.5 6.5M10 3l3.5 3.5" stroke="var(--icon-stroke)" stroke-width="var(--icon-stroke-width)" stroke-linejoin="round"/></symbol><symbol fill="none" viewBox="0 0 20 20" id="icon-super" xmlns="http://www.w3.org/2000/svg"><path d="M10.167 4.667a.833.833 0 1 1 0-1.667.833.833 0 0 1 0 1.667ZM12 8H8m4 0v9m0-9h1a2 2 0 0 1 2 2v3M8 8v9m0-9H7a2 2 0 0 1-2-2V4" stroke="var(--icon-stroke)" stroke-width="var(--icon-stroke-width)" stroke-linecap="round" stroke-linejoin="round"/><path d="M8 12h4" stroke="var(--icon-stroke)" stroke-width="var(--icon-stroke-width)" stroke-linejoin="round"/></symbol><symbol fill="none" viewBox="0 0 20 20" id="icon-tag" xmlns="http://www.w3.org/2000/svg"><path d="M13.167 7.667a.833.833 0 1 1 0-1.667.833.833 0 0 1 0 1.667Z" stroke="var(--icon-stroke)" stroke-width="var(--icon-stroke-width)" stroke-linecap="round" stroke-linejoin="round"/><path d="M17 5.47V8.65c0 .442-.175.866-.488 1.179l-6.684 6.684a1.667 1.667 0 0 1-2.359 0L3.49 12.53a1.668 1.668 0 0 1 0-2.359l6.684-6.684A1.668 1.668 0 0 1 11.351 3h3.178A2.47 2.47 0 0 1 17 5.47Z" stroke="var(--icon-stroke)" stroke-width="var(--icon-stroke-width)" stroke-linecap="round" stroke-linejoin="round"/></symbol><symbol fill="none" viewBox="0 0 20 20" id="icon-task" xmlns="http://www.w3.org/2000/svg"><path d="M12 3v3a1 1 0 0 0 1 1h3" stroke="var(--icon-stroke)" stroke-width="var(--icon-stroke-width)" stroke-linecap="round" stroke-linejoin="round"/><path d="M14.286 18H5.714a1.74 1.74 0 0 1-1.212-.488A1.643 1.643 0 0 1 4 16.333V4.667c0-.442.18-.866.502-1.179A1.74 1.74 0 0 1 5.714 3H12l4 4v9.333c0 .442-.18.866-.502 1.179a1.74 1.74 0 0 1-1.212.488Z" stroke="var(--icon-stroke)" stroke-width="var(--icon-stroke-width)" stroke-linecap="round" stroke-linejoin="round"/><path d="m7.5 12.5 1.667 1.667 3.333-3.334" stroke="var(--icon-stroke)" stroke-width="var(--icon-stroke-width)" stroke-linecap="round" stroke-linejoin="round"/></symbol><symbol fill="none" viewBox="0 0 20 20" id="icon-telegram" xmlns="http://www.w3.org/2000/svg"><path d="m12.333 8.667-3.11 3.11 4.666 4.667L17 4 3 9.444 6.111 11l1.556 4.667L10 12.556" stroke="var(--icon-stroke)" stroke-width="var(--icon-stroke-width)" stroke-linecap="round" stroke-linejoin="round"/></symbol><symbol fill="none" viewBox="0 0 20 20" id="icon-user" xmlns="http://www.w3.org/2000/svg"><path d="M10 17a7 7 0 1 0 0-14 7 7 0 0 0 0 14Z" stroke="var(--icon-stroke)" stroke-width="var(--icon-stroke-width)" stroke-linecap="round" stroke-linejoin="round"/><path d="M10 10.5a2 2 0 1 0 0-4 2 2 0 0 0 0 4Z" stroke="var(--icon-stroke)" stroke-width="var(--icon-stroke-width)" stroke-linecap="round" stroke-linejoin="round"/><path stroke="var(--icon-stroke)" stroke-width="var(--icon-stroke-width)" d="M4 14h12"/></symbol><symbol fill="none" viewBox="0 0 20 20" id="icon-vk" xmlns="http://www.w3.org/2000/svg"><path d="M8.333 5H10v10c-3.75-.833-6.667-5.417-7.5-10m14.167 0c-.834 1.667-2.5 4.167-4.167 5m0 0H10m2.5 0c1.667.833 3.333 3.333 4.167 5" stroke="var(--icon-stroke)" stroke-width="var(--icon-stroke-width)" stroke-linecap="round" stroke-linejoin="round"/></symbol></svg>