<svg width="309" height="192" viewBox="0 0 309 192" fill="none" xmlns="http://www.w3.org/2000/svg"><g id="bg-form-contact-digital-agency"><g id="Flor" clip-path="url(#clip0_547_9917)"><g id="Pattern" clip-path="url(#clip1_547_9917)"><g id="Item"><path id="Polygon" fill-rule="evenodd" clip-rule="evenodd" d="M39.366 17.986L30.58 9.199V-3.227l8.787-8.787h12.427l8.787 8.787V9.199l-8.787 8.787H39.366z" fill="#F18D00"/><circle id="Oval" cx="45.591" cy="3" r="10" fill="#FFA323"/></g><g id="Item_2"><path id="Polygon_2" fill-rule="evenodd" clip-rule="evenodd" d="M25.366 45.986l-8.787-8.787V24.773l8.787-8.787h12.427l8.787 8.787v12.426l-8.787 8.787H25.366z" fill="#F18D00"/><circle id="Oval_2" cx="31.591" cy="31" r="10" fill="#FFA323"/></g><g id="Item_3"><path id="Polygon_3" fill-rule="evenodd" clip-rule="evenodd" d="M12.366 75.986L3.58 67.199V54.773l8.787-8.787h12.427l8.787 8.787v12.426l-8.787 8.787H12.366z" fill="#F18D00"/><circle id="Oval_3" cx="18.591" cy="61" r="10" fill="#FFA323"/></g><g id="Item_4"><path id="Polygon_4" fill-rule="evenodd" clip-rule="evenodd" d="M8.366 106.986L-.42 98.199V85.773l8.787-8.787h12.427l8.787 8.787v12.426l-8.787 8.787H8.366z" fill="#F18D00"/><circle id="Oval_4" cx="14.591" cy="92" r="10" fill="#FFA323"/></g><g id="Item_5"><path id="Polygon_5" fill-rule="evenodd" clip-rule="evenodd" d="M10.366 137.986l-8.787-8.787v-12.426l8.787-8.787h12.427l8.787 8.787v12.426l-8.787 8.787H10.366z" fill="#F18D00"/><circle id="Oval_5" cx="16.591" cy="123" r="10" fill="#FFA323"/></g><g id="Item_6"><path id="Polygon_6" fill-rule="evenodd" clip-rule="evenodd" d="M21.366 168.986l-8.787-8.787v-12.426l8.787-8.787h12.427l8.787 8.787v12.426l-8.787 8.787H21.366z" fill="#F18D00"/><circle id="Oval_6" cx="27.591" cy="154" r="10" fill="#FFA323"/></g><g id="Item_7"><path id="Polygon_7" fill-rule="evenodd" clip-rule="evenodd" d="M37.366 196.986l-8.787-8.787v-12.426l8.787-8.787h12.427l8.787 8.787v12.426l-8.787 8.787H37.366z" fill="#F18D00"/><circle id="Oval_7" cx="43.591" cy="182" r="10" fill="#FFA323"/></g><g id="Item_8"><path id="Polygon_8" fill-rule="evenodd" clip-rule="evenodd" d="M70.366 17.986L61.58 9.199V-3.227l8.787-8.787h12.427l8.787 8.787V9.199l-8.787 8.787H70.366z" fill="#F18D00"/><circle id="Oval_8" cx="76.591" cy="3" r="10" fill="#FFA323"/></g><g id="Item_9"><path id="Polygon_9" fill-rule="evenodd" clip-rule="evenodd" d="M56.366 45.986l-8.787-8.787V24.773l8.787-8.787h12.427l8.787 8.787v12.426l-8.787 8.787H56.366z" fill="#F18D00"/><circle id="Oval_9" cx="62.591" cy="31" r="10" fill="#FFA323"/></g><g id="Item_10"><path id="Polygon_10" fill-rule="evenodd" clip-rule="evenodd" d="M43.366 75.986l-8.787-8.787V54.773l8.787-8.787h12.427l8.787 8.787v12.426l-8.787 8.787H43.366z" fill="#F18D00"/><circle id="Oval_10" cx="49.591" cy="61" r="10" fill="#FFA323"/></g><g id="Item_11"><path id="Polygon_11" fill-rule="evenodd" clip-rule="evenodd" d="M39.366 106.986l-8.787-8.787V85.773l8.787-8.787h12.427l8.787 8.787v12.426l-8.787 8.787H39.366z" fill="#F18D00"/><circle id="Oval_11" cx="45.591" cy="92" r="10" fill="#FFA323"/></g><g id="Item_12"><path id="Polygon_12" fill-rule="evenodd" clip-rule="evenodd" d="M41.366 137.986l-8.787-8.787v-12.426l8.787-8.787h12.427l8.787 8.787v12.426l-8.787 8.787H41.366z" fill="#F18D00"/><circle id="Oval_12" cx="47.591" cy="123" r="10" fill="#FFA323"/></g><g id="Item_13"><path id="Polygon_13" fill-rule="evenodd" clip-rule="evenodd" d="M52.366 168.986l-8.787-8.787v-12.426l8.787-8.787h12.427l8.787 8.787v12.426l-8.787 8.787H52.366z" fill="#F18D00"/><circle id="Oval_13" cx="58.591" cy="154" r="10" fill="#FFA323"/></g><g id="Item_14"><path id="Polygon_14" fill-rule="evenodd" clip-rule="evenodd" d="M68.366 196.986l-8.787-8.787v-12.426l8.787-8.787h12.427l8.787 8.787v12.426l-8.787 8.787H68.366z" fill="#F18D00"/><circle id="Oval_14" cx="74.591" cy="182" r="10" fill="#FFA323"/></g><g id="Item_15"><path id="Polygon_15" fill-rule="evenodd" clip-rule="evenodd" d="M101.366 17.986l-8.787-8.787V-3.227l8.787-8.787h12.427l8.787 8.787V9.199l-8.787 8.787h-12.427z" fill="#F18D00"/><circle id="Oval_15" cx="107.591" cy="3" r="10" fill="#FFA323"/></g><g id="Item_16"><path id="Polygon_16" fill-rule="evenodd" clip-rule="evenodd" d="M87.366 45.986l-8.787-8.787V24.773l8.787-8.787h12.427l8.787 8.787v12.426l-8.787 8.787H87.366z" fill="#F18D00"/><circle id="Oval_16" cx="93.591" cy="31" r="10" fill="#FFA323"/></g><g id="Item_17"><path id="Polygon_17" fill-rule="evenodd" clip-rule="evenodd" d="M74.366 75.986l-8.787-8.787V54.773l8.787-8.787h12.427l8.787 8.787v12.426l-8.787 8.787H74.366z" fill="#F18D00"/><circle id="Oval_17" cx="80.591" cy="61" r="10" fill="#FFA323"/></g><g id="Item_18"><path id="Polygon_18" fill-rule="evenodd" clip-rule="evenodd" d="M70.366 106.986l-8.787-8.787V85.773l8.787-8.787h12.427l8.787 8.787v12.426l-8.787 8.787H70.366z" fill="#F18D00"/><circle id="Oval_18" cx="76.591" cy="92" r="10" fill="#FFA323"/></g><g id="Item_19"><path id="Polygon_19" fill-rule="evenodd" clip-rule="evenodd" d="M72.366 137.986l-8.787-8.787v-12.426l8.787-8.787h12.427l8.787 8.787v12.426l-8.787 8.787H72.366z" fill="#F18D00"/><circle id="Oval_19" cx="78.591" cy="123" r="10" fill="#FFA323"/></g><g id="Item_20"><path id="Polygon_20" fill-rule="evenodd" clip-rule="evenodd" d="M83.366 168.986l-8.787-8.787v-12.426l8.787-8.787h12.427l8.787 8.787v12.426l-8.787 8.787H83.366z" fill="#F18D00"/><circle id="Oval_20" cx="89.591" cy="154" r="10" fill="#FFA323"/></g><g id="Item_21"><path id="Polygon_21" fill-rule="evenodd" clip-rule="evenodd" d="M99.366 196.986l-8.787-8.787v-12.426l8.787-8.787h12.427l8.787 8.787v12.426l-8.787 8.787H99.366z" fill="#F18D00"/><circle id="Oval_21" cx="105.591" cy="182" r="10" fill="#FFA323"/></g><g id="Item_22"><path id="Polygon_22" fill-rule="evenodd" clip-rule="evenodd" d="M132.366 17.986l-8.787-8.787V-3.227l8.787-8.787h12.427l8.787 8.787V9.199l-8.787 8.787h-12.427z" fill="#F18D00"/><circle id="Oval_22" cx="138.591" cy="3" r="10" fill="#FFA323"/></g><g id="Item_23"><path id="Polygon_23" fill-rule="evenodd" clip-rule="evenodd" d="M118.366 45.986l-8.787-8.787V24.773l8.787-8.787h12.427l8.787 8.787v12.426l-8.787 8.787h-12.427z" fill="#F18D00"/><circle id="Oval_23" cx="124.591" cy="31" r="10" fill="#FFA323"/></g><g id="Item_24"><path id="Polygon_24" fill-rule="evenodd" clip-rule="evenodd" d="M105.366 75.986l-8.787-8.787V54.773l8.787-8.787h12.427l8.787 8.787v12.426l-8.787 8.787h-12.427z" fill="#F18D00"/><circle id="Oval_24" cx="111.591" cy="61" r="10" fill="#FFA323"/></g><g id="Item_25"><path id="Polygon_25" fill-rule="evenodd" clip-rule="evenodd" d="M101.366 106.986l-8.787-8.787V85.773l8.787-8.787h12.427l8.787 8.787v12.426l-8.787 8.787h-12.427z" fill="#F18D00"/><circle id="Oval_25" cx="107.591" cy="92" r="10" fill="#FFA323"/></g><g id="Item_26"><path id="Polygon_26" fill-rule="evenodd" clip-rule="evenodd" d="M103.366 137.986l-8.787-8.787v-12.426l8.787-8.787h12.427l8.787 8.787v12.426l-8.787 8.787h-12.427z" fill="#F18D00"/><circle id="Oval_26" cx="109.591" cy="123" r="10" fill="#FFA323"/></g><g id="Item_27"><path id="Polygon_27" fill-rule="evenodd" clip-rule="evenodd" d="M114.366 168.986l-8.787-8.787v-12.426l8.787-8.787h12.427l8.787 8.787v12.426l-8.787 8.787h-12.427z" fill="#F18D00"/><circle id="Oval_27" cx="120.591" cy="154" r="10" fill="#FFA323"/></g><g id="Item_28"><path id="Polygon_28" fill-rule="evenodd" clip-rule="evenodd" d="M130.366 196.986l-8.787-8.787v-12.426l8.787-8.787h12.427l8.787 8.787v12.426l-8.787 8.787h-12.427z" fill="#F18D00"/><circle id="Oval_28" cx="136.591" cy="182" r="10" fill="#FFA323"/></g></g><ellipse id="shadow" cx="86.5" cy="96.5" rx="50.5" ry="85.5" fill="#E08300" fill-opacity=".5"/></g></g><defs><clipPath id="clip0_547_9917"><path fill="#fff" d="M0 0h154v192H0z"/></clipPath><clipPath id="clip1_547_9917"><path fill="#fff" transform="translate(-1.409 -13)" d="M0 0h155v210H0z"/></clipPath></defs></svg>