<svg xmlns="http://www.w3.org/2000/svg" width="309" height="192" viewBox="0 0 309 192"><g fill="none" fill-rule="evenodd"><g transform="translate(29.591 -13)"><path fill="#ECAD00" d="M9.775 30.986L.988 22.199V9.773L9.775.986h12.427l8.787 8.787v12.426l-8.787 8.787z"/><circle cx="16" cy="16" r="10" fill="#F4B807"/></g><g transform="translate(15.591 15)"><path fill="#ECAD00" d="M9.775 30.986L.988 22.199V9.773L9.775.986h12.427l8.787 8.787v12.426l-8.787 8.787z"/><circle cx="16" cy="16" r="10" fill="#F4B807"/></g><g transform="translate(2.591 45)"><path fill="#ECAD00" d="M9.775 30.986L.988 22.199V9.773L9.775.986h12.427l8.787 8.787v12.426l-8.787 8.787z"/><circle cx="16" cy="16" r="10" fill="#F4B807"/></g><g transform="translate(-1.409 76)"><path fill="#ECAD00" d="M9.775 30.986L.988 22.199V9.773L9.775.986h12.427l8.787 8.787v12.426l-8.787 8.787z"/><circle cx="16" cy="16" r="10" fill="#F4B807"/></g><g transform="translate(.591 107)"><path fill="#ECAD00" d="M9.775 30.986L.988 22.199V9.773L9.775.986h12.427l8.787 8.787v12.426l-8.787 8.787z"/><circle cx="16" cy="16" r="10" fill="#F4B807"/></g><g transform="translate(11.591 138)"><path fill="#ECAD00" d="M9.775 30.986L.988 22.199V9.773L9.775.986h12.427l8.787 8.787v12.426l-8.787 8.787z"/><circle cx="16" cy="16" r="10" fill="#F4B807"/></g><g transform="translate(27.591 166)"><path fill="#ECAD00" d="M9.775 30.986L.988 22.199V9.773L9.775.986h12.427l8.787 8.787v12.426l-8.787 8.787z"/><circle cx="16" cy="16" r="10" fill="#F4B807"/></g><g transform="translate(60.591 -13)"><path fill="#ECAD00" d="M9.775 30.986L.988 22.199V9.773L9.775.986h12.427l8.787 8.787v12.426l-8.787 8.787z"/><circle cx="16" cy="16" r="10" fill="#F4B807"/></g><g transform="translate(46.591 15)"><path fill="#ECAD00" d="M9.775 30.986L.988 22.199V9.773L9.775.986h12.427l8.787 8.787v12.426l-8.787 8.787z"/><circle cx="16" cy="16" r="10" fill="#F4B807"/></g><g transform="translate(33.591 45)"><path fill="#ECAD00" d="M9.775 30.986L.988 22.199V9.773L9.775.986h12.427l8.787 8.787v12.426l-8.787 8.787z"/><circle cx="16" cy="16" r="10" fill="#F4B807"/></g><g transform="translate(29.591 76)"><path fill="#ECAD00" d="M9.775 30.986L.988 22.199V9.773L9.775.986h12.427l8.787 8.787v12.426l-8.787 8.787z"/><circle cx="16" cy="16" r="10" fill="#F4B807"/></g><g transform="translate(31.591 107)"><path fill="#ECAD00" d="M9.775 30.986L.988 22.199V9.773L9.775.986h12.427l8.787 8.787v12.426l-8.787 8.787z"/><circle cx="16" cy="16" r="10" fill="#F4B807"/></g><g transform="translate(42.591 138)"><path fill="#ECAD00" d="M9.775 30.986L.988 22.199V9.773L9.775.986h12.427l8.787 8.787v12.426l-8.787 8.787z"/><circle cx="16" cy="16" r="10" fill="#F4B807"/></g><g transform="translate(58.591 166)"><path fill="#ECAD00" d="M9.775 30.986L.988 22.199V9.773L9.775.986h12.427l8.787 8.787v12.426l-8.787 8.787z"/><circle cx="16" cy="16" r="10" fill="#F4B807"/></g><g transform="translate(91.591 -13)"><path fill="#ECAD00" d="M9.775 30.986L.988 22.199V9.773L9.775.986h12.427l8.787 8.787v12.426l-8.787 8.787z"/><circle cx="16" cy="16" r="10" fill="#F4B807"/></g><g transform="translate(77.591 15)"><path fill="#ECAD00" d="M9.775 30.986L.988 22.199V9.773L9.775.986h12.427l8.787 8.787v12.426l-8.787 8.787z"/><circle cx="16" cy="16" r="10" fill="#F4B807"/></g><g transform="translate(64.591 45)"><path fill="#ECAD00" d="M9.775 30.986L.988 22.199V9.773L9.775.986h12.427l8.787 8.787v12.426l-8.787 8.787z"/><circle cx="16" cy="16" r="10" fill="#F4B807"/></g><g transform="translate(60.591 76)"><path fill="#ECAD00" d="M9.775 30.986L.988 22.199V9.773L9.775.986h12.427l8.787 8.787v12.426l-8.787 8.787z"/><circle cx="16" cy="16" r="10" fill="#F4B807"/></g><g transform="translate(62.591 107)"><path fill="#ECAD00" d="M9.775 30.986L.988 22.199V9.773L9.775.986h12.427l8.787 8.787v12.426l-8.787 8.787z"/><circle cx="16" cy="16" r="10" fill="#F4B807"/></g><g transform="translate(73.591 138)"><path fill="#ECAD00" d="M9.775 30.986L.988 22.199V9.773L9.775.986h12.427l8.787 8.787v12.426l-8.787 8.787z"/><circle cx="16" cy="16" r="10" fill="#F4B807"/></g><g transform="translate(89.591 166)"><path fill="#ECAD00" d="M9.775 30.986L.988 22.199V9.773L9.775.986h12.427l8.787 8.787v12.426l-8.787 8.787z"/><circle cx="16" cy="16" r="10" fill="#F4B807"/></g><g transform="translate(122.591 -13)"><path fill="#ECAD00" d="M9.775 30.986L.988 22.199V9.773L9.775.986h12.427l8.787 8.787v12.426l-8.787 8.787z"/><circle cx="16" cy="16" r="10" fill="#F4B807"/></g><g transform="translate(108.591 15)"><path fill="#ECAD00" d="M9.775 30.986L.988 22.199V9.773L9.775.986h12.427l8.787 8.787v12.426l-8.787 8.787z"/><circle cx="16" cy="16" r="10" fill="#F4B807"/></g><g transform="translate(95.591 45)"><path fill="#ECAD00" d="M9.775 30.986L.988 22.199V9.773L9.775.986h12.427l8.787 8.787v12.426l-8.787 8.787z"/><circle cx="16" cy="16" r="10" fill="#F4B807"/></g><g transform="translate(91.591 76)"><path fill="#ECAD00" d="M9.775 30.986L.988 22.199V9.773L9.775.986h12.427l8.787 8.787v12.426l-8.787 8.787z"/><circle cx="16" cy="16" r="10" fill="#F4B807"/></g><g transform="translate(93.591 107)"><path fill="#ECAD00" d="M9.775 30.986L.988 22.199V9.773L9.775.986h12.427l8.787 8.787v12.426l-8.787 8.787z"/><circle cx="16" cy="16" r="10" fill="#F4B807"/></g><g transform="translate(104.591 138)"><path fill="#ECAD00" d="M9.775 30.986L.988 22.199V9.773L9.775.986h12.427l8.787 8.787v12.426l-8.787 8.787z"/><circle cx="16" cy="16" r="10" fill="#F4B807"/></g><g transform="translate(120.591 166)"><path fill="#ECAD00" d="M9.775 30.986L.988 22.199V9.773L9.775.986h12.427l8.787 8.787v12.426l-8.787 8.787z"/><circle cx="16" cy="16" r="10" fill="#F4B807"/></g><ellipse cx="86.5" cy="96.5" fill="#CC8C00" fill-opacity=".32" fill-rule="nonzero" rx="50.5" ry="85.5"/></g></svg>