<svg xmlns="http://www.w3.org/2000/svg" width="16" height="16" viewBox="0 0 16 16">
  <g fill="none" fill-rule="evenodd">
    <path fill="#B5B8BC" d="M11.7,15.3 C11.3,15.7 10.6,16 10,16 L3,16 C2.5,16 2,15.6 2,15 L2,1 C2,0.4 2.5,0 3,0 L13,0 C13.5,0 14,0.4 14,1 L14,12 C14,12.5 13.7,13.3 13.3,13.7 L11.7,15.3 L11.7,15.3 Z"/>
    <polygon fill="#F1F4F8" points="3 15 3 1 13 1 13 12.6 10.6 15"/>
    <g transform="translate(10 12)">
      <polygon fill="#FFF" points="2.6 1 1 2.6 1 1"/>
      <polygon fill="#B5B8BC" points="3 0 0 0 0 3 1 3 1 1 3 1"/>
    </g>
    <polygon fill="#B5B8BC" fill-rule="nonzero" points="5 4 11 4 11 5 5 5"/>
    <polygon fill="#B5B8BC" fill-rule="nonzero" points="5 6 11 6 11 7 5 7"/>
    <polygon fill="#B5B8BC" fill-rule="nonzero" points="5 8 9 8 9 9 5 9"/>
  </g>
</svg>
