<?xml version="1.0" encoding="UTF-8" standalone="no"?>
<svg width="16px" height="16px" viewBox="0 0 16 16" version="1.1" xmlns="http://www.w3.org/2000/svg" xmlns:xlink="http://www.w3.org/1999/xlink">
    <!-- Generator: Sketch 3.8.1 (29687) - http://www.bohemiancoding.com/sketch -->
    <title>label-phone</title>
    <desc>Created with Sketch.</desc>
    <defs></defs>
    <g id="Export" stroke="none" stroke-width="1" fill="none" fill-rule="evenodd">
        <g id="Icon-(Sprite)" transform="translate(-90.000000, 0.000000)">
            <g id="Icons-/-Labels-/-Phone" transform="translate(93.000000, 0.000000)">
                <path d="M10,16 L1,16 C0.448,16 0,15.552 0,15 L0,1 C0,0.448 0.448,0 1,0 L10,0 C10.552,0 11,0.448 11,1 L11,15 C11,15.552 10.552,16 10,16 L10,16 Z" id="Shape" fill="#B5B8BC"></path>
                <polygon id="Path" fill="#E7EAEE" points="10 2 1 2 1 14 10 14"></polygon>
                <path d="M8,12 L3,12 L3,11 L8,11 L8,12 Z M3,3 L4,3 L4,4 L3,4 L3,3 Z M7,3 L8,3 L8,4 L7,4 L7,3 Z M5,3 L6,3 L6,4 L5,4 L5,3 Z M3,5 L4,5 L4,6 L3,6 L3,5 Z M7,5 L8,5 L8,6 L7,6 L7,5 Z M5,5 L6,5 L6,6 L5,6 L5,5 Z M3,7 L4,7 L4,8 L3,8 L3,7 Z M7,7 L8,7 L8,8 L7,8 L7,7 Z M5,7 L6,7 L6,8 L5,8 L5,7 Z M3,9 L4,9 L4,10 L3,10 L3,9 Z M7,9 L8,9 L8,10 L7,10 L7,9 Z M5,9 L6,9 L6,10 L5,10 L5,9 Z" id="Path" fill="#B5B8BC"></path>
            </g>
        </g>
    </g>
</svg>