<svg xmlns="http://www.w3.org/2000/svg" width="32" height="32" viewBox="0 0 32 32">
  <g fill="none" fill-rule="evenodd">
    <path fill="#FFCC19" d="M14.4361134,3.11051736 C15.2965142,1.62982755 16.7035697,1.62982755 17.5639706,3.11051736 L31.6321245,27.3290001 C32.4925254,28.8096899 31.7921991,30.0206541 30.0681959,30.0206541 L1.93108762,30.0206541 C0.211086321,30.0206541 -0.493241807,28.8096899 0.367159031,27.3290001 L14.4361134,3.11051736 Z"/>
    <path fill="#000" fill-opacity=".38" d="M16,22 C17.1045695,22 18,22.8954305 18,24 C18,25.1045695 17.1045695,26 16,26 C14.8954305,26 14,25.1045695 14,24 C14.002206,22.8969929 14.8969907,22.0039978 16,22.004 L16,22 Z M17.125,20 L14.875,20 L14.5,12 L17.5,12 L17.125,20 Z" opacity=".64"/>
    <path fill="#000" fill-opacity=".87" d="M16,21 C17.1045695,21 18,21.8954305 18,23 C18,24.1045695 17.1045695,25 16,25 C14.8954305,25 14,24.1045695 14,23 C14.002206,21.8969929 14.8969907,21.0039978 16,21.004 L16,21 Z M17.125,19 L14.875,19 L14.5,11 L17.5,11 L17.125,19 Z" opacity=".64"/>
  </g>
</svg>
