<?xml version="1.0" encoding="UTF-8" standalone="no"?>
<svg width="16px" height="16px" viewBox="0 0 16 16" version="1.1" xmlns="http://www.w3.org/2000/svg" xmlns:xlink="http://www.w3.org/1999/xlink">
    <!-- Generator: Sketch 3.8.1 (29687) - http://www.bohemiancoding.com/sketch -->
    <title>flag-us</title>
    <desc>Created with Sketch.</desc>
    <defs></defs>
    <g id="Export" stroke="none" stroke-width="1" fill="none" fill-rule="evenodd">
        <g id="Icon-(Sprite)" transform="translate(-390.000000, 0.000000)">
            <g id="Icons-/-Flags-/-US" transform="translate(390.000000, 3.000000)">
                <rect id="White" fill="#F1F4F8" x="0" y="0" width="15" height="11"></rect>
                <path d="M8,0 L15,0 L15,1 L8,1 L8,0 L8,0 Z M8,2 L15,2 L15,3 L8,3 L8,2 L8,2 Z M8,4 L15,4 L15,5 L8,5 L8,4 L8,4 Z M8,6 L15,6 L15,7 L8,7 L8,6 L8,6 Z M0,8 L15,8 L15,9 L0,9 L0,8 L0,8 Z M0,10 L15,10 L15,11 L0,11 L0,10 L0,10 Z" id="Red" fill="#CD1D28"></path>
                <rect id="Blue" fill="#0E2E64" x="0" y="0" width="8" height="7"></rect>
                <path d="M1,0 L2,0 L2,1 L1,1 L1,0 L1,0 Z M3,0 L4,0 L4,1 L3,1 L3,0 L3,0 Z M5,0 L6,0 L6,1 L5,1 L5,0 L5,0 Z M7,0 L8,0 L8,1 L7,1 L7,0 L7,0 Z M2,1 L3,1 L3,2 L2,2 L2,1 L2,1 Z M0,1 L1,1 L1,2 L0,2 L0,1 L0,1 L0,1 L0,1 Z M4,1 L5,1 L5,2 L4,2 L4,1 L4,1 L4,1 L4,1 Z M6,1 L7,1 L7,2 L6,2 L6,1 L6,1 L6,1 Z M3,2 L4,2 L4,3 L3,3 L3,2 L3,2 L3,2 Z M1,2 L2,2 L2,3 L1,3 L1,2 L1,2 L1,2 L1,2 Z M5,2 L6,2 L6,3 L5,3 L5,2 L5,2 L5,2 L5,2 Z M7,2 L8,2 L8,3 L7,3 L7,2 L7,2 Z M2,3 L3,3 L3,4 L2,4 L2,3 L2,3 Z M0,3 L1,3 L1,4 L0,4 L0,3 L0,3 L0,3 L0,3 Z M4,3 L5,3 L5,4 L4,4 L4,3 L4,3 L4,3 L4,3 Z M6,3 L7,3 L7,4 L6,4 L6,3 L6,3 L6,3 Z M3,4 L4,4 L4,5 L3,5 L3,4 L3,4 L3,4 Z M1,4 L2,4 L2,5 L1,5 L1,4 L1,4 L1,4 L1,4 Z M5,4 L6,4 L6,5 L5,5 L5,4 L5,4 L5,4 L5,4 Z M7,4 L8,4 L8,5 L7,5 L7,4 L7,4 Z M2,5 L3,5 L3,6 L2,6 L2,5 L2,5 Z M0,5 L1,5 L1,6 L0,6 L0,5 L0,5 L0,5 L0,5 Z M4,5 L5,5 L5,6 L4,6 L4,5 L4,5 L4,5 L4,5 Z M6,5 L7,5 L7,6 L6,6 L6,5 L6,5 L6,5 Z M3,6 L4,6 L4,7 L3,7 L3,6 L3,6 L3,6 Z M1,6 L2,6 L2,7 L1,7 L1,6 L1,6 L1,6 L1,6 Z M5,6 L6,6 L6,7 L5,7 L5,6 L5,6 L5,6 L5,6 Z M7,6 L8,6 L8,7 L7,7 L7,6 L7,6 L7,6 L7,6 Z" id="Stars" fill="#8799B7"></path>
                <path d="M0,0 L15,0 L15,11 L0,11 L0,0 L0,0 L0,0 Z M1,1 L14,1 L14,10 L1,10 L1,1 L1,1 L1,1 Z" id="Border" fill-opacity="0.12" fill="#000000"></path>
            </g>
        </g>
    </g>
</svg>