<?xml version="1.0" encoding="UTF-8" standalone="no"?>
<svg width="16px" height="16px" viewBox="0 0 16 16" version="1.1" xmlns="http://www.w3.org/2000/svg" xmlns:xlink="http://www.w3.org/1999/xlink">
    <!-- Generator: Sketch 3.8.1 (29687) - http://www.bohemiancoding.com/sketch -->
    <title>social-linkedin</title>
    <desc>Created with Sketch.</desc>
    <defs></defs>
    <g id="Export" stroke="none" stroke-width="1" fill="none" fill-rule="evenodd">
        <g id="Icon-(Sprite)" transform="translate(-180.000000, -40.000000)" fill="#FFFFFF">
            <g id="Icons-/-Social-/-Linkedin" transform="translate(180.000000, 40.000000)">
                <path d="M16,15 L16,7.99420208 C16,6.34331197 14.6527109,5 12.9907455,5 L12.0092545,5 C10.3496704,5 9,6.34054993 9,7.99420208 L9,15 L9,15 L9,9.99079514 C9,8.89130934 9.88772964,8 11,8 C12.1045695,8 13,8.89821238 13,9.99079514 L13,15 L16,15 L16,15 Z M1,5 L4,5 L4,15 L1,15 L1,5 L1,5 Z M6,5 L9,5 L9,15 L6,15 L6,5 L6,5 Z M2.5,4 C3.6045695,4 4.5,3.1045695 4.5,2 C4.5,0.8954305 3.6045695,0 2.5,0 C1.3954305,0 0.5,0.8954305 0.5,2 C0.5,3.1045695 1.3954305,4 2.5,4 L2.5,4 Z" id="in"></path>
            </g>
        </g>
    </g>
</svg>