<svg xmlns="http://www.w3.org/2000/svg" width="16" height="16" viewBox="0 0 16 16">
  <path d="M1.99972126,0.740001287 L2,3.258 L2.32439815,3.18680556 C2.8675,3.075 3.42333333,3 4,3 C8.971,3 13,7.03 13,12 C13,12.5766667 12.9256944,13.1325 12.8135417,13.6756019 L12.742,14 L15.2583955,14.0010605 C14.7954529,14.7413039 14.0992028,15.3169363 13.2686669,15.6288401 C12.7500262,15.8231044 12.207035,15.9426403 11.655955,15.9843431 L11.3244664,16 L4.71017631,16 C4.0457783,15.9874654 3.38834466,15.8619573 2.76597587,15.6288401 C2.23044673,15.427997 1.74489407,15.1131092 1.34290133,14.7059561 C0.939507989,14.300843 0.625424645,13.8155931 0.420909372,13.2815047 C0.188017525,12.6585338 0.0626306961,12.000464 0.0501082586,11.3354232 L0.0228075824,10.809839 C0.00741246429,10.4406151 0.00240905089,10.0745117 0.00078294154,9.35344828 L0,4.6846395 C0.0189339188,4.01843639 0.15110586,3.36032959 0.390844417,2.73855799 C0.668850449,1.98262989 1.1643219,1.33610421 1.80367309,0.873267383 L1.99972126,0.740001287 Z M4,10 C2.896,10 2,10.896 2,12 C2,13.105 2.896,14 4,14 C5.105,14 6,13.105 6,12 C6,10.896 5.105,10 4,10 Z M4,5 C3.41666667,5 2.85694444,5.08402778 2.31967593,5.22604167 L2,5.318 L2,8.573 L2.1994513,8.46093964 C2.73955556,8.17561728 3.34488889,8.001 4,8.001 C6.209,8.001 8,9.791 8,12 C8,12.6551111 7.82459259,13.2604444 7.53979698,13.8005487 L7.428,14 L10.683,14 L10.7748843,13.6803241 C10.9166667,13.1430556 11,12.5833333 11,12 C11,8.134 7.866,5 4,5 Z M11.2944015,0 C11.9599606,0.0189522379 12.6174313,0.151252059 13.2386019,0.391222571 C13.7721741,0.595935718 14.2569549,0.910322947 14.6616765,1.31410658 C15.068436,1.71648826 15.3830194,2.20251071 15.5836684,2.73855799 C15.8165603,3.36152894 15.9419471,4.01959867 15.9544695,4.6846395 L15.9845345,5.08045977 C16.017592,5.66879136 15.9878402,6.15967433 15.9847824,7.76257184 L15.9838679,11.3664666 L15.9838679,11.3664666 C15.6624081,5.1894234 10.6686339,0.247661412 4.46969755,0.00902542851 L4.68011135,0 L11.2944015,0 Z"/>
</svg>
