<?xml version="1.0" encoding="UTF-8" standalone="no"?>
<svg width="16px" height="16px" viewBox="0 0 16 16" version="1.1" xmlns="http://www.w3.org/2000/svg" xmlns:xlink="http://www.w3.org/1999/xlink">
    <!-- Generator: Sketch 3.8.1 (29687) - http://www.bohemiancoding.com/sketch -->
    <title>social-pocket</title>
    <desc>Created with Sketch.</desc>
    <defs></defs>
    <g id="Export" stroke="none" stroke-width="1" fill="none" fill-rule="evenodd">
        <g id="Icon-(Sprite)" transform="translate(-180.000000, -40.000000)" fill="#FFFFFF">
            <g id="Icons-/-Social-/-Pocket" transform="translate(180.000000, 41.000000)">
                <path d="M12.533,5.864 L8.77,9.4 C8.557,9.6 8.284,9.7 8.01,9.7 C7.737,9.7 7.463,9.6 7.25,9.4 L3.488,5.865 C3.051,5.455 3.038,4.775 3.456,4.345 C3.876,3.917 4.57,3.902 5.006,4.313 L8.012,7.136 L11.016,4.313 C11.454,3.903 12.148,3.917 12.566,4.345 C12.986,4.775 12.972,5.455 12.536,5.865 L12.533,5.864 Z M15.921,0.936 C15.714,0.376 15.166,0 14.558,0 L1.45,0 C0.854,1.11022302e-16 0.31,0.368 0.096,0.917 C0.032,1.08 0,1.25 0,1.422 L0,6.152 L0.055,7.092 C0.287,9.232 1.421,11.102 3.175,12.406 C3.205,12.43 3.238,12.453 3.269,12.476 L3.289,12.489 C4.229,13.162 5.281,13.619 6.417,13.842 C6.941,13.946 7.477,13.999 8.009,13.999 C8.501,13.999 8.995,13.954 9.481,13.866 C9.539,13.856 9.597,13.844 9.656,13.832 C9.672,13.829 9.689,13.822 9.706,13.814 C10.794,13.581 11.804,13.137 12.709,12.488 L12.729,12.473 C12.761,12.451 12.793,12.428 12.825,12.403 C14.578,11.1 15.712,9.23 15.945,7.091 L15.999,6.151 L15.999,1.421 C15.999,1.256 15.979,1.094 15.919,0.934 L15.921,0.936 Z" id="Pocket"></path>
            </g>
        </g>
    </g>
</svg>