<svg xmlns="http://www.w3.org/2000/svg" width="16" height="16" viewBox="0 0 16 16">
  <path fill-rule="evenodd" d="M8,0 C12.418278,0 16,3.581722 16,8 C16,12.418278 12.418278,16 8,16 C3.581722,16 0,12.418278 0,8 C0,3.581722 3.581722,0 8,0 Z M11.8151333,5.20233333 C11.8768222,4.50360741 11.2259778,4.68170782 11.0805841,4.72991193 L8.7168,5.711 L3.32946667,7.93066667 C2.38093333,8.3006 2.93586667,8.6474 2.93586667,8.6474 L3.87671725,8.95825229 C4.06058815,9.01702933 4.25377333,9.07744889 4.43873333,9.13293333 C4.97227179,9.29298462 5.31433097,9.19311479 5.44379114,9.13849759 L5.50233333,9.1098 L8.76246667,6.91326667 C9.91853333,6.12706667 9.64106667,6.77446667 9.3636,7.05193333 C8.76253333,7.65306667 7.76826667,8.60106667 6.93586667,9.36406667 C6.56593333,9.68773333 6.75086667,9.96526667 6.91273333,10.1039333 C7.51393333,10.6126 9.1556,11.6530667 9.24806667,11.7224 L9.34646944,11.7917806 C9.57215,11.9395167 10.0759556,12.2156556 10.4040667,12.1386 C10.6904182,12.0713515 10.7929857,11.7717284 10.8276327,11.6132995 L11.4220667,7.88433333 L11.7293954,5.87008529 C11.7750396,5.55889583 11.8064583,5.32370833 11.8151333,5.20233333 Z"/>
</svg>
