<?xml version="1.0" encoding="UTF-8" standalone="no"?>
<svg width="24px" height="16px" viewBox="0 0 24 16" version="1.1" xmlns="http://www.w3.org/2000/svg" xmlns:xlink="http://www.w3.org/1999/xlink">
    <!-- Generator: Sketch 3.8.1 (29687) - http://www.bohemiancoding.com/sketch -->
    <title>social-twitter</title>
    <desc>Created with Sketch.</desc>
    <defs></defs>
    <g id="Export" stroke="none" stroke-width="1" fill="none" fill-rule="evenodd">
        <g id="Icon-(Sprite)" transform="translate(-100.000000, -40.000000)" fill="#FFFFFF">
            <g id="Icons-/-Social-/-Twitter" transform="translate(103.000000, 40.000000)">
                <path d="M18.4574081,1.77526707 C17.7786789,2.07645841 17.0487723,2.28032888 16.2827899,2.37177695 C17.0647128,1.90279098 17.6645786,1.16113877 17.9473125,0.276861122 C17.2157279,0.710610213 16.4052799,1.0260641 15.5428156,1.19553666 C14.8523407,0.459757257 13.8682253,0 12.7783992,0 C10.6876783,0 8.99211365,1.69556463 8.99211365,3.78628559 C8.99211365,4.08328206 9.02567258,4.37188881 9.09027351,4.6495889 C5.94328542,4.49186196 3.1528609,2.98422731 1.28530678,0.692991778 C0.95894625,1.25174786 0.772694222,1.90279098 0.772694222,2.59662173 C0.772694222,3.9104536 1.44051681,5.06907545 2.45651323,5.74864366 C1.83651211,5.72850831 1.25258683,5.55819677 0.741652218,5.27462386 L0.741652218,5.32244533 C0.741652218,7.15727949 2.04709436,8.68756642 3.77873483,9.03574025 C3.461603,9.12215448 3.12685273,9.168298 2.78119582,9.168298 C2.53705465,9.168298 2.30046423,9.14480676 2.06890766,9.10034118 C2.55047821,10.6046199 3.94904637,11.6994798 5.60601823,11.7305218 C4.31064377,12.7456793 2.67716315,13.3514179 0.903574025,13.3514179 C0.597348845,13.3514179 0.296157503,13.3329605 0,13.2985626 C1.67542927,14.3724481 3.66631243,15 5.80485486,15 C12.7700095,15 16.5789474,9.22954304 16.5789474,4.22590749 C16.5789474,4.06146876 16.5755915,3.89786901 16.5680407,3.7359472 C17.308015,3.20152134 17.9498294,2.53453773 18.4574081,1.77526707 L18.4574081,1.77526707 Z" id="Shape"></path>
            </g>
        </g>
    </g>
</svg>