<svg width="20" height="20" viewBox="0 0 20 20" fill="none" xmlns="http://www.w3.org/2000/svg">
<path d="M5.70711 7.24264L4.29289 8.65685C3.51184 9.4379 3.51184 10.7042 4.29289 11.4853L5 12.1924L3.58579 13.6066C2.80474 14.3877 2.80474 15.654 3.58579 16.435C4.36683 17.2161 5.63316 17.2161 6.41421 16.435L7.82843 15.0208L8.53553 15.7279C9.31658 16.509 10.5829 16.509 11.364 15.7279L12.7782 14.3137M5.70711 7.24264L9.94975 3L12.7782 5.82843M5.70711 7.24264L12.7782 14.3137M12.7782 14.3137L17.0208 10.0711L12.7782 5.82843M12.7782 5.82843L10.6569 7.94975" stroke="var(--icon-stroke)" stroke-width="var(--icon-stroke-width)" stroke-linejoin="round"/>
</svg>
