<svg width="36" height="36" viewBox="0 0 36 36" fill="none" xmlns="http://www.w3.org/2000/svg">
<path d="M6.34635 31H29.6888C30.2328 30.9961 30.7677 30.8579 31.2467 30.5973C31.7257 30.3367 32.1343 29.9616 32.4368 29.5049C32.7394 29.0481 32.9267 28.5235 32.9825 27.9768C33.0382 27.4302 32.9607 26.878 32.7566 26.3686L20.9187 5.73764C20.6303 5.21116 20.2076 4.77233 19.6945 4.46675C19.1813 4.16117 18.5965 4 18.0009 4C17.4052 4 16.8204 4.16117 16.3073 4.46675C15.7942 4.77233 15.3715 5.21116 15.0831 5.73764L3.24514 26.3686C3.04496 26.8664 2.96559 27.4053 3.01363 27.9404C3.06168 28.4755 3.23576 28.9912 3.52133 29.4445C3.80691 29.8978 4.19569 30.2755 4.65523 30.5461C5.11477 30.8167 5.63173 30.9723 6.16294 31" fill="#D9D67D"/>
<path d="M6.34635 31H29.6888C30.2328 30.9961 30.7677 30.8579 31.2467 30.5973C31.7257 30.3367 32.1343 29.9616 32.4368 29.5049C32.7394 29.0481 32.9267 28.5235 32.9825 27.9768C33.0382 27.4302 32.9607 26.878 32.7566 26.3686L20.9187 5.73764C20.6303 5.21116 20.2076 4.77233 19.6945 4.46675C19.1813 4.16117 18.5965 4 18.0009 4C17.4052 4 16.8204 4.16117 16.3073 4.46675C15.7942 4.77233 15.3715 5.21116 15.0831 5.73764L3.24514 26.3686C3.04496 26.8664 2.96559 27.4053 3.01363 27.9404C3.06168 28.4755 3.23576 28.9912 3.52133 29.4445C3.80691 29.8978 4.19569 30.2755 4.65523 30.5461C5.11477 30.8167 5.63173 30.9723 6.16294 31" stroke="#777422" stroke-width="var(--icon-stroke-width)" stroke-linecap="round" stroke-linejoin="round"/>
<path d="M18 11.5V18.5M18 24.5V24.515" stroke="#777422" stroke-width="var(--icon-stroke-width)" stroke-linecap="round" stroke-linejoin="round"/>
</svg>
