<svg width="20" height="20" viewBox="0 0 20 20" fill="none" xmlns="http://www.w3.org/2000/svg">
<path d="M8.25774 11.7423C8.54162 12.032 8.88046 12.2622 9.25442 12.4193C9.62838 12.5765 10.0299 12.6574 10.4356 12.6574C10.8412 12.6574 11.2428 12.5765 11.6167 12.4193C11.9907 12.2622 12.3295 12.032 12.6134 11.7423L16.0979 8.25774C16.6755 7.68014 17 6.89676 17 6.07991C17 5.26307 16.6755 4.47968 16.0979 3.90209C15.5203 3.32449 14.7369 3 13.9201 3C13.1032 3 12.3199 3.32449 11.7423 3.90209L11.3067 4.33765M11.7423 8.25774C11.4584 7.968 11.1195 7.73782 10.7456 7.58069C10.3716 7.42355 9.97007 7.34261 9.56443 7.34261C9.1588 7.34261 8.75725 7.42355 8.38329 7.58069C8.00933 7.73782 7.67049 7.968 7.38661 8.25774L3.90209 11.7423C3.32449 12.3199 3 13.1032 3 13.9201C3 14.7369 3.32449 15.5203 3.90209 16.0979C4.47968 16.6755 5.26307 17 6.07991 17C6.89676 17 7.68014 16.6755 8.25774 16.0979L8.6933 15.6623" stroke="var(--icon-stroke)" stroke-width="var(--icon-stroke-width)" stroke-linecap="round" stroke-linejoin="round"/>
</svg>
