<svg xmlns="http://www.w3.org/2000/svg" width="144" height="65" viewBox="0 0 144 65"><g fill="none" fill-rule="evenodd"><path fill="#000" fill-rule="nonzero" d="M91.83 46v-.87h-6.71V31.85H84.1V46h7.73zm9.67.15c1.007 0 1.923-.172 2.75-.515a6.103 6.103 0 002.13-1.46c.593-.63 1.053-1.39 1.38-2.28.327-.89.49-1.882.49-2.975 0-1.087-.163-2.075-.49-2.965-.327-.89-.787-1.652-1.38-2.285a6.071 6.071 0 00-2.13-1.465c-.827-.343-1.743-.515-2.75-.515-.993 0-1.903.173-2.73.52a6.16 6.16 0 00-2.13 1.465c-.593.63-1.055 1.39-1.385 2.28-.33.89-.495 1.878-.495 2.965 0 1.093.165 2.085.495 2.975.33.89.792 1.65 1.385 2.28a6.103 6.103 0 002.13 1.46c.827.343 1.737.515 2.73.515zm0-.89c-.84 0-1.608-.143-2.305-.43a5.004 5.004 0 01-1.8-1.25c-.503-.547-.893-1.212-1.17-1.995-.277-.783-.415-1.672-.415-2.665 0-.987.138-1.873.415-2.66.277-.787.667-1.453 1.17-2a5.058 5.058 0 011.8-1.255c.697-.29 1.465-.435 2.305-.435.853 0 1.63.145 2.33.435.7.29 1.298.708 1.795 1.255.497.547.882 1.213 1.155 2 .273.787.41 1.673.41 2.66 0 .993-.137 1.882-.41 2.665-.273.783-.658 1.448-1.155 1.995a4.9 4.9 0 01-1.795 1.25c-.7.287-1.477.43-2.33.43zm18.19.9c.593 0 1.14-.035 1.64-.105.5-.07.967-.17 1.4-.3.433-.13.84-.292 1.22-.485s.747-.413 1.1-.66v-5.03h-3.91v.56c0 .06.025.113.075.16a.26.26 0 00.185.07h2.72v3.81c-.313.18-.625.342-.935.485a6.987 6.987 0 01-2.095.59c-.4.05-.843.075-1.33.075-.873 0-1.672-.147-2.395-.44a5.196 5.196 0 01-1.86-1.265c-.517-.55-.918-1.222-1.205-2.015-.287-.793-.43-1.69-.43-2.69 0-.98.142-1.863.425-2.65.283-.787.687-1.453 1.21-2a5.278 5.278 0 011.895-1.26c.74-.293 1.57-.44 2.49-.44.693 0 1.283.063 1.77.19.487.127.892.27 1.215.43.323.16.58.313.77.46.19.147.335.24.435.28a.37.37 0 00.17.04c.107 0 .19-.05.25-.15l.27-.44a7.43 7.43 0 00-.98-.725 5.987 5.987 0 00-1.1-.53 6.925 6.925 0 00-1.275-.325 9.452 9.452 0 00-1.495-.11c-1.087 0-2.068.172-2.945.515a6.256 6.256 0 00-2.235 1.46 6.479 6.479 0 00-1.42 2.28c-.333.89-.5 1.882-.5 2.975 0 1.093.167 2.087.5 2.98.333.893.802 1.655 1.405 2.285a6.201 6.201 0 002.17 1.46c.843.343 1.775.515 2.795.515zm16.93-.01c1.007 0 1.923-.172 2.75-.515a6.103 6.103 0 002.13-1.46c.593-.63 1.053-1.39 1.38-2.28.327-.89.49-1.882.49-2.975 0-1.087-.163-2.075-.49-2.965-.327-.89-.787-1.652-1.38-2.285a6.071 6.071 0 00-2.13-1.465c-.827-.343-1.743-.515-2.75-.515-.993 0-1.903.173-2.73.52a6.16 6.16 0 00-2.13 1.465c-.593.63-1.055 1.39-1.385 2.28-.33.89-.495 1.878-.495 2.965 0 1.093.165 2.085.495 2.975.33.89.792 1.65 1.385 2.28a6.103 6.103 0 002.13 1.46c.827.343 1.737.515 2.73.515zm0-.89c-.84 0-1.608-.143-2.305-.43a5.004 5.004 0 01-1.8-1.25c-.503-.547-.893-1.212-1.17-1.995-.277-.783-.415-1.672-.415-2.665 0-.987.138-1.873.415-2.66.277-.787.667-1.453 1.17-2a5.058 5.058 0 011.8-1.255c.697-.29 1.465-.435 2.305-.435.853 0 1.63.145 2.33.435.7.29 1.298.708 1.795 1.255.497.547.882 1.213 1.155 2 .273.787.41 1.673.41 2.66 0 .993-.137 1.882-.41 2.665-.273.783-.658 1.448-1.155 1.995a4.9 4.9 0 01-1.795 1.25c-.7.287-1.477.43-2.33.43z"/><path fill="#231F20" fill-rule="nonzero" d="M33 3.56v2c9 0 17.24 1.93 20.61 4.8C61.88 17.4 63 27.75 63 33.29c0 5.31-1.35 15.33-9.69 22.71-5.31 4.63-12.06 7-20.09 7h-.49c-5.11 0-17.79-1.26-25-11.72A27.44 27.44 0 013 35.11V35c-.12-3.39.16-15.13 8.89-23.86C15.35 7.7 23.44 5.56 33 5.56v-2zm0 0c-9.1 0-18.28 1.93-22.52 6.17C.89 19.35.92 32.4 1 35.08a29.69 29.69 0 005 17.34C14.67 64.87 30.22 65 32.71 65h.51c3.85 0 13.3-.4 21.41-7.54C64.89 48.44 65 35.68 65 33.3c0-2.81 0-15.88-10.07-24.46C51 5.45 42 3.56 33 3.56z"/><path fill="#231F20" fill-rule="nonzero" d="M14.8 18.29c3.95 0 8.21 4.15 8.93 8.72a9.45 9.45 0 01-1.41 6.41 10.5 10.5 0 01-8.21 4.78 6.11 6.11 0 01-2.73-.61c-4.85-2.35-3.93-10-3.89-10.31.34-2.68 2.06-8 6.11-8.86a5.325 5.325 0 011.2-.13zm0-1c-.477 0-.953.05-1.42.15-4.52 1-6.47 6.5-6.88 9.71-.06.48-1 8.7 4.44 11.34a7.26 7.26 0 003.17.71 11.57 11.57 0 009.05-5.2 10.44 10.44 0 001.55-7.12C24 22 19.43 17.29 14.8 17.29zm33.89 1.12a9.36 9.36 0 016.85 3.34A9.43 9.43 0 0158.08 29a9.14 9.14 0 01-7.64 7.8 7.46 7.46 0 01-.95.06A9.24 9.24 0 0143 34a9.53 9.53 0 01-2.81-6.72 9.25 9.25 0 017.3-8.81 7.46 7.46 0 011.16-.09l.04.03zm-.04-1.03a8.386 8.386 0 00-1.32.1c-4.49.72-8.07 5.11-8.14 9.79a10.71 10.71 0 0010.3 10.62 9.61 9.61 0 001.07-.07 10.1 10.1 0 008.51-8.67c.68-5.86-4.63-11.74-10.38-11.74l-.04-.03z"/><path fill="#231F20" fill-rule="nonzero" d="M50.71 27.82c-1-.08-2 1.2-1.85 2.37A2 2 0 0050.71 32a2.16 2.16 0 000-4.15v-.03zm-33.1.37a2.016 2.016 0 00.51 4 2.07 2.07 0 00-.51-4zm9.84 6.89c-.64 1.6 1.69 5 4.6 5 2.91 0 5.41-3.32 4.81-5-.6-1.68-4.57-1.57-5.11-1.55-1.08.1-3.75.19-4.3 1.55z"/><path stroke="#231F20" stroke-linecap="round" stroke-width="2" d="M16.57 6.1c-1.07-2.61-2.62-3.2-3-3.34-3.46-1.11-8.5 3.16-8.33 7.34A6.37 6.37 0 007 14m40.7-8.6c.55-3.08 1.83-3.88 2.34-4.12 3.31-1.54 10.14 3.51 9.85 8.3a5.87 5.87 0 01-1.26 3.15"/><path stroke="#231F20" stroke-linecap="round" stroke-linejoin="round" d="M4.68 41.19c2.45 5 5.78 8.34 11.89 8.34s12.22-1.33 17-1.33c4.78 0 10.8 1.67 15.62.55 4.82-1.12 11-5.37 12.26-8.63-2.31 6.52-4.66 17.42-26.77 17.42s-23.78-3.78-30-16.35z"/><path stroke="#231F20" stroke-linecap="round" stroke-linejoin="round" d="M12.19 48.83S16.79 54 33.06 54C58 54 61.44 40.12 61.44 40.12"/></g></svg>