<svg xmlns="http://www.w3.org/2000/svg" width="159" height="65" viewBox="0 0 159 65">
  <g fill="none" fill-rule="evenodd">
    <path fill="#000" fill-rule="nonzero" d="M89.89,46.16 C90.4766667,46.16 91.015,46.1116667 91.505,46.015 C91.995,45.9183333 92.445,45.7816667 92.855,45.605 C93.265,45.4283333 93.6433333,45.215 93.99,44.965 C94.3366667,44.715 94.6566667,44.4333333 94.95,44.12 L94.95,44.12 L94.55,43.69 C94.5033333,43.6433333 94.4466667,43.62 94.38,43.62 C94.34,43.62 94.305,43.6283333 94.275,43.645 C94.245,43.6616667 94.2133333,43.6833333 94.18,43.71 C93.9,43.97 93.6166667,44.1966667 93.33,44.39 C93.0433333,44.5833333 92.7333333,44.7466667 92.4,44.88 C92.0666667,45.0133333 91.7016667,45.1133333 91.305,45.18 C90.9083333,45.2466667 90.4566667,45.28 89.95,45.28 C89.1433333,45.28 88.395,45.135 87.705,44.845 C87.015,44.555 86.4166667,44.1383333 85.91,43.595 C85.4033333,43.0516667 85.0066667,42.3866667 84.72,41.6 C84.4333333,40.8133333 84.29,39.92 84.29,38.92 C84.29,37.9466667 84.435,37.0683333 84.725,36.285 C85.015,35.5016667 85.42,34.835 85.94,34.285 C86.46,33.735 87.08,33.3116667 87.8,33.015 C88.52,32.7183333 89.31,32.57 90.17,32.57 C90.6366667,32.57 91.0533333,32.605 91.42,32.675 C91.7866667,32.745 92.11,32.8316667 92.39,32.935 C92.67,33.0383333 92.9116667,33.1516667 93.115,33.275 C93.3183333,33.3983333 93.4916667,33.5116667 93.635,33.615 C93.7783333,33.7183333 93.8966667,33.805 93.99,33.875 C94.0833333,33.945 94.16,33.98 94.22,33.98 C94.3333333,33.98 94.4166667,33.94 94.47,33.86 L94.47,33.86 L94.78,33.41 C94.4666667,33.13 94.1466667,32.8833333 93.82,32.67 C93.4933333,32.4566667 93.145,32.2783333 92.775,32.135 C92.405,31.9916667 92.0066667,31.8816667 91.58,31.805 C91.1533333,31.7283333 90.6833333,31.69 90.17,31.69 C89.1433333,31.69 88.205,31.865 87.355,32.215 C86.505,32.565 85.775,33.0583333 85.165,33.695 C84.555,34.3316667 84.0816667,35.0933333 83.745,35.98 C83.4083333,36.8666667 83.24,37.8466667 83.24,38.92 C83.24,40.0133333 83.4033333,41.0066667 83.73,41.9 C84.0566667,42.7933333 84.5116667,43.555 85.095,44.185 C85.6783333,44.815 86.3783333,45.3016667 87.195,45.645 C88.0116667,45.9883333 88.91,46.16 89.89,46.16 Z M106.14,46.15 C107.146667,46.15 108.063333,45.9783333 108.89,45.635 C109.716667,45.2916667 110.426667,44.805 111.02,44.175 C111.613333,43.545 112.073333,42.785 112.4,41.895 C112.726667,41.005 112.89,40.0133333 112.89,38.92 C112.89,37.8333333 112.726667,36.845 112.4,35.955 C112.073333,35.065 111.613333,34.3033333 111.02,33.67 C110.426667,33.0366667 109.716667,32.5483333 108.89,32.205 C108.063333,31.8616667 107.146667,31.69 106.14,31.69 C105.146667,31.69 104.236667,31.8633333 103.41,32.21 C102.583333,32.5566667 101.873333,33.045 101.28,33.675 C100.686667,34.305 100.225,35.065 99.8949999,35.955 C99.5649999,36.845 99.3999999,37.8333333 99.3999999,38.92 C99.3999999,40.0133333 99.5649999,41.005 99.8949999,41.895 C100.225,42.785 100.686667,43.545 101.28,44.175 C101.873333,44.805 102.583333,45.2916667 103.41,45.635 C104.236667,45.9783333 105.146667,46.15 106.14,46.15 Z M106.14,45.26 C105.3,45.26 104.531667,45.1166667 103.835,44.83 C103.138333,44.5433333 102.538333,44.1266667 102.035,43.58 C101.531667,43.0333333 101.141667,42.3683333 100.865,41.585 C100.588333,40.8016667 100.45,39.9133333 100.45,38.92 C100.45,37.9333333 100.588333,37.0466667 100.865,36.26 C101.141667,35.4733333 101.531667,34.8066667 102.035,34.26 C102.538333,33.7133333 103.138333,33.295 103.835,33.005 C104.531667,32.715 105.3,32.57 106.14,32.57 C106.993333,32.57 107.77,32.715 108.47,33.005 C109.17,33.295 109.768333,33.7133333 110.265,34.26 C110.761667,34.8066667 111.146667,35.4733333 111.42,36.26 C111.693333,37.0466667 111.83,37.9333333 111.83,38.92 C111.83,39.9133333 111.693333,40.8016667 111.42,41.585 C111.146667,42.3683333 110.761667,43.0333333 110.265,43.58 C109.768333,44.1266667 109.17,44.5433333 108.47,44.83 C107.77,45.1166667 106.993333,45.26 106.14,45.26 Z M119.64,46 L119.64,39.6 L121.49,39.6 C121.763333,39.6 121.965,39.63 122.095,39.69 C122.225,39.75 122.346666,39.8533333 122.46,40 L122.46,40 L126.99,45.74 C127.063333,45.8333333 127.138333,45.9 127.215,45.94 C127.291666,45.98 127.383333,46 127.49,46 L127.49,46 L128.38,46 L123.51,39.88 C123.383333,39.7133333 123.24,39.58 123.08,39.48 C123.7,39.4133333 124.256666,39.2716667 124.75,39.055 C125.243333,38.8383333 125.665,38.5616667 126.015,38.225 C126.365,37.8883333 126.633333,37.4966667 126.82,37.05 C127.006666,36.6033333 127.1,36.11 127.1,35.57 C127.1,34.35 126.696666,33.425 125.89,32.795 C125.083333,32.165 123.863333,31.85 122.23,31.85 L122.23,31.85 L118.62,31.85 L118.62,46 L119.64,46 Z M122.1,38.84 L119.64,38.84 L119.64,32.66 L122.23,32.66 C123.49,32.66 124.45,32.9033333 125.11,33.39 C125.77,33.8766667 126.1,34.6233333 126.1,35.63 C126.1,36.1233333 126.01,36.5666667 125.83,36.96 C125.65,37.3533333 125.388333,37.69 125.045,37.97 C124.701666,38.25 124.281666,38.465 123.785,38.615 C123.288333,38.765 122.726666,38.84 122.1,38.84 L122.1,38.84 Z M134.36,46 L134.36,39.6 L136.21,39.6 C136.483333,39.6 136.685,39.63 136.815,39.69 C136.945,39.75 137.066666,39.8533333 137.18,40 L137.18,40 L141.71,45.74 C141.783333,45.8333333 141.858333,45.9 141.935,45.94 C142.011666,45.98 142.103333,46 142.21,46 L142.21,46 L143.1,46 L138.23,39.88 C138.103333,39.7133333 137.96,39.58 137.8,39.48 C138.42,39.4133333 138.976666,39.2716667 139.47,39.055 C139.963333,38.8383333 140.385,38.5616667 140.735,38.225 C141.085,37.8883333 141.353333,37.4966667 141.54,37.05 C141.726666,36.6033333 141.82,36.11 141.82,35.57 C141.82,34.35 141.416666,33.425 140.61,32.795 C139.803333,32.165 138.583333,31.85 136.95,31.85 L136.95,31.85 L133.34,31.85 L133.34,46 L134.36,46 Z M136.82,38.84 L134.36,38.84 L134.36,32.66 L136.95,32.66 C138.21,32.66 139.17,32.9033333 139.83,33.39 C140.49,33.8766667 140.82,34.6233333 140.82,35.63 C140.82,36.1233333 140.73,36.5666667 140.55,36.96 C140.37,37.3533333 140.108333,37.69 139.765,37.97 C139.421666,38.25 139.001666,38.465 138.505,38.615 C138.008333,38.765 137.446666,38.84 136.82,38.84 L136.82,38.84 Z M146.59,46 C146.683333,46 146.763333,45.9733333 146.83,45.92 C146.896666,45.8666667 146.943333,45.8033333 146.97,45.73 L146.97,45.73 L148.63,41.62 L155.58,41.62 L157.25,45.73 C157.283333,45.81 157.33,45.875 157.39,45.925 C157.45,45.975 157.526666,46 157.62,46 L157.62,46 L158.41,46 L152.62,31.85 L151.6,31.85 L145.81,46 L146.59,46 Z M155.28,40.86 L148.94,40.86 L151.83,33.72 C151.876666,33.6 151.923333,33.4683333 151.97,33.325 C152.016666,33.1816667 152.063333,33.03 152.11,32.87 C152.156666,33.03 152.203333,33.1816667 152.25,33.325 C152.296666,33.4683333 152.343333,33.5966667 152.39,33.71 L152.39,33.71 L155.28,40.86 Z"/>
    <path fill="#231F20" fill-rule="nonzero" d="M33,3.56 L33,5.56 L33,5.56 C42,5.56 50.24,7.49 53.61,10.36 C61.88,17.4 63,27.75 63,33.29 C63,38.6 61.65,48.62 53.31,56 C48,60.63 41.25,63 33.22,63 L32.73,63 C27.62,63 14.94,61.74 7.73,51.28 C4.49672781,46.5193496 2.84204469,40.8626421 3,35.11 L3,35 C2.88,31.61 3.16,19.87 11.89,11.14 C15.35,7.7 23.44,5.56 33,5.56 L33,3.56 L33,3.56 Z M33,3.56 C23.9,3.56 14.72,5.49 10.48,9.73 C0.89,19.35 0.92,32.4 1,35.08 C0.827113119,41.2387841 2.57452428,47.298806 6,52.42 C14.67,64.87 30.22,65 32.71,65 L33.22,65 C37.07,65 46.52,64.6 54.63,57.46 C64.89,48.44 65,35.68 65,33.3 C65,30.49 65,17.42 54.93,8.84 C51,5.45 42,3.56 33,3.56 Z"/>
    <path fill="#231F20" fill-rule="nonzero" d="M14.8 18.2899113L14.8 18.2899113C18.75 18.2899113 23.01 22.44 23.73 27.01 24.0409055 29.2465019 23.5407173 31.5204073 22.32 33.42 20.5018425 36.2310495 17.452199 38.0066032 14.11 38.2 13.1650723 38.2105165 12.2305838 38.0017114 11.38 37.59 6.53 35.24 7.45 27.59 7.49 27.28 7.83 24.6 9.55 19.28 13.6 18.42 13.993773 18.3312833 14.3963635 18.2876693 14.8 18.2899113L14.8 18.2899113zM14.8 17.29C14.3227336 17.290395 13.8468153 17.340668 13.38 17.44 8.86 18.44 6.91 23.94 6.5 27.15 6.44 27.63 5.5 35.85 10.94 38.49 11.9293592 38.9634001 13.0132314 39.2061601 14.11 39.2001144 17.7815519 39.0031303 21.1409543 37.072866 23.16 34 24.515032 31.8898547 25.0652363 29.362465 24.71 26.88 24 22 19.43 17.29 14.8 17.29L14.8 17.29zM48.69 18.41C51.3437248 18.5013119 53.8337844 19.7154432 55.54 21.75 57.3772649 23.6966428 58.3006775 26.3323677 58.08 29 57.536643 33.0025493 54.4304297 36.1738142 50.44 36.8 50.1249335 36.8402035 49.8076211 36.8602443 49.49 36.8600022 47.0323579 36.8079148 44.6967725 35.7786738 43 34 41.2104899 32.2204339 40.1999245 29.8037082 40.19 27.28 40.2974751 23.0101419 43.3144855 19.369065 47.49 18.47 47.873734 18.4098469 48.26158 18.3797554 48.65 18.3799985L48.69 18.41zM48.65 17.37995C48.2080515 17.3784736 47.7666747 17.4119112 47.33 17.48 42.84 18.2 39.26 22.59 39.19 27.27 39.2339096 32.9935851 43.7704357 37.6710518 49.49 37.89 49.8476915 37.8865989 50.2049141 37.8632292 50.56 37.82 55.0119756 37.1497103 58.4827432 33.6136873 59.07 29.15 59.75 23.29 54.44 17.41 48.69 17.41L48.65 17.37995z"/>
    <path fill="#231F20" fill-rule="nonzero" d="M50.71 27.82C49.71 27.74 48.71 29.02 48.86 30.19 48.9505543 31.1648031 49.7334506 31.930772 50.71 32 51.6340087 31.732826 52.2700208 30.8868596 52.2700208 29.925 52.2700208 28.9631404 51.6340087 28.117174 50.71 27.85L50.71 27.82zM17.61 28.19C16.5054305 28.3308326 15.7241674 29.3404305 15.865 30.445 16.0058326 31.5495695 17.0154305 32.3308326 18.12 32.19 19.0224547 31.8551218 19.5749783 30.9423542 19.4532344 29.9875001 19.3314905 29.032646 18.567611 28.2877199 17.61 28.19L17.61 28.19zM27.45 35.08C26.81 36.68 29.14 40.08 32.05 40.08 34.96 40.08 37.46 36.76 36.86 35.08 36.26 33.4 32.29 33.51 31.75 33.53 30.67 33.63 28 33.72 27.45 35.08z"/>
    <path stroke="#231F20" stroke-linecap="round" stroke-width="2" d="M16.57 6.1C15.5 3.49 13.95 2.9 13.57 2.76 10.11 1.65 5.07 5.92 5.24 10.1 5.35945355 11.5640415 5.98121588 12.9418103 7 14M47.7 5.4C48.25 2.32 49.53 1.52 50.04 1.28 53.35-.26 60.18 4.79 59.89 9.58 59.7892008 10.7311306 59.3508906 11.826906 58.63 12.73"/>
    <path stroke="#231F20" stroke-linecap="round" stroke-linejoin="round" d="M4.68,41.19 C7.13,46.19 10.46,49.53 16.57,49.53 C22.68,49.53 28.79,48.2 33.57,48.2 C38.35,48.2 44.37,49.87 49.19,48.75 C54.01,47.63 60.19,43.38 61.45,40.12 C59.14,46.64 56.79,57.54 34.68,57.54 C12.57,57.54 10.9,53.76 4.68,41.19 Z"/>
    <path stroke="#231F20" stroke-linecap="round" stroke-linejoin="round" d="M12.19,48.83 C12.19,48.83 16.79,54 33.06,54 C58,54 61.44,40.12 61.44,40.12"/>
  </g>
</svg>
