<svg xmlns="http://www.w3.org/2000/svg" width="144" height="65" viewBox="0 0 144 65">
  <g fill="none" fill-rule="evenodd">
    <path fill="#000" fill-rule="nonzero" d="M91.83,46 L91.83,45.13 L85.12,45.13 L85.12,31.85 L84.1,31.85 L84.1,46 L91.83,46 Z M101.5,46.15 C102.506667,46.15 103.423333,45.9783333 104.25,45.635 C105.076667,45.2916667 105.786667,44.805 106.38,44.175 C106.973333,43.545 107.433333,42.785 107.76,41.895 C108.086667,41.005 108.25,40.0133333 108.25,38.92 C108.25,37.8333333 108.086667,36.845 107.76,35.955 C107.433333,35.065 106.973333,34.3033333 106.38,33.67 C105.786667,33.0366667 105.076667,32.5483333 104.25,32.205 C103.423333,31.8616667 102.506667,31.69 101.5,31.69 C100.506667,31.69 99.5966666,31.8633333 98.7699999,32.21 C97.9433332,32.5566667 97.2333332,33.045 96.6399999,33.675 C96.0466666,34.305 95.5849999,35.065 95.2549999,35.955 C94.9249999,36.845 94.7599999,37.8333333 94.7599999,38.92 C94.7599999,40.0133333 94.9249999,41.005 95.2549999,41.895 C95.5849999,42.785 96.0466666,43.545 96.6399999,44.175 C97.2333332,44.805 97.9433332,45.2916667 98.7699999,45.635 C99.5966666,45.9783333 100.506667,46.15 101.5,46.15 Z M101.5,45.26 C100.66,45.26 99.8916666,45.1166667 99.1949999,44.83 C98.4983332,44.5433333 97.8983332,44.1266667 97.3949999,43.58 C96.8916666,43.0333333 96.5016666,42.3683333 96.2249999,41.585 C95.9483332,40.8016667 95.8099999,39.9133333 95.8099999,38.92 C95.8099999,37.9333333 95.9483332,37.0466667 96.2249999,36.26 C96.5016666,35.4733333 96.8916666,34.8066667 97.3949999,34.26 C97.8983332,33.7133333 98.4983332,33.295 99.1949999,33.005 C99.8916666,32.715 100.66,32.57 101.5,32.57 C102.353333,32.57 103.13,32.715 103.83,33.005 C104.53,33.295 105.128333,33.7133333 105.625,34.26 C106.121667,34.8066667 106.506667,35.4733333 106.78,36.26 C107.053333,37.0466667 107.19,37.9333333 107.19,38.92 C107.19,39.9133333 107.053333,40.8016667 106.78,41.585 C106.506667,42.3683333 106.121667,43.0333333 105.625,43.58 C105.128333,44.1266667 104.53,44.5433333 103.83,44.83 C103.13,45.1166667 102.353333,45.26 101.5,45.26 Z M119.69,46.16 C120.283333,46.16 120.83,46.125 121.33,46.055 C121.83,45.985 122.296666,45.885 122.73,45.755 C123.163333,45.625 123.57,45.4633333 123.95,45.27 C124.33,45.0766667 124.696666,44.8566667 125.05,44.61 L125.05,44.61 L125.05,39.58 L121.14,39.58 L121.14,40.14 C121.14,40.2 121.165,40.2533333 121.215,40.3 C121.265,40.3466667 121.326666,40.37 121.4,40.37 L121.4,40.37 L124.12,40.37 L124.12,44.18 C123.806666,44.36 123.495,44.5216667 123.185,44.665 C122.875,44.8083333 122.548333,44.93 122.205,45.03 C121.861666,45.13 121.49,45.205 121.09,45.255 C120.69,45.305 120.246666,45.33 119.76,45.33 C118.886666,45.33 118.088333,45.1833333 117.365,44.89 C116.641666,44.5966667 116.021666,44.175 115.505,43.625 C114.988333,43.075 114.586666,42.4033333 114.3,41.61 C114.013333,40.8166667 113.87,39.92 113.87,38.92 C113.87,37.94 114.011666,37.0566667 114.295,36.27 C114.578333,35.4833333 114.981666,34.8166667 115.505,34.27 C116.028333,33.7233333 116.66,33.3033333 117.4,33.01 C118.14,32.7166667 118.97,32.57 119.89,32.57 C120.583333,32.57 121.173333,32.6333333 121.66,32.76 C122.146666,32.8866667 122.551666,33.03 122.875,33.19 C123.198333,33.35 123.455,33.5033333 123.645,33.65 C123.835,33.7966667 123.98,33.89 124.08,33.93 C124.133333,33.9566667 124.19,33.97 124.25,33.97 C124.356666,33.97 124.44,33.92 124.5,33.82 L124.5,33.82 L124.77,33.38 C124.456666,33.1066667 124.13,32.865 123.79,32.655 C123.45,32.445 123.083333,32.2683333 122.69,32.125 C122.296666,31.9816667 121.871666,31.8733333 121.415,31.8 C120.958333,31.7266667 120.46,31.69 119.92,31.69 C118.833333,31.69 117.851666,31.8616667 116.975,32.205 C116.098333,32.5483333 115.353333,33.035 114.74,33.665 C114.126666,34.295 113.653333,35.055 113.32,35.945 C112.986666,36.835 112.82,37.8266667 112.82,38.92 C112.82,40.0133333 112.986666,41.0066667 113.32,41.9 C113.653333,42.7933333 114.121666,43.555 114.725,44.185 C115.328333,44.815 116.051666,45.3016667 116.895,45.645 C117.738333,45.9883333 118.67,46.16 119.69,46.16 Z M136.62,46.15 C137.626666,46.15 138.543333,45.9783333 139.37,45.635 C140.196666,45.2916667 140.906666,44.805 141.5,44.175 C142.093333,43.545 142.553333,42.785 142.88,41.895 C143.206666,41.005 143.37,40.0133333 143.37,38.92 C143.37,37.8333333 143.206666,36.845 142.88,35.955 C142.553333,35.065 142.093333,34.3033333 141.5,33.67 C140.906666,33.0366667 140.196666,32.5483333 139.37,32.205 C138.543333,31.8616667 137.626666,31.69 136.62,31.69 C135.626666,31.69 134.716666,31.8633333 133.89,32.21 C133.063333,32.5566667 132.353333,33.045 131.76,33.675 C131.166666,34.305 130.705,35.065 130.375,35.955 C130.045,36.845 129.88,37.8333333 129.88,38.92 C129.88,40.0133333 130.045,41.005 130.375,41.895 C130.705,42.785 131.166666,43.545 131.76,44.175 C132.353333,44.805 133.063333,45.2916667 133.89,45.635 C134.716666,45.9783333 135.626666,46.15 136.62,46.15 Z M136.62,45.26 C135.78,45.26 135.011666,45.1166667 134.315,44.83 C133.618333,44.5433333 133.018333,44.1266667 132.515,43.58 C132.011666,43.0333333 131.621666,42.3683333 131.345,41.585 C131.068333,40.8016667 130.93,39.9133333 130.93,38.92 C130.93,37.9333333 131.068333,37.0466667 131.345,36.26 C131.621666,35.4733333 132.011666,34.8066667 132.515,34.26 C133.018333,33.7133333 133.618333,33.295 134.315,33.005 C135.011666,32.715 135.78,32.57 136.62,32.57 C137.473333,32.57 138.25,32.715 138.95,33.005 C139.65,33.295 140.248333,33.7133333 140.745,34.26 C141.241666,34.8066667 141.626666,35.4733333 141.9,36.26 C142.173333,37.0466667 142.31,37.9333333 142.31,38.92 C142.31,39.9133333 142.173333,40.8016667 141.9,41.585 C141.626666,42.3683333 141.241666,43.0333333 140.745,43.58 C140.248333,44.1266667 139.65,44.5433333 138.95,44.83 C138.25,45.1166667 137.473333,45.26 136.62,45.26 Z"/>
    <path fill="#231F20" fill-rule="nonzero" d="M33,3.56 L33,5.56 L33,5.56 C42,5.56 50.24,7.49 53.61,10.36 C61.88,17.4 63,27.75 63,33.29 C63,38.6 61.65,48.62 53.31,56 C48,60.63 41.25,63 33.22,63 L32.73,63 C27.62,63 14.94,61.74 7.73,51.28 C4.49672781,46.5193496 2.84204469,40.8626421 3,35.11 L3,35 C2.88,31.61 3.16,19.87 11.89,11.14 C15.35,7.7 23.44,5.56 33,5.56 L33,3.56 L33,3.56 Z M33,3.56 C23.9,3.56 14.72,5.49 10.48,9.73 C0.89,19.35 0.92,32.4 1,35.08 C0.827113119,41.2387841 2.57452428,47.298806 6,52.42 C14.67,64.87 30.22,65 32.71,65 L33.22,65 C37.07,65 46.52,64.6 54.63,57.46 C64.89,48.44 65,35.68 65,33.3 C65,30.49 65,17.42 54.93,8.84 C51,5.45 42,3.56 33,3.56 Z"/>
    <path fill="#231F20" fill-rule="nonzero" d="M14.8 18.2899113L14.8 18.2899113C18.75 18.2899113 23.01 22.44 23.73 27.01 24.0409055 29.2465019 23.5407173 31.5204073 22.32 33.42 20.5018425 36.2310495 17.452199 38.0066032 14.11 38.2 13.1650723 38.2105165 12.2305838 38.0017114 11.38 37.59 6.53 35.24 7.45 27.59 7.49 27.28 7.83 24.6 9.55 19.28 13.6 18.42 13.993773 18.3312833 14.3963635 18.2876693 14.8 18.2899113L14.8 18.2899113zM14.8 17.29C14.3227336 17.290395 13.8468153 17.340668 13.38 17.44 8.86 18.44 6.91 23.94 6.5 27.15 6.44 27.63 5.5 35.85 10.94 38.49 11.9293592 38.9634001 13.0132314 39.2061601 14.11 39.2001144 17.7815519 39.0031303 21.1409543 37.072866 23.16 34 24.515032 31.8898547 25.0652363 29.362465 24.71 26.88 24 22 19.43 17.29 14.8 17.29L14.8 17.29zM48.69 18.41C51.3437248 18.5013119 53.8337844 19.7154432 55.54 21.75 57.3772649 23.6966428 58.3006775 26.3323677 58.08 29 57.536643 33.0025493 54.4304297 36.1738142 50.44 36.8 50.1249335 36.8402035 49.8076211 36.8602443 49.49 36.8600022 47.0323579 36.8079148 44.6967725 35.7786738 43 34 41.2104899 32.2204339 40.1999245 29.8037082 40.19 27.28 40.2974751 23.0101419 43.3144855 19.369065 47.49 18.47 47.873734 18.4098469 48.26158 18.3797554 48.65 18.3799985L48.69 18.41zM48.65 17.37995C48.2080515 17.3784736 47.7666747 17.4119112 47.33 17.48 42.84 18.2 39.26 22.59 39.19 27.27 39.2339096 32.9935851 43.7704357 37.6710518 49.49 37.89 49.8476915 37.8865989 50.2049141 37.8632292 50.56 37.82 55.0119756 37.1497103 58.4827432 33.6136873 59.07 29.15 59.75 23.29 54.44 17.41 48.69 17.41L48.65 17.37995z"/>
    <path fill="#231F20" fill-rule="nonzero" d="M50.71 27.82C49.71 27.74 48.71 29.02 48.86 30.19 48.9505543 31.1648031 49.7334506 31.930772 50.71 32 51.6340087 31.732826 52.2700208 30.8868596 52.2700208 29.925 52.2700208 28.9631404 51.6340087 28.117174 50.71 27.85L50.71 27.82zM17.61 28.19C16.5054305 28.3308326 15.7241674 29.3404305 15.865 30.445 16.0058326 31.5495695 17.0154305 32.3308326 18.12 32.19 19.0224547 31.8551218 19.5749783 30.9423542 19.4532344 29.9875001 19.3314905 29.032646 18.567611 28.2877199 17.61 28.19L17.61 28.19zM27.45 35.08C26.81 36.68 29.14 40.08 32.05 40.08 34.96 40.08 37.46 36.76 36.86 35.08 36.26 33.4 32.29 33.51 31.75 33.53 30.67 33.63 28 33.72 27.45 35.08z"/>
    <path stroke="#231F20" stroke-linecap="round" stroke-width="2" d="M16.57 6.1C15.5 3.49 13.95 2.9 13.57 2.76 10.11 1.65 5.07 5.92 5.24 10.1 5.35945355 11.5640415 5.98121588 12.9418103 7 14M47.7 5.4C48.25 2.32 49.53 1.52 50.04 1.28 53.35-.26 60.18 4.79 59.89 9.58 59.7892008 10.7311306 59.3508906 11.826906 58.63 12.73"/>
    <path stroke="#231F20" stroke-linecap="round" stroke-linejoin="round" d="M4.68,41.19 C7.13,46.19 10.46,49.53 16.57,49.53 C22.68,49.53 28.79,48.2 33.57,48.2 C38.35,48.2 44.37,49.87 49.19,48.75 C54.01,47.63 60.19,43.38 61.45,40.12 C59.14,46.64 56.79,57.54 34.68,57.54 C12.57,57.54 10.9,53.76 4.68,41.19 Z"/>
    <path stroke="#231F20" stroke-linecap="round" stroke-linejoin="round" d="M12.19,48.83 C12.19,48.83 16.79,54 33.06,54 C58,54 61.44,40.12 61.44,40.12"/>
  </g>
</svg>
