<svg xmlns="http://www.w3.org/2000/svg" xmlns:xlink="http://www.w3.org/1999/xlink" width="400" height="192" viewBox="0 0 400 192"><defs><path id="bg-benefits-of-supermark-development-a" d="M59.5 272c32.86 0 59.5-26.64 59.5-59.5S92.36 153 59.5 153 0 179.64 0 212.5 26.64 272 59.5 272z"/><mask id="bg-benefits-of-supermark-development-b" width="119" height="119" x="0" y="0" fill="#fff"><use xlink:href="#bg-benefits-of-supermark-development-a"/></mask></defs><g fill="none" fill-rule="evenodd" transform="translate(16 -22)"><use stroke="#FFF" stroke-dasharray="2" stroke-opacity=".4" stroke-width="2" mask="url(#bg-benefits-of-supermark-development-b)" xlink:href="#bg-benefits-of-supermark-development-a"/><circle cx="183" cy="37" r="37" fill="#FFF" fill-opacity=".16"/><circle cx="132.5" cy="118.5" r="59.5" fill="#FFF" fill-opacity=".2"/><path fill="#D99900" d="M116 223v-7.115c-1.028 1.848-2.276 3.615-3.724 6.615h.212l-.4.5H63.13l14.091-22.221a64.7 64.7 0 006.453-15.443 34.76 34.76 0 012.666-6.745 36.059 36.059 0 012.111-3.968c.443-.871.932-1.97 1.5-3.22.331-.733.681-1.527 1.054-2.331V152c0-11.579 9.42-20.5 21-20.5h15.427c-2.314-5-1.78-9.967 1.511-13.627a125.724 125.724 0 0123.722-19.867c-2.072-1.641-4.078-5.053-5.4-9.222-1.815-5.742-1.917-12.487 1.469-13.621a2.83 2.83 0 01.892-.163c.268 0 .535.033.794.1l-.42-3.031V66a30.179 30.179 0 015.39-17.148l.573-.821.028.27A29.786 29.786 0 01180 36.5h3a29.787 29.787 0 0123.965 11.73l.1-.207.546.892A30.77 30.77 0 01213 65.963v6.106l-.42 3.023c.26-.066.526-.1.794-.1a2.8 2.8 0 01.889.143c3.385 1.134 3.283 7.848 1.467 13.589a24.429 24.429 0 01-3.571 7.24c15.178 8.74 26.78 21.779 26.9 21.911 3.292 3.661 3.825 8.628 1.511 13.628H250c11.579 0 21 8.921 21 20.5v71H116V223z"/><path fill="#D99900" d="M64.008 223l14.055-21.931c2.8-4.749 5.761-11.791 6.589-15.648.828-3.857 5.608-12.085 4.513-10.019C93.14 167.9 100.992 140.92 119 168c15.753 23.688-10.165 56.916-8.6 55H64.008z" opacity=".5"/><path fill="#E5A600" d="M65.692 223l13.182-21.275c2.864-4.879 5.867-12.168 6.713-16.127.607-2.836 3.661-8.621 4.38-9.854l.033-.014.054-.118c.494-.946 1.027-2.144 1.645-3.523 2.691-6 6.757-15.082 12.85-15.082 3.974 0 8.524 4.073 13.524 11.617 12.073 18.216-2.95 44.535-8.858 54.376H65.692z"/><path fill="#E5A600" d="M117 169h153v54H117z"/><path fill="#D99900" d="M230 169h1v54h-1v-54zm-113 0h1v54h-1v-54zm152 0h1v54h-1v-54zm-177 0v-17c0-11.046 8.954-20 20-20h138c11.046 0 20 8.954 20 20v17H92z"/><path fill="#E5A600" d="M93 168v-16.5c0-10.477 8.523-18.5 19-18.5h138c10.477 0 19 8.023 19 18.5V168H93z"/><path fill="#F2B200" d="M196.347 112.045l9.008 14.744c2.878 4.711 3.52 12.726 1.426 17.813l-14.934 36.286c-2.094 5.086-2.287 13.48-.431 18.652L198.9 223h-29.8l7.486-23.46c1.856-5.172 1.663-13.566-.431-18.652L161.219 144.6c-2.094-5.087-1.452-13.1 1.426-17.813l9.008-14.744a8.3 8.3 0 001.17-3.043h22.354a8.3 8.3 0 001.17 3.045z"/><path fill="#D99900" d="M171.208 111.875l-8.843 14.819c-2.826 4.735-3.456 12.79-1.4 17.9L173.993 177l-43.936-44.119a10.771 10.771 0 01-.371-14.59s12.185-13.539 28.127-22.3c0 .004 16.187 11.209 13.395 15.884zm25.584 0l8.843 14.819c2.826 4.735 3.456 12.79 1.4 17.9L194.007 177l43.936-44.119a10.771 10.771 0 00.371-14.59s-12.185-13.539-28.127-22.3c0 .004-16.187 11.209-13.395 15.884z"/><path fill="#E5A600" d="M130.744 132.179a9.734 9.734 0 01-.335-13.216c.119-.132 11.987-13.209 27.333-21.787 10.238 7.188 13.546 12.61 12.6 14.191l-8.842 14.817c-2.974 4.981-3.633 13.408-1.47 18.787l11.2 27.838-40.486-40.63zm77.229 12.792c2.164-5.379 1.5-13.806-1.47-18.786l-8.847-14.818c-.944-1.581 2.364-7 12.6-14.19 15.357 8.584 27.215 21.655 27.334 21.787a9.735 9.735 0 01-.336 13.215l-40.481 40.63 11.2-27.838z"/><path fill="#D99900" d="M134.931 153.988l22.353-17.455a8.816 8.816 0 012.9-1.525 20.569 20.569 0 001.108 9.191l14.635 36.056a20.92 20.92 0 011.062 3.745l-40.9-19.554c-4.964-2.374-5.489-7.079-1.158-10.458zm98.138 0l-22.353-17.455a8.816 8.816 0 00-2.9-1.525 20.569 20.569 0 01-1.108 9.191l-14.635 36.056a20.92 20.92 0 00-1.062 3.745l40.9-19.554c4.964-2.374 5.489-7.079 1.158-10.458z"/><path fill="#E5A600" d="M136.513 163.54c-2.08-.994-3.323-2.439-3.5-4.066-.177-1.627.721-3.292 2.528-4.7l22.359-17.461a8.392 8.392 0 011.2-.784 20.367 20.367 0 001.269 8.04L175 180.632a15.6 15.6 0 01.531 1.562l-39.018-18.654zm55.955 18.66c.149-.53.326-1.051.531-1.562l14.638-36.064a20.352 20.352 0 001.268-8.04c.422.226.823.488 1.2.784l22.357 17.458c1.806 1.411 2.7 3.081 2.527 4.7-.173 1.619-1.421 3.072-3.5 4.066L192.468 182.2z"/><path fill="#E5A600" d="M183 159c.067 3.05-2 8-2 8a25.69 25.69 0 000-7c-.576-2.932-13.538-9.66-14-14-.225-2.112-2.837-1.927-5.458-1.185l-.25-.616a14.325 14.325 0 01-.543-1.711A8.4 8.4 0 01165 141c2.116-.051 3.777-.12 5.14-.24A29.874 29.874 0 01173 146c.433 1.659-.041 3.237 1 5s8.8 7.081 8 11c1.588-5.733-5.512-6.251-6-11-.488-4.749.706-3.7-1-7a33.248 33.248 0 00-2.214-3.63c.413-.093.82-.217 1.214-.37 1.729-.7 3.923-.565 4 2 .077 2.565-3.467 8.062-1 10 2.467 1.938 5.933 3.95 6 7zm20-27.382l2.857 2.875-2.857.959-.4-3.614c-.867.415-2.971 1.051-4.363-1.657-.8-1.553-.072-5.575.476-7.187.38 2.3 6.752 5.883 7.143 7.667.391 1.784-2.856.957-2.856.957zm-3.619 6.188a12.4 12.4 0 002.381-1.438l2.457 2.473c-.523.086 1.631-.468 3.678-1.1-.008.374-.043.738-.069 1.107-.619.193-2.873.973-3.679 1.282.3.61.44 1.287.41 1.967.032 1.116.089 1.479 1.072 1.693.383.088.773.137 1.166.145l-.388 1.014a7.1 7.1 0 01-.989-.143c-2.359-.515-1.7-2.44-1.949-3.574a3.609 3.609 0 00-.288-.776 5.6 5.6 0 01-2.85.227c-1.834-.5-3.333-2.875-3.333-2.875s.78.774 2.377-.002h.004zm-1.9 6.036l1.249 3.742.312-.208-.542-5.326.905-.341 5 7-2.13-2.293-2.776 1.851v1.656l.973 2.919-.972-2.142v1.347l-.172-1.725-.364-.8-3.233.808L198 156l-6-10h2l1.358 3.395 3.187-.8-2.019-4.44.955-.313zm2.026 3.224l2.131-1.421-2.138-2.355.007 3.776zm2.007 9.934l-.3.732-1.633-2.45.832-.554 1.101 2.272zm-22.014 9a4.5 4.5 0 110 9 4.5 4.5 0 010-9zm0 1a3.5 3.5 0 110 7 3.5 3.5 0 010-7z"/><path fill="#D99900" d="M176.933 41h10.233c18.468 0 26.8 33.5 18.752 58.638l-4.642 14.505C197.758 125.137 189.958 134 183.631 134H180.2c-6.328 0-14.113-8.863-17.6-19.856L158 99.639C150.038 74.51 158.462 41 176.933 41zm-6.752 87.005l-5.629-17.235a5.422 5.422 0 00-4.177-3.658l-.34-1.074a6.419 6.419 0 015.452 4.417l6.206 19c.023.07.037.14.057.211a27.263 27.263 0 01-1.569-1.661zm33.338-20.871a5.429 5.429 0 00-4.058 3.636l-5.537 16.924a28.358 28.358 0 01-1.62 1.775v-.013l6.217-19a6.421 6.421 0 015.339-4.395l-.341 1.073zm-46.335-10.365a2.315 2.315 0 01-1.234 1.125c-2.363.791-5.823-3.45-7.727-9.474s-1.532-11.549.832-12.34c1.752-.587 4.106 1.6 5.983 5.218.023.89 1.996 14.902 2.146 15.471zm48.632 0c.257.515.697.917 1.234 1.125 2.363.791 5.823-3.45 7.727-9.474s1.532-11.549-.832-12.34c-1.752-.587-4.106 1.6-5.983 5.218-.023.89-1.996 14.902-2.146 15.471z"/><path fill="#F2B200" d="M180.2 133.5c-5.829 0-13.3-8.845-16.645-19.409l-4.6-14.63c-5.415-17.08-3.224-38.345 5.095-49.715 3.559-4.863 8.013-7.246 12.88-7.246h10.232c4.862 0 9.305 2.316 12.847 7.17 8.294 11.367 10.424 32.7 4.955 49.789l-4.643 14.692c-3.382 10.565-10.87 19.349-16.693 19.349H180.2z"/><path fill="#F2B200" d="M206.82 96.487c.13.206.322.366.547.459.089.03.182.044.275.043 1.632 0 4.5-3.564 6.182-8.87 1.924-6.085 1.169-10.633-.2-11.09a.864.864 0 00-.276-.043c-1.144 0-2.9 1.78-4.42 4.659.027-.699-2.205 15.215-2.108 14.842zm-50.066-1.441a2.449 2.449 0 01-1.121 1.9.844.844 0 01-.275.043c-1.632 0-4.505-3.564-6.182-8.87-1.924-6.085-1.168-10.633.2-11.09a.86.86 0 01.275-.043c1.43 0 3.812 2.738 5.51 6.985-.061-.892 1.727 11.653 1.593 11.075z"/><path fill="#E5A600" d="M170.181 128.005l-5.629-17.235a5.422 5.422 0 00-4.177-3.658l-.34-1.074a6.419 6.419 0 015.452 4.417l6.206 19c.023.07.037.14.057.211a27.263 27.263 0 01-1.569-1.661zm33.338-20.871a5.429 5.429 0 00-4.058 3.636l-5.537 16.924a28.358 28.358 0 01-1.62 1.775v-.013l6.217-19a6.421 6.421 0 015.339-4.395l-.341 1.073z"/><path fill="#D99900" d="M171.565 74.19c.145-.067.294-.126.445-.178.175-.061.361-.118.557-.169.177-.046.358-.08.54-.1a16.1 16.1 0 00-1.712 2.745 1.7 1.7 0 00-.1.284 1.321 1.321 0 00-.031.318c-.004.08.007.16.031.237a.17.17 0 00.1.108.59.59 0 00.2.027 4.163 4.163 0 001.374-.243 4.6 4.6 0 001.253-.658c.355-.26.656-.586.889-.959.214-.335.33-.723.333-1.121a1.829 1.829 0 00-.122-.684 1.393 1.393 0 00-.346-.514 1.568 1.568 0 00-.561-.327 2.229 2.229 0 00-.735-.116c-.265 0-.53.03-.789.086a5.453 5.453 0 00-1.334.45 2.289 2.289 0 00-.384.227.992.992 0 00-.294.817.18.18 0 00.174.226.41.41 0 00.13-.026c.05-.017.133-.051.248-.1.115-.049.227-.1.335-.14.127-.048.257-.09.388-.125a3.1 3.1 0 00-.45.044 4.007 4.007 0 01-.278.041c-.02 0-.045-.008-.045-.024a.337.337 0 01.184-.126zm2.161-.492c.352-.022.702.067 1 .255.23.168.36.441.346.726-.004.287-.1.565-.274.793-.2.27-.447.5-.729.68a4.03 4.03 0 01-.976.47c-.317.108-.65.165-.985.169a.839.839 0 01-.278-.036.128.128 0 01-.1-.125.384.384 0 01.028-.12c.024-.065.053-.128.087-.188l.087-.157a12.9 12.9 0 00.1-.184c.153-.287.286-.52.4-.7.111-.182.246-.394.4-.636.154-.242.263-.41.316-.5a.494.494 0 00.08-.221.648.648 0 00-.013-.121l-.014-.077c.162-.014.335-.02.52-.02l.005-.008zm1.779 2.228a.666.666 0 00-.12.22 1.013 1.013 0 00-.031.268c0 .148.03.294.088.429.048.122.116.236.2.337a.3.3 0 00.188.13.667.667 0 00.4-.234c.162-.156.41-.419.742-.788-.11.248-.177.513-.2.783a.47.47 0 00.057.258.21.21 0 00.189.087 2.49 2.49 0 001.238-.96v-.208c-.199.221-.46.378-.749.448a.215.215 0 01-.232-.253.482.482 0 01.066-.26c.045-.071.122-.181.233-.33a.727.727 0 00.166-.306.259.259 0 00-.021-.094 4.55 4.55 0 00-.058-.138l-.062-.14a.952.952 0 00.168-.07.1.1 0 00.048-.09.456.456 0 00-.136-.255.192.192 0 00-.134-.06 1.971 1.971 0 00-.755.229 4.144 4.144 0 00-1.008.7 3.017 3.017 0 00-.277.297zm1.206.251c-.188.218-.41.404-.656.552a.374.374 0 01-.133.048.115.115 0 01-.1-.07.379.379 0 01-.037-.179.771.771 0 01.377-.584 7.394 7.394 0 011.267-.691c-.28.39-.52.698-.718.925v-.001zm3.378-.168c.109-.156.209-.318.3-.485a.751.751 0 00.1-.272.281.281 0 00-.066-.19.216.216 0 00-.17-.077.726.726 0 00-.408.186 5.546 5.546 0 00-.523.468l-.518.521a.845.845 0 01-.294.239.074.074 0 01-.072-.092.481.481 0 01.093-.21c.055-.089.12-.17.194-.244a2.6 2.6 0 00.317-.338.5.5 0 00.124-.236.119.119 0 00-.068-.108.331.331 0 00-.167-.039.433.433 0 00-.306.142 3.425 3.425 0 00-.592.856.888.888 0 00-.07.366c-.003.175.033.35.106.509a.3.3 0 00.229.219.171.171 0 00.123-.068 3.34 3.34 0 00.2-.272 3.54 3.54 0 01.254-.33c.27-.3.454-.498.549-.593.054-.07.13-.12.217-.142a.06.06 0 01.068.068.148.148 0 01-.02.085c-.164.273-.29.498-.38.675a1.047 1.047 0 00-.133.367c0 .169.059.253.178.253a.517.517 0 00.355-.212l.27-.309c.114-.133.261-.287.441-.46.18-.173.386-.356.619-.547l-.256.422a8.657 8.657 0 00-.226.395 2.23 2.23 0 00-.127.284.734.734 0 00-.041.236.288.288 0 00.072.2.23.23 0 00.178.08.649.649 0 00.3-.1c.15-.087.29-.188.422-.3.162-.133.342-.295.54-.484v-.245a9.34 9.34 0 01-.436.366.425.425 0 01-.237.1.21.21 0 01-.147-.056.192.192 0 01-.062-.149.493.493 0 01.108-.3c.072-.096.18-.224.325-.385a.837.837 0 00.217-.306.716.716 0 00-.072-.265.207.207 0 00-.15-.162.5.5 0 00-.188.123 8.05 8.05 0 00-.34.3l-.532.487c-.226.206-.496.448-.81.726.21-.27.38-.503.512-.696v-.001zm1.7-.084a.644.644 0 00-.119.22 1.1 1.1 0 00.056.697c.049.122.116.236.2.337a.3.3 0 00.188.13.668.668 0 00.4-.234c.162-.156.41-.419.742-.788a2.433 2.433 0 00-.195.783.485.485 0 00.056.258c.043.06.116.094.19.087a2.491 2.491 0 001.237-.96v-.207c-.198.221-.46.378-.748.448a.215.215 0 01-.233-.253.483.483 0 01.067-.26c.044-.071.122-.181.232-.33a.715.715 0 00.166-.306.278.278 0 00-.02-.094 4.55 4.55 0 00-.058-.138l-.062-.14a.952.952 0 00.168-.07.1.1 0 00.047-.09.459.459 0 00-.135-.255.188.188 0 00-.133-.06 1.974 1.974 0 00-.756.229 4.182 4.182 0 00-1.292.997l.002-.001zm1.207.251c-.188.218-.41.404-.656.552a.371.371 0 01-.134.048.113.113 0 01-.1-.07.378.378 0 01-.038-.179.77.77 0 01.378-.584 7.54 7.54 0 011.266-.691c-.28.39-.52.699-.718.926l.002-.002zm4.025.07l-.827.6c.216-.453.366-.78.449-.979.069-.143.111-.298.125-.456a.167.167 0 00-.043-.125.149.149 0 00-.111-.043.409.409 0 00-.268.149 5.566 5.566 0 00-.376.431c-.112.144-.234.28-.364.408a5.279 5.279 0 01-.455.386.488.488 0 01-.273.109.141.141 0 01-.116-.055.224.224 0 01-.045-.147.733.733 0 01.176-.422 2.18 2.18 0 01.462-.443c.179-.133.372-.245.576-.335a.634.634 0 00.475-.434c0-.107-.073-.16-.219-.161a1.759 1.759 0 00-.824.331c-.172.103-.336.22-.489.35a2.58 2.58 0 00-.343.35c-.08.098-.148.206-.2.321a.728.728 0 00-.064.287c.001.2.052.396.147.572a.412.412 0 00.322.279.724.724 0 00.36-.118c.158-.097.305-.21.439-.337.16-.146.347-.333.561-.56-.1.246-.264.601-.492 1.066l-.256.214a4.292 4.292 0 00-.548.516c-.083.092-.159.19-.227.294-.14.183-.225.4-.249.629a.1.1 0 00.1.127 1.1 1.1 0 00.585-.409 6.58 6.58 0 00.871-1.236l1.135-.933v-.224l.006-.002zm1.125-.289a1.86 1.86 0 00.49-.424.712.712 0 00.161-.429.265.265 0 00-.094-.221.4.4 0 00-.255-.074 1.159 1.159 0 00-.458.113 2.107 2.107 0 00-.516.335 2.48 2.48 0 00-.547.617 1.28 1.28 0 00-.167.651c-.013.229.05.456.177.646a.572.572 0 00.482.236c.25-.006.491-.093.687-.248.27-.208.513-.447.725-.713v-.205a7.979 7.979 0 01-.434.349c-.111.082-.23.152-.357.209a.867.867 0 01-.347.079.33.33 0 01-.26-.113.461.461 0 01-.1-.315v-.086a5.03 5.03 0 00.811-.405l.002-.002zm-.631-.19a1.49 1.49 0 01.255-.3 1.65 1.65 0 01.28-.205.49.49 0 01.2-.079.067.067 0 01.072.079.533.533 0 01-.1.238 1.5 1.5 0 01-.323.34 1.931 1.931 0 01-.526.3.968.968 0 01.14-.371l.002-.002zm2.586 1.186a.753.753 0 00.07.366c.047.082.137.13.231.123a2.038 2.038 0 001.138-.954v-.25a6.53 6.53 0 01-.516.453.552.552 0 01-.3.135c-.133 0-.2-.103-.2-.308.007-.256.069-.507.181-.737.128-.278.273-.548.434-.808.169-.274.339-.554.513-.843.13-.181.22-.39.259-.61a.248.248 0 00-.063-.166.181.181 0 00-.138-.074.474.474 0 00-.229.209 5.374 5.374 0 00-.4.636c-.159.285-.325.61-.5.978a.436.436 0 00-.328-.212 1.49 1.49 0 00-.616.222 2.946 2.946 0 00-.731.559.985.985 0 00-.321.668c0 .154.027.306.078.451.044.131.108.255.19.366a.294.294 0 00.2.143.468.468 0 00.2-.118 4.84 4.84 0 00.387-.357c.158-.16.337-.353.538-.581-.053.232-.08.47-.082.708l.005.001zm.243-1.28c-.043.078-.096.15-.158.214a4.17 4.17 0 01-.292.265l-.258.22-.176.154a1.93 1.93 0 01-.2.161.2.2 0 01-.109.041.109.109 0 01-.085-.038.136.136 0 01-.035-.1c.007-.097.026-.192.059-.284a.579.579 0 01.133-.256c.156-.12.323-.226.5-.313a4.48 4.48 0 01.715-.33.88.88 0 01-.096.268l.002-.002zm10.356 27.588l-.7.376c.211-.408.375-.736.49-.983.11-.234.203-.476.279-.723.022-.075.07-.229.143-.461.073-.232.125-.4.154-.506.03-.1.054-.209.073-.311a1.46 1.46 0 00.03-.277.578.578 0 00-.124-.391.436.436 0 00-.348-.142c-.18.017-.353.074-.508.167-.24.129-.463.285-.665.467-.223.194-.417.42-.577.668a4.12 4.12 0 00-.463 1.08c-.108.363-.166.74-.173 1.118-.004.101.007.202.033.3a.129.129 0 00.135.1.431.431 0 00.222-.1.937.937 0 00.218-.205c.096-.127.209-.27.339-.429a1.7 1.7 0 00.195-.258c0-.018-.021-.02-.062-.005a.755.755 0 00-.249.176.916.916 0 00-.113.14l-.075.116a2.98 2.98 0 01-.014-.195c.007-.156.034-.311.08-.461.062-.214.139-.423.229-.627.092-.214.202-.42.33-.614.113-.175.244-.338.39-.487.116-.121.246-.227.388-.316a.614.614 0 01.271-.106c.076 0 .113.049.113.147a2.36 2.36 0 01-.053.335 7.463 7.463 0 01-.186.7c-.09.291-.219.64-.388 1.046-.17.408-.384.861-.643 1.36a5.73 5.73 0 00-1.314 1.181c-.23.259-.375.581-.415.925 0 .064.024.126.068.173a.23.23 0 00.178.074.493.493 0 00.253-.156c.145-.14.279-.29.4-.451.156-.2.335-.45.536-.749.201-.3.401-.62.6-.962l.909-.513v-.221h.014zM179 94h1v16h-1V94zm5 0h1v16h-1V94zm0 18v-1h4v1h-4zm-4 0h-4v-1h4v1zm0-1v1a2 2 0 104 0v-1h1v1a3 3 0 01-6 0v-1h1z"/><path fill="#E5A600" d="M180 99.119A9.984 9.984 0 01163 92c0-.06.008-.118.009-.178 1.78-.545 3.63-.822 5.491-.822a17.2 17.2 0 0111.5 4.174v3.946-.001zm4 0A9.984 9.984 0 00201 92c0-.06-.008-.118-.009-.178A18.747 18.747 0 00195.5 91a17.2 17.2 0 00-11.5 4.174v3.946-.001z"/><path fill="#D99900" d="M180 97l-.619.2a10.489 10.489 0 01-15.361-4.207A12.913 12.913 0 01175.887 94H180v3zm4 0l.619.2a10.489 10.489 0 0015.361-4.207A12.913 12.913 0 00188.113 94H184v3z"/><path fill="#F2B200" d="M176.373 94a5.458 5.458 0 01-9.746 0h9.746zm11.254 0a5.458 5.458 0 009.746 0h-9.746z"/><path fill="#E5A600" d="M173.95 94a2.5 2.5 0 01-4.9 0h4.9zm16.1 0a2.5 2.5 0 004.9 0h-4.9z"/><path fill="#D99900" d="M182 118c4.125.003 8.24-.423 12.277-1.272a14 14 0 01-24.554 0A59.492 59.492 0 00182 118z"/><path fill="#E5A600" d="M182 68c-12.152 0-23.03-3.12-30.366-8.038C154.487 46.574 166.311 37.002 180 37h3c13.911 0 25.862 9.88 28.48 23.542C204.168 65.125 193.669 68 182 68z"/><path fill="#E5A600" d="M159 82c0 3.96-1.961 7.664-5.237 9.89L151 72v-6a28.858 28.858 0 015.21-16.576A11.969 11.969 0 01161 59l-2 23zm45 0c0 3.96 1.962 7.664 5.238 9.89L212 72v-6a28.86 28.86 0 00-5.21-16.576A11.969 11.969 0 00202 59l2 23z"/><path fill="#D99900" d="M191 38h1v30h-1V38zm-2 0h1v30h-1V38zm-2-1h1v31h-1V37zm-2 0h1v31h-1V37zm-2 0h1v31h-1V37zm-2 0h1v31h-1V37zm-2 0h1v31h-1V37zm14 30V39h1v28h-1zm2 0V40h1v27h-1zm2-1V41h1v25h-1zm2 0V42h1v24h-1zm2-1V44h1v21h-1zm2-11v-9h1v9h-1zm2-3v-4h1v4h-1zm2.62-1.325l.76.651-6 7-.76-.651 6-7zm1 2l.752.659-7 8-.752-.659 7-8zm1 2l.748.664-8 9-.748-.664 8-9zm1 2l.744.669-9 10-.744-.669 9-10zm.985 1.018l.774.633-9 11-.774-.633 9-11zm0 3l.774.633-9 11-.774-.633 9-11zm0 3l.774.633-9 11-.774-.633 9-11zm0 3l.774.633-9 11-.774-.633 9-11zm0 3l.78.625-8 10-.78-.625 8-10zm.016 3.98l.748.664-8 9-.748-.664 8-9zm.02 3.979l.708.707-8 8-.708-.707 8-8zM170 67V39h-1v28h1zm-2 0V40h-1v27h1zm-2-1V41h-1v25h1zm-2 0V42h-1v24h1zm-2-1V44h-1v21h1zm-2-11v-9h-1v9h1zm-2-3v-4h-1v4h1zm-2.62-1.325l-.76.651 6 7 .76-.651-6-7zm-1 2l-.753.659 7 8 .752-.659-6.999-8zm-1 2l-.747.664 8 9 .748-.664-8.001-9zm-1 2l-.743.669 9 10 .744-.669-9.001-10zm-.985 1.018l-.774.633 9 11 .774-.633-9-11zm0 3l-.774.633 9 11 .774-.633-9-11zm0 3l-.774.633 9 11 .774-.633-9-11zm0 3l-.774.633 9 11 .774-.633-9-11zm0 3l-.781.625 8 10 .78-.625-7.999-10zm-.017 3.98l-.747.664 8 9 .748-.664-8.001-9zm-.02 3.979l-.707.707 8 8 .708-.707-8.001-8zM172 67V38h-1v29h1zm2 1V38h-1v30h1zm2 0V37h-1v31h1zm2 0V37h-1v31h1z"/><circle cx="133" cy="119" r="23" fill="#FFF" fill-opacity=".16"/><text fill="#FFF" fill-opacity=".4" font-family="HelveticaNeue-Bold, Helvetica Neue" font-size="8" font-weight="bold"><tspan x="26" y="142">Business Intelligence</tspan></text><text fill="#FFF" fill-opacity=".24" font-family="HelveticaNeue-Bold, Helvetica Neue" font-size="8" font-weight="bold"><tspan x="110.2" y="154">Analytics</tspan></text><text fill="#FFF" fill-opacity=".24" font-family="HelveticaNeue-Bold, Helvetica Neue" font-size="8" font-weight="bold"><tspan x="127.072" y="130">CRO</tspan></text><text fill="#FFF" fill-opacity=".24" font-family="HelveticaNeue-Bold, Helvetica Neue" font-size="8" font-weight="bold"><tspan x="58.744" y="130">Laad Generation</tspan></text><text fill="#FFF" font-family="HelveticaNeue-Bold, Helvetica Neue" font-size="8" font-weight="bold" opacity=".4"><tspan x="112" y="142">Strategy</tspan></text></g></svg>