<svg width="400" height="192" viewBox="0 0 400 192" fill="none" xmlns="http://www.w3.org/2000/svg"><g id="bg-benefits-of-supermark-development" clip-path="url(#clip0_547_11984)"><g id="Header"><g id="back-ovals"><circle id="oval-5" cx="75.5" cy="190.5" r="59" stroke="#fff" stroke-opacity=".4" stroke-dasharray="2"/><circle id="oval-4" cx="199" cy="15" r="37" fill="#fff" fill-opacity=".16"/><circle id="oval-3" cx="148.5" cy="96.5" r="59.5" fill="#fff" fill-opacity=".2"/></g><g id="Jocker"><path id="Outline" fill-rule="evenodd" clip-rule="evenodd" d="M132 201v-7.115c-1.028 1.848-2.276 3.615-3.724 6.615h.212l-.4.5H79.13l14.09-22.221a64.715 64.715 0 006.454-15.443 34.727 34.727 0 012.666-6.745 35.876 35.876 0 012.111-3.968c.443-.871.932-1.97 1.5-3.22.331-.733.681-1.527 1.054-2.331V130c0-11.579 9.42-20.5 21-20.5h15.427c-2.314-5-1.78-9.967 1.511-13.627a125.723 125.723 0 0123.722-19.867c-2.072-1.641-4.078-5.053-5.4-9.222-1.815-5.742-1.917-12.487 1.469-13.621.286-.102.588-.157.892-.163.268 0 .534.033.794.1l-.42-3.031V44a30.176 30.176 0 015.39-17.148l.573-.821.028.27A29.786 29.786 0 01196 14.5h3a29.787 29.787 0 0123.965 11.73l.1-.207.546.892A30.768 30.768 0 01229 43.963v6.106l-.42 3.023c.259-.066.526-.1.794-.1.302 0 .602.048.889.143 3.385 1.134 3.283 7.848 1.467 13.589a24.454 24.454 0 01-3.571 7.24c15.178 8.74 26.78 21.779 26.9 21.911 3.292 3.661 3.825 8.628 1.511 13.628H266c11.579 0 21 8.921 21 20.5v71H132V201z" fill="#E08300"/><g id="Body"><path id="R_Hand_Outline" opacity=".5" fill-rule="evenodd" clip-rule="evenodd" d="M80.008 201l14.055-21.931c2.8-4.749 5.76-11.791 6.589-15.648.828-3.857 5.608-12.085 4.513-10.019C109.14 145.9 116.992 118.92 135 146c15.753 23.688-10.165 56.916-8.6 55H80.008z" fill="#E08300"/><path id="R_Hand" fill-rule="evenodd" clip-rule="evenodd" d="M81.692 201l13.182-21.275c2.864-4.879 5.867-12.168 6.713-16.127.607-2.836 3.661-8.621 4.38-9.854l.033-.014.054-.118c.494-.946 1.027-2.144 1.645-3.523 2.691-6 6.757-15.082 12.85-15.082 3.974 0 8.524 4.073 13.524 11.617 12.073 18.216-2.95 44.535-8.858 54.376H81.692z" fill="#F18D00"/><path id="Front" fill="#F18D00" d="M133 147h153v54H133z"/><path id="Front_Outlines" fill-rule="evenodd" clip-rule="evenodd" d="M246 147h1v54h-1v-54zm-113 0h1v54h-1v-54zm152 0h1v54h-1v-54z" fill="#E08300"/><path id="Shoulders_Outline" fill-rule="evenodd" clip-rule="evenodd" d="M108 147v-17c0-11.046 8.954-20 20-20h138c11.046 0 20 8.954 20 20v17H108z" fill="#E08300"/><path id="Shoulders" fill-rule="evenodd" clip-rule="evenodd" d="M109 146v-16.5c0-10.477 8.523-18.5 19-18.5h138c10.477 0 19 8.023 19 18.5V146H109z" fill="#F18D00"/><path id="Body_2" fill-rule="evenodd" clip-rule="evenodd" d="M212.347 90.045l9.008 14.744c2.878 4.711 3.52 12.726 1.426 17.813l-14.934 36.286c-2.094 5.086-2.287 13.48-.431 18.652L214.9 201h-29.8l7.486-23.46c1.856-5.172 1.663-13.566-.431-18.652L177.219 122.6c-2.094-5.087-1.452-13.1 1.426-17.813l9.008-14.744a8.306 8.306 0 001.17-3.043h22.354a8.297 8.297 0 001.17 3.045z" fill="#FF9807"/><path id="Collar_B_Outline" fill-rule="evenodd" clip-rule="evenodd" d="M187.208 89.875l-8.843 14.819c-2.826 4.735-3.456 12.79-1.4 17.9L189.993 155l-43.936-44.119a10.771 10.771 0 01-.371-14.59s12.185-13.539 28.127-22.3c0 .004 16.187 11.209 13.395 15.884zm25.584 0l8.843 14.819c2.826 4.735 3.456 12.79 1.4 17.9L210.007 155l43.936-44.119a10.771 10.771 0 00.371-14.59s-12.185-13.539-28.127-22.3c0 .004-16.187 11.209-13.395 15.884z" fill="#E08300"/><path id="Collar_B" fill-rule="evenodd" clip-rule="evenodd" d="M146.744 110.179a9.734 9.734 0 01-.335-13.216c.119-.132 11.987-13.209 27.333-21.787 10.238 7.188 13.546 12.61 12.6 14.191l-8.842 14.817c-2.974 4.981-3.633 13.408-1.47 18.787l11.2 27.838-40.486-40.63zm77.229 12.792c2.164-5.379 1.5-13.806-1.47-18.786l-8.847-14.818c-.944-1.581 2.364-7 12.6-14.19 15.357 8.584 27.215 21.655 27.334 21.787a9.736 9.736 0 01-.336 13.215l-40.481 40.63 11.2-27.838z" fill="#F18D00"/><path id="Collar_F_Outline" fill-rule="evenodd" clip-rule="evenodd" d="M150.931 131.988l22.353-17.455a8.82 8.82 0 012.9-1.525 20.567 20.567 0 001.108 9.191l14.635 36.056a20.986 20.986 0 011.062 3.745l-40.9-19.554c-4.964-2.374-5.489-7.079-1.158-10.458zm98.138 0l-22.353-17.455a8.83 8.83 0 00-2.9-1.525 20.567 20.567 0 01-1.108 9.191l-14.635 36.056a20.903 20.903 0 00-1.062 3.745l40.9-19.554c4.964-2.374 5.489-7.079 1.158-10.458z" fill="#E08300"/><path id="Collar_F" fill-rule="evenodd" clip-rule="evenodd" d="M152.513 141.54c-2.08-.994-3.323-2.439-3.5-4.066-.177-1.627.721-3.292 2.528-4.7l22.359-17.461a8.415 8.415 0 011.2-.784 20.348 20.348 0 001.269 8.04L191 158.632c.204.511.381 1.032.531 1.562l-39.018-18.654zm55.955 18.66c.149-.53.326-1.051.531-1.562l14.638-36.064a20.365 20.365 0 001.268-8.04c.422.226.823.488 1.2.784l22.357 17.458c1.806 1.411 2.7 3.081 2.527 4.7-.173 1.619-1.421 3.072-3.5 4.066L208.468 160.2z" fill="#F18D00"/><path id="Tattoo" fill-rule="evenodd" clip-rule="evenodd" d="M199 137c.067 3.05-2 8-2 8a25.72 25.72 0 000-7c-.576-2.932-13.538-9.66-14-14-.225-2.112-2.837-1.927-5.458-1.185l-.25-.616a14.225 14.225 0 01-.543-1.711A8.399 8.399 0 01181 119c2.116-.051 3.777-.12 5.14-.24A29.867 29.867 0 01189 124c.433 1.659-.041 3.237 1 5s8.8 7.081 8 11c1.588-5.733-5.512-6.251-6-11-.488-4.749.706-3.7-1-7a33.182 33.182 0 00-2.214-3.63A8.583 8.583 0 00190 118c1.729-.7 3.923-.565 4 2 .077 2.565-3.467 8.062-1 10 2.467 1.938 5.933 3.95 6 7zm20-27.382l2.857 2.875-2.857.959-.4-3.614c-.867.415-2.971 1.051-4.363-1.657-.8-1.553-.072-5.575.476-7.187.38 2.3 6.752 5.883 7.143 7.667.391 1.784-2.856.957-2.856.957zm-3.619 6.188a12.426 12.426 0 002.381-1.438l2.457 2.473c-.523.086 1.631-.468 3.678-1.1-.008.374-.043.738-.069 1.107-.619.193-2.873.973-3.679 1.282.299.611.44 1.287.41 1.967.032 1.116.089 1.479 1.072 1.693.383.088.773.137 1.166.145l-.388 1.014a7.014 7.014 0 01-.989-.143c-2.359-.515-1.7-2.44-1.949-3.574a3.639 3.639 0 00-.288-.776 5.601 5.601 0 01-2.85.227c-1.834-.5-3.333-2.875-3.333-2.875s.78.774 2.377-.002h.004zm-1.9 6.036l1.249 3.742.312-.208-.542-5.326.905-.341 5 7-2.13-2.293-2.776 1.851v1.656l.973 2.919-.972-2.142v1.347l-.172-1.725-.364-.8-3.233.808L214 134l-6-10h2l1.358 3.395 3.187-.8-2.019-4.44.955-.313zm2.026 3.224l2.131-1.421-2.138-2.355.007 3.776zm2.007 9.934l-.3.732-1.633-2.45.832-.554 1.101 2.272zm-22.014 9a4.5 4.5 0 110 9 4.5 4.5 0 010-9zm0 1a3.5 3.5 0 110 7 3.5 3.5 0 010-7z" fill="#F18D00"/></g><g id="Head" fill-rule="evenodd" clip-rule="evenodd"><path id="Face_Outline" d="M192.933 19h10.233c18.468 0 26.8 33.5 18.752 58.638l-4.642 14.505C213.758 103.137 205.958 112 199.631 112H196.2c-6.328 0-14.113-8.863-17.6-19.856L174 77.639C166.038 52.51 174.462 19 192.933 19zm-6.752 87.005l-5.629-17.235a5.422 5.422 0 00-4.177-3.658l-.34-1.074a6.419 6.419 0 015.452 4.417l6.206 19c.023.07.037.14.057.211a27.57 27.57 0 01-1.569-1.661zm33.338-20.871a5.43 5.43 0 00-4.058 3.636l-5.537 16.924a28.358 28.358 0 01-1.62 1.775v-.013l6.217-19a6.42 6.42 0 015.339-4.395l-.341 1.073zm-46.335-10.365a2.315 2.315 0 01-1.234 1.125c-2.363.791-5.823-3.45-7.727-9.474s-1.532-11.549.832-12.34c1.752-.587 4.106 1.6 5.983 5.218.023.89 1.996 14.902 2.146 15.471zm48.632 0c.257.515.697.916 1.234 1.125 2.363.791 5.823-3.45 7.727-9.474s1.532-11.549-.832-12.34c-1.752-.587-4.106 1.6-5.983 5.218-.023.89-1.996 14.902-2.146 15.471z" fill="#E08300"/><path id="Face" d="M196.2 111.5c-5.829 0-13.3-8.845-16.645-19.409l-4.6-14.63c-5.415-17.08-3.224-38.345 5.095-49.715 3.559-4.863 8.013-7.246 12.88-7.246h10.232c4.862 0 9.305 2.316 12.847 7.17 8.294 11.367 10.424 32.7 4.955 49.789l-4.643 14.692c-3.382 10.565-10.87 19.349-16.693 19.349H196.2z" fill="#FF9807"/><path id="Ears" d="M222.82 74.487c.13.206.322.366.547.459.089.03.181.044.275.043 1.632 0 4.5-3.564 6.182-8.87 1.924-6.085 1.169-10.633-.2-11.09a.858.858 0 00-.276-.043c-1.144 0-2.9 1.78-4.42 4.659.027-.699-2.205 15.215-2.108 14.842zm-50.066-1.441a2.449 2.449 0 01-1.121 1.9.85.85 0 01-.275.043c-1.632 0-4.505-3.564-6.182-8.87-1.924-6.085-1.168-10.633.2-11.09a.862.862 0 01.275-.043c1.43 0 3.812 2.738 5.51 6.985-.061-.892 1.727 11.653 1.593 11.075z" fill="#FF9807"/><path id="Cheekbones" d="M186.181 106.005l-5.629-17.235a5.42 5.42 0 00-4.177-3.658l-.34-1.074a6.417 6.417 0 015.452 4.417l6.206 19c.023.07.037.14.057.211a27.57 27.57 0 01-1.569-1.661zm33.338-20.871a5.43 5.43 0 00-4.058 3.636l-5.537 16.924a28.358 28.358 0 01-1.62 1.775v-.013l6.217-19a6.422 6.422 0 015.339-4.395l-.341 1.073z" fill="#F18D00"/><path id="Tattoo_2" d="M187.565 52.19c.145-.067.294-.126.445-.178.175-.061.361-.118.557-.169.177-.046.358-.08.54-.1a16.119 16.119 0 00-1.712 2.745 1.307 1.307 0 00-.131.602.68.68 0 00.031.237.17.17 0 00.1.108.59.59 0 00.2.027 4.165 4.165 0 001.374-.243 4.6 4.6 0 001.253-.658c.355-.26.656-.586.889-.959a2.12 2.12 0 00.333-1.121 1.837 1.837 0 00-.122-.684 1.395 1.395 0 00-.346-.514 1.563 1.563 0 00-.561-.327 2.228 2.228 0 00-.735-.116c-.265 0-.53.03-.789.086a5.44 5.44 0 00-1.334.45 2.28 2.28 0 00-.384.227.992.992 0 00-.294.817.18.18 0 00.174.226.418.418 0 00.13-.026c.05-.017.133-.051.248-.1.115-.049.227-.1.335-.14.127-.049.257-.09.388-.125a3.103 3.103 0 00-.45.044 4.007 4.007 0 01-.278.041c-.02 0-.045-.008-.045-.024a.335.335 0 01.184-.126zm2.161-.492c.352-.022.702.067 1 .255.23.168.36.441.346.726-.004.287-.1.565-.274.793-.199.27-.447.5-.729.68a4.06 4.06 0 01-.976.47c-.317.108-.65.165-.985.169a.839.839 0 01-.278-.036.129.129 0 01-.1-.125.381.381 0 01.028-.12c.024-.065.053-.128.087-.188l.087-.157.1-.184c.153-.287.286-.52.4-.7.111-.182.246-.394.4-.636.154-.242.263-.41.316-.5a.49.49 0 00.08-.221.701.701 0 00-.013-.121l-.014-.077c.162-.014.335-.02.52-.02l.005-.008zm1.779 2.228a.663.663 0 00-.12.22 1.09 1.09 0 00.057.697c.048.122.116.236.2.337a.3.3 0 00.188.13.667.667 0 00.4-.234 17.5 17.5 0 00.742-.788 2.44 2.44 0 00-.2.783.47.47 0 00.057.258.21.21 0 00.189.087 2.494 2.494 0 001.238-.96v-.208c-.199.221-.46.378-.749.448a.216.216 0 01-.232-.253.484.484 0 01.066-.26c.045-.071.122-.181.233-.33a.734.734 0 00.166-.306.254.254 0 00-.021-.094 4.55 4.55 0 00-.058-.138l-.062-.14a.97.97 0 00.168-.07.1.1 0 00.048-.09.449.449 0 00-.136-.255.191.191 0 00-.134-.06 1.97 1.97 0 00-.755.229 4.133 4.133 0 00-1.008.7 3.052 3.052 0 00-.277.297zm1.206.251a2.69 2.69 0 01-.656.552.375.375 0 01-.133.048.115.115 0 01-.1-.07.382.382 0 01-.037-.179.772.772 0 01.377-.584 7.398 7.398 0 011.267-.691c-.28.39-.519.698-.718.925v-.001zm3.378-.168c.109-.156.209-.318.3-.485a.739.739 0 00.1-.272.28.28 0 00-.066-.19.216.216 0 00-.17-.077.727.727 0 00-.408.186 5.514 5.514 0 00-.523.468l-.518.521a.847.847 0 01-.294.239.073.073 0 01-.058-.028.07.07 0 01-.014-.064.491.491 0 01.093-.21c.055-.089.12-.17.194-.244.116-.103.222-.216.317-.338a.498.498 0 00.124-.236.119.119 0 00-.068-.108.33.33 0 00-.167-.039.433.433 0 00-.306.142 3.411 3.411 0 00-.592.856.884.884 0 00-.07.366c-.003.175.033.35.106.509a.3.3 0 00.229.219.17.17 0 00.123-.068c.071-.087.138-.178.2-.272.078-.115.163-.225.254-.33.271-.3.454-.498.549-.593a.392.392 0 01.217-.142.06.06 0 01.051.017.06.06 0 01.017.051.149.149 0 01-.02.085c-.164.273-.291.498-.38.675a1.047 1.047 0 00-.133.367c0 .169.059.253.178.253a.517.517 0 00.355-.212l.27-.309a6.71 6.71 0 01.441-.46c.18-.173.386-.356.619-.547l-.256.422a8.318 8.318 0 00-.226.395 2.263 2.263 0 00-.127.284.758.758 0 00-.041.236.288.288 0 00.072.2.23.23 0 00.178.08.648.648 0 00.3-.1c.149-.087.291-.188.422-.3a9.92 9.92 0 00.54-.484v-.245a9.34 9.34 0 01-.436.366.427.427 0 01-.237.1.21.21 0 01-.147-.056.191.191 0 01-.062-.149.496.496 0 01.108-.3c.072-.096.18-.224.325-.385a.83.83 0 00.217-.306.72.72 0 00-.072-.265.208.208 0 00-.15-.162.505.505 0 00-.188.123 8.05 8.05 0 00-.34.3l-.532.487c-.226.206-.496.448-.81.726.21-.27.381-.503.512-.696v-.001zm1.7-.084a.64.64 0 00-.119.22 1.109 1.109 0 00.056.697c.049.122.116.236.2.337a.3.3 0 00.188.13.668.668 0 00.4-.234 17.5 17.5 0 00.742-.788 2.437 2.437 0 00-.195.783.482.482 0 00.056.258.21.21 0 00.19.087 2.488 2.488 0 001.237-.96v-.207a1.472 1.472 0 01-.748.448.216.216 0 01-.233-.253.484.484 0 01.067-.26c.044-.071.122-.181.232-.33a.71.71 0 00.166-.306.276.276 0 00-.02-.094 4.55 4.55 0 00-.058-.138l-.062-.14a.97.97 0 00.168-.07.1.1 0 00.047-.09.449.449 0 00-.135-.255.187.187 0 00-.133-.06 1.973 1.973 0 00-.756.229 4.18 4.18 0 00-1.292.997l.002-.001zm1.207.251a2.69 2.69 0 01-.656.552.372.372 0 01-.134.048.113.113 0 01-.1-.07.382.382 0 01-.038-.179.77.77 0 01.378-.584 7.54 7.54 0 011.266-.691c-.281.39-.52.699-.718.926l.002-.002zm4.025.07l-.827.6c.216-.453.366-.78.449-.979.069-.143.111-.298.125-.456a.169.169 0 00-.043-.125.15.15 0 00-.111-.043.41.41 0 00-.268.149 5.516 5.516 0 00-.376.431c-.112.144-.234.28-.364.408a5.222 5.222 0 01-.455.386.49.49 0 01-.273.109.142.142 0 01-.116-.055.222.222 0 01-.045-.147.733.733 0 01.176-.422 2.17 2.17 0 01.462-.443c.179-.133.372-.245.576-.335a.635.635 0 00.475-.434c0-.107-.073-.16-.219-.161a1.761 1.761 0 00-.824.331c-.172.103-.336.22-.489.35a2.59 2.59 0 00-.343.35 1.403 1.403 0 00-.2.321.729.729 0 00-.064.287c.001.2.052.396.147.572a.411.411 0 00.322.279.724.724 0 00.36-.118c.158-.097.305-.21.439-.337.16-.146.347-.333.561-.56-.1.246-.264.601-.492 1.066l-.256.214a4.162 4.162 0 00-.548.516 2.5 2.5 0 00-.227.294c-.139.183-.225.4-.249.629a.098.098 0 00.018.089c.019.025.05.04.082.038a1.1 1.1 0 00.585-.409 6.58 6.58 0 00.871-1.236l1.135-.933v-.224l.006-.002zm1.125-.289a1.86 1.86 0 00.49-.424.716.716 0 00.161-.429.264.264 0 00-.094-.221.4.4 0 00-.255-.074 1.157 1.157 0 00-.458.113 2.122 2.122 0 00-.516.335c-.215.174-.4.382-.547.617a1.28 1.28 0 00-.167.651 1.05 1.05 0 00.177.646.573.573 0 00.482.236c.25-.006.491-.093.687-.248.269-.208.513-.447.725-.713v-.205a7.867 7.867 0 01-.434.349 1.934 1.934 0 01-.357.209.868.868 0 01-.347.079.33.33 0 01-.26-.113.46.46 0 01-.1-.315v-.086a5.03 5.03 0 00.811-.405l.002-.002zm-.631-.19a1.49 1.49 0 01.255-.3 1.65 1.65 0 01.28-.205.489.489 0 01.2-.079.067.067 0 01.072.079.533.533 0 01-.1.238 1.49 1.49 0 01-.323.34 1.925 1.925 0 01-.526.3.971.971 0 01.14-.371l.002-.002zm2.586 1.186a.745.745 0 00.07.366c.047.082.137.13.231.123a2.038 2.038 0 001.138-.954v-.25a6.47 6.47 0 01-.516.453.554.554 0 01-.3.135c-.133 0-.2-.103-.2-.308.007-.256.069-.507.181-.737.128-.278.273-.548.434-.808.169-.274.339-.554.513-.843.131-.181.219-.39.259-.61a.248.248 0 00-.063-.166.18.18 0 00-.138-.074.473.473 0 00-.229.209 5.33 5.33 0 00-.4.636c-.159.285-.325.61-.5.978a.436.436 0 00-.328-.212c-.219.028-.43.103-.616.222a2.956 2.956 0 00-.731.559.985.985 0 00-.321.668c0 .154.027.306.078.451.044.131.108.255.19.366a.296.296 0 00.2.143.467.467 0 00.2-.118 4.84 4.84 0 00.387-.357c.158-.16.337-.353.538-.581-.052.232-.08.47-.082.708l.005.001zm.243-1.28c-.043.078-.096.15-.158.214a4.17 4.17 0 01-.292.265l-.258.22-.176.154a1.93 1.93 0 01-.2.161.198.198 0 01-.109.041.108.108 0 01-.085-.038.136.136 0 01-.035-.1c.007-.097.026-.193.059-.284a.58.58 0 01.133-.256c.156-.12.323-.226.5-.313a4.54 4.54 0 01.715-.33.883.883 0 01-.096.268l.002-.002zM216.7 81.261l-.7.376c.211-.408.375-.736.49-.983.11-.234.203-.476.279-.723.022-.075.07-.229.143-.461.073-.232.125-.4.154-.506.03-.1.054-.209.073-.311.019-.091.029-.184.03-.277a.576.576 0 00-.124-.391.436.436 0 00-.348-.142c-.18.017-.353.074-.508.167a3.422 3.422 0 00-.665.467c-.223.194-.417.42-.577.668a4.13 4.13 0 00-.463 1.08c-.108.363-.166.74-.173 1.118-.004.101.007.202.033.3a.13.13 0 00.135.1.432.432 0 00.222-.1.935.935 0 00.218-.205c.096-.127.209-.27.339-.429.073-.08.138-.166.195-.258 0-.018-.021-.02-.062-.005a.782.782 0 00-.249.176.923.923 0 00-.113.14l-.075.116a2.98 2.98 0 01-.014-.195 1.85 1.85 0 01.08-.461c.062-.214.139-.423.229-.627.092-.214.202-.42.33-.614.113-.175.244-.338.39-.487.116-.121.246-.227.388-.316a.618.618 0 01.271-.106c.076 0 .113.049.113.147a2.233 2.233 0 01-.053.335 7.687 7.687 0 01-.186.7c-.089.291-.219.64-.388 1.046-.169.408-.384.861-.643 1.36a5.73 5.73 0 00-1.314 1.181c-.23.258-.375.581-.415.925a.247.247 0 00.068.173c.046.05.111.076.178.074a.494.494 0 00.253-.156c.145-.14.279-.29.4-.451.156-.2.335-.45.536-.749.201-.3.401-.62.6-.962l.909-.513v-.221h.014z" fill="#E08300"/><path id="Nose" d="M195 72h1v16h-1V72zm5 0h1v16h-1V72zm0 18v-1h4v1h-4zm-4 0h-4v-1h4v1zm0-1v1a2 2 0 104 0v-1h1v1a3 3 0 11-6 0v-1h1z" fill="#E08300"/><path id="Eyes_Shade_Outer" d="M196 77.119A9.983 9.983 0 01179 70c0-.06.008-.118.009-.178A18.744 18.744 0 01184.5 69a17.2 17.2 0 0111.5 4.174v3.946-.001zm4 0A9.983 9.983 0 00217 70c0-.06-.008-.118-.009-.178A18.744 18.744 0 00211.5 69a17.2 17.2 0 00-11.5 4.174v3.946-.001z" fill="#F18D00"/><path id="Eye_shade_inner" d="M196 75l-.619.2a10.49 10.49 0 01-15.361-4.207A12.913 12.913 0 01191.887 72H196v3zm4 0l.619.2a10.49 10.49 0 0015.361-4.207A12.913 12.913 0 00204.113 72H200v3z" fill="#E08300"/><path id="Eyeballs" d="M192.373 72a5.458 5.458 0 01-9.746 0h9.746zm11.254 0a5.458 5.458 0 009.746 0h-9.746z" fill="#FF9807"/><path id="Irises" d="M189.95 72a2.5 2.5 0 01-4.9 0h4.9zm16.1 0a2.5 2.5 0 004.9 0h-4.9z" fill="#F18D00"/><path id="Mouth" d="M198 96c4.126.003 8.24-.424 12.277-1.272a14 14 0 01-24.554 0A59.495 59.495 0 00198 96z" fill="#E08300"/></g><g id="Hair" fill-rule="evenodd" clip-rule="evenodd"><path id="Head_Top" d="M198 46c-12.152 0-23.03-3.12-30.366-8.038C170.487 24.574 182.311 15.002 196 15h3c13.911 0 25.862 9.88 28.48 23.542C220.168 43.125 209.669 46 198 46z" fill="#F18D00"/><path id="Head_Side" d="M175 60a11.96 11.96 0 01-5.237 9.89L167 50v-6a28.85 28.85 0 015.21-16.576A11.97 11.97 0 01177 37l-2 23zm45 0c0 3.96 1.961 7.664 5.238 9.89L228 50v-6a28.864 28.864 0 00-5.21-16.576A11.968 11.968 0 00218 37l2 23z" fill="#F18D00"/><path id="Hair_2" d="M207 16h1v30h-1V16zm-2 0h1v30h-1V16zm-2-1h1v31h-1V15zm-2 0h1v31h-1V15zm-2 0h1v31h-1V15zm-2 0h1v31h-1V15zm-2 0h1v31h-1V15zm14 30V17h1v28h-1zm2 0V18h1v27h-1zm2-1V19h1v25h-1zm2 0V20h1v24h-1zm2-1V22h1v21h-1zm2-11v-9h1v9h-1zm2-3v-4h1v4h-1zm2.62-1.325l.76.651-6 7-.76-.651 6-7zm1 2l.752.659-7 8-.752-.659 7-8zm1 2l.748.664-8 9-.748-.664 8-9zm1 2l.744.669-9 10-.744-.669 9-10zm.985 1.018l.774.633-9 11-.774-.633 9-11zm0 3l.774.633-9 11-.774-.633 9-11zm0 3l.774.633-9 11-.774-.633 9-11zm0 3l.774.633-9 11-.774-.633 9-11zm0 3l.78.625-8 10-.78-.625 8-10zm.016 3.98l.748.664-8 9-.748-.664 8-9zm.02 3.979l.708.707-8 8-.708-.707 8-8zM186 45V17h-1v28h1zm-2 0V18h-1v27h1zm-2-1V19h-1v25h1zm-2 0V20h-1v24h1zm-2-1V22h-1v21h1zm-2-11v-9h-1v9h1zm-2-3v-4h-1v4h1zm-2.62-1.325l-.76.651 6 7 .76-.651-6-7zm-1 2l-.753.659 7 8 .752-.659-6.999-8zm-1 2l-.747.664 8 9 .748-.664-8.001-9zm-1 2l-.743.669 9 10 .744-.669-9.001-10zm-.985 1.018l-.774.633 9 11 .774-.633-9-11zm0 3l-.774.633 9 11 .774-.633-9-11zm0 3l-.774.633 9 11 .774-.633-9-11zm0 3l-.774.633 9 11 .774-.633-9-11zm0 3l-.781.625 8 10 .78-.625-7.999-10zm-.017 3.98l-.747.664 8 9 .748-.664-8.001-9zm-.02 3.979l-.707.707 8 8 .708-.707-8.001-8zM188 45V16h-1v29h1zm2 1V16h-1v30h1zm2 0V15h-1v31h1zm2 0V15h-1v31h1z" fill="#E08300"/></g></g><circle id="oval-4_2" cx="149" cy="97" r="23" fill="#fff" fill-opacity=".16"/><path id="Business Intelligenc" d="M45.215 120c1.203 0 1.95-.625 1.95-1.613 0-.727-.544-1.289-1.29-1.344v-.07a1.22 1.22 0 001.02-1.203c0-.872-.653-1.407-1.747-1.407h-2.464V120h2.53zm-1.352-4.734h.985c.562 0 .886.269.886.718 0 .454-.347.715-.984.715h-.887v-1.433zm0 3.832v-1.602h1.024c.695 0 1.074.274 1.074.789 0 .527-.367.813-1.047.813h-1.05zm8.153-3.407h-1.137v2.485c0 .574-.305.929-.871.929-.524 0-.793-.304-.793-.898v-2.516h-1.137v2.809c0 1 .578 1.594 1.508 1.594.652 0 1.055-.285 1.258-.785h.07V120h1.102v-4.309zm1.043 1.266c0 .664.406 1.063 1.242 1.246l.781.176c.379.082.543.211.543.422 0 .277-.305.461-.746.461-.453 0-.73-.168-.816-.461h-1.11c.078.828.766 1.293 1.902 1.293 1.13 0 1.899-.563 1.899-1.422 0-.645-.375-.996-1.211-1.18l-.809-.176c-.398-.089-.582-.218-.582-.429 0-.274.301-.457.707-.457.422 0 .684.172.743.449h1.05c-.062-.824-.707-1.281-1.8-1.281-1.075 0-1.793.543-1.793 1.359zM57.695 120h1.137v-4.309h-1.137V120zm.57-4.91c.407 0 .672-.238.672-.574 0-.34-.265-.575-.671-.575-.41 0-.672.235-.672.575 0 .336.261.574.672.574zm1.72 4.91h1.136v-2.484c0-.567.324-.938.852-.938.539 0 .793.313.793.906V120h1.136v-2.785c0-1.031-.515-1.617-1.472-1.617-.637 0-1.075.3-1.274.785h-.07v-.692h-1.102V120zm6.886-3.531c.531 0 .875.355.898.926h-1.835c.039-.559.41-.926.937-.926zm.922 2.304c-.121.286-.43.446-.879.446-.594 0-.969-.399-.984-1.039v-.059h2.957v-.348c0-1.367-.75-2.175-2.02-2.175-1.281 0-2.07.867-2.07 2.269 0 1.399.773 2.227 2.086 2.227 1.055 0 1.797-.508 1.969-1.321h-1.059zm1.93-1.816c0 .664.406 1.063 1.242 1.246l.781.176c.379.082.543.211.543.422 0 .277-.305.461-.746.461-.453 0-.73-.168-.816-.461h-1.11c.078.828.766 1.293 1.902 1.293 1.13 0 1.899-.563 1.899-1.422 0-.645-.375-.996-1.211-1.18l-.809-.176c-.398-.089-.582-.218-.582-.429 0-.274.301-.457.707-.457.422 0 .684.172.743.449h1.05c-.062-.824-.707-1.281-1.8-1.281-1.075 0-1.793.543-1.793 1.359zm4.453 0c0 .664.406 1.063 1.242 1.246l.781.176c.38.082.543.211.543.422 0 .277-.305.461-.746.461-.453 0-.73-.168-.816-.461h-1.11c.078.828.766 1.293 1.903 1.293 1.129 0 1.898-.563 1.898-1.422 0-.645-.375-.996-1.21-1.18l-.81-.176c-.398-.089-.582-.218-.582-.429 0-.274.301-.457.708-.457.421 0 .683.172.742.449h1.05c-.062-.824-.707-1.281-1.8-1.281-1.075 0-1.793.543-1.793 1.359zM82.16 120v-5.637h-1.18V120h1.18zm1.254 0h1.137v-2.484c0-.567.324-.938.851-.938.54 0 .793.313.793.906V120h1.137v-2.785c0-1.031-.516-1.617-1.473-1.617-.636 0-1.074.3-1.273.785h-.07v-.692h-1.102V120zm5.348-5.332v1.066h-.672v.895h.672v2.207c0 .84.414 1.18 1.46 1.18.22 0 .43-.024.571-.051v-.867c-.11.011-.188.015-.336.015-.387 0-.559-.172-.559-.547v-1.937h.895v-.895h-.895v-1.066h-1.136zm4.812 1.801c.532 0 .875.355.899.926h-1.836c.039-.559.41-.926.937-.926zm.922 2.304c-.121.286-.43.446-.879.446-.594 0-.969-.399-.984-1.039v-.059h2.957v-.348c0-1.367-.75-2.175-2.02-2.175-1.28 0-2.07.867-2.07 2.269 0 1.399.773 2.227 2.086 2.227 1.055 0 1.797-.508 1.969-1.321h-1.059zM96.563 120h1.136v-5.953h-1.136V120zm2.359 0h1.137v-5.953h-1.137V120zm2.328 0h1.137v-4.309h-1.137V120zm.57-4.91c.407 0 .672-.238.672-.574 0-.34-.265-.575-.672-.575-.41 0-.672.235-.672.575 0 .336.262.574.672.574zm3.633 3.949c-.617 0-.969-.473-.969-1.234 0-.754.356-1.231.969-1.231s.985.477.985 1.235c0 .757-.368 1.23-.985 1.23zm-.015 2.594c1.3 0 2.124-.637 2.124-1.649v-4.293h-1.101v.692h-.07c-.231-.473-.727-.762-1.309-.762-1.094 0-1.766.852-1.766 2.188 0 1.296.668 2.129 1.743 2.129.605 0 1.058-.243 1.296-.696h.071v.797c0 .484-.356.766-.965.766-.492 0-.813-.168-.871-.434h-1.125c.07.758.828 1.262 1.973 1.262zm5.128-5.164c.532 0 .875.355.899.926h-1.836c.039-.559.41-.926.937-.926zm.922 2.304c-.121.286-.429.446-.879.446-.593 0-.968-.399-.984-1.039v-.059h2.957v-.348c0-1.367-.75-2.175-2.02-2.175-1.281 0-2.07.867-2.07 2.269 0 1.399.774 2.227 2.086 2.227 1.055 0 1.797-.508 1.969-1.321h-1.059zm2.028 1.227h1.136v-2.484c0-.567.325-.938.852-.938.539 0 .793.313.793.906V120h1.137v-2.785c0-1.031-.516-1.617-1.473-1.617-.637 0-1.074.3-1.273.785h-.071v-.692h-1.101V120zm8.836-2.789c-.094-.981-.778-1.613-1.918-1.613-1.348 0-2.106.808-2.106 2.238 0 1.445.762 2.258 2.106 2.258 1.121 0 1.824-.621 1.918-1.586h-1.063c-.086.426-.391.652-.855.652-.61 0-.957-.465-.957-1.324 0-.848.343-1.305.957-1.305.484 0 .777.27.855.68h1.063zm2.753-.742c.532 0 .875.355.899.926h-1.836c.039-.559.41-.926.937-.926zm.922 2.304c-.121.286-.429.446-.879.446-.593 0-.968-.399-.984-1.039v-.059h2.957v-.348c0-1.367-.75-2.175-2.019-2.175-1.282 0-2.071.867-2.071 2.269 0 1.399.774 2.227 2.086 2.227 1.055 0 1.797-.508 1.969-1.321h-1.059z" fill="#fff" fill-opacity=".4"/><path id="Analytics" d="M123.703 132h1.238l.418-1.367h1.989l.418 1.367h1.242l-1.961-5.637h-1.387L123.703 132zm2.617-4.512h.071l.687 2.262h-1.449l.691-2.262zm3.532 4.512h1.14v-2.488c0-.582.32-.961.848-.961.539 0 .789.32.789.926V132h1.141v-2.781c0-1.028-.516-1.614-1.473-1.614-.613 0-1.039.293-1.235.758h-.07v-.664h-1.14V132zm6.195.066c.562 0 1.015-.238 1.234-.636h.071v.57h1.125v-2.938c0-.917-.645-1.457-1.786-1.457-1.082 0-1.793.5-1.882 1.254l-.004.036h1.054l.008-.016c.09-.254.352-.399.762-.399.469 0 .723.211.723.582v.356l-1.04.062c-1.07.063-1.667.516-1.667 1.29v.007c0 .782.582 1.289 1.402 1.289zm-.289-1.359v-.008c0-.312.238-.496.726-.527l.868-.055v.317c0 .453-.395.8-.922.8-.395 0-.672-.199-.672-.527zm3.875 1.293h1.14v-5.945h-1.14V132zm2.832 1.516c1.062 0 1.629-.383 2.012-1.52l1.464-4.297h-1.203l-.902 3.258h-.078l-.903-3.258h-1.253l1.511 4.301-.039.164c-.082.336-.316.492-.722.492a3.65 3.65 0 01-.297-.011v.859c.133.008.277.012.41.012zm6.055-1.5c.218 0 .429-.024.57-.051v-.848c-.11.012-.188.02-.336.02-.387 0-.551-.172-.551-.559v-2.019h.887v-.86h-.887v-1.027h-1.152v1.027h-.664v.86h.664v2.281c0 .836.422 1.176 1.469 1.176zm2.101-4.977a.637.637 0 00.641-.633.637.637 0 00-.641-.636.64.64 0 00-.644.636.64.64 0 00.644.633zm-.574 4.961h1.141v-4.301h-1.141V132zm4.183.09c1.122 0 1.793-.602 1.911-1.539l.004-.024h-1.055l-.008.016c-.102.43-.379.652-.848.652-.609 0-.949-.48-.949-1.351v-.008c0-.859.336-1.336.949-1.336.489 0 .774.273.848.691l.004.008h1.062v-.011c-.101-.961-.777-1.583-1.918-1.583-1.347 0-2.105.817-2.105 2.231v.008c0 1.429.762 2.246 2.105 2.246zm4.52 0c1.102 0 1.887-.555 1.887-1.406v-.004c0-.637-.403-.996-1.262-1.18l-.715-.152c-.445-.098-.605-.231-.605-.461v-.004c0-.289.281-.473.675-.473.426 0 .68.215.743.445l.004.02h1.058v-.016c-.047-.691-.672-1.254-1.801-1.254-1.074 0-1.793.54-1.793 1.348v.004c0 .645.407 1.047 1.227 1.223l.719.152c.437.098.609.242.609.473v.007c0 .286-.297.473-.734.473-.45 0-.711-.191-.801-.457l-.008-.016h-1.121l.004.016c.082.738.746 1.262 1.914 1.262z" fill="#fff" fill-opacity=".24"/><path id="CRO" d="M146.305 108.145c1.359 0 2.351-.84 2.449-2.059h-1.149c-.113.621-.621 1.019-1.296 1.019-.891 0-1.442-.738-1.442-1.925 0-1.188.551-1.922 1.438-1.922.672 0 1.183.426 1.297 1.074h1.148c-.086-1.227-1.109-2.113-2.445-2.113-1.637 0-2.645 1.129-2.645 2.961 0 1.836 1.012 2.965 2.645 2.965zm4.715-4.829h1.023c.586 0 .953.336.953.872 0 .542-.348.863-.941.863h-1.035v-1.735zm0 2.641h.964l1.051 2.043h1.336l-1.187-2.227c.648-.257 1.023-.882 1.023-1.601 0-1.121-.762-1.809-2-1.809h-2.367V108h1.18v-2.043zm6.839-3.738c-1.656 0-2.714 1.133-2.714 2.961 0 1.828 1.043 2.965 2.714 2.965 1.668 0 2.707-1.137 2.707-2.965 0-1.825-1.043-2.961-2.707-2.961zm0 1.035c.918 0 1.504.746 1.504 1.926 0 1.175-.586 1.929-1.504 1.929-.925 0-1.507-.754-1.507-1.929 0-1.18.593-1.926 1.507-1.926z" fill="#fff" fill-opacity=".24"/><path id="Laad Generation" d="M76.457 106.973h-2.508v-4.61h-1.18V108h3.688v-1.027zm2.512.238c-.395 0-.672-.195-.672-.516 0-.308.238-.484.726-.519l.871-.055v.317c0 .437-.398.773-.925.773zm-.375.855c.558 0 1.027-.234 1.25-.628h.07V108h1.102v-2.941c0-.922-.645-1.461-1.785-1.461-1.083 0-1.813.5-1.887 1.297h1.047c.093-.258.367-.399.777-.399.469 0 .726.203.726.563v.351l-1.042.063c-1.07.062-1.668.515-1.668 1.297 0 .789.582 1.296 1.41 1.296zm5.094-.855c-.395 0-.672-.195-.672-.516 0-.308.238-.484.726-.519l.871-.055v.317c0 .437-.398.773-.925.773zm-.376.855c.56 0 1.028-.234 1.25-.628h.07V108h1.102v-2.941c0-.922-.644-1.461-1.785-1.461-1.082 0-1.812.5-1.886 1.297h1.046c.094-.258.368-.399.778-.399.469 0 .726.203.726.563v.351l-1.043.063c-1.07.062-1.668.515-1.668 1.297 0 .789.582 1.296 1.41 1.296zm5.082 0c.598 0 1.087-.277 1.317-.742h.07V108h1.102v-5.953h-1.137v2.332h-.066c-.223-.477-.703-.758-1.286-.758-1.082 0-1.753.848-1.753 2.219 0 1.375.668 2.226 1.753 2.226zm.387-3.492c.606 0 .977.488.977 1.274 0 .789-.367 1.269-.977 1.269s-.972-.476-.972-1.273c0-.789.367-1.27.972-1.27zm10.41 1.125v-.719h-2.367v.887h1.223l-.004.102c-.024.679-.559 1.136-1.332 1.136-.93 0-1.516-.734-1.516-1.941 0-1.184.559-1.906 1.47-1.906.655 0 1.128.332 1.304.902h1.172c-.164-1.172-1.145-1.941-2.477-1.941-1.64 0-2.676 1.14-2.676 2.957 0 1.844 1.028 2.969 2.703 2.969 1.54 0 2.5-.938 2.5-2.446zm2.883-1.23c.531 0 .875.355.899.926h-1.836c.039-.559.41-.926.937-.926zm.922 2.304c-.121.286-.43.446-.879.446-.594 0-.969-.399-.984-1.039v-.059h2.957v-.348c0-1.367-.75-2.175-2.02-2.175-1.281 0-2.07.867-2.07 2.269 0 1.399.773 2.227 2.086 2.227 1.055 0 1.797-.508 1.969-1.321h-1.059zm2.027 1.227h1.137v-2.484c0-.567.324-.938.852-.938.539 0 .793.313.793.906V108h1.136v-2.785c0-1.031-.515-1.617-1.472-1.617-.637 0-1.074.3-1.274.785h-.07v-.692h-1.102V108zm6.887-3.531c.531 0 .875.355.899.926h-1.836c.039-.559.41-.926.937-.926zm.922 2.304c-.121.286-.43.446-.879.446-.594 0-.969-.399-.984-1.039v-.059h2.957v-.348c0-1.367-.75-2.175-2.02-2.175-1.281 0-2.07.867-2.07 2.269 0 1.399.773 2.227 2.086 2.227 1.055 0 1.797-.508 1.969-1.321h-1.059zm2.027 1.227h1.137v-2.387c0-.605.426-.972 1.047-.972.184 0 .449.035.539.07v-1.035a1.597 1.597 0 00-.445-.055c-.547 0-.992.328-1.106.758h-.07v-.688h-1.102V108zm4.961-.789c-.394 0-.672-.195-.672-.516 0-.308.239-.484.727-.519l.871-.055v.317c0 .437-.398.773-.926.773zm-.375.855c.559 0 1.028-.234 1.25-.628h.071V108h1.101v-2.941c0-.922-.644-1.461-1.785-1.461-1.082 0-1.812.5-1.887 1.297h1.047c.094-.258.367-.399.778-.399.468 0 .726.203.726.563v.351l-1.043.063c-1.07.062-1.668.515-1.668 1.297 0 .789.582 1.296 1.41 1.296zm3.864-5.398v1.066h-.672v.895h.672v2.207c0 .84.414 1.18 1.461 1.18.218 0 .429-.024.57-.051v-.867c-.11.011-.188.015-.336.015-.387 0-.559-.172-.559-.547v-1.937h.895v-.895h-.895v-1.066h-1.136zm2.988 5.332h1.137v-4.309h-1.137V108zm.57-4.91c.406 0 .672-.238.672-.574 0-.34-.266-.575-.672-.575-.41 0-.672.235-.672.575 0 .336.262.574.672.574zm3.629 5.004c1.324 0 2.121-.84 2.121-2.25 0-1.399-.808-2.246-2.121-2.246-1.312 0-2.121.851-2.121 2.246 0 1.41.797 2.25 2.121 2.25zm0-.93c-.609 0-.953-.48-.953-1.32 0-.828.348-1.317.953-1.317.602 0 .953.489.953 1.317 0 .836-.347 1.32-.953 1.32zm3.051.836h1.137v-2.484c0-.567.324-.938.851-.938.539 0 .793.313.793.906V108h1.137v-2.785c0-1.031-.516-1.617-1.473-1.617-.637 0-1.074.3-1.273.785h-.071v-.692h-1.101V108z" fill="#fff" fill-opacity=".24"/></g></g><defs><clipPath id="clip0_547_11984"><path fill="#fff" d="M0 0h400v192H0z"/></clipPath></defs></svg>