<svg width="529" height="528" viewBox="0 0 529 528" fill="none" xmlns="http://www.w3.org/2000/svg"><path d="M529 528h-1v-1h1v1zm0-48h-1v-1h1v1zm-1-48h1v-1h-1v1zm1-48h-1v-1h1v1zm-1-96h1v-1h-1v1zm1-48h-1v-1h1v1zm-1-48h1v-1h-1v1zm1-48h-1v-1h1v1zm-1-48h1v-1h-1v1zm1-48h-1v-1h1v1zm-1-47h1V0h-1v1zm-48 527h1v-1h-1v1zm-47 0h-1v-1h1v1zm-49 0h1v-1h-1v1zm-47 0h-1v-1h1v1zm-49 0h1v-1h-1v1zm-47 0h-1v-1h1v1zm-49 0h1v-1h-1v1zm-47 0h-1v-1h1v1zm-49 0h1v-1h-1v1zm-48 0h1v-1h-1v1zm-48 0h1v-1H0v1z" fill="#FCFCFD"/></svg>