<svg width="63" height="35" viewBox="0 0 63 35" fill="none" xmlns="http://www.w3.org/2000/svg"><g clip-path="url(#clip0_1218_1743)"><mask id="mask0_1218_1743" style="mask-type:alpha" maskUnits="userSpaceOnUse" x="2" y="28" width="60" height="7"><path fill="#D9D9D9" d="M2.5 28h59v7h-59z"/></mask><g mask="url(#mask0_1218_1743)"><path d="M19.898 34.4v-6.492H3.352v-4.946A450.406 450.406 0 0117.132.58h8.555v22.336h4.547v4.992h-4.547V34.4h-5.789zM8.977 23.056h11.015V5.408h-.351c-3.47 5.297-7.383 11.554-10.664 17.297v.351zM52.148 34.4v-6.492H35.602v-4.946A450.39 450.39 0 0149.382.58h8.556v22.336h4.546v4.992h-4.547V34.4h-5.789zM41.227 23.056h11.015V5.408h-.351c-3.47 5.297-7.383 11.554-10.664 17.297v.351z" fill="#000" style="mix-blend-mode:overlay"/></g><mask id="mask1_1218_1743" style="mask-type:alpha" maskUnits="userSpaceOnUse" x="3" y="7" width="60" height="20"><path fill-rule="evenodd" clip-rule="evenodd" d="M62.5 7h-59v7h59V7zm0 11h-59v9h59v-9z" fill="#D9D9D9"/></mask><g mask="url(#mask1_1218_1743)"><path d="M19.867 34v-6.305H3.344v-5.39C6.39 16.703 11.148 9.18 17.125.18h8.531v22.406h4.57v5.11h-4.57V34h-5.789zM8.945 22.375v.352h11.016V5.102h-.328c-3.235 4.78-6.75 10.335-10.688 17.273zM44.242 19v-4.688h4.125c3.446 0 5.813-2.085 5.813-5.109 0-3-2.274-4.945-5.813-4.945-3.492 0-5.812 1.969-6.047 5.156h-5.648c.305-6.21 4.851-10.078 11.883-10.078 6.562 0 11.46 3.844 11.46 9.023 0 3.961-2.367 6.985-6.117 7.782v.398c4.618.54 7.477 3.68 7.477 8.18 0 5.812-5.438 10.125-12.797 10.125-7.289 0-12.258-4.032-12.562-10.219h5.789c.258 3.14 2.93 5.133 6.82 5.133 3.867 0 6.586-2.227 6.586-5.414 0-3.305-2.555-5.344-6.727-5.344h-4.242z" fill="#000" style="mix-blend-mode:overlay"/></g><mask id="mask2_1218_1743" style="mask-type:alpha" maskUnits="userSpaceOnUse" x="0" y="0" width="60" height="7"><path fill="#D9D9D9" d="M.5 0h59v7H.5z"/></mask><g mask="url(#mask2_1218_1743)"><path d="M16.898 34v-6.492H.352v-4.945A450.372 450.372 0 0114.132.18h8.556v22.336h4.546v4.992h-4.547V34h-5.789zM5.977 22.656h11.015V5.008h-.351c-3.47 5.297-7.383 11.555-10.664 17.297v.351zM49.148 34v-6.492H32.602v-4.945A450.388 450.388 0 0146.382.18h8.556v22.336h4.546v4.992h-4.547V34h-5.789zM38.227 22.656h11.015V5.008h-.351c-3.47 5.297-7.383 11.555-10.664 17.297v.351z" fill="#000" style="mix-blend-mode:overlay"/></g></g><defs><clipPath id="clip0_1218_1743"><path fill="#fff" transform="translate(.5)" d="M0 0h62v35H0z"/></clipPath></defs></svg>