<svg width="90" height="135" viewBox="0 0 90 135" fill="none" xmlns="http://www.w3.org/2000/svg"><path d="M11.52 1.504l.832-.64c.928.688 2 1.696 2.512 2.416l-.896.704c-.448-.72-1.52-1.776-2.448-2.48zM.736 4.944h14.528v1.088H.736V4.944zm.72-2.768h6.992v1.056H1.456V2.176zm-.4 5.52h7.76V8.72h-7.76V7.696zM4.4.576h1.136v4.976H4.4V.576zm0 5.664h1.136v2.064H4.4V6.24zm.24 3.952l.752-.656c1.12.864 2.56 2.096 3.248 2.896l-.784.768c-.672-.816-2.08-2.096-3.216-3.008zM7.792 9.04l.912.56a15.792 15.792 0 01-1.792 1.696l-.768-.496a14.15 14.15 0 001.648-1.76zm-3.344-.944l1.04.352c-.976 1.504-2.608 2.896-4.096 3.792a6.588 6.588 0 00-.784-.88c1.456-.752 2.976-1.952 3.84-3.264zM1.696 13.92c1.12-.352 2.8-.912 4.432-1.488l.176.96a224.07 224.07 0 01-4.144 1.504l-.464-.976zm1.04-3.408l1.088-.64v4.048H2.736v-3.408zM9.264.592h1.216c-.064 7.616 1.232 13.52 3.248 13.52.448 0 .624-.736.72-2.656.256.256.688.512.976.624-.192 2.48-.624 3.2-1.792 3.2-3.184 0-4.304-6.784-4.368-14.688zm4.064 6.272l1.104.384c-1.36 3.36-3.696 6.256-6.624 8.016-.208-.304-.56-.704-.88-.944 2.848-1.552 5.152-4.336 6.4-7.456zM37.63 2.512c0 .592.464 1.056 1.056 1.056.576 0 1.056-.464 1.056-1.056 0-.576-.48-1.056-1.056-1.056-.592 0-1.056.48-1.056 1.056zm-.736 0c0-.992.8-1.792 1.792-1.792s1.792.8 1.792 1.792-.8 1.792-1.792 1.792a1.79 1.79 0 01-1.792-1.792zm1.392 1.072c-.112.224-.176.496-.24.8-.352 1.68-1.12 4.272-2.4 5.904-1.456 1.888-3.36 3.36-6.288 4.288l-1.088-1.2c3.104-.784 4.896-2.144 6.24-3.856 1.136-1.44 1.872-3.68 2.096-5.216h-8.192c-.64 0-1.184.032-1.584.064V2.944a15.69 15.69 0 001.6.112h8.016a3.4 3.4 0 00.864-.096l.976.624zm13.87-.704c1.2.064 3.632 0 5.376-.24 1.456-.192 3.328-.576 4.112-.928l.848 1.12c-.352.096-.656.176-.896.24-.928.224-2.416.512-3.696.688-1.792.24-4 .288-5.424.32l-.32-1.2zm.896 10.912c2.72-1.28 4.08-3.28 4.08-6.576V3.584l1.28-.176v3.776c0 3.408-1.12 5.76-4.112 7.472l-1.248-.864zm-2.144-7.104c.352.032.912.08 1.408.08h10.528c.336 0 .928-.032 1.264-.064v1.312a15.367 15.367 0 00-1.248-.048H52.332c-.512 0-1.04.016-1.424.048V6.688zm26.974-4.4c1.12.752 3.184 2.416 4.064 3.296l-.992 1.024c-.816-.832-2.8-2.56-4-3.344l.928-.976zm-1.376 10.72a16.535 16.535 0 006.384-2.336c2.48-1.552 4.416-3.92 5.344-5.904l.768 1.376c-1.088 1.984-2.944 4.16-5.36 5.68-1.616 1.008-3.632 2-6.304 2.496l-.832-1.312zM13.408 24.864h1.184v12.832c0 .816-.208 1.184-.72 1.376-.528.208-1.424.24-2.896.224a5.145 5.145 0 00-.448-1.216c1.152.048 2.144.032 2.448.016.304 0 .432-.096.432-.4V24.864zM1.072 29.728H8.48v1.12H1.072v-1.12zm-.448 3.424H8.88v1.136H.624v-1.136zm.464-7.376l.992-.304c.528 1.024 1.024 2.352 1.232 3.216l-1.056.352c-.176-.88-.672-2.24-1.168-3.264zm3.088-1.2H5.36V39.28H4.176V24.576zm5.312 1.92h1.168v8.864H9.488v-8.864zM7.52 25.36l1.168.304c-.496 1.184-1.088 2.544-1.616 3.424l-.944-.304c.496-.912 1.072-2.4 1.392-3.424zm18.846 5.712c.496.048 1.328.096 2.24.096h8.768c.8 0 1.36-.064 1.728-.096v1.568c-.336-.016-1.008-.064-1.712-.064h-8.784c-.88 0-1.728.032-2.24.064v-1.568zm32.142-3.984c-.208 1.664-.528 3.536-1.024 5.248-.976 3.28-2.256 4.976-3.728 4.976-1.44 0-2.864-1.632-2.864-4.288 0-3.472 3.088-6.496 7.008-6.496 3.744 0 6.128 2.64 6.128 5.888 0 3.344-2.208 5.584-6.016 6.08l-.736-1.184c.512-.048.992-.112 1.376-.192 2.048-.464 4.064-2 4.064-4.768 0-2.56-1.776-4.672-4.848-4.672-3.52 0-5.712 2.896-5.712 5.248 0 2.016.912 2.912 1.632 2.912.752 0 1.616-1.088 2.432-3.792.464-1.52.8-3.328.96-4.992l1.328.032zm24.75 0c-.208 1.664-.528 3.536-1.024 5.248-.976 3.28-2.256 4.976-3.728 4.976-1.44 0-2.864-1.632-2.864-4.288 0-3.472 3.088-6.496 7.008-6.496 3.744 0 6.128 2.64 6.128 5.888 0 3.344-2.208 5.584-6.016 6.08l-.736-1.184c.512-.048.992-.112 1.376-.192 2.048-.464 4.064-2 4.064-4.768 0-2.56-1.776-4.672-4.848-4.672-3.52 0-5.712 2.896-5.712 5.248 0 2.016.912 2.912 1.632 2.912.752 0 1.616-1.088 2.432-3.792.464-1.52.8-3.328.96-4.992l1.328.032zM7.28 51.2c1.744.304 4.992.24 6.576 0v1.296c-1.712.192-4.816.192-6.56 0L7.28 51.2zm.624 6.528c-.144.576-.224 1.024-.224 1.456 0 .736.512 1.456 2.704 1.456 1.424 0 2.672-.128 3.952-.432l.032 1.344c-.992.208-2.336.336-4 .336-2.672 0-3.872-.896-3.872-2.4 0-.528.08-1.104.256-1.872l1.152.112zm-3.664-7.76c-.096.272-.224.784-.288 1.072-.304 1.488-.8 4.336-.8 6.144 0 .768.048 1.44.144 2.224.272-.72.64-1.68.912-2.336l.672.528c-.4 1.136-.992 2.816-1.136 3.584-.048.224-.08.528-.08.72.016.16.032.384.048.56l-1.136.08c-.32-1.136-.592-2.976-.592-5.152 0-2.352.528-5.088.72-6.416.048-.368.096-.768.112-1.12l1.424.112zm21.214 5.136h14.64v1.312h-14.64v-1.312zm24.75 0h14.64v1.312h-14.64v-1.312zm24.75 0h14.64v1.312h-14.64v-1.312zM6.992 73.52c-.064.304-.128.64-.192.96a80.33 80.33 0 01-.528 2.88c-.544 2.24-1.696 6.224-3.504 9.152l-1.296-.528c1.824-2.432 3.104-6.704 3.536-8.672.288-1.264.512-2.704.512-3.936l1.472.144zm5.52 1.712c.992 1.296 2.384 4.24 2.912 5.728l-1.232.592c-.48-1.648-1.728-4.48-2.848-5.792l1.168-.528zM1.232 77.04c.512.016.928.016 1.44 0 1.184-.032 4.432-.4 5.52-.4 1.424 0 2.592.544 2.592 2.72 0 1.904-.256 4.448-.912 5.776-.512 1.072-1.312 1.328-2.336 1.328-.624 0-1.376-.112-1.888-.224l-.208-1.344c.672.208 1.504.336 1.952.336.592 0 1.072-.128 1.408-.832.512-1.072.752-3.168.752-4.896 0-1.456-.672-1.728-1.696-1.728-1.072 0-4.064.352-5.04.448-.368.048-1.04.128-1.44.192l-.144-1.376zm29.47 2.032h9.264v1.152h-9.264v-1.152zm.624-3.872h7.968v1.152h-7.968V75.2zm3.264-2.544h1.2v14.608h-1.2V72.656zm-.256 7.04l.96.304c-1.008 2.624-2.832 5.072-4.8 6.352a5.105 5.105 0 00-.832-.944c1.936-1.088 3.744-3.376 4.672-5.712zm1.728-.016c.848 2.224 2.464 4.528 4.096 5.664a4.837 4.837 0 00-.896.992c-1.632-1.36-3.232-3.888-4.128-6.336l.928-.32zm-9.552-5.648h3.616v9.312H26.51v-1.152h2.512v-7.008H26.51v-1.152zm-.592 0h1.104v10.576h-1.104V74.032zm29.534 5.04h9.264v1.152h-9.264v-1.152zm.624-3.872h7.968v1.152h-7.968V75.2zm3.264-2.544h1.2v14.608h-1.2V72.656zm-.256 7.04l.96.304c-1.008 2.624-2.832 5.072-4.8 6.352a5.105 5.105 0 00-.832-.944c1.936-1.088 3.744-3.376 4.672-5.712zm1.728-.016c.848 2.224 2.464 4.528 4.096 5.664a4.837 4.837 0 00-.896.992c-1.632-1.36-3.232-3.888-4.128-6.336l.928-.32zm-9.552-5.648h3.616v9.312H51.26v-1.152h2.512v-7.008H51.26v-1.152zm-.592 0h1.104v10.576h-1.104V74.032zm29.534 5.04h9.264v1.152h-9.264v-1.152zm.624-3.872h7.968v1.152h-7.968V75.2zm3.264-2.544h1.2v14.608h-1.2V72.656zm-.256 7.04l.96.304c-1.008 2.624-2.832 5.072-4.8 6.352a5.105 5.105 0 00-.832-.944c1.936-1.088 3.744-3.376 4.672-5.712zm1.728-.016c.848 2.224 2.464 4.528 4.096 5.664a4.837 4.837 0 00-.896.992c-1.632-1.36-3.232-3.888-4.128-6.336l.928-.32zm-9.552-5.648h3.616v9.312H76.01v-1.152h2.512v-7.008H76.01v-1.152zm-.592 0h1.104v10.576h-1.104V74.032zM12.176 97.536a5.35 5.35 0 00-.064.944c-.016.592.048 3.296.048 4.192 0 3.664 0 6.288-3.392 8.272l-1.168-.896c.496-.208 1.152-.608 1.552-1.008 1.712-1.488 1.792-3.312 1.792-6.384 0-1.024-.064-3.504-.112-4.176a6.048 6.048 0 00-.16-.944h1.504zm-5.856 3.312c.704.112 1.712.176 2.592.176 1.968 0 4.24-.128 5.84-.496v1.296c-1.552.256-3.792.4-5.824.4a33.71 33.71 0 01-2.608-.112v-1.264zm-2.24-3.072a11.01 11.01 0 00-.272 1.04c-.512 2.32-1.072 5.824-.448 8.448.208-.688.56-1.664.848-2.448l.688.416c-.384 1.104-.864 2.736-1.04 3.536-.048.224-.08.528-.064.72 0 .16.032.368.048.544l-1.104.128c-.32-.992-.832-3.072-.832-5.072 0-2.608.416-5.056.608-6.4.048-.352.064-.784.08-1.072l1.488.16zm27.038 2.768c.912.096 1.776.144 2.72.144 1.92 0 3.888-.144 5.504-.48v1.232c-1.696.288-3.648.416-5.52.416-.928 0-1.76-.032-2.688-.096l-.016-1.216zm5.6-2.864c-.048.32-.08.656-.096.96a61.533 61.533 0 00-.048 2.672c0 2.464.24 4.96.24 6.608 0 1.312-.608 2.592-2.768 2.592-2.144 0-3.312-.864-3.312-2.304 0-1.344 1.184-2.4 3.296-2.4 2.688 0 4.56 1.36 5.904 2.576l-.688 1.056c-1.68-1.568-3.296-2.656-5.328-2.656-1.2 0-2.032.528-2.032 1.296 0 .832.784 1.264 1.952 1.264 1.344 0 1.728-.672 1.728-1.744 0-1.152-.208-4.144-.208-6.256 0-1.104-.016-2.112-.016-2.672 0-.288-.016-.704-.064-.992h1.44zm-7.888.112c-.096.256-.224.784-.288 1.072-.32 1.488-.8 4.656-.8 6.448 0 .784.048 1.456.16 2.24.256-.736.656-1.712.928-2.368l.656.512c-.4 1.12-.992 2.752-1.152 3.536a2.93 2.93 0 00-.064.72c.016.16.032.4.048.56l-1.136.096c-.304-1.152-.608-2.912-.608-5.072 0-2.352.544-5.408.736-6.72.064-.384.096-.8.112-1.152l1.408.128zm27.038 2.752c.912.096 1.776.144 2.72.144 1.92 0 3.888-.144 5.504-.48v1.232c-1.696.288-3.648.416-5.52.416-.928 0-1.76-.032-2.688-.096l-.016-1.216zm5.6-2.864c-.048.32-.08.656-.096.96a61.533 61.533 0 00-.048 2.672c0 2.464.24 4.96.24 6.608 0 1.312-.608 2.592-2.768 2.592-2.144 0-3.312-.864-3.312-2.304 0-1.344 1.184-2.4 3.296-2.4 2.688 0 4.56 1.36 5.904 2.576l-.688 1.056c-1.68-1.568-3.296-2.656-5.328-2.656-1.2 0-2.032.528-2.032 1.296 0 .832.784 1.264 1.952 1.264 1.344 0 1.728-.672 1.728-1.744 0-1.152-.208-4.144-.208-6.256 0-1.104-.016-2.112-.016-2.672 0-.288-.016-.704-.064-.992h1.44zm-7.888.112c-.096.256-.224.784-.288 1.072-.32 1.488-.8 4.656-.8 6.448 0 .784.048 1.456.16 2.24.256-.736.656-1.712.928-2.368l.656.512c-.4 1.12-.992 2.752-1.152 3.536a2.93 2.93 0 00-.064.72c.016.16.032.4.048.56l-1.136.096c-.304-1.152-.608-2.912-.608-5.072 0-2.352.544-5.408.736-6.72.064-.384.096-.8.112-1.152l1.408.128zm27.038 2.752c.912.096 1.776.144 2.72.144 1.92 0 3.888-.144 5.504-.48v1.232c-1.696.288-3.648.416-5.52.416-.928 0-1.76-.032-2.688-.096l-.016-1.216zm5.6-2.864c-.048.32-.08.656-.096.96a61.533 61.533 0 00-.048 2.672c0 2.464.24 4.96.24 6.608 0 1.312-.608 2.592-2.768 2.592-2.144 0-3.312-.864-3.312-2.304 0-1.344 1.184-2.4 3.296-2.4 2.688 0 4.56 1.36 5.904 2.576l-.688 1.056c-1.68-1.568-3.296-2.656-5.328-2.656-1.2 0-2.032.528-2.032 1.296 0 .832.784 1.264 1.952 1.264 1.344 0 1.728-.672 1.728-1.744 0-1.152-.208-4.144-.208-6.256 0-1.104-.016-2.112-.016-2.672 0-.288-.016-.704-.064-.992h1.44zm-7.888.112c-.096.256-.224.784-.288 1.072-.32 1.488-.8 4.656-.8 6.448 0 .784.048 1.456.16 2.24.256-.736.656-1.712.928-2.368l.656.512c-.4 1.12-.992 2.752-1.152 3.536a2.93 2.93 0 00-.064.72c.016.16.032.4.048.56l-1.136.096c-.304-1.152-.608-2.912-.608-5.072 0-2.352.544-5.408.736-6.72.064-.384.096-.8.112-1.152l1.408.128zM8.656 121.44c-.064.352-.112 1.12-.128 1.6v2.928c0 1.744.256 4.944.256 6.352 0 1.296-.8 2.416-2.928 2.416-2.224 0-3.84-.688-3.84-2.512 0-1.456 1.248-2.624 4.016-2.624 3.168 0 6.016 1.6 7.648 3.088l-.768 1.2c-1.6-1.6-4.224-3.168-7.024-3.168-1.664 0-2.608.56-2.608 1.456 0 .88.896 1.376 2.448 1.376 1.168 0 1.744-.56 1.744-1.664 0-1.184-.192-4.288-.192-5.92 0-.928-.016-2.24-.016-2.928-.016-.592-.064-1.296-.128-1.6h1.52zm-.832 3.232c1.104 0 3.712-.08 5.44-.288l.048 1.2c-1.728.16-4.336.272-5.488.272v-1.184z" fill="#fff" style="mix-blend-mode:exclusion" opacity=".8"/></svg>