<svg width="40" height="40" viewBox="0 0 40 40" fill="none" xmlns="http://www.w3.org/2000/svg"><path fill-rule="evenodd" clip-rule="evenodd" d="M2 0a2 2 0 00-2 2v36a2 2 0 002 2h36a2 2 0 002-2V2a2 2 0 00-2-2H2zm27.5 8.5a2.5 2.5 0 11-5 0 2.5 2.5 0 015 0zm6.56-1.802a1.5 1.5 0 010 2.121l-8 8a1.53 1.53 0 01-.112.102l-4.78 4.78a1 1 0 01-1.414 0l-2.828-2.83a1 1 0 010-1.413L23.384 13H7.549a10.995 10.995 0 015.413 10.416l3.477-3.477a1.5 1.5 0 012.122 0l6.5 6.5A1.5 1.5 0 0124 29H11.621l-5.06 5.06a1.5 1.5 0 01-2.122-2.12l7.34-7.34c.145-.677.221-1.38.221-2.1 0-4.428-2.879-8.186-6.868-9.5H5a.5.5 0 010-1h23.637l5.302-5.302a1.5 1.5 0 012.122 0zM20.38 26l-2.88-2.879L14.621 26h5.758z" fill="#fff" fill-opacity=".54"/></svg>