<svg width="88" height="59" viewBox="0 0 88 59" fill="none" xmlns="http://www.w3.org/2000/svg"><g clip-path="url(#clip0_2447_8417)" fill="#fff" fill-opacity=".54"><path d="M16 0h1v3h3v1h-3v5h-1V0zm4 4h1v5h-1V4zM0 1h1v3H0V1zm2 6H1V4h1v3zm1 0v2H2V7h1zm1-3v3H3V4h1zm1 0H4V1h1v3zm1 3H5V4h1v3zm1 0v2H6V7h1zm1-3v3H7V4h1zm0 0V1h1v3H8zm2-3h1v1h-1V1zm0 2h1v6h-1V3zm2-2h1v2h2v1h-2v4h-1V1zm1 7h2v1h-2V8zm35-7h-1v7h1v1h2V8h-2V4h2V3h-2V1zM31 3v7h-1V9h-3V8h3V4h-3V3h4zm-1 7v1h-3v-1h3zm-4-6h1v4h-1V4z"/><path fill-rule="evenodd" clip-rule="evenodd" d="M39 42v-7h-4v1h-1v4h1v1h3v1h-3v1h3v-1h1zm-1-2h-3v-4h3v4zm3-5h-1v6h1v-4h1v-1h1v4h1v1h3v-1h1v-1h-1v1h-3v-2h4v-2h-1v-1h-3v1h-1v-1h-1v1h-1v-1zm3 1v1h3v-1h-3zm9-1h-3v1h3v1h-3v1h-1v2h1v1h4v-5h-1v-1zm-3 5h3v-2h-3v2z"/><path d="M55 33h1v2h2v1h-2v4h-1v-7zm1 7h2v1h-2v-1zm24 9h-1v7h1v1h2v-1h-2v-4h2v-1h-2v-2zM32 3h1v1h1v1h-1v4h-1V3zm3 1h-1V3h1v1z"/><path fill-rule="evenodd" clip-rule="evenodd" d="M36 4h-1v4h1v1h3V8h1V7h-1v1h-3V6h4V4h-1V3h-3v1zm0 0h3v1h-3V4z"/><path d="M42 3h3v1h-3V3z"/><path fill-rule="evenodd" clip-rule="evenodd" d="M42 8v1h4V4h-1v1h-3v1h-1v2h1zm0 0V6h3v2h-3z"/><path d="M1 19h3v1H1v-1zm1 3H0v-2h1v1h1v1zm1 2v-1H2v-1h2v2H3zm0 0v1H0v-1h3zm1 27H1v1H0v2h2v1h1v1H0v1h3v-1h1v-2H2v-1H1v-1h3v-1zm34 0h3v1h-3v-1zm1 3h-2v-2h1v1h1v1zm1 2v-1h-1v-1h2v2h-1zm0 0v1h-3v-1h3zm24-5h-3v1h-1v2h2v1h1v1h-3v1h3v-1h1v-2h-2v-1h-1v-1h3v-1zm1-2h1v1h-1v-1zm0 2h1v6h-1v-6zm9-2h-1v1h1v-1zm0 2h-1v6h1v-6zm3-2h1v1h-1v-1zm0 2h1v6h-1v-6zM5 19h1v5H5v-5zm1 5h3v-5h1v6H6v-1zm0 27H5v5h1v1h4v-6H9v5H6v-5z"/><path fill-rule="evenodd" clip-rule="evenodd" d="M11 27h1v-2h3v-1h1v-4h-1v-1h-4v8zm4-7h-3v4h3v-4z"/><path d="M12 59h-1v-8h4v1h-3v4h3v1h-3v2zm3-3h1v-4h-1v4z"/><path fill-rule="evenodd" clip-rule="evenodd" d="M42 59h1v-2h3v-1h1v-4h-1v-1h-4v8zm4-7h-3v4h3v-4z"/><path d="M28 27h-1v-8h4v1h-3v4h3v1h-3v2zm3-3h1v-4h-1v4zm-13-5h3v1h-3v-1zm0 5h-1v-4h1v1h3v-1h1v2h-4v2zm3 0v1h-3v-1h3zm0 0v-1h1v1h-1z"/><path fill-rule="evenodd" clip-rule="evenodd" d="M21 51h-3v1h-1v4h1v1h3v-1h1v-1h-1v1h-3v-2h4v-2h-1v-1zm0 1v1h-3v-1h3z"/><path d="M32 51h3v1h-3v-1zm0 5h-1v-4h1v1h3v-1h1v2h-4v2zm3 0v1h-3v-1h3zm0 0v-1h1v1h-1zM24 19h-1v6h1v-4h1v-1h1v-1h-1v1h-1v-1zm-1 32h1v1h1v1h-1v4h-1v-6zm2 1v-1h1v1h-1zm3-1h-1v6h1v-4h1v-1h1v-1h-1v1h-1v-1zm25-32h1v1h1v1h-1v4h-1v-6zm3 1h-1v-1h1v1z"/><path fill-rule="evenodd" clip-rule="evenodd" d="M37 19h-3v1h-1v4h1v1h3v-1h1v-4h-1v-1zm0 1v4h-3v-4h3z"/><path d="M40 19h-1v4h1v2h1v-2h1v-2h1v2h1v2h1v-2h1v-4h-1v4h-1v-2h-1v-2h-1v2h-1v2h-1v-4z"/><path fill-rule="evenodd" clip-rule="evenodd" d="M51 19h-3v1h-1v4h1v1h3v-1h1v-1h-1v1h-3v-2h4v-2h-1v-1zm0 1v1h-3v-1h3z"/><path d="M4 35H1v1H0v4h1v1h3v-1H1v-4h3v-1z"/><path fill-rule="evenodd" clip-rule="evenodd" d="M9 35H6v1H5v4h1v1h3v-1h1v-4H9v-1zm0 5H6v-4h3v4z"/><path d="M49 51h3v1h-3v-1zm0 5h-1v-4h1v4zm3 0v1h-3v-1h3zm0 0h1v-4h-1v4zM14 35h-3v6h1v-5h2v5h1v-5h2v5h1v-5h-1v-1h-2v1h-1v-1zm6 0h3v1h-3v-1zm0 1v1h3v-1h1v2h-4v2h-1v-4h1zm3 4v1h-3v-1h3zm0 0h1v-1h-1v1zm3-5h3v1h-3v-1zm1 3h-2v-2h1v1h1v1zm0 0v1h1v1h-3v1h3v-1h1v-2h-2zm31 13v1h-3v5h-1v-6h4zm0 1h1v5h-1v-5zm18-4h-1v9h1v-9z"/><path fill-rule="evenodd" clip-rule="evenodd" d="M68 48h-1v9h4v-1h1v-4h-1v-1h-3v-3zm3 4h-3v4h3v-4z"/><path d="M83 51h1v2h-1v-2zm2 4h-1v-2h1v2zm1 0h-1v2h-1v2h1v-2h1v-2zm1-2v2h-1v-2h1zm0 0v-2h1v2h-1z"/></g><defs><clipPath id="clip0_2447_8417"><path fill="#fff" d="M0 0h88v59H0z"/></clipPath></defs></svg>