<svg width="205" height="99" viewBox="0 0 205 99" fill="none" xmlns="http://www.w3.org/2000/svg"><path d="M17 54h-2v33h2V54zm4 0h-2v33h2V54zm2 0h6v22h-6V54zm12 0h-4v22h4V54zm6 0h2v22h-2V54zm8 0h-2v22h2V54zm2 0h2v22h-2V54zm12 0h-6v22h6V54zm4 0h2v22h-2V54zm10 0h-4v22h4V54zm2 0h2v22h-2V54zm12 0h-6v22h6V54zm4 0h4v22h-4V54zm10 0h-2v22h2V54zm10 0h2v22h-2V54zm12 0h-2v22h2V54zm2 0h2v22h-2V54zm10 0h-2v22h2V54zm12 0h2v22h-2V54zm8 0h-2v22h2V54zm2 0h2v22h-2V54zm14 0h-4v22h4V54zm2 0h4v22h-4V54zm10 0h-2v22h2V54zm12 0h2v33h-2V54zm6 0h-2v33h2V54zm-16 0h6v22h-6V54zm-40 0h-6v22h6V54zm-42 0h2v33h-2V54zm6 0h-2v33h2V54zM3.838 90.205c-1.547 0-2.725-.914-2.977-2.303h1.506c.194.639.756 1.037 1.483 1.037 1.236 0 1.968-1.154 1.968-3.087H5.72c-.399.802-1.201 1.265-2.192 1.265-1.611 0-2.783-1.183-2.783-2.812 0-1.735 1.3-2.971 3.14-2.971 1.237 0 2.216.586 2.784 1.67.393.697.598 1.6.598 2.672 0 2.847-1.278 4.53-3.428 4.53zm.053-4.289c.966 0 1.675-.691 1.675-1.635 0-.955-.726-1.687-1.67-1.687-.943 0-1.67.72-1.67 1.664 0 .967.692 1.658 1.665 1.658zM31.254 90l3.674-7.09v-.094h-4.36v-1.271h5.883v1.289L32.836 90h-1.582zm14.232.21c-1.94 0-3.275-1.007-3.275-2.472 0-1.072.72-1.922 1.828-2.156v-.1c-.902-.222-1.488-.955-1.488-1.857 0-1.336 1.224-2.291 2.941-2.291 1.717 0 2.936.955 2.936 2.291 0 .908-.575 1.629-1.483 1.857v.1c1.102.205 1.828 1.06 1.828 2.15 0 1.471-1.336 2.479-3.287 2.479zm.006-1.177c1.02 0 1.717-.58 1.717-1.424 0-.843-.703-1.423-1.717-1.423-1.02 0-1.722.58-1.722 1.423 0 .844.703 1.424 1.722 1.424zm0-4.008c.856 0 1.448-.51 1.448-1.254 0-.755-.587-1.277-1.448-1.277-.867 0-1.453.522-1.453 1.278 0 .744.592 1.253 1.453 1.253zm12.498 5.186c-2.027 0-3.228-1.64-3.228-4.447 0-2.795 1.218-4.43 3.228-4.43 2.004 0 3.223 1.635 3.223 4.441 0 2.795-1.201 4.436-3.223 4.436zm0-1.254c1.072 0 1.694-1.113 1.694-3.193 0-2.069-.633-3.17-1.694-3.17-1.06 0-1.699 1.107-1.699 3.17 0 2.08.627 3.193 1.7 3.193zm9.293-4.94c0-1.581 1.213-2.683 2.948-2.683 1.67 0 2.876 1.02 2.876 2.432 0 .908-.463 1.658-1.898 3.076l-1.77 1.775v.1h3.797V90h-5.87v-1.049l2.818-2.883c1.154-1.171 1.441-1.611 1.441-2.209 0-.744-.61-1.283-1.441-1.283-.885 0-1.483.58-1.483 1.442v.023h-1.418v-.023zm15.246 6.194c-2.027 0-3.228-1.64-3.228-4.447 0-2.795 1.218-4.43 3.228-4.43 2.004 0 3.223 1.635 3.223 4.441 0 2.795-1.201 4.436-3.223 4.436zm0-1.254c1.073 0 1.694-1.113 1.694-3.193 0-2.069-.633-3.17-1.694-3.17-1.06 0-1.699 1.107-1.699 3.17 0 2.08.627 3.193 1.7 3.193zM93.943 90v-6.932h-.1l-2.103 1.477v-1.453l2.21-1.547h1.505V90h-1.512zm29.86-5.982c0-1.582 1.213-2.684 2.947-2.684 1.67 0 2.877 1.02 2.877 2.432 0 .908-.463 1.658-1.898 3.076l-1.77 1.775v.1h3.797V90h-5.871v-1.049l2.818-2.883c1.154-1.171 1.442-1.611 1.442-2.209 0-.744-.61-1.283-1.442-1.283-.885 0-1.482.58-1.482 1.442v.023h-1.418v-.023zM136.312 90l3.674-7.09v-.094h-4.359v-1.271h5.883v1.289L137.895 90h-1.583zm14.081.205c-1.547 0-2.725-.914-2.977-2.303h1.506c.193.639.756 1.037 1.482 1.037 1.237 0 1.969-1.154 1.969-3.087h-.1c-.398.802-1.201 1.265-2.191 1.265-1.611 0-2.783-1.183-2.783-2.812 0-1.735 1.301-2.971 3.14-2.971 1.237 0 2.215.586 2.784 1.67.392.697.597 1.6.597 2.672 0 2.847-1.277 4.53-3.427 4.53zm.052-4.289c.967 0 1.676-.691 1.676-1.635 0-.955-.726-1.687-1.67-1.687-.943 0-1.67.72-1.67 1.664 0 .967.692 1.658 1.664 1.658zm12.733 4.29c-1.242 0-2.221-.587-2.783-1.67-.393-.692-.598-1.595-.598-2.673 0-2.841 1.271-4.529 3.428-4.529 1.541 0 2.724.914 2.976 2.303h-1.512c-.187-.639-.75-1.037-1.476-1.037-1.236 0-1.969 1.154-1.969 3.088h.1c.398-.803 1.195-1.266 2.191-1.266 1.606 0 2.783 1.19 2.783 2.812 0 1.74-1.3 2.971-3.14 2.971zm-.018-1.26c.949 0 1.676-.721 1.676-1.665 0-.967-.697-1.658-1.664-1.658s-1.676.691-1.676 1.635c0 .96.721 1.687 1.664 1.687zm9.205-4.928c0-1.582 1.213-2.684 2.947-2.684 1.67 0 2.877 1.02 2.877 2.432 0 .908-.462 1.658-1.898 3.076l-1.77 1.775v.1h3.797V90h-5.871v-1.049l2.819-2.883c1.154-1.171 1.441-1.611 1.441-2.209 0-.744-.609-1.283-1.441-1.283-.885 0-1.483.58-1.483 1.442v.023h-1.418v-.023zM188.309 90v-1.576h-4.131v-1.348c.761-1.4 1.951-3.281 3.445-5.531h2.133v5.602h1.142v1.277h-1.142V90h-1.447zm-2.731-2.906v.088h2.754v-4.407h-.082a63.353 63.353 0 00-2.672 4.319z" opacity=".24" fill="#1A191F"/></svg>