<svg width="281" height="144" viewBox="0 0 281 144" fill="none" xmlns="http://www.w3.org/2000/svg"><g clip-path="url(#clip0_553_16413)"><mask id="mask0_553_16413" style="mask-type:luminance" maskUnits="userSpaceOnUse" x="-1" y="80" width="121" height="121"><path d="M59.5 200c32.86 0 59.5-26.639 59.5-59.5C119 107.639 92.36 81 59.5 81S0 107.639 0 140.5C0 173.361 26.64 200 59.5 200z" stroke="#fff" stroke-opacity=".4" stroke-width="2" stroke-dasharray="2 2"/></mask><g mask="url(#mask0_553_16413)"><path d="M59.5 200c32.86 0 59.5-26.639 59.5-59.5C119 107.639 92.36 81 59.5 81S0 107.639 0 140.5C0 173.361 26.64 200 59.5 200z" stroke="#fff" stroke-opacity=".4" stroke-width="2" stroke-dasharray="2 2"/></g><path d="M59.5 177c20.158 0 36.5-16.342 36.5-36.5S79.658 104 59.5 104 23 120.342 23 140.5 39.342 177 59.5 177z" fill="#fff" fill-opacity=".16"/><path d="M100.5 106c32.861 0 59.5-26.64 59.5-59.5S133.361-13 100.5-13C67.64-13 41 13.64 41 46.5S67.64 106 100.5 106z" fill="#fff" fill-opacity=".2"/><path d="M101 70c12.703 0 23-10.297 23-23s-10.297-23-23-23-23 10.297-23 23 10.297 23 23 23z" fill="#fff" fill-opacity=".16"/><path fill-rule="evenodd" clip-rule="evenodd" d="M264 142c53.019 0 96-42.98 96-96s-42.981-96-96-96-96 42.98-96 96 42.981 96 96 96z" fill="#C24B38"/></g><defs><clipPath id="clip0_553_16413"><path fill="#fff" d="M0 0h281v144H0z"/></clipPath></defs></svg>