<svg width="257" height="144" viewBox="0 0 257 144" fill="none" xmlns="http://www.w3.org/2000/svg"><g clip-path="url(#clip0_553_15309)"><path fill-rule="evenodd" clip-rule="evenodd" d="M173.37 34.889a48.607 48.607 0 00-7.43-5.37c.24 8.88 1.13 17.76 1.69 26.63a66.49 66.49 0 007.37-15.08 5.79 5.79 0 00-1.63-6.18z" fill="#C7AAA4"/><path fill-rule="evenodd" clip-rule="evenodd" d="M113.15 22.578a5.75 5.75 0 00-3.7 4.82 64.68 64.68 0 00.63 18.08c5.28-8.57 11.94-16.2 15.83-25.48a45.867 45.867 0 00-12.76 2.58z" fill="#F5CCC4"/><path opacity=".25" fill-rule="evenodd" clip-rule="evenodd" d="M112.08 28.768c.69-2.39.49-4.54-.44-4.81a.84.84 0 00-.64.11 5.793 5.793 0 00-1.51 3.33 71.08 71.08 0 00-.33 5.21c.92.28 2.2-1.46 2.92-3.84z" fill="#C59693"/><path fill-rule="evenodd" clip-rule="evenodd" d="M186.48 86.888l-13.4-10.54-70-15-6.62 4.67c9.09 12 29.77 24.6 53.16 30.21 23.69 5.711 36.92.5 36.86-9.34z" fill="url(#paint0_radial_553_15309)"/><path fill-rule="evenodd" clip-rule="evenodd" d="M42.08 125.799l-2 18.09H1l8.83-16.5 4.25-16.5a16.126 16.126 0 013.94-7.09c-.47.511-.91 1.049-1.32 1.61 6.91 7.64 18.44 19.33 25.38 20.39z" fill="#CE6555"/><path fill-rule="evenodd" clip-rule="evenodd" d="M118.08 143.889H85.83a78.013 78.013 0 003.5-15.82 154.36 154.36 0 0028.75 15.82z" fill="#A64030"/><path fill-rule="evenodd" clip-rule="evenodd" d="M256.74 143.889h-38.66s-1.71-25.63-14.16-43.36l5.41 4.24a19.111 19.111 0 003.76 2.31l22.35 8.53a31.693 31.693 0 0114.64 14.15l6.66 14.13z" fill="url(#paint1_radial_553_15309)"/><path fill-rule="evenodd" clip-rule="evenodd" d="M218.08 143.889h-100a154.363 154.363 0 01-28.72-15.82 78.013 78.013 0 01-3.5 15.82H40.08l2-18.09c-7-1.06-18.48-12.75-25.35-20.37.41-.561.85-1.099 1.32-1.61.24-.25.49-.49.74-.73l.78-.69c.23-.19.46-.37.69-.53a7.54 7.54 0 01.68-.47c.155-.12.319-.227.49-.32.55-.342 1.121-.65 1.71-.92l57.15-26.08 13.68-6.19 2.53-1.78c.56.73 1.17 1.45 1.79 2.2 8.52 10.3 37.52 24.24 50.2 27.71l1.17.3c23.65 5.67 36.88.46 36.82-9.42l17.44 13.68c12.45 17.68 14.16 43.31 14.16 43.31z" fill="#C64C39"/><path fill-rule="evenodd" clip-rule="evenodd" d="M117.08 83.189c-16 10.53-65.65 42.7-74 42.7a5.78 5.78 0 01-1-.09c-7-1.06-18.48-12.75-25.35-20.37.41-.561.85-1.099 1.32-1.61.24-.25.49-.49.74-.73l.78-.69c.23-.19.46-.37.69-.53a7.54 7.54 0 01.68-.47c.155-.12.319-.227.49-.32.55-.342 1.121-.65 1.71-.92l70.83-32.27 2.53-1.78c.56.73 1.15 1.47 1.79 2.2a61.292 61.292 0 008.15 7.67c.41.33 10 6.86 10.47 7.15l.17.06z" fill="#D88579"/><path fill-rule="evenodd" clip-rule="evenodd" d="M218 143.7H118a154.248 154.248 0 01-28.72-15.82l-.28-.18-2-26 1.39-.86L117 83a120.053 120.053 0 0031.4 12.78l1.17.3c23.65 5.67 36.88.46 36.82-9.42l17.44 13.68C216.29 118.07 218 143.7 218 143.7z" fill="#CE6555"/><path fill-rule="evenodd" clip-rule="evenodd" d="M89.33 128.069a78.013 78.013 0 01-3.5 15.82h-3s11.25-28-2.53-69.81a106.688 106.688 0 018.17 26.95 95.516 95.516 0 01.86 27.04zm115.85-26.56s11.9 22.38 12.9 42.38h2s-3-23-14.9-42.38z" fill="#801313"/><path fill-rule="evenodd" clip-rule="evenodd" d="M150.66 98.278c24.67 5.831 38.19.19 37.4-10.19l-4.22-3.31c-1.4 8.18-13.83 12.42-35 7.82-22.46-4.86-42.31-16.38-50.94-27.5l-2.26 1.6c8.61 12.39 30.33 25.76 55.02 31.58z" fill="url(#paint2_linear_553_15309)"/><path fill-rule="evenodd" clip-rule="evenodd" d="M173.08 74.038c.62 8.41-17.09 10.64-34.48 6.6-19.75-4.58-40.14-16.25-34.79-27.14l11.2-25.45 9.44-21.45a12.263 12.263 0 015.15-5.71l23.72-13.44a3.46 3.46 0 014.56 1.06c2.66 3.9 7.46 11.12 8.94 14.37a72.06 72.06 0 014.59 14.72c.03.186.05.373.06.56l.85 29.69.76 26.19z" fill="url(#paint3_linear_553_15309)"/><path fill-rule="evenodd" clip-rule="evenodd" d="M173.08 74.338c.19 8.16-17.31 10.29-34.49 6.3-18.57-4.31-37.7-14.88-35.48-25.17 7.12 7.32 18.49 13.84 32.09 17.65 14.21 3.97 27.88 4.16 37.88 1.22z" fill="#907874" opacity=".17"/><path fill-rule="evenodd" clip-rule="evenodd" d="M143.41 33.669l10.92 2s-3.09-5.73-10.92-2z" fill="#C59693"/><path fill-rule="evenodd" clip-rule="evenodd" d="M151.83 17.209l-8.42 16.46s7.42-2.25 10.92 2l1.75-17.78-4.25-.68z" fill="#FFCFCC"/><path opacity=".56" fill-rule="evenodd" clip-rule="evenodd" d="M152.97 34.428a6.4 6.4 0 011.36 1.21l1.28-13a38.997 38.997 0 00-2.64 11.79z" fill="#907874"/><path opacity=".5" fill-rule="evenodd" clip-rule="evenodd" d="M143.41 33.669a16.55 16.55 0 015.55-.54c.663-4.181 1.06-8.4 1.19-12.63l-6.74 13.17z" fill="#C09F98"/><path fill-rule="evenodd" clip-rule="evenodd" d="M157.91 37.019a4.441 4.441 0 00-2.14.57 4.44 4.44 0 010 7.83c.656.36 1.391.552 2.14.56a4.5 4.5 0 000-9v.04z" fill="url(#paint4_radial_553_15309)"/><path fill-rule="evenodd" clip-rule="evenodd" d="M137 29.119a4.572 4.572 0 011.08 1.94 4.44 4.44 0 00-5.69 5.38 4.333 4.333 0 01-1.88-1.16 4.481 4.481 0 116.51-6.16H137z" fill="url(#paint5_radial_553_15309)"/><path fill-rule="evenodd" clip-rule="evenodd" d="M158.21 40.779a28.226 28.226 0 01-7.89-.19c-8.76-1.38-16-6.08-16.67-10.71a4.42 4.42 0 00-.07.82c0 4.83 7.28 9.88 16.23 11.27a26 26 0 008.4 0v-1.19z" fill="#784440"/><path fill-rule="evenodd" clip-rule="evenodd" d="M139.08 5.059h11.33a5 5 0 013.75 1.69c2.23 2.52 5.14 6 9.09 7.4 3.95 1.4 9.74 7.16 9.4 10.33-.34 3.17-.77 9.13-.77 9.13.88 0-15.7.93-16-6.2-.09-2 .49-4.52-1.21-5.36a6.87 6.87 0 00-4.43-.16c-1.84.66-2.95 2.7-4.34 4.08-2.31 2.31-12.31 4.09-20.4-3.17a2.18 2.18 0 01-.45-2.69 88.312 88.312 0 015-8.29 63.497 63.497 0 015.87-5.59 4.8 4.8 0 013.16-1.17z" fill="url(#paint6_radial_553_15309)"/><path fill-rule="evenodd" clip-rule="evenodd" d="M155.77 23.529c9.09-1.45 14.13 2.05 16.56 4.71.11-1.35.24-2.7.35-3.75a6.433 6.433 0 00-1.57-4 39.558 39.558 0 00-10.73-5.31 22.097 22.097 0 00-4.85 7.71c.102.204.183.418.24.64zm-7.57-16.52c-1.54-.4-8.5.13-11.12 1.13-2.62 1-9.63 9.07-9.63 9.07s8.63-3.07 11.75-3.06a7.12 7.12 0 016.5 3.74c.72 1.35.26 5.52-.18 8.4.14-.094.271-.201.39-.32 1.34-1.34 2.43-3.28 4.18-4 .07-1.57.11-3.15.11-4.76 0-3.06-.126-6.04-.38-8.94a4.235 4.235 0 00-1.62-1.26z" fill="#000"/><path fill-rule="evenodd" clip-rule="evenodd" d="M130.46 18.268c.27-1.87 4.25-3 7.37-2.63 3.12.37 6.72 1.68 6.37 4.37-.38 3-4.21 3.35-7.5 2.88-3.13-.45-6.52-2.77-6.24-4.62z" fill="url(#paint7_radial_553_15309)"/><circle cx="138.08" cy="18.889" r="3" fill="url(#paint8_radial_553_15309)"/><circle cx="138.08" cy="18.889" r="2" fill="#000"/><circle cx="137.08" cy="17.889" r="1" fill="#fff"/><path fill-rule="evenodd" clip-rule="evenodd" d="M158.02 23.46c1.07-2.81 4.63-1.87 6.92-1 2.7 1 5.47 2.77 5.12 4.28-.73 3.14-4.5 2.78-7.93 1.53-2.37-.84-4.66-3.35-4.11-4.81z" fill="url(#paint9_radial_553_15309)"/><circle cx="162.08" cy="24.889" r="3" fill="url(#paint10_radial_553_15309)"/><circle cx="162.08" cy="24.889" r="2" fill="#000"/><circle cx="161.08" cy="23.889" r="1" fill="#fff"/><path opacity=".58" fill-rule="evenodd" clip-rule="evenodd" d="M124.45 6.599l-9.16 20.81c6.51-8.46 13.4-19.38 14.31-26.52a12.258 12.258 0 00-5.15 5.71z" fill="#EDC58C"/><path fill-rule="evenodd" clip-rule="evenodd" d="M145.67 143.889h55.78a12.082 12.082 0 002-6.59c.26-14.37-21.78-28.46-44.38-31-18.59-2.1-31.69 4.52-32 14.54-.3 7.63 6.91 16.58 18.6 23.05z" fill="#8575D7"/><path fill-rule="evenodd" clip-rule="evenodd" d="M156.23 143.889h16.18l-.33-2s24 2 24-11c0-10-23-23-30-22l1 6s-30-2-30 9c0 6.09 8.25 14.92 19.15 20z" fill="#302827"/><path fill-rule="evenodd" clip-rule="evenodd" d="M152.08 109.889c-.65 4.3 9.18 11.44 18 10 2.73-.45 7.54-2.08 8-5 .64-4.07-7.22-10-15-10-4.4 0-10.52 1.86-11 5z" fill="#8575D7"/><path fill-rule="evenodd" clip-rule="evenodd" d="M173.08 114.889c.5-2-3.81-5.27-8-6-1.7-.3-5.32-.52-6 1-.82 1.83 2.67 6.15 7 7 2.88.56 6.59-.31 7-2z" fill="#fff"/><path fill-rule="evenodd" clip-rule="evenodd" d="M183.22 143.889l-5.14-18-17 1 3.86 17h18.28z" fill="#8575D7"/></g><defs><radialGradient id="paint0_radial_553_15309" cx="0" cy="0" r="1" gradientUnits="userSpaceOnUse" gradientTransform="matrix(52.35083 25.0374 -19.69558 41.1816 141.091 77.46)"><stop stop-color="#CD968B"/><stop offset="1" stop-color="#FFD5CC"/></radialGradient><radialGradient id="paint1_radial_553_15309" cx="0" cy="0" r="1" gradientUnits="userSpaceOnUse" gradientTransform="matrix(59.02 0 0 48.4496 208.08 103.709)"><stop stop-color="#CE6757"/><stop offset="1" stop-color="#B24534"/></radialGradient><radialGradient id="paint4_radial_553_15309" cx="0" cy="0" r="1" gradientUnits="userSpaceOnUse" gradientTransform="matrix(4.38 0 0 5.93675 157.71 41.438)"><stop stop-color="#9C736B"/><stop offset="1" stop-color="#CD968B" stop-opacity=".01"/></radialGradient><radialGradient id="paint5_radial_553_15309" cx="0" cy="0" r="1" gradientUnits="userSpaceOnUse" gradientTransform="rotate(-133.386 72.012 -14.153) scale(4.39967 4.40195)"><stop stop-color="#9C736B"/><stop offset="1" stop-color="#CC978C" stop-opacity=".01"/></radialGradient><radialGradient id="paint6_radial_553_15309" cx="0" cy="0" r="1" gradientUnits="userSpaceOnUse" gradientTransform="matrix(24.1138 0 0 14.3951 148.741 19.354)"><stop stop-color="#544745"/><stop offset=".35" stop-color="#524643"/><stop offset=".54" stop-color="#4A3F3C"/><stop offset=".7" stop-color="#3B3231"/><stop offset=".83" stop-color="#272120"/><stop offset=".95" stop-color="#0E0C0C"/><stop offset="1"/></radialGradient><radialGradient id="paint7_radial_553_15309" cx="0" cy="0" r="1" gradientUnits="userSpaceOnUse" gradientTransform="matrix(10.1879 0 0 5.53896 138 19.979)"><stop stop-color="#fff"/><stop offset="1" stop-color="#8C7373"/></radialGradient><radialGradient id="paint8_radial_553_15309" cx="0" cy="0" r="1" gradientUnits="userSpaceOnUse" gradientTransform="translate(138.084 18.889) scale(3.312)"><stop stop-color="#69B4D9"/><stop offset="1" stop-color="#006FA6"/></radialGradient><radialGradient id="paint9_radial_553_15309" cx="0" cy="0" r="1" gradientUnits="userSpaceOnUse" gradientTransform="matrix(9.14 0 0 5.71702 162.59 23.97)"><stop stop-color="#fff"/><stop offset="1" stop-color="#8C7373"/></radialGradient><radialGradient id="paint10_radial_553_15309" cx="0" cy="0" r="1" gradientUnits="userSpaceOnUse" gradientTransform="translate(162.08 24.889) scale(3.312)"><stop stop-color="#69B4D9"/><stop offset="1" stop-color="#006FA6"/></radialGradient><linearGradient id="paint2_linear_553_15309" x1="95.64" y1="100.564" x2="188.093" y2="100.564" gradientUnits="userSpaceOnUse"><stop stop-color="#1C1717"/><stop offset=".51" stop-color="#554544"/><stop offset="1" stop-color="#1C1717"/></linearGradient><linearGradient id="paint3_linear_553_15309" x1="112.697" y1="70.102" x2="172.034" y2="74.337" gradientUnits="userSpaceOnUse"><stop stop-color="#FFD5CC"/><stop offset=".78" stop-color="#CD968B"/><stop offset="1" stop-color="#CD968B"/></linearGradient><clipPath id="clip0_553_15309"><path fill="#fff" d="M0 0h257v144H0z"/></clipPath></defs></svg>