<svg width="113" height="127" viewBox="0 0 113 127" fill="none" xmlns="http://www.w3.org/2000/svg"><g clip-path="url(#clip0_553_15307)"><path fill-rule="evenodd" clip-rule="evenodd" d="M93.4 123.87A24.094 24.094 0 0093 120a25.127 25.127 0 00-4.22-10c-1-2.5-2.25-5.29-3.19-7.44 2.63 1.06 7.68 3.46 8.41 6.4.73 2.94-.07 10.54-.6 14.91z" fill="#BA4836"/><path fill-rule="evenodd" clip-rule="evenodd" d="M53 115h-8l-29 9a12.812 12.812 0 00-5-1c-4.06 0-7.79 2-10.19 3.71l-.4-2.81c-.25-1.75 2.59-5.9 7-7.07C14.83 114.89 36 106 36 106l7.49-3.74c.34-.17.7-.3 1.07-.39l4.23-1c2 3.48 4.88 9.47 4.21 14.13z" fill="#CE6555"/><path fill-rule="evenodd" clip-rule="evenodd" d="M19.5 127l-.24-1a11.606 11.606 0 00-3.22-2 12.812 12.812 0 00-5-1c-4.06 0-7.79 2-10.19 3.71v.29H19.5z" fill="url(#paint0_linear_553_15307)"/><path fill-rule="evenodd" clip-rule="evenodd" d="M53 115a11.06 11.06 0 01-3.24 6.53L49 120s3-4-30 5l.26 1a11.604 11.604 0 00-3.22-2l29-9H53z" fill="#94392B"/><path fill-rule="evenodd" clip-rule="evenodd" d="M53 115a11.06 11.06 0 01-3.24 6.53L52.5 127H93s.18-1.26.4-3.12A24.103 24.103 0 0093 120a25.127 25.127 0 00-4.22-10c.45 1.06.87 2.07 1.22 3 2 5 2 7-3 8s-7 1-15 2-11-2-14-6c-2.19-2.92-6.53-11.73-8.69-16.25l-.52.12c2 3.48 4.88 9.47 4.21 14.13z" fill="#A64030"/><path fill-rule="evenodd" clip-rule="evenodd" d="M87 121c-5 1-7 1-15 2s-11-2-14-6c-2.19-2.92-6.53-11.73-8.69-16.25L61 97h12s1.87 4.73 10.1 5a5.573 5.573 0 011.82.34l.67.27c1.34 3.07 3.23 7.44 4.41 10.4 2 4.99 2 6.99-3 7.99z" fill="#CE6555"/><path fill-rule="evenodd" clip-rule="evenodd" d="M106 42c-6.13-7.39-2-14.72-8-19-4.89-3.48-10.44.37-14-4-1.09-1.34-2.61-2.88-2.84-4.34-.021.45-.075.898-.16 1.34-1.52 7.82-11.88 8.51-28 15-24.77 10-28.66 12.84-30 15-2.93 4.71-2.55 12.84-2.6 18.88a43.615 43.615 0 007.15 10.77c-2.47-1-3.86-1.54-4.05-1.15-.6 1.27 11.51 12 28.2 14.58a46.402 46.402 0 0012.7.7A10.69 10.69 0 0068 93c5.58 2.91 13.07-1.2 20-5 1.74-.95 21.41-12.18 24-35 .1-.91.28-2.77.31-5.21-2.39-.79-3.88-2.86-6.31-5.79z" fill="url(#paint1_linear_553_15307)"/><path fill-rule="evenodd" clip-rule="evenodd" d="M76 85a57.466 57.466 0 01-2.16 10.49h-.34a30.808 30.808 0 01-13-2.53V86.5L76 85z" fill="url(#paint2_linear_553_15307)"/><path fill-rule="evenodd" clip-rule="evenodd" d="M76 85a57.466 57.466 0 01-2.16 10.49h-.34a30.808 30.808 0 01-13-2.53V86.5L76 85z" fill="url(#paint3_radial_553_15307)"/><path fill-rule="evenodd" clip-rule="evenodd" d="M73.84 95.49c-.12.35-.68 2.2-.84 2.51-2 4-12.5 3.5-12.5-1.5V93a30.808 30.808 0 0013 2.53l.34-.04z" fill="url(#paint4_linear_553_15307)"/><path fill-rule="evenodd" clip-rule="evenodd" d="M96 57c2.44-6.38 5.33-7 6-7 2 0 4.15 3.6 4 7-.18 4.06-3 8-11 8 .63-2.2-.41-4.32 1-8z" fill="#C59693"/><path fill-rule="evenodd" clip-rule="evenodd" d="M100 54a34 34 0 01-54.48 27.14c-4-3.06-8.65-6.92-10.8-11.56A25.06 25.06 0 0133 54c3.68-18.41 14.22-35 33-35a33.28 33.28 0 0123.55 10c3.83 3.83 5.8 8.56 7.58 13.78C98.34 46.3 100 50.09 100 54z" fill="url(#paint5_radial_553_15307)"/><path fill-rule="evenodd" clip-rule="evenodd" d="M60.68 54.26l-1.38 9.8L62 61l.43-7-1.75.26z" fill="url(#paint6_radial_553_15307)"/><path fill-rule="evenodd" clip-rule="evenodd" d="M61.26 60.82l-1.8 2.4a.8.8 0 00.64 1.28h5.8a.8.8 0 00.64-1.28l-1.8-2.4a.81.81 0 00-.64-.32h-2.2a.81.81 0 00-.64.32z" fill="url(#paint7_radial_553_15307)"/><path fill-rule="evenodd" clip-rule="evenodd" d="M66 54l.73 10.06L64 60v-7l2 1z" fill="url(#paint8_radial_553_15307)"/><path fill-rule="evenodd" clip-rule="evenodd" d="M61.58 60.5l.92-7h2v7h-2.92z" fill="url(#paint9_radial_553_15307)"/><path fill-rule="evenodd" clip-rule="evenodd" d="M62 42c8.3.36 10.24-6.25 19-6 5.14.15 11.82 2.64 13 7 1.53 5.63-6.22 13.9-14 15-6.88 1-8.74-4.37-17-4-8.26.37-9.54 5.65-16 5-7.66-.77-13.6-9.22-12-15 1.28-4.63 9-6 12-6 7.26 0 8.16 3.7 15 4z" fill="url(#paint10_radial_553_15307)"/><path fill-rule="evenodd" clip-rule="evenodd" d="M70 50c.18 2.93 4.38 5.36 8 5 3.85-.38 8-2 7-7-.78-3.92-4.33-4.67-7-4-4 1-8.19 2.88-8 6z" fill="url(#paint11_radial_553_15307)"/><path fill-rule="evenodd" clip-rule="evenodd" d="M43 49c-1.1 2.6.76 5.76 3 7 3.8 2.09 9.66-.82 10-4 .29-2.7-3.36-5.83-7-6-1.85-.08-5 .54-6 3z" fill="url(#paint12_radial_553_15307)"/><ellipse cx="51" cy="51.5" rx="4" ry="4.5" fill="url(#paint13_radial_553_15307)"/><circle cx="77.5" cy="50.5" r="4.5" fill="url(#paint14_radial_553_15307)"/><circle cx="77.25" cy="50.5" r="2.5" fill="url(#paint15_radial_553_15307)"/><circle cx="51.5" cy="51.5" r="2.5" fill="url(#paint16_radial_553_15307)"/><circle cx="48.5" cy="48.5" r="1.5" fill="url(#paint17_radial_553_15307)"/><circle cx="74.5" cy="47.5" r="1.5" fill="url(#paint18_radial_553_15307)"/><path fill-rule="evenodd" clip-rule="evenodd" d="M74.52 67a13 13 0 01-21 2.84 18 18 0 0020.67-2.63c.114-.063.225-.133.33-.21z" fill="url(#paint19_radial_553_15307)"/><path fill-rule="evenodd" clip-rule="evenodd" d="M74.18 67.24a18 18 0 01-20.67 2.63 25 25 0 0020.69-2.61l-.02-.02z" fill="url(#paint20_radial_553_15307)"/><path opacity=".12" fill-rule="evenodd" clip-rule="evenodd" d="M97.13 42.73c-1.78-5.22-3.75-10-7.58-13.78A33.35 33.35 0 0067 19c-8.44 2.77-18.88 7.85-24.33 12a41.552 41.552 0 00-3.46 5.32c2.11 3.26 29-.37 38.42-12.33 4.05 1.94 11.53 6.21 13.6 12a13.14 13.14 0 006.08 7.31c-.05-.19-.12-.38-.18-.57z" fill="#000"/><path fill-rule="evenodd" clip-rule="evenodd" d="M60.68 54.26l-1.38 9.8L62 61l.43-7-1.75.26z" fill="#E3BEB6"/><path fill-rule="evenodd" clip-rule="evenodd" d="M61.26 60.82l-1.8 2.4a.8.8 0 00.64 1.28h5.8a.8.8 0 00.64-1.28l-1.8-2.4a.81.81 0 00-.64-.32h-2.2a.81.81 0 00-.64.32z" fill="#C59693"/><path fill-rule="evenodd" clip-rule="evenodd" d="M66 54l.73 10.06L64 60v-7l2 1z" fill="#BF9F99"/><path fill-rule="evenodd" clip-rule="evenodd" d="M61.58 60.5l.92-7h2v7h-2.92z" fill="#FFCFCC"/><path fill-rule="evenodd" clip-rule="evenodd" d="M62 42c8.3.36 10.24-6.25 19-6 5.14.15 11.82 2.64 13 7 1.53 5.63-6.22 13.9-14 15-6.88 1-8.74-4.37-17-4-8.26.37-9.54 5.65-16 5-7.66-.77-13.6-9.22-12-15 1.28-4.63 9-6 12-6 7.26 0 8.16 3.7 15 4z" fill="url(#paint21_linear_553_15307)"/><path fill-rule="evenodd" clip-rule="evenodd" d="M70 50c.18 2.93 4.38 5.36 8 5 3.85-.38 8-2 7-7-.78-3.92-4.33-4.67-7-4-4 1-8.19 2.88-8 6z" fill="url(#paint22_radial_553_15307)"/><path fill-rule="evenodd" clip-rule="evenodd" d="M43 49c-1.1 2.6.76 5.76 3 7 3.8 2.09 9.66-.82 10-4 .29-2.7-3.36-5.83-7-6-1.85-.08-5 .54-6 3z" fill="url(#paint23_radial_553_15307)"/><ellipse cx="51" cy="51.5" rx="4" ry="4.5" fill="url(#paint24_linear_553_15307)"/><circle cx="77.5" cy="50.5" r="4.5" fill="url(#paint25_linear_553_15307)"/><circle cx="77.25" cy="50.5" r="2.5" fill="#000"/><circle cx="51.5" cy="51.5" r="2.5" fill="#000"/><circle cx="48.5" cy="48.5" r="1.5" fill="#fff"/><circle cx="74.5" cy="47.5" r="1.5" fill="#fff"/><path fill-rule="evenodd" clip-rule="evenodd" d="M74.52 67a13 13 0 01-21 2.84 18 18 0 0020.67-2.63c.114-.063.225-.133.33-.21z" fill="#8C7373"/><path fill-rule="evenodd" clip-rule="evenodd" d="M74.18 67.24a18 18 0 01-20.67 2.63 25 25 0 0020.69-2.61l-.02-.02z" fill="#784440"/><path fill-rule="evenodd" clip-rule="evenodd" d="M25 48c1.34-2.16 3.23-4 28-14 16.12-6.49 26.48-10.18 28-18a9.37 9.37 0 00.16-1.34A9 9 0 0083 19c3.56 4.37 9.11 1.52 14 5 6 4.28 1.87 11.61 8 19a14.582 14.582 0 007.31 4.79C112.4 39.92 110.9 26 100 18c-1.28-.93-9.78-7.14-18.2-5.2l-.3-.3C78.65 9.73 69.1.44 55.5.5c-18.9.08-35.94 18.16-39 38a46 46 0 003.9 26.38A33.19 33.19 0 0125 48z" fill="url(#paint26_radial_553_15307)"/><path fill-rule="evenodd" clip-rule="evenodd" d="M75 12c-.18-.55-12.13 2.37-24 7a149.419 149.419 0 00-19 9c12.74-4.17 23.23-8 31-11 7.31-2.8 12.12-4.65 12-5z" fill="#564343"/><path fill-rule="evenodd" clip-rule="evenodd" d="M73 105c-5.92-.3-12.29 5.08-12 9 .36 4.79 10.52 8 19 7 4-.48 11.93-1 9.93-6-1.69-4.23-7.93-9.54-16.93-10z" fill="#8575D7"/><path fill-rule="evenodd" clip-rule="evenodd" d="M74.77 107.73c-3.9.32-10.18 2.8-10.21 5.5-.05 3.59 9.19 8.52 16 6.48 2.44-.73 6.1-3.33 6.13-5.83 0-2.9-4.85-6.74-9.54-7.13-.79-.07-1.6.92-2.38.98z" fill="#302827"/><ellipse cx="73.46" cy="107.09" rx="4.54" ry="3.01" fill="#8575D7"/><ellipse cx="73.55" cy="107.25" rx="2.45" ry="1.5" fill="#fff"/><path fill-rule="evenodd" clip-rule="evenodd" d="M86.08 120.51l-7.16-10.41-6.42 2.65 4.25 9.17 9.33-1.41z" fill="#8575D7"/><path fill-rule="evenodd" clip-rule="evenodd" d="M100.38 55.88c-.79-.91.48-3.1 1.81-3.26 1.33-.16 2.89 2 2.69 3.94-.3 2.75-4.21 4.71-4.69 3.69-.56-1.19 2.11-2.06 2.12-3.19a.89.89 0 00-.67-1c-.48-.13-1.06.06-1.26-.18z" fill="#907874"/></g><defs><radialGradient id="paint3_radial_553_15307" cx="0" cy="0" r="1" gradientUnits="userSpaceOnUse" gradientTransform="rotate(-10.23 516.849 -334.786) scale(28.2 19.8124)"><stop stop-color="#806D66"/><stop offset="1" stop-color="#FFD9CC" stop-opacity=".01"/></radialGradient><radialGradient id="paint5_radial_553_15307" cx="0" cy="0" r="1" gradientUnits="userSpaceOnUse" gradientTransform="matrix(34.13 0 0 34.8676 66.23 53.5)"><stop stop-color="#FFD5CC"/><stop offset=".87" stop-color="#CD968B"/><stop offset="1" stop-color="#D29F95"/></radialGradient><radialGradient id="paint6_radial_553_15307" cx="0" cy="0" r="1" gradientUnits="userSpaceOnUse" gradientTransform="matrix(3.73 0 0 11.9884 60.87 59.03)"><stop stop-color="#FFD5CC"/><stop offset=".87" stop-color="#CD968B"/><stop offset="1" stop-color="#D29F95"/></radialGradient><radialGradient id="paint7_radial_553_15307" cx="0" cy="0" r="1" gradientUnits="userSpaceOnUse" gradientTransform="matrix(2.97 0 0 1.6054 63 62.5)"><stop stop-color="#FFD5CC"/><stop offset=".87" stop-color="#CD968B"/><stop offset="1" stop-color="#D29F95"/></radialGradient><radialGradient id="paint8_radial_553_15307" cx="0" cy="0" r="1" gradientUnits="userSpaceOnUse" gradientTransform="matrix(4.03 0 0 16.3267 65.37 58.53)"><stop stop-color="#FFD5CC"/><stop offset=".87" stop-color="#CD968B"/><stop offset="1" stop-color="#D29F95"/></radialGradient><radialGradient id="paint9_radial_553_15307" cx="0" cy="0" r="1" gradientUnits="userSpaceOnUse" gradientTransform="matrix(2.68 0 0 6.42466 63.04 57)"><stop stop-color="#FFD5CC"/><stop offset=".87" stop-color="#CD968B"/><stop offset="1" stop-color="#D29F95"/></radialGradient><radialGradient id="paint10_radial_553_15307" cx="0" cy="0" r="1" gradientUnits="userSpaceOnUse" gradientTransform="matrix(22.55 0 0 8.74677 64.47 47.52)"><stop stop-color="#FFD5CC"/><stop offset=".87" stop-color="#CD968B"/><stop offset="1" stop-color="#D29F95"/></radialGradient><radialGradient id="paint11_radial_553_15307" cx="0" cy="0" r="1" gradientUnits="userSpaceOnUse" gradientTransform="matrix(9.42 0 0 6.99387 76.07 48.28)"><stop stop-color="#FFD5CC"/><stop offset=".87" stop-color="#CD968B"/><stop offset="1" stop-color="#D29F95"/></radialGradient><radialGradient id="paint12_radial_553_15307" cx="0" cy="0" r="1" gradientUnits="userSpaceOnUse" gradientTransform="matrix(8.41 0 0 6.75303 48.18 49.52)"><stop stop-color="#FFD5CC"/><stop offset=".87" stop-color="#CD968B"/><stop offset="1" stop-color="#D29F95"/></radialGradient><radialGradient id="paint13_radial_553_15307" cx="0" cy="0" r="1" gradientUnits="userSpaceOnUse" gradientTransform="matrix(4.26 0 0 4.7925 51 51.5)"><stop stop-color="#FFD5CC"/><stop offset=".87" stop-color="#CD968B"/><stop offset="1" stop-color="#D29F95"/></radialGradient><radialGradient id="paint14_radial_553_15307" cx="0" cy="0" r="1" gradientUnits="userSpaceOnUse" gradientTransform="matrix(4.5 0 0 4.5 77.5 50.5)"><stop stop-color="#EDE6DE"/><stop offset=".87" stop-color="#C5AC93"/><stop offset="1" stop-color="#CAB49D"/></radialGradient><radialGradient id="paint15_radial_553_15307" cx="0" cy="0" r="1" gradientUnits="userSpaceOnUse" gradientTransform="matrix(2.5 0 0 2.5 77.25 50.5)"><stop stop-color="#EDE6DE"/><stop offset=".87" stop-color="#C5AC93"/><stop offset="1" stop-color="#CAB49D"/></radialGradient><radialGradient id="paint16_radial_553_15307" cx="0" cy="0" r="1" gradientUnits="userSpaceOnUse" gradientTransform="matrix(2.5 0 0 2.5 51.5 51.5)"><stop stop-color="#EDE6DE"/><stop offset=".87" stop-color="#C5AC93"/><stop offset="1" stop-color="#CAB49D"/></radialGradient><radialGradient id="paint17_radial_553_15307" cx="0" cy="0" r="1" gradientUnits="userSpaceOnUse" gradientTransform="matrix(1.5 0 0 1.5 48.5 48.5)"><stop stop-color="#EDE6DE"/><stop offset=".87" stop-color="#C5AC93"/><stop offset="1" stop-color="#CAB49D"/></radialGradient><radialGradient id="paint18_radial_553_15307" cx="0" cy="0" r="1" gradientUnits="userSpaceOnUse" gradientTransform="matrix(1.5 0 0 1.5 74.5 47.5)"><stop stop-color="#EDE6DE"/><stop offset=".87" stop-color="#C5AC93"/><stop offset="1" stop-color="#CAB49D"/></radialGradient><radialGradient id="paint19_radial_553_15307" cx="0" cy="0" r="1" gradientUnits="userSpaceOnUse" gradientTransform="matrix(7.83 0 0 2.59356 64.02 70.52)"><stop stop-color="#FFD5CC"/><stop offset=".87" stop-color="#CD968B"/><stop offset="1" stop-color="#D29F95"/></radialGradient><radialGradient id="paint20_radial_553_15307" cx="0" cy="0" r="1" gradientUnits="userSpaceOnUse" gradientTransform="matrix(7.51 0 0 1.72567 63.83 69.62)"><stop stop-color="#FFD5CC"/><stop offset=".87" stop-color="#CD968B"/><stop offset="1" stop-color="#D29F95"/></radialGradient><radialGradient id="paint22_radial_553_15307" cx="0" cy="0" r="1" gradientUnits="userSpaceOnUse" gradientTransform="matrix(9.42 0 0 6.99387 76.07 48.28)"><stop stop-color="#fff"/><stop offset="1" stop-color="#8C7373"/></radialGradient><radialGradient id="paint23_radial_553_15307" cx="0" cy="0" r="1" gradientUnits="userSpaceOnUse" gradientTransform="matrix(8.41 0 0 6.75303 48.18 49.52)"><stop stop-color="#fff"/><stop offset="1" stop-color="#8C7373"/></radialGradient><radialGradient id="paint26_radial_553_15307" cx="0" cy="0" r="1" gradientUnits="userSpaceOnUse" gradientTransform="matrix(61.55 0 0 41.1435 49.15 19.69)"><stop stop-color="#8E7979"/><stop offset=".89" stop-color="#735959"/></radialGradient><linearGradient id="paint0_linear_553_15307" x1="7.271" y1="129.054" x2="9.744" y2="121.181" gradientUnits="userSpaceOnUse"><stop/><stop offset=".51" stop-color="#262633"/><stop offset="1"/></linearGradient><linearGradient id="paint1_linear_553_15307" x1="48.98" y1="58.375" x2="50.285" y2="88.514" gradientUnits="userSpaceOnUse"><stop offset=".18" stop-color="#574343"/><stop offset=".55" stop-color="#8E7979"/><stop offset="1" stop-color="#574343"/></linearGradient><linearGradient id="paint2_linear_553_15307" x1="60.5" y1="95.51" x2="76" y2="95.51" gradientUnits="userSpaceOnUse"><stop stop-color="#CD968B"/><stop offset=".51" stop-color="#FFD5CC"/><stop offset="1" stop-color="#CD968B"/></linearGradient><linearGradient id="paint4_linear_553_15307" x1="60.5" y1="100.653" x2="73.84" y2="100.653" gradientUnits="userSpaceOnUse"><stop stop-color="#1C1717"/><stop offset=".51" stop-color="#554544"/><stop offset="1" stop-color="#1C1717"/></linearGradient><linearGradient id="paint21_linear_553_15307" x1="94.208" y1="59.06" x2="94.208" y2="35.99" gradientUnits="userSpaceOnUse"><stop stop-color="#312A28"/><stop offset="1"/></linearGradient><linearGradient id="paint24_linear_553_15307" x1="55" y1="56" x2="55" y2="47" gradientUnits="userSpaceOnUse"><stop stop-color="#BF8066"/><stop offset=".09" stop-color="#A26D57"/><stop offset=".25" stop-color="#714C3C"/><stop offset=".41" stop-color="#483127"/><stop offset=".57" stop-color="#291B16"/><stop offset=".73" stop-color="#120C0A"/><stop offset=".87" stop-color="#050302"/><stop offset="1"/></linearGradient><linearGradient id="paint25_linear_553_15307" x1="82" y1="55.08" x2="82" y2="46.08" gradientUnits="userSpaceOnUse"><stop stop-color="#BF8066"/><stop offset=".09" stop-color="#A26D57"/><stop offset=".25" stop-color="#714C3C"/><stop offset=".41" stop-color="#483127"/><stop offset=".57" stop-color="#291B16"/><stop offset=".73" stop-color="#120C0A"/><stop offset=".87" stop-color="#050302"/><stop offset="1"/></linearGradient><clipPath id="clip0_553_15307"><path fill="#fff" d="M0 0h113v127H0z"/></clipPath></defs></svg>