<svg width="16" height="16" viewBox="0 0 16 16" xmlns="http://www.w3.org/2000/svg"><g id="Export" stroke="none" stroke-width="1" fill="none" fill-rule="evenodd"><g id="Icon-(Sprite)" transform="translate(-210 -40)" fill="#FFF"><g id="Icons-/-Social-/-WhatsApp" transform="translate(210 40)"><path d="M7.89 0A7.662 7.662 0 00.226 7.664c0 2.102 1.113 3.98 1.113 3.98L0 15.72l4.198-1.342s1.56.945 3.692.945A7.662 7.662 0 107.89 0zm0 14.099c-1.972 0-3.547-1.066-3.547-1.066l-2.422.793.785-2.343S1.451 9.748 1.451 7.664a6.438 6.438 0 0112.877 0 6.435 6.435 0 01-6.438 6.435z" id="Shape"/><path d="M4.972 4.325s.208-.131.317-.131h.604s.163.029.236.196c.073.168.582 1.364.622 1.459.036.09.138.32-.022.524-.16.203-.49.585-.49.585s-.132.117-.02.306c.114.189.514.807 1.038 1.277.523.469 1.164.814 1.484.92.32.105.389-.037.513-.193l.501-.64s.131-.193.39-.073c.258.117 1.513.728 1.513.728a.2.2 0 00.16.196c.007.171.113.68-.342 1.171s-1.422.72-1.88.59c-.459-.128-1.976-.524-2.961-1.448-.99-.92-1.79-1.892-2.117-2.608-.328-.717-.31-1.139-.291-1.339.018-.2.123-1.12.745-1.52z" id="Shape"/></g></g></g></svg>