<svg width="16" height="16" viewBox="0 0 16 16" xmlns="http://www.w3.org/2000/svg"><g id="Export" stroke="none" stroke-width="1" fill="none" fill-rule="evenodd"><g id="Icon-(Sprite)" transform="translate(-90)"><g id="Icons-/-Labels-/-Phone" transform="translate(93)"><path d="M10 16H1a1 1 0 01-1-1V1a1 1 0 011-1h9a1 1 0 011 1v14a1 1 0 01-1 1z" id="Shape" fill="#B5B8BC"/><path id="Path" fill="#E7EAEE" d="M10 2H1v12h9z"/><path d="M8 12H3v-1h5v1zM3 3h1v1H3V3zm4 0h1v1H7V3zM5 3h1v1H5V3zM3 5h1v1H3V5zm4 0h1v1H7V5zM5 5h1v1H5V5zM3 7h1v1H3V7zm4 0h1v1H7V7zM5 7h1v1H5V7zM3 9h1v1H3V9zm4 0h1v1H7V9zM5 9h1v1H5V9z" id="Path" fill="#B5B8BC"/></g></g></g></svg>