<svg xmlns="http://www.w3.org/2000/svg" width="16" height="16" viewBox="0 0 16 16"><path d="M2 .74v2.518l.324-.071A8.272 8.272 0 014 3a9 9 0 019 9c0 .577-.074 1.133-.186 1.676l-.072.324 2.516.001a4.01 4.01 0 01-1.99 1.628 5.858 5.858 0 01-1.612.355l-.332.016H4.71a5.858 5.858 0 01-1.944-.371 3.948 3.948 0 01-1.423-.923 4.093 4.093 0 01-.922-1.424 5.873 5.873 0 01-.37-1.947l-.028-.525a35.45 35.45 0 01-.022-1.457L0 4.685a5.873 5.873 0 01.39-1.946A4.012 4.012 0 011.805.873L2 .74zM4 10a2 2 0 10.001 4.001A2 2 0 004 10zm0-5a6.55 6.55 0 00-1.68.226L2 5.318v3.255l.2-.112A3.832 3.832 0 014 8a4 4 0 014 4c0 .655-.175 1.26-.46 1.8l-.112.2h3.255l.092-.32A6.56 6.56 0 0011 12a7 7 0 00-7-7zm7.294-5a5.858 5.858 0 011.945.391c.533.205 1.018.52 1.423.923.406.402.721.889.922 1.425.233.623.358 1.28.37 1.946l.03.395c.034.589.004 1.08 0 2.683v3.603C15.662 5.19 10.669.248 4.47.01L4.68 0h6.614z"/></svg>