<svg xmlns="http://www.w3.org/2000/svg" width="16" height="16" viewBox="0 0 16 16"><path fill-rule="evenodd" d="M8 0a8 8 0 110 16A8 8 0 018 0zm3.815 5.202c.062-.698-.589-.52-.734-.472l-2.364.981-5.388 2.22c-.948.37-.393.716-.393.716l.94.311c.185.059.378.12.563.175.533.16.875.06 1.005.005l.058-.028 3.26-2.197c1.157-.786.88-.139.602.139a88.18 88.18 0 01-2.428 2.312c-.37.324-.185.601-.023.74.6.509 2.243 1.55 2.335 1.618l.098.07c.226.148.73.424 1.058.347.286-.068.389-.367.424-.526l.594-3.729.307-2.014c.046-.311.077-.546.086-.668z"/></svg>