<svg xmlns="http://www.w3.org/2000/svg" width="12" height="16" viewBox="0 0 12 16"><g fill="none" fill-rule="evenodd"><path fill="#B5B8BC" d="M12 11.003V12H0v-.997A3 3 0 012.997 8h6.006A2.999 2.999 0 0112 11.003zM3 3.01A3.007 3.007 0 016 0c1.657 0 3 1.35 3 3.01v.98A3.007 3.007 0 016 7C4.343 7 3 5.65 3 3.99v-.98z"/><path fill="#F1F4F8" fill-rule="nonzero" stroke="#B5B8BC" d="M.5 13.5h11v2H.5z"/><path fill="#F1F4F8" d="M4 3.005a2 2 0 114 0v.99a2 2 0 11-4 0v-.99z"/><path fill="#B5B8BC" d="M8 .767A2.983 2.983 0 006 0C4.347 0 3 1.347 3 3.01v.223C3.53 3.71 4.232 4 5 4 6.653 4 8 2.653 8 .99V.768z"/></g></svg>