<svg xmlns="http://www.w3.org/2000/svg" width="32" height="32" viewBox="0 0 32 32"><g fill="none" fill-rule="evenodd"><path fill="#FFCC19" d="M14.436 3.11c.86-1.48 2.268-1.48 3.128 0l14.068 24.22c.86 1.48.16 2.692-1.564 2.692H1.931c-1.72 0-2.424-1.211-1.564-2.692l14.07-24.218z"/><path fill="#000" fill-opacity=".38" d="M16 22a2 2 0 11-2 2 2 2 0 012-1.996V22zm1.125-2h-2.25l-.375-8h3l-.375 8z" opacity=".64"/><path fill="#000" fill-opacity=".87" d="M16 21a2 2 0 11-2 2 2 2 0 012-1.996V21zm1.125-2h-2.25l-.375-8h3l-.375 8z" opacity=".64"/></g></svg>