<svg width="24" height="16" viewBox="0 0 24 16" xmlns="http://www.w3.org/2000/svg"><g id="Export" stroke="none" stroke-width="1" fill="none" fill-rule="evenodd"><g id="Icon-(Sprite)" transform="translate(-100 -40)" fill="#FFF"><g id="Icons-/-Social-/-Twitter" transform="translate(103 40)"><path d="M18.457 1.775a7.563 7.563 0 01-2.174.597A3.798 3.798 0 0017.947.277a7.577 7.577 0 01-2.404.919A3.787 3.787 0 009.09 4.65 10.749 10.749 0 011.285.693a3.763 3.763 0 00-.512 1.904c0 1.313.668 2.472 1.684 3.152a3.781 3.781 0 01-1.715-.474v.047a3.79 3.79 0 003.037 3.714 3.791 3.791 0 01-1.71.064 3.791 3.791 0 003.537 2.63A7.6 7.6 0 010 13.3 10.722 10.722 0 005.805 15c6.965 0 10.774-5.77 10.774-10.774a9.93 9.93 0 00-.011-.49 7.703 7.703 0 001.89-1.96z" id="Shape"/></g></g></g></svg>