<svg width="24" height="16" viewBox="0 0 24 16" xmlns="http://www.w3.org/2000/svg"><g id="Export" stroke="none" stroke-width="1" fill="none" fill-rule="evenodd"><g id="Icon-(Sprite)" transform="translate(-60 -40)" fill="#FFF"><g id="Icons-/-Social-/-VK" transform="translate(60 40)"><path d="M23.873 12.334a1.67 1.67 0 00-.081-.156c-.416-.748-1.212-1.666-2.387-2.754l-.024-.025-.013-.013-.012-.012h-.013c-.533-.507-.871-.848-1.012-1.022-.259-.333-.317-.67-.175-1.01.099-.257.475-.801 1.124-1.632.342-.441.613-.794.812-1.06 1.442-1.911 2.067-3.132 1.875-3.664l-.075-.124c-.05-.075-.179-.143-.387-.206-.208-.062-.475-.072-.8-.031L19.107.65a.463.463 0 00-.25.006l-.163.038-.063.03-.049.038a.561.561 0 00-.138.13.87.87 0 00-.125.219 20.189 20.189 0 01-1.337 2.804c-.308.516-.591.962-.85 1.34-.258.378-.474.657-.649.835a4.462 4.462 0 01-.475.43c-.142.108-.25.154-.325.137-.075-.017-.146-.033-.213-.05a.836.836 0 01-.281-.305 1.367 1.367 0 01-.143-.486 5.27 5.27 0 01-.044-.505 10.77 10.77 0 01.006-.598c.009-.258.013-.432.013-.524 0-.315.006-.658.018-1.028.013-.37.023-.663.032-.878.008-.217.012-.445.012-.686 0-.241-.015-.43-.044-.567a1.846 1.846 0 00-.131-.4.67.67 0 00-.256-.298 1.413 1.413 0 00-.418-.168c-.442-.1-1.004-.154-1.687-.162C9.997-.015 9.002.085 8.56.3a1.68 1.68 0 00-.475.374c-.15.182-.171.282-.062.299.499.074.853.253 1.062.536l.075.149c.058.108.116.299.175.574.058.274.096.577.112.909a9.58 9.58 0 010 1.558c-.042.432-.081.769-.119 1.01a1.988 1.988 0 01-.168.585c-.075.15-.125.24-.15.275a.208.208 0 01-.063.062.945.945 0 01-.337.062c-.117 0-.258-.058-.425-.174a3.062 3.062 0 01-.519-.48 6.427 6.427 0 01-.606-.854 14.683 14.683 0 01-.699-1.296l-.2-.362a31.153 31.153 0 01-.513-1.015 19.838 19.838 0 01-.574-1.29.823.823 0 00-.3-.4L4.711.787a.86.86 0 00-.2-.106A1.31 1.31 0 004.224.6L.8.624C.45.624.213.703.088.86l-.05.075a.402.402 0 00-.038.2c0 .092.025.204.075.337a40.94 40.94 0 001.631 3.39c.587 1.088 1.097 1.965 1.53 2.629.434.665.875 1.293 1.325 1.882.45.59.748.968.893 1.135.146.166.261.29.344.373l.313.3c.2.199.493.438.881.716.387.279.816.553 1.287.823.47.27 1.018.49 1.643.66a5.681 5.681 0 001.824.206h1.438c.291-.025.512-.116.662-.274l.05-.063a.83.83 0 00.093-.23c.029-.104.044-.218.044-.343a4.08 4.08 0 01.081-.965c.062-.287.133-.503.213-.648a1.581 1.581 0 01.481-.55.741.741 0 01.1-.042c.2-.067.435-.002.706.193.271.195.525.436.762.723.238.287.523.608.856.966.334.357.625.623.875.797l.25.15c.167.1.383.19.65.274.266.083.499.104.699.062l3.199-.05c.317 0 .563-.052.737-.155.175-.104.279-.218.313-.343a.968.968 0 00.006-.424 1.512 1.512 0 00-.088-.33z" id="Shape"/></g></g></g></svg>