<svg width="16" height="16" viewBox="0 0 16 16" xmlns="http://www.w3.org/2000/svg"><g id="Export" stroke="none" stroke-width="1" fill="none" fill-rule="evenodd"><g id="Icon-(Sprite)" transform="translate(-510)" fill="#B5B8BC"><g id="Icons-/-Skype" transform="translate(510 -1)"><path d="M11.606 17.02a4.31 4.31 0 01-2.311-.672 7.383 7.383 0 01-1.333.126c-4.048 0-7.328-3.328-7.328-7.435 0-.398.032-.79.092-1.172A4.486 4.486 0 01.021 5.44C.021 2.976 1.977.981 4.393.979c.881 0 1.699.266 2.387.724a7.154 7.154 0 011.18-.098c4.047 0 7.327 3.33 7.327 7.434 0 .343-.024.678-.068 1.009.481.717.76 1.581.76 2.512 0 2.463-1.956 4.46-4.373 4.46zM7.042 7.608c-2.118-.525-.958-2.374.757-2.346 1.665.027 2.513 1.821 3.266 1.727.756-.093 1.399-1.247.211-2.282-1.026-.895-2.328-1.388-4.325-1.204-1.566.145-3.053 1.174-3.237 3.178-.181 2.005 2.15 3.024 3.995 3.304 1.294.194 3.056.833 1.995 2.066-.971 1.134-2.813.432-3.296.125-.484-.312-1.03-1.421-1.937-1.361-.909.062-1.356 1.28-.241 2.347.999.954 2.088 1.482 4.417 1.356 2.33-.124 4.418-2.22 3.6-4.197-.818-1.973-3.086-2.189-5.205-2.713z" id="Shape"/></g></g></g></svg>