<svg width="16" height="16" viewBox="0 0 16 16" xmlns="http://www.w3.org/2000/svg"><g id="Export" stroke="none" stroke-width="1" fill="none" fill-rule="evenodd"><g id="Icon-(Sprite)" transform="translate(-180 -40)" fill="#FFF"><g id="Icons-/-Social-/-Pocket" transform="translate(180 41)"><path d="M12.533 5.864L8.77 9.4a1.108 1.108 0 01-1.52 0L3.488 5.865a1.061 1.061 0 01-.032-1.52 1.112 1.112 0 011.55-.032l3.006 2.823 3.004-2.823a1.113 1.113 0 011.55.032c.42.43.406 1.11-.03 1.52l-.003-.001zM15.921.936A1.452 1.452 0 0014.558 0H1.45C.854 0 .31.368.096.917A1.377 1.377 0 000 1.422v4.73l.055.94c.232 2.14 1.366 4.01 3.12 5.314.03.024.063.047.094.07l.02.013a7.98 7.98 0 003.128 1.353 8.2 8.2 0 003.064.024c.058-.01.116-.022.175-.034a.216.216 0 00.05-.018 7.99 7.99 0 003.003-1.326l.02-.015c.032-.022.064-.045.096-.07 1.753-1.303 2.887-3.173 3.12-5.312l.054-.94v-4.73c0-.165-.02-.327-.08-.487l.002.002z" id="Pocket"/></g></g></g></svg>