<svg width="24" height="16" viewBox="0 0 24 16" xmlns="http://www.w3.org/2000/svg"><g id="Export" stroke="none" stroke-width="1" fill="none" fill-rule="evenodd"><g id="Icon-(Sprite)" transform="translate(-140 -40)" fill="#DB462F"><g id="Icons-/-Social-/-Google" transform="translate(141 42)"><path d="M11 5.5a5.5 5.5 0 11-1.61-3.89L7.974 3.026A3.5 3.5 0 108.965 5h2.013c.014.165.022.331.022.5z" id="G"/><path id="G-" d="M6 5h5l-1 2H6z"/><path id="Combined-Shape" d="M16 5V3h-1v2h-2v1h2v2h1V6h2V5zm5 5h1V1h-1c0 1-2 1-2 1v1h2v7z"/></g></g></g></svg>