<svg width="16" height="16" viewBox="0 0 16 16" xmlns="http://www.w3.org/2000/svg"><g id="Export" stroke="none" stroke-width="1" fill="none" fill-rule="evenodd"><g id="Icon-(Sprite)" transform="translate(-390)"><g id="Icons-/-Flags-/-US" transform="translate(390 3)"><path id="White" fill="#F1F4F8" d="M0 0h15v11H0z"/><path d="M8 0h7v1H8V0zm0 2h7v1H8V2zm0 2h7v1H8V4zm0 2h7v1H8V6zM0 8h15v1H0V8zm0 2h15v1H0v-1z" id="Red" fill="#CD1D28"/><path id="Blue" fill="#0E2E64" d="M0 0h8v7H0z"/><path d="M1 0h1v1H1V0zm2 0h1v1H3V0zm2 0h1v1H5V0zm2 0h1v1H7V0zM2 1h1v1H2V1zM0 1h1v1H0V1zm4 0h1v1H4V1zm2 0h1v1H6V1zM3 2h1v1H3V2zM1 2h1v1H1V2zm4 0h1v1H5V2zm2 0h1v1H7V2zM2 3h1v1H2V3zM0 3h1v1H0V3zm4 0h1v1H4V3zm2 0h1v1H6V3zM3 4h1v1H3V4zM1 4h1v1H1V4zm4 0h1v1H5V4zm2 0h1v1H7V4zM2 5h1v1H2V5zM0 5h1v1H0V5zm4 0h1v1H4V5zm2 0h1v1H6V5zM3 6h1v1H3V6zM1 6h1v1H1V6zm4 0h1v1H5V6zm2 0h1v1H7V6z" id="Stars" fill="#8799B7"/><path d="M0 0h15v11H0V0zm1 1h13v9H1V1z" id="Border" fill-opacity=".12" fill="#000"/></g></g></g></svg>