<svg xmlns="http://www.w3.org/2000/svg" width="32" height="32" viewBox="0 0 32 32"><path d="M22.416 3.544a28.642 28.642 0 017.857 2.493.421.421 0 01.24.45l-.424 3.2a.426.426 0 01-.42.37.42.42 0 01-.199-.052 24.793 24.793 0 00-6.774-2.445l-.28-4.016zm4.29 12.149a1.573 1.573 0 011.367 2.355L21.08 30.364A3.128 3.128 0 0118.33 32h-7.597a3.127 3.127 0 01-3.099-2.705l-1.239-9.277a3.129 3.129 0 011.855-3.29l6.915-3.06.915-12.25a1.575 1.575 0 013.144.158l.66 16.954a1.572 1.572 0 002.757 1.031l2.904-3.357a1.57 1.57 0 011.16-.511zM1.123 8.808v-.002l5.72-5.846v.002a.425.425 0 01.697.155l.562 1.702c1.446-.534 2.93-.93 4.46-1.204l-.152 4.006a25.018 25.018 0 00-3.034.859l.55 1.607a.423.423 0 01-.456.55l-8.1-1.132c-.202 0-.37-.18-.37-.399 0-.116.048-.221.123-.298z"/></svg>