<svg width="16" height="16" viewBox="0 0 16 16" xmlns="http://www.w3.org/2000/svg"><g id="Export" stroke="none" stroke-width="1" fill="none" fill-rule="evenodd"><g id="Icon-(Sprite)" transform="translate(-320 -40)" fill="#B5B8BC"><g id="Icons-/-Share" transform="translate(323 41)"><path d="M4 5H.996A.995.995 0 000 5.995v8.01c0 .54.446.995.996.995h9.008a.995.995 0 00.996-.995v-8.01c0-.54-.446-.995-.996-.995H7v1h3v8H1V6h3V5zm5-1.707l-3-3V0H5v.293l-.03.03L2 3.293V4h.707L5 1.707V10h1V1.707L8.293 4H9v-.707z" id="Combined-Shape"/></g></g></g></svg>