<svg xmlns="http://www.w3.org/2000/svg" xmlns:xlink="http://www.w3.org/1999/xlink" width="2560" height="1058" viewBox="0 0 2560 1058"><defs><path id="bg-front-md-a" d="M2039.163 0H2560v687.18c-239.191-44.635-485.871-67.973-738-67.973-656.236 0-1275.562 158.105-1822 438.318V185.36c255.412 192.005 572.925 305.785 917 305.785 443.586 0 843.024-189.11 1122.163-491.145z"/><mask id="bg-front-md-b" width="2560" height="1057.525" x="0" y="0" fill="#fff"><use xlink:href="#bg-front-md-a"/></mask></defs><g fill="none" fill-rule="evenodd"><use fill="#F2B200" stroke="#D99900" stroke-dasharray="4 4" stroke-width="2" mask="url(#bg-front-md-b)" xlink:href="#bg-front-md-a"/><path fill="#F2B200" stroke="#E5A600" d="M920 736.5c8.56 0 15.5-6.94 15.5-15.5 0-8.56-6.94-15.5-15.5-15.5-8.56 0-15.5 6.94-15.5 15.5 0 8.56 6.94 15.5 15.5 15.5z"/><path fill="#FFBF0D" d="M920 729a8 8 0 100-16 8 8 0 000 16z"/><path fill="#F2B200" d="M1786 225c6.627 0 12-5.373 12-12s-5.373-12-12-12-12 5.373-12 12 5.373 12 12 12z"/><path fill="#E5A600" d="M1790 225a8 8 0 100-16 8 8 0 000 16z"/><path fill="#F2B200" fill-rule="nonzero" d="M1336 431.792V490h-272v-6.889c93.376-8.95 184.298-26.312 272-51.319z"/></g></svg>