<svg width="410" height="192" viewBox="0 0 410 192" fill="none" xmlns="http://www.w3.org/2000/svg">
<g id="bg-blog-about-design-marketing-development" clip-path="url(#clip0_547_9854)">
<mask id="mask0_547_9854" style="mask-type:luminance" maskUnits="userSpaceOnUse" x="0" y="0" width="410" height="192">
<path id="mask" d="M0.5 0H405.5C407.709 0 409.5 1.79086 409.5 4V188C409.5 190.209 407.709 192 405.5 192H0.5V0Z" fill="white"/>
</mask>
<g mask="url(#mask0_547_9854)">
<rect id="Desk" x="40.5" width="369" height="192" fill="#FF9807"/>
<g id="Checked">
<path id="V" fill-rule="evenodd" clip-rule="evenodd" d="M45.5 0H46.5V192H45.5V0ZM53.5 0H54.5V192H53.5V0ZM61.5 0H62.5V192H61.5V0ZM69.5 0H70.5V192H69.5V0ZM77.5 0H78.5V192H77.5V0ZM85.5 0H86.5V192H85.5V0ZM93.5 0H94.5V192H93.5V0ZM101.5 0H102.5V192H101.5V0ZM109.5 0H110.5V192H109.5V0ZM117.5 0H118.5V192H117.5V0ZM125.5 0H126.5V192H125.5V0ZM133.5 0H134.5V192H133.5V0ZM141.5 0H142.5V192H141.5V0ZM149.5 0H150.5V192H149.5V0ZM157.5 0H158.5V192H157.5V0ZM165.5 0H166.5V192H165.5V0ZM173.5 0H174.5V192H173.5V0ZM181.5 0H182.5V192H181.5V0ZM189.5 0H190.5V192H189.5V0Z" fill="white" fill-opacity="0.08"/>
<path id="H" fill-rule="evenodd" clip-rule="evenodd" d="M40.5 7H190.5V8H40.5V7ZM40.5 15H190.5V16H40.5V15ZM40.5 23H190.5V24H40.5V23ZM40.5 31H190.5V32H40.5V31ZM40.5 39H190.5V40H40.5V39ZM40.5 47H190.5V48H40.5V47ZM40.5 55H190.5V56H40.5V55ZM40.5 63H190.5V64H40.5V63ZM40.5 71H190.5V72H40.5V71ZM40.5 79H190.5V80H40.5V79ZM40.5 87H190.5V88H40.5V87ZM40.5 95H190.5V96H40.5V95ZM40.5 103H190.5V104H40.5V103ZM40.5 111H190.5V112H40.5V111ZM40.5 119H190.5V120H40.5V119ZM40.5 127H190.5V128H40.5V127ZM40.5 135H190.5V136H40.5V135ZM40.5 143H190.5V144H40.5V143ZM40.5 151H190.5V152H40.5V151ZM40.5 159H190.5V160H40.5V159ZM40.5 167H190.5V168H40.5V167ZM40.5 175H190.5V176H40.5V175ZM40.5 183H190.5V184H40.5V183Z" fill="white" fill-opacity="0.08"/>
</g>
<rect id="Shade" x="0.5" width="40" height="192" fill="url(#paint0_linear_547_9854)" fill-opacity="0.64"/>
<g id="Oval">
<circle cx="153" cy="152.5" r="59.5" fill="#FF9807"/>
<circle cx="153" cy="152.5" r="59" stroke="white" stroke-opacity="0.4" stroke-dasharray="2"/>
</g>
<g id="Oval_2">
<circle cx="285.5" cy="96" r="96" fill="#FF9807"/>
<circle cx="285.5" cy="96" r="95.5" stroke="white" stroke-opacity="0.4" stroke-dasharray="2"/>
</g>
<path id="ring" fill-rule="evenodd" clip-rule="evenodd" d="M254 251C339.88 251 409.5 181.38 409.5 95.5C409.5 9.61972 339.88 -60 254 -60C168.12 -60 98.5 9.61972 98.5 95.5C98.5 181.38 168.12 251 254 251ZM254.5 192C307.519 192 350.5 149.019 350.5 96C350.5 42.9807 307.519 0 254.5 0C201.481 0 158.5 42.9807 158.5 96C158.5 149.019 201.481 192 254.5 192Z" fill="white" fill-opacity="0.24"/>
<path id="shadow" fill-rule="evenodd" clip-rule="evenodd" d="M40.5 23.6345C49.5944 13.9958 62.3619 8 76.5 8C100.133 8 119.936 24.7527 125.155 47.2696C138.061 56.5081 146.5 71.818 146.5 89.1417C146.5 111.157 132.872 129.919 113.766 137.103C114.472 140.697 114.455 144.42 113.603 148.118C111.533 157.101 104.969 164.05 96.3154 167.706C93.9042 175.35 89.478 188.386 87.1644 188.964C84.2539 189.691 76.7926 179.266 75.1158 169.988C74.3293 169.854 73.5409 169.696 72.7515 169.513C68.8325 168.607 65.1987 167.169 61.9347 165.313C55.1487 170.341 44.1435 173.247 40.5 172.371L40.5 167.297C42.3535 163.059 45.9626 156.806 48.6407 152.344C45.1295 146.255 43.8039 139.257 45.397 132.344C46.7813 126.338 50.1742 121.241 54.8576 117.43C51.6308 112.48 49.2267 106.923 47.8448 100.961C45.1971 99.066 42.7374 96.9152 40.5 94.5439L40.5 23.6345Z" fill="#E08300" fill-opacity="0.16"/>
<path id="shadow_2" fill-rule="evenodd" clip-rule="evenodd" d="M40.5 88.4945V35.5055C48.7845 23.125 62.7136 15 78.5 15C102.674 15 122.494 34.0534 124.357 58.2643C133.021 65.9651 138.5 77.3271 138.5 90C138.5 113.196 120.144 132 97.5 132C79.8688 132 64.837 120.6 59.0459 104.602C51.5389 101.017 45.1357 95.4222 40.5 88.4945Z" fill="#E08300" fill-opacity="0.16"/>
<g id="Batarang" opacity="0.64" filter="url(#filter0_di_547_9854)">
<path fill-rule="evenodd" clip-rule="evenodd" d="M192.728 119.995C192.728 119.995 184.925 131.956 186.366 137.879C187.337 141.868 189.67 143.554 189.67 143.554C189.67 143.554 182.468 148.083 182.451 148.065C165.355 158.748 168.979 172.569 168.979 172.569C168.979 172.569 158.145 163.253 141.049 173.936C141.058 173.959 133.83 178.447 133.83 178.447C133.83 178.447 133.338 175.611 130.177 172.989C125.486 169.098 111.315 170.867 111.315 170.867L138.539 153.856C138.539 153.856 141.906 159.634 147.117 156.357C147.443 156.171 152.553 153.444 152.553 153.444L150.14 148.421L152.597 150.998C152.597 150.998 153.116 150.091 154.435 149.295C155.729 148.458 156.772 148.389 156.772 148.389L155.533 145.051L158.99 149.422C158.99 149.422 163.681 146.025 163.991 145.813C169.221 142.566 165.503 137.007 165.503 137.007L192.728 119.995V119.995Z" fill="#DB8000"/>
</g>
</g>
</g>
<defs>
<filter id="filter0_di_547_9854" x="107.315" y="117.995" width="89.4126" height="66.452" filterUnits="userSpaceOnUse" color-interpolation-filters="sRGB">
<feFlood flood-opacity="0" result="BackgroundImageFix"/>
<feColorMatrix in="SourceAlpha" type="matrix" values="0 0 0 0 0 0 0 0 0 0 0 0 0 0 0 0 0 0 127 0" result="hardAlpha"/>
<feOffset dy="2"/>
<feGaussianBlur stdDeviation="2"/>
<feColorMatrix type="matrix" values="0 0 0 0 0.603922 0 0 0 0 0.45098 0 0 0 0 0.0313726 0 0 0 0.32 0"/>
<feBlend mode="normal" in2="BackgroundImageFix" result="effect1_dropShadow_547_9854"/>
<feBlend mode="normal" in="SourceGraphic" in2="effect1_dropShadow_547_9854" result="shape"/>
<feColorMatrix in="SourceAlpha" type="matrix" values="0 0 0 0 0 0 0 0 0 0 0 0 0 0 0 0 0 0 127 0" result="hardAlpha"/>
<feOffset dy="-1"/>
<feComposite in2="hardAlpha" operator="arithmetic" k2="-1" k3="1"/>
<feColorMatrix type="matrix" values="0 0 0 0 0.635294 0 0 0 0 0.478431 0 0 0 0 0.0313726 0 0 0 0.551715 0"/>
<feBlend mode="normal" in2="shape" result="effect2_innerShadow_547_9854"/>
</filter>
<linearGradient id="paint0_linear_547_9854" x1="0.5" y1="190.76" x2="39.9834" y2="190.76" gradientUnits="userSpaceOnUse">
<stop stop-color="#E08300" stop-opacity="0"/>
<stop offset="0.788783" stop-color="#E08300" stop-opacity="0.5"/>
<stop offset="1" stop-color="#E08300"/>
</linearGradient>
<clipPath id="clip0_547_9854">
<rect width="409" height="192" fill="white" transform="translate(0.5)"/>
</clipPath>
</defs>
</svg>
