<svg xmlns="http://www.w3.org/2000/svg" width="247" height="144" viewBox="0 0 247 144">
  <defs>
    <radialGradient id="prices-mr-incredible-a" cx="49.579%" cy="43.255%" r="155.799%" fx="49.579%" fy="43.255%" gradientTransform="scale(.41376 1) rotate(25.56 .847 1.981)">
      <stop offset="0%" stop-color="#CC998C"/>
      <stop offset="100%" stop-color="#FFD9CC"/>
    </radialGradient>
    <radialGradient id="prices-mr-incredible-b" cx="7.876%" cy="7.334%" r="136.116%" fx="7.876%" fy="7.334%" gradientTransform="matrix(.8209 0 0 1 .014 0)">
      <stop offset="0%" stop-color="#FF2626"/>
      <stop offset="100%" stop-color="#C91D1D"/>
    </radialGradient>
    <linearGradient id="prices-mr-incredible-c" x1="-.054%" x2="99.997%" y1="50.018%" y2="50.018%">
      <stop offset="0%"/>
      <stop offset="51%" stop-color="#262633"/>
      <stop offset="100%"/>
    </linearGradient>
    <linearGradient id="prices-mr-incredible-d" x1="17.998%" x2="102.215%" y1="44.824%" y2="53.014%">
      <stop offset="0%" stop-color="#FFD9CC"/>
      <stop offset="78%" stop-color="#CC998C"/>
      <stop offset="100%" stop-color="#CC998C"/>
    </linearGradient>
    <radialGradient id="prices-mr-incredible-e" cx="29.217%" cy="49.556%" r="65.964%" fx="29.217%" fy="49.556%" gradientTransform="matrix(1 0 0 .73778 0 .13)">
      <stop offset="0%" stop-color="#9C756B"/>
      <stop offset="100%" stop-color="#CC998C" stop-opacity="0"/>
    </radialGradient>
    <radialGradient id="prices-mr-incredible-f" cx="28.181%" cy="8.503%" r="50.448%" fx="28.181%" fy="8.503%" gradientTransform="matrix(-.68106 -.72674 .72054 -.68692 .412 .348)">
      <stop offset="0%" stop-color="#9C756B"/>
      <stop offset="100%" stop-color="#CC998C" stop-opacity="0"/>
    </radialGradient>
    <radialGradient id="prices-mr-incredible-g" cx="50.048%" cy="50.001%" r="84.344%" fx="50.048%" fy="50.001%" gradientTransform="matrix(.59697 0 0 1 .202 0)">
      <stop offset="0%" stop-color="#474752"/>
      <stop offset="35%" stop-color="#454550"/>
      <stop offset="54%" stop-color="#3E3E48"/>
      <stop offset="70%" stop-color="#32323A"/>
      <stop offset="83%" stop-color="#212126"/>
      <stop offset="95%" stop-color="#0C0C0E"/>
      <stop offset="100%"/>
    </radialGradient>
    <radialGradient id="prices-mr-incredible-h" cx="54.835%" cy="58.863%" r="135.986%" fx="54.835%" fy="58.863%" gradientTransform="matrix(.54368 0 0 1 .25 0)">
      <stop offset="0%" stop-color="#FFF"/>
      <stop offset="100%" stop-color="#8C7373"/>
    </radialGradient>
    <radialGradient id="prices-mr-incredible-i" cx="50.067%" r="55.2%" fx="50.067%" fy="50%">
      <stop offset="0%" stop-color="#69B4D9"/>
      <stop offset="100%" stop-color="#006FA6"/>
    </radialGradient>
    <radialGradient id="prices-mr-incredible-j" cx="38.285%" cy="31.443%" r="120.241%" fx="38.285%" fy="31.443%" gradientTransform="matrix(.6255 0 0 1 .143 0)">
      <stop offset="0%" stop-color="#FFF"/>
      <stop offset="100%" stop-color="#8C7373"/>
    </radialGradient>
    <radialGradient id="prices-mr-incredible-k" r="55.2%" fx="50%" fy="50%">
      <stop offset="0%" stop-color="#69B4D9"/>
      <stop offset="100%" stop-color="#006FA6"/>
    </radialGradient>
  </defs>
  <g fill="none" fill-rule="evenodd" transform="translate(0 -13)">
    <path fill="#C9ABA2" d="M173.29,48 C170.988179,45.9797492 168.500434,44.1817424 165.86,42.63 C166.1,51.51 166.99,60.39 167.55,69.26 C170.633812,64.5648379 173.110205,59.4978085 174.92,54.18 C175.66584,51.9795454 175.024079,49.5463659 173.29,48 Z"/>
    <path fill="#F5D0C4" d="M113.07,35.69 C111.019125,36.4605779 109.584361,38.3296499 109.37,40.51 C108.731973,46.5364211 108.944047,52.6226059 110,58.59 C115.28,50.02 121.94,42.39 125.83,33.11 C121.475639,33.3589946 117.179046,34.2277416 113.07,35.69 Z"/>
    <path fill="#CC998C" d="M112,41.88 C112.69,39.49 112.49,37.34 111.56,37.07 C111.340547,37.0193882 111.109961,37.0590201 110.92,37.18 C110.070199,38.0977642 109.54044,39.266039 109.41,40.51 C109.23,42.26 109.13,44 109.08,45.72 C110,46 111.28,44.26 112,41.88 Z" opacity=".25"/>
    <path fill="url(#prices-mr-incredible-a)" d="M186.4,100 L173,89.46 L103,74.46 L96.38,79.13 C105.47,91.13 126.15,103.73 149.54,109.34 C173.23,115.05 186.46,109.84 186.4,100 Z"/>
    <path fill="#FF2626" d="M42,138.91 L40,157 L0.92,157 L9.75,140.5 L14,124 C14.6879745,121.339642 16.0441876,118.899147 17.94,116.91 C17.4701433,117.421477 17.0294464,117.958994 16.62,118.52 C23.53,126.16 35.06,137.85 42,138.91 Z"/>
    <path fill="#BA1C1C" d="M118,157 L85.75,157 C87.4626897,151.862467 88.6356832,146.560536 89.25,141.18 C98.2436712,147.460418 107.881508,152.763742 118,157 Z"/>
    <path fill="url(#prices-mr-incredible-b)" d="M256.66,157 L218,157 C218,157 216.29,131.37 203.84,113.64 L209.25,117.88 C210.409771,118.792834 211.671541,119.568018 213.01,120.19 L235.36,128.72 C241.663177,131.698527 246.808702,136.671832 250,142.87 L256.66,157 Z"/>
    <path fill="#E02121" d="M218,157 L118,157 C107.891889,152.761829 98.2641965,147.458553 89.28,141.18 C88.6656832,146.560536 87.4926897,151.862467 85.78,157 L40,157 L42,138.91 C35,137.85 23.52,126.16 16.65,118.54 C17.0594464,117.978994 17.5001433,117.441477 17.97,116.93 C18.21,116.68 18.46,116.44 18.71,116.2 L19.49,115.51 C19.72,115.32 19.95,115.14 20.18,114.98 C20.3978661,114.810968 20.6248766,114.654064 20.86,114.51 C21.0147242,114.390698 21.178559,114.283704 21.35,114.19 C21.9003556,113.848144 22.4714602,113.540883 23.06,113.27 L80.21,87.19 L93.89,81 L96.42,79.22 C96.98,79.95 97.59,80.67 98.21,81.42 C106.73,91.72 135.73,105.66 148.41,109.13 L149.58,109.43 C173.23,115.1 186.46,109.89 186.4,100.01 L203.84,113.69 C216.29,131.37 218,157 218,157 Z"/>
    <path fill="#FF5151" d="M117,96.3 C101,106.83 51.35,139 43,139 C42.6646659,138.999526 42.3300301,138.969408 42,138.91 C35,137.85 23.52,126.16 16.65,118.54 C17.0594464,117.978994 17.5001433,117.441477 17.97,116.93 C18.21,116.68 18.46,116.44 18.71,116.2 L19.49,115.51 C19.72,115.32 19.95,115.14 20.18,114.98 C20.3978661,114.810968 20.6248766,114.654064 20.86,114.51 C21.0147242,114.390698 21.178559,114.283704 21.35,114.19 C21.9003556,113.848144 22.4714602,113.540883 23.06,113.27 L93.89,81 L96.42,79.22 C96.98,79.95 97.57,80.69 98.21,81.42 C100.687189,84.2197508 103.415215,86.7871074 106.36,89.09 C106.77,89.42 116.36,95.95 116.83,96.24 L117,96.3 Z"/>
    <path fill="#FF2626" d="M218,157 L118,157 C107.891889,152.761829 98.2641965,147.458553 89.28,141.18 L89,141 L87,115 L88.39,114.14 L117,96.3 C126.80945,102.023845 137.381504,106.326738 148.4,109.08 L149.57,109.38 C173.22,115.05 186.45,109.84 186.39,99.96 L203.83,113.64 C216.29,131.37 218,157 218,157 Z"/>
    <path fill="#801313" d="M89.25 141.18C88.6356832 146.560536 87.4626897 151.862467 85.75 157L82.75 157C82.75 157 94 129 80.22 87.19 84.1221682 95.7728762 86.8694276 104.835133 88.39 114.14 89.9580808 123.066885 90.247651 132.171513 89.25 141.18zM205.1 114.62C205.1 114.62 217 137 218 157L220 157C220 157 217 134 205.1 114.62z"/>
    <path fill="url(#prices-mr-incredible-c)" d="M150.58,111.39 C175.25,117.22 188.77,111.58 187.98,101.2 L183.76,97.89 C182.36,106.07 169.93,110.31 148.76,105.71 C126.3,100.85 106.45,89.33 97.82,78.21 L95.56,79.81 C104.17,92.2 125.89,105.57 150.58,111.39 Z"/>
    <path fill="url(#prices-mr-incredible-d)" d="M173,87.15 C173.62,95.56 155.91,97.79 138.52,93.75 C118.77,89.17 98.38,77.5 103.73,66.61 L114.93,41.16 L124.37,19.71 C125.429927,17.3036447 127.235429,15.3018161 129.52,14 L153.24,0.56 C154.804593,-0.324723301 156.786059,0.135880444 157.8,1.62 C160.46,5.52 165.26,12.74 166.74,15.99 C168.791626,20.718544 170.330418,25.6534069 171.33,30.71 C171.359874,30.8954763 171.379902,31.0824049 171.39,31.27 L172.24,60.96 L173,87.15 Z"/>
    <path fill="#997369" d="M173,87.45 C173.19,95.61 155.69,97.74 138.51,93.75 C119.94,89.44 100.81,78.87 103.03,68.58 C110.15,75.9 121.52,82.42 135.12,86.23 C149.33,90.2 163,90.39 173,87.45 Z" opacity=".17" style="mix-blend-mode:multiply"/>
    <path stroke="#FFF" d="M173,87.45 C163,90.39 149.32,90.2 135.12,86.23 C121.52,82.42 110.12,75.9 103.03,68.58" opacity=".09"/>
    <path fill="#CC998C" d="M143.33,46.78 L154.25,48.78 C154.25,48.78 151.16,43.05 143.33,46.78 Z"/>
    <path fill="#FFD9CC" d="M151.75,30.32 L143.33,46.78 C143.33,46.78 150.75,44.53 154.25,48.78 L156,31 L151.75,30.32 Z"/>
    <path fill="#997369" d="M152.89,47.54 C153.398421,47.8767976 153.856342,48.2842127 154.25,48.75 L155.53,35.75 C154.042902,39.5190029 153.152217,43.4967234 152.89,47.54 Z" opacity=".56"/>
    <path fill="#BFA399" d="M143.33,46.78 C145.136142,46.2873912 147.012774,46.1048 148.88,46.24 C149.542379,42.0592778 149.939838,37.8408677 150.07,33.61 L143.33,46.78 Z" opacity=".5"/>
    <path fill="url(#prices-mr-incredible-e)" d="M157.83,50.13 C157.079972,50.1361939 156.343737,50.3322938 155.69,50.7 C157.134078,51.4725238 158.035633,52.9772712 158.035633,54.615 C158.035633,56.2527288 157.134078,57.7574762 155.69,58.53 C156.346252,58.8902509 157.081406,59.0826277 157.83,59.09 C160.315281,59.09 162.33,57.0752814 162.33,54.59 C162.33,52.1047186 160.315281,50.09 157.83,50.09 L157.83,50.13 Z"/>
    <path fill="url(#prices-mr-incredible-f)" d="M136.92,42.23 C137.433674,42.778294 137.804572,43.4445381 138,44.17 C136.446357,43.6510863 134.733207,44.0297331 133.54299,45.1551052 C132.352774,46.2804773 131.878847,47.9697515 132.31,49.55 C131.59358,49.3323814 130.945833,48.9327077 130.43,48.39 C128.728963,46.5923131 128.807313,43.756037 130.605,42.055 C132.402687,40.353963 135.238963,40.4323131 136.94,42.23 L136.92,42.23 Z"/>
    <path fill="#5C5C5C" d="M158.13,53.89 C155.504078,54.1964285 152.848129,54.1324703 150.24,53.7 C141.48,52.32 134.24,47.62 133.57,42.99 C133.521041,43.2605384 133.497605,43.5350778 133.5,43.81 C133.5,48.64 140.78,53.69 149.73,55.08 C152.511491,55.5352975 155.348509,55.5352975 158.13,55.08 L158.13,53.89 Z"/>
    <path fill="url(#prices-mr-incredible-g)" d="M139,18.17 L150.33,18.17 C151.764561,18.1692884 153.130321,18.7847911 154.08,19.86 C156.31,22.38 159.22,25.86 163.17,27.26 C167.12,28.66 172.91,34.42 172.57,37.59 C172.23,40.76 171.8,46.72 171.8,46.72 C172.68,46.72 156.1,47.65 155.8,40.52 C155.71,38.52 156.29,36 154.59,35.16 C153.171579,34.6186323 151.61378,34.5623687 150.16,35 C148.32,35.66 147.21,37.7 145.82,39.08 C143.51,41.39 133.51,43.17 125.42,35.91 C124.658356,35.2294692 124.471313,34.1113667 124.97,33.22 C126.483569,30.3671725 128.152752,27.5996675 129.97,24.93 C131.805542,22.9434786 133.766208,21.0763374 135.84,19.34 C136.717333,18.5809414 137.839888,18.1653118 139,18.17 Z"/>
    <path fill="#000" d="M155.69 36.64C164.78 35.19 169.82 38.69 172.25 41.35 172.36 40 172.49 38.65 172.6 37.6 172.550859 36.1260765 171.996555 34.7138387 171.03 33.6 167.743581 31.2956455 164.12545 29.5051261 160.3 28.29 158.165509 30.4953473 156.513765 33.1211087 155.45 36 155.552273 36.2043043 155.632718 36.4188238 155.69 36.64zM148.12 20.12C146.58 19.72 139.62 20.25 137 21.25 134.38 22.25 127.37 30.32 127.37 30.32 127.37 30.32 136 27.25 139.12 27.26 141.820837 27.1721784 144.338611 28.620867 145.62 31 146.34 32.35 145.88 36.52 145.44 39.4 145.58018 39.3063816 145.710809 39.1991986 145.83 39.08 147.17 37.74 148.26 35.8 150.01 35.08 150.08 33.51 150.12 31.93 150.12 30.32 150.12 27.26 149.993333 24.28 149.74 21.38 149.311329 20.8336753 148.755034 20.401001 148.12 20.12z"/>
    <path fill="url(#prices-mr-incredible-h)" d="M130.38,31.38 C130.65,29.51 134.63,28.38 137.75,28.75 C140.87,29.12 144.47,30.43 144.12,33.12 C143.74,36.12 139.91,36.47 136.62,36 C133.49,35.55 130.1,33.23 130.38,31.38 Z"/>
    <circle cx="138" cy="32" r="3" fill="url(#prices-mr-incredible-i)"/>
    <circle cx="138" cy="32" r="2" fill="#000"/>
    <circle cx="137" cy="31" r="1" fill="#FFF"/>
    <path fill="url(#prices-mr-incredible-j)" d="M157.939947,36.5713188 C159.009947,33.7613188 162.569947,34.7013188 164.859947,35.5713188 C167.559947,36.5713188 170.329947,38.3413188 169.979947,39.8513188 C169.249947,42.9913188 165.479947,42.6313188 162.049947,41.3813188 C159.679947,40.5413188 157.389947,38.0313188 157.939947,36.5713188 Z"/>
    <circle cx="162" cy="38" r="3" fill="url(#prices-mr-incredible-k)"/>
    <circle cx="162" cy="38" r="2" fill="#000"/>
    <circle cx="161" cy="37" r="1" fill="#FFF"/>
    <path fill="#EDC68C" d="M124.37,19.71 L115.21,40.52 C121.72,32.06 128.61,21.14 129.52,14 C127.235429,15.3018161 125.429927,17.3036447 124.37,19.71 Z" opacity=".58"/>
    <path fill="#D99900" d="M145.59,157 L201.37,157 C202.661968,155.043924 203.356879,152.754193 203.37,150.41 C203.63,136.04 181.59,121.95 158.99,119.41 C140.4,117.31 127.3,123.93 126.99,133.95 C126.69,141.58 133.9,150.53 145.59,157 Z"/>
    <path fill="#262633" d="M156.15,157 L172.33,157 L172,155 C172,155 196,157 196,144 C196,134 173,121 166,122 L167,128 C167,128 137,126 137,137 C137,143.09 145.25,151.92 156.15,157 Z"/>
    <path fill="#F2B200" d="M152,123 C151.35,127.3 161.18,134.44 170,133 C172.73,132.55 177.54,130.92 178,128 C178.64,123.93 170.78,118 163,118 C158.6,118 152.48,119.86 152,123 Z"/>
    <path fill="#FFF" d="M173,128 C173.5,126 169.19,122.73 165,122 C163.3,121.7 159.68,121.48 159,123 C158.18,124.83 161.67,129.15 166,130 C168.88,130.56 172.59,129.69 173,128 Z"/>
    <polygon fill="#F2B200" points="183.14 157 178 139 161 140 164.86 157"/>
  </g>
</svg>
