<svg xmlns="http://www.w3.org/2000/svg" width="75" height="107" viewBox="0 0 75 107">
  <defs>
    <radialGradient id="prices-violet-a" cx="26.772%" cy="-13.426%" r="106.65%" fx="26.772%" fy="-13.426%" gradientTransform="matrix(.96831 0 0 1 .008 0)">
      <stop offset="0%" stop-color="#FFD9CC"/>
      <stop offset="87%" stop-color="#CC998C"/>
      <stop offset="100%" stop-color="#D1A296"/>
    </radialGradient>
    <radialGradient id="prices-violet-b" cx="217.896%" cy="-13.426%" r="840.505%" fx="217.896%" fy="-13.426%" gradientTransform="matrix(1 0 0 .12689 0 -.117)">
      <stop offset="0%" stop-color="#FFD9CC"/>
      <stop offset="87%" stop-color="#CC998C"/>
      <stop offset="100%" stop-color="#D1A296"/>
    </radialGradient>
    <radialGradient id="prices-violet-c" cx="-172.281%" cy="-39.824%" r="383.988%" fx="-172.281%" fy="-39.824%" gradientTransform="matrix(1 0 0 .34238 0 -.262)">
      <stop offset="0%" stop-color="#FFD9CC"/>
      <stop offset="87%" stop-color="#CC998C"/>
      <stop offset="100%" stop-color="#D1A296"/>
    </radialGradient>
    <radialGradient id="prices-violet-d" cx="22.842%" cy="-20.908%" r="457.194%" fx="22.842%" fy="-20.908%" gradientTransform="matrix(1 0 0 .24866 0 -.157)">
      <stop offset="0%" stop-color="#FFD9CC"/>
      <stop offset="87%" stop-color="#CC998C"/>
      <stop offset="100%" stop-color="#D1A296"/>
    </radialGradient>
    <radialGradient id="prices-violet-e" cx="20.605%" cy="-314.553%" r="389.789%" fx="20.605%" fy="-314.553%" gradientTransform="matrix(.91804 0 0 1 .017 0)">
      <stop offset="0%" stop-color="#FFD9CC"/>
      <stop offset="87%" stop-color="#CC998C"/>
      <stop offset="100%" stop-color="#D1A296"/>
    </radialGradient>
    <radialGradient id="prices-violet-f" cx="-10.3%" cy="-240.921%" r="355.232%" fx="-10.3%" fy="-240.921%" gradientTransform="matrix(.56266 0 0 1 -.045 0)">
      <stop offset="0%" stop-color="#FFD9CC"/>
      <stop offset="87%" stop-color="#CC998C"/>
      <stop offset="100%" stop-color="#D1A296"/>
    </radialGradient>
    <radialGradient id="prices-violet-g" cx="-41.531%" cy="-300.815%" r="376.872%" fx="-41.531%" fy="-300.815%" gradientTransform="matrix(.6507 0 0 1 -.145 0)">
      <stop offset="0%" stop-color="#FFD9CC"/>
      <stop offset="87%" stop-color="#CC998C"/>
      <stop offset="100%" stop-color="#D1A296"/>
    </radialGradient>
    <radialGradient id="prices-violet-h" cx="16.349%" cy="-97.587%" r="327.481%" fx="16.349%" fy="-97.587%" gradientTransform="matrix(.68784 0 0 1 .051 0)">
      <stop offset="0%" stop-color="#FFD9CC"/>
      <stop offset="87%" stop-color="#CC998C"/>
      <stop offset="100%" stop-color="#D1A296"/>
    </radialGradient>
    <radialGradient id="prices-violet-i" cx="16.312%" cy="-97.746%" r="327.366%" fx="16.312%" fy="-97.746%" gradientTransform="matrix(.68839 0 0 1 .05 0)">
      <stop offset="0%" stop-color="#FFD9CC"/>
      <stop offset="87%" stop-color="#CC998C"/>
      <stop offset="100%" stop-color="#D1A296"/>
    </radialGradient>
    <radialGradient id="prices-violet-j" cx="-56.658%" cy="-446.82%" r="776.627%" fx="-56.658%" fy="-446.82%" gradientTransform="matrix(.54146 0 0 1 -.26 0)">
      <stop offset="0%" stop-color="#FFD9CC"/>
      <stop offset="87%" stop-color="#CC998C"/>
      <stop offset="100%" stop-color="#D1A296"/>
    </radialGradient>
    <radialGradient id="prices-violet-k" cx="-270.425%" cy="-300.815%" r="502.868%" fx="-270.425%" fy="-300.815%" gradientTransform="matrix(1 0 0 .74944 0 -.754)">
      <stop offset="0%" stop-color="#FFD9CC"/>
      <stop offset="87%" stop-color="#CC998C"/>
      <stop offset="100%" stop-color="#D1A296"/>
    </radialGradient>
    <radialGradient id="prices-violet-l" cx="-9.57%" cy="-301.039%" r="377.151%" fx="-9.57%" fy="-301.039%" gradientTransform="matrix(.5039 0 0 1 -.047 0)">
      <stop offset="0%" stop-color="#FFD9CC"/>
      <stop offset="87%" stop-color="#CC998C"/>
      <stop offset="100%" stop-color="#D1A296"/>
    </radialGradient>
    <radialGradient id="prices-violet-m" cx="-30.817%" cy="-448.34%" r="641.919%" fx="-30.817%" fy="-448.34%" gradientTransform="matrix(.26437 .79937 -.35172 .60084 -1.804 -1.543)">
      <stop offset="0%" stop-color="#FFD9CC"/>
      <stop offset="87%" stop-color="#CC998C"/>
      <stop offset="100%" stop-color="#D1A296"/>
    </radialGradient>
    <radialGradient id="prices-violet-n" cx="-270.875%" cy="-29.737%" r="404.896%" fx="-270.875%" fy="-29.737%" gradientTransform="matrix(1 0 0 .82812 0 -.051)">
      <stop offset="0%" stop-color="#FFD9CC"/>
      <stop offset="87%" stop-color="#CC998C"/>
      <stop offset="100%" stop-color="#D1A296"/>
    </radialGradient>
    <radialGradient id="prices-violet-o" cx="-52.49%" cy="-552.91%" r="784.568%" fx="-52.49%" fy="-552.91%" gradientTransform="matrix(.26414 .79937 -.35142 .60084 -2.33 -1.787)">
      <stop offset="0%" stop-color="#FFD9CC"/>
      <stop offset="87%" stop-color="#CC998C"/>
      <stop offset="100%" stop-color="#D1A296"/>
    </radialGradient>
    <radialGradient id="prices-violet-p" cx="30.589%" cy="52.197%" r="93.903%" fx="30.589%" fy="52.197%" gradientTransform="matrix(.7598 0 0 1 .073 0)">
      <stop offset="0%" stop-color="#FFD9CC"/>
      <stop offset="87%" stop-color="#CC998C"/>
      <stop offset="100%" stop-color="#D1A296"/>
    </radialGradient>
    <radialGradient id="prices-violet-q" cx="30.589%" cy="52.244%" r="93.887%" fx="30.589%" fy="52.244%" gradientTransform="matrix(.75992 0 0 1 .073 0)">
      <stop offset="0%" stop-color="#FFD9CC"/>
      <stop offset="87%" stop-color="#CC998C"/>
      <stop offset="100%" stop-color="#D1A296"/>
    </radialGradient>
    <radialGradient id="prices-violet-r" cx="36.959%" cy="-17.262%" r="230.212%" fx="36.959%" fy="-17.262%" gradientTransform="matrix(.5026 0 0 1 .184 0)">
      <stop offset="0%" stop-color="#FFD9CC"/>
      <stop offset="87%" stop-color="#CC998C"/>
      <stop offset="100%" stop-color="#D1A296"/>
    </radialGradient>
    <radialGradient id="prices-violet-s" cx="13.087%" cy="79.281%" r="137.704%" fx="13.087%" fy="79.281%" gradientTransform="matrix(.68093 0 0 1 .042 0)">
      <stop offset="0%" stop-color="#FFD9CC"/>
      <stop offset="87%" stop-color="#CC998C"/>
      <stop offset="100%" stop-color="#D1A296"/>
    </radialGradient>
    <radialGradient id="prices-violet-t" cx="13.043%" cy="79.338%" r="137.664%" fx="13.043%" fy="79.338%" gradientTransform="matrix(.68147 0 0 1 .042 0)">
      <stop offset="0%" stop-color="#FFD9CC"/>
      <stop offset="87%" stop-color="#CC998C"/>
      <stop offset="100%" stop-color="#D1A296"/>
    </radialGradient>
    <radialGradient id="prices-violet-u" cx="-131.719%" cy="81.761%" r="259.659%" fx="-131.719%" fy="81.761%" gradientTransform="matrix(1 0 0 .93939 0 .05)">
      <stop offset="0%" stop-color="#FFD9CC"/>
      <stop offset="87%" stop-color="#CC998C"/>
      <stop offset="100%" stop-color="#D1A296"/>
    </radialGradient>
    <radialGradient id="prices-violet-v" cx="16.211%" cy="109.94%" r="222.156%" fx="16.211%" fy="109.94%" gradientTransform="matrix(.86268 0 0 1 .022 0)">
      <stop offset="0%" stop-color="#FFD9CC"/>
      <stop offset="87%" stop-color="#CC998C"/>
      <stop offset="100%" stop-color="#D1A296"/>
    </radialGradient>
    <radialGradient id="prices-violet-w" cx="4.85%" cy="131.483%" r="377.819%" fx="4.85%" fy="131.483%" gradientTransform="matrix(.74282 0 0 1 .012 0)">
      <stop offset="0%" stop-color="#FFD9CC"/>
      <stop offset="87%" stop-color="#CC998C"/>
      <stop offset="100%" stop-color="#D1A296"/>
    </radialGradient>
    <radialGradient id="prices-violet-x" cx="-22.497%" cy="140.794%" r="482.019%" fx="-22.497%" fy="140.794%" gradientTransform="matrix(.95927 0 0 1 -.01 0)">
      <stop offset="0%" stop-color="#FFD9CC"/>
      <stop offset="87%" stop-color="#CC998C"/>
      <stop offset="100%" stop-color="#D1A296"/>
    </radialGradient>
    <radialGradient id="prices-violet-y" cx="-81.333%" cy="198.833%" r="847.333%" fx="-81.333%" fy="198.833%">
      <stop offset="0%" stop-color="#FFD9CC"/>
      <stop offset="87%" stop-color="#CC998C"/>
      <stop offset="100%" stop-color="#D1A296"/>
    </radialGradient>
    <radialGradient id="prices-violet-z" cx="-97%" cy="373.25%" r="1271%" fx="-97%" fy="373.25%">
      <stop offset="0%" stop-color="#FFD9CC"/>
      <stop offset="87%" stop-color="#CC998C"/>
      <stop offset="100%" stop-color="#D1A296"/>
    </radialGradient>
    <radialGradient id="prices-violet-A" cx="-187.344%" cy="69.999%" r="365.56%" fx="-187.344%" fy="69.999%" gradientTransform="matrix(.92668 0 0 1 -.137 0)">
      <stop offset="0%" stop-color="#FFD9CC"/>
      <stop offset="87%" stop-color="#CC998C"/>
      <stop offset="100%" stop-color="#D1A296"/>
    </radialGradient>
    <radialGradient id="prices-violet-B" cx="-300.919%" cy="73.426%" r="544.25%" fx="-300.919%" fy="73.426%" gradientTransform="matrix(1 0 0 .86493 0 .1)">
      <stop offset="0%" stop-color="#FFD9CC"/>
      <stop offset="87%" stop-color="#CC998C"/>
      <stop offset="100%" stop-color="#D1A296"/>
    </radialGradient>
    <radialGradient id="prices-violet-C" cx="-481.333%" cy="83.833%" r="847.333%" fx="-481.333%" fy="83.833%">
      <stop offset="0%" stop-color="#FFD9CC"/>
      <stop offset="87%" stop-color="#CC998C"/>
      <stop offset="100%" stop-color="#D1A296"/>
    </radialGradient>
    <radialGradient id="prices-violet-D" cx="-759.299%" cy="202.601%" r="1370.35%" fx="-759.299%" fy="202.601%" gradientTransform="matrix(1 0 0 .93605 0 .13)">
      <stop offset="0%" stop-color="#FFD9CC"/>
      <stop offset="87%" stop-color="#CC998C"/>
      <stop offset="100%" stop-color="#D1A296"/>
    </radialGradient>
    <radialGradient id="prices-violet-E" cx="19.346%" cy="88.991%" r="150.458%" fx="19.346%" fy="88.991%" gradientTransform="matrix(.55089 0 0 1 .087 0)">
      <stop offset="0%" stop-color="#FFD9CC"/>
      <stop offset="87%" stop-color="#CC998C"/>
      <stop offset="100%" stop-color="#D1A296"/>
    </radialGradient>
    <radialGradient id="prices-violet-F" cx="395.911%" cy="113.483%" r="1034.672%" fx="395.911%" fy="113.483%" gradientTransform="matrix(1 0 0 .5521 0 .508)">
      <stop offset="0%" stop-color="#FFD9CC"/>
      <stop offset="87%" stop-color="#CC998C"/>
      <stop offset="100%" stop-color="#D1A296"/>
    </radialGradient>
    <radialGradient id="prices-violet-G" cx="441.043%" cy="172.355%" r="1152.834%" fx="441.043%" fy="172.355%" gradientTransform="matrix(1 0 0 .75256 0 .426)">
      <stop offset="0%" stop-color="#FFD9CC"/>
      <stop offset="87%" stop-color="#CC998C"/>
      <stop offset="100%" stop-color="#D1A296"/>
    </radialGradient>
    <radialGradient id="prices-violet-H" cx="24.808%" cy="93.08%" r="89.982%" fx="24.808%" fy="93.08%" gradientTransform="matrix(.80416 0 0 1 .049 0)">
      <stop offset="0%" stop-color="#FFD9CC"/>
      <stop offset="87%" stop-color="#CC998C"/>
      <stop offset="100%" stop-color="#D1A296"/>
    </radialGradient>
    <radialGradient id="prices-violet-I" cx="10.469%" cy="87.179%" r="176.161%" fx="10.469%" fy="87.179%" gradientTransform="matrix(.53097 0 0 1 .05 0)">
      <stop offset="0%" stop-color="#FFD9CC"/>
      <stop offset="87%" stop-color="#CC998C"/>
      <stop offset="100%" stop-color="#D1A296"/>
    </radialGradient>
    <radialGradient id="prices-violet-J" cx="11.413%" cy="359.354%" r="407.591%" fx="11.413%" fy="359.354%" gradientTransform="matrix(.33182 0 0 1 .076 0)">
      <stop offset="0%" stop-color="#FFD9CC"/>
      <stop offset="87%" stop-color="#CC998C"/>
      <stop offset="100%" stop-color="#D1A296"/>
    </radialGradient>
    <radialGradient id="prices-violet-K" cx="28.994%" cy="171.535%" r="269.995%" fx="28.994%" fy="171.535%" gradientTransform="matrix(.31305 0 0 1 .2 0)">
      <stop offset="0%" stop-color="#FFD9CC"/>
      <stop offset="87%" stop-color="#CC998C"/>
      <stop offset="100%" stop-color="#D1A296"/>
    </radialGradient>
    <radialGradient id="prices-violet-L" cx="-196.643%" cy="5.963%" r="877.221%" fx="-196.643%" fy="5.963%" gradientTransform="matrix(.67039 0 0 1 -.648 0)">
      <stop offset="0%" stop-color="#FFD9CC"/>
      <stop offset="87%" stop-color="#CC998C"/>
      <stop offset="100%" stop-color="#D1A296"/>
    </radialGradient>
    <radialGradient id="prices-violet-M" cx="-196.987%" cy="-18.272%" r="1103.292%" fx="-196.987%" fy="-18.272%" gradientTransform="matrix(.53395 0 0 1 -.918 0)">
      <stop offset="0%" stop-color="#FFD9CC"/>
      <stop offset="87%" stop-color="#CC998C"/>
      <stop offset="100%" stop-color="#D1A296"/>
    </radialGradient>
    <radialGradient id="prices-violet-N" cx="-42.976%" cy="-62.581%" r="576.382%" fx="-42.976%" fy="-62.581%" gradientTransform="matrix(.43323 0 0 1 -.244 0)">
      <stop offset="0%" stop-color="#FFD9CC"/>
      <stop offset="87%" stop-color="#CC998C"/>
      <stop offset="100%" stop-color="#D1A296"/>
    </radialGradient>
    <radialGradient id="prices-violet-O" cx="-42.829%" cy="-62.616%" r="576.704%" fx="-42.829%" fy="-62.616%" gradientTransform="matrix(.43299 0 0 1 -.243 0)">
      <stop offset="0%" stop-color="#FFD9CC"/>
      <stop offset="87%" stop-color="#CC998C"/>
      <stop offset="100%" stop-color="#D1A296"/>
    </radialGradient>
    <radialGradient id="prices-violet-P" cx="-91.136%" cy="-41.984%" r="836.441%" fx="-91.136%" fy="-41.984%" gradientTransform="matrix(.9862 0 0 1 -.013 0)">
      <stop offset="0%" stop-color="#FFD9CC"/>
      <stop offset="87%" stop-color="#CC998C"/>
      <stop offset="100%" stop-color="#D1A296"/>
    </radialGradient>
    <radialGradient id="prices-violet-Q" cx="-860.122%" cy="-221.383%" r="1594.189%" fx="-860.122%" fy="-221.383%" gradientTransform="matrix(1 0 0 .6756 0 -.718)">
      <stop offset="0%" stop-color="#FFD9CC"/>
      <stop offset="87%" stop-color="#CC998C"/>
      <stop offset="100%" stop-color="#D1A296"/>
    </radialGradient>
    <radialGradient id="prices-violet-R" cx="-44.069%" cy="-73.645%" r="669.788%" fx="-44.069%" fy="-73.645%" gradientTransform="matrix(.3767 0 0 1 -.275 0)">
      <stop offset="0%" stop-color="#FFD9CC"/>
      <stop offset="87%" stop-color="#CC998C"/>
      <stop offset="100%" stop-color="#D1A296"/>
    </radialGradient>
    <radialGradient id="prices-violet-S" cx="-43.722%" cy="-73.259%" r="666.28%" fx="-43.722%" fy="-73.259%" gradientTransform="matrix(.37868 0 0 1 -.272 0)">
      <stop offset="0%" stop-color="#FFD9CC"/>
      <stop offset="87%" stop-color="#CC998C"/>
      <stop offset="100%" stop-color="#D1A296"/>
    </radialGradient>
    <radialGradient id="prices-violet-T" cx="-74.311%" cy="-437.323%" r="584.169%" fx="-74.311%" fy="-437.323%" gradientTransform="matrix(.56638 0 0 1 -.322 0)">
      <stop offset="0%" stop-color="#FFD9CC"/>
      <stop offset="87%" stop-color="#CC998C"/>
      <stop offset="100%" stop-color="#D1A296"/>
    </radialGradient>
    <radialGradient id="prices-violet-U" cx="-126.559%" cy="-585.545%" r="766.218%" fx="-126.559%" fy="-585.545%" gradientTransform="matrix(.60844 0 0 1 -.496 0)">
      <stop offset="0%" stop-color="#FFD9CC"/>
      <stop offset="87%" stop-color="#CC998C"/>
      <stop offset="100%" stop-color="#D1A296"/>
    </radialGradient>
    <radialGradient id="prices-violet-V" cx="-253.991%" cy="-713.565%" r="884.174%" fx="-253.991%" fy="-713.565%" gradientTransform="matrix(.83454 0 0 1 -.42 0)">
      <stop offset="0%" stop-color="#FFD9CC"/>
      <stop offset="87%" stop-color="#CC998C"/>
      <stop offset="100%" stop-color="#D1A296"/>
    </radialGradient>
    <radialGradient id="prices-violet-W" cx="-263.62%" cy="-1107.738%" r="1513.095%" fx="-263.62%" fy="-1107.738%" gradientTransform="matrix(.60215 0 0 1 -1.049 0)">
      <stop offset="0%" stop-color="#FFD9CC"/>
      <stop offset="87%" stop-color="#CC998C"/>
      <stop offset="100%" stop-color="#D1A296"/>
    </radialGradient>
    <radialGradient id="prices-violet-X" cx="-427.446%" cy="-1837.379%" r="2467.961%" fx="-427.446%" fy="-1837.379%" gradientTransform="matrix(.55978 0 0 1 -1.882 0)">
      <stop offset="0%" stop-color="#FFD9CC"/>
      <stop offset="87%" stop-color="#CC998C"/>
      <stop offset="100%" stop-color="#D1A296"/>
    </radialGradient>
    <linearGradient id="prices-violet-Y" x1="0%" x2="98.944%" y1="49.99%" y2="64.863%">
      <stop offset="0%"/>
      <stop offset="44%" stop-color="#62626F"/>
      <stop offset="100%"/>
    </linearGradient>
    <radialGradient id="prices-violet-Z" cx="38.272%" cy="32.147%" r="76.363%" fx="38.272%" fy="32.147%" gradientTransform="matrix(.91804 0 0 1 .031 0)">
      <stop offset="0%" stop-color="#FF2626"/>
      <stop offset="100%" stop-color="#D80000"/>
    </radialGradient>
    <radialGradient id="prices-violet-aa" cx="40.408%" cy="8.309%" r="187.123%" fx="40.408%" fy="8.309%" gradientTransform="matrix(.68784 0 0 1 .126 0)">
      <stop offset="0%" stop-color="#CC998C"/>
      <stop offset="100%" stop-color="#FFD9CC"/>
    </radialGradient>
    <radialGradient id="prices-violet-ab" cx="30.912%" cy="-553.791%" r="561.49%" fx="30.912%" fy="-553.791%" gradientTransform="matrix(.26437 .79937 -.35172 .60084 -1.72 -2.458)">
      <stop offset="0%" stop-color="#FFD9CC"/>
      <stop offset="87%" stop-color="#CC998C"/>
      <stop offset="100%" stop-color="#D1A296"/>
    </radialGradient>
    <radialGradient id="prices-violet-ac" cx="-270.875%" cy="-121.411%" r="354.165%" fx="-270.875%" fy="-121.411%" gradientTransform="matrix(1 0 0 .82812 0 -.209)">
      <stop offset="0%" stop-color="#FFD9CC"/>
      <stop offset="87%" stop-color="#CC998C"/>
      <stop offset="100%" stop-color="#D1A296"/>
    </radialGradient>
    <radialGradient id="prices-violet-ad" cx="22.891%" cy="-681.793%" r="686.265%" fx="22.891%" fy="-681.793%" gradientTransform="matrix(.26414 .79937 -.35142 .60084 -2.228 -2.904)">
      <stop offset="0%" stop-color="#FFD9CC"/>
      <stop offset="87%" stop-color="#CC998C"/>
      <stop offset="100%" stop-color="#D1A296"/>
    </radialGradient>
    <radialGradient id="prices-violet-ae" cx="30.589%" cy="26.523%" r="82.137%" fx="30.589%" fy="26.523%" gradientTransform="matrix(.7598 0 0 1 .073 0)">
      <stop offset="0%" stop-color="#FFD9CC"/>
      <stop offset="87%" stop-color="#CC998C"/>
      <stop offset="100%" stop-color="#D1A296"/>
    </radialGradient>
    <radialGradient id="prices-violet-af" cx="30.589%" cy="26.574%" r="82.124%" fx="30.589%" fy="26.574%" gradientTransform="matrix(.75992 0 0 1 .073 0)">
      <stop offset="0%" stop-color="#FFD9CC"/>
      <stop offset="87%" stop-color="#CC998C"/>
      <stop offset="100%" stop-color="#D1A296"/>
    </radialGradient>
    <radialGradient id="prices-violet-ag" cx="36.959%" cy="-80.204%" r="201.368%" fx="36.959%" fy="-80.204%" gradientTransform="matrix(.5026 0 0 1 .184 0)">
      <stop offset="0%" stop-color="#FFD9CC"/>
      <stop offset="87%" stop-color="#CC998C"/>
      <stop offset="100%" stop-color="#D1A296"/>
    </radialGradient>
    <radialGradient id="prices-violet-ah" cx="13.087%" cy="41.632%" r="120.45%" fx="13.087%" fy="41.632%" gradientTransform="matrix(.68093 0 0 1 .042 0)">
      <stop offset="0%" stop-color="#FFD9CC"/>
      <stop offset="87%" stop-color="#CC998C"/>
      <stop offset="100%" stop-color="#D1A296"/>
    </radialGradient>
    <radialGradient id="prices-violet-ai" cx="13.043%" cy="41.7%" r="120.415%" fx="13.043%" fy="41.7%" gradientTransform="matrix(.68147 0 0 1 .042 0)">
      <stop offset="0%" stop-color="#FFD9CC"/>
      <stop offset="87%" stop-color="#CC998C"/>
      <stop offset="100%" stop-color="#D1A296"/>
    </radialGradient>
    <radialGradient id="prices-violet-aj" cx="-131.719%" cy="15.072%" r="227.125%" fx="-131.719%" fy="15.072%" gradientTransform="matrix(1 0 0 .93939 0 .01)">
      <stop offset="0%" stop-color="#FFD9CC"/>
      <stop offset="87%" stop-color="#CC998C"/>
      <stop offset="100%" stop-color="#D1A296"/>
    </radialGradient>
    <radialGradient id="prices-violet-ak" cx="16.211%" cy="49.201%" r="194.321%" fx="16.211%" fy="49.201%" gradientTransform="matrix(.86268 0 0 1 .022 0)">
      <stop offset="0%" stop-color="#FFD9CC"/>
      <stop offset="87%" stop-color="#CC998C"/>
      <stop offset="100%" stop-color="#D1A296"/>
    </radialGradient>
    <radialGradient id="prices-violet-al" cx="4.85%" cy="28.184%" r="330.48%" fx="4.85%" fy="28.184%" gradientTransform="matrix(.74282 0 0 1 .012 0)">
      <stop offset="0%" stop-color="#FFD9CC"/>
      <stop offset="87%" stop-color="#CC998C"/>
      <stop offset="100%" stop-color="#D1A296"/>
    </radialGradient>
    <radialGradient id="prices-violet-am" cx="-22.497%" cy="9.007%" r="421.625%" fx="-22.497%" fy="9.007%" gradientTransform="matrix(.95927 0 0 1 -.01 0)">
      <stop offset="0%" stop-color="#FFD9CC"/>
      <stop offset="87%" stop-color="#CC998C"/>
      <stop offset="100%" stop-color="#D1A296"/>
    </radialGradient>
    <radialGradient id="prices-violet-an" cx="-81.333%" cy="-32.833%" r="741.167%" fx="-81.333%" fy="-32.833%">
      <stop offset="0%" stop-color="#FFD9CC"/>
      <stop offset="87%" stop-color="#CC998C"/>
      <stop offset="100%" stop-color="#D1A296"/>
    </radialGradient>
    <radialGradient id="prices-violet-ao" cx="-97%" cy="25.75%" r="1111.75%" fx="-97%" fy="25.75%">
      <stop offset="0%" stop-color="#FFD9CC"/>
      <stop offset="87%" stop-color="#CC998C"/>
      <stop offset="100%" stop-color="#D1A296"/>
    </radialGradient>
    <radialGradient id="prices-violet-ap" cx="-187.344%" cy="-29.947%" r="319.757%" fx="-187.344%" fy="-29.947%" gradientTransform="matrix(.92668 0 0 1 -.137 0)">
      <stop offset="0%" stop-color="#FFD9CC"/>
      <stop offset="87%" stop-color="#CC998C"/>
      <stop offset="100%" stop-color="#D1A296"/>
    </radialGradient>
    <radialGradient id="prices-violet-aq" cx="-300.919%" cy="-55.278%" r="476.058%" fx="-300.919%" fy="-55.278%" gradientTransform="matrix(1 0 0 .86493 0 -.075)">
      <stop offset="0%" stop-color="#FFD9CC"/>
      <stop offset="87%" stop-color="#CC998C"/>
      <stop offset="100%" stop-color="#D1A296"/>
    </radialGradient>
    <radialGradient id="prices-violet-ar" cx="-481.333%" cy="-147.833%" r="741.167%" fx="-481.333%" fy="-147.833%">
      <stop offset="0%" stop-color="#FFD9CC"/>
      <stop offset="87%" stop-color="#CC998C"/>
      <stop offset="100%" stop-color="#D1A296"/>
    </radialGradient>
    <radialGradient id="prices-violet-as" cx="-759.299%" cy="-148.103%" r="1198.652%" fx="-759.299%" fy="-148.103%" gradientTransform="matrix(1 0 0 .93605 0 -.095)">
      <stop offset="0%" stop-color="#FFD9CC"/>
      <stop offset="87%" stop-color="#CC998C"/>
      <stop offset="100%" stop-color="#D1A296"/>
    </radialGradient>
    <radialGradient id="prices-violet-at" cx="19.346%" cy="47.855%" r="131.607%" fx="19.346%" fy="47.855%" gradientTransform="matrix(.55089 0 0 1 .087 0)">
      <stop offset="0%" stop-color="#FFD9CC"/>
      <stop offset="87%" stop-color="#CC998C"/>
      <stop offset="100%" stop-color="#D1A296"/>
    </radialGradient>
    <radialGradient id="prices-violet-au" cx="395.911%" cy="-42.697%" r="905.033%" fx="395.911%" fy="-42.697%" gradientTransform="matrix(1 0 0 .5521 0 -.191)">
      <stop offset="0%" stop-color="#FFD9CC"/>
      <stop offset="87%" stop-color="#CC998C"/>
      <stop offset="100%" stop-color="#D1A296"/>
    </radialGradient>
    <radialGradient id="prices-violet-av" cx="441.043%" cy="-64.846%" r="1008.39%" fx="441.043%" fy="-64.846%" gradientTransform="matrix(1 0 0 .75256 0 -.16)">
      <stop offset="0%" stop-color="#FFD9CC"/>
      <stop offset="87%" stop-color="#CC998C"/>
      <stop offset="100%" stop-color="#D1A296"/>
    </radialGradient>
    <radialGradient id="prices-violet-aw" cx="24.808%" cy="68.478%" r="78.708%" fx="24.808%" fy="68.478%" gradientTransform="matrix(.80416 0 0 1 .049 0)">
      <stop offset="0%" stop-color="#FFD9CC"/>
      <stop offset="87%" stop-color="#CC998C"/>
      <stop offset="100%" stop-color="#D1A296"/>
    </radialGradient>
    <radialGradient id="prices-violet-ax" cx="10.469%" cy="39.016%" r="154.089%" fx="10.469%" fy="39.016%" gradientTransform="matrix(.53097 0 0 1 .05 0)">
      <stop offset="0%" stop-color="#FFD9CC"/>
      <stop offset="87%" stop-color="#CC998C"/>
      <stop offset="100%" stop-color="#D1A296"/>
    </radialGradient>
    <radialGradient id="prices-violet-ay" cx="11.413%" cy="247.916%" r="356.522%" fx="11.413%" fy="247.916%" gradientTransform="matrix(.33182 0 0 1 .076 0)">
      <stop offset="0%" stop-color="#FFD9CC"/>
      <stop offset="87%" stop-color="#CC998C"/>
      <stop offset="100%" stop-color="#D1A296"/>
    </radialGradient>
    <radialGradient id="prices-violet-az" cx="28.994%" cy="97.716%" r="236.166%" fx="28.994%" fy="97.716%" gradientTransform="matrix(.31305 0 0 1 .2 0)">
      <stop offset="0%" stop-color="#FFD9CC"/>
      <stop offset="87%" stop-color="#CC998C"/>
      <stop offset="100%" stop-color="#D1A296"/>
    </radialGradient>
    <radialGradient id="prices-violet-aA" cx="-196.643%" cy="-233.875%" r="767.309%" fx="-196.643%" fy="-233.875%" gradientTransform="matrix(.67039 0 0 1 -.648 0)">
      <stop offset="0%" stop-color="#FFD9CC"/>
      <stop offset="87%" stop-color="#CC998C"/>
      <stop offset="100%" stop-color="#D1A296"/>
    </radialGradient>
    <radialGradient id="prices-violet-aB" cx="-196.987%" cy="-319.919%" r="965.055%" fx="-196.987%" fy="-319.919%" gradientTransform="matrix(.53395 0 0 1 -.918 0)">
      <stop offset="0%" stop-color="#FFD9CC"/>
      <stop offset="87%" stop-color="#CC998C"/>
      <stop offset="100%" stop-color="#D1A296"/>
    </radialGradient>
    <radialGradient id="prices-violet-aC" cx="-42.976%" cy="-220.168%" r="504.165%" fx="-42.976%" fy="-220.168%" gradientTransform="matrix(.43323 0 0 1 -.244 0)">
      <stop offset="0%" stop-color="#FFD9CC"/>
      <stop offset="87%" stop-color="#CC998C"/>
      <stop offset="100%" stop-color="#D1A296"/>
    </radialGradient>
    <radialGradient id="prices-violet-aD" cx="-42.829%" cy="-220.291%" r="504.446%" fx="-42.829%" fy="-220.291%" gradientTransform="matrix(.43299 0 0 1 -.243 0)">
      <stop offset="0%" stop-color="#FFD9CC"/>
      <stop offset="87%" stop-color="#CC998C"/>
      <stop offset="100%" stop-color="#D1A296"/>
    </radialGradient>
    <radialGradient id="prices-violet-aE" cx="-91.136%" cy="-270.673%" r="731.639%" fx="-91.136%" fy="-270.673%" gradientTransform="matrix(.9862 0 0 1 -.013 0)">
      <stop offset="0%" stop-color="#FFD9CC"/>
      <stop offset="87%" stop-color="#CC998C"/>
      <stop offset="100%" stop-color="#D1A296"/>
    </radialGradient>
    <radialGradient id="prices-violet-aF" cx="-860.122%" cy="-515.85%" r="1394.445%" fx="-860.122%" fy="-515.85%" gradientTransform="matrix(1 0 0 .6756 0 -1.673)">
      <stop offset="0%" stop-color="#FFD9CC"/>
      <stop offset="87%" stop-color="#CC998C"/>
      <stop offset="100%" stop-color="#D1A296"/>
    </radialGradient>
    <radialGradient id="prices-violet-aG" cx="-44.069%" cy="-256.77%" r="585.867%" fx="-44.069%" fy="-256.77%" gradientTransform="matrix(.3767 0 0 1 -.275 0)">
      <stop offset="0%" stop-color="#FFD9CC"/>
      <stop offset="87%" stop-color="#CC998C"/>
      <stop offset="100%" stop-color="#D1A296"/>
    </radialGradient>
    <radialGradient id="prices-violet-aH" cx="-43.722%" cy="-255.425%" r="582.798%" fx="-43.722%" fy="-255.425%" gradientTransform="matrix(.37868 0 0 1 -.272 0)">
      <stop offset="0%" stop-color="#FFD9CC"/>
      <stop offset="87%" stop-color="#CC998C"/>
      <stop offset="100%" stop-color="#D1A296"/>
    </radialGradient>
    <linearGradient id="prices-violet-aI" x1="100.381%" x2="37.407%" y1="53.3%" y2="49.191%">
      <stop offset="0%" stop-color="#BF8066"/>
      <stop offset="100%" stop-color="#666673" stop-opacity="0"/>
    </linearGradient>
    <radialGradient id="prices-violet-aJ" cx="61.085%" cy="37.033%" r="99.979%" fx="61.085%" fy="37.033%" gradientTransform="matrix(.7598 0 0 1 .147 0)">
      <stop offset="0%" stop-color="#FFD9CC"/>
      <stop offset="87%" stop-color="#CC998C"/>
      <stop offset="100%" stop-color="#D1A296"/>
    </radialGradient>
    <radialGradient id="prices-violet-aK" cx="50.048%" cy="50.001%" r="73.944%" fx="50.048%" fy="50.001%" gradientTransform="matrix(.68093 0 0 1 .16 0)">
      <stop offset="0%" stop-color="#474752"/>
      <stop offset="35%" stop-color="#454550"/>
      <stop offset="54%" stop-color="#3E3E48"/>
      <stop offset="70%" stop-color="#32323A"/>
      <stop offset="83%" stop-color="#212126"/>
      <stop offset="95%" stop-color="#0C0C0E"/>
      <stop offset="100%"/>
    </radialGradient>
    <linearGradient id="prices-violet-aL" x1="50.001%" x2="50.001%" y1="1.638%" y2="95.579%">
      <stop offset="0%"/>
      <stop offset="100%" stop-opacity="0"/>
    </linearGradient>
    <linearGradient id="prices-violet-aM" x1="47.913%" x2="52.248%" y1="1.79%" y2="98.229%">
      <stop offset="0%"/>
      <stop offset="100%" stop-opacity="0"/>
    </linearGradient>
    <radialGradient id="prices-violet-aN" cx="33.445%" cy="24.617%" r="109.615%" fx="33.445%" fy="24.617%" gradientTransform="matrix(.74282 0 0 1 .086 0)">
      <stop offset="0%" stop-color="#FFF"/>
      <stop offset="100%" stop-color="#8C7373"/>
    </radialGradient>
    <radialGradient id="prices-violet-aO" cx="32.436%" cy="6.352%" r="98.319%" fx="32.436%" fy="6.352%" gradientTransform="matrix(.95927 0 0 1 .013 0)">
      <stop offset="0%"/>
      <stop offset="15%" stop-color="#171B28"/>
      <stop offset="34%" stop-color="#2F3650"/>
      <stop offset="52%" stop-color="#414B70"/>
      <stop offset="69%" stop-color="#4E5A87"/>
      <stop offset="85%" stop-color="#566394"/>
      <stop offset="100%" stop-color="#596699"/>
    </radialGradient>
    <radialGradient id="prices-violet-aP" cx="35.406%" cy="20.745%" r="95.776%" fx="35.406%" fy="20.745%" gradientTransform="matrix(.92668 0 0 1 .026 0)">
      <stop offset="0%" stop-color="#FFF"/>
      <stop offset="100%" stop-color="#8C7373"/>
    </radialGradient>
    <radialGradient id="prices-violet-aQ" cx="24.09%" cy="4.907%" r="121.396%" fx="24.09%" fy="4.907%" gradientTransform="matrix(1 0 0 .86493 0 .007)">
      <stop offset="0%"/>
      <stop offset="15%" stop-color="#171B28"/>
      <stop offset="34%" stop-color="#2F3650"/>
      <stop offset="52%" stop-color="#414B70"/>
      <stop offset="69%" stop-color="#4E5A87"/>
      <stop offset="85%" stop-color="#566394"/>
      <stop offset="100%" stop-color="#596699"/>
    </radialGradient>
    <radialGradient id="prices-violet-aR" cx="46.783%" cy="28.991%" r="104.602%" fx="46.783%" fy="28.991%" gradientTransform="matrix(.80416 0 0 1 .092 0)">
      <stop offset="0%" stop-color="#666673"/>
      <stop offset="100%"/>
    </radialGradient>
    <radialGradient id="prices-violet-aS" cx="8.092%" cy="-2.462%" r="50.405%" fx="8.092%" fy="-2.462%" gradientTransform="scale(-.9862 -1) rotate(46.614 -.058 -.19)">
      <stop offset="0%" stop-color="#9C756B"/>
      <stop offset="100%" stop-color="#CC998C" stop-opacity="0"/>
    </radialGradient>
    <radialGradient id="prices-violet-aT" cx="124.738%" cy="-67.827%" r="61.458%" fx="124.738%" fy="-67.827%" gradientTransform="matrix(.9943 .07197 -.10653 .67175 -.065 -.312)">
      <stop offset="0%" stop-color="#9C756B"/>
      <stop offset="100%" stop-color="#CC998C" stop-opacity="0"/>
    </radialGradient>
  </defs>
  <g fill="none" fill-rule="evenodd">
    <path fill="url(#prices-violet-a)" d="M8.94,107 L45.64,107 L58.17,69.83 L9,59.33 C10.85,81.44 11.75,82.14 8.94,107 Z"/>
    <path fill="url(#prices-violet-b)" d="M13.56,107 L8.94,107 C11.75,82.14 10.85,81.44 9,59.33 L12.9,60.16 C14.27,67.58 16.46,84.47 13.56,107 Z"/>
    <path fill="url(#prices-violet-b)" d="M13.56,107 L8.94,107 C11.75,82.14 10.85,81.44 9,59.33 L12.9,60.16 C14.27,67.58 16.46,84.47 13.56,107 Z"/>
    <path fill="url(#prices-violet-c)" d="M58.17,69.83 L45.64,107 L44.93,107 C50.18,84.54 51.11,73.28 51.15,68.33 L58.17,69.83 Z"/>
    <path fill="url(#prices-violet-c)" d="M58.17,69.83 L45.64,107 L44.93,107 C50.18,84.54 51.11,73.28 51.15,68.33 L58.17,69.83 Z"/>
    <polygon fill="url(#prices-violet-d)" points="30.7 63.96 24.14 107 19.58 107 22.83 62.28"/>
    <polygon fill="url(#prices-violet-d)" points="30.7 63.96 24.14 107 19.58 107 22.83 62.28"/>
    <path fill="url(#prices-violet-e)" d="M33.4,107 L21.31,107 C20.22,105.35 18.9,102.93 19.25,101.17 C19.6,99.41 21.05,97.68 22.46,96.22 C23.28,95.38 24.09,94.63 24.68,94.01 C26.381772,93.7762963 28.0980415,94.3238855 29.35,95.5 C29.789586,95.9513912 30.130174,96.4895202 30.35,97.08 C30.5524138,97.6437726 30.676897,98.2325445 30.72,98.83 C30.86,100.74 30.5,102.77 31.72,104.62 C32.25,105.37 32.82,106.19 33.4,107 Z"/>
    <path fill="url(#prices-violet-f)" d="M46,101 C43.11,102.13 37.21,101.67 34.41,101.37 C32.9060692,101.049592 31.5963049,100.133118 30.78,98.83 C30.736897,98.2325445 30.6124138,97.6437726 30.41,97.08 C30.190174,96.4895202 29.849586,95.9513912 29.41,95.5 C28.1580415,94.3238855 26.441772,93.7762963 24.74,94.01 L24.98,93.75 C26.48,92.08 27.64,91.75 28.64,89.75 C28.993145,89.0102013 29.232512,88.2213015 29.35,87.41 C33.0868372,88.9896064 37.2712796,89.1531445 41.12,87.87 C41.3178,88.3121898 41.6197374,88.6999049 42,89 C44.73,90.82 49.22,93.31 49.46,93.51 C51.38,97.6 49.17,99.75 46,101 Z"/>
    <path fill="url(#prices-violet-g)" d="M51.38,107 L33.38,107 C32.8,106.19 32.23,105.37 31.73,104.62 C30.5,102.77 30.86,100.74 30.73,98.83 C31.5463049,100.133118 32.8560692,101.049592 34.36,101.37 C37.16,101.67 43.06,102.13 45.95,101 C49.16,99.75 51.37,97.6 49.45,93.51 C50.3024994,94.9492854 50.9488015,96.5010839 51.37,98.12 C51.7,100.17 51,104 51.38,107 Z"/>
    <path fill="url(#prices-violet-h)" d="M39.81,82.75 C39.81,82.85 39.81,82.98 39.81,83.15 C36.1705789,84.0014281 32.3532448,83.6505702 28.93,82.15 C28.7779057,81.8615788 28.6110168,81.5812054 28.43,81.31 C26.13,77.74 18.43,68.08 18.43,68.08 L41,72 C40.4094066,75.3348658 40.0054448,78.7001015 39.79,82.08 C39.79,82.33 39.79,82.56 39.81,82.75 Z"/>
    <path fill="url(#prices-violet-i)" fill-rule="nonzero" d="M20.85,69.54 L39.85,72.82 C39.315146,75.883175 38.9611997,78.9751972 38.79,82.08 L38.79,82.37 C37.8845376,82.5508541 36.9633465,82.6412983 36.04,82.64 C33.8578408,82.6096312 31.6993933,82.1826855 29.67,81.38 C29.58,81.22 29.46,81.03 29.31,80.8 C27.64,78.21 23.26,72.59 20.85,69.54 Z M18.44,68.11 C18.44,68.11 26.17,77.77 28.44,81.34 C28.6210168,81.6112054 28.7879057,81.8915788 28.94,82.18 C31.1830079,83.1097915 33.582164,83.6052325 36.01,83.64 C37.2956885,83.6396422 38.5760602,83.474975 39.82,83.15 C39.82,82.98 39.82,82.85 39.82,82.75 C39.82,82.65 39.82,82.33 39.82,82.08 C40.0255182,78.7006656 40.419464,75.3354335 41,72 L18.44,68.11 Z"/>
    <path fill="url(#prices-violet-j)" d="M41.06,87.87 C37.2112796,89.1531445 33.0268372,88.9896064 29.29,87.41 C29.3502711,87.1096859 29.3903608,86.8056722 29.41,86.5 C29.5860218,85.1318752 29.4736096,83.7420517 29.08,82.42 C29.0521228,82.3362565 29.0152402,82.2557855 28.97,82.18 C32.3932448,83.6805702 36.2105789,84.0314281 39.85,83.18 C39.973357,84.5804847 40.2792829,85.9588318 40.76,87.28 C40.8489189,87.4821074 40.9490754,87.6790819 41.06,87.87 Z"/>
    <path fill="url(#prices-violet-k)" d="M59.57,107 L51.38,107 C50.97,104 51.7,100.17 51.38,98.12 C50.9588015,96.5010839 50.3124994,94.9492854 49.46,93.51 C52.67,96.11 57,103.33 59.57,107 Z"/>
    <path fill="url(#prices-violet-l)" fill-rule="nonzero" d="M24.68,94 C26.385529,93.7191324 28.1222941,94.2732609 29.35,95.49 C30.2436498,96.3669915 30.7449391,97.5679219 30.74,98.82 C30.74,100.82 30.74,104.07 32.91,106.42 M51.38,106.99 C50.97,105.07 51.46,99.9 51.43,98.51 C51.4,97.12 49.43,93.51 49.43,93.51"/>
    <path fill="url(#prices-violet-l)" fill-rule="nonzero" d="M24.68,94 C26.385529,93.7191324 28.1222941,94.2732609 29.35,95.49 C30.2436498,96.3669915 30.7449391,97.5679219 30.74,98.82 C30.74,100.82 30.74,104.07 32.91,106.42 M51.38,106.99 C50.97,105.07 51.46,99.9 51.43,98.51 C51.4,97.12 49.43,93.51 49.43,93.51"/>
    <ellipse cx="62.412" cy="65.014" fill="url(#prices-violet-m)" rx="9" ry="3.96" transform="rotate(-53.07 62.412 65.014)"/>
    <path fill="url(#prices-violet-n)" fill-rule="nonzero" d="M66.55,58.44 C66.7866825,58.4282626 67.0210655,58.4912311 67.22,58.62 C67.71,58.99 67.81,60.05 67.5,61.39 C66.9630565,63.3566295 66.0382575,65.1960275 64.78,66.8 C62.41,69.95 59.71,71.6 58.27,71.6 C58.0331712,71.6131262 57.7983652,71.550044 57.6,71.42 C57.11,71.05 57,69.99 57.32,68.65 C57.8569435,66.6833705 58.7817425,64.8439725 60.04,63.24 C62.41,60.09 65.11,58.44 66.55,58.44 Z M66.55,57.44 C64.55,57.44 61.64,59.44 59.24,62.64 C56.24,66.64 55.24,70.9 57,72.22 C57.3705595,72.4817871 57.8165524,72.6152338 58.27,72.6 C60.27,72.6 63.18,70.6 65.58,67.4 C68.58,63.4 69.58,59.14 67.82,57.82 C67.4494405,57.5582129 67.0034476,57.4247662 66.55,57.44 Z"/>
    <ellipse cx="62.422" cy="64.323" fill="url(#prices-violet-o)" rx="7.37" ry="3.24" transform="rotate(-53.07 62.422 64.323)"/>
    <path fill="url(#prices-violet-p)" d="M8.25,38.92 C8.25,38.92 0.33,38.54 0.33,44.08 C0.140877212,50.5421776 3.71848775,56.5269699 9.5,59.42 C9.5,59.42 24.5,76.81 38,78.49 C52.08,80.24 58.3,74.61 63.33,67.17 C68.75,59.17 71.58,39.51 71.58,39.51 L69,24.67 L22,24.67 L8.25,38.92 Z"/>
    <path fill="url(#prices-violet-q)" fill-rule="nonzero" d="M68.16,25.67 L70.57,39.52 C70.29,41.37 67.48,59.26 62.51,66.61 C57.95,73.33 52.87,77.81 42.9,77.81 C41.3017898,77.805595 39.7053914,77.7020628 38.12,77.5 C25.18,75.89 10.4,58.93 10.26,58.76 L10.11,58.59 L9.89,58.5 C4.49188417,55.7491796 1.15991622,50.1362149 1.33,44.08 C1.33,40.21 6.39,39.91 7.94,39.91 L8.2,39.91 L8.66,39.91 L8.97,39.58 L22.42,25.64 L68.16,25.64 L68.16,25.67 Z M69,24.64 L22,24.64 L8.25,38.89 L7.94,38.89 C6.48,38.89 0.33,39.18 0.33,44.06 C0.140877212,50.5221776 3.71848775,56.5069699 9.5,59.4 C9.5,59.4 24.5,76.79 38,78.47 C39.6250611,78.6787546 41.2615913,78.7856301 42.9,78.79 C53.61,78.79 58.9,73.66 63.33,67.15 C68.75,59.15 71.58,39.49 71.58,39.49 L69,24.67 L69,24.64 Z"/>
    <path fill="url(#prices-violet-r)" d="M49.82,77.94 C47.27,77.94 44.51,78.49 41.54,78.23 C24.42,76.76 9.92,58.08 8.67,57.1 C7.79733063,56.6774435 6.79058632,56.6269259 5.88,56.96 C6.95990181,57.9525794 8.17954861,58.7814001 9.5,59.42 C9.5,59.42 24.5,76.81 38,78.49 C41.9381657,79.0792581 45.9535705,78.8924161 49.82,77.94 Z"/>
    <path fill="url(#prices-violet-s)" d="M16.75,45.92 C20.41,51.86 29.65,53.7 35.83,51.83 C37.9805802,51.0520642 40.2109246,50.5154399 42.48,50.23 C45.5119536,49.8999503 48.3859814,51.6531072 49.48,54.5 C50.64,57.11 53.86,58.89 55.15,59.42 C57.92,60.56 62.35,61.87 65.65,57.92 C67.65,55.48 69.42,50.66 69.23,44.33 C69.0567711,40.524302 67.3067141,36.9625918 64.4,34.5 C53.4,25.33 35.91,23.5 33.15,23.67 C27.88,24.06 25.23,25.3 23.73,26.17 C22.23,27.04 15.49,31.25 15.06,38.67 C14.8668393,41.2027679 15.4568096,43.7337056 16.75,45.92 Z"/>
    <path fill="url(#prices-violet-t)" fill-rule="nonzero" d="M33.65,24.65 C37.1,24.65 53.3,26.54 63.78,35.27 C66.4759873,37.5412841 68.0971972,40.838107 68.25,44.36 C68.44,50.68 66.64,55.18 64.9,57.28 C63.7585203,58.7575574 61.9868826,59.610019 60.12,59.58 C58.5410568,59.5116984 56.9897948,59.1417037 55.55,58.49 C54.47,58.05 51.43,56.39 50.41,54.09 C49.2492171,51.1002031 46.3467,49.1518835 43.14,49.21 C42.86,49.21 42.61,49.21 42.41,49.21 C40.4322413,49.4192647 38.4857091,49.8589126 36.61,50.52 L35.54,50.85 C33.9953214,51.2899622 32.3960888,51.5088046 30.79,51.5 C25.08,51.5 19.9,49.09 17.6,45.36 C16.417569,43.3466346 15.8866519,41.0168863 16.08,38.69 C16.47,32.01 22.43,28.05 24.25,27 C25.69,26.17 28.2,25 33.25,24.63 L33.66,24.63 L33.65,24.65 Z M33.66,23.63 L33.18,23.63 C27.91,24.02 25.26,25.26 23.76,26.13 C22.26,27 15.52,31.21 15.09,38.63 C14.8908195,41.1606816 15.4737744,43.691474 16.76,45.88 C19.51,50.34 25.42,52.49 30.76,52.49 C32.4518824,52.5017077 34.1363796,52.2658781 35.76,51.79 C37.9105802,51.0120642 40.1409246,50.4754399 42.41,50.19 L43.07,50.19 C45.8860773,50.1237302 48.4365949,51.8441265 49.43,54.48 C50.59,57.09 53.81,58.87 55.1,59.4 C56.6755367,60.1076533 58.3738236,60.5016558 60.1,60.56 C62.2635036,60.5869685 64.3157999,59.6033453 65.65,57.9 C67.65,55.46 69.42,50.64 69.23,44.31 C69.0567711,40.504302 67.3067141,36.9425918 64.4,34.48 C53.91,25.75 37.54,23.63 33.63,23.63 L33.66,23.63 Z"/>
    <path fill="url(#prices-violet-u)" d="M59.75,36.08 C57.4519196,35.6285187 55.0684716,35.9816221 53,37.08 C50.0218502,38.7563623 48.1060212,41.8375284 47.92,45.25 C47.8371051,47.0824988 48.2701952,48.9014773 49.17,50.5 C52.26,56 60.61,58.24 64.17,55.67 C67.24,53.44 67.93,46.97 67.25,43.83 C66.8615704,42.0662133 66.0285092,40.4310724 64.83,39.08 C63.4661511,37.60514 61.7000759,36.5621822 59.75,36.08 Z"/>
    <path fill="url(#prices-violet-v)" d="M44.25,37.75 C43.629406,35.2182649 42.2304229,32.9449173 40.25,31.25 C35.5,27.04 27.63,26.55 22.58,30.33 C21.95,30.81 17.58,34.04 17.83,39 C18.01,43.26 21.41,45.93 22.67,46.92 C27.33,50.57 36.02,52.67 41,47.83 C44.6,44.34 44.48,39.05 44.25,37.75 Z"/>
    <path fill="url(#prices-violet-w)" d="M21.8,38.57 C22.6305052,36.5446414 24.6110738,35.2295439 26.8,35.25 C31.54,35.06 37.97,37.04 39.16,40.44 C39.6954654,42.5950916 39.1198903,44.8752487 37.6257414,46.5180093 C36.1315924,48.1607698 33.9160614,48.9493288 31.72,48.62 C30.15,48.48 24.72,47.51 22.57,45.34 C20.9,43.6 21,40.81 21.8,38.57 Z"/>
    <path fill="url(#prices-violet-x)" d="M30.1,38.1 C27.8847538,38.0934418 25.8826158,39.4188902 25.0234589,41.4607541 C24.164302,43.5026181 24.6164866,45.8607739 26.17,47.44 C27.9881821,48.0101186 29.856669,48.4052467 31.75,48.62 C31.9298686,48.6297271 32.1101314,48.6297271 32.29,48.62 C34.6742495,47.57837 36.0024154,45.0085395 35.4731077,42.4610953 C34.9438001,39.9136511 32.7018468,38.0856195 30.1,38.08 L30.1,38.1 Z"/>
    <circle cx="30" cy="44" r="3" fill="url(#prices-violet-y)"/>
    <circle cx="28" cy="40" r="2" fill="url(#prices-violet-z)"/>
    <path fill="url(#prices-violet-A)" d="M50.81,46.31 C51.9261127,44.3595562 54.0130114,43.1686837 56.26,43.2 C59.76,43.07 64.65,45.43 65.19,49.69 C65.55,52.59 64.09,55.99 61.5,56.88 C57.91,58.1 51.02,54.1 50.31,49.75 C50.1216948,48.5791771 50.2961728,47.3787688 50.81,46.31 Z"/>
    <path fill="url(#prices-violet-B)" d="M54.1,45 C53.010128,44.9982317 51.9445736,45.3220767 51.04,45.93 C50.96,46.05 50.88,46.18 50.81,46.31 C50.2853096,47.375425 50.1103292,48.57929 50.31,49.75 C50.7,52.15 52.98,54.44 55.54,55.8 C58.1856367,55.0665155 59.8851896,52.494369 59.5223432,49.7730209 C59.1594968,47.0516728 56.845392,45.0146807 54.1,45 Z"/>
    <circle cx="54" cy="50.9" r="3" fill="url(#prices-violet-C)"/>
    <path fill="url(#prices-violet-D)" d="M54,46.9 C54,45.7954305 53.1045695,44.9 52,44.9 L51.9,44.9 C51.0289029,45.6808613 50.4591857,46.7424463 50.29,47.9 C50.7515846,48.661517 51.6610418,49.0261326 52.5208437,48.7943801 C53.3806455,48.5626275 53.9836593,47.7903378 54,46.9 Z"/>
    <path fill="url(#prices-violet-E)" d="M10.92,41.5 C15.1253864,37.0494847 20.8848445,34.3918243 27,34.08 C37.25,33.58 44.58,36.39 52.92,35.24 C57.8743232,34.5571515 62.4376702,32.174738 65.83,28.5 C65.83,28.5 65.75,37.5 66.92,41 C68.09,44.5 68.08,56.65 68.08,56.65 C68.08,56.65 71.82,50.8 71.58,45.92 C71.34,41.04 72.58,30.17 68.67,26.58 C64.76,22.99 49.08,21.33 33.5,24.67 C17.92,28.01 12.42,29.75 10.92,33.33 C9.42,36.91 10.92,41.5 10.92,41.5 Z"/>
    <path fill="url(#prices-violet-F)" d="M7.58,46.17 C7.58,46.17 7.5,42.83 5.5,42.83 C3.5,42.83 2.75,44.58 2.67,46.17 C2.59,47.76 3.83,51.73 6.42,51.73 C5.69988419,50.4858377 5.25647664,49.1010418 5.12,47.67 C5.12,45.08 7.58,46.17 7.58,46.17 Z"/>
    <path fill="url(#prices-violet-G)" d="M5.55,43.42 C6.11636432,43.3810609 6.67259205,43.5846476 7.08,43.98 C6.83634533,43.3109199 6.21158275,42.8561876 5.5,42.83 C3.5,42.83 2.75,44.58 2.67,46.17 C2.67037371,47.0336354 2.836724,47.8891512 3.16,48.69 C3.13,45.84 4.09,43.6 5.55,43.42 Z"/>
    <path fill="url(#prices-violet-H)" d="M67.87,56.84 C72.42,53 74.95,43.52 74.95,35.24 C74.95,31.8 73.32,22.84 67.95,21.31 C67.5,14.51 63.13,9.25 59.06,5.8 C54.15,1.64 47.15,0.34 40.23,0.34 C21,0.34 4.69,18.5 4.69,39.46 C4.69,39.46 7.39,38 7.89,39.38 C8.39,40.76 7.45,44.06 9.26,43.75 C11.07,43.44 11,39.17 13,37 C15,34.83 19.16,32.59 26.62,32 C33.86,31.42 45.2,33.07 51.38,32.38 C57.56,31.69 66,28.29 66,28.29 C66,28.29 69.06,38.38 69.25,42 C69.44,45.62 69.75,52.75 67.87,56.84 Z"/>
    <path fill="url(#prices-violet-I)" fill-rule="nonzero" d="M68.89,53.39 C69.4169973,49.617134 69.537688,45.7986155 69.25,42 C69.06,38.38 66,28.29 66,28.29 C66,28.29 57.67,31.67 51.38,32.38 C45.09,33.09 33.86,31.38 26.62,32 C23.0927798,32.1761853 19.6327697,33.0318502 16.43,34.52 C18.53,33.45 28.11,28.94 38.61,30.02 C47.7184784,30.8910375 56.90931,30.1290857 65.75,27.77 C65.75,27.77 70.31,33.88 70.75,39.51 C71,43.24 69.77,49.56 68.89,53.39 Z M68.09,56.63 C68.09,56.63 68.22,56.13 68.4,55.4 C68.27,55.82 68.13,56.22 67.97,56.6 L68.08,56.6 L68.09,56.63 Z"/>
    <path fill="url(#prices-violet-J)" d="M55.42,8.25 C45.83,10.33 26,16.75 17.83,20.58 C24.6,16.33 41.67,6.83 55.42,8.25 Z"/>
    <path fill="url(#prices-violet-K)" d="M23.26,28.59 C16.7044011,30.5222824 10.4679296,33.4063557 4.75,37.15 C4.75,37.91 4.68,38.68 4.68,39.46 C4.68,39.46 6.37,38.55 7.32,38.85 C10.9618655,36.5750308 14.7653599,34.5696735 18.7,32.85 C23.302924,30.9408123 28.0968598,29.5294507 33,28.64 C35.6,28.16 47.36,26.49 51.53,25.52 C56.1166567,24.3419218 60.572602,22.703608 64.83,20.63 C64.83,20.63 58.48,22.91 51.21,24.72 C48.13,25.43 31.09,26.42 23.26,28.59 Z"/>
    <path fill="url(#prices-violet-L)" d="M45.06,52.62 C46.63,52.86 47.92,54.7 47.75,58.38 C45.75,55.8 39.12,55.8 39.12,55.8 C39.12,55.8 42.16,52.19 45.06,52.62 Z"/>
    <path fill="url(#prices-violet-M)" d="M39.12,55.8 C39.12,55.8 42.88,53.17 45.31,53.9 C47.74,54.63 47.75,58.38 47.75,58.38 C47.75,58.38 42,57.86 39.12,55.8 Z"/>
    <path fill="url(#prices-violet-N)" d="M41,63.75 C37.3695823,62.517792 33.9522842,60.729867 30.87,58.45 C31.93,61.36 35.08,64.3 39.37,65.98 C43.94,67.77 48.52,67.63 51.23,65.98 C47.7338842,65.7092251 44.291626,64.9588599 41,63.75 Z"/>
    <path fill="url(#prices-violet-O)" fill-rule="nonzero" d="M34.77,62.14 C36.6595973,63.1367378 38.6218577,63.9891677 40.64,64.69 C42.46287,65.337301 44.3270403,65.8618077 46.22,66.26 L45.81,66.26 C43.719706,66.2338069 41.6520259,65.8236605 39.71,65.05 C37.9158179,64.3555581 36.2471657,63.3726072 34.77,62.14 Z M30.84,58.45 C31.9,61.36 35.05,64.3 39.34,65.98 C41.3994248,66.8015107 43.5929054,67.2354605 45.81,67.26 C47.6949691,67.3224961 49.5604699,66.8621777 51.2,65.93 C47.7163903,65.6726132 44.2844735,64.9391251 41,63.75 C37.3695823,62.517792 33.9522842,60.729867 30.87,58.45 L30.84,58.45 Z"/>
    <path fill="url(#prices-violet-P)" d="M33.17,56.46 C33.5233464,56.8411949 33.7744759,57.3056124 33.9,57.81 C32.8131589,57.4353798 31.6082499,57.6929638 30.7695791,58.4792177 C29.9309083,59.2654715 29.5962045,60.4512745 29.9,61.56 C29.4033841,61.4017995 28.9534373,61.1235881 28.59,60.75 C27.4053493,59.4963136 27.4613138,57.5196509 28.7150001,56.3350001 C29.9686865,55.1503494 31.9453492,55.2063137 33.13,56.46 L33.17,56.46 Z"/>
    <path fill="url(#prices-violet-Q)" d="M51,63.39 C50.6552286,63.3534558 50.3073433,63.419554 50,63.58 C50.6035327,64.1329402 50.9075767,64.9403038 50.8187025,65.7539966 C50.7298282,66.5676894 50.2586664,67.2903825 49.55,67.7 C49.8094858,67.9165728 50.1249859,68.0552541 50.46,68.1 C51.665819,68.1279814 52.6672796,67.1756997 52.7,65.97 C52.9229208,64.7920535 52.1703423,63.6499049 51,63.39 Z"/>
    <path fill="url(#prices-violet-R)" d="M41,63.75 C37.4205254,62.5243519 34.0485465,60.760807 31,58.52 C33.4363741,61.1349613 36.4545805,63.1391052 39.81,64.37 C43.383818,65.8898978 47.2985285,66.4284294 51.15,65.93 C47.6844451,65.6602092 44.2707036,64.9270115 41,63.75 Z"/>
    <path fill="url(#prices-violet-S)" d="M30.93,58.52 C33.3663741,61.1349613 36.3845805,63.1391052 39.74,64.37 C42.5063122,65.4918084 45.4553841,66.0951817 48.44,66.15 C49.3248465,66.1567654 50.2084781,66.0831294 51.08,65.93 C47.6381213,65.6540417 44.2483232,64.9209306 41,63.75 C37.4205254,62.5243519 34.0485465,60.760807 31,58.52 L30.93,58.52 Z"/>
    <ellipse cx="62.412" cy="65.014" fill="url(#prices-violet-m)" rx="9" ry="3.96" transform="rotate(-53.07 62.412 65.014)"/>
    <path fill="url(#prices-violet-n)" fill-rule="nonzero" d="M66.55,58.44 C66.7866825,58.4282626 67.0210655,58.4912311 67.22,58.62 C67.71,58.99 67.81,60.05 67.5,61.39 C66.9630565,63.3566295 66.0382575,65.1960275 64.78,66.8 C62.41,69.95 59.71,71.6 58.27,71.6 C58.0331712,71.6131262 57.7983652,71.550044 57.6,71.42 C57.11,71.05 57,69.99 57.32,68.65 C57.8569435,66.6833705 58.7817425,64.8439725 60.04,63.24 C62.41,60.09 65.11,58.44 66.55,58.44 Z M66.55,57.44 C64.55,57.44 61.64,59.44 59.24,62.64 C56.24,66.64 55.24,70.9 57,72.22 C57.3705595,72.4817871 57.8165524,72.6152338 58.27,72.6 C60.27,72.6 63.18,70.6 65.58,67.4 C68.58,63.4 69.58,59.14 67.82,57.82 C67.4494405,57.5582129 67.0034476,57.4247662 66.55,57.44 Z"/>
    <ellipse cx="62.422" cy="64.323" fill="url(#prices-violet-o)" rx="7.37" ry="3.24" transform="rotate(-53.07 62.422 64.323)"/>
    <path fill="url(#prices-violet-p)" d="M8.25,38.92 C8.25,38.92 0.33,38.54 0.33,44.08 C0.140877212,50.5421776 3.71848775,56.5269699 9.5,59.42 C9.5,59.42 24.5,76.81 38,78.49 C52.08,80.24 58.3,74.61 63.33,67.17 C68.75,59.17 71.58,39.51 71.58,39.51 L69,24.67 L22,24.67 L8.25,38.92 Z"/>
    <path fill="url(#prices-violet-q)" fill-rule="nonzero" d="M68.16,25.67 L70.57,39.52 C70.29,41.37 67.48,59.26 62.51,66.61 C57.95,73.33 52.87,77.81 42.9,77.81 C41.3017898,77.805595 39.7053914,77.7020628 38.12,77.5 C25.18,75.89 10.4,58.93 10.26,58.76 L10.11,58.59 L9.89,58.5 C4.49188417,55.7491796 1.15991622,50.1362149 1.33,44.08 C1.33,40.21 6.39,39.91 7.94,39.91 L8.2,39.91 L8.66,39.91 L8.97,39.58 L22.42,25.64 L68.16,25.64 L68.16,25.67 Z M69,24.64 L22,24.64 L8.25,38.89 L7.94,38.89 C6.48,38.89 0.33,39.18 0.33,44.06 C0.140877212,50.5221776 3.71848775,56.5069699 9.5,59.4 C9.5,59.4 24.5,76.79 38,78.47 C39.6250611,78.6787546 41.2615913,78.7856301 42.9,78.79 C53.61,78.79 58.9,73.66 63.33,67.15 C68.75,59.15 71.58,39.49 71.58,39.49 L69,24.67 L69,24.64 Z"/>
    <path fill="url(#prices-violet-r)" d="M49.82,77.94 C47.27,77.94 44.51,78.49 41.54,78.23 C24.42,76.76 9.92,58.08 8.67,57.1 C7.79733063,56.6774435 6.79058632,56.6269259 5.88,56.96 C6.95990181,57.9525794 8.17954861,58.7814001 9.5,59.42 C9.5,59.42 24.5,76.81 38,78.49 C41.9381657,79.0792581 45.9535705,78.8924161 49.82,77.94 Z"/>
    <path fill="url(#prices-violet-s)" d="M16.75,45.92 C20.41,51.86 29.65,53.7 35.83,51.83 C37.9805802,51.0520642 40.2109246,50.5154399 42.48,50.23 C45.5119536,49.8999503 48.3859814,51.6531072 49.48,54.5 C50.64,57.11 53.86,58.89 55.15,59.42 C57.92,60.56 62.35,61.87 65.65,57.92 C67.65,55.48 69.42,50.66 69.23,44.33 C69.0567711,40.524302 67.3067141,36.9625918 64.4,34.5 C53.4,25.33 35.91,23.5 33.15,23.67 C27.88,24.06 25.23,25.3 23.73,26.17 C22.23,27.04 15.49,31.25 15.06,38.67 C14.8668393,41.2027679 15.4568096,43.7337056 16.75,45.92 Z"/>
    <path fill="url(#prices-violet-t)" fill-rule="nonzero" d="M33.65,24.65 C37.1,24.65 53.3,26.54 63.78,35.27 C66.4759873,37.5412841 68.0971972,40.838107 68.25,44.36 C68.44,50.68 66.64,55.18 64.9,57.28 C63.7585203,58.7575574 61.9868826,59.610019 60.12,59.58 C58.5410568,59.5116984 56.9897948,59.1417037 55.55,58.49 C54.47,58.05 51.43,56.39 50.41,54.09 C49.2492171,51.1002031 46.3467,49.1518835 43.14,49.21 C42.86,49.21 42.61,49.21 42.41,49.21 C40.4322413,49.4192647 38.4857091,49.8589126 36.61,50.52 L35.54,50.85 C33.9953214,51.2899622 32.3960888,51.5088046 30.79,51.5 C25.08,51.5 19.9,49.09 17.6,45.36 C16.417569,43.3466346 15.8866519,41.0168863 16.08,38.69 C16.47,32.01 22.43,28.05 24.25,27 C25.69,26.17 28.2,25 33.25,24.63 L33.66,24.63 L33.65,24.65 Z M33.66,23.63 L33.18,23.63 C27.91,24.02 25.26,25.26 23.76,26.13 C22.26,27 15.52,31.21 15.09,38.63 C14.8908195,41.1606816 15.4737744,43.691474 16.76,45.88 C19.51,50.34 25.42,52.49 30.76,52.49 C32.4518824,52.5017077 34.1363796,52.2658781 35.76,51.79 C37.9105802,51.0120642 40.1409246,50.4754399 42.41,50.19 L43.07,50.19 C45.8860773,50.1237302 48.4365949,51.8441265 49.43,54.48 C50.59,57.09 53.81,58.87 55.1,59.4 C56.6755367,60.1076533 58.3738236,60.5016558 60.1,60.56 C62.2635036,60.5869685 64.3157999,59.6033453 65.65,57.9 C67.65,55.46 69.42,50.64 69.23,44.31 C69.0567711,40.504302 67.3067141,36.9425918 64.4,34.48 C53.91,25.75 37.54,23.63 33.63,23.63 L33.66,23.63 Z"/>
    <path fill="url(#prices-violet-u)" d="M59.75,36.08 C57.4519196,35.6285187 55.0684716,35.9816221 53,37.08 C50.0218502,38.7563623 48.1060212,41.8375284 47.92,45.25 C47.8371051,47.0824988 48.2701952,48.9014773 49.17,50.5 C52.26,56 60.61,58.24 64.17,55.67 C67.24,53.44 67.93,46.97 67.25,43.83 C66.8615704,42.0662133 66.0285092,40.4310724 64.83,39.08 C63.4661511,37.60514 61.7000759,36.5621822 59.75,36.08 Z"/>
    <path fill="url(#prices-violet-v)" d="M44.25,37.75 C43.629406,35.2182649 42.2304229,32.9449173 40.25,31.25 C35.5,27.04 27.63,26.55 22.58,30.33 C21.95,30.81 17.58,34.04 17.83,39 C18.01,43.26 21.41,45.93 22.67,46.92 C27.33,50.57 36.02,52.67 41,47.83 C44.6,44.34 44.48,39.05 44.25,37.75 Z"/>
    <path fill="url(#prices-violet-w)" d="M21.8,38.57 C22.6305052,36.5446414 24.6110738,35.2295439 26.8,35.25 C31.54,35.06 37.97,37.04 39.16,40.44 C39.6954654,42.5950916 39.1198903,44.8752487 37.6257414,46.5180093 C36.1315924,48.1607698 33.9160614,48.9493288 31.72,48.62 C30.15,48.48 24.72,47.51 22.57,45.34 C20.9,43.6 21,40.81 21.8,38.57 Z"/>
    <path fill="url(#prices-violet-x)" d="M30.1,38.1 C27.8847538,38.0934418 25.8826158,39.4188902 25.0234589,41.4607541 C24.164302,43.5026181 24.6164866,45.8607739 26.17,47.44 C27.9881821,48.0101186 29.856669,48.4052467 31.75,48.62 C31.9298686,48.6297271 32.1101314,48.6297271 32.29,48.62 C34.6742495,47.57837 36.0024154,45.0085395 35.4731077,42.4610953 C34.9438001,39.9136511 32.7018468,38.0856195 30.1,38.08 L30.1,38.1 Z"/>
    <circle cx="30" cy="44" r="3" fill="url(#prices-violet-y)"/>
    <circle cx="28" cy="40" r="2" fill="url(#prices-violet-z)"/>
    <path fill="url(#prices-violet-A)" d="M50.81,46.31 C51.9261127,44.3595562 54.0130114,43.1686837 56.26,43.2 C59.76,43.07 64.65,45.43 65.19,49.69 C65.55,52.59 64.09,55.99 61.5,56.88 C57.91,58.1 51.02,54.1 50.31,49.75 C50.1216948,48.5791771 50.2961728,47.3787688 50.81,46.31 Z"/>
    <path fill="url(#prices-violet-B)" d="M54.1,45 C53.010128,44.9982317 51.9445736,45.3220767 51.04,45.93 C50.96,46.05 50.88,46.18 50.81,46.31 C50.2853096,47.375425 50.1103292,48.57929 50.31,49.75 C50.7,52.15 52.98,54.44 55.54,55.8 C58.1856367,55.0665155 59.8851896,52.494369 59.5223432,49.7730209 C59.1594968,47.0516728 56.845392,45.0146807 54.1,45 Z"/>
    <circle cx="54" cy="50.9" r="3" fill="url(#prices-violet-C)"/>
    <path fill="url(#prices-violet-D)" d="M54,46.9 C54,45.7954305 53.1045695,44.9 52,44.9 L51.9,44.9 C51.0289029,45.6808613 50.4591857,46.7424463 50.29,47.9 C50.7515846,48.661517 51.6610418,49.0261326 52.5208437,48.7943801 C53.3806455,48.5626275 53.9836593,47.7903378 54,46.9 Z"/>
    <path fill="url(#prices-violet-E)" d="M10.92,41.5 C15.1253864,37.0494847 20.8848445,34.3918243 27,34.08 C37.25,33.58 44.58,36.39 52.92,35.24 C57.8743232,34.5571515 62.4376702,32.174738 65.83,28.5 C65.83,28.5 65.75,37.5 66.92,41 C68.09,44.5 68.08,56.65 68.08,56.65 C68.08,56.65 71.82,50.8 71.58,45.92 C71.34,41.04 72.58,30.17 68.67,26.58 C64.76,22.99 49.08,21.33 33.5,24.67 C17.92,28.01 12.42,29.75 10.92,33.33 C9.42,36.91 10.92,41.5 10.92,41.5 Z"/>
    <path fill="url(#prices-violet-F)" d="M7.58,46.17 C7.58,46.17 7.5,42.83 5.5,42.83 C3.5,42.83 2.75,44.58 2.67,46.17 C2.59,47.76 3.83,51.73 6.42,51.73 C5.69988419,50.4858377 5.25647664,49.1010418 5.12,47.67 C5.12,45.08 7.58,46.17 7.58,46.17 Z"/>
    <path fill="url(#prices-violet-G)" d="M5.55,43.42 C6.11636432,43.3810609 6.67259205,43.5846476 7.08,43.98 C6.83634533,43.3109199 6.21158275,42.8561876 5.5,42.83 C3.5,42.83 2.75,44.58 2.67,46.17 C2.67037371,47.0336354 2.836724,47.8891512 3.16,48.69 C3.13,45.84 4.09,43.6 5.55,43.42 Z"/>
    <path fill="url(#prices-violet-H)" d="M67.87,56.84 C72.42,53 74.95,43.52 74.95,35.24 C74.95,31.8 73.32,22.84 67.95,21.31 C67.5,14.51 63.13,9.25 59.06,5.8 C54.15,1.64 47.15,0.34 40.23,0.34 C21,0.34 4.69,18.5 4.69,39.46 C4.69,39.46 7.39,38 7.89,39.38 C8.39,40.76 7.45,44.06 9.26,43.75 C11.07,43.44 11,39.17 13,37 C15,34.83 19.16,32.59 26.62,32 C33.86,31.42 45.2,33.07 51.38,32.38 C57.56,31.69 66,28.29 66,28.29 C66,28.29 69.06,38.38 69.25,42 C69.44,45.62 69.75,52.75 67.87,56.84 Z"/>
    <path fill="url(#prices-violet-I)" fill-rule="nonzero" d="M68.89,53.39 C69.4169973,49.617134 69.537688,45.7986155 69.25,42 C69.06,38.38 66,28.29 66,28.29 C66,28.29 57.67,31.67 51.38,32.38 C45.09,33.09 33.86,31.38 26.62,32 C23.0927798,32.1761853 19.6327697,33.0318502 16.43,34.52 C18.53,33.45 28.11,28.94 38.61,30.02 C47.7184784,30.8910375 56.90931,30.1290857 65.75,27.77 C65.75,27.77 70.31,33.88 70.75,39.51 C71,43.24 69.77,49.56 68.89,53.39 Z M68.09,56.63 C68.09,56.63 68.22,56.13 68.4,55.4 C68.27,55.82 68.13,56.22 67.97,56.6 L68.08,56.6 L68.09,56.63 Z"/>
    <path fill="url(#prices-violet-J)" d="M55.42,8.25 C45.83,10.33 26,16.75 17.83,20.58 C24.6,16.33 41.67,6.83 55.42,8.25 Z"/>
    <path fill="url(#prices-violet-K)" d="M23.26,28.59 C16.7044011,30.5222824 10.4679296,33.4063557 4.75,37.15 C4.75,37.91 4.68,38.68 4.68,39.46 C4.68,39.46 6.37,38.55 7.32,38.85 C10.9618655,36.5750308 14.7653599,34.5696735 18.7,32.85 C23.302924,30.9408123 28.0968598,29.5294507 33,28.64 C35.6,28.16 47.36,26.49 51.53,25.52 C56.1166567,24.3419218 60.572602,22.703608 64.83,20.63 C64.83,20.63 58.48,22.91 51.21,24.72 C48.13,25.43 31.09,26.42 23.26,28.59 Z"/>
    <path fill="url(#prices-violet-L)" d="M45.06,52.62 C46.63,52.86 47.92,54.7 47.75,58.38 C45.75,55.8 39.12,55.8 39.12,55.8 C39.12,55.8 42.16,52.19 45.06,52.62 Z"/>
    <path fill="url(#prices-violet-M)" d="M39.12,55.8 C39.12,55.8 42.88,53.17 45.31,53.9 C47.74,54.63 47.75,58.38 47.75,58.38 C47.75,58.38 42,57.86 39.12,55.8 Z"/>
    <path fill="url(#prices-violet-N)" d="M41,63.75 C37.3695823,62.517792 33.9522842,60.729867 30.87,58.45 C31.93,61.36 35.08,64.3 39.37,65.98 C43.94,67.77 48.52,67.63 51.23,65.98 C47.7338842,65.7092251 44.291626,64.9588599 41,63.75 Z"/>
    <path fill="url(#prices-violet-O)" fill-rule="nonzero" d="M34.77,62.14 C36.6595973,63.1367378 38.6218577,63.9891677 40.64,64.69 C42.46287,65.337301 44.3270403,65.8618077 46.22,66.26 L45.81,66.26 C43.719706,66.2338069 41.6520259,65.8236605 39.71,65.05 C37.9158179,64.3555581 36.2471657,63.3726072 34.77,62.14 Z M30.84,58.45 C31.9,61.36 35.05,64.3 39.34,65.98 C41.3994248,66.8015107 43.5929054,67.2354605 45.81,67.26 C47.6949691,67.3224961 49.5604699,66.8621777 51.2,65.93 C47.7163903,65.6726132 44.2844735,64.9391251 41,63.75 C37.3695823,62.517792 33.9522842,60.729867 30.87,58.45 L30.84,58.45 Z"/>
    <path fill="url(#prices-violet-P)" d="M33.17,56.46 C33.5233464,56.8411949 33.7744759,57.3056124 33.9,57.81 C32.8131589,57.4353798 31.6082499,57.6929638 30.7695791,58.4792177 C29.9309083,59.2654715 29.5962045,60.4512745 29.9,61.56 C29.4033841,61.4017995 28.9534373,61.1235881 28.59,60.75 C27.4053493,59.4963136 27.4613138,57.5196509 28.7150001,56.3350001 C29.9686865,55.1503494 31.9453492,55.2063137 33.13,56.46 L33.17,56.46 Z"/>
    <path fill="url(#prices-violet-Q)" d="M51,63.39 C50.6552286,63.3534558 50.3073433,63.419554 50,63.58 C50.6035327,64.1329402 50.9075767,64.9403038 50.8187025,65.7539966 C50.7298282,66.5676894 50.2586664,67.2903825 49.55,67.7 C49.8094858,67.9165728 50.1249859,68.0552541 50.46,68.1 C51.665819,68.1279814 52.6672796,67.1756997 52.7,65.97 C52.9229208,64.7920535 52.1703423,63.6499049 51,63.39 Z"/>
    <path fill="url(#prices-violet-R)" d="M41,63.75 C37.4205254,62.5243519 34.0485465,60.760807 31,58.52 C33.4363741,61.1349613 36.4545805,63.1391052 39.81,64.37 C43.383818,65.8898978 47.2985285,66.4284294 51.15,65.93 C47.6844451,65.6602092 44.2707036,64.9270115 41,63.75 Z"/>
    <path fill="url(#prices-violet-S)" d="M30.93,58.52 C33.3663741,61.1349613 36.3845805,63.1391052 39.74,64.37 C42.5063122,65.4918084 45.4553841,66.0951817 48.44,66.15 C49.3248465,66.1567654 50.2084781,66.0831294 51.08,65.93 C47.6381213,65.6540417 44.2483232,64.9209306 41,63.75 C37.4205254,62.5243519 34.0485465,60.760807 31,58.52 L30.93,58.52 Z"/>
    <ellipse cx="62.412" cy="65.014" fill="url(#prices-violet-m)" rx="9" ry="3.96" transform="rotate(-53.07 62.412 65.014)"/>
    <path fill="url(#prices-violet-n)" fill-rule="nonzero" d="M66.55,58.44 C66.7866825,58.4282626 67.0210655,58.4912311 67.22,58.62 C67.71,58.99 67.81,60.05 67.5,61.39 C66.9630565,63.3566295 66.0382575,65.1960275 64.78,66.8 C62.41,69.95 59.71,71.6 58.27,71.6 C58.0331712,71.6131262 57.7983652,71.550044 57.6,71.42 C57.11,71.05 57,69.99 57.32,68.65 C57.8569435,66.6833705 58.7817425,64.8439725 60.04,63.24 C62.41,60.09 65.11,58.44 66.55,58.44 Z M66.55,57.44 C64.55,57.44 61.64,59.44 59.24,62.64 C56.24,66.64 55.24,70.9 57,72.22 C57.3705595,72.4817871 57.8165524,72.6152338 58.27,72.6 C60.27,72.6 63.18,70.6 65.58,67.4 C68.58,63.4 69.58,59.14 67.82,57.82 C67.4494405,57.5582129 67.0034476,57.4247662 66.55,57.44 Z"/>
    <ellipse cx="62.422" cy="64.323" fill="url(#prices-violet-o)" rx="7.37" ry="3.24" transform="rotate(-53.07 62.422 64.323)"/>
    <path fill="url(#prices-violet-p)" d="M8.25,38.92 C8.25,38.92 0.33,38.54 0.33,44.08 C0.140877212,50.5421776 3.71848775,56.5269699 9.5,59.42 C9.5,59.42 24.5,76.81 38,78.49 C52.08,80.24 58.3,74.61 63.33,67.17 C68.75,59.17 71.58,39.51 71.58,39.51 L69,24.67 L22,24.67 L8.25,38.92 Z"/>
    <path fill="url(#prices-violet-q)" fill-rule="nonzero" d="M68.16,25.67 L70.57,39.52 C70.29,41.37 67.48,59.26 62.51,66.61 C57.95,73.33 52.87,77.81 42.9,77.81 C41.3017898,77.805595 39.7053914,77.7020628 38.12,77.5 C25.18,75.89 10.4,58.93 10.26,58.76 L10.11,58.59 L9.89,58.5 C4.49188417,55.7491796 1.15991622,50.1362149 1.33,44.08 C1.33,40.21 6.39,39.91 7.94,39.91 L8.2,39.91 L8.66,39.91 L8.97,39.58 L22.42,25.64 L68.16,25.64 L68.16,25.67 Z M69,24.64 L22,24.64 L8.25,38.89 L7.94,38.89 C6.48,38.89 0.33,39.18 0.33,44.06 C0.140877212,50.5221776 3.71848775,56.5069699 9.5,59.4 C9.5,59.4 24.5,76.79 38,78.47 C39.6250611,78.6787546 41.2615913,78.7856301 42.9,78.79 C53.61,78.79 58.9,73.66 63.33,67.15 C68.75,59.15 71.58,39.49 71.58,39.49 L69,24.67 L69,24.64 Z"/>
    <path fill="url(#prices-violet-r)" d="M49.82,77.94 C47.27,77.94 44.51,78.49 41.54,78.23 C24.42,76.76 9.92,58.08 8.67,57.1 C7.79733063,56.6774435 6.79058632,56.6269259 5.88,56.96 C6.95990181,57.9525794 8.17954861,58.7814001 9.5,59.42 C9.5,59.42 24.5,76.81 38,78.49 C41.9381657,79.0792581 45.9535705,78.8924161 49.82,77.94 Z"/>
    <path fill="url(#prices-violet-s)" d="M16.75,45.92 C20.41,51.86 29.65,53.7 35.83,51.83 C37.9805802,51.0520642 40.2109246,50.5154399 42.48,50.23 C45.5119536,49.8999503 48.3859814,51.6531072 49.48,54.5 C50.64,57.11 53.86,58.89 55.15,59.42 C57.92,60.56 62.35,61.87 65.65,57.92 C67.65,55.48 69.42,50.66 69.23,44.33 C69.0567711,40.524302 67.3067141,36.9625918 64.4,34.5 C53.4,25.33 35.91,23.5 33.15,23.67 C27.88,24.06 25.23,25.3 23.73,26.17 C22.23,27.04 15.49,31.25 15.06,38.67 C14.8668393,41.2027679 15.4568096,43.7337056 16.75,45.92 Z"/>
    <path fill="url(#prices-violet-t)" fill-rule="nonzero" d="M33.65,24.65 C37.1,24.65 53.3,26.54 63.78,35.27 C66.4759873,37.5412841 68.0971972,40.838107 68.25,44.36 C68.44,50.68 66.64,55.18 64.9,57.28 C63.7585203,58.7575574 61.9868826,59.610019 60.12,59.58 C58.5410568,59.5116984 56.9897948,59.1417037 55.55,58.49 C54.47,58.05 51.43,56.39 50.41,54.09 C49.2492171,51.1002031 46.3467,49.1518835 43.14,49.21 C42.86,49.21 42.61,49.21 42.41,49.21 C40.4322413,49.4192647 38.4857091,49.8589126 36.61,50.52 L35.54,50.85 C33.9953214,51.2899622 32.3960888,51.5088046 30.79,51.5 C25.08,51.5 19.9,49.09 17.6,45.36 C16.417569,43.3466346 15.8866519,41.0168863 16.08,38.69 C16.47,32.01 22.43,28.05 24.25,27 C25.69,26.17 28.2,25 33.25,24.63 L33.66,24.63 L33.65,24.65 Z M33.66,23.63 L33.18,23.63 C27.91,24.02 25.26,25.26 23.76,26.13 C22.26,27 15.52,31.21 15.09,38.63 C14.8908195,41.1606816 15.4737744,43.691474 16.76,45.88 C19.51,50.34 25.42,52.49 30.76,52.49 C32.4518824,52.5017077 34.1363796,52.2658781 35.76,51.79 C37.9105802,51.0120642 40.1409246,50.4754399 42.41,50.19 L43.07,50.19 C45.8860773,50.1237302 48.4365949,51.8441265 49.43,54.48 C50.59,57.09 53.81,58.87 55.1,59.4 C56.6755367,60.1076533 58.3738236,60.5016558 60.1,60.56 C62.2635036,60.5869685 64.3157999,59.6033453 65.65,57.9 C67.65,55.46 69.42,50.64 69.23,44.31 C69.0567711,40.504302 67.3067141,36.9425918 64.4,34.48 C53.91,25.75 37.54,23.63 33.63,23.63 L33.66,23.63 Z"/>
    <path fill="url(#prices-violet-u)" d="M59.75,36.08 C57.4519196,35.6285187 55.0684716,35.9816221 53,37.08 C50.0218502,38.7563623 48.1060212,41.8375284 47.92,45.25 C47.8371051,47.0824988 48.2701952,48.9014773 49.17,50.5 C52.26,56 60.61,58.24 64.17,55.67 C67.24,53.44 67.93,46.97 67.25,43.83 C66.8615704,42.0662133 66.0285092,40.4310724 64.83,39.08 C63.4661511,37.60514 61.7000759,36.5621822 59.75,36.08 Z"/>
    <path fill="url(#prices-violet-v)" d="M44.25,37.75 C43.629406,35.2182649 42.2304229,32.9449173 40.25,31.25 C35.5,27.04 27.63,26.55 22.58,30.33 C21.95,30.81 17.58,34.04 17.83,39 C18.01,43.26 21.41,45.93 22.67,46.92 C27.33,50.57 36.02,52.67 41,47.83 C44.6,44.34 44.48,39.05 44.25,37.75 Z"/>
    <path fill="url(#prices-violet-w)" d="M21.8,38.57 C22.6305052,36.5446414 24.6110738,35.2295439 26.8,35.25 C31.54,35.06 37.97,37.04 39.16,40.44 C39.6954654,42.5950916 39.1198903,44.8752487 37.6257414,46.5180093 C36.1315924,48.1607698 33.9160614,48.9493288 31.72,48.62 C30.15,48.48 24.72,47.51 22.57,45.34 C20.9,43.6 21,40.81 21.8,38.57 Z"/>
    <path fill="url(#prices-violet-x)" d="M30.1,38.1 C27.8847538,38.0934418 25.8826158,39.4188902 25.0234589,41.4607541 C24.164302,43.5026181 24.6164866,45.8607739 26.17,47.44 C27.9881821,48.0101186 29.856669,48.4052467 31.75,48.62 C31.9298686,48.6297271 32.1101314,48.6297271 32.29,48.62 C34.6742495,47.57837 36.0024154,45.0085395 35.4731077,42.4610953 C34.9438001,39.9136511 32.7018468,38.0856195 30.1,38.08 L30.1,38.1 Z"/>
    <circle cx="30" cy="44" r="3" fill="url(#prices-violet-y)"/>
    <circle cx="28" cy="40" r="2" fill="url(#prices-violet-z)"/>
    <path fill="url(#prices-violet-A)" d="M50.81,46.31 C51.9261127,44.3595562 54.0130114,43.1686837 56.26,43.2 C59.76,43.07 64.65,45.43 65.19,49.69 C65.55,52.59 64.09,55.99 61.5,56.88 C57.91,58.1 51.02,54.1 50.31,49.75 C50.1216948,48.5791771 50.2961728,47.3787688 50.81,46.31 Z"/>
    <path fill="url(#prices-violet-B)" d="M54.1,45 C53.010128,44.9982317 51.9445736,45.3220767 51.04,45.93 C50.96,46.05 50.88,46.18 50.81,46.31 C50.2853096,47.375425 50.1103292,48.57929 50.31,49.75 C50.7,52.15 52.98,54.44 55.54,55.8 C58.1856367,55.0665155 59.8851896,52.494369 59.5223432,49.7730209 C59.1594968,47.0516728 56.845392,45.0146807 54.1,45 Z"/>
    <circle cx="54" cy="50.9" r="3" fill="url(#prices-violet-C)"/>
    <path fill="url(#prices-violet-D)" d="M54,46.9 C54,45.7954305 53.1045695,44.9 52,44.9 L51.9,44.9 C51.0289029,45.6808613 50.4591857,46.7424463 50.29,47.9 C50.7515846,48.661517 51.6610418,49.0261326 52.5208437,48.7943801 C53.3806455,48.5626275 53.9836593,47.7903378 54,46.9 Z"/>
    <path fill="url(#prices-violet-E)" d="M10.92,41.5 C15.1253864,37.0494847 20.8848445,34.3918243 27,34.08 C37.25,33.58 44.58,36.39 52.92,35.24 C57.8743232,34.5571515 62.4376702,32.174738 65.83,28.5 C65.83,28.5 65.75,37.5 66.92,41 C68.09,44.5 68.08,56.65 68.08,56.65 C68.08,56.65 71.82,50.8 71.58,45.92 C71.34,41.04 72.58,30.17 68.67,26.58 C64.76,22.99 49.08,21.33 33.5,24.67 C17.92,28.01 12.42,29.75 10.92,33.33 C9.42,36.91 10.92,41.5 10.92,41.5 Z"/>
    <path fill="url(#prices-violet-F)" d="M7.58,46.17 C7.58,46.17 7.5,42.83 5.5,42.83 C3.5,42.83 2.75,44.58 2.67,46.17 C2.59,47.76 3.83,51.73 6.42,51.73 C5.69988419,50.4858377 5.25647664,49.1010418 5.12,47.67 C5.12,45.08 7.58,46.17 7.58,46.17 Z"/>
    <path fill="url(#prices-violet-G)" d="M5.55,43.42 C6.11636432,43.3810609 6.67259205,43.5846476 7.08,43.98 C6.83634533,43.3109199 6.21158275,42.8561876 5.5,42.83 C3.5,42.83 2.75,44.58 2.67,46.17 C2.67037371,47.0336354 2.836724,47.8891512 3.16,48.69 C3.13,45.84 4.09,43.6 5.55,43.42 Z"/>
    <path fill="url(#prices-violet-H)" d="M67.87,56.84 C72.42,53 74.95,43.52 74.95,35.24 C74.95,31.8 73.32,22.84 67.95,21.31 C67.5,14.51 63.13,9.25 59.06,5.8 C54.15,1.64 47.15,0.34 40.23,0.34 C21,0.34 4.69,18.5 4.69,39.46 C4.69,39.46 7.39,38 7.89,39.38 C8.39,40.76 7.45,44.06 9.26,43.75 C11.07,43.44 11,39.17 13,37 C15,34.83 19.16,32.59 26.62,32 C33.86,31.42 45.2,33.07 51.38,32.38 C57.56,31.69 66,28.29 66,28.29 C66,28.29 69.06,38.38 69.25,42 C69.44,45.62 69.75,52.75 67.87,56.84 Z"/>
    <path fill="url(#prices-violet-I)" fill-rule="nonzero" d="M68.89,53.39 C69.4169973,49.617134 69.537688,45.7986155 69.25,42 C69.06,38.38 66,28.29 66,28.29 C66,28.29 57.67,31.67 51.38,32.38 C45.09,33.09 33.86,31.38 26.62,32 C23.0927798,32.1761853 19.6327697,33.0318502 16.43,34.52 C18.53,33.45 28.11,28.94 38.61,30.02 C47.7184784,30.8910375 56.90931,30.1290857 65.75,27.77 C65.75,27.77 70.31,33.88 70.75,39.51 C71,43.24 69.77,49.56 68.89,53.39 Z M68.09,56.63 C68.09,56.63 68.22,56.13 68.4,55.4 C68.27,55.82 68.13,56.22 67.97,56.6 L68.08,56.6 L68.09,56.63 Z"/>
    <path fill="url(#prices-violet-J)" d="M55.42,8.25 C45.83,10.33 26,16.75 17.83,20.58 C24.6,16.33 41.67,6.83 55.42,8.25 Z"/>
    <path fill="url(#prices-violet-K)" d="M23.26,28.59 C16.7044011,30.5222824 10.4679296,33.4063557 4.75,37.15 C4.75,37.91 4.68,38.68 4.68,39.46 C4.68,39.46 6.37,38.55 7.32,38.85 C10.9618655,36.5750308 14.7653599,34.5696735 18.7,32.85 C23.302924,30.9408123 28.0968598,29.5294507 33,28.64 C35.6,28.16 47.36,26.49 51.53,25.52 C56.1166567,24.3419218 60.572602,22.703608 64.83,20.63 C64.83,20.63 58.48,22.91 51.21,24.72 C48.13,25.43 31.09,26.42 23.26,28.59 Z"/>
    <path fill="url(#prices-violet-L)" d="M45.06,52.62 C46.63,52.86 47.92,54.7 47.75,58.38 C45.75,55.8 39.12,55.8 39.12,55.8 C39.12,55.8 42.16,52.19 45.06,52.62 Z"/>
    <path fill="url(#prices-violet-M)" d="M39.12,55.8 C39.12,55.8 42.88,53.17 45.31,53.9 C47.74,54.63 47.75,58.38 47.75,58.38 C47.75,58.38 42,57.86 39.12,55.8 Z"/>
    <path fill="url(#prices-violet-N)" d="M41,63.75 C37.3695823,62.517792 33.9522842,60.729867 30.87,58.45 C31.93,61.36 35.08,64.3 39.37,65.98 C43.94,67.77 48.52,67.63 51.23,65.98 C47.7338842,65.7092251 44.291626,64.9588599 41,63.75 Z"/>
    <path fill="url(#prices-violet-O)" fill-rule="nonzero" d="M34.77,62.14 C36.6595973,63.1367378 38.6218577,63.9891677 40.64,64.69 C42.46287,65.337301 44.3270403,65.8618077 46.22,66.26 L45.81,66.26 C43.719706,66.2338069 41.6520259,65.8236605 39.71,65.05 C37.9158179,64.3555581 36.2471657,63.3726072 34.77,62.14 Z M30.84,58.45 C31.9,61.36 35.05,64.3 39.34,65.98 C41.3994248,66.8015107 43.5929054,67.2354605 45.81,67.26 C47.6949691,67.3224961 49.5604699,66.8621777 51.2,65.93 C47.7163903,65.6726132 44.2844735,64.9391251 41,63.75 C37.3695823,62.517792 33.9522842,60.729867 30.87,58.45 L30.84,58.45 Z"/>
    <path fill="url(#prices-violet-P)" d="M33.17,56.46 C33.5233464,56.8411949 33.7744759,57.3056124 33.9,57.81 C32.8131589,57.4353798 31.6082499,57.6929638 30.7695791,58.4792177 C29.9309083,59.2654715 29.5962045,60.4512745 29.9,61.56 C29.4033841,61.4017995 28.9534373,61.1235881 28.59,60.75 C27.4053493,59.4963136 27.4613138,57.5196509 28.7150001,56.3350001 C29.9686865,55.1503494 31.9453492,55.2063137 33.13,56.46 L33.17,56.46 Z"/>
    <path fill="url(#prices-violet-Q)" d="M51,63.39 C50.6552286,63.3534558 50.3073433,63.419554 50,63.58 C50.6035327,64.1329402 50.9075767,64.9403038 50.8187025,65.7539966 C50.7298282,66.5676894 50.2586664,67.2903825 49.55,67.7 C49.8094858,67.9165728 50.1249859,68.0552541 50.46,68.1 C51.665819,68.1279814 52.6672796,67.1756997 52.7,65.97 C52.9229208,64.7920535 52.1703423,63.6499049 51,63.39 Z"/>
    <path fill="url(#prices-violet-R)" d="M41,63.75 C37.4205254,62.5243519 34.0485465,60.760807 31,58.52 C33.4363741,61.1349613 36.4545805,63.1391052 39.81,64.37 C43.383818,65.8898978 47.2985285,66.4284294 51.15,65.93 C47.6844451,65.6602092 44.2707036,64.9270115 41,63.75 Z"/>
    <path fill="url(#prices-violet-S)" d="M30.93,58.52 C33.3663741,61.1349613 36.3845805,63.1391052 39.74,64.37 C42.5063122,65.4918084 45.4553841,66.0951817 48.44,66.15 C49.3248465,66.1567654 50.2084781,66.0831294 51.08,65.93 C47.6381213,65.6540417 44.2483232,64.9209306 41,63.75 C37.4205254,62.5243519 34.0485465,60.760807 31,58.52 L30.93,58.52 Z"/>
    <path fill="url(#prices-violet-T)" d="M48.85,95.5 C49.44,98.44 45.16,100.32 40.15,99.5 C35.95,98.81 33.27,96.5 33.56,94.36 C33.83,92.43 36.56,90.99 40.07,90.99 C44.14,91 48.32,92.9 48.85,95.5 Z"/>
    <path fill="url(#prices-violet-U)" d="M40,92 C40,92 35.26,94.14 36,96 C37.33,99.33 43.25,98.25 43.25,98.25 L43.25,97.33 C43.25,97.33 47.25,96.67 46.79,94.79 C46.33,92.91 43.12,91.67 41.88,91.79 C41.2580665,91.8973201 40.6302849,91.9674446 40,92 Z"/>
    <path fill="url(#prices-violet-V)" d="M39.62,95.12 L42.88,93.96 L46.51,98.96 C46.51,98.96 45.18,99.42 44.67,99.51 C44.16,99.6 42.47,99.71 42.47,99.71 L39.62,95.12 Z"/>
    <ellipse cx="39.62" cy="91.83" fill="url(#prices-violet-W)" rx="2.79" ry="1.68"/>
    <ellipse cx="39.69" cy="91.81" fill="url(#prices-violet-X)" rx="1.84" ry="1.03"/>
    <path fill="url(#prices-violet-Y)" d="M8.94,107 L45.64,107 L58.17,69.83 L9,59.33 C10.85,81.44 11.75,82.14 8.94,107 Z"/>
    <path fill="#62626F" d="M13.56,107 L8.94,107 C11.75,82.14 10.85,81.44 9,59.33 L12.9,60.16 C14.27,67.58 16.46,84.47 13.56,107 Z" opacity=".63"/>
    <path fill="#62626F" d="M58.17,69.83 L45.64,107 L44.93,107 C50.18,84.54 51.11,73.28 51.15,68.33 L58.17,69.83 Z" opacity=".62"/>
    <polygon fill="#000" points="30.7 63.96 24.14 107 19.58 107 22.83 62.28" opacity=".35"/>
    <path fill="url(#prices-violet-Z)" d="M33.4,107 L21.31,107 C20.22,105.35 18.9,102.93 19.25,101.17 C19.6,99.41 21.05,97.68 22.46,96.22 C23.28,95.38 24.09,94.63 24.68,94.01 C26.381772,93.7762963 28.0980415,94.3238855 29.35,95.5 C29.789586,95.9513912 30.130174,96.4895202 30.35,97.08 C30.5524138,97.6437726 30.676897,98.2325445 30.72,98.83 C30.86,100.74 30.5,102.77 31.72,104.62 C32.25,105.37 32.82,106.19 33.4,107 Z"/>
    <path fill="#FF2626" d="M46,101 C43.11,102.13 37.21,101.67 34.41,101.37 C32.9060692,101.049592 31.5963049,100.133118 30.78,98.83 C30.736897,98.2325445 30.6124138,97.6437726 30.41,97.08 C30.190174,96.4895202 29.849586,95.9513912 29.41,95.5 C28.1580415,94.3238855 26.441772,93.7762963 24.74,94.01 L24.98,93.75 C26.48,92.08 27.64,91.75 28.64,89.75 C28.993145,89.0102013 29.232512,88.2213015 29.35,87.41 C33.0868372,88.9896064 37.2712796,89.1531445 41.12,87.87 C41.3178,88.3121898 41.6197374,88.6999049 42,89 C44.73,90.82 49.22,93.31 49.46,93.51 C51.38,97.6 49.17,99.75 46,101 Z"/>
    <path fill="#D80000" d="M51.38,107 L33.38,107 C32.8,106.19 32.23,105.37 31.73,104.62 C30.5,102.77 30.86,100.74 30.73,98.83 C31.5463049,100.133118 32.8560692,101.049592 34.36,101.37 C37.16,101.67 43.06,102.13 45.95,101 C49.16,99.75 51.37,97.6 49.45,93.51 C50.3024994,94.9492854 50.9488015,96.5010839 51.37,98.12 C51.7,100.17 51,104 51.38,107 Z"/>
    <path fill="url(#prices-violet-aa)" d="M39.81,82.75 C39.81,82.85 39.81,82.98 39.81,83.15 C36.1705789,84.0014281 32.3532448,83.6505702 28.93,82.15 C28.7779057,81.8615788 28.6110168,81.5812054 28.43,81.31 C26.13,77.74 18.43,68.08 18.43,68.08 L41,72 C40.4094066,75.3348658 40.0054448,78.7001015 39.79,82.08 C39.79,82.33 39.79,82.56 39.81,82.75 Z"/>
    <path fill="#000" d="M41.06,87.87 C37.2112796,89.1531445 33.0268372,88.9896064 29.29,87.41 C29.3502711,87.1096859 29.3903608,86.8056722 29.41,86.5 C29.5860218,85.1318752 29.4736096,83.7420517 29.08,82.42 C29.0521228,82.3362565 29.0152402,82.2557855 28.97,82.18 C32.3932448,83.6805702 36.2105789,84.0314281 39.85,83.18 C39.973357,84.5804847 40.2792829,85.9588318 40.76,87.28 C40.8489189,87.4821074 40.9490754,87.6790819 41.06,87.87 Z"/>
    <path fill="#FF2626" d="M59.57,107 L51.38,107 C50.97,104 51.7,100.17 51.38,98.12 C50.9588015,96.5010839 50.3124994,94.9492854 49.46,93.51 C52.67,96.11 57,103.33 59.57,107 Z"/>
    <path stroke="#614427" d="M24.68,94 C26.385529,93.7191324 28.1222941,94.2732609 29.35,95.49 C30.2436498,96.3669915 30.7449391,97.5679219 30.74,98.82 C30.74,100.82 30.74,104.07 32.91,106.42 M51.38,106.99 C50.97,105.07 51.46,99.9 51.43,98.51 C51.4,97.12 49.43,93.51 49.43,93.51"/>
    <ellipse cx="62.412" cy="65.014" fill="url(#prices-violet-ab)" rx="9" ry="3.96" transform="rotate(-53.07 62.412 65.014)"/>
    <path fill="url(#prices-violet-ac)" fill-rule="nonzero" d="M66.55,58.44 C66.7866825,58.4282626 67.0210655,58.4912311 67.22,58.62 C67.71,58.99 67.81,60.05 67.5,61.39 C66.9630565,63.3566295 66.0382575,65.1960275 64.78,66.8 C62.41,69.95 59.71,71.6 58.27,71.6 C58.0331712,71.6131262 57.7983652,71.550044 57.6,71.42 C57.11,71.05 57,69.99 57.32,68.65 C57.8569435,66.6833705 58.7817425,64.8439725 60.04,63.24 C62.41,60.09 65.11,58.44 66.55,58.44 Z M66.55,57.44 C64.55,57.44 61.64,59.44 59.24,62.64 C56.24,66.64 55.24,70.9 57,72.22 C57.3705595,72.4817871 57.8165524,72.6152338 58.27,72.6 C60.27,72.6 63.18,70.6 65.58,67.4 C68.58,63.4 69.58,59.14 67.82,57.82 C67.4494405,57.5582129 67.0034476,57.4247662 66.55,57.44 Z"/>
    <ellipse cx="62.422" cy="64.323" fill="url(#prices-violet-ad)" rx="7.37" ry="3.24" transform="rotate(-53.07 62.422 64.323)"/>
    <path fill="url(#prices-violet-ae)" d="M8.25,38.92 C8.25,38.92 0.33,38.54 0.33,44.08 C0.140877212,50.5421776 3.71848775,56.5269699 9.5,59.42 C9.5,59.42 24.5,76.81 38,78.49 C52.08,80.24 58.3,74.61 63.33,67.17 C68.75,59.17 71.58,39.51 71.58,39.51 L69,24.67 L22,24.67 L8.25,38.92 Z"/>
    <path fill="url(#prices-violet-af)" fill-rule="nonzero" d="M68.16,25.67 L70.57,39.52 C70.29,41.37 67.48,59.26 62.51,66.61 C57.95,73.33 52.87,77.81 42.9,77.81 C41.3017898,77.805595 39.7053914,77.7020628 38.12,77.5 C25.18,75.89 10.4,58.93 10.26,58.76 L10.11,58.59 L9.89,58.5 C4.49188417,55.7491796 1.15991622,50.1362149 1.33,44.08 C1.33,40.21 6.39,39.91 7.94,39.91 L8.2,39.91 L8.66,39.91 L8.97,39.58 L22.42,25.64 L68.16,25.64 L68.16,25.67 Z M69,24.64 L22,24.64 L8.25,38.89 L7.94,38.89 C6.48,38.89 0.33,39.18 0.33,44.06 C0.140877212,50.5221776 3.71848775,56.5069699 9.5,59.4 C9.5,59.4 24.5,76.79 38,78.47 C39.6250611,78.6787546 41.2615913,78.7856301 42.9,78.79 C53.61,78.79 58.9,73.66 63.33,67.15 C68.75,59.15 71.58,39.49 71.58,39.49 L69,24.67 L69,24.64 Z"/>
    <path fill="url(#prices-violet-ag)" d="M49.82,77.94 C47.27,77.94 44.51,78.49 41.54,78.23 C24.42,76.76 9.92,58.08 8.67,57.1 C7.79733063,56.6774435 6.79058632,56.6269259 5.88,56.96 C6.95990181,57.9525794 8.17954861,58.7814001 9.5,59.42 C9.5,59.42 24.5,76.81 38,78.49 C41.9381657,79.0792581 45.9535705,78.8924161 49.82,77.94 Z"/>
    <path fill="url(#prices-violet-ah)" d="M16.75,45.92 C20.41,51.86 29.65,53.7 35.83,51.83 C37.9805802,51.0520642 40.2109246,50.5154399 42.48,50.23 C45.5119536,49.8999503 48.3859814,51.6531072 49.48,54.5 C50.64,57.11 53.86,58.89 55.15,59.42 C57.92,60.56 62.35,61.87 65.65,57.92 C67.65,55.48 69.42,50.66 69.23,44.33 C69.0567711,40.524302 67.3067141,36.9625918 64.4,34.5 C53.4,25.33 35.91,23.5 33.15,23.67 C27.88,24.06 25.23,25.3 23.73,26.17 C22.23,27.04 15.49,31.25 15.06,38.67 C14.8668393,41.2027679 15.4568096,43.7337056 16.75,45.92 Z"/>
    <path fill="url(#prices-violet-ai)" fill-rule="nonzero" d="M33.65,24.65 C37.1,24.65 53.3,26.54 63.78,35.27 C66.4759873,37.5412841 68.0971972,40.838107 68.25,44.36 C68.44,50.68 66.64,55.18 64.9,57.28 C63.7585203,58.7575574 61.9868826,59.610019 60.12,59.58 C58.5410568,59.5116984 56.9897948,59.1417037 55.55,58.49 C54.47,58.05 51.43,56.39 50.41,54.09 C49.2492171,51.1002031 46.3467,49.1518835 43.14,49.21 C42.86,49.21 42.61,49.21 42.41,49.21 C40.4322413,49.4192647 38.4857091,49.8589126 36.61,50.52 L35.54,50.85 C33.9953214,51.2899622 32.3960888,51.5088046 30.79,51.5 C25.08,51.5 19.9,49.09 17.6,45.36 C16.417569,43.3466346 15.8866519,41.0168863 16.08,38.69 C16.47,32.01 22.43,28.05 24.25,27 C25.69,26.17 28.2,25 33.25,24.63 L33.66,24.63 L33.65,24.65 Z M33.66,23.63 L33.18,23.63 C27.91,24.02 25.26,25.26 23.76,26.13 C22.26,27 15.52,31.21 15.09,38.63 C14.8908195,41.1606816 15.4737744,43.691474 16.76,45.88 C19.51,50.34 25.42,52.49 30.76,52.49 C32.4518824,52.5017077 34.1363796,52.2658781 35.76,51.79 C37.9105802,51.0120642 40.1409246,50.4754399 42.41,50.19 L43.07,50.19 C45.8860773,50.1237302 48.4365949,51.8441265 49.43,54.48 C50.59,57.09 53.81,58.87 55.1,59.4 C56.6755367,60.1076533 58.3738236,60.5016558 60.1,60.56 C62.2635036,60.5869685 64.3157999,59.6033453 65.65,57.9 C67.65,55.46 69.42,50.64 69.23,44.31 C69.0567711,40.504302 67.3067141,36.9425918 64.4,34.48 C53.91,25.75 37.54,23.63 33.63,23.63 L33.66,23.63 Z"/>
    <path fill="url(#prices-violet-aj)" d="M59.75,36.08 C57.4519196,35.6285187 55.0684716,35.9816221 53,37.08 C50.0218502,38.7563623 48.1060212,41.8375284 47.92,45.25 C47.8371051,47.0824988 48.2701952,48.9014773 49.17,50.5 C52.26,56 60.61,58.24 64.17,55.67 C67.24,53.44 67.93,46.97 67.25,43.83 C66.8615704,42.0662133 66.0285092,40.4310724 64.83,39.08 C63.4661511,37.60514 61.7000759,36.5621822 59.75,36.08 Z"/>
    <path fill="url(#prices-violet-ak)" d="M44.25,37.75 C43.629406,35.2182649 42.2304229,32.9449173 40.25,31.25 C35.5,27.04 27.63,26.55 22.58,30.33 C21.95,30.81 17.58,34.04 17.83,39 C18.01,43.26 21.41,45.93 22.67,46.92 C27.33,50.57 36.02,52.67 41,47.83 C44.6,44.34 44.48,39.05 44.25,37.75 Z"/>
    <path fill="url(#prices-violet-al)" d="M21.8,38.57 C22.6305052,36.5446414 24.6110738,35.2295439 26.8,35.25 C31.54,35.06 37.97,37.04 39.16,40.44 C39.6954654,42.5950916 39.1198903,44.8752487 37.6257414,46.5180093 C36.1315924,48.1607698 33.9160614,48.9493288 31.72,48.62 C30.15,48.48 24.72,47.51 22.57,45.34 C20.9,43.6 21,40.81 21.8,38.57 Z"/>
    <path fill="url(#prices-violet-am)" d="M30.1,38.1 C27.8847538,38.0934418 25.8826158,39.4188902 25.0234589,41.4607541 C24.164302,43.5026181 24.6164866,45.8607739 26.17,47.44 C27.9881821,48.0101186 29.856669,48.4052467 31.75,48.62 C31.9298686,48.6297271 32.1101314,48.6297271 32.29,48.62 C34.6742495,47.57837 36.0024154,45.0085395 35.4731077,42.4610953 C34.9438001,39.9136511 32.7018468,38.0856195 30.1,38.08 L30.1,38.1 Z"/>
    <circle cx="30" cy="44" r="3" fill="url(#prices-violet-an)"/>
    <circle cx="28" cy="40" r="2" fill="url(#prices-violet-ao)"/>
    <path fill="url(#prices-violet-ap)" d="M50.81,46.31 C51.9261127,44.3595562 54.0130114,43.1686837 56.26,43.2 C59.76,43.07 64.65,45.43 65.19,49.69 C65.55,52.59 64.09,55.99 61.5,56.88 C57.91,58.1 51.02,54.1 50.31,49.75 C50.1216948,48.5791771 50.2961728,47.3787688 50.81,46.31 Z"/>
    <path fill="url(#prices-violet-aq)" d="M54.1,45 C53.010128,44.9982317 51.9445736,45.3220767 51.04,45.93 C50.96,46.05 50.88,46.18 50.81,46.31 C50.2853096,47.375425 50.1103292,48.57929 50.31,49.75 C50.7,52.15 52.98,54.44 55.54,55.8 C58.1856367,55.0665155 59.8851896,52.494369 59.5223432,49.7730209 C59.1594968,47.0516728 56.845392,45.0146807 54.1,45 Z"/>
    <circle cx="54" cy="50.9" r="3" fill="url(#prices-violet-ar)"/>
    <path fill="url(#prices-violet-as)" d="M54,46.9 C54,45.7954305 53.1045695,44.9 52,44.9 L51.9,44.9 C51.0289029,45.6808613 50.4591857,46.7424463 50.29,47.9 C50.7515846,48.661517 51.6610418,49.0261326 52.5208437,48.7943801 C53.3806455,48.5626275 53.9836593,47.7903378 54,46.9 Z"/>
    <path fill="url(#prices-violet-at)" d="M10.92,41.5 C15.1253864,37.0494847 20.8848445,34.3918243 27,34.08 C37.25,33.58 44.58,36.39 52.92,35.24 C57.8743232,34.5571515 62.4376702,32.174738 65.83,28.5 C65.83,28.5 65.75,37.5 66.92,41 C68.09,44.5 68.08,56.65 68.08,56.65 C68.08,56.65 71.82,50.8 71.58,45.92 C71.34,41.04 72.58,30.17 68.67,26.58 C64.76,22.99 49.08,21.33 33.5,24.67 C17.92,28.01 12.42,29.75 10.92,33.33 C9.42,36.91 10.92,41.5 10.92,41.5 Z"/>
    <path fill="url(#prices-violet-au)" d="M7.58,46.17 C7.58,46.17 7.5,42.83 5.5,42.83 C3.5,42.83 2.75,44.58 2.67,46.17 C2.59,47.76 3.83,51.73 6.42,51.73 C5.69988419,50.4858377 5.25647664,49.1010418 5.12,47.67 C5.12,45.08 7.58,46.17 7.58,46.17 Z"/>
    <path fill="url(#prices-violet-av)" d="M5.55,43.42 C6.11636432,43.3810609 6.67259205,43.5846476 7.08,43.98 C6.83634533,43.3109199 6.21158275,42.8561876 5.5,42.83 C3.5,42.83 2.75,44.58 2.67,46.17 C2.67037371,47.0336354 2.836724,47.8891512 3.16,48.69 C3.13,45.84 4.09,43.6 5.55,43.42 Z"/>
    <path fill="url(#prices-violet-aw)" d="M67.87,56.84 C72.42,53 74.95,43.52 74.95,35.24 C74.95,31.8 73.32,22.84 67.95,21.31 C67.5,14.51 63.13,9.25 59.06,5.8 C54.15,1.64 47.15,0.34 40.23,0.34 C21,0.34 4.69,18.5 4.69,39.46 C4.69,39.46 7.39,38 7.89,39.38 C8.39,40.76 7.45,44.06 9.26,43.75 C11.07,43.44 11,39.17 13,37 C15,34.83 19.16,32.59 26.62,32 C33.86,31.42 45.2,33.07 51.38,32.38 C57.56,31.69 66,28.29 66,28.29 C66,28.29 69.06,38.38 69.25,42 C69.44,45.62 69.75,52.75 67.87,56.84 Z"/>
    <path fill="url(#prices-violet-ax)" fill-rule="nonzero" d="M68.89,53.39 C69.4169973,49.617134 69.537688,45.7986155 69.25,42 C69.06,38.38 66,28.29 66,28.29 C66,28.29 57.67,31.67 51.38,32.38 C45.09,33.09 33.86,31.38 26.62,32 C23.0927798,32.1761853 19.6327697,33.0318502 16.43,34.52 C18.53,33.45 28.11,28.94 38.61,30.02 C47.7184784,30.8910375 56.90931,30.1290857 65.75,27.77 C65.75,27.77 70.31,33.88 70.75,39.51 C71,43.24 69.77,49.56 68.89,53.39 Z M68.09,56.63 C68.09,56.63 68.22,56.13 68.4,55.4 C68.27,55.82 68.13,56.22 67.97,56.6 L68.08,56.6 L68.09,56.63 Z"/>
    <path fill="url(#prices-violet-ay)" d="M55.42,8.25 C45.83,10.33 26,16.75 17.83,20.58 C24.6,16.33 41.67,6.83 55.42,8.25 Z"/>
    <path fill="url(#prices-violet-az)" d="M23.26,28.59 C16.7044011,30.5222824 10.4679296,33.4063557 4.75,37.15 C4.75,37.91 4.68,38.68 4.68,39.46 C4.68,39.46 6.37,38.55 7.32,38.85 C10.9618655,36.5750308 14.7653599,34.5696735 18.7,32.85 C23.302924,30.9408123 28.0968598,29.5294507 33,28.64 C35.6,28.16 47.36,26.49 51.53,25.52 C56.1166567,24.3419218 60.572602,22.703608 64.83,20.63 C64.83,20.63 58.48,22.91 51.21,24.72 C48.13,25.43 31.09,26.42 23.26,28.59 Z"/>
    <path fill="url(#prices-violet-aA)" d="M45.06,52.62 C46.63,52.86 47.92,54.7 47.75,58.38 C45.75,55.8 39.12,55.8 39.12,55.8 C39.12,55.8 42.16,52.19 45.06,52.62 Z"/>
    <path fill="url(#prices-violet-aB)" d="M39.12,55.8 C39.12,55.8 42.88,53.17 45.31,53.9 C47.74,54.63 47.75,58.38 47.75,58.38 C47.75,58.38 42,57.86 39.12,55.8 Z"/>
    <path fill="url(#prices-violet-aC)" d="M41,63.75 C37.3695823,62.517792 33.9522842,60.729867 30.87,58.45 C31.93,61.36 35.08,64.3 39.37,65.98 C43.94,67.77 48.52,67.63 51.23,65.98 C47.7338842,65.7092251 44.291626,64.9588599 41,63.75 Z"/>
    <path fill="url(#prices-violet-aD)" fill-rule="nonzero" d="M34.77,62.14 C36.6595973,63.1367378 38.6218577,63.9891677 40.64,64.69 C42.46287,65.337301 44.3270403,65.8618077 46.22,66.26 L45.81,66.26 C43.719706,66.2338069 41.6520259,65.8236605 39.71,65.05 C37.9158179,64.3555581 36.2471657,63.3726072 34.77,62.14 Z M30.84,58.45 C31.9,61.36 35.05,64.3 39.34,65.98 C41.3994248,66.8015107 43.5929054,67.2354605 45.81,67.26 C47.6949691,67.3224961 49.5604699,66.8621777 51.2,65.93 C47.7163903,65.6726132 44.2844735,64.9391251 41,63.75 C37.3695823,62.517792 33.9522842,60.729867 30.87,58.45 L30.84,58.45 Z"/>
    <path fill="url(#prices-violet-aE)" d="M33.17,56.46 C33.5233464,56.8411949 33.7744759,57.3056124 33.9,57.81 C32.8131589,57.4353798 31.6082499,57.6929638 30.7695791,58.4792177 C29.9309083,59.2654715 29.5962045,60.4512745 29.9,61.56 C29.4033841,61.4017995 28.9534373,61.1235881 28.59,60.75 C27.4053493,59.4963136 27.4613138,57.5196509 28.7150001,56.3350001 C29.9686865,55.1503494 31.9453492,55.2063137 33.13,56.46 L33.17,56.46 Z"/>
    <path fill="url(#prices-violet-aF)" d="M51,63.39 C50.6552286,63.3534558 50.3073433,63.419554 50,63.58 C50.6035327,64.1329402 50.9075767,64.9403038 50.8187025,65.7539966 C50.7298282,66.5676894 50.2586664,67.2903825 49.55,67.7 C49.8094858,67.9165728 50.1249859,68.0552541 50.46,68.1 C51.665819,68.1279814 52.6672796,67.1756997 52.7,65.97 C52.9229208,64.7920535 52.1703423,63.6499049 51,63.39 Z"/>
    <path fill="url(#prices-violet-aG)" d="M41,63.75 C37.4205254,62.5243519 34.0485465,60.760807 31,58.52 C33.4363741,61.1349613 36.4545805,63.1391052 39.81,64.37 C43.383818,65.8898978 47.2985285,66.4284294 51.15,65.93 C47.6844451,65.6602092 44.2707036,64.9270115 41,63.75 Z"/>
    <path fill="url(#prices-violet-aH)" d="M30.93,58.52 C33.3663741,61.1349613 36.3845805,63.1391052 39.74,64.37 C42.5063122,65.4918084 45.4553841,66.0951817 48.44,66.15 C49.3248465,66.1567654 50.2084781,66.0831294 51.08,65.93 C47.6381213,65.6540417 44.2483232,64.9209306 41,63.75 C37.4205254,62.5243519 34.0485465,60.760807 31,58.52 L30.93,58.52 Z"/>
    <ellipse cx="62.412" cy="65.014" fill="#E6C4B7" rx="9" ry="3.96" transform="rotate(-53.07 62.412 65.014)"/>
    <ellipse cx="62.422" cy="64.323" fill="url(#prices-violet-aI)" rx="7.37" ry="3.24" transform="rotate(-53.07 62.422 64.323)"/>
    <path fill="url(#prices-violet-aJ)" d="M8.25,38.92 C8.25,38.92 0.33,38.54 0.33,44.08 C0.140877212,50.5421776 3.71848775,56.5269699 9.5,59.42 C9.5,59.42 24.5,76.81 38,78.49 C52.08,80.24 58.3,74.61 63.33,67.17 C68.75,59.17 71.58,39.51 71.58,39.51 L69,24.67 L22,24.67 L8.25,38.92 Z"/>
    <path fill="#997369" d="M49.82,77.94 C47.27,77.94 44.51,78.49 41.54,78.23 C24.42,76.76 9.92,58.08 8.67,57.1 C7.79733063,56.6774435 6.79058632,56.6269259 5.88,56.96 C6.95990181,57.9525794 8.17954861,58.7814001 9.5,59.42 C9.5,59.42 24.5,76.81 38,78.49 C41.9381657,79.0792581 45.9535705,78.8924161 49.82,77.94 Z" opacity=".33"/>
    <path fill="url(#prices-violet-aK)" d="M16.75,45.92 C20.41,51.86 29.65,53.7 35.83,51.83 C37.9805802,51.0520642 40.2109246,50.5154399 42.48,50.23 C45.5119536,49.8999503 48.3859814,51.6531072 49.48,54.5 C50.64,57.11 53.86,58.89 55.15,59.42 C57.92,60.56 62.35,61.87 65.65,57.92 C67.65,55.48 69.42,50.66 69.23,44.33 C69.0567711,40.524302 67.3067141,36.9625918 64.4,34.5 C53.4,25.33 35.91,23.5 33.15,23.67 C27.88,24.06 25.23,25.3 23.73,26.17 C22.23,27.04 15.49,31.25 15.06,38.67 C14.8668393,41.2027679 15.4568096,43.7337056 16.75,45.92 Z"/>
    <path fill="url(#prices-violet-aL)" d="M59.75,36.08 C57.4519196,35.6285187 55.0684716,35.9816221 53,37.08 C50.0218502,38.7563623 48.1060212,41.8375284 47.92,45.25 C47.8371051,47.0824988 48.2701952,48.9014773 49.17,50.5 C52.26,56 60.61,58.24 64.17,55.67 C67.24,53.44 67.93,46.97 67.25,43.83 C66.8615704,42.0662133 66.0285092,40.4310724 64.83,39.08 C63.4661511,37.60514 61.7000759,36.5621822 59.75,36.08 Z"/>
    <path fill="url(#prices-violet-aM)" d="M44.25,37.75 C43.629406,35.2182649 42.2304229,32.9449173 40.25,31.25 C35.5,27.04 27.63,26.55 22.58,30.33 C21.95,30.81 17.58,34.04 17.83,39 C18.01,43.26 21.41,45.93 22.67,46.92 C27.33,50.57 36.02,52.67 41,47.83 C44.6,44.34 44.48,39.05 44.25,37.75 Z"/>
    <path fill="url(#prices-violet-aN)" d="M21.8,38.57 C22.6305052,36.5446414 24.6110738,35.2295439 26.8,35.25 C31.54,35.06 37.97,37.04 39.16,40.44 C39.6954654,42.5950916 39.1198903,44.8752487 37.6257414,46.5180093 C36.1315924,48.1607698 33.9160614,48.9493288 31.72,48.62 C30.15,48.48 24.72,47.51 22.57,45.34 C20.9,43.6 21,40.81 21.8,38.57 Z"/>
    <path fill="url(#prices-violet-aO)" d="M30.1,38.1 C27.8847538,38.0934418 25.8826158,39.4188902 25.0234589,41.4607541 C24.164302,43.5026181 24.6164866,45.8607739 26.17,47.44 C27.9881821,48.0101186 29.856669,48.4052467 31.75,48.62 C31.9298686,48.6297271 32.1101314,48.6297271 32.29,48.62 C34.6742495,47.57837 36.0024154,45.0085395 35.4731077,42.4610953 C34.9438001,39.9136511 32.7018468,38.0856195 30.1,38.08 L30.1,38.1 Z"/>
    <circle cx="30" cy="44" r="3" fill="#262633"/>
    <circle cx="28" cy="40" r="2" fill="#FFF"/>
    <path fill="url(#prices-violet-aP)" d="M50.81,46.31 C51.9261127,44.3595562 54.0130114,43.1686837 56.26,43.2 C59.76,43.07 64.65,45.43 65.19,49.69 C65.55,52.59 64.09,55.99 61.5,56.88 C57.91,58.1 51.02,54.1 50.31,49.75 C50.1216948,48.5791771 50.2961728,47.3787688 50.81,46.31 Z"/>
    <path fill="url(#prices-violet-aQ)" d="M54.1,45 C53.010128,44.9982317 51.9445736,45.3220767 51.04,45.93 C50.96,46.05 50.88,46.18 50.81,46.31 C50.2853096,47.375425 50.1103292,48.57929 50.31,49.75 C50.7,52.15 52.98,54.44 55.54,55.8 C58.1856367,55.0665155 59.8851896,52.494369 59.5223432,49.7730209 C59.1594968,47.0516728 56.845392,45.0146807 54.1,45 Z"/>
    <circle cx="54" cy="50.9" r="3" fill="#262633"/>
    <path fill="#FFF" d="M54,46.9 C54,45.7954305 53.1045695,44.9 52,44.9 L51.9,44.9 C51.0289029,45.6808613 50.4591857,46.7424463 50.29,47.9 C50.7515846,48.661517 51.6610418,49.0261326 52.5208437,48.7943801 C53.3806455,48.5626275 53.9836593,47.7903378 54,46.9 Z"/>
    <path fill="#000" d="M10.92,41.5 C15.1253864,37.0494847 20.8848445,34.3918243 27,34.08 C37.25,33.58 44.58,36.39 52.92,35.24 C57.8743232,34.5571515 62.4376702,32.174738 65.83,28.5 C65.83,28.5 65.75,37.5 66.92,41 C68.09,44.5 68.08,56.65 68.08,56.65 C68.08,56.65 71.82,50.8 71.58,45.92 C71.34,41.04 72.58,30.17 68.67,26.58 C64.76,22.99 49.08,21.33 33.5,24.67 C17.92,28.01 12.42,29.75 10.92,33.33 C9.42,36.91 10.92,41.5 10.92,41.5 Z" opacity=".2"/>
    <path fill="#997369" d="M7.58,46.17 C7.58,46.17 7.5,42.83 5.5,42.83 C3.5,42.83 2.75,44.58 2.67,46.17 C2.59,47.76 3.83,51.73 6.42,51.73 C5.69988419,50.4858377 5.25647664,49.1010418 5.12,47.67 C5.12,45.08 7.58,46.17 7.58,46.17 Z" opacity=".32"/>
    <path fill="#997369" d="M5.55,43.42 C6.11636432,43.3810609 6.67259205,43.5846476 7.08,43.98 C6.83634533,43.3109199 6.21158275,42.8561876 5.5,42.83 C3.5,42.83 2.75,44.58 2.67,46.17 C2.67037371,47.0336354 2.836724,47.8891512 3.16,48.69 C3.13,45.84 4.09,43.6 5.55,43.42 Z" opacity=".32"/>
    <path fill="url(#prices-violet-aR)" d="M67.87,56.84 C72.42,53 74.95,43.52 74.95,35.24 C74.95,31.8 73.32,22.84 67.95,21.31 C67.5,14.51 63.13,9.25 59.06,5.8 C54.15,1.64 47.15,0.34 40.23,0.34 C21,0.34 4.69,18.5 4.69,39.46 C4.69,39.46 7.39,38 7.89,39.38 C8.39,40.76 7.45,44.06 9.26,43.75 C11.07,43.44 11,39.17 13,37 C15,34.83 19.16,32.59 26.62,32 C33.86,31.42 45.2,33.07 51.38,32.38 C57.56,31.69 66,28.29 66,28.29 C66,28.29 69.06,38.38 69.25,42 C69.44,45.62 69.75,52.75 67.87,56.84 Z"/>
    <path fill="#262633" fill-rule="nonzero" d="M68.89,53.39 C69.4169973,49.617134 69.537688,45.7986155 69.25,42 C69.06,38.38 66,28.29 66,28.29 C66,28.29 57.67,31.67 51.38,32.38 C45.09,33.09 33.86,31.38 26.62,32 C23.0927798,32.1761853 19.6327697,33.0318502 16.43,34.52 C18.53,33.45 28.11,28.94 38.61,30.02 C47.7184784,30.8910375 56.90931,30.1290857 65.75,27.77 C65.75,27.77 70.31,33.88 70.75,39.51 C71,43.24 69.77,49.56 68.89,53.39 Z M68.09,56.63 C68.09,56.63 68.22,56.13 68.4,55.4 C68.27,55.82 68.13,56.22 67.97,56.6 L68.08,56.6 L68.09,56.63 Z"/>
    <path fill="#000" d="M55.42 8.25C45.83 10.33 26 16.75 17.83 20.58 24.6 16.33 41.67 6.83 55.42 8.25zM23.26 28.59C16.7044011 30.5222824 10.4679296 33.4063557 4.75 37.15 4.75 37.91 4.68 38.68 4.68 39.46 4.68 39.46 6.37 38.55 7.32 38.85 10.9618655 36.5750308 14.7653599 34.5696735 18.7 32.85 23.302924 30.9408123 28.0968598 29.5294507 33 28.64 35.6 28.16 47.36 26.49 51.53 25.52 56.1166567 24.3419218 60.572602 22.703608 64.83 20.63 64.83 20.63 58.48 22.91 51.21 24.72 48.13 25.43 31.09 26.42 23.26 28.59z" opacity=".37"/>
    <path fill="#FFD9CC" d="M45.06,52.62 C46.63,52.86 47.92,54.7 47.75,58.38 C45.75,55.8 39.12,55.8 39.12,55.8 C39.12,55.8 42.16,52.19 45.06,52.62 Z"/>
    <path fill="#CC998C" d="M39.12,55.8 C39.12,55.8 42.88,53.17 45.31,53.9 C47.74,54.63 47.75,58.38 47.75,58.38 C47.75,58.38 42,57.86 39.12,55.8 Z"/>
    <path fill="#8C7373" d="M41,63.75 C37.3695823,62.517792 33.9522842,60.729867 30.87,58.45 C31.93,61.36 35.08,64.3 39.37,65.98 C43.94,67.77 48.52,67.63 51.23,65.98 C47.7338842,65.7092251 44.291626,64.9588599 41,63.75 Z"/>
    <path fill="url(#prices-violet-aS)" d="M33.17,56.46 C33.5233464,56.8411949 33.7744759,57.3056124 33.9,57.81 C32.8131589,57.4353798 31.6082499,57.6929638 30.7695791,58.4792177 C29.9309083,59.2654715 29.5962045,60.4512745 29.9,61.56 C29.4033841,61.4017995 28.9534373,61.1235881 28.59,60.75 C27.4053493,59.4963136 27.4613138,57.5196509 28.7150001,56.3350001 C29.9686865,55.1503494 31.9453492,55.2063137 33.13,56.46 L33.17,56.46 Z"/>
    <path fill="url(#prices-violet-aT)" d="M51,63.39 C50.6552286,63.3534558 50.3073433,63.419554 50,63.58 C50.6035327,64.1329402 50.9075767,64.9403038 50.8187025,65.7539966 C50.7298282,66.5676894 50.2586664,67.2903825 49.55,67.7 C49.8094858,67.9165728 50.1249859,68.0552541 50.46,68.1 C51.665819,68.1279814 52.6672796,67.1756997 52.7,65.97 C52.9229208,64.7920535 52.1703423,63.6499049 51,63.39 Z"/>
    <path fill="#5C5C5C" d="M41,63.75 C37.4205254,62.5243519 34.0485465,60.760807 31,58.52 C33.4363741,61.1349613 36.4545805,63.1391052 39.81,64.37 C43.383818,65.8898978 47.2985285,66.4284294 51.15,65.93 C47.6844451,65.6602092 44.2707036,64.9270115 41,63.75 Z"/>
    <path fill="#D99900" d="M48.85,95.5 C49.44,98.44 45.16,100.32 40.15,99.5 C35.95,98.81 33.27,96.5 33.56,94.36 C33.83,92.43 36.56,90.99 40.07,90.99 C44.14,91 48.32,92.9 48.85,95.5 Z"/>
    <path fill="#262633" d="M40,92 C40,92 35.26,94.14 36,96 C37.33,99.33 43.25,98.25 43.25,98.25 L43.25,97.33 C43.25,97.33 47.25,96.67 46.79,94.79 C46.33,92.91 43.12,91.67 41.88,91.79 C41.2580665,91.8973201 40.6302849,91.9674446 40,92 Z"/>
    <path fill="#F2B200" d="M39.62,95.12 L42.88,93.96 L46.51,98.96 C46.51,98.96 45.18,99.42 44.67,99.51 C44.16,99.6 42.47,99.71 42.47,99.71 L39.62,95.12 Z"/>
    <ellipse cx="39.62" cy="91.83" fill="#F2B200" rx="2.79" ry="1.68"/>
    <ellipse cx="39.69" cy="91.81" fill="#FFF" rx="1.84" ry="1.03"/>
  </g>
</svg>
