<svg width="40" height="40" viewBox="0 0 40 40" fill="none" xmlns="http://www.w3.org/2000/svg">
<path fill-rule="evenodd" clip-rule="evenodd" d="M2 0C0.895431 0 0 0.895431 0 2V38C0 39.1046 0.895431 40 2 40H38C39.1046 40 40 39.1046 40 38V2C40 0.895431 39.1046 0 38 0H2ZM29.5 8.5C29.5 9.88071 28.3807 11 27 11C25.6193 11 24.5 9.88071 24.5 8.5C24.5 7.11929 25.6193 6 27 6C28.3807 6 29.5 7.11929 29.5 8.5ZM36.0607 6.69767C36.6464 7.28346 36.6464 8.2332 36.0607 8.81899L28.0607 16.819C28.0243 16.8554 27.9865 16.8895 27.9475 16.9214L23.1685 21.7004C22.778 22.0909 22.1448 22.0909 21.7543 21.7004L18.9258 18.8719C18.5353 18.4814 18.5353 17.8482 18.9258 17.4577L23.3836 13H7.54856C10.8094 14.9086 13 18.448 13 22.5C13 22.8085 12.9873 23.1141 12.9623 23.4163L16.4393 19.9393C17.0251 19.3536 17.9749 19.3536 18.5607 19.9393L25.0607 26.4393C25.4897 26.8683 25.618 27.5135 25.3858 28.074C25.1536 28.6345 24.6067 29 24 29H11.6213L6.56066 34.0607C5.97487 34.6464 5.02513 34.6464 4.43934 34.0607C3.85355 33.4749 3.85355 32.5251 4.43934 31.9393L11.7794 24.5993C11.9239 23.9226 12 23.2203 12 22.5C12 18.0716 9.12116 14.3143 5.13164 13H5C4.72386 13 4.5 12.7761 4.5 12.5C4.5 12.2239 4.72386 12 5 12H28.637L33.9393 6.69767C34.5251 6.11188 35.4749 6.11188 36.0607 6.69767ZM20.3787 26L17.5 23.1213L14.6213 26H20.3787Z" fill="white" fill-opacity="0.54"/>
</svg>
