<svg width="88" height="59" viewBox="0 0 88 59" fill="none" xmlns="http://www.w3.org/2000/svg">
<g clip-path="url(#clip0_2447_8417)">
<path d="M16 0H17V3H20V4H17V9H16V0Z" fill="white" fill-opacity="0.54"/>
<path d="M20 4H21V9H20V4Z" fill="white" fill-opacity="0.54"/>
<path d="M0 1H1V4H0V1Z" fill="white" fill-opacity="0.54"/>
<path d="M2 7H1V4H2V7Z" fill="white" fill-opacity="0.54"/>
<path d="M3 7V9H2V7H3Z" fill="white" fill-opacity="0.54"/>
<path d="M4 4V7H3V4H4Z" fill="white" fill-opacity="0.54"/>
<path d="M5 4H4V1H5V4Z" fill="white" fill-opacity="0.54"/>
<path d="M6 7H5V4H6V7Z" fill="white" fill-opacity="0.54"/>
<path d="M7 7V9H6V7H7Z" fill="white" fill-opacity="0.54"/>
<path d="M8 4V7H7V4H8Z" fill="white" fill-opacity="0.54"/>
<path d="M8 4V1H9V4H8Z" fill="white" fill-opacity="0.54"/>
<path d="M10 1H11V2H10V1Z" fill="white" fill-opacity="0.54"/>
<path d="M10 3H11V9H10V3Z" fill="white" fill-opacity="0.54"/>
<path d="M12 1H13V3H15V4H13V8H12V1Z" fill="white" fill-opacity="0.54"/>
<path d="M13 8H15V9H13V8Z" fill="white" fill-opacity="0.54"/>
<path d="M48 1H47V8H48V9H50V8H48V4H50V3H48V1Z" fill="white" fill-opacity="0.54"/>
<path d="M31 3V10H30V9H27V8H30V4H27V3H31Z" fill="white" fill-opacity="0.54"/>
<path d="M30 10V11H27V10H30Z" fill="white" fill-opacity="0.54"/>
<path d="M26 4H27V8H26V4Z" fill="white" fill-opacity="0.54"/>
<path fill-rule="evenodd" clip-rule="evenodd" d="M39 42V35H35V36H34V40H35V41H38V42H35V43H38V42H39ZM38 40H35V36H38V40Z" fill="white" fill-opacity="0.54"/>
<path fill-rule="evenodd" clip-rule="evenodd" d="M41 35H40V41H41V37H42V36H43V40H44V41H47V40H48V39H47V40H44V38H48V36H47V35H44V36H43V35H42V36H41V35ZM44 36V37H47V36H44Z" fill="white" fill-opacity="0.54"/>
<path fill-rule="evenodd" clip-rule="evenodd" d="M53 35H50V36H53V37H50V38H49V40H50V41H54V36H53V35ZM50 40H53V38H50V40Z" fill="white" fill-opacity="0.54"/>
<path d="M55 33H56V35H58V36H56V40H55V33Z" fill="white" fill-opacity="0.54"/>
<path d="M56 40H58V41H56V40Z" fill="white" fill-opacity="0.54"/>
<path d="M80 49H79V56H80V57H82V56H80V52H82V51H80V49Z" fill="white" fill-opacity="0.54"/>
<path d="M32 3H33V4H34V5H33V9H32V3Z" fill="white" fill-opacity="0.54"/>
<path d="M35 4H34V3H35V4Z" fill="white" fill-opacity="0.54"/>
<path fill-rule="evenodd" clip-rule="evenodd" d="M36 4H35V8H36V9H39V8H40V7H39V8H36V6H40V4H39V3H36V4ZM36 4H39V5H36V4Z" fill="white" fill-opacity="0.54"/>
<path d="M42 3H45V4H42V3Z" fill="white" fill-opacity="0.54"/>
<path fill-rule="evenodd" clip-rule="evenodd" d="M42 8V9H46V4H45V5H42V6H41V8H42ZM42 8V6H45V8H42Z" fill="white" fill-opacity="0.54"/>
<path d="M1 19H4V20H1V19Z" fill="white" fill-opacity="0.54"/>
<path d="M2 22H0V20H1V21H2V22Z" fill="white" fill-opacity="0.54"/>
<path d="M3 24V23H2V22H4V24H3Z" fill="white" fill-opacity="0.54"/>
<path d="M3 24V25H0V24H3Z" fill="white" fill-opacity="0.54"/>
<path d="M4 51H1V52H0V54H2V55H3V56H0V57H3V56H4V54H2V53H1V52H4V51Z" fill="white" fill-opacity="0.54"/>
<path d="M38 51H41V52H38V51Z" fill="white" fill-opacity="0.54"/>
<path d="M39 54H37V52H38V53H39V54Z" fill="white" fill-opacity="0.54"/>
<path d="M40 56V55H39V54H41V56H40Z" fill="white" fill-opacity="0.54"/>
<path d="M40 56V57H37V56H40Z" fill="white" fill-opacity="0.54"/>
<path d="M64 51H61V52H60V54H62V55H63V56H60V57H63V56H64V54H62V53H61V52H64V51Z" fill="white" fill-opacity="0.54"/>
<path d="M65 49H66V50H65V49Z" fill="white" fill-opacity="0.54"/>
<path d="M65 51H66V57H65V51Z" fill="white" fill-opacity="0.54"/>
<path d="M74 49H73V50H74V49Z" fill="white" fill-opacity="0.54"/>
<path d="M74 51H73V57H74V51Z" fill="white" fill-opacity="0.54"/>
<path d="M77 49H78V50H77V49Z" fill="white" fill-opacity="0.54"/>
<path d="M77 51H78V57H77V51Z" fill="white" fill-opacity="0.54"/>
<path d="M5 19H6V24H5V19Z" fill="white" fill-opacity="0.54"/>
<path d="M6 24H9V19H10V25H6V24Z" fill="white" fill-opacity="0.54"/>
<path d="M6 51H5V56H6V57H10V51H9V56H6V51Z" fill="white" fill-opacity="0.54"/>
<path fill-rule="evenodd" clip-rule="evenodd" d="M11 27H12V25H15V24H16V20H15V19H11V27ZM15 20H12V24H15V20Z" fill="white" fill-opacity="0.54"/>
<path d="M12 59H11V51H15V52H12V56H15V57H12V59Z" fill="white" fill-opacity="0.54"/>
<path d="M15 56H16V52H15V56Z" fill="white" fill-opacity="0.54"/>
<path fill-rule="evenodd" clip-rule="evenodd" d="M42 59H43V57H46V56H47V52H46V51H42V59ZM46 52H43V56H46V52Z" fill="white" fill-opacity="0.54"/>
<path d="M28 27H27V19H31V20H28V24H31V25H28V27Z" fill="white" fill-opacity="0.54"/>
<path d="M31 24H32V20H31V24Z" fill="white" fill-opacity="0.54"/>
<path d="M18 19H21V20H18V19Z" fill="white" fill-opacity="0.54"/>
<path d="M18 24H17V20H18V21H21V20H22V22H18V24Z" fill="white" fill-opacity="0.54"/>
<path d="M21 24V25H18V24H21Z" fill="white" fill-opacity="0.54"/>
<path d="M21 24V23H22V24H21Z" fill="white" fill-opacity="0.54"/>
<path fill-rule="evenodd" clip-rule="evenodd" d="M21 51H18V52H17V56H18V57H21V56H22V55H21V56H18V54H22V52H21V51ZM21 52V53H18V52H21Z" fill="white" fill-opacity="0.54"/>
<path d="M32 51H35V52H32V51Z" fill="white" fill-opacity="0.54"/>
<path d="M32 56H31V52H32V53H35V52H36V54H32V56Z" fill="white" fill-opacity="0.54"/>
<path d="M35 56V57H32V56H35Z" fill="white" fill-opacity="0.54"/>
<path d="M35 56V55H36V56H35Z" fill="white" fill-opacity="0.54"/>
<path d="M24 19H23V25H24V21H25V20H26V19H25V20H24V19Z" fill="white" fill-opacity="0.54"/>
<path d="M23 51H24V52H25V53H24V57H23V51Z" fill="white" fill-opacity="0.54"/>
<path d="M25 52V51H26V52H25Z" fill="white" fill-opacity="0.54"/>
<path d="M28 51H27V57H28V53H29V52H30V51H29V52H28V51Z" fill="white" fill-opacity="0.54"/>
<path d="M53 19H54V20H55V21H54V25H53V19Z" fill="white" fill-opacity="0.54"/>
<path d="M56 20H55V19H56V20Z" fill="white" fill-opacity="0.54"/>
<path fill-rule="evenodd" clip-rule="evenodd" d="M37 19H34V20H33V24H34V25H37V24H38V20H37V19ZM37 20V24H34V20H37Z" fill="white" fill-opacity="0.54"/>
<path d="M40 19H39V23H40V25H41V23H42V21H43V23H44V25H45V23H46V19H45V23H44V21H43V19H42V21H41V23H40V19Z" fill="white" fill-opacity="0.54"/>
<path fill-rule="evenodd" clip-rule="evenodd" d="M51 19H48V20H47V24H48V25H51V24H52V23H51V24H48V22H52V20H51V19ZM51 20V21H48V20H51Z" fill="white" fill-opacity="0.54"/>
<path d="M4 35H1V36H0V40H1V41H4V40H1V36H4V35Z" fill="white" fill-opacity="0.54"/>
<path fill-rule="evenodd" clip-rule="evenodd" d="M9 35H6V36H5V40H6V41H9V40H10V36H9V35ZM9 40H6V36H9V40Z" fill="white" fill-opacity="0.54"/>
<path d="M49 51H52V52H49V51Z" fill="white" fill-opacity="0.54"/>
<path d="M49 56H48V52H49V56Z" fill="white" fill-opacity="0.54"/>
<path d="M52 56V57H49V56H52Z" fill="white" fill-opacity="0.54"/>
<path d="M52 56H53V52H52V56Z" fill="white" fill-opacity="0.54"/>
<path d="M14 35H11V41H12V36H14V41H15V36H17V41H18V36H17V35H15V36H14V35Z" fill="white" fill-opacity="0.54"/>
<path d="M20 35H23V36H20V35Z" fill="white" fill-opacity="0.54"/>
<path d="M20 36V37H23V36H24V38H20V40H19V36H20Z" fill="white" fill-opacity="0.54"/>
<path d="M23 40V41H20V40H23Z" fill="white" fill-opacity="0.54"/>
<path d="M23 40H24V39H23V40Z" fill="white" fill-opacity="0.54"/>
<path d="M26 35H29V36H26V35Z" fill="white" fill-opacity="0.54"/>
<path d="M27 38H25V36H26V37H27V38Z" fill="white" fill-opacity="0.54"/>
<path d="M27 38V39H28V40H25V41H28V40H29V38H27Z" fill="white" fill-opacity="0.54"/>
<path d="M58 51V52H55V57H54V51H58Z" fill="white" fill-opacity="0.54"/>
<path d="M58 52H59V57H58V52Z" fill="white" fill-opacity="0.54"/>
<path d="M76 48H75V57H76V48Z" fill="white" fill-opacity="0.54"/>
<path fill-rule="evenodd" clip-rule="evenodd" d="M68 48H67V57H71V56H72V52H71V51H68V48ZM71 52H68V56H71V52Z" fill="white" fill-opacity="0.54"/>
<path d="M83 51H84V53H83V51Z" fill="white" fill-opacity="0.54"/>
<path d="M85 55H84V53H85V55Z" fill="white" fill-opacity="0.54"/>
<path d="M86 55H85V57H84V59H85V57H86V55Z" fill="white" fill-opacity="0.54"/>
<path d="M87 53V55H86V53H87Z" fill="white" fill-opacity="0.54"/>
<path d="M87 53V51H88V53H87Z" fill="white" fill-opacity="0.54"/>
</g>
<defs>
<clipPath id="clip0_2447_8417">
<rect width="88" height="59" fill="white"/>
</clipPath>
</defs>
</svg>
