<svg width="63" height="35" viewBox="0 0 63 35" fill="none" xmlns="http://www.w3.org/2000/svg">
<g clip-path="url(#clip0_1218_1743)">
<mask id="mask0_1218_1743" style="mask-type:alpha" maskUnits="userSpaceOnUse" x="2" y="28" width="60" height="7">
<rect x="2.5" y="28" width="59" height="7" fill="#D9D9D9"/>
</mask>
<g mask="url(#mask0_1218_1743)">
<path d="M19.8984 34.4V27.9078H3.35156V22.9625C7.73438 15.3453 12.5391 7.56409 17.1328 0.579712H25.6875V22.9156H30.2344V27.9078H25.6875V34.4H19.8984ZM8.97656 23.0563H19.9922V5.40784H19.6406C16.1719 10.7047 12.2578 16.9625 8.97656 22.7047V23.0563ZM52.1484 34.4V27.9078H35.6016V22.9625C39.9844 15.3453 44.7891 7.56409 49.3828 0.579712H57.9375V22.9156H62.4844V27.9078H57.9375V34.4H52.1484ZM41.2266 23.0563H52.2422V5.40784H51.8906C48.4219 10.7047 44.5078 16.9625 41.2266 22.7047V23.0563Z" fill="black" style="mix-blend-mode:overlay"/>
</g>
<mask id="mask1_1218_1743" style="mask-type:alpha" maskUnits="userSpaceOnUse" x="3" y="7" width="60" height="20">
<path fill-rule="evenodd" clip-rule="evenodd" d="M62.5 7H3.5V14H62.5V7ZM62.5 18H3.5V27H62.5V18Z" fill="#D9D9D9"/>
</mask>
<g mask="url(#mask1_1218_1743)">
<path d="M19.8672 34V27.6953H3.34375V22.3047C6.39062 16.7031 11.1484 9.17969 17.125 0.179688H25.6562V22.5859H30.2266V27.6953H25.6562V34H19.8672ZM8.94531 22.375V22.7266H19.9609V5.10156H19.6328C16.3984 9.88281 12.8828 15.4375 8.94531 22.375ZM44.2422 19V14.3125H48.3672C51.8125 14.3125 54.1797 12.2266 54.1797 9.20312C54.1797 6.20312 51.9062 4.25781 48.3672 4.25781C44.875 4.25781 42.5547 6.22656 42.3203 9.41406H36.6719C36.9766 3.20312 41.5234 -0.664062 48.5547 -0.664062C55.1172 -0.664062 60.0156 3.17969 60.0156 8.35938C60.0156 12.3203 57.6484 15.3438 53.8984 16.1406V16.5391C58.5156 17.0781 61.375 20.2188 61.375 24.7188C61.375 30.5312 55.9375 34.8438 48.5781 34.8438C41.2891 34.8438 36.3203 30.8125 36.0156 24.625H41.8047C42.0625 27.7656 44.7344 29.7578 48.625 29.7578C52.4922 29.7578 55.2109 27.5312 55.2109 24.3438C55.2109 21.0391 52.6562 19 48.4844 19H44.2422Z" fill="black" style="mix-blend-mode:overlay"/>
</g>
<mask id="mask2_1218_1743" style="mask-type:alpha" maskUnits="userSpaceOnUse" x="0" y="0" width="60" height="7">
<rect x="0.5" width="59" height="7" fill="#D9D9D9"/>
</mask>
<g mask="url(#mask2_1218_1743)">
<path d="M16.8984 34V27.5078H0.351562V22.5625C4.73438 14.9453 9.53906 7.16406 14.1328 0.179688H22.6875V22.5156H27.2344V27.5078H22.6875V34H16.8984ZM5.97656 22.6562H16.9922V5.00781H16.6406C13.1719 10.3047 9.25781 16.5625 5.97656 22.3047V22.6562ZM49.1484 34V27.5078H32.6016V22.5625C36.9844 14.9453 41.7891 7.16406 46.3828 0.179688H54.9375V22.5156H59.4844V27.5078H54.9375V34H49.1484ZM38.2266 22.6562H49.2422V5.00781H48.8906C45.4219 10.3047 41.5078 16.5625 38.2266 22.3047V22.6562Z" fill="black" style="mix-blend-mode:overlay"/>
</g>
</g>
<defs>
<clipPath id="clip0_1218_1743">
<rect width="62" height="35" fill="white" transform="translate(0.5)"/>
</clipPath>
</defs>
</svg>
