<svg width="90" height="135" viewBox="0 0 90 135" fill="none" xmlns="http://www.w3.org/2000/svg">
<g opacity="0.8">
<path d="M11.52 1.504L12.352 0.863999C13.28 1.552 14.352 2.56 14.864 3.28L13.968 3.984C13.52 3.264 12.448 2.208 11.52 1.504ZM0.736 4.944H15.264V6.032H0.736V4.944ZM1.456 2.176H8.448V3.232H1.456V2.176ZM1.056 7.696H8.816V8.72H1.056V7.696ZM4.4 0.575999H5.536V5.552H4.4V0.575999ZM4.4 6.24H5.536V8.304H4.4V6.24ZM4.64 10.192L5.392 9.536C6.512 10.4 7.952 11.632 8.64 12.432L7.856 13.2C7.184 12.384 5.776 11.104 4.64 10.192ZM7.792 9.04L8.704 9.6C8.144 10.224 7.456 10.864 6.912 11.296L6.144 10.8C6.672 10.336 7.392 9.568 7.792 9.04ZM4.448 8.096L5.488 8.448C4.512 9.952 2.88 11.344 1.392 12.24C1.232 12.016 0.848 11.568 0.608 11.36C2.064 10.608 3.584 9.408 4.448 8.096ZM1.696 13.92C2.816 13.568 4.496 13.008 6.128 12.432L6.304 13.392C4.88 13.92 3.36 14.48 2.16 14.896L1.696 13.92ZM2.736 10.512L3.824 9.872V13.92H2.736V10.512ZM9.264 0.591999H10.48C10.416 8.208 11.712 14.112 13.728 14.112C14.176 14.112 14.352 13.376 14.448 11.456C14.704 11.712 15.136 11.968 15.424 12.08C15.232 14.56 14.8 15.28 13.632 15.28C10.448 15.28 9.328 8.496 9.264 0.591999ZM13.328 6.864L14.432 7.248C13.072 10.608 10.736 13.504 7.808 15.264C7.6 14.96 7.248 14.56 6.928 14.32C9.776 12.768 12.08 9.984 13.328 6.864ZM37.63 2.512C37.63 3.104 38.094 3.568 38.686 3.568C39.262 3.568 39.742 3.104 39.742 2.512C39.742 1.936 39.262 1.456 38.686 1.456C38.094 1.456 37.63 1.936 37.63 2.512ZM36.894 2.512C36.894 1.52 37.694 0.719999 38.686 0.719999C39.678 0.719999 40.478 1.52 40.478 2.512C40.478 3.504 39.678 4.304 38.686 4.304C37.694 4.304 36.894 3.504 36.894 2.512ZM38.286 3.584C38.174 3.808 38.11 4.08 38.046 4.384C37.694 6.064 36.926 8.656 35.646 10.288C34.19 12.176 32.286 13.648 29.358 14.576L28.27 13.376C31.374 12.592 33.166 11.232 34.51 9.52C35.646 8.08 36.382 5.84 36.606 4.304C35.678 4.304 29.342 4.304 28.414 4.304C27.774 4.304 27.23 4.336 26.83 4.368V2.944C27.262 2.992 27.902 3.056 28.43 3.056C29.342 3.056 35.726 3.056 36.446 3.056C36.702 3.056 37.006 3.04 37.31 2.96L38.286 3.584ZM52.156 2.88C53.356 2.944 55.788 2.88 57.532 2.64C58.988 2.448 60.86 2.064 61.644 1.712L62.492 2.832C62.14 2.928 61.836 3.008 61.596 3.072C60.668 3.296 59.18 3.584 57.9 3.76C56.108 4 53.9 4.048 52.476 4.08L52.156 2.88ZM53.052 13.792C55.772 12.512 57.132 10.512 57.132 7.216C57.132 7.216 57.132 5.776 57.132 3.584L58.412 3.408C58.412 4.656 58.412 7.184 58.412 7.184C58.412 10.592 57.292 12.944 54.3 14.656L53.052 13.792ZM50.908 6.688C51.26 6.72 51.82 6.768 52.316 6.768C53.34 6.768 61.852 6.768 62.844 6.768C63.18 6.768 63.772 6.736 64.108 6.704V8.016C63.756 7.984 63.26 7.968 62.86 7.968C61.9 7.968 53.324 7.968 52.332 7.968C51.82 7.968 51.292 7.984 50.908 8.016V6.688ZM77.882 2.288C79.002 3.04 81.066 4.704 81.946 5.584L80.954 6.608C80.138 5.776 78.154 4.048 76.954 3.264L77.882 2.288ZM76.506 13.008C79.29 12.592 81.37 11.616 82.89 10.672C85.37 9.12 87.306 6.752 88.234 4.768L89.002 6.144C87.914 8.128 86.058 10.304 83.642 11.824C82.026 12.832 80.01 13.824 77.338 14.32L76.506 13.008ZM13.408 24.864H14.592V37.696C14.592 38.512 14.384 38.88 13.872 39.072C13.344 39.28 12.448 39.312 10.976 39.296C10.912 38.976 10.72 38.432 10.528 38.08C11.68 38.128 12.672 38.112 12.976 38.096C13.28 38.096 13.408 38 13.408 37.696V24.864ZM1.072 29.728H8.48V30.848H1.072V29.728ZM0.624 33.152H8.88V34.288H0.624V33.152ZM1.088 25.776L2.08 25.472C2.608 26.496 3.104 27.824 3.312 28.688L2.256 29.04C2.08 28.16 1.584 26.8 1.088 25.776ZM4.176 24.576H5.36V39.28H4.176V24.576ZM9.488 26.496H10.656V35.36H9.488V26.496ZM7.52 25.36L8.688 25.664C8.192 26.848 7.6 28.208 7.072 29.088L6.128 28.784C6.624 27.872 7.2 26.384 7.52 25.36ZM26.366 31.072C26.862 31.12 27.694 31.168 28.606 31.168C29.774 31.168 36.19 31.168 37.374 31.168C38.174 31.168 38.734 31.104 39.102 31.072V32.64C38.766 32.624 38.094 32.576 37.39 32.576C36.174 32.576 29.79 32.576 28.606 32.576C27.726 32.576 26.878 32.608 26.366 32.64V31.072ZM58.508 27.088C58.3 28.752 57.98 30.624 57.484 32.336C56.508 35.616 55.228 37.312 53.756 37.312C52.316 37.312 50.892 35.68 50.892 33.024C50.892 29.552 53.98 26.528 57.9 26.528C61.644 26.528 64.028 29.168 64.028 32.416C64.028 35.76 61.82 38 58.012 38.496L57.276 37.312C57.788 37.264 58.268 37.2 58.652 37.12C60.7 36.656 62.716 35.12 62.716 32.352C62.716 29.792 60.94 27.68 57.868 27.68C54.348 27.68 52.156 30.576 52.156 32.928C52.156 34.944 53.068 35.84 53.788 35.84C54.54 35.84 55.404 34.752 56.22 32.048C56.684 30.528 57.02 28.72 57.18 27.056L58.508 27.088ZM83.258 27.088C83.05 28.752 82.73 30.624 82.234 32.336C81.258 35.616 79.978 37.312 78.506 37.312C77.066 37.312 75.642 35.68 75.642 33.024C75.642 29.552 78.73 26.528 82.65 26.528C86.394 26.528 88.778 29.168 88.778 32.416C88.778 35.76 86.57 38 82.762 38.496L82.026 37.312C82.538 37.264 83.018 37.2 83.402 37.12C85.45 36.656 87.466 35.12 87.466 32.352C87.466 29.792 85.69 27.68 82.618 27.68C79.098 27.68 76.906 30.576 76.906 32.928C76.906 34.944 77.818 35.84 78.538 35.84C79.29 35.84 80.154 34.752 80.97 32.048C81.434 30.528 81.77 28.72 81.93 27.056L83.258 27.088ZM7.28 51.2C9.024 51.504 12.272 51.44 13.856 51.2V52.496C12.144 52.688 9.04 52.688 7.296 52.496L7.28 51.2ZM7.904 57.728C7.76 58.304 7.68 58.752 7.68 59.184C7.68 59.92 8.192 60.64 10.384 60.64C11.808 60.64 13.056 60.512 14.336 60.208L14.368 61.552C13.376 61.76 12.032 61.888 10.368 61.888C7.696 61.888 6.496 60.992 6.496 59.488C6.496 58.96 6.576 58.384 6.752 57.616L7.904 57.728ZM4.24 49.968C4.144 50.24 4.016 50.752 3.952 51.04C3.648 52.528 3.152 55.376 3.152 57.184C3.152 57.952 3.2 58.624 3.296 59.408C3.568 58.688 3.936 57.728 4.208 57.072L4.88 57.6C4.48 58.736 3.888 60.416 3.744 61.184C3.696 61.408 3.664 61.712 3.664 61.904C3.68 62.064 3.696 62.288 3.712 62.464L2.576 62.544C2.256 61.408 1.984 59.568 1.984 57.392C1.984 55.04 2.512 52.304 2.704 50.976C2.752 50.608 2.8 50.208 2.816 49.856L4.24 49.968ZM25.454 55.104H40.094V56.416H25.454V55.104ZM50.204 55.104H64.844V56.416H50.204V55.104ZM74.954 55.104H89.594V56.416H74.954V55.104ZM6.992 73.52C6.928 73.824 6.864 74.16 6.8 74.48C6.704 75.056 6.48 76.368 6.272 77.36C5.728 79.6 4.576 83.584 2.768 86.512L1.472 85.984C3.296 83.552 4.576 79.28 5.008 77.312C5.296 76.048 5.52 74.608 5.52 73.376L6.992 73.52ZM12.512 75.232C13.504 76.528 14.896 79.472 15.424 80.96L14.192 81.552C13.712 79.904 12.464 77.072 11.344 75.76L12.512 75.232ZM1.232 77.04C1.744 77.056 2.16 77.056 2.672 77.04C3.856 77.008 7.104 76.64 8.192 76.64C9.616 76.64 10.784 77.184 10.784 79.36C10.784 81.264 10.528 83.808 9.872 85.136C9.36 86.208 8.56 86.464 7.536 86.464C6.912 86.464 6.16 86.352 5.648 86.24L5.44 84.896C6.112 85.104 6.944 85.232 7.392 85.232C7.984 85.232 8.464 85.104 8.8 84.4C9.312 83.328 9.552 81.232 9.552 79.504C9.552 78.048 8.88 77.776 7.856 77.776C6.784 77.776 3.792 78.128 2.816 78.224C2.448 78.272 1.776 78.352 1.376 78.416L1.232 77.04ZM30.702 79.072H39.966V80.224H30.702V79.072ZM31.326 75.2H39.294V76.352H31.326V75.2ZM34.59 72.656H35.79V87.264H34.59V72.656ZM34.334 79.696L35.294 80C34.286 82.624 32.462 85.072 30.494 86.352C30.302 86.064 29.95 85.648 29.662 85.408C31.598 84.32 33.406 82.032 34.334 79.696ZM36.062 79.68C36.91 81.904 38.526 84.208 40.158 85.344C39.87 85.568 39.47 86.016 39.262 86.336C37.63 84.976 36.03 82.448 35.134 80L36.062 79.68ZM26.51 74.032H30.126V83.344H26.51V82.192H29.022V75.184H26.51V74.032ZM25.918 74.032H27.022V84.608H25.918V74.032ZM55.452 79.072H64.716V80.224H55.452V79.072ZM56.076 75.2H64.044V76.352H56.076V75.2ZM59.34 72.656H60.54V87.264H59.34V72.656ZM59.084 79.696L60.044 80C59.036 82.624 57.212 85.072 55.244 86.352C55.052 86.064 54.7 85.648 54.412 85.408C56.348 84.32 58.156 82.032 59.084 79.696ZM60.812 79.68C61.66 81.904 63.276 84.208 64.908 85.344C64.62 85.568 64.22 86.016 64.012 86.336C62.38 84.976 60.78 82.448 59.884 80L60.812 79.68ZM51.26 74.032H54.876V83.344H51.26V82.192H53.772V75.184H51.26V74.032ZM50.668 74.032H51.772V84.608H50.668V74.032ZM80.202 79.072H89.466V80.224H80.202V79.072ZM80.826 75.2H88.794V76.352H80.826V75.2ZM84.09 72.656H85.29V87.264H84.09V72.656ZM83.834 79.696L84.794 80C83.786 82.624 81.962 85.072 79.994 86.352C79.802 86.064 79.45 85.648 79.162 85.408C81.098 84.32 82.906 82.032 83.834 79.696ZM85.562 79.68C86.41 81.904 88.026 84.208 89.658 85.344C89.37 85.568 88.97 86.016 88.762 86.336C87.13 84.976 85.53 82.448 84.634 80L85.562 79.68ZM76.01 74.032H79.626V83.344H76.01V82.192H78.522V75.184H76.01V74.032ZM75.418 74.032H76.522V84.608H75.418V74.032ZM12.176 97.536C12.128 97.792 12.112 98.112 12.112 98.48C12.096 99.072 12.16 101.776 12.16 102.672C12.16 106.336 12.16 108.96 8.768 110.944L7.6 110.048C8.096 109.84 8.752 109.44 9.152 109.04C10.864 107.552 10.944 105.728 10.944 102.656C10.944 101.632 10.88 99.152 10.832 98.48C10.8 98.128 10.736 97.776 10.672 97.536H12.176ZM6.32 100.848C7.024 100.96 8.032 101.024 8.912 101.024C10.88 101.024 13.152 100.896 14.752 100.528V101.824C13.2 102.08 10.96 102.224 8.928 102.224C8.144 102.224 7.024 102.176 6.32 102.112V100.848ZM4.08 97.776C3.984 98.064 3.872 98.512 3.808 98.816C3.296 101.136 2.736 104.64 3.36 107.264C3.568 106.576 3.92 105.6 4.208 104.816L4.896 105.232C4.512 106.336 4.032 107.968 3.856 108.768C3.808 108.992 3.776 109.296 3.792 109.488C3.792 109.648 3.824 109.856 3.84 110.032L2.736 110.16C2.416 109.168 1.904 107.088 1.904 105.088C1.904 102.48 2.32 100.032 2.512 98.688C2.56 98.336 2.576 97.904 2.592 97.616L4.08 97.776ZM31.118 100.544C32.03 100.64 32.894 100.688 33.838 100.688C35.758 100.688 37.726 100.544 39.342 100.208V101.44C37.646 101.728 35.694 101.856 33.822 101.856C32.894 101.856 32.062 101.824 31.134 101.76L31.118 100.544ZM36.718 97.68C36.67 98 36.638 98.336 36.622 98.64C36.59 99.232 36.574 100.368 36.574 101.312C36.574 103.776 36.814 106.272 36.814 107.92C36.814 109.232 36.206 110.512 34.046 110.512C31.902 110.512 30.734 109.648 30.734 108.208C30.734 106.864 31.918 105.808 34.03 105.808C36.718 105.808 38.59 107.168 39.934 108.384L39.246 109.44C37.566 107.872 35.95 106.784 33.918 106.784C32.718 106.784 31.886 107.312 31.886 108.08C31.886 108.912 32.67 109.344 33.838 109.344C35.182 109.344 35.566 108.672 35.566 107.6C35.566 106.448 35.358 103.456 35.358 101.344C35.358 100.24 35.342 99.232 35.342 98.672C35.342 98.384 35.326 97.968 35.278 97.68H36.718ZM28.83 97.792C28.734 98.048 28.606 98.576 28.542 98.864C28.222 100.352 27.742 103.52 27.742 105.312C27.742 106.096 27.79 106.768 27.902 107.552C28.158 106.816 28.558 105.84 28.83 105.184L29.486 105.696C29.086 106.816 28.494 108.448 28.334 109.232C28.286 109.456 28.254 109.776 28.27 109.952C28.286 110.112 28.302 110.352 28.318 110.512L27.182 110.608C26.878 109.456 26.574 107.696 26.574 105.536C26.574 103.184 27.118 100.128 27.31 98.816C27.374 98.432 27.406 98.016 27.422 97.664L28.83 97.792ZM55.868 100.544C56.78 100.64 57.644 100.688 58.588 100.688C60.508 100.688 62.476 100.544 64.092 100.208V101.44C62.396 101.728 60.444 101.856 58.572 101.856C57.644 101.856 56.812 101.824 55.884 101.76L55.868 100.544ZM61.468 97.68C61.42 98 61.388 98.336 61.372 98.64C61.34 99.232 61.324 100.368 61.324 101.312C61.324 103.776 61.564 106.272 61.564 107.92C61.564 109.232 60.956 110.512 58.796 110.512C56.652 110.512 55.484 109.648 55.484 108.208C55.484 106.864 56.668 105.808 58.78 105.808C61.468 105.808 63.34 107.168 64.684 108.384L63.996 109.44C62.316 107.872 60.7 106.784 58.668 106.784C57.468 106.784 56.636 107.312 56.636 108.08C56.636 108.912 57.42 109.344 58.588 109.344C59.932 109.344 60.316 108.672 60.316 107.6C60.316 106.448 60.108 103.456 60.108 101.344C60.108 100.24 60.092 99.232 60.092 98.672C60.092 98.384 60.076 97.968 60.028 97.68H61.468ZM53.58 97.792C53.484 98.048 53.356 98.576 53.292 98.864C52.972 100.352 52.492 103.52 52.492 105.312C52.492 106.096 52.54 106.768 52.652 107.552C52.908 106.816 53.308 105.84 53.58 105.184L54.236 105.696C53.836 106.816 53.244 108.448 53.084 109.232C53.036 109.456 53.004 109.776 53.02 109.952C53.036 110.112 53.052 110.352 53.068 110.512L51.932 110.608C51.628 109.456 51.324 107.696 51.324 105.536C51.324 103.184 51.868 100.128 52.06 98.816C52.124 98.432 52.156 98.016 52.172 97.664L53.58 97.792ZM80.618 100.544C81.53 100.64 82.394 100.688 83.338 100.688C85.258 100.688 87.226 100.544 88.842 100.208V101.44C87.146 101.728 85.194 101.856 83.322 101.856C82.394 101.856 81.562 101.824 80.634 101.76L80.618 100.544ZM86.218 97.68C86.17 98 86.138 98.336 86.122 98.64C86.09 99.232 86.074 100.368 86.074 101.312C86.074 103.776 86.314 106.272 86.314 107.92C86.314 109.232 85.706 110.512 83.546 110.512C81.402 110.512 80.234 109.648 80.234 108.208C80.234 106.864 81.418 105.808 83.53 105.808C86.218 105.808 88.09 107.168 89.434 108.384L88.746 109.44C87.066 107.872 85.45 106.784 83.418 106.784C82.218 106.784 81.386 107.312 81.386 108.08C81.386 108.912 82.17 109.344 83.338 109.344C84.682 109.344 85.066 108.672 85.066 107.6C85.066 106.448 84.858 103.456 84.858 101.344C84.858 100.24 84.842 99.232 84.842 98.672C84.842 98.384 84.826 97.968 84.778 97.68H86.218ZM78.33 97.792C78.234 98.048 78.106 98.576 78.042 98.864C77.722 100.352 77.242 103.52 77.242 105.312C77.242 106.096 77.29 106.768 77.402 107.552C77.658 106.816 78.058 105.84 78.33 105.184L78.986 105.696C78.586 106.816 77.994 108.448 77.834 109.232C77.786 109.456 77.754 109.776 77.77 109.952C77.786 110.112 77.802 110.352 77.818 110.512L76.682 110.608C76.378 109.456 76.074 107.696 76.074 105.536C76.074 103.184 76.618 100.128 76.81 98.816C76.874 98.432 76.906 98.016 76.922 97.664L78.33 97.792ZM8.656 121.44C8.592 121.792 8.544 122.56 8.528 123.04C8.528 123.76 8.528 124.864 8.528 125.968C8.528 127.712 8.784 130.912 8.784 132.32C8.784 133.616 7.984 134.736 5.856 134.736C3.632 134.736 2.016 134.048 2.016 132.224C2.016 130.768 3.264 129.6 6.032 129.6C9.2 129.6 12.048 131.2 13.68 132.688L12.912 133.888C11.312 132.288 8.688 130.72 5.888 130.72C4.224 130.72 3.28 131.28 3.28 132.176C3.28 133.056 4.176 133.552 5.728 133.552C6.896 133.552 7.472 132.992 7.472 131.888C7.472 130.704 7.28 127.6 7.28 125.968C7.28 125.04 7.264 123.728 7.264 123.04C7.248 122.448 7.2 121.744 7.136 121.44H8.656ZM7.824 124.672C8.928 124.672 11.536 124.592 13.264 124.384L13.312 125.584C11.584 125.744 8.976 125.856 7.824 125.856V124.672Z" fill="white" style="mix-blend-mode:exclusion"/>
</g>
</svg>
