<svg width="529" height="528" viewBox="0 0 529 528" fill="none" xmlns="http://www.w3.org/2000/svg">
<path d="M0 0H1V1H0V0Z" fill="#FCFCFD"/>
<path d="M0 48H1V49H0V48Z" fill="#FCFCFD"/>
<path d="M1 96H0V97H1V96Z" fill="#FCFCFD"/>
<path d="M0 144H1V145H0V144Z" fill="#FCFCFD"/>
<path d="M1 240H0V241H1V240Z" fill="#FCFCFD"/>
<path d="M0 288H1V289H0V288Z" fill="#FCFCFD"/>
<path d="M1 336H0V337H1V336Z" fill="#FCFCFD"/>
<path d="M0 384H1V385H0V384Z" fill="#FCFCFD"/>
<path d="M1 432H0V433H1V432Z" fill="#FCFCFD"/>
<path d="M0 480H1V481H0V480Z" fill="#FCFCFD"/>
<path d="M1 527H0V528H1V527Z" fill="#FCFCFD"/>
<path d="M49 0H48V1H49V0Z" fill="#FCFCFD"/>
<path d="M96 0H97V1H96V0Z" fill="#FCFCFD"/>
<path d="M145 0H144V1H145V0Z" fill="#FCFCFD"/>
<path d="M192 0H193V1H192V0Z" fill="#FCFCFD"/>
<path d="M241 0H240V1H241V0Z" fill="#FCFCFD"/>
<path d="M288 0H289V1H288V0Z" fill="#FCFCFD"/>
<path d="M337 0H336V1H337V0Z" fill="#FCFCFD"/>
<path d="M384 0H385V1H384V0Z" fill="#FCFCFD"/>
<path d="M433 0H432V1H433V0Z" fill="#FCFCFD"/>
<path d="M481 0H480V1H481V0Z" fill="#FCFCFD"/>
<path d="M529 0H528V1H529V0Z" fill="#FCFCFD"/>
</svg>
