<svg width="97" height="241" viewBox="0 0 97 241" fill="none" xmlns="http://www.w3.org/2000/svg">
<path d="M0.5 240L0.49999 0M8.5 240L8.49999 0M16.5 240L16.5 0M24.5 240L24.5 0M32.5 240L32.5 0M40.5 240L40.5 0M48.5 240L48.5 0M56.5 240L56.5 0M64.5 240L64.5 0M72.5 240L72.5 0M80.5 240L80.5 0M88.5 240L88.5 0M96.5 240L96.5 0M97 0.5H0M97 8.5H0M97 16.5H0M97 24.5H0M97 32.5H0M97 40.5H0M97 48.5H0M97 56.5H0M97 64.5H0M97 72.5H0M97 80.5H0M97 88.5H0M97 96.5H0M97 104.5H0M97 112.5H0M97 120.5H0M97 128.5H0M97 136.5H0M97 144.5H0M97 152.5H0M97 160.5H0M97 168.5H0M97 176.5H0M97 184.5H0M97 192.5H0M97 200.5H0M97 208.5H0M97 216.5H0M97 224.5H0M97 232.5H0M97 240.5H0" stroke="white" stroke-opacity="0.2"/>
</svg>
