<svg width="529" height="528" viewBox="0 0 529 528" fill="none" xmlns="http://www.w3.org/2000/svg">
<path d="M529 528H528V527H529V528Z" fill="#FCFCFD"/>
<path d="M529 480H528V479H529V480Z" fill="#FCFCFD"/>
<path d="M528 432H529V431H528V432Z" fill="#FCFCFD"/>
<path d="M529 384H528V383H529V384Z" fill="#FCFCFD"/>
<path d="M528 288H529V287H528V288Z" fill="#FCFCFD"/>
<path d="M529 240H528V239H529V240Z" fill="#FCFCFD"/>
<path d="M528 192H529V191H528V192Z" fill="#FCFCFD"/>
<path d="M529 144H528V143H529V144Z" fill="#FCFCFD"/>
<path d="M528 96H529V95H528V96Z" fill="#FCFCFD"/>
<path d="M529 48H528V47H529V48Z" fill="#FCFCFD"/>
<path d="M528 1H529V0H528V1Z" fill="#FCFCFD"/>
<path d="M480 528H481V527H480V528Z" fill="#FCFCFD"/>
<path d="M433 528H432V527H433V528Z" fill="#FCFCFD"/>
<path d="M384 528H385V527H384V528Z" fill="#FCFCFD"/>
<path d="M337 528H336V527H337V528Z" fill="#FCFCFD"/>
<path d="M288 528H289V527H288V528Z" fill="#FCFCFD"/>
<path d="M241 528H240V527H241V528Z" fill="#FCFCFD"/>
<path d="M192 528H193V527H192V528Z" fill="#FCFCFD"/>
<path d="M145 528H144V527H145V528Z" fill="#FCFCFD"/>
<path d="M96 528H97V527H96V528Z" fill="#FCFCFD"/>
<path d="M48 528H49V527H48V528Z" fill="#FCFCFD"/>
<path d="M0 528H1V527H0V528Z" fill="#FCFCFD"/>
</svg>
