<svg width="205" height="99" viewBox="0 0 205 99" fill="none" xmlns="http://www.w3.org/2000/svg">
<g opacity="0.24">
<path d="M17 54H15V87H17V54Z" fill="#1A191F"/>
<path d="M21 54H19V87H21V54Z" fill="#1A191F"/>
<path d="M23 54H29V76H23V54Z" fill="#1A191F"/>
<path d="M35 54H31V76H35V54Z" fill="#1A191F"/>
<path d="M41 54H43V76H41V54Z" fill="#1A191F"/>
<path d="M49 54H47V76H49V54Z" fill="#1A191F"/>
<path d="M51 54H53V76H51V54Z" fill="#1A191F"/>
<path d="M63 54H57V76H63V54Z" fill="#1A191F"/>
<path d="M67 54H69V76H67V54Z" fill="#1A191F"/>
<path d="M77 54H73V76H77V54Z" fill="#1A191F"/>
<path d="M79 54H81V76H79V54Z" fill="#1A191F"/>
<path d="M91 54H85V76H91V54Z" fill="#1A191F"/>
<path d="M95 54H99V76H95V54Z" fill="#1A191F"/>
<path d="M105 54H103V76H105V54Z" fill="#1A191F"/>
<path d="M115 54H117V76H115V54Z" fill="#1A191F"/>
<path d="M127 54H125V76H127V54Z" fill="#1A191F"/>
<path d="M129 54H131V76H129V54Z" fill="#1A191F"/>
<path d="M139 54H137V76H139V54Z" fill="#1A191F"/>
<path d="M151 54H153V76H151V54Z" fill="#1A191F"/>
<path d="M159 54H157V76H159V54Z" fill="#1A191F"/>
<path d="M161 54H163V76H161V54Z" fill="#1A191F"/>
<path d="M175 54H171V76H175V54Z" fill="#1A191F"/>
<path d="M177 54H181V76H177V54Z" fill="#1A191F"/>
<path d="M187 54H185V76H187V54Z" fill="#1A191F"/>
<path d="M199 54H201V87H199V54Z" fill="#1A191F"/>
<path d="M205 54H203V87H205V54Z" fill="#1A191F"/>
<path d="M189 54H195V76H189V54Z" fill="#1A191F"/>
<path d="M149 54H143V76H149V54Z" fill="#1A191F"/>
<path d="M107 54H109V87H107V54Z" fill="#1A191F"/>
<path d="M113 54H111V87H113V54Z" fill="#1A191F"/>
<path d="M3.83789 90.2051C2.29102 90.2051 1.11328 89.291 0.861328 87.9023H2.36719C2.56055 88.541 3.12305 88.9395 3.84961 88.9395C5.08594 88.9395 5.81836 87.7852 5.81836 85.8516C5.81836 85.8516 5.77734 85.8516 5.76562 85.8516C5.75977 85.8516 5.73633 85.8516 5.73633 85.8516H5.71875C5.32031 86.6543 4.51758 87.1172 3.52734 87.1172C1.91602 87.1172 0.744141 85.9336 0.744141 84.3047C0.744141 82.5703 2.04492 81.334 3.88477 81.334C5.12109 81.334 6.09961 81.9199 6.66797 83.0039C7.06055 83.7012 7.26562 84.6035 7.26562 85.6758C7.26562 88.5234 5.98828 90.2051 3.83789 90.2051ZM3.89062 85.916C4.85742 85.916 5.56641 85.2246 5.56641 84.2812C5.56641 83.3262 4.83984 82.5938 3.89648 82.5938C2.95312 82.5938 2.22656 83.3145 2.22656 84.2578C2.22656 85.2246 2.91797 85.916 3.89062 85.916Z" fill="#1A191F"/>
<path d="M31.2539 90L34.9277 82.9102V82.8164H30.5684V81.5449H36.4512V82.834L32.8359 90H31.2539ZM45.4863 90.2109C43.5469 90.2109 42.2109 89.2031 42.2109 87.7383C42.2109 86.666 42.9316 85.8164 44.0391 85.582V85.4824C43.1367 85.2598 42.5508 84.5273 42.5508 83.625C42.5508 82.2891 43.7754 81.334 45.4922 81.334C47.209 81.334 48.4277 82.2891 48.4277 83.625C48.4277 84.5332 47.8535 85.2539 46.9453 85.4824V85.582C48.0469 85.7871 48.7734 86.6426 48.7734 87.7324C48.7734 89.2031 47.4375 90.2109 45.4863 90.2109ZM45.4922 89.0332C46.5117 89.0332 47.209 88.4531 47.209 87.6094C47.209 86.7656 46.5059 86.1855 45.4922 86.1855C44.4727 86.1855 43.7695 86.7656 43.7695 87.6094C43.7695 88.4531 44.4727 89.0332 45.4922 89.0332ZM45.4922 85.0254C46.3477 85.0254 46.9395 84.5156 46.9395 83.7715C46.9395 83.0156 46.3535 82.4941 45.4922 82.4941C44.625 82.4941 44.0391 83.0156 44.0391 83.7715C44.0391 84.5156 44.6309 85.0254 45.4922 85.0254ZM57.9902 90.2109C55.9629 90.2109 54.7617 88.5703 54.7617 85.7637C54.7617 82.9688 55.9805 81.334 57.9902 81.334C59.9941 81.334 61.2129 82.9688 61.2129 85.7754C61.2129 88.5703 60.0117 90.2109 57.9902 90.2109ZM57.9902 88.957C59.0625 88.957 59.6836 87.8438 59.6836 85.7637C59.6836 83.6953 59.0508 82.5938 57.9902 82.5938C56.9297 82.5938 56.291 83.7012 56.291 85.7637C56.291 87.8438 56.918 88.957 57.9902 88.957ZM67.2832 84.0176C67.2832 82.4355 68.4961 81.334 70.2305 81.334C71.9004 81.334 73.1074 82.3535 73.1074 83.7656C73.1074 84.6738 72.6445 85.4238 71.209 86.8418L69.4395 88.6172V88.7168H73.2363V90H67.3652V88.9512L70.1836 86.0684C71.3379 84.8965 71.625 84.457 71.625 83.8594C71.625 83.1152 71.0156 82.5762 70.1836 82.5762C69.2988 82.5762 68.7012 83.1562 68.7012 84.0176V84.041H67.2832V84.0176ZM82.5293 90.2109C80.502 90.2109 79.3008 88.5703 79.3008 85.7637C79.3008 82.9688 80.5195 81.334 82.5293 81.334C84.5332 81.334 85.752 82.9688 85.752 85.7754C85.752 88.5703 84.5508 90.2109 82.5293 90.2109ZM82.5293 88.957C83.6016 88.957 84.2227 87.8438 84.2227 85.7637C84.2227 83.6953 83.5898 82.5938 82.5293 82.5938C81.4688 82.5938 80.8301 83.7012 80.8301 85.7637C80.8301 87.8438 81.457 88.957 82.5293 88.957ZM93.9434 90V83.0684H93.8438L91.7402 84.5449V83.0918L93.9492 81.5449H95.4551V90H93.9434Z" fill="#1A191F"/>
<path d="M123.803 84.0176C123.803 82.4355 125.016 81.334 126.75 81.334C128.42 81.334 129.627 82.3535 129.627 83.7656C129.627 84.6738 129.164 85.4238 127.729 86.8418L125.959 88.6172V88.7168H129.756V90H123.885V88.9512L126.703 86.0684C127.857 84.8965 128.145 84.457 128.145 83.8594C128.145 83.1152 127.535 82.5762 126.703 82.5762C125.818 82.5762 125.221 83.1562 125.221 84.0176V84.041H123.803V84.0176ZM136.312 90L139.986 82.9102V82.8164H135.627V81.5449H141.51V82.834L137.895 90H136.312ZM150.393 90.2051C148.846 90.2051 147.668 89.291 147.416 87.9023H148.922C149.115 88.541 149.678 88.9395 150.404 88.9395C151.641 88.9395 152.373 87.7852 152.373 85.8516C152.373 85.8516 152.332 85.8516 152.32 85.8516C152.314 85.8516 152.291 85.8516 152.291 85.8516H152.273C151.875 86.6543 151.072 87.1172 150.082 87.1172C148.471 87.1172 147.299 85.9336 147.299 84.3047C147.299 82.5703 148.6 81.334 150.439 81.334C151.676 81.334 152.654 81.9199 153.223 83.0039C153.615 83.7012 153.82 84.6035 153.82 85.6758C153.82 88.5234 152.543 90.2051 150.393 90.2051ZM150.445 85.916C151.412 85.916 152.121 85.2246 152.121 84.2812C152.121 83.3262 151.395 82.5938 150.451 82.5938C149.508 82.5938 148.781 83.3145 148.781 84.2578C148.781 85.2246 149.473 85.916 150.445 85.916ZM163.178 90.2051C161.936 90.2051 160.957 89.6191 160.395 88.5352C160.002 87.8438 159.797 86.9414 159.797 85.8633C159.797 83.0215 161.068 81.334 163.225 81.334C164.766 81.334 165.949 82.248 166.201 83.6367H164.689C164.502 82.998 163.939 82.5996 163.213 82.5996C161.977 82.5996 161.244 83.7539 161.244 85.6875H161.344C161.742 84.8848 162.539 84.4219 163.535 84.4219C165.141 84.4219 166.318 85.6113 166.318 87.2344C166.318 88.9746 165.018 90.2051 163.178 90.2051ZM163.16 88.9453C164.109 88.9453 164.836 88.2246 164.836 87.2812C164.836 86.3145 164.139 85.623 163.172 85.623C162.205 85.623 161.496 86.3145 161.496 87.2578C161.496 88.2188 162.217 88.9453 163.16 88.9453ZM172.365 84.0176C172.365 82.4355 173.578 81.334 175.312 81.334C176.982 81.334 178.189 82.3535 178.189 83.7656C178.189 84.6738 177.727 85.4238 176.291 86.8418L174.521 88.6172V88.7168H178.318V90H172.447V88.9512L175.266 86.0684C176.42 84.8965 176.707 84.457 176.707 83.8594C176.707 83.1152 176.098 82.5762 175.266 82.5762C174.381 82.5762 173.783 83.1562 173.783 84.0176V84.041H172.365V84.0176ZM188.309 90V88.4238H184.178V87.0762C184.939 85.6758 186.129 83.7949 187.623 81.5449H189.756V87.1465H190.898V88.4238H189.756V90H188.309ZM185.578 87.0938V87.1816H188.332V82.7754H188.25C187.441 83.9707 186.562 85.3594 185.578 87.0938Z" fill="#1A191F"/>
</g>
</svg>
