<svg width="113" height="127" viewBox="0 0 113 127" fill="none" xmlns="http://www.w3.org/2000/svg">
<g clip-path="url(#clip0_553_15307)">
<path fill-rule="evenodd" clip-rule="evenodd" d="M93.3998 123.87C93.371 122.571 93.2372 121.277 92.9998 120C92.3384 116.399 90.8982 112.986 88.7798 110C87.7798 107.5 86.5298 104.71 85.5898 102.56C88.2198 103.62 93.2698 106.02 93.9998 108.96C94.7298 111.9 93.9298 119.5 93.3998 123.87Z" fill="#BA4836"/>
<path fill-rule="evenodd" clip-rule="evenodd" d="M52.9998 115H44.9998L15.9998 124C14.4171 123.335 12.7167 122.995 10.9998 123C6.9398 123 3.2098 125 0.809803 126.71L0.409803 123.9C0.159803 122.15 2.9998 118 7.4098 116.83C14.8298 114.89 35.9998 106 35.9998 106L43.4898 102.26C43.8307 102.09 44.1896 101.96 44.5598 101.87L48.7898 100.87C50.7898 104.35 53.6698 110.34 52.9998 115Z" fill="#CE6555"/>
<path fill-rule="evenodd" clip-rule="evenodd" d="M19.5001 127L19.2601 126C18.3036 125.161 17.2157 124.486 16.0401 124C14.4574 123.335 12.757 122.995 11.0401 123C6.9801 123 3.2501 125 0.850098 126.71V127H19.5001Z" fill="url(#paint0_linear_553_15307)"/>
<path fill-rule="evenodd" clip-rule="evenodd" d="M53 115C52.689 117.48 51.5469 119.782 49.76 121.53L49 120C49 120 52 116 19 125L19.26 126C18.3035 125.161 17.2157 124.486 16.04 124L45.04 115H53Z" fill="#94392B"/>
<path fill-rule="evenodd" clip-rule="evenodd" d="M53 115C52.689 117.48 51.5469 119.782 49.76 121.53L52.5 127H93C93 127 93.18 125.74 93.4 123.88C93.3717 122.578 93.2379 121.28 93 120C92.3386 116.399 90.8984 112.986 88.78 110C89.23 111.06 89.65 112.07 90 113C92 118 92 120 87 121C82 122 80 122 72 123C64 124 61 121 58 117C55.81 114.08 51.47 105.27 49.31 100.75L48.79 100.87C50.79 104.35 53.67 110.34 53 115Z" fill="#A64030"/>
<path fill-rule="evenodd" clip-rule="evenodd" d="M87.0001 121C82.0001 122 80.0001 122 72.0001 123C64.0001 124 61.0001 121 58.0001 117C55.8101 114.08 51.4701 105.27 49.3101 100.75L61.0001 97H73.0001C73.0001 97 74.8701 101.73 83.1001 102C83.7214 102.011 84.3365 102.126 84.9201 102.34L85.5901 102.61C86.9301 105.68 88.8201 110.05 90.0001 113.01C92.0001 118 92.0001 120 87.0001 121Z" fill="#CE6555"/>
<path fill-rule="evenodd" clip-rule="evenodd" d="M106 42C99.8699 34.6101 104 27.2801 97.9999 23C93.1099 19.52 87.5599 23.37 83.9999 19C82.9099 17.66 81.3899 16.12 81.1599 14.66C81.1388 15.11 81.0853 15.5578 80.9999 16C79.4799 23.82 69.1199 24.51 52.9999 31C28.2299 41 24.3399 43.84 22.9999 46C20.0699 50.71 20.4499 58.84 20.3999 64.8801C22.235 68.8053 24.6448 72.4352 27.5499 75.6501C25.0799 74.6501 23.6899 74.1101 23.4999 74.5C22.8999 75.7701 35.0099 86.5 51.6999 89.08C55.881 89.8952 60.1545 90.1308 64.3999 89.7801C65.3385 91.114 66.57 92.2154 67.9999 93C73.5799 95.91 81.0699 91.8 87.9999 88C89.7399 87.05 109.41 75.82 112 53C112.1 52.09 112.28 50.23 112.31 47.7901C109.92 47 108.43 44.93 106 42Z" fill="url(#paint1_linear_553_15307)"/>
<path fill-rule="evenodd" clip-rule="evenodd" d="M76 85C75.6081 88.5563 74.885 92.0682 73.84 95.49H73.5C69.0345 95.5991 64.5987 94.7358 60.5 92.96V86.5L76 85Z" fill="url(#paint2_linear_553_15307)"/>
<path fill-rule="evenodd" clip-rule="evenodd" d="M76 85C75.6081 88.5563 74.885 92.0682 73.84 95.49H73.5C69.0345 95.5991 64.5987 94.7358 60.5 92.96V86.5L76 85Z" fill="url(#paint3_radial_553_15307)"/>
<path fill-rule="evenodd" clip-rule="evenodd" d="M73.84 95.49C73.72 95.84 73.16 97.69 73 98C71 102 60.5 101.5 60.5 96.5V93C64.5987 94.7758 69.0345 95.6391 73.5 95.53L73.84 95.49Z" fill="url(#paint4_linear_553_15307)"/>
<path fill-rule="evenodd" clip-rule="evenodd" d="M96 57C98.44 50.62 101.33 50 102 50C104 50 106.15 53.6 106 57C105.82 61.06 103 65 95 65C95.63 62.8 94.59 60.68 96 57Z" fill="#C59693"/>
<path fill-rule="evenodd" clip-rule="evenodd" d="M99.9998 54C99.9999 66.8964 92.7036 78.6826 81.1604 84.4331C69.6171 90.1835 55.814 88.9082 45.5198 81.14C41.5198 78.08 36.8698 74.22 34.7198 69.58C32.4953 64.7042 31.8924 59.2437 32.9998 54C36.6798 35.59 47.2198 19 65.9998 19C74.8687 19.0622 83.3459 22.6618 89.5498 29C93.3798 32.83 95.3498 37.56 97.1298 42.78C98.3398 46.3 99.9998 50.09 99.9998 54Z" fill="url(#paint5_radial_553_15307)"/>
<path fill-rule="evenodd" clip-rule="evenodd" d="M60.6798 54.26L59.2998 64.06L61.9998 61L62.4298 54L60.6798 54.26Z" fill="url(#paint6_radial_553_15307)"/>
<path fill-rule="evenodd" clip-rule="evenodd" d="M61.2598 60.82L59.4598 63.22C59.278 63.4625 59.2488 63.7868 59.3843 64.0578C59.5198 64.3288 59.7968 64.5 60.0998 64.5H65.8998C66.2028 64.5 66.4798 64.3288 66.6154 64.0578C66.7509 63.7868 66.7216 63.4625 66.5398 63.22L64.7398 60.82C64.5877 60.6198 64.3512 60.5016 64.0998 60.5H61.8998C61.6484 60.5016 61.4119 60.6198 61.2598 60.82Z" fill="url(#paint7_radial_553_15307)"/>
<path fill-rule="evenodd" clip-rule="evenodd" d="M66 54L66.73 64.06L64 60V53L66 54Z" fill="url(#paint8_radial_553_15307)"/>
<path fill-rule="evenodd" clip-rule="evenodd" d="M61.5801 60.5L62.5001 53.5H64.5001V60.5H61.5801Z" fill="url(#paint9_radial_553_15307)"/>
<path fill-rule="evenodd" clip-rule="evenodd" d="M61.9999 42.0001C70.2999 42.3601 72.2399 35.7501 80.9999 36.0001C86.1399 36.1501 92.8199 38.6401 93.9999 43.0001C95.5299 48.6301 87.7799 56.9001 79.9999 58.0001C73.1199 59.0001 71.2598 53.6301 62.9999 54.0001C54.7399 54.3701 53.4599 59.6501 46.9999 59.0001C39.3399 58.2301 33.3999 49.7801 34.9999 44.0001C36.2799 39.3701 43.9999 38.0001 46.9999 38.0001C54.2599 38.0001 55.1599 41.7001 61.9999 42.0001Z" fill="url(#paint10_radial_553_15307)"/>
<path fill-rule="evenodd" clip-rule="evenodd" d="M69.9999 50C70.1799 52.93 74.3799 55.36 77.9999 55C81.8499 54.62 85.9999 53 84.9999 48C84.2199 44.08 80.6699 43.33 77.9999 44C73.9999 45 69.8099 46.88 69.9999 50Z" fill="url(#paint11_radial_553_15307)"/>
<path fill-rule="evenodd" clip-rule="evenodd" d="M42.9999 49.0001C41.8999 51.6001 43.7599 54.7601 45.9999 56.0001C49.7999 58.0901 55.6599 55.1801 55.9999 52.0001C56.2899 49.3001 52.6399 46.1701 48.9999 46.0001C47.1499 45.9201 43.9999 46.5401 42.9999 49.0001Z" fill="url(#paint12_radial_553_15307)"/>
<ellipse cx="51" cy="51.5" rx="4" ry="4.5" fill="url(#paint13_radial_553_15307)"/>
<circle cx="77.5" cy="50.5" r="4.5" fill="url(#paint14_radial_553_15307)"/>
<circle cx="77.25" cy="50.5" r="2.5" fill="url(#paint15_radial_553_15307)"/>
<circle cx="51.5" cy="51.5" r="2.5" fill="url(#paint16_radial_553_15307)"/>
<circle cx="48.5" cy="48.5" r="1.5" fill="url(#paint17_radial_553_15307)"/>
<circle cx="74.5" cy="47.5" r="1.5" fill="url(#paint18_radial_553_15307)"/>
<path fill-rule="evenodd" clip-rule="evenodd" d="M74.52 67C72.5632 70.7262 68.9236 73.2745 64.7528 73.8385C60.582 74.4026 56.3963 72.9126 53.52 69.84C60.2687 73.4457 68.5593 72.3908 74.19 67.21C74.3043 67.147 74.4145 67.0769 74.52 67V67Z" fill="url(#paint19_radial_553_15307)"/>
<path fill-rule="evenodd" clip-rule="evenodd" d="M74.1803 67.2401C68.5495 72.4209 60.2589 73.4757 53.5103 69.8701C60.4579 72.0554 68.013 71.1023 74.2003 67.2601L74.1803 67.2401Z" fill="url(#paint20_radial_553_15307)"/>
<path opacity="0.12" fill-rule="evenodd" clip-rule="evenodd" d="M97.13 42.73C95.35 37.51 93.38 32.73 89.55 28.95C83.5796 22.8755 75.5114 19.3155 67 19C58.56 21.77 48.12 26.85 42.67 31C41.3827 32.6826 40.226 34.4611 39.21 36.32C41.32 39.58 68.21 35.95 77.63 23.99C81.68 25.93 89.16 30.2 91.23 35.99C92.2731 39.1002 94.4419 41.7078 97.31 43.3C97.26 43.11 97.19 42.92 97.13 42.73Z" fill="black"/>
<path fill-rule="evenodd" clip-rule="evenodd" d="M60.6798 54.26L59.2998 64.06L61.9998 61L62.4298 54L60.6798 54.26Z" fill="#E3BEB6"/>
<path fill-rule="evenodd" clip-rule="evenodd" d="M61.2598 60.82L59.4598 63.22C59.278 63.4625 59.2488 63.7868 59.3843 64.0578C59.5198 64.3288 59.7968 64.5 60.0998 64.5H65.8998C66.2028 64.5 66.4798 64.3288 66.6154 64.0578C66.7509 63.7868 66.7216 63.4625 66.5398 63.22L64.7398 60.82C64.5877 60.6198 64.3512 60.5016 64.0998 60.5H61.8998C61.6484 60.5016 61.4119 60.6198 61.2598 60.82Z" fill="#C59693"/>
<path fill-rule="evenodd" clip-rule="evenodd" d="M66 54L66.73 64.06L64 60V53L66 54Z" fill="#BF9F99"/>
<path fill-rule="evenodd" clip-rule="evenodd" d="M61.5801 60.5L62.5001 53.5H64.5001V60.5H61.5801Z" fill="#FFCFCC"/>
<path fill-rule="evenodd" clip-rule="evenodd" d="M61.9999 42.0001C70.2999 42.3601 72.2399 35.7501 80.9999 36.0001C86.1399 36.1501 92.8199 38.6401 93.9999 43.0001C95.5299 48.6301 87.7799 56.9001 79.9999 58.0001C73.1199 59.0001 71.2598 53.6301 62.9999 54.0001C54.7399 54.3701 53.4599 59.6501 46.9999 59.0001C39.3399 58.2301 33.3999 49.7801 34.9999 44.0001C36.2799 39.3701 43.9999 38.0001 46.9999 38.0001C54.2599 38.0001 55.1599 41.7001 61.9999 42.0001Z" fill="url(#paint21_linear_553_15307)"/>
<path fill-rule="evenodd" clip-rule="evenodd" d="M69.9999 50C70.1799 52.93 74.3799 55.36 77.9999 55C81.8499 54.62 85.9999 53 84.9999 48C84.2199 44.08 80.6699 43.33 77.9999 44C73.9999 45 69.8099 46.88 69.9999 50Z" fill="url(#paint22_radial_553_15307)"/>
<path fill-rule="evenodd" clip-rule="evenodd" d="M42.9999 49.0001C41.8999 51.6001 43.7599 54.7601 45.9999 56.0001C49.7999 58.0901 55.6599 55.1801 55.9999 52.0001C56.2899 49.3001 52.6399 46.1701 48.9999 46.0001C47.1499 45.9201 43.9999 46.5401 42.9999 49.0001Z" fill="url(#paint23_radial_553_15307)"/>
<ellipse cx="51" cy="51.5" rx="4" ry="4.5" fill="url(#paint24_linear_553_15307)"/>
<circle cx="77.5" cy="50.5" r="4.5" fill="url(#paint25_linear_553_15307)"/>
<circle cx="77.25" cy="50.5" r="2.5" fill="black"/>
<circle cx="51.5" cy="51.5" r="2.5" fill="black"/>
<circle cx="48.5" cy="48.5" r="1.5" fill="white"/>
<circle cx="74.5" cy="47.5" r="1.5" fill="white"/>
<path fill-rule="evenodd" clip-rule="evenodd" d="M74.52 67C72.5632 70.7262 68.9236 73.2745 64.7528 73.8385C60.582 74.4026 56.3963 72.9126 53.52 69.84C60.2687 73.4457 68.5593 72.3908 74.19 67.21C74.3043 67.147 74.4145 67.0769 74.52 67V67Z" fill="#8C7373"/>
<path fill-rule="evenodd" clip-rule="evenodd" d="M74.1803 67.2401C68.5495 72.4209 60.2589 73.4757 53.5103 69.8701C60.4579 72.0554 68.013 71.1023 74.2003 67.2601L74.1803 67.2401Z" fill="#784440"/>
<path fill-rule="evenodd" clip-rule="evenodd" d="M25.0001 48C26.3401 45.84 28.2301 44 53.0001 34C69.1201 27.51 79.4801 23.82 81.0001 16C81.0856 15.5578 81.139 15.11 81.1601 14.66C81.377 16.2445 82.0121 17.7425 83.0001 19C86.5601 23.37 92.1101 20.52 97.0001 24C103 28.28 98.8701 35.61 105 43C106.89 45.3066 109.441 46.9784 112.31 47.79C112.4 39.92 110.9 26 100 18C98.7201 17.07 90.2201 10.86 81.8001 12.8L81.5001 12.5C78.6501 9.73005 69.1001 0.440045 55.5001 0.500045C36.6001 0.580045 19.5601 18.66 16.5001 38.5C15.1669 47.4856 16.5239 56.6647 20.4001 64.88C20.3962 58.9432 21.9847 53.114 25.0001 48Z" fill="url(#paint26_radial_553_15307)"/>
<path fill-rule="evenodd" clip-rule="evenodd" d="M75 12C74.82 11.45 62.87 14.37 51 19C44.4632 21.5502 38.1141 24.5576 32 28C44.74 23.83 55.23 20 63 17C70.31 14.2 75.12 12.35 75 12Z" fill="#564343"/>
<path fill-rule="evenodd" clip-rule="evenodd" d="M73.0003 105C67.0803 104.7 60.7103 110.08 61.0003 114C61.3603 118.79 71.5203 122 80.0003 121C84.0003 120.52 91.9303 120 89.9303 115C88.2403 110.77 82.0003 105.46 73.0003 105Z" fill="#8575D7"/>
<path fill-rule="evenodd" clip-rule="evenodd" d="M74.7703 107.73C70.8703 108.05 64.5903 110.53 64.5603 113.23C64.5103 116.82 73.7503 121.75 80.5603 119.71C83.0003 118.98 86.6603 116.38 86.6903 113.88C86.6903 110.98 81.8403 107.14 77.1503 106.75C76.3603 106.68 75.5503 107.67 74.7703 107.73Z" fill="#302827"/>
<ellipse cx="73.4599" cy="107.09" rx="4.54" ry="3.01" fill="#8575D7"/>
<ellipse cx="73.5501" cy="107.25" rx="2.45" ry="1.5" fill="white"/>
<path fill-rule="evenodd" clip-rule="evenodd" d="M86.08 120.51L78.92 110.1L72.5 112.75L76.75 121.92L86.08 120.51Z" fill="#8575D7"/>
<path fill-rule="evenodd" clip-rule="evenodd" d="M100.38 55.88C99.59 54.97 100.86 52.78 102.19 52.62C103.52 52.46 105.08 54.62 104.88 56.56C104.58 59.31 100.67 61.27 100.19 60.25C99.63 59.06 102.3 58.19 102.31 57.06C102.38 56.6033 102.089 56.1689 101.64 56.06C101.16 55.93 100.58 56.12 100.38 55.88Z" fill="#907874"/>
</g>
<defs>
<linearGradient id="paint0_linear_553_15307" x1="7.27094" y1="129.054" x2="9.74418" y2="121.181" gradientUnits="userSpaceOnUse">
<stop/>
<stop offset="0.51" stop-color="#262633"/>
<stop offset="1"/>
</linearGradient>
<linearGradient id="paint1_linear_553_15307" x1="48.9803" y1="58.3752" x2="50.2847" y2="88.5145" gradientUnits="userSpaceOnUse">
<stop offset="0.18" stop-color="#574343"/>
<stop offset="0.55" stop-color="#8E7979"/>
<stop offset="1" stop-color="#574343"/>
</linearGradient>
<linearGradient id="paint2_linear_553_15307" x1="60.5" y1="95.5096" x2="76" y2="95.5096" gradientUnits="userSpaceOnUse">
<stop stop-color="#CD968B"/>
<stop offset="0.51" stop-color="#FFD5CC"/>
<stop offset="1" stop-color="#CD968B"/>
</linearGradient>
<radialGradient id="paint3_radial_553_15307" cx="0" cy="0" r="1" gradientUnits="userSpaceOnUse" gradientTransform="translate(67.6745 86.4702) rotate(-10.23) scale(28.2 19.8124)">
<stop stop-color="#806D66"/>
<stop offset="1" stop-color="#FFD9CC" stop-opacity="0.01"/>
</radialGradient>
<linearGradient id="paint4_linear_553_15307" x1="60.5" y1="100.653" x2="73.84" y2="100.653" gradientUnits="userSpaceOnUse">
<stop stop-color="#1C1717"/>
<stop offset="0.51" stop-color="#554544"/>
<stop offset="1" stop-color="#1C1717"/>
</linearGradient>
<radialGradient id="paint5_radial_553_15307" cx="0" cy="0" r="1" gradientUnits="userSpaceOnUse" gradientTransform="translate(66.2298 53.5) scale(34.13 34.8676)">
<stop stop-color="#FFD5CC"/>
<stop offset="0.87" stop-color="#CD968B"/>
<stop offset="1" stop-color="#D29F95"/>
</radialGradient>
<radialGradient id="paint6_radial_553_15307" cx="0" cy="0" r="1" gradientUnits="userSpaceOnUse" gradientTransform="translate(60.8698 59.03) scale(3.73 11.9884)">
<stop stop-color="#FFD5CC"/>
<stop offset="0.87" stop-color="#CD968B"/>
<stop offset="1" stop-color="#D29F95"/>
</radialGradient>
<radialGradient id="paint7_radial_553_15307" cx="0" cy="0" r="1" gradientUnits="userSpaceOnUse" gradientTransform="translate(62.9998 62.5) scale(2.97 1.6054)">
<stop stop-color="#FFD5CC"/>
<stop offset="0.87" stop-color="#CD968B"/>
<stop offset="1" stop-color="#D29F95"/>
</radialGradient>
<radialGradient id="paint8_radial_553_15307" cx="0" cy="0" r="1" gradientUnits="userSpaceOnUse" gradientTransform="translate(65.37 58.53) scale(4.03 16.3267)">
<stop stop-color="#FFD5CC"/>
<stop offset="0.87" stop-color="#CD968B"/>
<stop offset="1" stop-color="#D29F95"/>
</radialGradient>
<radialGradient id="paint9_radial_553_15307" cx="0" cy="0" r="1" gradientUnits="userSpaceOnUse" gradientTransform="translate(63.0401 57) scale(2.68 6.42466)">
<stop stop-color="#FFD5CC"/>
<stop offset="0.87" stop-color="#CD968B"/>
<stop offset="1" stop-color="#D29F95"/>
</radialGradient>
<radialGradient id="paint10_radial_553_15307" cx="0" cy="0" r="1" gradientUnits="userSpaceOnUse" gradientTransform="translate(64.4699 47.5201) scale(22.55 8.74677)">
<stop stop-color="#FFD5CC"/>
<stop offset="0.87" stop-color="#CD968B"/>
<stop offset="1" stop-color="#D29F95"/>
</radialGradient>
<radialGradient id="paint11_radial_553_15307" cx="0" cy="0" r="1" gradientUnits="userSpaceOnUse" gradientTransform="translate(76.0699 48.28) scale(9.42 6.99387)">
<stop stop-color="#FFD5CC"/>
<stop offset="0.87" stop-color="#CD968B"/>
<stop offset="1" stop-color="#D29F95"/>
</radialGradient>
<radialGradient id="paint12_radial_553_15307" cx="0" cy="0" r="1" gradientUnits="userSpaceOnUse" gradientTransform="translate(48.1799 49.5201) scale(8.41 6.75303)">
<stop stop-color="#FFD5CC"/>
<stop offset="0.87" stop-color="#CD968B"/>
<stop offset="1" stop-color="#D29F95"/>
</radialGradient>
<radialGradient id="paint13_radial_553_15307" cx="0" cy="0" r="1" gradientUnits="userSpaceOnUse" gradientTransform="translate(51 51.5) scale(4.26 4.7925)">
<stop stop-color="#FFD5CC"/>
<stop offset="0.87" stop-color="#CD968B"/>
<stop offset="1" stop-color="#D29F95"/>
</radialGradient>
<radialGradient id="paint14_radial_553_15307" cx="0" cy="0" r="1" gradientUnits="userSpaceOnUse" gradientTransform="translate(77.5 50.5) scale(4.5)">
<stop stop-color="#EDE6DE"/>
<stop offset="0.87" stop-color="#C5AC93"/>
<stop offset="1" stop-color="#CAB49D"/>
</radialGradient>
<radialGradient id="paint15_radial_553_15307" cx="0" cy="0" r="1" gradientUnits="userSpaceOnUse" gradientTransform="translate(77.25 50.5) scale(2.5)">
<stop stop-color="#EDE6DE"/>
<stop offset="0.87" stop-color="#C5AC93"/>
<stop offset="1" stop-color="#CAB49D"/>
</radialGradient>
<radialGradient id="paint16_radial_553_15307" cx="0" cy="0" r="1" gradientUnits="userSpaceOnUse" gradientTransform="translate(51.5 51.5) scale(2.5)">
<stop stop-color="#EDE6DE"/>
<stop offset="0.87" stop-color="#C5AC93"/>
<stop offset="1" stop-color="#CAB49D"/>
</radialGradient>
<radialGradient id="paint17_radial_553_15307" cx="0" cy="0" r="1" gradientUnits="userSpaceOnUse" gradientTransform="translate(48.5 48.5) scale(1.5)">
<stop stop-color="#EDE6DE"/>
<stop offset="0.87" stop-color="#C5AC93"/>
<stop offset="1" stop-color="#CAB49D"/>
</radialGradient>
<radialGradient id="paint18_radial_553_15307" cx="0" cy="0" r="1" gradientUnits="userSpaceOnUse" gradientTransform="translate(74.5 47.5) scale(1.5)">
<stop stop-color="#EDE6DE"/>
<stop offset="0.87" stop-color="#C5AC93"/>
<stop offset="1" stop-color="#CAB49D"/>
</radialGradient>
<radialGradient id="paint19_radial_553_15307" cx="0" cy="0" r="1" gradientUnits="userSpaceOnUse" gradientTransform="translate(64.02 70.52) scale(7.83 2.59356)">
<stop stop-color="#FFD5CC"/>
<stop offset="0.87" stop-color="#CD968B"/>
<stop offset="1" stop-color="#D29F95"/>
</radialGradient>
<radialGradient id="paint20_radial_553_15307" cx="0" cy="0" r="1" gradientUnits="userSpaceOnUse" gradientTransform="translate(63.8303 69.6201) scale(7.51 1.72567)">
<stop stop-color="#FFD5CC"/>
<stop offset="0.87" stop-color="#CD968B"/>
<stop offset="1" stop-color="#D29F95"/>
</radialGradient>
<linearGradient id="paint21_linear_553_15307" x1="94.2082" y1="59.0601" x2="94.2082" y2="35.9901" gradientUnits="userSpaceOnUse">
<stop stop-color="#312A28"/>
<stop offset="1"/>
</linearGradient>
<radialGradient id="paint22_radial_553_15307" cx="0" cy="0" r="1" gradientUnits="userSpaceOnUse" gradientTransform="translate(76.0699 48.28) scale(9.42 6.99387)">
<stop stop-color="white"/>
<stop offset="1" stop-color="#8C7373"/>
</radialGradient>
<radialGradient id="paint23_radial_553_15307" cx="0" cy="0" r="1" gradientUnits="userSpaceOnUse" gradientTransform="translate(48.1799 49.5201) scale(8.41 6.75303)">
<stop stop-color="white"/>
<stop offset="1" stop-color="#8C7373"/>
</radialGradient>
<linearGradient id="paint24_linear_553_15307" x1="55" y1="56" x2="55" y2="47" gradientUnits="userSpaceOnUse">
<stop stop-color="#BF8066"/>
<stop offset="0.09" stop-color="#A26D57"/>
<stop offset="0.25" stop-color="#714C3C"/>
<stop offset="0.41" stop-color="#483127"/>
<stop offset="0.57" stop-color="#291B16"/>
<stop offset="0.73" stop-color="#120C0A"/>
<stop offset="0.87" stop-color="#050302"/>
<stop offset="1"/>
</linearGradient>
<linearGradient id="paint25_linear_553_15307" x1="82" y1="55.08" x2="82" y2="46.08" gradientUnits="userSpaceOnUse">
<stop stop-color="#BF8066"/>
<stop offset="0.09" stop-color="#A26D57"/>
<stop offset="0.25" stop-color="#714C3C"/>
<stop offset="0.41" stop-color="#483127"/>
<stop offset="0.57" stop-color="#291B16"/>
<stop offset="0.73" stop-color="#120C0A"/>
<stop offset="0.87" stop-color="#050302"/>
<stop offset="1"/>
</linearGradient>
<radialGradient id="paint26_radial_553_15307" cx="0" cy="0" r="1" gradientUnits="userSpaceOnUse" gradientTransform="translate(49.1501 19.69) scale(61.55 41.1435)">
<stop stop-color="#8E7979"/>
<stop offset="0.89" stop-color="#735959"/>
</radialGradient>
<clipPath id="clip0_553_15307">
<rect width="113" height="127" fill="white"/>
</clipPath>
</defs>
</svg>
