<svg width="257" height="144" viewBox="0 0 257 144" fill="none" xmlns="http://www.w3.org/2000/svg">
<g clip-path="url(#clip0_553_15309)">
<path fill-rule="evenodd" clip-rule="evenodd" d="M173.37 34.8885C171.068 32.8683 168.58 31.0703 165.94 29.5185C166.18 38.3985 167.07 47.2785 167.63 56.1485C170.714 51.4534 173.19 46.3863 175 41.0685C175.746 38.8681 175.104 36.4349 173.37 34.8885Z" fill="#C7AAA4"/>
<path fill-rule="evenodd" clip-rule="evenodd" d="M113.15 22.5785C111.099 23.3491 109.664 25.2182 109.45 27.3985C108.812 33.425 109.024 39.5111 110.08 45.4785C115.36 36.9085 122.02 29.2785 125.91 19.9985C121.555 20.2475 117.259 21.1163 113.15 22.5785Z" fill="#F5CCC4"/>
<path opacity="0.25" fill-rule="evenodd" clip-rule="evenodd" d="M112.08 28.7685C112.77 26.3785 112.57 24.2285 111.64 23.9585C111.421 23.9079 111.19 23.9476 111 24.0685C110.15 24.9863 109.621 26.1546 109.49 27.3985C109.31 29.1485 109.21 30.8885 109.16 32.6085C110.08 32.8885 111.36 31.1485 112.08 28.7685Z" fill="#C59693"/>
<path fill-rule="evenodd" clip-rule="evenodd" d="M186.48 86.8885L173.08 76.3485L103.08 61.3485L96.46 66.0185C105.55 78.0185 126.23 90.6185 149.62 96.2285C173.31 101.939 186.54 96.7285 186.48 86.8885Z" fill="url(#paint0_radial_553_15309)"/>
<path fill-rule="evenodd" clip-rule="evenodd" d="M42.08 125.799L40.08 143.889H1L9.83 127.389L14.08 110.889C14.768 108.228 16.1242 105.788 18.02 103.799C17.5501 104.31 17.1094 104.848 16.7 105.409C23.61 113.049 35.14 124.739 42.08 125.799Z" fill="#CE6555"/>
<path fill-rule="evenodd" clip-rule="evenodd" d="M118.08 143.889H85.8301C87.5428 138.751 88.7158 133.449 89.3301 128.069C98.3237 134.349 107.962 139.652 118.08 143.889Z" fill="#A64030"/>
<path fill-rule="evenodd" clip-rule="evenodd" d="M256.74 143.889H218.08C218.08 143.889 216.37 118.259 203.92 100.529L209.33 104.769C210.49 105.681 211.751 106.457 213.09 107.079L235.44 115.609C241.743 118.587 246.889 123.56 250.08 129.759L256.74 143.889Z" fill="url(#paint1_radial_553_15309)"/>
<path fill-rule="evenodd" clip-rule="evenodd" d="M218.08 143.889H118.08C107.972 139.65 98.3442 134.347 89.36 128.069C88.7457 133.449 87.5727 138.751 85.86 143.889H40.08L42.08 125.799C35.08 124.739 23.6 113.049 16.73 105.429C17.1394 104.868 17.5801 104.33 18.05 103.819C18.29 103.569 18.54 103.329 18.79 103.089L19.57 102.399C19.8 102.209 20.03 102.029 20.26 101.869C20.4778 101.7 20.7049 101.543 20.94 101.399C21.0947 101.279 21.2585 101.172 21.43 101.079C21.9803 100.737 22.5514 100.429 23.14 100.159L80.29 74.0785L93.97 67.8885L96.5 66.1085C97.06 66.8385 97.67 67.5585 98.29 68.3085C106.81 78.6085 135.81 92.5485 148.49 96.0185L149.66 96.3185C173.31 101.989 186.54 96.7785 186.48 86.8985L203.92 100.579C216.37 118.259 218.08 143.889 218.08 143.889Z" fill="#C64C39"/>
<path fill-rule="evenodd" clip-rule="evenodd" d="M117.08 83.1885C101.08 93.7185 51.43 125.889 43.08 125.889C42.7446 125.888 42.41 125.858 42.08 125.799C35.08 124.739 23.6 113.049 16.73 105.429C17.1394 104.868 17.5801 104.33 18.05 103.819C18.29 103.569 18.54 103.329 18.79 103.089L19.57 102.399C19.8 102.209 20.03 102.029 20.26 101.869C20.4778 101.7 20.7049 101.543 20.94 101.399C21.0947 101.279 21.2585 101.172 21.43 101.079C21.9803 100.737 22.5514 100.429 23.14 100.159L93.97 67.8885L96.5 66.1085C97.06 66.8385 97.65 67.5785 98.29 68.3085C100.767 71.1083 103.495 73.6756 106.44 75.9785C106.85 76.3085 116.44 82.8385 116.91 83.1285L117.08 83.1885Z" fill="#D88579"/>
<path fill-rule="evenodd" clip-rule="evenodd" d="M218 143.7H118C107.892 139.462 98.2642 134.159 89.28 127.88L89 127.7L87 101.7L88.39 100.84L117 83C126.809 88.7238 137.382 93.0267 148.4 95.78L149.57 96.08C173.22 101.75 186.45 96.54 186.39 86.66L203.83 100.34C216.29 118.07 218 143.7 218 143.7Z" fill="#CE6555"/>
<path fill-rule="evenodd" clip-rule="evenodd" d="M89.3298 128.069C88.7155 133.449 87.5425 138.751 85.8298 143.889H82.8298C82.8298 143.889 94.0798 115.889 80.2998 74.0785C84.202 82.6614 86.9492 91.7237 88.4698 101.029C90.0379 109.955 90.3275 119.06 89.3298 128.069Z" fill="#801313"/>
<path fill-rule="evenodd" clip-rule="evenodd" d="M205.18 101.509C205.18 101.509 217.08 123.889 218.08 143.889H220.08C220.08 143.889 217.08 120.889 205.18 101.509Z" fill="#801313"/>
<path fill-rule="evenodd" clip-rule="evenodd" d="M150.66 98.2785C175.33 104.109 188.85 98.4685 188.06 88.0885L183.84 84.7785C182.44 92.9585 170.01 97.1985 148.84 92.5985C126.38 87.7385 106.53 76.2185 97.9001 65.0985L95.6401 66.6985C104.25 79.0885 125.97 92.4585 150.66 98.2785Z" fill="url(#paint2_linear_553_15309)"/>
<path fill-rule="evenodd" clip-rule="evenodd" d="M173.08 74.0385C173.7 82.4485 155.99 84.6785 138.6 80.6385C118.85 76.0585 98.4601 64.3885 103.81 53.4985L115.01 28.0485L124.45 6.59854C125.51 4.19218 127.316 2.19035 129.6 0.888537L153.32 -12.5515C154.885 -13.4362 156.866 -12.9756 157.88 -11.4915C160.54 -7.59146 165.34 -0.371463 166.82 2.87854C168.872 7.60708 170.411 12.5419 171.41 17.5985C171.44 17.784 171.46 17.9709 171.47 18.1585L172.32 47.8485L173.08 74.0385Z" fill="url(#paint3_linear_553_15309)"/>
<g style="mix-blend-mode:multiply" opacity="0.17">
<path fill-rule="evenodd" clip-rule="evenodd" d="M173.08 74.3385C173.27 82.4985 155.77 84.6285 138.59 80.6385C120.02 76.3285 100.89 65.7585 103.11 55.4685C110.23 62.7885 121.6 69.3085 135.2 73.1185C149.41 77.0885 163.08 77.2785 173.08 74.3385Z" fill="#907874"/>
</g>
<path fill-rule="evenodd" clip-rule="evenodd" d="M143.41 33.6685L154.33 35.6685C154.33 35.6685 151.24 29.9385 143.41 33.6685Z" fill="#C59693"/>
<path fill-rule="evenodd" clip-rule="evenodd" d="M151.83 17.2085L143.41 33.6685C143.41 33.6685 150.83 31.4185 154.33 35.6685L156.08 17.8885L151.83 17.2085Z" fill="#FFCFCC"/>
<path opacity="0.56" fill-rule="evenodd" clip-rule="evenodd" d="M152.97 34.4285C153.479 34.7653 153.937 35.1727 154.33 35.6385L155.61 22.6385C154.123 26.4075 153.232 30.3853 152.97 34.4285H152.97Z" fill="#907874"/>
<path opacity="0.5" fill-rule="evenodd" clip-rule="evenodd" d="M143.41 33.6685C145.216 33.1759 147.093 32.9933 148.96 33.1285C149.623 28.9478 150.02 24.7294 150.15 20.4985L143.41 33.6685Z" fill="#C09F98"/>
<path fill-rule="evenodd" clip-rule="evenodd" d="M157.91 37.0185C157.16 37.0247 156.424 37.2208 155.77 37.5885C157.214 38.3611 158.116 39.8658 158.116 41.5035C158.116 43.1413 157.214 44.646 155.77 45.4185C156.426 45.7788 157.161 45.9712 157.91 45.9785C160.395 45.9785 162.41 43.9638 162.41 41.4785C162.41 38.9933 160.395 36.9785 157.91 36.9785V37.0185Z" fill="url(#paint4_radial_553_15309)"/>
<path fill-rule="evenodd" clip-rule="evenodd" d="M137 29.1185C137.514 29.6668 137.885 30.3331 138.08 31.0585C136.526 30.5396 134.813 30.9183 133.623 32.0436C132.433 33.169 131.959 34.8583 132.39 36.4385C131.674 36.2209 131.026 35.8212 130.51 35.2785C128.809 33.4809 128.887 30.6446 130.685 28.9435C132.483 27.2425 135.319 27.3209 137.02 29.1185H137Z" fill="url(#paint5_radial_553_15309)"/>
<path fill-rule="evenodd" clip-rule="evenodd" d="M158.21 40.7785C155.584 41.085 152.928 41.021 150.32 40.5885C141.56 39.2085 134.32 34.5085 133.65 29.8785C133.601 30.1491 133.578 30.4236 133.58 30.6985C133.58 35.5285 140.86 40.5785 149.81 41.9685C152.592 42.4238 155.429 42.4238 158.21 41.9685V40.7785Z" fill="#784440"/>
<path fill-rule="evenodd" clip-rule="evenodd" d="M139.08 5.05854H150.41C151.845 5.05783 153.21 5.67333 154.16 6.74854C156.39 9.26854 159.3 12.7485 163.25 14.1485C167.2 15.5485 172.99 21.3085 172.65 24.4785C172.31 27.6485 171.88 33.6085 171.88 33.6085C172.76 33.6085 156.18 34.5385 155.88 27.4085C155.79 25.4085 156.37 22.8885 154.67 22.0485C153.252 21.5072 151.694 21.4509 150.24 21.8885C148.4 22.5485 147.29 24.5885 145.9 25.9685C143.59 28.2785 133.59 30.0585 125.5 22.7985C124.738 22.118 124.551 20.9999 125.05 20.1085C126.564 17.2557 128.233 14.4882 130.05 11.8185C131.886 9.83202 133.846 7.96488 135.92 6.22854C136.797 5.46948 137.92 5.05385 139.08 5.05854Z" fill="url(#paint6_radial_553_15309)"/>
<path fill-rule="evenodd" clip-rule="evenodd" d="M155.77 23.5285C164.86 22.0785 169.9 25.5785 172.33 28.2385C172.44 26.8885 172.57 25.5385 172.68 24.4885C172.631 23.0146 172.076 21.6024 171.11 20.4885C167.823 18.1842 164.205 16.3937 160.38 15.1785C158.245 17.3839 156.594 20.0097 155.53 22.8885C155.632 23.0928 155.713 23.3074 155.77 23.5285Z" fill="black"/>
<path fill-rule="evenodd" clip-rule="evenodd" d="M148.2 7.00854C146.66 6.60854 139.7 7.13854 137.08 8.13854C134.46 9.13854 127.45 17.2085 127.45 17.2085C127.45 17.2085 136.08 14.1385 139.2 14.1485C141.901 14.0607 144.419 15.5094 145.7 17.8885C146.42 19.2385 145.96 23.4085 145.52 26.2885C145.66 26.1949 145.791 26.0877 145.91 25.9685C147.25 24.6285 148.34 22.6885 150.09 21.9685C150.16 20.3985 150.2 18.8185 150.2 17.2085C150.2 14.1485 150.074 11.1685 149.82 8.26854C149.392 7.72222 148.835 7.28954 148.2 7.00854Z" fill="black"/>
<path fill-rule="evenodd" clip-rule="evenodd" d="M130.46 18.2685C130.73 16.3985 134.71 15.2685 137.83 15.6385C140.95 16.0085 144.55 17.3185 144.2 20.0085C143.82 23.0085 139.99 23.3585 136.7 22.8885C133.57 22.4385 130.18 20.1185 130.46 18.2685Z" fill="url(#paint7_radial_553_15309)"/>
<circle cx="138.08" cy="18.8885" r="3" fill="url(#paint8_radial_553_15309)"/>
<circle cx="138.08" cy="18.8885" r="2" fill="black"/>
<circle cx="137.08" cy="17.8885" r="1" fill="white"/>
<path fill-rule="evenodd" clip-rule="evenodd" d="M158.02 23.4599C159.09 20.6499 162.65 21.5899 164.94 22.4599C167.64 23.4599 170.41 25.2299 170.06 26.7399C169.33 29.8799 165.56 29.5199 162.13 28.2699C159.76 27.4299 157.47 24.9199 158.02 23.4599Z" fill="url(#paint9_radial_553_15309)"/>
<circle cx="162.08" cy="24.8885" r="3" fill="url(#paint10_radial_553_15309)"/>
<circle cx="162.08" cy="24.8885" r="2" fill="black"/>
<circle cx="161.08" cy="23.8885" r="1" fill="white"/>
<path opacity="0.58" fill-rule="evenodd" clip-rule="evenodd" d="M124.45 6.59853L115.29 27.4085C121.8 18.9485 128.69 8.02853 129.6 0.888535C127.315 2.19035 125.51 4.19218 124.45 6.59853Z" fill="#EDC58C"/>
<path fill-rule="evenodd" clip-rule="evenodd" d="M145.67 143.889H201.45C202.742 141.932 203.437 139.643 203.45 137.299C203.71 122.929 181.67 108.839 159.07 106.299C140.48 104.199 127.38 110.819 127.07 120.839C126.77 128.469 133.98 137.419 145.67 143.889Z" fill="#8575D7"/>
<path fill-rule="evenodd" clip-rule="evenodd" d="M156.23 143.889H172.41L172.08 141.889C172.08 141.889 196.08 143.889 196.08 130.889C196.08 120.889 173.08 107.889 166.08 108.889L167.08 114.889C167.08 114.889 137.08 112.889 137.08 123.889C137.08 129.979 145.33 138.809 156.23 143.889Z" fill="#302827"/>
<path fill-rule="evenodd" clip-rule="evenodd" d="M152.08 109.889C151.43 114.189 161.26 121.329 170.08 119.889C172.81 119.439 177.62 117.809 178.08 114.889C178.72 110.819 170.86 104.889 163.08 104.889C158.68 104.889 152.56 106.749 152.08 109.889Z" fill="#8575D7"/>
<path fill-rule="evenodd" clip-rule="evenodd" d="M173.08 114.889C173.58 112.889 169.27 109.619 165.08 108.889C163.38 108.589 159.76 108.369 159.08 109.889C158.26 111.719 161.75 116.039 166.08 116.889C168.96 117.449 172.67 116.579 173.08 114.889Z" fill="white"/>
<path fill-rule="evenodd" clip-rule="evenodd" d="M183.22 143.889L178.08 125.889L161.08 126.889L164.94 143.889H183.22Z" fill="#8575D7"/>
</g>
<defs>
<radialGradient id="paint0_radial_553_15309" cx="0" cy="0" r="1" gradientUnits="userSpaceOnUse" gradientTransform="translate(141.091 77.4596) rotate(25.56) scale(58.03 45.6491)">
<stop stop-color="#CD968B"/>
<stop offset="1" stop-color="#FFD5CC"/>
</radialGradient>
<radialGradient id="paint1_radial_553_15309" cx="0" cy="0" r="1" gradientUnits="userSpaceOnUse" gradientTransform="translate(208.08 103.709) scale(59.02 48.4496)">
<stop stop-color="#CE6757"/>
<stop offset="1" stop-color="#B24534"/>
</radialGradient>
<linearGradient id="paint2_linear_553_15309" x1="95.6401" y1="100.564" x2="188.093" y2="100.564" gradientUnits="userSpaceOnUse">
<stop stop-color="#1C1717"/>
<stop offset="0.51" stop-color="#554544"/>
<stop offset="1" stop-color="#1C1717"/>
</linearGradient>
<linearGradient id="paint3_linear_553_15309" x1="112.697" y1="70.1017" x2="172.034" y2="74.3368" gradientUnits="userSpaceOnUse">
<stop stop-color="#FFD5CC"/>
<stop offset="0.78" stop-color="#CD968B"/>
<stop offset="1" stop-color="#CD968B"/>
</linearGradient>
<radialGradient id="paint4_radial_553_15309" cx="0" cy="0" r="1" gradientUnits="userSpaceOnUse" gradientTransform="translate(157.71 41.4385) scale(4.38 5.93675)">
<stop stop-color="#9C736B"/>
<stop offset="1" stop-color="#CD968B" stop-opacity="0.01"/>
</radialGradient>
<radialGradient id="paint5_radial_553_15309" cx="0" cy="0" r="1" gradientUnits="userSpaceOnUse" gradientTransform="translate(131.763 28.4589) rotate(-133.386) scale(4.39967 4.40195)">
<stop stop-color="#9C736B"/>
<stop offset="1" stop-color="#CC978C" stop-opacity="0.01"/>
</radialGradient>
<radialGradient id="paint6_radial_553_15309" cx="0" cy="0" r="1" gradientUnits="userSpaceOnUse" gradientTransform="translate(148.741 19.3538) scale(24.1138 14.3951)">
<stop stop-color="#544745"/>
<stop offset="0.35" stop-color="#524643"/>
<stop offset="0.54" stop-color="#4A3F3C"/>
<stop offset="0.7" stop-color="#3B3231"/>
<stop offset="0.83" stop-color="#272120"/>
<stop offset="0.95" stop-color="#0E0C0C"/>
<stop offset="1"/>
</radialGradient>
<radialGradient id="paint7_radial_553_15309" cx="0" cy="0" r="1" gradientUnits="userSpaceOnUse" gradientTransform="translate(138 19.9785) scale(10.1879 5.53896)">
<stop stop-color="white"/>
<stop offset="1" stop-color="#8C7373"/>
</radialGradient>
<radialGradient id="paint8_radial_553_15309" cx="0" cy="0" r="1" gradientUnits="userSpaceOnUse" gradientTransform="translate(138.084 18.8885) scale(3.312)">
<stop stop-color="#69B4D9"/>
<stop offset="1" stop-color="#006FA6"/>
</radialGradient>
<radialGradient id="paint9_radial_553_15309" cx="0" cy="0" r="1" gradientUnits="userSpaceOnUse" gradientTransform="translate(162.59 23.9699) scale(9.14 5.71702)">
<stop stop-color="white"/>
<stop offset="1" stop-color="#8C7373"/>
</radialGradient>
<radialGradient id="paint10_radial_553_15309" cx="0" cy="0" r="1" gradientUnits="userSpaceOnUse" gradientTransform="translate(162.08 24.8885) scale(3.312)">
<stop stop-color="#69B4D9"/>
<stop offset="1" stop-color="#006FA6"/>
</radialGradient>
<clipPath id="clip0_553_15309">
<rect width="257" height="144" fill="white"/>
</clipPath>
</defs>
</svg>
