<svg width="122" height="22" viewBox="0 0 122 22" fill="none" xmlns="http://www.w3.org/2000/svg">
<path fill-rule="evenodd" clip-rule="evenodd" d="M108.88 17H113.36V12.59L113.91 11.83L116.64 17H121.81L117.45 9.39L121.57 4H116.57L113.57 8.67H113.36V0H108.88V17ZM66.88 17V1H71.7L75.31 8.65H75.46L79.09 1H83.88V17H79.72V7.8H79.51L76.61 14H74.12L71.19 7.8H71V17H66.88ZM89.31 17.18C88.2064 17.276 87.115 16.8919 86.3147 16.1261C85.5143 15.3602 85.0827 14.2867 85.13 13.18C85.13 10.85 86.75 8.98 89.7 8.98H92.47V8.15C92.4674 7.81336 92.3199 7.49416 92.0653 7.27397C91.8106 7.05378 91.4735 6.95395 91.14 7C90.29 7 89.77 7.32 89.76 8H85.59C85.59 6 86.81 3.82 91.19 3.82C94.35 3.82 96.86 5.01 96.86 8.32V17H92.68V15.51H92.47C91.8579 16.6601 90.6044 17.3186 89.31 17.17V17.18ZM92.4699 11.25V12.92C92.4421 13.2982 92.2631 13.6492 91.9733 13.8938C91.6835 14.1384 91.3074 14.256 90.9299 14.22C90.5778 14.2561 90.2263 14.1459 89.9577 13.9152C89.6892 13.6845 89.5273 13.3536 89.5099 13C89.485 12.0994 90.163 11.3339 91.0599 11.25H92.4699ZM98.88 4H103.35V6H103.57C103.893 4.7441 105.023 3.86462 106.32 3.86C106.748 3.82942 107.177 3.87341 107.59 3.99V7.71C107.094 7.56104 106.577 7.49681 106.06 7.52C104.23 7.52 103.5 8.52 103.5 10.22V17H98.88V4Z" fill="#514B43"/>
<path fill-rule="evenodd" clip-rule="evenodd" d="M4.36 12C4.36 12.84 5.24 13.82 6.87 13.82C8.5 13.82 9.05 13.18 9.05 12.41C9.05 11.64 8.25 11.21 6.77 10.93L4.77 10.55C2.21 10.08 0.3 8.77001 0.3 5.85001C0.3 2.57001 2.96 0.710007 6.84 0.710007C11.18 0.710007 13.28 3.41001 13.29 5.97001H9.06C8.92944 4.8488 7.94686 4.02414 6.82 4.09001C5.5 4.09001 4.88 4.70001 4.88 5.49001C4.88 6.28001 5.66 6.62001 7 6.85001L9.12 7.20001C11.36 7.56001 13.59 8.70001 13.59 11.93C13.59 15.16 11.31 17.26 6.76 17.26C1.61 17.26 0 14.47 0 12H4.36ZM26.86 17H22.54V14.91H22.31C21.8703 16.3442 20.4959 17.2826 19 17.17C16.49 17.17 14.92 15.66 14.92 12.59V4.00001H19.36V11.44C19.36 13.16 20.19 13.5 20.89 13.5C21.59 13.5 22.42 12.87 22.42 11.41V4.00001H26.9L26.86 17ZM33.36 15H33.59C34.1721 16.4013 35.5867 17.2718 37.1 17.16C39.87 17.16 41.63 15.06 41.63 11.16V9.83001C41.63 5.90001 39.86 3.90001 37.1 3.90001C35.5967 3.77913 34.1812 4.62125 33.57 6.00001H33.36V4.00001H28.88V21.18H33.36V15ZM37 11V10C37 8.22001 36.27 7.34001 35.19 7.34001C34.11 7.34001 33.37 8.22001 33.37 10V11C33.37 12.78 34.15 13.67 35.2 13.67C36.25 13.67 37 12.85 37 11ZM43.2 9.81001V10.65L43.17 10.69C43.17 14.88 45.77 17.24 49.43 17.27C53.54 17.27 55.16 14.68 55.23 12.74H51.23C51.19 13.57 50.4 14.05 49.4 14.05C48.8761 14.0634 48.3713 13.8527 48.0123 13.4708C47.6534 13.089 47.4743 12.5721 47.52 12.05V11H55.28V10.2C55.28 6.40001 52.89 3.72001 49.28 3.72001C45.97 3.72001 43.2 5.66001 43.2 9.81001ZM51.05 8.65001C51.1098 8.16569 50.9467 7.6804 50.6065 7.33051C50.2663 6.98062 49.7858 6.8039 49.3 6.85001C48.8149 6.80976 48.3368 6.98575 47.9936 7.3309C47.6503 7.67606 47.477 8.15515 47.52 8.64001L51.05 8.65001ZM61.35 4.00001H56.88V17H61.5V10.22C61.5 8.52001 62.23 7.52001 64.06 7.52001C64.5771 7.49681 65.0943 7.56105 65.59 7.71001V4.00001C65.178 3.88005 64.7483 3.83267 64.32 3.86001C63.0232 3.86462 61.8931 4.7441 61.57 6.00001H61.35V4.00001Z" fill="#918778"/>
</svg>
