<svg width="24" height="24" viewBox="0 0 24 24" fill="none" xmlns="http://www.w3.org/2000/svg">
<rect width="24" height="24" fill="#514B43"/>
<rect x="1" y="1" width="22" height="22" fill="#F6F5F4"/>
<path fill-rule="evenodd" clip-rule="evenodd" d="M5 21H19V22H5V21V21ZM12 19C10.473 19 9.109 17.833 8.192 16H9.299C9.511 16.367 9.75 16.677 10 16.953V6L11 5V17.728C11.321 17.887 11.652 18 12 18C12.348 18 12.679 17.887 13 17.728V5L14 6V16.953C14.25 16.677 14.489 16.367 14.701 16H15.808C14.891 17.833 13.527 19 12 19V19Z" fill="#514B43"/>
<path fill-rule="evenodd" clip-rule="evenodd" d="M5.08205 6.58435C3.52289 6.07561 2.42187 5.97843 0.268929 6.55531C0.238643 6.54264 0.0246868 5.60133 0.00913561 5.58575C2.90711 4.80924 3.99603 5.09239 5.21143 5.31014C6.30052 5.50526 7.49116 5.64786 10.176 4.92846L10.6945 6.86371C9.47669 7.19003 6.64122 7.09309 5.08205 6.58435Z" fill="#514B43"/>
<path fill-rule="evenodd" clip-rule="evenodd" d="M18.6125 6.58435C20.1717 6.07561 21.2727 5.97843 23.4257 6.55531C23.4559 6.54264 23.6699 5.60133 23.6854 5.58575C20.7875 4.80924 19.6985 5.09239 18.4832 5.31014C17.3941 5.50526 16.2034 5.64786 13.5186 4.92846L13 6.86371C14.2179 7.19003 17.0534 7.09309 18.6125 6.58435Z" fill="#514B43"/>
<path fill-rule="evenodd" clip-rule="evenodd" d="M18.5 9C17.672 9 17 8.328 17 7.5C17 6.672 17.672 6 18.5 6C19.328 6 20 6.672 20 7.5C20 8.328 19.328 9 18.5 9V9ZM5.5 9C4.672 9 4 8.328 4 7.5C4 6.672 4.672 6 5.5 6C6.328 6 7 6.672 7 7.5C7 8.328 6.328 9 5.5 9V9Z" fill="#514B43"/>
<path fill-rule="evenodd" clip-rule="evenodd" d="M19 14C16.239 14 14 11.761 14 9C14 6.239 16.239 4 19 4C21.761 4 24 6.239 24 9C24 11.761 21.761 14 19 14V14ZM19 5C16.791 5 15 6.791 15 9C15 11.209 16.791 13 19 13C21.209 13 23 11.209 23 9C23 6.791 21.209 5 19 5V5ZM5 14C2.239 14 0 11.761 0 9C0 6.239 2.239 4 5 4C7.761 4 10 6.239 10 9C10 11.761 7.761 14 5 14V14ZM5 5C2.791 5 1 6.791 1 9C1 11.209 2.791 13 5 13C7.209 13 9 11.209 9 9C9 6.791 7.209 5 5 5V5Z" fill="#514B43"/>
</svg>
