<svg xmlns="http://www.w3.org/2000/svg" width="79" height="15" viewBox="0 0 79 15">
  <g fill="none" fill-rule="evenodd">
    <path fill="#FFF" d="M72.86,12 L70,12 L70,1 L72.86,1 L72.86,7 L73,7 L74.88,4 L78.06,4 L75.44,7.43 L78.25,12.02 L75,12.02 L73.26,9.02 L72.91,9.51 L72.86,12 Z M64,4 L66.85,4 L66.85,5.25 L67,5.25 C67.1939964,4.44628749 67.913206,3.88001327 68.74,3.88 C69.015854,3.86256982 69.2927167,3.88958081 69.56,3.96 L69.56,6.35 C69.2354727,6.25557921 68.8976529,6.21504083 68.56,6.23 C67.39,6.23 66.93,6.87 66.93,7.95 L66.93,12 L64,12 L64,4 Z M58.19,12.12 C57.503058,12.2016569 56.8145794,11.9803865 56.303836,11.5138051 C55.7930925,11.0472236 55.5106306,10.381507 55.53,9.69 C55.53,8.2 56.53,7.25 58.44,7.25 L60.2,7.25 L60.2,6.64 C60.2079285,6.42166659 60.118972,6.21098834 59.9569633,6.06440899 C59.7949545,5.91782964 59.5764536,5.85033213 59.36,5.88 C59.1389069,5.85168548 58.9161409,5.91808893 58.7466349,6.0628356 C58.5771289,6.20758228 58.4766588,6.41720068 58.47,6.64 L55.82,6.64 C55.82,5.37 56.59,3.87 59.39,3.87 C61.39,3.87 63,4.63 63,6.74 L63,12 L60.33,12 L60.33,11.06 L60.2,11.06 C59.8152871,11.7966068 59.0151533,12.2185679 58.19,12.12 Z M60.19,9.42 L60.19,8.68 L59.29,8.68 C58.69,8.68 58.29,8.98 58.29,9.44 C58.2998926,9.66505043 58.4019335,9.87612002 58.5721659,10.0236548 C58.7423983,10.1711895 58.9658283,10.2421947 59.19,10.22 C59.4305768,10.2509346 59.6734552,10.1834533 59.8635932,10.0328489 C60.0537312,9.88224457 60.1750299,9.6612688 60.2,9.42 L60.19,9.42 Z M44,12 L44,2 L47.08,2 L49.38,6.88 L49.48,6.88 L51.78,2 L54.83,2 L54.83,12 L52.18,12 L52.18,6.33 L52,6.33 L50.16,10.33 L48.57,10.33 L46.7,6.33 L46.57,6.33 L46.57,12 L44,12 Z M37,4 L39.86,4 L39.86,5.25 L40,5.25 C40.1972065,4.44835151 40.9144592,3.88361805 41.74,3.88 C42.0158656,3.86186334 42.2928418,3.88888542 42.56,3.96 L42.56,6.35 C42.235811,6.25393187 41.897714,6.21336024 41.56,6.23 C40.4,6.23 39.93,6.88 39.93,7.95 L39.93,12 L37,12 L37,4 Z M28,8.24 L28,7.71 C28,5.57818087 29.7281809,3.85 31.86,3.85 C33.9918191,3.85 35.72,5.57818087 35.72,7.71 L35.72,8.54 L30.77,8.54 L30.77,8.86 C30.7502557,9.19017914 30.8699992,9.51348644 31.1000547,9.75114707 C31.3301102,9.9888077 31.6493535,10.1189992 31.98,10.11 C32.6,10.11 33.11,9.8 33.14,9.27 L35.69,9.27 C35.69,10.51 34.61,12.16 31.99,12.16 C29.67,12.17 28,10.91 28,8.24 Z M33,7.04 C33.0370827,6.72555634 32.9381175,6.4102427 32.728002,6.17338529 C32.5178866,5.93652787 32.216622,5.80067341 31.9,5.8 C31.579502,5.79876434 31.2732881,5.93249838 31.0563737,6.16844037 C30.8394593,6.40438236 30.7318836,6.72073529 30.76,7.04 L33,7.04 Z M22,10.74 L21.86,10.74 L21.86,15 L19,15 L19,4 L21.86,4 L21.86,5.26 L22,5.26 C22.3884213,4.3800345 23.2912614,3.84234305 24.25,3.92 C26,3.92 27.13,5.2 27.13,7.7 L27.13,8.3 C27.13,10.79 26.01,12.09 24.25,12.09 C23.2888104,12.1660359 22.385234,11.6238901 22,10.74 Z M24.17,8.22 L24.17,7.77 C24.17,6.63 23.7,6.07 23.02,6.07 C22.34,6.07 21.86,6.63 21.86,7.77 L21.86,8.22 C21.86,9.36 22.35,9.93 23.02,9.93 C23.69,9.93 24.17,9.37 24.17,8.22 Z M17.82,12 L15.07,12 L15.07,10.68 L14.93,10.68 C14.550168,11.6106692 13.6120958,12.1888776 12.61,12.11 C11.02,12.11 10,11.11 10,9.2 L10,4 L12.84,4 L12.84,8.49 C12.84,9.59 13.46,9.81 13.9,9.81 C14.34,9.81 14.97,9.41 14.97,8.47 L14.97,4 L17.82,4 L17.82,12 Z M3.56,8.93 C3.56,9.46 4.12,10 5.15,10 C6.18,10 6.54,9.59 6.54,9.1 C6.54,8.61 6.03,8.34 5.09,8.16 L3.8,7.92 C2.17,7.62 0.96,6.78 0.96,4.92 C0.96,2.83 2.65,1.65 5.12,1.65 C7.89,1.65 9.22,3.21 9.23,4.84 L6.55,4.84 C6.55,4.36 6.08,3.84 5.12,3.84 C4.16,3.84 3.88,4.23 3.88,4.73 C3.88,5.23 4.38,5.45 5.23,5.59 L6.58,5.82 C8,6.05 9.43,6.77 9.43,8.82 C9.43,10.87 7.97,12.22 5.08,12.22 C1.8,12.22 0.79,10.5 0.78,8.96 L3.56,8.93 Z"/>
    <g fill="#73767A" transform="translate(44)">
      <polygon points="28.86 11 26 11 26 0 28.86 0 28.86 6 29 6 30.88 3 34.06 3 31.44 6.43 34.25 11.02 31 11.02 29.26 8.02 28.91 8.51"/>
      <path d="M20,3 L22.85,3 L22.85,4.25 L23,4.25 C23.1939964,3.44628749 23.913206,2.88001327 24.74,2.88 C25.015854,2.86256982 25.2927167,2.88958081 25.56,2.96 L25.56,5.35 C25.2354727,5.25557921 24.8976529,5.21504083 24.56,5.23 C23.39,5.23 22.93,5.87 22.93,6.95 L22.93,11 L20,11 L20,3 Z"/>
      <path fill-rule="nonzero" d="M14.19,11.12 C13.503058,11.2016569 12.8145794,10.9803865 12.303836,10.5138051 C11.7930925,10.0472236 11.5106306,9.38150702 11.53,8.69 C11.53,7.2 12.53,6.25 14.44,6.25 L16.2,6.25 L16.2,5.64 C16.2079285,5.42166659 16.118972,5.21098834 15.9569633,5.06440899 C15.7949545,4.91782964 15.5764536,4.85033213 15.36,4.88 C15.1389069,4.85168548 14.9161409,4.91808893 14.7466349,5.0628356 C14.5771289,5.20758228 14.4766588,5.41720068 14.47,5.64 L11.82,5.64 C11.82,4.37 12.59,2.87 15.39,2.87 C17.39,2.87 19,3.63 19,5.74 L19,11 L16.33,11 L16.33,10.06 L16.2,10.06 C15.8152871,10.7966068 15.0151533,11.2185679 14.19,11.12 Z M16.19,8.42 L16.19,7.68 L15.29,7.68 C14.69,7.68 14.29,7.98 14.29,8.44 C14.2998926,8.66505043 14.4019335,8.87612002 14.5721659,9.02365475 C14.7423983,9.17118948 14.9658283,9.24219466 15.19,9.22 C15.4305768,9.25093462 15.6734552,9.1834533 15.8635932,9.03284894 C16.0537312,8.88224457 16.1750299,8.6612688 16.2,8.42 L16.19,8.42 Z"/>
      <polygon points="0 11 0 1 3.08 1 5.38 5.88 5.48 5.88 7.78 1 10.83 1 10.83 11 8.18 11 8.18 5.33 8 5.33 6.16 9.33 4.57 9.33 2.7 5.33 2.57 5.33 2.57 11"/>
    </g>
    <g fill="#8D9094">
      <path d="M37,3 L39.86,3 L39.86,4.25 L40,4.25 C40.1972065,3.44835151 40.9144592,2.88361805 41.74,2.88 C42.0158656,2.86186334 42.2928418,2.88888542 42.56,2.96 L42.56,5.35 C42.235811,5.25393187 41.897714,5.21336024 41.56,5.23 C40.4,5.23 39.93,5.88 39.93,6.95 L39.93,11 L37,11 L37,3 Z"/>
      <path fill-rule="nonzero" d="M28 7.24L28 6.71C28 4.57818087 29.7281809 2.85 31.86 2.85 33.9918191 2.85 35.72 4.57818087 35.72 6.71L35.72 7.54 30.77 7.54 30.77 7.86C30.7502557 8.19017914 30.8699992 8.51348644 31.1000547 8.75114707 31.3301102 8.9888077 31.6493535 9.1189992 31.98 9.11 32.6 9.11 33.11 8.8 33.14 8.27L35.69 8.27C35.69 9.51 34.61 11.16 31.99 11.16 29.67 11.17 28 9.91 28 7.24zM33 6.04C33.0370827 5.72555634 32.9381175 5.4102427 32.728002 5.17338529 32.5178866 4.93652787 32.216622 4.80067341 31.9 4.8 31.579502 4.79876434 31.2732881 4.93249838 31.0563737 5.16844037 30.8394593 5.40438236 30.7318836 5.72073529 30.76 6.04L33 6.04zM22 9.74L21.86 9.74 21.86 14 19 14 19 3 21.86 3 21.86 4.26 22 4.26C22.3884213 3.3800345 23.2912614 2.84234305 24.25 2.92 26 2.92 27.13 4.2 27.13 6.7L27.13 7.3C27.13 9.79 26.01 11.09 24.25 11.09 23.2888104 11.1660359 22.385234 10.6238901 22 9.74zM24.17 7.22L24.17 6.77C24.17 5.63 23.7 5.07 23.02 5.07 22.34 5.07 21.86 5.63 21.86 6.77L21.86 7.22C21.86 8.36 22.35 8.93 23.02 8.93 23.69 8.93 24.17 8.37 24.17 7.22z"/>
      <path d="M17.82 11L15.07 11 15.07 9.68 14.93 9.68C14.550168 10.6106692 13.6120958 11.1888776 12.61 11.11 11.02 11.11 10 10.11 10 8.2L10 3 12.84 3 12.84 7.49C12.84 8.59 13.46 8.81 13.9 8.81 14.34 8.81 14.97 8.41 14.97 7.47L14.97 3 17.82 3 17.82 11zM3.56 7.93C3.56 8.46 4.12 9 5.15 9 6.18 9 6.54 8.59 6.54 8.1 6.54 7.61 6.03 7.34 5.09 7.16L3.8 6.92C2.17 6.62.96 5.78.96 3.92.96 1.83 2.65.65 5.12.65 7.89.65 9.22 2.21 9.23 3.84L6.55 3.84C6.55 3.36 6.08 2.84 5.12 2.84 4.16 2.84 3.88 3.23 3.88 3.73 3.88 4.23 4.38 4.45 5.23 4.59L6.58 4.82C8 5.05 9.43 5.77 9.43 7.82 9.43 9.87 7.97 11.22 5.08 11.22 1.8 11.22.79 9.5.78 7.96L3.56 7.93z"/>
    </g>
  </g>
</svg>
