<?xml version="1.0" encoding="UTF-8"?>
<svg width="100px" height="106px" viewBox="0 0 100 106" version="1.1" xmlns="http://www.w3.org/2000/svg" xmlns:xlink="http://www.w3.org/1999/xlink">
    <title>SuperMark: UX/UI design, web development and digital marketing</title>
    <defs>
        <circle id="path-1" cx="40" cy="49" r="32"></circle>
        <path d="M56.031,16.688 L55,28.168 C53.457,27.27 53.089,25.719 53.017,23.885 L53,24 L51.95,20 C51.698,17.753 49.814,16 47.5,16 C45.186,16 43.302,17.753 43.05,20 L42.95,20 C42.965,20.167 43,20.329 43,20.5 C43,23.538 40.538,26 37.5,26 C36.163,26 34.953,25.504 34,24.71 L34,23.944 C34.635,24.594 35.519,25 36.5,25 C38.433,25 40,23.433 40,21.5 C40,20.501 39.571,19.614 38.898,18.98 C34.676,18.903 30.651,18.384 26.953,17.501 C26.97,17.667 27,17.829 27,18 L27,23 C27,25.215 26.786,27.128 25,28.168 L24.002,16.708 C24.001,16.707 24.001,16.707 24,16.707 L24,16 C24,7.163 31.163,0 40,0 C48.837,0 56,7.163 56,16 L56,16.674 L56.031,16.688 L56.031,16.688 Z" id="path-3"></path>
        <mask id="mask-4" maskContentUnits="userSpaceOnUse" maskUnits="objectBoundingBox" x="0" y="0" width="32.031" height="28.168" fill="white">
            <use xlink:href="#path-3"></use>
        </mask>
        <polygon id="path-5" points="59 65 21 65 17 52.176 25 47 25 33 55 33 55 47 63 52.176"></polygon>
        <mask id="mask-6" maskContentUnits="userSpaceOnUse" maskUnits="objectBoundingBox" x="0" y="0" width="46" height="32" fill="white">
            <use xlink:href="#path-5"></use>
        </mask>
        <path d="M23.97,20 L56.261,20 C57.376,20 58.205,20.84175 58.115,21.869875 L57.192,32.362875 C57.112,33.271125 56.21,34 55.177,34 L25.246,34 C24.213,34 23.301,33.271125 23.209,32.362875 L22.142,21.869875 C22.038,20.84175 22.856,20 23.97,20 L23.97,20 Z" id="path-7"></path>
        <mask id="mask-8" maskContentUnits="userSpaceOnUse" maskUnits="objectBoundingBox" x="0" y="0" width="35.9886006" height="14" fill="white">
            <use xlink:href="#path-7"></use>
        </mask>
        <path d="M40,1 C48.284,1 55,7.268 55,15 L55,37 C55,44.732 48.284,55 40,55 C31.716,55 25,44.732 25,37 L25,15 C25,7.268 31.716,1 40,1 L40,1 Z" id="path-9"></path>
        <mask id="mask-10" maskContentUnits="userSpaceOnUse" maskUnits="objectBoundingBox" x="0" y="0" width="30" height="54" fill="white">
            <use xlink:href="#path-9"></use>
        </mask>
    </defs>
    <g id="Export" stroke="none" stroke-width="1" fill="none" fill-rule="evenodd">
        <g id="Logos" transform="translate(-27.000000, -50.000000)">
            <g id="Components-/-Logo-Supermark" transform="translate(37.000000, 60.000000)">
                <circle id="Outline" fill="#1F2226" fill-rule="evenodd" cx="40" cy="49" r="40"></circle>
                <mask id="mask-2" fill="white">
                    <use xlink:href="#path-1"></use>
                </mask>
                <use id="Mask" fill="#FFFFFF" fill-rule="evenodd" xlink:href="#path-1"></use>
                <path d="M40,90 C37.5,90 35.1,89.3 33.1,88 L8,88 L8,66 L7,66 L7,53.4 L17.7,47 L23.1,47 L23.9,46.5 L23.9,34.8 C22.9,34.4 22.2,33.5 22.1,32.5 L21,22 C20.9,21.2 21.2,20.5 21.7,20 C22.2,19.4 23,19.1 23.9,19.1 L23.9,19.1 L23.9,15.1 C23.9,6.8 31.1,0.1 39.9,0.1 C48.7,0.1 55.9,6.8 55.9,15.1 L55.9,19.1 L56.2,19.1 C57,19.1 57.8,19.4 58.4,20 C58.9,20.6 59.2,21.3 59.1,22 L58.2,32.5 C58.1,33.7 57.2,34.6 56,34.9 L56,46.5 L56.8,47 L62.2,47 L72.9,53.4 L72.9,66 L71.9,66 L71.9,88 L46.8,88 C44.9,89.3 42.5,90 40,90 L40,90 Z" id="Outline" fill="#000000" fill-rule="evenodd" mask="url(#mask-2)"></path>
                <rect id="Chest" fill="#797C80" fill-rule="evenodd" mask="url(#mask-2)" x="9" y="65" width="62" height="22"></rect>
                <polygon id="Cloack" fill="#515458" fill-rule="evenodd" mask="url(#mask-2)" points="9 64 9 54.6 18.3 49 61.7 49 71 54.6 71 64"></polygon>
                <use id="Hair-Outline" stroke="#1F2226" mask="url(#mask-4)" stroke-width="4" fill="#292C30" fill-rule="evenodd" xlink:href="#path-3"></use>
                <path d="M40,89 C46.627417,89 52,83.627417 52,77 C52,70.372583 46.627417,65 40,65 C33.372583,65 28,70.372583 28,77 C28,83.627417 33.372583,89 40,89 Z" id="Circle-Small-Outline" fill="#1F2226" fill-rule="evenodd"></path>
                <path d="M40,85 C44.418278,85 48,81.418278 48,77 C48,72.581722 44.418278,69 40,69 C35.581722,69 32,72.581722 32,77 C32,81.418278 35.581722,85 40,85 Z" id="Circle-Small" fill="#F2B200" fill-rule="evenodd"></path>
                <use id="Neck" stroke="#1F2226" mask="url(#mask-6)" stroke-width="2" fill="#FFFFFF" fill-rule="evenodd" xlink:href="#path-5"></use>
                <use id="Ears" stroke="#1F2226" mask="url(#mask-8)" stroke-width="2" fill="#FFFFFF" fill-rule="evenodd" xlink:href="#path-7"></use>
                <use id="Face" stroke="#1F2226" mask="url(#mask-10)" stroke-width="2" fill="#FFFFFF" fill-rule="evenodd" xlink:href="#path-9"></use>
                <path d="M40,59 C41.551,59 42.938,57.662 43.855,56 L44.969,56 C43.89,58.176 42.067,60 40,60 C37.933,60 36.11,58.176 35.031,56 L36.145,56 C37.062,57.662 38.449,59 40,59 L40,59 Z" id="Adam's-apple" fill="#1F2226" fill-rule="evenodd"></path>
                <path d="M54,50 L54,42 L55,42 L55,50 L54,50 Z M25,42 L26,42 L26,50 L25,50 L25,42 Z" id="Neck" fill="#1F2226" fill-rule="evenodd"></path>
                <path d="M43.5,48.5 L36.5,48.5" id="Lip-B" stroke="#1F2226" stroke-width="1" stroke-linecap="square"></path>
                <path d="M46.5,45.5 L33.5,45.5" id="Lip-T" stroke="#1F2226" stroke-width="1" stroke-linecap="square"></path>
                <path d="M44,40 C43.0609871,41.828925 41.6180846,43 40,43 C38.3819154,43 36.9390129,41.828925 36,40 L37.1312705,40 C37.8705827,41.237187 38.8831269,42 40,42 C41.1168731,42 42.1294173,41.237187 42.8687295,40 L44,40 L44,40 Z" id="Nose-B" fill="#1F2226" fill-rule="evenodd"></path>
                <path d="M38,30 L39,29 L39,42 L38,42 L38,30 Z M42,30 L41,29 L41,42 L42,42 L42,30 Z" id="Nose" fill="#1F2226" fill-rule="evenodd"></path>
                <path d="M32.998331,30.5034877 C31.6239621,29.6085424 30.585615,29.229711 28.3567251,29.229711 C28.3307497,29.2096357 28.3677147,28.2450184 28.3567251,28.2259469 C31.3569288,28.2259469 32.3354614,28.7812817 33.4530882,29.3061786 C34.4545669,29.7765263 35.5677317,30.2224337 38.3472672,30.2224337 L38.3472672,32.2259469 C37.0864608,32.2259469 34.3726998,31.3984329 32.998331,30.5034877 Z" id="Eyebrow" fill="#1F2226" fill-rule="evenodd" transform="translate(33.347267, 30.225947) rotate(-15.000000) translate(-33.347267, -30.225947) "></path>
                <path d="M45.998331,30.5034877 C44.6239621,29.6085424 43.585615,29.229711 41.3567251,29.229711 C41.3307497,29.2096357 41.3677147,28.2450184 41.3567251,28.2259469 C44.3569288,28.2259469 45.3354614,28.7812817 46.4530882,29.3061786 C47.4545669,29.7765263 48.5677317,30.2224337 51.3472672,30.2224337 L51.3472672,32.2259469 C50.0864608,32.2259469 47.3726998,31.3984329 45.998331,30.5034877 Z" id="Eyebrow" fill="#1F2226" fill-rule="evenodd" transform="translate(46.347267, 30.225947) scale(-1, 1) rotate(-15.000000) translate(-46.347267, -30.225947) "></path>
                <path d="M46.5,33 C45.672,33 45,32.328 45,31.5 C45,30.672 45.672,30 46.5,30 C47.328,30 48,30.672 48,31.5 C48,32.328 47.328,33 46.5,33 L46.5,33 Z M33.5,33 C32.672,33 32,32.328 32,31.5 C32,30.672 32.672,30 33.5,30 C34.328,30 35,30.672 35,31.5 C35,32.328 34.328,33 33.5,33 L33.5,33 Z" id="Eyes" fill="#1F2226" fill-rule="evenodd"></path>
                <path d="M47,38 C44.239,38 42,35.761 42,33 C42,30.239 44.239,28 47,28 C49.761,28 52,30.239 52,33 C52,35.761 49.761,38 47,38 L47,38 Z M47,29 C44.791,29 43,30.791 43,33 C43,35.209 44.791,37 47,37 C49.209,37 51,35.209 51,33 C51,30.791 49.209,29 47,29 L47,29 Z M33,38 C30.239,38 28,35.761 28,33 C28,30.239 30.239,28 33,28 C35.761,28 38,30.239 38,33 C38,35.761 35.761,38 33,38 L33,38 Z M33,29 C30.791,29 29,30.791 29,33 C29,35.209 30.791,37 33,37 C35.209,37 37,35.209 37,33 C37,30.791 35.209,29 33,29 L33,29 Z" id="Glasses" fill="#1F2226" fill-rule="evenodd"></path>
                <path d="M28.9743416,31.3418861 L26.9743416,25.3418861 L26.8162278,24.8675445 L25.8675445,25.1837722 L26.0256584,25.6581139 L28.0256584,31.6581139 L28.1837722,32.1324555 L29.1324555,31.8162278 L28.9743416,31.3418861 Z M51.0256584,31.3418861 L53.0256584,25.3418861 L53.1837722,24.8675445 L54.1324555,25.1837722 L53.9743416,25.6581139 L51.9743416,31.6581139 L51.8162278,32.1324555 L50.8675445,31.8162278 L51.0256584,31.3418861 Z" id="Spectacle-Bow" fill="#1F2226" fill-rule="evenodd"></path>
                <path d="M56.031,16.688 L55,28.168 C53.457,27.27 53.089,25.719 53.017,23.885 L53,24 L51.95,20 C51.698,17.753 49.814,16 47.5,16 C45.186,16 43.302,17.753 43.05,20 L42.95,20 C42.965,20.167 43,20.329 43,20.5 C43,23.538 40.538,26 37.5,26 C36.163,26 34.953,25.504 34,24.71 L34,23.944 C34.635,24.594 35.519,25 36.5,25 C38.433,25 40,23.433 40,21.5 C40,20.501 39.571,19.614 38.898,18.98 C34.676,18.903 30.651,18.384 26.953,17.501 C26.97,17.667 27,17.829 27,18 L27,23 C27,25.215 26.786,27.128 25,28.168 L24.002,16.708 C24.001,16.707 24.001,16.707 24,16.707 L24,16 C24,7.163 31.163,0 40,0 C48.837,0 56,7.163 56,16 L56,16.674 L56.031,16.688 L56.031,16.688 Z" id="Hair" fill="#1F2226" fill-rule="evenodd"></path>
            </g>
        </g>
    </g>
</svg>
