<svg width="122" height="22" viewBox="0 0 122 22" fill="none" xmlns="http://www.w3.org/2000/svg">
<path fill-rule="evenodd" clip-rule="evenodd" d="M108.88 17H113.36V12.59L113.91 11.83L116.64 17H121.81L117.45 9.39L121.57 4H116.57L113.57 8.67H113.36V0H108.88V17ZM66.8799 17V1H71.6999L75.3099 8.65H75.4599L79.0899 1H83.8799V17H79.7199V7.8H79.5099L76.6099 14H74.1199L71.1899 7.8H70.9999V17H66.8799ZM89.3099 17.18C88.2063 17.276 87.1149 16.8919 86.3145 16.1261C85.5142 15.3602 85.0825 14.2867 85.1299 13.18C85.1299 10.85 86.7499 8.98 89.6999 8.98H92.4699V8.15C92.4673 7.81336 92.3198 7.49416 92.0652 7.27397C91.8105 7.05378 91.4733 6.95395 91.1399 7C90.2899 7 89.7699 7.32 89.7599 8H85.5899C85.5899 6 86.8099 3.82 91.1899 3.82C94.3499 3.82 96.8599 5.01 96.8599 8.32V17H92.6799V15.51H92.4699C91.8578 16.6601 90.6042 17.3186 89.3099 17.17V17.18ZM92.4698 11.25V12.92C92.442 13.2982 92.2629 13.6492 91.9732 13.8938C91.6834 14.1384 91.3073 14.256 90.9298 14.22C90.5777 14.2561 90.2261 14.1459 89.9576 13.9152C89.6891 13.6845 89.5272 13.3536 89.5098 13C89.4848 12.0994 90.1628 11.3339 91.0598 11.25H92.4698ZM98.8799 4H103.35V6H103.57C103.893 4.7441 105.023 3.86462 106.32 3.86C106.748 3.82942 107.177 3.87341 107.59 3.99V7.71C107.094 7.56104 106.577 7.49681 106.06 7.52C104.23 7.52 103.5 8.52 103.5 10.22V17H98.8799V4Z" fill="#514B43"/>
<path fill-rule="evenodd" clip-rule="evenodd" d="M4.36 12C4.36 12.84 5.24 13.82 6.87 13.82C8.5 13.82 9.05 13.18 9.05 12.41C9.05 11.64 8.25 11.21 6.77 10.93L4.77 10.55C2.21 10.08 0.3 8.76999 0.3 5.84999C0.3 2.56999 2.96 0.709991 6.84 0.709991C11.18 0.709991 13.28 3.40999 13.29 5.96999H9.06C8.92944 4.84878 7.94686 4.02412 6.82 4.08999C5.5 4.08999 4.88 4.69999 4.88 5.48999C4.88 6.27999 5.66 6.61999 7 6.84999L9.12 7.19999C11.36 7.55999 13.59 8.69999 13.59 11.93C13.59 15.16 11.31 17.26 6.76 17.26C1.61 17.26 0 14.47 0 12H4.36ZM26.86 17H22.54V14.91H22.31C21.8703 16.3442 20.4959 17.2826 19 17.17C16.49 17.17 14.92 15.66 14.92 12.59V3.99999H19.36V11.44C19.36 13.16 20.19 13.5 20.89 13.5C21.59 13.5 22.42 12.87 22.42 11.41V3.99999H26.9L26.86 17ZM33.36 15H33.59C34.1721 16.4013 35.5867 17.2718 37.1 17.16C39.87 17.16 41.63 15.06 41.63 11.16V9.82999C41.63 5.89999 39.86 3.89999 37.1 3.89999C35.5967 3.77911 34.1812 4.62124 33.57 5.99999H33.36V3.99999H28.88V21.18H33.36V15ZM37 11V9.99999C37 8.21999 36.27 7.33999 35.19 7.33999C34.11 7.33999 33.37 8.21999 33.37 9.99999V11C33.37 12.78 34.15 13.67 35.2 13.67C36.25 13.67 37 12.85 37 11ZM43.2 9.80999V10.65L43.17 10.69C43.17 14.88 45.77 17.24 49.43 17.27C53.54 17.27 55.16 14.68 55.23 12.74H51.23C51.19 13.57 50.4 14.05 49.4 14.05C48.8761 14.0634 48.3713 13.8527 48.0123 13.4708C47.6534 13.0889 47.4743 12.5721 47.52 12.05V11H55.28V10.2C55.28 6.39999 52.89 3.71999 49.28 3.71999C45.97 3.71999 43.2 5.65999 43.2 9.80999ZM51.05 8.64999C51.1098 8.16567 50.9467 7.68038 50.6065 7.33049C50.2663 6.9806 49.7858 6.80388 49.3 6.84999C48.8149 6.80974 48.3368 6.98573 47.9936 7.33089C47.6503 7.67604 47.477 8.15513 47.52 8.63999L51.05 8.64999ZM61.35 3.99999H56.88V17H61.5V10.22C61.5 8.51999 62.23 7.51999 64.06 7.51999C64.5771 7.4968 65.0943 7.56103 65.59 7.70999V3.99999C65.178 3.88003 64.7483 3.83266 64.32 3.85999C63.0232 3.86461 61.8931 4.74409 61.57 5.99999H61.35V3.99999Z" fill="#918778"/>
</svg>
