<svg width="100" height="106" viewBox="0 0 100 106" fill="none" xmlns="http://www.w3.org/2000/svg">
<circle cx="50" cy="58" r="40" fill="#514B43"/>
<circle cx="50" cy="58" r="32" fill="#F6F5F4"/>
<mask id="mask0_560_6199" style="mask-type:luminance" maskUnits="userSpaceOnUse" x="18" y="26" width="64" height="64">
<circle cx="50" cy="58" r="32" fill="white"/>
</mask>
<g mask="url(#mask0_560_6199)">
<path fill-rule="evenodd" clip-rule="evenodd" d="M50 100C47.532 100 45.143 99.31 43.068 98H18V80H17V63.434L27.723 57H33.159L34 56.456V44.751C33.022 44.342 32.316 43.476 32.214 42.463L31.147 31.971C31.07 31.212 31.307 30.486 31.814 29.926C32.179 29.521 32.666 29.235 33.206 29.096L33.085 27.707H33V26C33 16.626 40.626 9 50 9C59.374 9 67 16.626 67 26V26.029L67.06 26.056L67.027 26.777L66.822 29.051C67.443 29.166 68.008 29.469 68.423 29.921C68.933 30.478 69.178 31.201 69.111 31.957L68.189 42.45C68.087 43.603 67.204 44.531 66 44.866V56.456L66.841 57H72.277L83 63.434V80H82V98H56.932C54.857 99.31 52.468 100 50 100V100Z" fill="#514B43"/>
<rect x="19" y="75" width="62" height="22" fill="#918778"/>
<path fill-rule="evenodd" clip-rule="evenodd" d="M82 75H18V64L28 58H72L82 64V75V75V75Z" fill="#514B43"/>
<path fill-rule="evenodd" clip-rule="evenodd" d="M19 74V64.6L28.3 59H71.7L81 64.6V74H19Z" fill="#796F63"/>
</g>
<path d="M64.0162 33.8458L63.6605 33.8266L63.9672 33.7461L62.9348 29.8129C62.5941 27.11 60.3109 25 57.5 25C54.978 25 52.8808 26.6986 52.2303 29H51.8562L51.954 30.0895C51.9617 30.1751 51.9747 30.2713 51.9831 30.3337C51.9854 30.3505 51.9873 30.3648 51.9888 30.3759C51.9979 30.447 52 30.4796 52 30.5C52 31.9983 51.2681 33.3254 50.1423 34.1432C50.6818 33.4011 51 32.4877 51 31.5C51 30.2044 50.4415 29.0602 49.5837 28.2521L49.3025 27.9872L48.9162 27.9802C44.7638 27.9044 40.8107 27.394 37.1852 26.5283L35.8146 26.2011L35.9582 27.6029C35.9706 27.7237 35.9802 27.7947 35.987 27.8455C35.9957 27.9094 36 27.9412 36 28V33C36 34.0221 35.947 34.8525 35.7734 35.5226L35 26.6416V26C35 17.7153 41.7153 11 50 11C58.2847 11 65 17.7153 65 26V26.674V26.9884L64.2319 35.5405C64.1063 35.0635 64.042 34.5029 64.0162 33.8458Z" fill="#514B43" stroke="#514B43" stroke-width="2"/>
<circle cx="50" cy="86" r="12" fill="#514B43"/>
<circle cx="50" cy="86" r="8" fill="#FF9500"/>
<path fill-rule="evenodd" clip-rule="evenodd" d="M69 75H31L27 62.2L35 57V43H65V57L73 62.2L69 75V75V75Z" fill="#514B43"/>
<path fill-rule="evenodd" clip-rule="evenodd" d="M31.7 74L28.2 62.6L36 57.5V44H64V57.5L71.7999 62.6L68.2999 74H31.7Z" fill="#F6F5F4"/>
<path d="M33.7064 42.3125L33.7064 42.3123L32.6394 31.8196C32.6394 31.8195 32.6394 31.8195 32.6394 31.8195C32.569 31.123 33.1135 30.5 33.97 30.5H66.261C67.1211 30.5 67.6781 31.1274 67.6169 31.8263L66.6939 42.319C66.6939 42.319 66.6939 42.319 66.6939 42.3191C66.6412 42.9169 66.0068 43.5 65.177 43.5H35.246C34.4151 43.5 33.7674 42.9146 33.7064 42.3125Z" fill="#F6F5F4" stroke="#514B43"/>
<path d="M50 11.5C58.0409 11.5 64.5 17.5761 64.5 25V47C64.5 50.7375 62.8695 55.133 60.21 58.5949C57.5482 62.0598 53.9288 64.5 50 64.5C46.0712 64.5 42.4518 62.0598 39.79 58.5949C37.1305 55.133 35.5 50.7375 35.5 47V25C35.5 17.5761 41.9591 11.5 50 11.5Z" fill="#F6F5F4" stroke="#514B43"/>
<path fill-rule="evenodd" clip-rule="evenodd" d="M64 60V52H65V60H64V60ZM43 55H57V56H43V55V55ZM50 53C48.473 53 47.109 51.833 46.192 50H47.299C47.511 50.367 47.75 50.677 48 50.953V40L49 39V51.728C49.321 51.887 49.652 52 50 52C50.348 52 50.679 51.887 51 51.728V39L52 40V50.953C52.25 50.677 52.489 50.367 52.701 50H53.808C52.891 51.833 51.527 53 50 53V53ZM35 52H36V60H35V52V52ZM46 58H54V59H46V58V58ZM50 69C51.551 69 52.938 67.662 53.855 66H54.969C53.89 68.176 52.067 70 50 70C47.933 70 46.11 68.176 45.031 66H46.145C47.062 67.662 48.449 69 50 69V69Z" fill="#514B43"/>
<path fill-rule="evenodd" clip-rule="evenodd" d="M43.0821 40.5843C41.5229 40.0756 40.4219 39.9784 38.2689 40.5553C38.2386 40.5426 38.0247 39.6013 38.0091 39.5857C40.9071 38.8092 41.996 39.0924 43.2114 39.3101C44.3005 39.5053 45.4912 39.6479 48.176 38.9285L48.6945 40.8637C47.4767 41.19 44.6412 41.0931 43.0821 40.5843Z" fill="#514B43"/>
<path fill-rule="evenodd" clip-rule="evenodd" d="M56.6125 40.5843C58.1717 40.0756 59.2727 39.9784 61.4257 40.5553C61.4559 40.5426 61.6699 39.6013 61.6854 39.5857C58.7875 38.8092 57.6985 39.0924 56.4832 39.3101C55.3941 39.5053 54.2034 39.6479 51.5186 38.9285L51 40.8637C52.2179 41.19 55.0534 41.0931 56.6125 40.5843Z" fill="#514B43"/>
<path fill-rule="evenodd" clip-rule="evenodd" d="M56.5 43C55.672 43 55 42.328 55 41.5C55 40.672 55.672 40 56.5 40C57.328 40 58 40.672 58 41.5C58 42.328 57.328 43 56.5 43V43ZM43.5 43C42.672 43 42 42.328 42 41.5C42 40.672 42.672 40 43.5 40C44.328 40 45 40.672 45 41.5C45 42.328 44.328 43 43.5 43V43Z" fill="#514B43"/>
<path fill-rule="evenodd" clip-rule="evenodd" d="M57 48C54.239 48 52 45.761 52 43C52 40.239 54.239 38 57 38C59.761 38 62 40.239 62 43C62 45.761 59.761 48 57 48V48ZM57 39C54.791 39 53 40.791 53 43C53 45.209 54.791 47 57 47C59.209 47 61 45.209 61 43C61 40.791 59.209 39 57 39V39ZM43 48C40.239 48 38 45.761 38 43C38 40.239 40.239 38 43 38C45.761 38 48 40.239 48 43C48 45.761 45.761 48 43 48V48ZM43 39C40.791 39 39 40.791 39 43C39 45.209 40.791 47 43 47C45.209 47 47 45.209 47 43C47 40.791 45.209 39 43 39V39Z" fill="#514B43"/>
<path fill-rule="evenodd" clip-rule="evenodd" d="M36.9742 35.3419L38.9742 41.3419L39.1323 41.8162L38.1837 42.1325L38.0255 41.6581L36.0255 35.6581L35.8674 35.1838L36.8161 34.8676L36.9742 35.3419ZM63.0255 35.3419L61.0255 41.3419L60.8674 41.8162L61.8161 42.1325L61.9742 41.6581L63.9742 35.6581L64.1323 35.1838L63.1837 34.8676L63.0255 35.3419Z" fill="#514B43"/>
<path fill-rule="evenodd" clip-rule="evenodd" d="M66.031 26.688L65 38.168C63.457 37.27 63.089 35.719 63.017 33.885L63 34L61.95 30C61.698 27.753 59.814 26 57.5 26C55.186 26 53.302 27.753 53.05 30H52.95C52.965 30.167 53 30.329 53 30.5C53 33.538 50.538 36 47.5 36C46.163 36 44.953 35.504 44 34.71V33.944C44.635 34.594 45.519 35 46.5 35C48.433 35 50 33.433 50 31.5C50 30.501 49.571 29.614 48.898 28.98C44.676 28.903 40.651 28.384 36.953 27.501C36.97 27.667 37 27.829 37 28V33C37 35.215 36.786 37.128 35 38.168L34.002 26.708C34.001 26.707 34.001 26.707 34 26.707V26C34 17.163 41.163 10 50 10C58.837 10 66 17.163 66 26V26.674L66.031 26.688V26.688Z" fill="#514B43"/>
</svg>
