<?xml version="1.0" encoding="UTF-8" standalone="no"?>
<svg width="24px" height="24px" viewBox="0 0 24 24" version="1.1" xmlns="http://www.w3.org/2000/svg" xmlns:xlink="http://www.w3.org/1999/xlink">
    <!-- Generator: Sketch 3.8.1 (29687) - http://www.bohemiancoding.com/sketch -->
    <title>supermark-logo-mark-xs</title>
    <desc>Created with Sketch.</desc>
    <defs></defs>
    <g id="Export" stroke="none" stroke-width="1" fill="none" fill-rule="evenodd">
        <g id="Logos-+-Bg" transform="translate(-159.000000, -17.000000)">
            <g id="Components-/-Logo-Mobile" transform="translate(159.000000, 17.000000)">
                <path d="M137.334,22.011 C136.723,21.114 136.07,20.154 135.374,19.13 C134.678,18.106 133.954,17.109 133.204,16.141 L132.242,17.053 L132.242,19.842 C132.242,20.128 132.293,20.364 132.394,20.551 C132.496,20.738 132.66,20.875 132.886,20.962 C133.074,21.042 133.253,21.101 133.425,21.141 C133.597,21.181 133.796,21.208 134.023,21.224 L134.023,22.011 L128.363,22.011 L128.363,21.224 C128.541,21.208 128.727,21.191 128.922,21.171 C129.115,21.151 129.278,21.121 129.41,21.081 C129.628,21.01 129.79,20.884 129.899,20.705 C130.008,20.527 130.062,20.294 130.062,20.008 L130.062,6.778 C130.062,6.484 130.002,6.207 129.88,5.949 C129.759,5.691 129.601,5.494 129.406,5.359 C129.242,5.232 128.986,5.148 128.638,5.108 C128.291,5.068 128.011,5.041 127.8,5.025 L127.8,4.262 L132.078,4 L132.242,4.179 L132.242,16.173 C132.852,15.554 133.51,14.889 134.218,14.178 C134.925,13.467 135.521,12.834 136.006,12.278 C136.069,12.206 136.137,12.113 136.211,11.997 C136.285,11.882 136.322,11.788 136.322,11.716 C136.322,11.501 136.153,11.342 135.813,11.238 C135.473,11.134 135.147,11.063 134.834,11.023 L134.834,10.26 L139.918,10.26 L139.918,10.999 C139.261,11.198 138.681,11.446 138.177,11.744 C137.673,12.042 137.289,12.31 137.023,12.548 C136.836,12.707 136.57,12.965 136.225,13.322 C135.881,13.679 135.4,14.147 134.782,14.726 C135.423,15.529 136.144,16.491 136.946,17.611 C137.747,18.733 138.331,19.543 138.698,20.044 C139.042,20.513 139.351,20.819 139.625,20.962 C139.898,21.105 140.296,21.193 140.82,21.224 L140.82,22.011 L137.334,22.011 L137.334,22.011 Z M128.772,10.463 C129.081,10.788 129.235,11.225 129.235,11.774 C129.235,12.179 129.137,12.538 128.942,12.852 C128.747,13.166 128.446,13.323 128.04,13.323 C127.602,13.323 127.268,13.208 127.038,12.977 C126.807,12.747 126.692,12.493 126.692,12.214 C126.692,12.04 126.706,11.881 126.733,11.738 C126.76,11.595 126.786,11.452 126.809,11.309 C126.442,11.309 126.012,11.46 125.52,11.762 C125.028,12.064 124.61,12.493 124.266,13.049 L124.266,19.889 C124.266,20.168 124.319,20.394 124.424,20.569 C124.53,20.744 124.696,20.875 124.922,20.962 C125.118,21.042 125.37,21.101 125.678,21.141 C125.987,21.181 126.254,21.208 126.481,21.224 L126.481,22.011 L120.387,22.011 L120.387,21.224 C120.567,21.208 120.752,21.193 120.944,21.177 C121.135,21.161 121.301,21.129 121.442,21.081 C121.661,21.01 121.823,20.885 121.928,20.707 C122.034,20.528 122.086,20.296 122.086,20.01 L122.086,12.761 C122.086,12.515 122.03,12.273 121.917,12.035 C121.803,11.797 121.645,11.606 121.442,11.463 C121.293,11.368 121.118,11.299 120.915,11.255 C120.711,11.212 120.493,11.182 120.258,11.166 L120.258,10.379 L124.102,10.117 L124.266,10.284 L124.266,11.94 L124.325,11.94 C124.809,11.297 125.348,10.808 125.942,10.474 C126.536,10.141 127.079,9.974 127.571,9.974 C128.063,9.974 128.463,10.137 128.772,10.463 L128.772,10.463 Z M118.043,22.249 C117.433,22.249 116.947,22.104 116.584,21.814 C116.22,21.524 115.988,21.101 115.886,20.545 L115.816,20.545 C115.308,21.117 114.763,21.554 114.181,21.856 C113.599,22.158 112.898,22.309 112.078,22.309 C111.211,22.309 110.497,22.039 109.939,21.498 C109.38,20.958 109.101,20.251 109.101,19.377 C109.101,18.924 109.164,18.519 109.289,18.161 C109.414,17.804 109.601,17.482 109.851,17.196 C110.046,16.958 110.304,16.745 110.625,16.558 C110.945,16.372 111.246,16.223 111.527,16.112 C111.878,15.977 112.591,15.726 113.666,15.361 C114.74,14.995 115.464,14.709 115.839,14.503 L115.839,13.323 C115.839,13.22 115.818,13.021 115.775,12.727 C115.732,12.433 115.64,12.155 115.5,11.893 C115.343,11.599 115.123,11.343 114.837,11.124 C114.552,10.906 114.148,10.796 113.625,10.796 C113.265,10.796 112.931,10.858 112.623,10.981 C112.314,11.104 112.097,11.233 111.972,11.368 C111.972,11.527 112.009,11.762 112.084,12.071 C112.158,12.381 112.195,12.667 112.195,12.93 C112.195,13.208 112.072,13.462 111.826,13.692 C111.58,13.923 111.238,14.038 110.8,14.038 C110.41,14.038 110.122,13.897 109.939,13.615 C109.755,13.333 109.664,13.017 109.664,12.667 C109.664,12.302 109.791,11.952 110.044,11.619 C110.298,11.285 110.628,10.987 111.035,10.725 C111.386,10.502 111.812,10.314 112.312,10.159 C112.812,10.004 113.3,9.926 113.777,9.926 C114.433,9.926 115.005,9.972 115.494,10.063 C115.982,10.155 116.425,10.351 116.824,10.653 C117.222,10.947 117.525,11.347 117.732,11.851 C117.939,12.356 118.043,13.005 118.043,13.8 C118.043,14.936 118.031,15.943 118.007,16.821 C117.984,17.699 117.972,18.658 117.972,19.699 C117.972,20.009 118.025,20.255 118.13,20.438 C118.236,20.621 118.398,20.775 118.617,20.902 C118.734,20.974 118.919,21.014 119.173,21.022 C119.427,21.03 119.687,21.034 119.953,21.034 L119.953,21.796 C119.585,21.931 119.263,22.041 118.986,22.124 C118.708,22.207 118.394,22.249 118.043,22.249 L118.043,22.249 Z M114.117,16.089 C113.617,16.28 113.152,16.519 112.722,16.806 C112.331,17.076 112.023,17.397 111.796,17.767 C111.57,18.137 111.457,18.577 111.457,19.087 C111.457,19.748 111.627,20.233 111.966,20.544 C112.306,20.855 112.738,21.01 113.261,21.01 C113.816,21.01 114.304,20.872 114.726,20.598 C115.148,20.323 115.503,19.999 115.793,19.624 L115.863,15.504 C115.199,15.703 114.617,15.898 114.117,16.089 L114.117,16.089 Z M100.96,21.165 C101.225,21.157 101.567,21.129 101.985,21.081 C102.403,21.034 102.69,20.966 102.847,20.879 C103.089,20.728 103.267,20.555 103.38,20.36 C103.493,20.166 103.55,19.921 103.55,19.627 L103.55,7.328 L103.374,7.328 L97.577,21.737 L96.991,21.737 L91.339,7.03 L91.186,7.03 L91.186,17.125 C91.186,18.102 91.247,18.845 91.368,19.353 C91.489,19.862 91.675,20.227 91.925,20.45 C92.097,20.616 92.452,20.775 92.991,20.926 C93.53,21.077 93.882,21.157 94.046,21.165 L94.046,22.011 L87.331,22.011 L87.331,21.165 C87.683,21.133 88.052,21.073 88.438,20.986 C88.825,20.899 89.124,20.767 89.335,20.593 C89.608,20.37 89.796,20.029 89.897,19.568 C89.999,19.107 90.05,18.336 90.05,17.256 L90.05,8.603 C90.05,8.103 89.991,7.694 89.874,7.376 C89.757,7.058 89.589,6.8 89.37,6.601 C89.128,6.387 88.831,6.228 88.479,6.125 C88.128,6.021 87.78,5.962 87.436,5.946 L87.436,5.1 L93.106,5.1 L97.745,17.793 L102.311,7.175 C102.459,6.785 102.586,6.378 102.692,5.952 C102.797,5.527 102.854,5.243 102.861,5.1 L108.284,5.1 L108.284,5.946 C108.065,5.954 107.786,5.99 107.446,6.053 C107.106,6.117 106.858,6.176 106.702,6.232 C106.436,6.327 106.257,6.486 106.163,6.709 C106.069,6.931 106.022,7.173 106.022,7.435 L106.022,19.627 C106.022,19.905 106.069,20.14 106.163,20.33 C106.257,20.521 106.436,20.688 106.702,20.831 C106.843,20.91 107.093,20.984 107.452,21.051 C107.811,21.119 108.097,21.157 108.308,21.165 L108.308,22.011 L100.96,22.011 L100.96,21.165 L100.96,21.165 Z M88.282,11.774 C88.282,12.179 88.184,12.538 87.989,12.852 C87.793,13.166 87.492,13.323 87.086,13.323 C86.649,13.323 86.315,13.208 86.084,12.977 C85.854,12.747 85.739,12.493 85.739,12.214 C85.739,12.04 85.752,11.881 85.78,11.738 C85.807,11.595 85.832,11.452 85.856,11.309 C85.488,11.309 85.059,11.46 84.567,11.762 C84.074,12.064 83.656,12.493 83.313,13.049 L83.313,19.889 C83.313,20.168 83.365,20.394 83.471,20.569 C83.576,20.744 83.742,20.875 83.969,20.962 C84.164,21.042 84.416,21.101 84.725,21.141 C85.033,21.181 85.301,21.208 85.528,21.224 L85.528,22.011 L79.434,22.011 L79.434,21.224 C79.613,21.208 79.799,21.193 79.99,21.177 C80.182,21.161 80.348,21.129 80.489,21.081 C80.707,21.01 80.869,20.885 80.975,20.707 C81.08,20.528 81.133,20.296 81.133,20.01 L81.133,12.761 C81.133,12.515 81.076,12.273 80.963,12.035 C80.85,11.797 80.692,11.606 80.489,11.463 C80.34,11.368 80.164,11.299 79.961,11.255 C79.758,11.212 79.539,11.182 79.305,11.166 L79.305,10.379 L83.149,10.117 L83.313,10.284 L83.313,11.94 L83.371,11.94 C83.856,11.297 84.395,10.808 84.989,10.474 C85.582,10.141 86.125,9.974 86.617,9.974 C87.11,9.974 87.51,10.137 87.819,10.463 C88.127,10.788 88.282,11.225 88.282,11.774 L88.282,11.774 Z M72.154,19.529 C72.459,19.99 72.857,20.355 73.349,20.621 C73.841,20.888 74.427,21.022 75.107,21.022 C75.802,21.022 76.402,20.856 76.906,20.524 C77.41,20.193 77.896,19.596 78.365,18.733 L79.185,19.246 C78.701,20.183 78.052,20.93 77.24,21.486 C76.427,22.042 75.494,22.321 74.439,22.321 C73.509,22.321 72.695,22.154 71.996,21.82 C71.296,21.486 70.72,21.034 70.267,20.461 C69.814,19.889 69.476,19.222 69.253,18.459 C69.031,17.697 68.919,16.89 68.919,16.04 C68.919,15.277 69.039,14.529 69.277,13.794 C69.515,13.059 69.865,12.397 70.326,11.809 C70.771,11.245 71.324,10.79 71.984,10.445 C72.644,10.099 73.384,9.926 74.205,9.926 C75.048,9.926 75.771,10.061 76.373,10.331 C76.974,10.602 77.462,10.971 77.837,11.44 C78.197,11.885 78.464,12.409 78.64,13.013 C78.816,13.617 78.904,14.272 78.904,14.979 L78.904,15.766 L71.252,15.766 C71.252,16.538 71.324,17.239 71.468,17.868 C71.613,18.497 71.841,19.051 72.154,19.529 L72.154,19.529 Z M76.595,14.765 C76.595,14.321 76.558,13.846 76.484,13.339 C76.41,12.832 76.291,12.409 76.127,12.068 C75.947,11.704 75.701,11.406 75.388,11.177 C75.076,10.947 74.673,10.832 74.181,10.832 C73.361,10.832 72.679,11.179 72.136,11.872 C71.593,12.565 71.298,13.529 71.252,14.765 L76.595,14.765 L76.595,14.765 Z M66.972,20.616 C66.449,21.165 65.867,21.586 65.226,21.88 C64.586,22.174 63.906,22.321 63.187,22.321 C62.492,22.321 61.922,22.241 61.476,22.082 C61.031,21.923 60.668,21.737 60.386,21.522 L60.293,21.522 L60.293,25.725 C60.293,26.012 60.347,26.251 60.457,26.442 C60.566,26.633 60.734,26.772 60.961,26.86 C61.148,26.931 61.416,27.001 61.763,27.069 C62.111,27.137 62.398,27.174 62.625,27.182 L62.625,27.969 L56.168,27.969 L56.168,27.182 C56.41,27.166 56.644,27.147 56.871,27.123 C57.097,27.099 57.3,27.059 57.48,27.004 C57.715,26.924 57.879,26.785 57.972,26.586 C58.066,26.388 58.113,26.153 58.113,25.883 L58.113,12.715 C58.113,12.477 58.054,12.246 57.937,12.024 C57.82,11.801 57.668,11.623 57.48,11.487 C57.34,11.392 57.144,11.319 56.894,11.267 C56.644,11.215 56.402,11.182 56.168,11.166 L56.168,10.379 L60.105,10.117 L60.269,10.26 L60.269,11.583 L60.363,11.607 C60.769,11.13 61.273,10.733 61.875,10.415 C62.476,10.097 63.074,9.938 63.668,9.938 C64.386,9.938 65.045,10.093 65.642,10.403 C66.24,10.713 66.754,11.13 67.183,11.654 C67.644,12.211 68.002,12.856 68.256,13.591 C68.509,14.326 68.636,15.166 68.636,16.112 C68.636,17.041 68.484,17.889 68.179,18.656 C67.875,19.423 67.472,20.076 66.972,20.616 L66.972,20.616 Z M66,14.407 C65.875,13.796 65.679,13.263 65.414,12.81 C65.148,12.35 64.8,11.976 64.371,11.69 C63.941,11.404 63.425,11.261 62.824,11.261 C62.246,11.261 61.753,11.39 61.347,11.648 C60.941,11.907 60.589,12.214 60.293,12.572 L60.293,19.52 C60.363,19.735 60.478,19.957 60.638,20.187 C60.798,20.418 60.976,20.616 61.172,20.783 C61.414,20.982 61.675,21.143 61.957,21.266 C62.238,21.389 62.582,21.451 62.988,21.451 C63.425,21.451 63.847,21.334 64.254,21.099 C64.66,20.865 65,20.533 65.273,20.104 C65.585,19.611 65.816,19.039 65.965,18.388 C66.113,17.736 66.187,17.009 66.187,16.207 C66.187,15.619 66.125,15.019 66,14.407 L66,14.407 Z M57.063,21.01 L57.063,21.796 L53.29,22.058 L53.113,21.892 L53.113,20.402 L53.043,20.402 C52.856,20.601 52.645,20.813 52.411,21.04 C52.177,21.266 51.908,21.471 51.604,21.653 C51.253,21.868 50.914,22.031 50.586,22.142 C50.259,22.253 49.795,22.309 49.194,22.309 C48.172,22.309 47.394,21.969 46.86,21.291 C46.326,20.612 46.059,19.626 46.059,18.333 L46.059,12.713 C46.059,12.428 46.006,12.188 45.9,11.993 C45.793,11.799 45.638,11.63 45.434,11.487 C45.292,11.392 45.115,11.323 44.903,11.279 C44.69,11.235 44.467,11.206 44.231,11.19 L44.231,10.403 L48.086,10.117 L48.262,10.284 L48.262,18.447 C48.262,19.298 48.449,19.937 48.824,20.366 C49.199,20.795 49.649,21.01 50.172,21.01 C50.602,21.01 50.985,20.942 51.321,20.807 C51.656,20.673 51.938,20.514 52.164,20.331 C52.375,20.165 52.561,19.988 52.721,19.802 C52.881,19.615 53.004,19.443 53.09,19.284 L53.09,12.63 C53.09,12.368 53.035,12.136 52.926,11.933 C52.816,11.731 52.664,11.559 52.469,11.416 C52.328,11.32 52.119,11.263 51.842,11.243 C51.565,11.223 51.254,11.206 50.91,11.19 L50.91,10.403 L55.117,10.117 L55.293,10.284 L55.293,19.605 C55.293,19.875 55.348,20.105 55.457,20.296 C55.567,20.486 55.719,20.649 55.914,20.783 C56.055,20.871 56.223,20.929 56.418,20.956 C56.613,20.984 56.828,21.002 57.063,21.01 L57.063,21.01 Z M37.629,11.261 C38.199,11.539 38.76,11.779 39.311,11.982 C39.862,12.185 40.395,12.401 40.91,12.632 C41.379,12.838 41.83,13.073 42.264,13.335 C42.698,13.597 43.074,13.903 43.395,14.252 C43.746,14.65 44.006,15.085 44.174,15.557 C44.342,16.03 44.426,16.58 44.426,17.208 C44.426,18.702 43.883,19.933 42.797,20.902 C41.711,21.872 40.364,22.356 38.754,22.356 C38.012,22.356 37.27,22.239 36.528,22.005 C35.785,21.771 35.145,21.486 34.606,21.153 L34.102,22.023 L33.164,22.023 L33,16.231 L33.95,16.231 C34.145,16.946 34.373,17.591 34.635,18.167 C34.897,18.743 35.242,19.282 35.672,19.782 C36.078,20.251 36.553,20.624 37.096,20.902 C37.639,21.181 38.27,21.32 38.989,21.32 C39.528,21.32 39.998,21.248 40.401,21.105 C40.803,20.962 41.129,20.759 41.379,20.496 C41.629,20.234 41.815,19.925 41.936,19.571 C42.057,19.217 42.117,18.809 42.117,18.348 C42.117,17.672 41.93,17.041 41.555,16.457 C41.18,15.872 40.621,15.428 39.879,15.126 C39.371,14.92 38.789,14.693 38.133,14.444 C37.477,14.194 36.91,13.959 36.434,13.737 C35.496,13.308 34.768,12.746 34.248,12.052 C33.729,11.357 33.469,10.449 33.469,9.329 C33.469,8.686 33.598,8.086 33.856,7.53 C34.114,6.974 34.481,6.478 34.957,6.041 C35.41,5.628 35.946,5.304 36.563,5.07 C37.18,4.836 37.824,4.718 38.496,4.718 C39.262,4.718 39.947,4.837 40.553,5.076 C41.158,5.314 41.711,5.592 42.211,5.91 L42.692,5.1 L43.629,5.1 L43.723,10.713 L42.774,10.713 C42.602,10.069 42.408,9.454 42.194,8.866 C41.979,8.278 41.699,7.745 41.356,7.269 C41.02,6.808 40.61,6.44 40.125,6.166 C39.641,5.892 39.047,5.755 38.344,5.755 C37.602,5.755 36.969,5.998 36.446,6.482 C35.922,6.967 35.66,7.559 35.66,8.258 C35.66,8.989 35.828,9.595 36.164,10.075 C36.5,10.556 36.989,10.951 37.629,11.261 L37.629,11.261 Z" id="Shade" fill-opacity="0.24" fill="#000000"></path>
                <path d="M137.334,21.011 C136.723,20.114 136.07,19.154 135.374,18.13 C134.678,17.106 133.954,16.109 133.204,15.141 L132.242,16.053 L132.242,18.842 C132.242,19.128 132.293,19.364 132.394,19.551 C132.496,19.738 132.66,19.875 132.886,19.962 C133.074,20.042 133.253,20.101 133.425,20.141 C133.597,20.181 133.796,20.208 134.023,20.224 L134.023,21.011 L128.363,21.011 L128.363,20.224 C128.541,20.208 128.727,20.191 128.922,20.171 C129.115,20.151 129.278,20.121 129.41,20.081 C129.628,20.01 129.79,19.884 129.899,19.705 C130.008,19.527 130.062,19.294 130.062,19.008 L130.062,5.778 C130.062,5.484 130.002,5.207 129.88,4.949 C129.759,4.691 129.601,4.494 129.406,4.359 C129.242,4.232 128.986,4.148 128.638,4.108 C128.291,4.068 128.011,4.041 127.8,4.025 L127.8,3.262 L132.078,3 L132.242,3.179 L132.242,15.173 C132.852,14.554 133.51,13.889 134.218,13.178 C134.925,12.467 135.521,11.834 136.006,11.278 C136.069,11.206 136.137,11.113 136.211,10.997 C136.285,10.882 136.322,10.788 136.322,10.716 C136.322,10.501 136.153,10.342 135.813,10.238 C135.473,10.134 135.147,10.063 134.834,10.023 L134.834,9.26 L139.918,9.26 L139.918,9.999 C139.261,10.198 138.681,10.446 138.177,10.744 C137.673,11.042 137.289,11.31 137.023,11.548 C136.836,11.707 136.57,11.965 136.225,12.322 C135.881,12.679 135.4,13.147 134.782,13.726 C135.423,14.529 136.144,15.491 136.946,16.611 C137.747,17.733 138.331,18.543 138.698,19.044 C139.042,19.513 139.351,19.819 139.625,19.962 C139.898,20.105 140.296,20.193 140.82,20.224 L140.82,21.011 L137.334,21.011 L137.334,21.011 Z M128.772,9.463 C129.081,9.788 129.235,10.225 129.235,10.774 C129.235,11.179 129.137,11.538 128.942,11.852 C128.747,12.166 128.446,12.323 128.04,12.323 C127.602,12.323 127.268,12.208 127.038,11.977 C126.807,11.747 126.692,11.493 126.692,11.214 C126.692,11.04 126.706,10.881 126.733,10.738 C126.76,10.595 126.786,10.452 126.809,10.309 C126.442,10.309 126.012,10.46 125.52,10.762 C125.028,11.064 124.61,11.493 124.266,12.049 L124.266,18.889 C124.266,19.168 124.319,19.394 124.424,19.569 C124.53,19.744 124.696,19.875 124.922,19.962 C125.118,20.042 125.37,20.101 125.678,20.141 C125.987,20.181 126.254,20.208 126.481,20.224 L126.481,21.011 L120.387,21.011 L120.387,20.224 C120.567,20.208 120.752,20.193 120.944,20.177 C121.135,20.161 121.301,20.129 121.442,20.081 C121.661,20.01 121.823,19.885 121.928,19.707 C122.034,19.528 122.086,19.296 122.086,19.01 L122.086,11.761 C122.086,11.515 122.03,11.273 121.917,11.035 C121.803,10.797 121.645,10.606 121.442,10.463 C121.293,10.368 121.118,10.299 120.915,10.255 C120.711,10.212 120.493,10.182 120.258,10.166 L120.258,9.379 L124.102,9.117 L124.266,9.284 L124.266,10.94 L124.325,10.94 C124.809,10.297 125.348,9.808 125.942,9.474 C126.536,9.141 127.079,8.974 127.571,8.974 C128.063,8.974 128.463,9.137 128.772,9.463 L128.772,9.463 Z M118.043,21.249 C117.433,21.249 116.947,21.104 116.584,20.814 C116.22,20.524 115.988,20.101 115.886,19.545 L115.816,19.545 C115.308,20.117 114.763,20.554 114.181,20.856 C113.599,21.158 112.898,21.309 112.078,21.309 C111.211,21.309 110.497,21.039 109.939,20.498 C109.38,19.958 109.101,19.251 109.101,18.377 C109.101,17.924 109.164,17.519 109.289,17.161 C109.414,16.804 109.601,16.482 109.851,16.196 C110.046,15.958 110.304,15.745 110.625,15.558 C110.945,15.372 111.246,15.223 111.527,15.112 C111.878,14.977 112.591,14.726 113.666,14.361 C114.74,13.995 115.464,13.709 115.839,13.503 L115.839,12.323 C115.839,12.22 115.818,12.021 115.775,11.727 C115.732,11.433 115.64,11.155 115.5,10.893 C115.343,10.599 115.123,10.343 114.837,10.124 C114.552,9.906 114.148,9.796 113.625,9.796 C113.265,9.796 112.931,9.858 112.623,9.981 C112.314,10.104 112.097,10.233 111.972,10.368 C111.972,10.527 112.009,10.762 112.084,11.071 C112.158,11.381 112.195,11.667 112.195,11.93 C112.195,12.208 112.072,12.462 111.826,12.692 C111.58,12.923 111.238,13.038 110.8,13.038 C110.41,13.038 110.122,12.897 109.939,12.615 C109.755,12.333 109.664,12.017 109.664,11.667 C109.664,11.302 109.791,10.952 110.044,10.619 C110.298,10.285 110.628,9.987 111.035,9.725 C111.386,9.502 111.812,9.314 112.312,9.159 C112.812,9.004 113.3,8.926 113.777,8.926 C114.433,8.926 115.005,8.972 115.494,9.063 C115.982,9.155 116.425,9.351 116.824,9.653 C117.222,9.947 117.525,10.347 117.732,10.851 C117.939,11.356 118.043,12.005 118.043,12.8 C118.043,13.936 118.031,14.943 118.007,15.821 C117.984,16.699 117.972,17.658 117.972,18.699 C117.972,19.009 118.025,19.255 118.13,19.438 C118.236,19.621 118.398,19.775 118.617,19.902 C118.734,19.974 118.919,20.014 119.173,20.022 C119.427,20.03 119.687,20.034 119.953,20.034 L119.953,20.796 C119.585,20.931 119.263,21.041 118.986,21.124 C118.708,21.207 118.394,21.249 118.043,21.249 L118.043,21.249 Z M114.117,15.089 C113.617,15.28 113.152,15.519 112.722,15.806 C112.331,16.076 112.023,16.397 111.796,16.767 C111.57,17.137 111.457,17.577 111.457,18.087 C111.457,18.748 111.627,19.233 111.966,19.544 C112.306,19.855 112.738,20.01 113.261,20.01 C113.816,20.01 114.304,19.872 114.726,19.598 C115.148,19.323 115.503,18.999 115.793,18.624 L115.863,14.504 C115.199,14.703 114.617,14.898 114.117,15.089 L114.117,15.089 Z M100.96,20.165 C101.225,20.157 101.567,20.129 101.985,20.081 C102.403,20.034 102.69,19.966 102.847,19.879 C103.089,19.728 103.267,19.555 103.38,19.36 C103.493,19.166 103.55,18.921 103.55,18.627 L103.55,6.328 L103.374,6.328 L97.577,20.737 L96.991,20.737 L91.339,6.03 L91.186,6.03 L91.186,16.125 C91.186,17.102 91.247,17.845 91.368,18.353 C91.489,18.862 91.675,19.227 91.925,19.45 C92.097,19.616 92.452,19.775 92.991,19.926 C93.53,20.077 93.882,20.157 94.046,20.165 L94.046,21.011 L87.331,21.011 L87.331,20.165 C87.683,20.133 88.052,20.073 88.438,19.986 C88.825,19.899 89.124,19.767 89.335,19.593 C89.608,19.37 89.796,19.029 89.897,18.568 C89.999,18.107 90.05,17.336 90.05,16.256 L90.05,7.603 C90.05,7.103 89.991,6.694 89.874,6.376 C89.757,6.058 89.589,5.8 89.37,5.601 C89.128,5.387 88.831,5.228 88.479,5.125 C88.128,5.021 87.78,4.962 87.436,4.946 L87.436,4.1 L93.106,4.1 L97.745,16.793 L102.311,6.175 C102.459,5.785 102.586,5.378 102.692,4.952 C102.797,4.527 102.854,4.243 102.861,4.1 L108.284,4.1 L108.284,4.946 C108.065,4.954 107.786,4.99 107.446,5.053 C107.106,5.117 106.858,5.176 106.702,5.232 C106.436,5.327 106.257,5.486 106.163,5.709 C106.069,5.931 106.022,6.173 106.022,6.435 L106.022,18.627 C106.022,18.905 106.069,19.14 106.163,19.33 C106.257,19.521 106.436,19.688 106.702,19.831 C106.843,19.91 107.093,19.984 107.452,20.051 C107.811,20.119 108.097,20.157 108.308,20.165 L108.308,21.011 L100.96,21.011 L100.96,20.165 L100.96,20.165 Z" id="Mark" fill="#FFFFFF"></path>
                <path d="M88.282,10.774 C88.282,11.179 88.184,11.538 87.989,11.852 C87.793,12.166 87.492,12.323 87.086,12.323 C86.649,12.323 86.315,12.208 86.084,11.977 C85.854,11.747 85.739,11.493 85.739,11.214 C85.739,11.04 85.752,10.881 85.78,10.738 C85.807,10.595 85.832,10.452 85.856,10.309 C85.488,10.309 85.059,10.46 84.567,10.762 C84.074,11.064 83.656,11.493 83.313,12.049 L83.313,18.889 C83.313,19.168 83.365,19.394 83.471,19.569 C83.576,19.744 83.742,19.875 83.969,19.962 C84.164,20.042 84.416,20.101 84.725,20.141 C85.033,20.181 85.301,20.208 85.528,20.224 L85.528,21.011 L79.434,21.011 L79.434,20.224 C79.613,20.208 79.799,20.193 79.99,20.177 C80.182,20.161 80.348,20.129 80.489,20.081 C80.707,20.01 80.869,19.885 80.975,19.707 C81.08,19.528 81.133,19.296 81.133,19.01 L81.133,11.761 C81.133,11.515 81.076,11.273 80.963,11.035 C80.85,10.797 80.692,10.606 80.489,10.463 C80.34,10.368 80.164,10.299 79.961,10.255 C79.758,10.212 79.539,10.182 79.305,10.166 L79.305,9.379 L83.149,9.117 L83.313,9.284 L83.313,10.94 L83.371,10.94 C83.856,10.297 84.395,9.808 84.989,9.474 C85.582,9.141 86.125,8.974 86.617,8.974 C87.11,8.974 87.51,9.137 87.819,9.463 C88.127,9.788 88.282,10.225 88.282,10.774 L88.282,10.774 Z M72.154,18.529 C72.459,18.99 72.857,19.355 73.349,19.621 C73.841,19.888 74.427,20.022 75.107,20.022 C75.802,20.022 76.402,19.856 76.906,19.524 C77.41,19.193 77.896,18.596 78.365,17.733 L79.185,18.246 C78.701,19.183 78.052,19.93 77.24,20.486 C76.427,21.042 75.494,21.321 74.439,21.321 C73.509,21.321 72.695,21.154 71.996,20.82 C71.296,20.486 70.72,20.034 70.267,19.461 C69.814,18.889 69.476,18.222 69.253,17.459 C69.031,16.697 68.919,15.89 68.919,15.04 C68.919,14.277 69.039,13.529 69.277,12.794 C69.515,12.059 69.865,11.397 70.326,10.809 C70.771,10.245 71.324,9.79 71.984,9.445 C72.644,9.099 73.384,8.926 74.205,8.926 C75.048,8.926 75.771,9.061 76.373,9.331 C76.974,9.602 77.462,9.971 77.837,10.44 C78.197,10.885 78.464,11.409 78.64,12.013 C78.816,12.617 78.904,13.272 78.904,13.979 L78.904,14.766 L71.252,14.766 C71.252,15.538 71.324,16.239 71.468,16.868 C71.613,17.497 71.841,18.051 72.154,18.529 L72.154,18.529 Z M76.595,13.765 C76.595,13.321 76.558,12.846 76.484,12.339 C76.41,11.832 76.291,11.409 76.127,11.068 C75.947,10.704 75.701,10.406 75.388,10.177 C75.076,9.947 74.673,9.832 74.181,9.832 C73.361,9.832 72.679,10.179 72.136,10.872 C71.593,11.565 71.298,12.529 71.252,13.765 L76.595,13.765 L76.595,13.765 Z M66.972,19.616 C66.449,20.165 65.867,20.586 65.226,20.88 C64.586,21.174 63.906,21.321 63.187,21.321 C62.492,21.321 61.922,21.241 61.476,21.082 C61.031,20.923 60.668,20.737 60.386,20.522 L60.293,20.522 L60.293,24.725 C60.293,25.012 60.347,25.251 60.457,25.442 C60.566,25.633 60.734,25.772 60.961,25.86 C61.148,25.931 61.416,26.001 61.763,26.069 C62.111,26.137 62.398,26.174 62.625,26.182 L62.625,26.969 L56.168,26.969 L56.168,26.182 C56.41,26.166 56.644,26.147 56.871,26.123 C57.097,26.099 57.3,26.059 57.48,26.004 C57.715,25.924 57.879,25.785 57.972,25.586 C58.066,25.388 58.113,25.153 58.113,24.883 L58.113,11.715 C58.113,11.477 58.054,11.246 57.937,11.024 C57.82,10.801 57.668,10.623 57.48,10.487 C57.34,10.392 57.144,10.319 56.894,10.267 C56.644,10.215 56.402,10.182 56.168,10.166 L56.168,9.379 L60.105,9.117 L60.269,9.26 L60.269,10.583 L60.363,10.607 C60.769,10.13 61.273,9.733 61.875,9.415 C62.476,9.097 63.074,8.938 63.668,8.938 C64.386,8.938 65.045,9.093 65.642,9.403 C66.24,9.713 66.754,10.13 67.183,10.654 C67.644,11.211 68.002,11.856 68.256,12.591 C68.509,13.326 68.636,14.166 68.636,15.112 C68.636,16.041 68.484,16.889 68.179,17.656 C67.875,18.423 67.472,19.076 66.972,19.616 L66.972,19.616 Z M66,13.407 C65.875,12.796 65.679,12.263 65.414,11.81 C65.148,11.35 64.8,10.976 64.371,10.69 C63.941,10.404 63.425,10.261 62.824,10.261 C62.246,10.261 61.753,10.39 61.347,10.648 C60.941,10.907 60.589,11.214 60.293,11.572 L60.293,18.52 C60.363,18.735 60.478,18.957 60.638,19.187 C60.798,19.418 60.976,19.616 61.172,19.783 C61.414,19.982 61.675,20.143 61.957,20.266 C62.238,20.389 62.582,20.451 62.988,20.451 C63.425,20.451 63.847,20.334 64.254,20.099 C64.66,19.865 65,19.533 65.273,19.104 C65.585,18.611 65.816,18.039 65.965,17.388 C66.113,16.736 66.187,16.009 66.187,15.207 C66.187,14.619 66.125,14.019 66,13.407 L66,13.407 Z M57.063,20.01 L57.063,20.796 L53.29,21.058 L53.113,20.892 L53.113,19.402 L53.043,19.402 C52.856,19.601 52.645,19.813 52.411,20.04 C52.177,20.266 51.908,20.471 51.604,20.653 C51.253,20.868 50.914,21.031 50.586,21.142 C50.259,21.253 49.795,21.309 49.194,21.309 C48.172,21.309 47.394,20.969 46.86,20.291 C46.326,19.612 46.059,18.626 46.059,17.333 L46.059,11.713 C46.059,11.428 46.006,11.188 45.9,10.993 C45.793,10.799 45.638,10.63 45.434,10.487 C45.292,10.392 45.115,10.323 44.903,10.279 C44.69,10.235 44.467,10.206 44.231,10.19 L44.231,9.403 L48.086,9.117 L48.262,9.284 L48.262,17.447 C48.262,18.298 48.449,18.937 48.824,19.366 C49.199,19.795 49.649,20.01 50.172,20.01 C50.602,20.01 50.985,19.942 51.321,19.807 C51.656,19.673 51.938,19.514 52.164,19.331 C52.375,19.165 52.561,18.988 52.721,18.802 C52.881,18.615 53.004,18.443 53.09,18.284 L53.09,11.63 C53.09,11.368 53.035,11.136 52.926,10.933 C52.816,10.731 52.664,10.559 52.469,10.416 C52.328,10.32 52.119,10.263 51.842,10.243 C51.565,10.223 51.254,10.206 50.91,10.19 L50.91,9.403 L55.117,9.117 L55.293,9.284 L55.293,18.605 C55.293,18.875 55.348,19.105 55.457,19.296 C55.567,19.486 55.719,19.649 55.914,19.783 C56.055,19.871 56.223,19.929 56.418,19.956 C56.613,19.984 56.828,20.002 57.063,20.01 L57.063,20.01 Z M37.629,10.261 C38.199,10.539 38.76,10.779 39.311,10.982 C39.862,11.185 40.395,11.401 40.91,11.632 C41.379,11.838 41.83,12.073 42.264,12.335 C42.698,12.597 43.074,12.903 43.395,13.252 C43.746,13.65 44.006,14.085 44.174,14.557 C44.342,15.03 44.426,15.58 44.426,16.208 C44.426,17.702 43.883,18.933 42.797,19.902 C41.711,20.872 40.364,21.356 38.754,21.356 C38.012,21.356 37.27,21.239 36.528,21.005 C35.785,20.771 35.145,20.486 34.606,20.153 L34.102,21.023 L33.164,21.023 L33,15.231 L33.95,15.231 C34.145,15.946 34.373,16.591 34.635,17.167 C34.897,17.743 35.242,18.282 35.672,18.782 C36.078,19.251 36.553,19.624 37.096,19.902 C37.639,20.181 38.27,20.32 38.989,20.32 C39.528,20.32 39.998,20.248 40.401,20.105 C40.803,19.962 41.129,19.759 41.379,19.496 C41.629,19.234 41.815,18.925 41.936,18.571 C42.057,18.217 42.117,17.809 42.117,17.348 C42.117,16.672 41.93,16.041 41.555,15.457 C41.18,14.872 40.621,14.428 39.879,14.126 C39.371,13.92 38.789,13.693 38.133,13.444 C37.477,13.194 36.91,12.959 36.434,12.737 C35.496,12.308 34.768,11.746 34.248,11.052 C33.729,10.357 33.469,9.449 33.469,8.329 C33.469,7.686 33.598,7.086 33.856,6.53 C34.114,5.974 34.481,5.478 34.957,5.041 C35.41,4.628 35.946,4.304 36.563,4.07 C37.18,3.836 37.824,3.718 38.496,3.718 C39.262,3.718 39.947,3.837 40.553,4.076 C41.158,4.314 41.711,4.592 42.211,4.91 L42.692,4.1 L43.629,4.1 L43.723,9.713 L42.774,9.713 C42.602,9.069 42.408,8.454 42.194,7.866 C41.979,7.278 41.699,6.745 41.356,6.269 C41.02,5.808 40.61,5.44 40.125,5.166 C39.641,4.892 39.047,4.755 38.344,4.755 C37.602,4.755 36.969,4.998 36.446,5.482 C35.922,5.967 35.66,6.559 35.66,7.258 C35.66,7.989 35.828,8.595 36.164,9.075 C36.5,9.556 36.989,9.951 37.629,10.261 L37.629,10.261 Z" id="Super" fill="#86898D"></path>
                <g id="Supermark" stroke-width="1">
                    <rect id="Outline" fill="#1F2226" x="0" y="0" width="24" height="24"></rect>
                    <rect id="Box" fill="#FFFFFF" x="1" y="1" width="22" height="22"></rect>
                    <g id="Lineament" transform="translate(0.000000, 3.000000)" fill="#1F2226">
                        <path d="M5,18 L19,18 L19,19 L5,19 L5,18 L5,18 Z M12,16 C10.473,16 9.109,14.833 8.192,13 L9.299,13 C9.511,13.367 9.75,13.677 10,13.953 L10,3 L11,2 L11,14.728 C11.321,14.887 11.652,15 12,15 C12.348,15 12.679,14.887 13,14.728 L13,2 L14,3 L14,13.953 C14.25,13.677 14.489,13.367 14.701,13 L15.808,13 C14.891,14.833 13.527,16 12,16 L12,16 Z" id="Nose,-lips,-Adam's-apple"></path>
                        <g id="Normal">
                            <path d="M4.99833097,3.50348766 C3.62396213,2.60854239 2.58561505,2.22971099 0.356725099,2.22971099 C0.330749689,2.20963571 0.367714695,1.2450184 0.356725099,1.22594688 C3.35692883,1.22594688 4.33546142,1.7812817 5.45308823,2.30617864 C6.45456694,2.77652626 7.56773169,3.2224337 10.3472672,3.2224337 L10.3472672,5.22594688 C9.08646081,5.22594688 6.37269981,4.39843292 4.99833097,3.50348766 Z" id="Eyebrow" transform="translate(5.347267, 3.225947) rotate(-15.000000) translate(-5.347267, -3.225947) "></path>
                            <path d="M17.998331,3.50348766 C16.6239621,2.60854239 15.585615,2.22971099 13.3567251,2.22971099 C13.3307497,2.20963571 13.3677147,1.2450184 13.3567251,1.22594688 C16.3569288,1.22594688 17.3354614,1.7812817 18.4530882,2.30617864 C19.4545669,2.77652626 20.5677317,3.2224337 23.3472672,3.2224337 L23.3472672,5.22594688 C22.0864608,5.22594688 19.3726998,4.39843292 17.998331,3.50348766 Z" id="Eyebrow" transform="translate(18.347267, 3.225947) scale(-1, 1) rotate(-15.000000) translate(-18.347267, -3.225947) "></path>
                            <path d="M18.5,6 C17.672,6 17,5.328 17,4.5 C17,3.672 17.672,3 18.5,3 C19.328,3 20,3.672 20,4.5 C20,5.328 19.328,6 18.5,6 L18.5,6 Z M5.5,6 C4.672,6 4,5.328 4,4.5 C4,3.672 4.672,3 5.5,3 C6.328,3 7,3.672 7,4.5 C7,5.328 6.328,6 5.5,6 L5.5,6 Z" id="Eyes"></path>
                        </g>
                    </g>
                    <path d="M19,14 C16.239,14 14,11.761 14,9 C14,6.239 16.239,4 19,4 C21.761,4 24,6.239 24,9 C24,11.761 21.761,14 19,14 L19,14 Z M19,5 C16.791,5 15,6.791 15,9 C15,11.209 16.791,13 19,13 C21.209,13 23,11.209 23,9 C23,6.791 21.209,5 19,5 L19,5 Z M5,14 C2.239,14 0,11.761 0,9 C0,6.239 2.239,4 5,4 C7.761,4 10,6.239 10,9 C10,11.761 7.761,14 5,14 L5,14 Z M5,5 C2.791,5 1,6.791 1,9 C1,11.209 2.791,13 5,13 C7.209,13 9,11.209 9,9 C9,6.791 7.209,5 5,5 L5,5 Z" id="Glasses" fill="#1F2226"></path>
                    <path d="M6,0 L6.05594057,0 C6.68641827,0.617235313 7.54748478,1 8.5,1 C9.45365484,1 10.3182257,0.618593819 10.9494939,4.4408921e-16 L13.7431269,0 C12.7344098,1.22156398 11.2082649,2 9.5,2 C8.163,2 6.953,1.504 6,0.71 L6,-1.38777878e-17 Z" id="Rectangle-273" fill="#1F2226"></path>
                </g>
            </g>
        </g>
    </g>
</svg>
