<svg width="25" height="24" viewBox="0 0 25 24" fill="none" xmlns="http://www.w3.org/2000/svg">
<rect x="0.5" width="24" height="24" fill="#534F63"/>
<rect x="1.5" y="1" width="22" height="22" fill="#FCFCFD"/>
<path fill-rule="evenodd" clip-rule="evenodd" d="M5.5 21H19.5V22H5.5V21ZM12.5 19C10.973 19 9.609 17.833 8.692 16H9.799C10.011 16.367 10.25 16.677 10.5 16.953V6L11.5 5V17.728C11.821 17.887 12.152 18 12.5 18C12.848 18 13.179 17.887 13.5 17.728V5L14.5 6V16.953C14.75 16.677 14.989 16.367 15.201 16H16.308C15.391 17.833 14.027 19 12.5 19Z" fill="#534F63"/>
<path fill-rule="evenodd" clip-rule="evenodd" d="M5.58205 6.58435C4.02289 6.07561 2.92187 5.97843 0.768929 6.55531C0.738643 6.54264 0.524687 5.60133 0.509136 5.58575C3.40711 4.80924 4.49603 5.09239 5.71143 5.31014C6.80052 5.50526 7.99116 5.64786 10.676 4.92846L11.1945 6.86371C9.97669 7.19003 7.14122 7.09309 5.58205 6.58435Z" fill="#534F63"/>
<path fill-rule="evenodd" clip-rule="evenodd" d="M19.1125 6.58435C20.6717 6.07561 21.7727 5.97843 23.9257 6.55531C23.9559 6.54264 24.1699 5.60133 24.1854 5.58575C21.2875 4.80924 20.1985 5.09239 18.9832 5.31014C17.8941 5.50526 16.7034 5.64786 14.0186 4.92846L13.5 6.86371C14.7179 7.19003 17.5534 7.09309 19.1125 6.58435Z" fill="#534F63"/>
<path fill-rule="evenodd" clip-rule="evenodd" d="M19 9C18.172 9 17.5 8.328 17.5 7.5C17.5 6.672 18.172 6 19 6C19.828 6 20.5 6.672 20.5 7.5C20.5 8.328 19.828 9 19 9ZM6 9C5.172 9 4.5 8.328 4.5 7.5C4.5 6.672 5.172 6 6 6C6.828 6 7.5 6.672 7.5 7.5C7.5 8.328 6.828 9 6 9Z" fill="#534F63"/>
<path fill-rule="evenodd" clip-rule="evenodd" d="M19.5 14C16.739 14 14.5 11.761 14.5 9C14.5 6.239 16.739 4 19.5 4C22.261 4 24.5 6.239 24.5 9C24.5 11.761 22.261 14 19.5 14ZM19.5 5C17.291 5 15.5 6.791 15.5 9C15.5 11.209 17.291 13 19.5 13C21.709 13 23.5 11.209 23.5 9C23.5 6.791 21.709 5 19.5 5ZM5.5 14C2.739 14 0.5 11.761 0.5 9C0.5 6.239 2.739 4 5.5 4C8.261 4 10.5 6.239 10.5 9C10.5 11.761 8.261 14 5.5 14ZM5.5 5C3.291 5 1.5 6.791 1.5 9C1.5 11.209 3.291 13 5.5 13C7.709 13 9.5 11.209 9.5 9C9.5 6.791 7.709 5 5.5 5Z" fill="#534F63"/>
</svg>
