<svg width="122" height="32" viewBox="0 0 122 32" fill="none" xmlns="http://www.w3.org/2000/svg">
<path fill-rule="evenodd" clip-rule="evenodd" d="M108.88 24H113.36V19.59L113.91 18.83L116.64 24H121.81L117.45 16.39L121.57 11H116.57L113.57 15.67H113.36V7H108.88V24ZM66.88 24V8H71.7L75.31 15.65H75.46L79.09 8H83.88V24H79.72V14.8H79.51L76.61 21H74.12L71.19 14.8H71V24H66.88ZM89.31 24.18C88.2064 24.276 87.115 23.8919 86.3147 23.1261C85.5143 22.3602 85.0827 21.2867 85.13 20.18C85.13 17.85 86.75 15.98 89.7 15.98H92.47V15.15C92.4674 14.8134 92.3199 14.4942 92.0653 14.274C91.8106 14.0538 91.4735 13.954 91.14 14C90.29 14 89.77 14.32 89.76 15H85.59C85.59 13 86.81 10.82 91.19 10.82C94.35 10.82 96.86 12.01 96.86 15.32V24H92.68V22.51H92.47C91.8579 23.6601 90.6044 24.3186 89.31 24.17V24.18ZM92.4699 18.25V19.92C92.4421 20.2982 92.2631 20.6492 91.9733 20.8938C91.6835 21.1384 91.3074 21.256 90.9299 21.22C90.5778 21.2561 90.2263 21.1459 89.9577 20.9152C89.6892 20.6845 89.5273 20.3536 89.5099 20C89.485 19.0994 90.163 18.3339 91.0599 18.25H92.4699ZM98.88 11H103.35V13H103.57C103.893 11.7441 105.023 10.8646 106.32 10.86C106.748 10.8294 107.177 10.8734 107.59 10.99V14.71C107.094 14.561 106.577 14.4968 106.06 14.52C104.23 14.52 103.5 15.52 103.5 17.22V24H98.88V11Z" fill="#534F63"/>
<path fill-rule="evenodd" clip-rule="evenodd" d="M4.36 19C4.36 19.84 5.24 20.82 6.87 20.82C8.5 20.82 9.05 20.18 9.05 19.41C9.05 18.64 8.25 18.21 6.77 17.93L4.77 17.55C2.21 17.08 0.3 15.77 0.3 12.85C0.3 9.57001 2.96 7.71001 6.84 7.71001C11.18 7.71001 13.28 10.41 13.29 12.97H9.06C8.92944 11.8488 7.94686 11.0241 6.82 11.09C5.5 11.09 4.88 11.7 4.88 12.49C4.88 13.28 5.66 13.62 7 13.85L9.12 14.2C11.36 14.56 13.59 15.7 13.59 18.93C13.59 22.16 11.31 24.26 6.76 24.26C1.61 24.26 0 21.47 0 19H4.36ZM26.86 24H22.54V21.91H22.31C21.8703 23.3442 20.4959 24.2826 19 24.17C16.49 24.17 14.92 22.66 14.92 19.59V11H19.36V18.44C19.36 20.16 20.19 20.5 20.89 20.5C21.59 20.5 22.42 19.87 22.42 18.41V11H26.9L26.86 24ZM33.36 22H33.59C34.1721 23.4013 35.5867 24.2718 37.1 24.16C39.87 24.16 41.63 22.06 41.63 18.16V16.83C41.63 12.9 39.86 10.9 37.1 10.9C35.5967 10.7791 34.1812 11.6213 33.57 13H33.36V11H28.88V28.18H33.36V22ZM37 18V17C37 15.22 36.27 14.34 35.19 14.34C34.11 14.34 33.37 15.22 33.37 17V18C33.37 19.78 34.15 20.67 35.2 20.67C36.25 20.67 37 19.85 37 18ZM43.2 16.81V17.65L43.17 17.69C43.17 21.88 45.77 24.24 49.43 24.27C53.54 24.27 55.16 21.68 55.23 19.74H51.23C51.19 20.57 50.4 21.05 49.4 21.05C48.8761 21.0634 48.3713 20.8527 48.0123 20.4708C47.6534 20.089 47.4743 19.5721 47.52 19.05V18H55.28V17.2C55.28 13.4 52.89 10.72 49.28 10.72C45.97 10.72 43.2 12.66 43.2 16.81ZM51.05 15.65C51.1098 15.1657 50.9467 14.6804 50.6065 14.3305C50.2663 13.9806 49.7858 13.8039 49.3 13.85C48.8149 13.8098 48.3368 13.9857 47.9936 14.3309C47.6503 14.6761 47.477 15.1551 47.52 15.64L51.05 15.65ZM61.35 11H56.88V24H61.5V17.22C61.5 15.52 62.23 14.52 64.06 14.52C64.5771 14.4968 65.0943 14.561 65.59 14.71V11C65.178 10.88 64.7483 10.8327 64.32 10.86C63.0232 10.8646 61.8931 11.7441 61.57 13H61.35V11Z" fill="#8F8BA2"/>
</svg>
