<svg width="80" height="88" viewBox="0 0 80 88" fill="none" xmlns="http://www.w3.org/2000/svg">
<circle cx="40" cy="48" r="40" fill="#534F63"/>
<circle cx="40" cy="48" r="32" fill="#FCFCFD"/>
<mask id="mask0_1234_2860" style="mask-type:luminance" maskUnits="userSpaceOnUse" x="8" y="16" width="64" height="64">
<circle cx="40" cy="48" r="32" fill="white"/>
</mask>
<g mask="url(#mask0_1234_2860)">
<path fill-rule="evenodd" clip-rule="evenodd" d="M40 90C37.532 90 35.143 89.31 33.068 88H8V70H7V53.434L17.723 47H23.159L24 46.456V34.751C23.022 34.342 22.316 33.476 22.214 32.463L21.147 21.971C21.07 21.212 21.307 20.486 21.814 19.926C22.179 19.521 22.666 19.235 23.206 19.096L23.085 17.707H23V16C23 6.626 30.626 -1 40 -1C49.374 -1 57 6.626 57 16V16.029L57.06 16.056L57.027 16.777L56.822 19.051C57.443 19.166 58.008 19.469 58.423 19.921C58.933 20.478 59.178 21.201 59.111 21.957L58.189 32.45C58.087 33.603 57.204 34.531 56 34.866V46.456L56.841 47H62.277L73 53.434V70H72V88H46.932C44.857 89.31 42.468 90 40 90Z" fill="#534F63"/>
<rect x="9" y="65" width="62" height="22" fill="#8F8BA2"/>
<path fill-rule="evenodd" clip-rule="evenodd" d="M72 65H8V54L18 48H62L72 54V65Z" fill="#534F63"/>
<path fill-rule="evenodd" clip-rule="evenodd" d="M9 64V54.6L18.3 49H61.7L71 54.6V64H9Z" fill="#716D88"/>
</g>
<path d="M55 16.9884L54.2319 25.5405C54.1063 25.0635 54.042 24.5029 54.0162 23.8458L53.6605 23.8266L53.9672 23.7461L52.9348 19.8129C52.5941 17.11 50.3109 15 47.5 15C44.978 15 42.8808 16.6986 42.2303 19H41.8562L41.954 20.0895C41.9617 20.1751 41.9747 20.2713 41.9831 20.3337C41.9854 20.3505 41.9873 20.3648 41.9888 20.3759C41.9979 20.447 42 20.4796 42 20.5C42 21.9983 41.2681 23.3254 40.1423 24.1432C40.6818 23.4011 41 22.4877 41 21.5C41 20.2044 40.4415 19.0602 39.5837 18.2521L39.3025 17.9872L38.9162 17.9802C34.7638 17.9044 30.8107 17.394 27.1852 16.5283L25.8146 16.2011L25.9582 17.6029C25.9706 17.7237 25.9802 17.7947 25.987 17.8455C25.9957 17.9094 26 17.9412 26 18V23C26 24.0221 25.947 24.8525 25.7734 25.5226L25 16.6416V16C25 7.71528 31.7153 1 40 1C48.2847 1 55 7.71528 55 16V16.674V16.9884Z" fill="#534F63" stroke="#534F63" stroke-width="2"/>
<circle cx="40" cy="76" r="12" fill="#534F63"/>
<circle cx="40" cy="76" r="8" fill="#8575D7"/>
<path fill-rule="evenodd" clip-rule="evenodd" d="M59 65H21L17 52.2L25 47V33H55V47L63 52.2L59 65Z" fill="#534F63"/>
<path fill-rule="evenodd" clip-rule="evenodd" d="M21.7 64L18.2 52.6L26 47.5V34H54V47.5L61.8 52.6L58.3 64H21.7Z" fill="#FCFCFD"/>
<path d="M23.7064 32.3125L23.7064 32.3123L22.6394 21.8196C22.6394 21.8195 22.6394 21.8195 22.6394 21.8195C22.569 21.123 23.1135 20.5 23.97 20.5H56.261C57.1211 20.5 57.6781 21.1274 57.6169 21.8263L56.6939 32.319C56.6939 32.319 56.6939 32.319 56.6939 32.3191C56.6412 32.9169 56.0068 33.5 55.177 33.5H25.246C24.4151 33.5 23.7674 32.9146 23.7064 32.3125Z" fill="#FCFCFD" stroke="#534F63"/>
<path d="M40 1.5C48.0409 1.5 54.5 7.57608 54.5 15V37C54.5 40.7375 52.8695 45.133 50.21 48.5949C47.5482 52.0598 43.9288 54.5 40 54.5C36.0712 54.5 32.4518 52.0598 29.79 48.5949C27.1305 45.133 25.5 40.7375 25.5 37V15C25.5 7.57608 31.9591 1.5 40 1.5Z" fill="#FCFCFD" stroke="#534F63"/>
<path fill-rule="evenodd" clip-rule="evenodd" d="M54 50V42H55V50H54ZM33 45H47V46H33V45ZM40 43C38.473 43 37.109 41.833 36.192 40H37.299C37.511 40.367 37.75 40.677 38 40.953V30L39 29V41.728C39.321 41.887 39.652 42 40 42C40.348 42 40.679 41.887 41 41.728V29L42 30V40.953C42.25 40.677 42.489 40.367 42.701 40H43.808C42.891 41.833 41.527 43 40 43ZM25 42H26V50H25V42ZM36 48H44V49H36V48ZM40 59C41.551 59 42.938 57.662 43.855 56H44.969C43.89 58.176 42.067 60 40 60C37.933 60 36.11 58.176 35.031 56H36.145C37.062 57.662 38.449 59 40 59Z" fill="#534F63"/>
<path fill-rule="evenodd" clip-rule="evenodd" d="M33.0821 30.5843C31.5229 30.0756 30.4219 29.9784 28.2689 30.5553C28.2386 30.5426 28.0247 29.6013 28.0091 29.5857C30.9071 28.8092 31.996 29.0924 33.2114 29.3101C34.3005 29.5053 35.4912 29.6479 38.176 28.9285L38.6945 30.8637C37.4767 31.19 34.6412 31.0931 33.0821 30.5843Z" fill="#534F63"/>
<path fill-rule="evenodd" clip-rule="evenodd" d="M46.6125 30.5843C48.1716 30.0756 49.2727 29.9784 51.4256 30.5553C51.4559 30.5426 51.6698 29.6013 51.6854 29.5857C48.7874 28.8092 47.6985 29.0924 46.4831 29.3101C45.394 29.5053 44.2034 29.6479 41.5185 28.9285L41 30.8637C42.2178 31.19 45.0533 31.0931 46.6125 30.5843Z" fill="#534F63"/>
<path fill-rule="evenodd" clip-rule="evenodd" d="M46.5 33C45.672 33 45 32.328 45 31.5C45 30.672 45.672 30 46.5 30C47.328 30 48 30.672 48 31.5C48 32.328 47.328 33 46.5 33ZM33.5 33C32.672 33 32 32.328 32 31.5C32 30.672 32.672 30 33.5 30C34.328 30 35 30.672 35 31.5C35 32.328 34.328 33 33.5 33Z" fill="#534F63"/>
<path fill-rule="evenodd" clip-rule="evenodd" d="M47 38C44.239 38 42 35.761 42 33C42 30.239 44.239 28 47 28C49.761 28 52 30.239 52 33C52 35.761 49.761 38 47 38ZM47 29C44.791 29 43 30.791 43 33C43 35.209 44.791 37 47 37C49.209 37 51 35.209 51 33C51 30.791 49.209 29 47 29ZM33 38C30.239 38 28 35.761 28 33C28 30.239 30.239 28 33 28C35.761 28 38 30.239 38 33C38 35.761 35.761 38 33 38ZM33 29C30.791 29 29 30.791 29 33C29 35.209 30.791 37 33 37C35.209 37 37 35.209 37 33C37 30.791 35.209 29 33 29Z" fill="#534F63"/>
<path fill-rule="evenodd" clip-rule="evenodd" d="M26.9742 25.3419L28.9742 31.3419L29.1323 31.8162L28.1837 32.1324L28.0255 31.6581L26.0255 25.6581L25.8674 25.1838L26.8161 24.8675L26.9742 25.3419ZM53.0255 25.3419L51.0255 31.3419L50.8674 31.8162L51.8161 32.1324L51.9742 31.6581L53.9742 25.6581L54.1323 25.1838L53.1837 24.8675L53.0255 25.3419Z" fill="#534F63"/>
<path fill-rule="evenodd" clip-rule="evenodd" d="M56.031 16.688L55 28.168C53.457 27.27 53.089 25.719 53.017 23.885L53 24L51.95 20C51.698 17.753 49.814 16 47.5 16C45.186 16 43.302 17.753 43.05 20H42.95C42.965 20.167 43 20.329 43 20.5C43 23.538 40.538 26 37.5 26C36.163 26 34.953 25.504 34 24.71V23.944C34.635 24.594 35.519 25 36.5 25C38.433 25 40 23.433 40 21.5C40 20.501 39.571 19.614 38.898 18.98C34.676 18.903 30.651 18.384 26.953 17.501C26.97 17.667 27 17.829 27 18V23C27 25.215 26.786 27.128 25 28.168L24.002 16.708C24.001 16.707 24.001 16.707 24 16.707V16C24 7.163 31.163 0 40 0C48.837 0 56 7.163 56 16V16.674L56.031 16.688Z" fill="#534F63"/>
</svg>
