<svg width="370" height="192" viewBox="0 0 370 192" fill="none" xmlns="http://www.w3.org/2000/svg"><g id="bg-services-design-marketing" clip-path="url(#clip0_547_9298)"><circle id="oval-5" cx="59.5" cy="178.5" r="59" stroke="#fff" stroke-opacity=".4" stroke-dasharray="2"/><circle id="oval-4" cx="60" cy="179" r="23" fill="#fff" fill-opacity=".16"/><circle id="oval-4_2" cx="60" cy="179" r="37" fill="#fff" fill-opacity=".16"/><circle id="oval-4_3" cx="177" cy="35" r="37" fill="#fff" fill-opacity=".16"/><circle id="oval-3" cx="117.5" cy="96.5" r="59.5" fill="#fff" fill-opacity=".2"/><path id="ring" fill-rule="evenodd" clip-rule="evenodd" d="M177.5 237c32.861 0 59.5-26.639 59.5-59.5 0-32.861-26.639-59.5-59.5-59.5-32.861 0-59.5 26.639-59.5 59.5 0 32.861 26.639 59.5 59.5 59.5zm.5-22c20.435 0 37-16.565 37-37s-16.565-37-37-37-37 16.565-37 37 16.565 37 37 37z" fill="#fff" fill-opacity=".2"/><path id="Sketch" fill-rule="evenodd" clip-rule="evenodd" d="M185.08 158l7.687 3.31v.001l6.234 7.151L177.002 198 155 168.462l6.234-7.152 7.687-3.31h16.159zm4.353 14l5.568-4.11-3.765-4.89-6.235 2.838 4.432 6.162zm-1.432 3h-21l4.303-8h12.394l4.303 8zm1-12.616l-6.057-2.382-12.953-.002-5.99 2.384 6.082 2.616h12.836l6.082-2.616zm-27.235.616l6.235 2.838-4.432 6.162-5.568-4.11 3.765-4.89zm2.07 12.85l-3.835-2.85 13 17-9.165-14.15zm3.165 1.15h20l-9.999 18-10.001-18zm23.165-1.15L181.001 190l13-17-3.835 2.85z" fill="#FFA323"/><g id="Wp" fill-rule="evenodd" clip-rule="evenodd" fill="#F18D00"><path id="Shape" d="M72.336 173.222c.749 1.295 1.635 2.996 1.635 5.448 0 1.702-.546 3.813-1.498 6.332l-1.976 6.606-7.15-21.178c1.157-.069 2.247-.204 2.247-.204 1.02-.137.954-1.703-.136-1.635 0 0-3.2.273-5.244.273-1.907 0-5.175-.273-5.175-.273-1.09-.068-1.227 1.566-.136 1.635 0 0 .953.135 2.043.204l3.065 8.444-4.29 12.939-7.083-21.383a40.356 40.356 0 002.247-.204c1.022-.137.953-1.703-.135-1.635 0 0-3.202.273-5.244.273h-1.294c3.54-5.38 9.602-8.921 16.48-8.921 5.175 0 9.805 1.975 13.346 5.176h-.272c-1.974 0-3.336 1.633-3.336 3.472 0 1.583.83 2.911 1.81 4.478l.096.153zm-20.293 24.242c-6.537-3.2-11.1-9.942-11.1-17.773a19.752 19.752 0 011.703-8.035l9.397 25.808zm8.92-16.071l-5.924 17.161c1.771.545 3.61.817 5.585.817 2.313 0 4.494-.407 6.536-1.089a.348.348 0 01-.068-.137.344.344 0 00-.067-.135l-6.062-16.617zm17.093-9.125c0-.749-.067-1.43-.136-2.042 1.566 2.791 2.451 6.06 2.451 9.534 0 7.285-3.949 13.62-9.807 17.024l5.993-17.433c1.091-2.86 1.499-5.107 1.499-7.083z"/><path id="Shape_2" d="M60 202c-12.725 0-23-10.343-23-23s10.275-23 23-23 23 10.343 23 23c0 12.725-10.343 23-23 23zm-.068-44.912c-12.113 0-21.91 9.8-21.91 21.912 0 12.112 9.866 21.912 21.91 21.912s21.911-9.8 21.911-21.912c0-12.112-9.799-21.912-21.911-21.912z"/></g><circle id="oval-4_4" cx="118" cy="97" r="23" fill="#fff" fill-opacity=".16"/><circle id="Oval" cx="273" cy="96" r="96" fill="#FF9D14"/><g id="Ps"><path id="Shape_3" d="M96 156h45v44H96v-44z" fill="#FFAF3E"/><path id="Shape_4" d="M100 160h38v37h-38v-37z" fill="#F18D00"/><path id="Shape_5" fill-rule="evenodd" clip-rule="evenodd" d="M107 168.078s2.815-.078 5.132-.078c2.34 0 4.01.578 5.13 1.594 1.072.96 1.794 2.595 1.794 4.458 0 1.862-.548 3.386-1.544 4.458-1.296 1.383-2.805 2.2-5.38 2.314-.712.032-1.37.039-1.37.039v6.054H107v-18.839zm4.659 9.451l.372-.006c2.019-.026 3.264-1.313 3.264-3.26 0-1.75-1.027-3.185-2.964-3.26-.772-.03-1.57 0-1.57 0v6.505c.314.032.538.028.898.021zm12.599 6.39c-1.219 0-3.008-.732-3.767-1.22l.001.001v3.133c1.002.575 2.455 1.118 3.765 1.162 3.821.126 5.743-1.955 5.743-4.572-.027-2.07-1.083-3.42-3.603-4.34-1.625-.604-2.14-.949-2.14-1.61 0-.719.569-1.15 1.572-1.15 1.137 0 2.858.771 3.454 1.117v-3.175c-.812-.432-2.046-.962-3.59-.962-3.278 0-5.39 1.985-5.39 4.63-.028 1.638 1.029 2.808 3.765 3.786 1.544.546 1.95 1.301 1.95 2.02 0 .719-.514 1.18-1.76 1.18z" fill="#FFAF3E"/></g><g id="google ads"><rect id="Rectangle-path" x="174.354" y="13.127" width="14.324" height="42.646" rx="7.162" transform="rotate(30 174.354 13.127)" fill="#FFA323"/><rect id="Rectangle-path_2" x="167.267" y="20.183" width="14.324" height="42.646" rx="7.162" transform="rotate(-30 167.267 20.183)" fill="#F18D00"/><circle id="Oval_2" cx="162.911" cy="47.333" r="7.261" fill="#F18D00"/></g><g id="GA"><path id="Shape_6" d="M134 106V83.002A1.99 1.99 0 00132.008 81h-7.016A2.002 2.002 0 00123 83.002V106h11z" fill="#F18D00"/><path id="Shape_7" d="M134 110.998c0 1.106-.9 2.002-1.992 2.002H123V92l11 10v8.998z" fill="#E08300"/><path id="Shape_8" d="M113.992 92c-1.1.004-1.99.895-1.992 1.995V102h-8c-1.11 0-2 .892-2 1.992v7.016c0 1.092.895 1.992 2 1.992h19V92h-9.008z" fill="#FFAF3E"/></g></g><defs><clipPath id="clip0_547_9298"><path fill="#fff" d="M0 0h370v192H0z"/></clipPath></defs></svg>