<svg xmlns="http://www.w3.org/2000/svg" xmlns:xlink="http://www.w3.org/1999/xlink" width="370" height="192" viewBox="0 0 370 192"><defs><path id="bg-services-design-marketing-a" d="M59.5 238c32.86 0 59.5-26.64 59.5-59.5S92.36 119 59.5 119 0 145.64 0 178.5 26.64 238 59.5 238z"/><mask id="bg-services-design-marketing-b" width="119" height="119" x="0" y="0" fill="#fff"><use xlink:href="#bg-services-design-marketing-a"/></mask></defs><g fill="none" fill-rule="evenodd"><use stroke="#FFF" stroke-dasharray="2" stroke-opacity=".4" stroke-width="2" mask="url(#bg-services-design-marketing-b)" xlink:href="#bg-services-design-marketing-a"/><circle cx="60" cy="179" r="23" fill="#FFF" fill-opacity=".16"/><circle cx="60" cy="179" r="37" fill="#FFF" fill-opacity=".16"/><circle cx="177" cy="35" r="37" fill="#FFF" fill-opacity=".16"/><circle cx="117.5" cy="96.5" r="59.5" fill="#FFF" fill-opacity=".2"/><path fill="#FFF" fill-opacity=".2" d="M177.5 237c-32.86 0-59.5-26.64-59.5-59.5s26.64-59.5 59.5-59.5 59.5 26.64 59.5 59.5-26.64 59.5-59.5 59.5zm.5-22c20.435 0 37-16.565 37-37s-16.565-37-37-37-37 16.565-37 37 16.565 37 37 37z"/><path fill="#FFCC19" fill-rule="nonzero" d="M192.767 161.31L185.08 158h-16.159l-7.687 3.31-6.234 7.152L177.002 198l21.999-29.538-6.234-7.151v-.001zm2.234 6.58l-5.568 4.11-4.432-6.162 6.235-2.838 3.765 4.89zm-7 7.11h-21l4.303-8h12.394l4.303 8zm-5.057-14.998l6.057 2.382-6.082 2.616h-12.836l-6.082-2.616 5.99-2.384 12.953.002zM161.766 163l6.235 2.838-4.432 6.162-5.568-4.11 3.765-4.89zm-1.765 10l3.835 2.85 9.165 14.15-13-17zm7 4h20l-9.999 18-10.001-18zm14 13l9.165-14.15 3.835-2.85-13 17z"/><g fill="#E5A600" fill-rule="nonzero"><path d="M40.943 179.691c0 7.83 4.563 14.573 11.1 17.773l-9.397-25.808a19.756 19.756 0 00-1.703 8.035zm33.028-1.02c0-2.453-.886-4.154-1.635-5.449-1.021-1.635-1.906-2.996-1.906-4.631 0-1.839 1.362-3.472 3.336-3.472h.272c-3.54-3.2-8.171-5.176-13.347-5.176-6.877 0-12.939 3.54-16.48 8.921h1.295c2.042 0 5.244-.273 5.244-.273 1.088-.068 1.157 1.498.135 1.635 0 0-1.09.135-2.247.204l7.083 21.383 4.29-12.94-3.065-8.443c-1.09-.069-2.043-.204-2.043-.204-1.09-.069-.954-1.703.136-1.635 0 0 3.268.273 5.175.273 2.044 0 5.244-.273 5.244-.273 1.09-.068 1.157 1.498.136 1.635 0 0-1.09.135-2.248.204l7.151 21.178 1.976-6.606c.952-2.52 1.498-4.63 1.498-6.332zm-13.008 2.722l-5.924 17.16c1.771.546 3.61.818 5.585.818 2.313 0 4.494-.407 6.536-1.09-.068-.067-.068-.203-.135-.271l-6.062-16.617zm16.957-11.167c.069.612.136 1.293.136 2.042 0 1.976-.408 4.223-1.499 7.083l-5.993 17.433c5.858-3.404 9.807-9.74 9.807-17.024 0-3.474-.885-6.743-2.45-9.534z"/><path d="M37 179c0 12.657 10.275 23 23 23 12.657 0 23-10.275 23-23 0-12.657-10.275-23-23-23s-23 10.343-23 23zm1.021 0c0-12.112 9.798-21.912 21.91-21.912 12.113 0 21.912 9.8 21.912 21.912 0 12.112-9.867 21.912-21.911 21.912s-21.91-9.8-21.91-21.912z"/></g><circle cx="118" cy="97" r="23" fill="#FFF" fill-opacity=".16"/><path fill="#E5A600" d="M273 192c53.02 0 96-42.98 96-96S326.02 0 273 0s-96 42.98-96 96 42.98 96 96 96z"/><g fill-rule="nonzero"><path fill="#FFBF0D" d="M96 156h45v44H96z"/><path fill="#EDAD00" d="M100 160h38v37h-38z"/><path fill="#FFBF0D" d="M107 168.078s2.815-.078 5.132-.078c2.34 0 4.01.578 5.13 1.594 1.072.96 1.794 2.595 1.794 4.458 0 1.862-.548 3.386-1.544 4.458-1.296 1.383-2.805 2.2-5.38 2.314-.712.032-1.37.039-1.37.039v6.054H107v-18.84.001zm3.761 9.43c.409.042.665.022 1.27.015 2.019-.026 3.264-1.313 3.264-3.26 0-1.75-1.027-3.185-2.964-3.26-.772-.03-1.57 0-1.57 0v6.506-.001zm9.73 5.191c.759.488 2.548 1.22 3.767 1.22 1.246 0 1.76-.461 1.76-1.18 0-.719-.406-1.474-1.95-2.02-2.736-.978-3.793-2.148-3.765-3.786 0-2.645 2.112-4.63 5.39-4.63 1.544 0 2.778.53 3.59.962v3.175c-.596-.346-2.317-1.117-3.454-1.117-1.003 0-1.572.431-1.572 1.15 0 .661.515 1.006 2.14 1.61 2.52.92 3.576 2.27 3.603 4.34 0 2.617-1.922 4.698-5.743 4.572-1.31-.044-2.763-.587-3.765-1.162V182.7l-.001-.001z"/></g><g fill-rule="nonzero" transform="translate(153 13)"><rect width="14.324" height="42.646" x="9.732" y=".851" fill="#FFCC19" rx="7.162" transform="rotate(30 16.894 22.174)"/><rect width="14.324" height="42.646" x="23.969" y=".745" fill="#E5A600" rx="7.162" transform="rotate(-30 31.131 22.068)"/><circle cx="9.911" cy="34.333" r="7.261" fill="#EDAD00"/></g><g fill-rule="nonzero"><path fill="#E5A600" d="M134 106V83.002A1.992 1.992 0 00132.008 81h-7.016A2.002 2.002 0 00123 83.002V106h11z"/><path fill="#D99900" d="M134 110.998c0 1.106-.9 2.002-1.992 2.002H123V92l11 10v8.998z"/><path fill="#FFBF0D" d="M113.992 92c-1.1.004-1.99.895-1.992 1.995V102h-8c-1.11 0-2 .892-2 1.992v7.016c0 1.092.895 1.992 2 1.992h19V92h-9.008z"/></g></g></svg>