<svg width="32" height="32" viewBox="0 0 32 32" fill="none" xmlns="http://www.w3.org/2000/svg">
<g clip-path="url(#clip0_2467_8485)">
<rect width="32" height="32" fill="#FCFCFD"/>
<rect x="-8" y="-12" width="48" height="48" fill="#534F63"/>
<rect x="-6" y="-10" width="44" height="44" fill="#FCFCFD"/>
<path fill-rule="evenodd" clip-rule="evenodd" d="M2 30H30V32H2V30V30ZM16 26C12.946 26 10.218 23.666 8.384 20H10.598C11.022 20.734 11.5 21.354 12 21.906V0L14 -2V23.456C14.642 23.774 15.304 24 16 24C16.696 24 17.358 23.774 18 23.456V-2L20 0V21.906C20.5 21.354 20.978 20.734 21.402 20H23.616C21.782 23.666 19.054 26 16 26V26Z" fill="#534F63"/>
<path fill-rule="evenodd" clip-rule="evenodd" d="M2.16411 1.16868C-0.954227 0.151203 -3.15626 -0.0431543 -7.46214 1.1106C-7.52271 1.08527 -7.95063 -0.797365 -7.98173 -0.828519C-2.18578 -2.38154 -0.00793779 -1.81524 2.42286 -1.37974C4.60104 -0.989505 6.98232 -0.704295 12.352 -2.14309L13.3891 1.7274C10.9534 2.38004 5.28244 2.18616 2.16411 1.16868Z" fill="#534F63"/>
<path fill-rule="evenodd" clip-rule="evenodd" d="M29.2249 1.16868C32.3433 0.151203 34.5453 -0.0431543 38.8512 1.1106C38.9118 1.08527 39.3397 -0.797365 39.3708 -0.828519C33.5748 -2.38154 31.397 -1.81524 28.9662 -1.37974C26.788 -0.989505 24.4067 -0.704295 19.0371 -2.14309L18 1.7274C20.4357 2.38004 26.1066 2.18616 29.2249 1.16868Z" fill="#534F63"/>
<path fill-rule="evenodd" clip-rule="evenodd" d="M29 6C27.344 6 26 4.656 26 3C26 1.344 27.344 0 29 0C30.656 0 32 1.344 32 3C32 4.656 30.656 6 29 6V6ZM3 6C1.344 6 0 4.656 0 3C0 1.344 1.344 0 3 0C4.656 0 6 1.344 6 3C6 4.656 4.656 6 3 6V6Z" fill="#534F63"/>
<path fill-rule="evenodd" clip-rule="evenodd" d="M30 16C24.478 16 20 11.522 20 6C20 0.478 24.478 -4 30 -4C35.522 -4 40 0.478 40 6C40 11.522 35.522 16 30 16V16ZM30 -2C25.582 -2 22 1.582 22 6C22 10.418 25.582 14 30 14C34.418 14 38 10.418 38 6C38 1.582 34.418 -2 30 -2V-2ZM2 16C-3.522 16 -8 11.522 -8 6C-8 0.478 -3.522 -4 2 -4C7.522 -4 12 0.478 12 6C12 11.522 7.522 16 2 16V16ZM2 -2C-2.418 -2 -6 1.582 -6 6C-6 10.418 -2.418 14 2 14C6.418 14 10 10.418 10 6C10 1.582 6.418 -2 2 -2V-2Z" fill="#534F63"/>
</g>
<defs>
<clipPath id="clip0_2467_8485">
<rect width="32" height="32" fill="white"/>
</clipPath>
</defs>
</svg>
