<svg width="2560" height="1058" viewBox="0 0 2560 1058" fill="none" xmlns="http://www.w3.org/2000/svg">
<g clip-path="url(#clip0_2436_6976)">
<path d="M0 185.36C255.412 377.365 572.925 491.145 917 491.145C1360.59 491.145 1760.02 302.034 2039.16 0M0 1057.52C546.438 777.312 1165.76 619.207 1822 619.207C2074.13 619.207 2320.81 642.545 2560 687.18" stroke="#E0E4E6" stroke-dasharray="4 4"/>
<g clip-path="url(#clip1_2436_6976)">
<circle cx="967" cy="34" r="3" fill="#E3E6E8"/>
<circle cx="940" cy="66" r="3" fill="#E3E6E8"/>
<circle cx="937" cy="41" r="6" fill="#E3E6E8"/>
<circle cx="898" cy="261" r="6" fill="#E3E6E8"/>
<circle cx="1619" cy="69" r="3" fill="#E3E6E8"/>
<circle cx="1606" cy="44" r="6" fill="#E3E6E8"/>
<circle cx="1813" cy="200" r="12" fill="#F4F5F6" stroke="#E3E6E8" stroke-width="8"/>
<path d="M945.505 678.262L950.343 684.738L958.392 684L953.728 690.602L956.918 698.03L949.198 695.634L943.119 700.963L943.012 692.88L936.066 688.746L943.72 686.146L945.505 678.262Z" fill="#D5DADD"/>
</g>
</g>
<defs>
<clipPath id="clip0_2436_6976">
<rect width="2560" height="1057.52" fill="white"/>
</clipPath>
<clipPath id="clip1_2436_6976">
<rect width="937" height="673.233" fill="white" transform="translate(892 31)"/>
</clipPath>
</defs>
</svg>
