<svg width="86" height="137" viewBox="0 0 86 137" fill="none" xmlns="http://www.w3.org/2000/svg"><path d="M49.227 131.945l-.767-2.32h2.215l.257 2.075-1.705.245z" fill="#333B33" stroke="#000"/><path fill-rule="evenodd" clip-rule="evenodd" d="M60.79 124.625s5.114 4.304 4.838 7.125c-.144 1.471-3.857 2.222-7.442 2.25-3.585.028-7.645-.424-8.93-3.75-.138 2.004-.372 2.625-.372 2.625L41.814 131l3.349-7.5 15.628 1.125z" fill="#404840"/><path d="M65.13 131.701h0c-.014.149-.126.357-.495.599-.362.237-.895.452-1.568.633-1.34.361-3.12.553-4.885.567-1.78.014-3.625-.093-5.17-.593-1.53-.495-2.718-1.358-3.29-2.837l-.965.146c-.068.986-.159 1.623-.23 2.006a5.339 5.339 0 00-.008.039l-6.009-1.594 2.967-6.643 15.113 1.088.089.078a25.527 25.527 0 012.257 2.268c.61.7 1.198 1.473 1.614 2.23.423.768.635 1.458.58 2.013zm-4.34-7.076s5.114 4.304 4.838 7.125l-4.837-7.125z" stroke="#000" stroke-opacity=".56"/><path fill-rule="evenodd" clip-rule="evenodd" d="M55.21 93.5s7.501 9.181 7.813 15.75c.37 7.779-2.232 15-2.232 15s-5.625 3.201-14.14-.75c-.27-4.865-2.605-24.75-2.605-24.75L55.21 93.5z" fill="#73A6CC"/><path d="M44.644 99.556l-.06-.507 10.48-4.928.074.094a56.66 56.66 0 013.435 4.959c1.912 3.112 3.801 6.954 3.95 10.1.182 3.831-.367 7.534-.966 10.287-.3 1.374-.61 2.508-.845 3.296-.117.394-.216.702-.285.91l-.043.13a8.198 8.198 0 01-.775.321 12.8 12.8 0 01-2.757.643c-2.331.289-5.674.127-9.72-1.691-.168-2.628-.794-8.568-1.387-13.924a1775.756 1775.756 0 00-1.101-9.69z" stroke="#000" stroke-opacity=".57"/><path opacity=".12" fill-rule="evenodd" clip-rule="evenodd" d="M48.512 102.125c2.941 4.801 5.166 14.238-.373 26.25-1.165 2.529-1.108 3.637-.79 4.125l-5.535-2.625 1.488-32.625L53.721 95s.9 3.954-5.21 7.125z" fill="#000"/><path d="M30.506 134.187l-.988-1.494 2.066-1.041 1.248 2.014-2.326.521z" fill="#333B33" stroke="#000"/><path fill-rule="evenodd" clip-rule="evenodd" d="M28.79 124.25s-2.863 4.112-3.348 9.375c3.453 1.513 4.837 1.5 4.837 1.5l1.116-1.5s2.986 3.299 10.047 3c5.648-.24 6.44-1.086 6.698-2.25.256-1.164-.396-4.066-3.721-7.125-3.326-3.059-15.628-3-15.628-3z" fill="#404840"/><path d="M41.42 136.125c-3.445.146-5.875-.586-7.431-1.338a9.499 9.499 0 01-1.71-1.045 5.938 5.938 0 01-.4-.34c-.042-.04-.072-.071-.091-.09l-.02-.02-.002-.003h0v-.001h-.001s0 0 0 0l-.407-.45-.364.488-.95 1.278a7.256 7.256 0 01-.772-.148c-.695-.166-1.77-.494-3.295-1.144.275-2.412 1.05-4.563 1.776-6.139.38-.825.744-1.489 1.013-1.944.12-.202.22-.362.293-.478l.26.002a69.16 69.16 0 015.986.347c1.733.183 3.555.459 5.142.874 1.605.421 2.896.966 3.633 1.644 1.617 1.487 2.568 2.922 3.084 4.105.523 1.199.585 2.103.487 2.544-.055.25-.129.439-.261.603-.133.166-.356.344-.768.515-.848.35-2.38.621-5.201.74zm0 0l.022.5m-.021-.5l.02.5m0 0c-5.644.239-8.685-1.822-9.677-2.658m9.678 2.658c5.648-.24 6.44-1.086 6.698-2.25.256-1.164-.396-4.066-3.721-7.125-3.326-3.059-15.628-3-15.628-3l2.973 9.717m0 0l.033-.044-.402-.298-.37.336v.001l.002.001.003.003.01.011.033.035.02.019.671-.064z" stroke="#000" stroke-opacity=".56"/><path fill-rule="evenodd" clip-rule="evenodd" d="M56.326 93.5s-3.263 5.882-10.047 8.25c.62 1.521 3.918 8.863 3.349 12.75-.569 3.887-4.093 13.125-4.093 13.125s-7.951 2.936-17.488-2.625c1.4-4.117 3.089-8.726 2.604-12.75C29.462 102.382 18.25 97.21 18 86c7.814 1.467 38.326 7.5 38.326 7.5z" fill="#73A6CC"/><path d="M46.114 101.278l-.497.173.2.488c.054.135.129.313.22.527.428 1.02 1.207 2.872 1.888 4.929.411 1.243.782 2.55 1.016 3.78.234 1.236.323 2.361.192 3.253-.277 1.89-1.284 5.128-2.238 7.931a170.535 170.535 0 01-1.676 4.686l-.067.18a13.52 13.52 0 01-1.111.283c-.868.182-2.127.371-3.68.39-3.025.037-7.168-.57-11.708-3.127l.113-.332c.63-1.84 1.295-3.789 1.775-5.729.543-2.196.86-4.421.607-6.52h0c-.572-4.743-3.389-8.429-6.158-12.053-.207-.27-.414-.54-.619-.811-2.869-3.777-5.538-7.603-5.846-12.718 4.228.8 13.29 2.575 21.471 4.183a16501.56 16501.56 0 0114.906 2.937l.616.122a20.047 20.047 0 01-2.036 2.544c-1.627 1.728-4.073 3.734-7.368 4.884z" stroke="#000" stroke-opacity=".56"/><path opacity=".12" fill-rule="evenodd" clip-rule="evenodd" d="M33.628 114.5c-1.074 9.803-2.977 12.375-2.977 12.375s-3.878 1.543-2.629 7.744a27.054 27.054 0 01-2.58-.994c.353-3.828 1.96-7.038 2.813-8.509-.07-.04-.139-.075-.208-.116 1.4-4.117 3.089-8.726 2.604-12.75C29.462 102.382 18.25 97.21 18 86c.844.159 1.954.37 3.26.622-2.7 7.824 13.654 16.14 12.368 27.878z" fill="#000"/><path d="M62.094 69.496c.062.02.104.038.131.051.022.12.043.225.062.314l.003.018c.025.12.04.201.05.271a.403.403 0 01-.04.265c-.061.127-.195.313-.495.64-.294.32-.716.742-1.32 1.34-.44.433-1.007.525-1.713.347-.722-.182-1.52-.634-2.283-1.19a18.045 18.045 0 01-2.08-1.803c.136-.016.283-.034.44-.051a71.857 71.857 0 013.142-.289c1.15-.077 2.284-.114 3.135-.058.43.028.756.079.968.145z" fill="#fff" stroke="#000"/><path fill-rule="evenodd" clip-rule="evenodd" d="M60.461 69s4.413 10.6 14.945 10.5c3.177-.07 3.087-1.323 4.858-1.125 1.77.198 3.766 1.828 3.362 3.375-.403 1.547-2.4 1.003-3.362.75-.722.52-1.673 1.372-1.495 2.25.178.878 2.863 1.42 3.363 2.625.5 1.204.624 2.331 0 3.375s-1.687 1.13-2.616.75c-.93-.38-.747-2.625-.747-2.625l-2.242 1.5s1.144 1.93.748 3c-.397 1.07-2.685 3.24-4.11 2.25-1.426-.99 0-3.375 0-3.375l-.748-1.5s-11.123-1.948-14.945-6.375C53.65 79.948 50.747 72 50.747 72l9.714-3z" fill="#FFD90D"/><path d="M79.267 88.918v-.003h0l.084-1.031-.86.575-2.242 1.5-.393.264.241.407h0l.002.003.008.013.01.02.022.037a7.704 7.704 0 01.444.95c.11.289.204.594.248.878.045.291.032.516-.025.67-.07.19-.246.474-.519.79-.267.309-.604.62-.966.87-.772.534-1.438.654-1.871.353-.44-.305-.502-.852-.335-1.528a4.716 4.716 0 01.431-1.094l.037-.067.01-.016v-.002h.001v-.001l.14-.234-.122-.245-.747-1.5-.113-.226-.248-.044h0-.007l-.023-.005-.09-.016-.355-.069a52.312 52.312 0 01-5.5-1.421c-1.612-.515-3.334-1.164-4.882-1.953-1.554-.792-2.901-1.708-3.796-2.745-1.866-2.16-3.524-5.205-4.723-7.734a63.752 63.752 0 01-1.724-3.993l8.786-2.714.032.067c.146.3.365.724.661 1.232a21.777 21.777 0 002.733 3.72c2.48 2.702 6.342 5.425 11.795 5.374h.006c1.674-.037 2.518-.391 3.169-.716l.162-.081c.235-.119.408-.206.606-.268.22-.069.476-.105.854-.063.77.086 1.612.491 2.21 1.05.61.569.859 1.186.724 1.702-.07.271-.197.417-.342.508-.159.1-.38.157-.665.168-.58.023-1.241-.151-1.738-.282l-.006-.002-.229-.06-.19.138c-.376.27-.837.646-1.186 1.087-.341.433-.64 1.016-.507 1.668.088.433.45.73.74.926.283.193.637.377.972.552l.107.056c.38.2.738.393 1.03.603.297.214.47.407.542.58.47 1.135.54 2.077.032 2.927-.244.41-.553.606-.874.679-.335.076-.727.027-1.122-.135h0c-.06-.025-.15-.1-.24-.305a2.756 2.756 0 01-.175-.745 6.036 6.036 0 01-.029-.99l.004-.063.001-.016z" stroke="#000" stroke-opacity=".56"/><path opacity=".12" fill-rule="evenodd" clip-rule="evenodd" d="M66.066 87.375c3.656.746 5.08 2.263 5.632 3.235-2.52-.516-10.99-2.487-14.226-6.235-.75-.868-1.462-1.872-2.126-2.924l-.863-4.576s5.962 9.354 11.583 10.5z" fill="#000"/><path fill-rule="evenodd" clip-rule="evenodd" d="M63.077 69.375s-5.737-.965-10.088 4.875c-4.351 5.84-2.615-10.875-2.615-10.875s4.979-.389 6.725.375c1.746.764 5.978 5.625 5.978 5.625z" fill="#fff"/><path d="M61.908 68.818c-.62.014-1.435.09-2.363.32-2.077.512-4.704 1.79-6.957 4.813-.537.72-.899.973-1.094 1.026-.071.02-.103.01-.129-.004-.038-.02-.108-.077-.192-.216-.173-.288-.322-.781-.43-1.46a18.969 18.969 0 01-.194-2.31c-.054-1.701.026-3.59.12-5.06a79.104 79.104 0 01.162-2.081l.373-.02a39.518 39.518 0 011.878-.05c.723 0 1.49.022 2.18.09.702.07 1.275.184 1.636.342.359.157.9.556 1.542 1.12.628.55 1.31 1.219 1.944 1.87.58.595 1.114 1.17 1.524 1.62z" stroke="#000" stroke-opacity=".56"/><path fill-rule="evenodd" clip-rule="evenodd" d="M64.833 44.704c-.052 2.702-.389 2.992-.389 2.992s.33 1.548-.777 2.991c-1.108 1.443-2.723 1.87-2.723 1.87l-1.166 2.617-7 12.713L48.888 72 38 59.287l1.167-6.357s1.288-1.574 2.63-3.954c-1.044-.62-2.194-1.704-1.075-3.15.89-1.149 1.747-1.079 2.391-.712.574-5.82.106-18.743 14.72-15.366 11.803 2.727 7.053 12.242 7 14.956z" fill="#FFD90D"/><path d="M64.333 44.695h0c-.025 1.335-.121 2.046-.202 2.41a1.824 1.824 0 01-.075.265l-.162.14.06.288h.001l.001.006.002.012.004.024c.005.035.013.09.018.16a3.46 3.46 0 01-.71 2.382 4.96 4.96 0 01-1.614 1.339 5.184 5.184 0 01-.79.337l-.041.013-.008.002h0-.001 0l-.23.061-.098.219-1.158 2.598-6.96 12.639-3.463 3.663-10.372-12.11 1.1-5.999a27.037 27.037 0 00.75-1.01 33.92 33.92 0 001.848-2.913l.24-.426-.42-.25c-.5-.296-.95-.663-1.162-1.067a1.002 1.002 0 01-.123-.584c.022-.204.114-.457.35-.762.395-.51.735-.69.989-.74.254-.05.506.013.758.156l.67.382.076-.767c.052-.534.096-1.112.141-1.723.082-1.105.173-2.32.344-3.591.262-1.955.704-3.947 1.559-5.642.849-1.686 2.098-3.067 3.983-3.839 1.894-.776 4.493-.963 8.083-.133 2.883.666 4.698 1.733 5.825 2.957 1.123 1.22 1.602 2.638 1.735 4.085.134 1.455-.084 2.927-.35 4.229-.08.397-.162.763-.24 1.11-.052.231-.102.455-.148.674-.111.522-.202 1.011-.21 1.405z" stroke="#000" stroke-opacity=".56"/><path fill-rule="evenodd" clip-rule="evenodd" d="M56.667 54.426c1.441.263 3.11-.374 3.11-.374s1.015 2.167 1.167 3.365c.153 1.199-.18 2.294 0 2.992.18.697.75.856 0 2.243s-1.876.58-2.333 1.122c-.457.541-1.328 1.669-2.333 1.122-1.005-.547-.38-.357-1.167-.374-.787-.017-7.128 1.566-9.722-1.87-2.594-3.435-2.005-6.228-.778-7.852 1.228-1.624 3.796-3.27 6.222-2.991 2.427.279 4.467 2.368 5.834 2.617z" fill="#D9A659"/><path d="M59.505 54.666c.093.213.212.492.334.803.273.692.542 1.481.61 2.011.068.541.029 1.065-.013 1.58l-.006.068c-.038.461-.08.977.03 1.405l-.955-5.867zm0 0a8.53 8.53 0 01-.639.161c-.624.132-1.476.24-2.289.091l2.928-.252zm1.17 6.41c-.065-.133-.156-.314-.215-.542l.216.543zm0 0l.003.005m-.002-.004l.002.004m0 0c.072.144.109.221.129.306m-.129-.306l.129.306m0 0c.03.127.048.38-.302 1.027m.302-1.026l-.302 1.026m0 0c-.152.28-.303.416-.43.491m.43-.49l-.43.49m0 0a1.04 1.04 0 01-.452.127m.452-.127l-.452.127m0 0a4.78 4.78 0 01-.271.015m.27-.015l-.27.015m0 0h-.017m.017 0h-.017m0 0a3.895 3.895 0 00-.332.022m.332-.022l-.332.022m0 0c-.234.029-.54.106-.774.382m.774-.382l-.774.382m0 0l-.068.082m.068-.082l-.068.082m0 0c-.23.273-.494.587-.798.8m.798-.8l-.798.8m0 0c-.317.223-.576.27-.846.124m.846-.123l-.846.123m0 0a8.698 8.698 0 01-.47-.272m.47.272l-.47-.272m0 0l-.041-.026m.041.026l-.041-.026m0 0c-.027-.017-.053-.034-.073-.045m.073.045l-.073-.045m0 0a.806.806 0 00-.159-.078m.16.078l-.16-.078m0 0a.754.754 0 00-.338-.023m.338.023l-.338-.023m0 0h-.002m.002 0h-.002m0 0a2.396 2.396 0 01-.312.009m.312-.01l-.312.01m0 0a4.707 4.707 0 00-.617.06m.617-.06l-.617.06m0 0l-.195.027m.195-.027l-.195.027m0 0c-.217.03-.467.066-.747.1m.747-.1l-.747.1m0 0c-.734.091-1.656.177-2.627.16m2.627-.16l-2.627.16m0 0c-1.971-.035-3.997-.493-5.148-2.018m5.148 2.018l-5.148-2.018m0 0c-1.245-1.65-1.7-3.107-1.72-4.313m1.72 4.313l-1.72-4.313m0 0a4.689 4.689 0 01.942-2.937m-.943 2.937l.943-2.937m0 0c.567-.75 1.458-1.52 2.496-2.068M45.01 55.1l2.496-2.068m0 0c1.039-.548 2.186-.852 3.27-.728m-3.27.728l3.27-.728m0 0c1.099.127 2.136.667 3.115 1.253m-3.115-1.253l3.115 1.253m0 0c.165.098.33.2.496.3m-.496-.3l.496.3m0 0c.307.189.61.374.89.53m-.89-.53l.89.53m0 0c.428.24.873.452 1.3.53l-1.3-.53z" stroke="#000" stroke-opacity=".56"/><path opacity=".12" fill-rule="evenodd" clip-rule="evenodd" d="M43.444 47.322c.06 5.076-3.294 7.469-4.767 8.273l.49-2.665s1.907-2.328 3.5-5.608c1.35-2.783-.94-16.326 8.743-17.964-1.575 1.537-3.344 3.514-4.077 5.25-1.456 3.451-3.926 9.49-3.889 12.714zm5.056 1.121c-2.083-.978-1.168-7.958 4.278-6.356-2.844 1.349-4.027 4.51-4.278 6.356zM44.61 54.8c1.056-1.396 3.1-2.804 5.194-2.996-2.198.837-4.685 2.61-4.804 6.361-.116 3.646 3.153 5.64 6.2 6.705-2.075.002-4.455-.422-5.811-2.218-2.594-3.435-2.005-6.228-.778-7.852z" fill="#000"/><path fill-rule="evenodd" clip-rule="evenodd" d="M24.6 70.046s-5.518 2.9-8.226 11.009c-.526 2.704 5.849 12.342 22.435 13.578C55.395 95.869 59 92.064 59 92.064s.066-12.962-5.982-17.981c.47-3.358 0-8.808 0-8.808l-4.114 5.505-3.739-6.239L37.687 55 24.974 69.679" fill="#fff"/><path d="M24.6 70.046s-5.518 2.9-8.226 11.009c-.526 2.704 5.849 12.342 22.435 13.578C55.395 95.869 59 92.064 59 92.064s.066-12.962-5.982-17.981c.47-3.358 0-8.808 0-8.808l-4.114 5.505-3.739-6.239L37.687 55 24.974 69.679" stroke="#000" stroke-opacity=".56"/><path opacity=".12" fill-rule="evenodd" clip-rule="evenodd" d="M38.06 63.807l-2.617 5.505-4.113 9.541s-8.12-3.244-10.843-.734c-1.884 1.737-2.235 5.283-2.272 7.306-1.436-1.842-2.014-3.481-1.841-4.37 2.707-8.11 8.226-11.01 8.226-11.01l.374-.366 7.082-8.178 6.005 2.306z" fill="#000"/><path fill-rule="evenodd" clip-rule="evenodd" d="M22.24 54.185c.76 1.976 3.093 9.858 14.958 10.75 1.116-3.8-1.807-8.135-4.5-9.639-2.692-1.503-7.626-2.296-10.457-1.11z" fill="#fff"/><path d="M35.935 59.489c.822 1.549 1.23 3.287.883 4.912-5.56-.506-8.876-2.597-10.897-4.775-1.804-1.944-2.603-3.98-3.036-5.144 1.258-.4 2.9-.46 4.575-.253 1.877.232 3.718.79 4.995 1.504 1.25.698 2.59 2.08 3.48 3.756z" stroke="#000" stroke-opacity=".56"/><path fill-rule="evenodd" clip-rule="evenodd" d="M26.35 54.556s10.318 1.479 10.084 7.407c-2.32 3.413-2.988 4.074-2.988 4.074s5.253 2.71 7.843 5.185c2.59 2.476 2.415 4.324 4.108 5.185 1.694.862 3.41.794 4.482 2.223 1.074 1.428 1.802 4.082 0 4.814-1.8.733-2.987-2.592-2.987-2.592s-3.006.172-3.362 1.481c-.355 1.31-.073 3.996 0 4.445.073.448-.496 1.893-1.867 1.852-1.372-.041-2.367-.281-2.241-1.852.125-1.571-.002-2.526 0-3.334.002-.807-1.831-.767-2.241 0-.41.768-.613 1.237-1.12 2.593-.364.968-.18 1.337-1.495 1.111-1.38-.237-1.987-2.2-1.494-3.333a7.83 7.83 0 011.12-1.852s-1.262-.72-1.867-2.593c-1.563-.304-13.81-7.04-11.952-14.814 1.858-7.775 5.976-10 5.976-10z" fill="#FFD90D"/><path d="M34.65 86.655c.32.055.5.064.602.053a.32.32 0 00.05-.008 1.554 1.554 0 00.081-.204l.042-.134a8.74 8.74 0 01.167-.5c.511-1.365.723-1.857 1.148-2.653.173-.326.474-.535.766-.661.297-.128.63-.191.945-.194.308-.003.643.051.92.204.292.16.552.456.55.888a16 16 0 00.023.729c.028.663.066 1.52-.024 2.643-.027.342.01.57.07.721a.645.645 0 00.262.318c.274.177.732.252 1.426.273.482.014.824-.224 1.058-.54.118-.16.202-.333.25-.483.051-.155.05-.24.05-.248v-.001c-.04-.249-.13-1.054-.166-1.96-.036-.892-.022-1.96.178-2.696.136-.503.513-.848.899-1.08.39-.236.85-.395 1.271-.504a9.244 9.244 0 011.604-.263l.029-.002h.011l.03.499-.03-.5.375-.02.125.351h0v.001l.002.005.009.023.037.095c.033.082.083.201.149.342.132.285.322.649.56.986.241.342.508.622.782.78.254.145.505.182.79.066.33-.134.527-.344.643-.602.122-.27.166-.622.126-1.032-.081-.828-.49-1.764-.98-2.417-.448-.596-1.033-.895-1.773-1.152-.196-.068-.409-.134-.633-.204-.59-.185-1.261-.394-1.903-.72-.984-.501-1.43-1.299-1.903-2.145l-.025-.045h0c-.486-.869-1.06-1.896-2.3-3.08-1.252-1.198-3.172-2.47-4.805-3.455a60.049 60.049 0 00-2.864-1.618l-.044-.022-.01-.006-.003-.001h0l-.612-.316.487-.483s0 0 0 0l.002-.001.006-.007.011-.012c.019-.02.05-.054.096-.108.092-.108.243-.29.467-.58.438-.568 1.154-1.543 2.263-3.171.021-2.54-2.167-4.225-4.657-5.31a21.137 21.137 0 00-3.439-1.129 22.173 22.173 0 00-1.389-.287 10.542 10.542 0 00-2.009 1.88c-1.212 1.47-2.672 3.9-3.583 7.714-.859 3.593 1.532 7.04 4.54 9.719a29.141 29.141 0 004.393 3.2c.658.39 1.244.702 1.708.923.482.228.793.34.92.366l.29.056.09.28c.276.856.7 1.441 1.048 1.81a3.604 3.604 0 00.562.484l.015.01.013.008.003.001h0l.001.001.528.301-.401.46h0l-.377-.328m.458 4.692s0 0 0 0l-.085.493.085-.493zm0 0c-.459-.078-.845-.456-1.07-1.022-.225-.569-.232-1.201-.05-1.619a7.876 7.876 0 01.95-1.613 3.8 3.8 0 01.069-.086l.016-.02.003-.003-.376-.329m0 0l-.248.434h0-.002l-.002-.002-.006-.003-.017-.01a1.78 1.78 0 01-.03-.02l-1.563-2.992c.387 1.199 1.044 1.925 1.467 2.293l.013-.016.007-.008.003-.003v-.001h0l.378.328zm0 0l.248-.434h0l-.248.434zm-7.605-26.968s0 0 0 0h0zm8.724 31.701l-.004.002a.013.013 0 01.004-.002z" stroke="#000" stroke-opacity=".56"/><path opacity=".12" fill-rule="evenodd" clip-rule="evenodd" d="M21.867 66.778c.422 3.889 2.911 7.27 5.397 9.745-3.781-2.737-8.041-7.152-6.89-11.967 1.857-7.775 5.975-10 5.975-10s.679.097 1.68.341c-1.739 1.132-6.898 5.093-6.162 11.88z" fill="#000"/><path fill-rule="evenodd" clip-rule="evenodd" d="M22.24 54.556c.91-.367 4.986-.88 9.712 3.333 4.725 4.213 5.602 7.037 5.602 7.037s4.427-11.029-.373-14.445c-4.8-3.415-14.505 1.595-14.94 4.075z" fill="#fff"/><path d="M37.693 63c-.07.224-.137.432-.2.619a14.147 14.147 0 00-.55-.906c-.836-1.272-2.266-3.064-4.659-5.197-3.797-3.386-7.242-3.843-9.09-3.667.285-.329.685-.687 1.185-1.053 1.004-.734 2.366-1.465 3.868-2.019 1.502-.554 3.122-.922 4.644-.949 1.523-.027 2.913.288 4 1.06 1.056.752 1.634 1.94 1.88 3.376.247 1.438.152 3.077-.098 4.642a29.626 29.626 0 01-.98 4.094z" stroke="#000" stroke-opacity=".56"/><path opacity=".12" fill-rule="evenodd" clip-rule="evenodd" d="M34.77 49.487c-2.603.636-6.382 2.064-8.43 5.18-2.07-.571-3.587-.318-4.1-.111.372-2.113 7.468-6.058 12.53-5.07z" fill="#000"/><path fill-rule="evenodd" clip-rule="evenodd" d="M55.89 62.849c.008-.097 0-.115-.006.021 0-.006.004-.014.005-.021-.026.302-.212 1.39-1.121 1.103-.56-.176-.161-1.028.372-1.442.234-.182 1.182-.615 1.86-.361-.646.03-1.077.474-1.11.7zM41.744 48.083c-.607-.078-.744 1.082-.744 1.082s-.056-2.204.744-2.164c.8.04.744 1.803.744 1.803s-.137-.644-.744-.721z" fill="#000"/><path d="M48.962 30.493s4.335-9.672 10.023 0m3.222 2.617s.053-5.065-3.165-6.012c-3.217-.947-6.027 1.473-6.027 2.477M40.08 44.38l1.676-4.435 1.15 4.942 2.576-5.342.06 5.807m4.44-2.882s-3.423-.064-3.423 3.572m-3.761-1.106s.823.26 1.165 1.147m-1.161 3.471c-.944.277-1.575-.144-1.575-.144m10.379-7.828s4.238 4.028 4.562 4.758c.323.73-.909 3.983-2.087 3.983-1.178 0-2.41-1.824-3.515-2.019-1.104-.195-1.515.206-1.515.206" stroke="#000" stroke-opacity=".56"/><path d="M46.528 45.009s6.524 1.221 8.91 4.113c2.387-.655 6.085.41 6.98 1.724m-4.194-5.92s-.89 1.55-2.015 1.217m1.81.597s3.037-1.06 3.785-.53c.748.53 1.406 2.236 1.406 2.236m-8.109 1.361s4.27.698 4.153 2.861c-.118 2.163-2.753 2.093-3.68 1.702M44.773 65.027l-4.07 4.407-2.572-4.364m17.029-.218v6.199l-2.092-1.424m21.105 12.399s-.468 1.182.002 1.997c.47.814 2.277 3.141 1.358 4.119-.92.977-3.034.303-4.509-2.225-.623-1.069-1.816-.368-1.816-.368m-39.135 35.572s5.636 4.638 17.743 1.925m14.377-2.582s-7.286 1.895-13.223-.564" stroke="#000" stroke-opacity=".56"/><path fill-rule="evenodd" clip-rule="evenodd" d="M34.22 37.509c-.31 2.037 3.35 4.008 3.768 4.17-4.047 1.152-6.754-1.034-8.189-2.774a24.491 24.491 0 01-4.799.467c-8.837 0-16-4.56-16-10.186S16.163 19 25 19s16 4.56 16 10.186c0 3.44-2.68 6.478-6.78 8.323z" fill="#fff" stroke="#C9CCD0"/><path d="M15.719 26.363V32h1.933c1.676 0 2.66-1.043 2.66-2.82 0-1.774-.988-2.817-2.66-2.817H15.72zm.703.633h1.183c1.25 0 1.989.813 1.989 2.192 0 1.375-.73 2.18-1.989 2.18h-1.183v-4.372zm5.715 1.473v-2.106h-.625v2.106h.625zm3.062 3.605c1.2 0 1.942-.828 1.942-2.18 0-1.355-.743-2.18-1.942-2.18-1.199 0-1.941.825-1.941 2.18 0 1.352.742 2.18 1.941 2.18zm0-.605c-.797 0-1.246-.578-1.246-1.575 0-1 .45-1.574 1.246-1.574.797 0 1.246.575 1.246 1.575 0 .996-.449 1.574-1.246 1.574zm3.035.531h.672v-2.492c0-.711.414-1.188 1.168-1.188.637 0 .973.371.973 1.117V32h.672v-2.727c0-.988-.563-1.558-1.453-1.558-.645 0-1.086.273-1.297.738h-.063v-2.336h-.672V32zm4.93-5.64l.066 3.765h.649l.066-3.766h-.78zm.395 5.71a.52.52 0 00.539-.543.522.522 0 00-.54-.547.524.524 0 00-.542.547c0 .317.226.543.543.543z" fill="#797C80"/></svg>