<svg width="76" height="119" viewBox="0 0 76 119" xmlns="http://www.w3.org/2000/svg" xmlns:xlink="http://www.w3.org/1999/xlink"><defs><path id="path-1" d="M29.767 43.125h3.35l.371 3-2.604.375z"/><path d="M42.79 38.625s5.114 4.303 4.838 7.125c-.144 1.471-3.857 2.222-7.442 2.25-3.585.028-7.645-.424-8.93-3.75-.138 2.004-.372 2.625-.372 2.625L23.814 45l3.349-7.5 15.628 1.125z" id="path-3"/><path d="M37.21 7.5s7.501 9.18 7.813 15.75c.37 7.779-2.232 15-2.232 15s-5.624 3.201-14.14-.75c-.27-4.864-2.604-24.75-2.604-24.75L37.209 7.5z" id="path-5"/><path id="path-7" d="M12.28 48.75l3.348-.75-1.86-3-2.977 1.5z"/><path d="M10.79 38.25s-2.863 4.112-3.348 9.375c3.453 1.514 4.837 1.5 4.837 1.5l1.116-1.5s2.986 3.3 10.047 3c5.648-.24 6.44-1.086 6.698-2.25.256-1.164-.396-4.066-3.721-7.125-3.326-3.059-15.628-3-15.628-3z" id="path-9"/><path d="M38.326 7.5s-3.263 5.882-10.047 8.25c.62 1.52 3.918 8.863 3.349 12.75-.569 3.887-4.093 13.125-4.093 13.125S19.584 44.561 10.047 39c1.4-4.117 3.089-8.726 2.604-12.75C11.462 16.381.25 11.21 0 0c7.814 1.467 38.326 7.5 38.326 7.5z" id="path-11"/><path d="M12.703 6.375c.202 1.239.545.995-1.868 3.375-2.412 2.38-7.472-3.375-7.472-3.375s9.139-1.239 9.34 0z" id="path-13"/><path d="M10.462 6s4.412 10.6 14.945 10.5c3.177-.07 3.086-1.323 4.857-1.125 1.77.198 3.766 1.828 3.362 3.375-.403 1.547-2.4 1.003-3.362.75-.722.52-1.673 1.372-1.495 2.25.178.878 2.863 1.42 3.363 2.625.5 1.204.624 2.331 0 3.375s-1.686 1.13-2.616.75c-.93-.38-.747-2.625-.747-2.625l-2.242 1.5s1.144 1.93.748 3c-.397 1.07-2.684 3.24-4.11 2.25-1.426-.99 0-3.375 0-3.375l-.747-1.5s-11.123-1.948-14.945-6.375C3.65 16.948.747 9 .747 9l9.715-3z" id="path-15"/><path d="M13.077 6.375S7.34 5.41 2.989 11.25C-1.362 17.09.374.375.374.375S5.353-.014 7.099.75c1.746.764 5.978 5.625 5.978 5.625z" id="path-17"/><path d="M26.833 15.704c-.052 2.702-.389 2.992-.389 2.992s.33 1.548-.777 2.991c-1.108 1.443-2.723 1.87-2.723 1.87l-1.166 2.617-7 12.713L10.888 43 0 30.287l1.167-6.357s1.288-1.574 2.63-3.954c-1.044-.62-2.194-1.704-1.075-3.15.89-1.149 1.747-1.079 2.391-.712.574-5.82.106-18.743 14.72-15.366 11.803 2.727 7.053 12.242 7 14.956z" id="path-19"/><path d="M18.667 25.426c1.44.263 3.11-.374 3.11-.374s1.015 2.167 1.167 3.365c.153 1.199-.18 2.294 0 2.992.18.697.75.856 0 2.243s-1.876.58-2.333 1.122c-.457.541-1.328 1.669-2.333 1.122-1.005-.547-.38-.357-1.167-.374-.787-.017-7.129 1.566-9.722-1.87-2.594-3.435-2.005-6.228-.778-7.852 1.227-1.624 3.796-3.27 6.222-2.991 2.427.279 4.467 2.368 5.834 2.617z" id="path-21"/><path d="M2.241 5.185c.76 1.976 3.092 9.858 14.958 10.75 1.115-3.8-1.808-8.135-4.5-9.639C10.007 4.793 5.072 4 2.24 5.186z" id="path-23"/><path d="M6.35 5.556s10.318 1.479 10.084 7.407c-2.32 3.413-2.988 4.074-2.988 4.074s5.253 2.71 7.843 5.185c2.59 2.476 2.415 4.324 4.109 5.185 1.693.862 3.408.794 4.482 2.223 1.073 1.428 1.8 4.082 0 4.814-1.802.733-2.988-2.592-2.988-2.592s-3.006.172-3.362 1.481c-.355 1.31-.073 3.996 0 4.445.073.448-.496 1.893-1.867 1.852-1.372-.041-2.367-.281-2.241-1.852.125-1.571-.002-2.526 0-3.334.002-.807-1.831-.767-2.241 0-.41.768-.613 1.237-1.12 2.593-.363.968-.18 1.337-1.495 1.111-1.38-.237-1.987-2.2-1.494-3.333a7.829 7.829 0 011.12-1.852s-1.262-.72-1.867-2.593c-1.562-.304-13.81-7.04-11.952-14.814 1.858-7.775 5.976-10 5.976-10z" id="path-25"/><path d="M2.241 5.556c.909-.367 4.985-.88 9.71 3.333 4.726 4.213 5.603 7.037 5.603 7.037s4.427-11.029-.373-14.445C12.38-1.934 2.676 3.076 2.24 5.556z" id="path-27"/><mask id="mask-2" maskContentUnits="userSpaceOnUse" maskUnits="objectBoundingBox" x="0" y="0" width="3.721" height="3.375" fill="#fff"><use xlink:href="#path-1"/></mask><mask id="mask-4" maskContentUnits="userSpaceOnUse" maskUnits="objectBoundingBox" x="0" y="0" width="23.825" height="10.501" fill="#fff"><use xlink:href="#path-3"/></mask><mask id="mask-6" maskContentUnits="userSpaceOnUse" maskUnits="objectBoundingBox" x="0" y="0" width="19.013" height="31.974" fill="#fff"><use xlink:href="#path-5"/></mask><mask id="mask-8" maskContentUnits="userSpaceOnUse" maskUnits="objectBoundingBox" x="0" y="0" width="4.837" height="3.75" fill="#fff"><use xlink:href="#path-7"/></mask><mask id="mask-10" maskContentUnits="userSpaceOnUse" maskUnits="objectBoundingBox" x="0" y="0" width="22.748" height="12.394" fill="#fff"><use xlink:href="#path-9"/></mask><mask id="mask-12" maskContentUnits="userSpaceOnUse" maskUnits="objectBoundingBox" x="0" y="0" width="38.326" height="42.399" fill="#fff"><use xlink:href="#path-11"/></mask><mask id="mask-14" maskContentUnits="userSpaceOnUse" maskUnits="objectBoundingBox" x="0" y="0" width="9.483" height="4.503" fill="#fff"><use xlink:href="#path-13"/></mask><mask id="mask-16" maskContentUnits="userSpaceOnUse" maskUnits="objectBoundingBox" x="0" y="0" width="32.932" height="26.878" fill="#fff"><use xlink:href="#path-15"/></mask><mask id="mask-18" maskContentUnits="userSpaceOnUse" maskUnits="objectBoundingBox" x="0" y="0" width="13.045" height="12.212" fill="#fff"><use xlink:href="#path-17"/></mask><mask id="mask-20" maskContentUnits="userSpaceOnUse" maskUnits="objectBoundingBox" x="0" y="0" width="27.822" height="42.806" fill="#fff"><use xlink:href="#path-19"/></mask><mask id="mask-22" maskContentUnits="userSpaceOnUse" maskUnits="objectBoundingBox" x="0" y="0" width="17.755" height="13.264" fill="#fff"><use xlink:href="#path-21"/></mask><mask id="mask-24" maskContentUnits="userSpaceOnUse" maskUnits="objectBoundingBox" x="0" y="0" width="15.201" height="11.322" fill="#fff"><use xlink:href="#path-23"/></mask><mask id="mask-26" maskContentUnits="userSpaceOnUse" maskUnits="objectBoundingBox" x="0" y="0" width="30.792" height="34.075" fill="#fff"><use xlink:href="#path-25"/></mask><mask id="mask-28" maskContentUnits="userSpaceOnUse" maskUnits="objectBoundingBox" x="0" y="0" width="17.174" height="15.599" fill="#fff"><use xlink:href="#path-27"/></mask></defs><g id="Export" stroke="none" stroke-width="1" fill="none" fill-rule="evenodd"><g id="Illustrations" fill="#000"><g id="Img-/-Homer" transform="translate(-8 -18)"><g id="Group" stroke-width="1" fill="none" transform="translate(18 86)"><use id="Shape" stroke="#000" mask="url(#mask-2)" stroke-width="2" fill="#333B33" xlink:href="#path-1"/><use id="Boot-B" stroke-opacity=".58" stroke="#000" mask="url(#mask-4)" stroke-width="2" fill="#404840" xlink:href="#path-3"/><use id="Leg-B" stroke-opacity=".57" stroke="#000" mask="url(#mask-6)" stroke-width="2" fill="#73A6CC" xlink:href="#path-5"/><path d="M30.512 16.125c2.941 4.8 5.166 14.238-.372 26.25-1.166 2.529-1.109 3.637-.792 4.125l-5.534-2.625 1.488-32.625L35.721 9s.9 3.954-5.21 7.125z" id="Shade-Leg-B" fill="#000" opacity=".12"/><use id="Heel-F" stroke="#000" mask="url(#mask-8)" stroke-width="2" fill="#333B33" xlink:href="#path-7"/><use id="Boot-F" stroke-opacity=".58" stroke="#000" mask="url(#mask-10)" stroke-width="2" fill="#404840" xlink:href="#path-9"/><use id="Leg-F" stroke-opacity=".58" stroke="#000" mask="url(#mask-12)" stroke-width="2" fill="#73A6CC" xlink:href="#path-11"/><path d="M15.628 28.5c-1.074 9.803-2.977 12.375-2.977 12.375s-3.878 1.544-2.629 7.745a27.465 27.465 0 01-2.58-.995c.353-3.828 1.96-7.038 2.813-8.509-.07-.04-.139-.075-.208-.116 1.4-4.117 3.089-8.726 2.604-12.75C11.462 16.381.25 11.21 0 0c.844.159 1.954.37 3.26.622C.56 8.446 16.914 16.762 15.628 28.5z" id="Shade-Leg-F" fill="#000" opacity=".12"/></g><g id="Group" stroke-width="1" fill="none" transform="translate(50 63)"><use id="Shape" stroke="#000" mask="url(#mask-14)" stroke-width="2" fill="#FFF" xlink:href="#path-13"/><use id="Shape" stroke-opacity=".58" stroke="#000" mask="url(#mask-16)" stroke-width="2" fill="#FFD90D" xlink:href="#path-15"/><path d="M16.066 24.375c3.657.745 5.08 2.263 5.632 3.235-2.52-.516-10.99-2.487-14.225-6.235-.75-.868-1.463-1.872-2.127-2.924l-.862-4.576s5.961 9.354 11.582 10.5z" id="Shape" fill="#000" opacity=".12"/><use id="Shape" stroke-opacity=".58" stroke="#000" mask="url(#mask-18)" stroke-width="2" fill="#FFF" xlink:href="#path-17"/></g><g id="Group" stroke-width="1" fill="none" transform="translate(38 29)"><use id="Shape" stroke-opacity=".58" stroke="#000" mask="url(#mask-20)" stroke-width="2" fill="#FFD90D" xlink:href="#path-19"/><use id="Shape" stroke-opacity=".58" stroke="#000" mask="url(#mask-22)" stroke-width="2" fill="#D9A659" xlink:href="#path-21"/><path d="M5.444 18.322c.06 5.076-3.294 7.469-4.767 8.273l.49-2.665s1.907-2.328 3.5-5.608C6.018 15.539 3.727 1.996 13.41.358c-1.575 1.537-3.344 3.514-4.077 5.25-1.455 3.451-3.926 9.49-3.889 12.714zm5.056 1.121c-2.082-.978-1.168-7.958 4.278-6.356-2.844 1.349-4.027 4.51-4.278 6.356zM6.611 25.8c1.055-1.396 3.1-2.804 5.194-2.997-2.2.838-4.686 2.611-4.805 6.362-.116 3.646 3.153 5.64 6.2 6.705-2.075.002-4.455-.422-5.811-2.218-2.594-3.435-2.005-6.228-.778-7.852z" id="Shape" fill="#000" opacity=".12"/></g><g id="Group" stroke-width="1" fill="none" transform="translate(16 55)"><path d="M8.6 15.046s-5.519 2.9-8.226 11.009c-.526 2.704 5.848 12.342 22.435 13.578C39.395 40.869 43 37.064 43 37.064s.066-12.962-5.983-17.981c.47-3.357 0-8.808 0-8.808l-4.113 5.505-3.739-6.239L21.687 0 8.974 14.679" id="Shape" stroke-opacity=".58" stroke="#000" fill="#FFF"/><path d="M22.06 8.807l-2.617 5.505-4.113 9.541S7.21 20.61 4.487 23.12c-1.884 1.737-2.235 5.283-2.272 7.306C.779 28.583.2 26.944.374 26.055 3.08 17.945 8.6 15.045 8.6 15.045l.374-.366L16.056 6.5l6.005 2.306z" id="Shape" fill="#000" opacity=".12"/></g><g id="Group" stroke-width="1" fill="none" transform="translate(20 49)"><use id="Shape" stroke-opacity=".58" stroke="#000" mask="url(#mask-24)" stroke-width="2" fill="#FFF" xlink:href="#path-23"/><use id="Shape" stroke-opacity=".58" stroke="#000" mask="url(#mask-26)" stroke-width="2" fill="#FFD90D" xlink:href="#path-25"/><path d="M1.867 17.778c.423 3.889 2.911 7.27 5.397 9.745-3.781-2.737-8.041-7.152-6.89-11.967 1.857-7.775 5.975-10 5.975-10s.679.097 1.68.341C6.29 7.029 1.131 10.99 1.867 17.777z" id="Shape" fill="#000" opacity=".12"/><use id="Shape" stroke-opacity=".58" stroke="#000" mask="url(#mask-28)" stroke-width="2" fill="#FFF" xlink:href="#path-27"/><path d="M14.77.487c-2.603.636-6.382 2.064-8.43 5.18-2.07-.571-3.587-.318-4.099-.111.37-2.113 7.467-6.058 12.53-5.07z" id="Shape" fill="#000" opacity=".12"/></g><path d="M55.89 62.849c.008-.097 0-.115-.006.021 0-.006.004-.014.005-.021-.026.302-.212 1.39-1.121 1.103-.56-.176-.161-1.028.372-1.442.234-.183 1.182-.615 1.86-.361-.646.03-1.077.474-1.11.7zM41.744 48.083c-.607-.078-.744 1.082-.744 1.082s-.056-2.204.744-2.164c.8.04.744 1.803.744 1.803s-.137-.644-.744-.721z" id="Shape"/><g id="Outlines" stroke-width="1" fill="none" transform="translate(30 26)" stroke-opacity=".56" stroke="#000"><path d="M18.962 4.493s4.335-9.672 10.023 0" id="Path-162"/><path d="M32.207 7.11s.052-5.065-3.165-6.012C25.825.15 23.014 2.57 23.014 3.575" id="Path-163"/><path id="Path-164" d="M10.08 18.38l1.676-4.435 1.15 4.942 2.576-5.342.06 5.807"/><path d="M19.982 16.47s-3.423-.064-3.423 3.572" id="Path-165"/><path d="M12.798 18.936s.824.26 1.165 1.147" id="Path-166"/><path d="M21.607 15.582s4.237 4.028 4.56 4.758c.324.73-.908 3.983-2.086 3.983s-2.41-1.824-3.514-2.019c-1.104-.195-1.516.206-1.516.206" id="Path-168"/><path d="M16.528 19.009s6.524 1.221 8.91 4.113c2.387-.655 6.085.41 6.98 1.724" id="Path-169"/><path d="M28.224 18.926s-.89 1.55-2.015 1.217" id="Path-170"/><path d="M28.02 20.74s3.036-1.06 3.784-.53c.748.53 1.406 2.237 1.406 2.237" id="Path-171"/><path d="M25.101 23.808s4.27.697 4.153 2.86c-.118 2.163-2.753 2.093-3.68 1.702" id="Path-172"/><path id="Path-173" d="M14.773 39.027l-4.07 4.407-2.572-4.364"/><path id="Path-174" d="M25.16 38.852v6.199l-2.092-1.424"/><path d="M44.172 56.026s-.467 1.182.003 1.997c.47.814 2.277 3.141 1.358 4.119-.92.977-3.034.303-4.509-2.225-.623-1.069-1.816-.368-1.816-.368" id="Path-175"/><path d="M.073 95.121s5.636 4.638 17.744 1.925" id="Path-176"/><path d="M32.192 94.464S24.906 96.36 18.97 93.9" id="Path-177"/></g><path d="M34.22 37.509c-.31 2.037 3.35 4.008 3.768 4.17-4.047 1.152-6.754-1.034-8.189-2.774a24.495 24.495 0 01-4.799.467c-8.837 0-16-4.56-16-10.186S16.163 19 25 19s16 4.56 16 10.186c0 3.44-2.68 6.478-6.78 8.323h0z" id="Shape" stroke="#C9CCD0" stroke-width="1" fill="#FFF"/><text id="Блин!" fill="none" font-family="HelveticaNeue, Helvetica Neue" font-size="8" font-weight="normal"><tspan x="15" y="32" fill="#797C80">Блин!</tspan></text></g></g></g></svg>