<svg width="16" height="16" viewBox="0 0 16 16" fill="none" xmlns="http://www.w3.org/2000/svg">
<g clip-path="url(#clip0_457_11016)">
<rect width="16" height="16" fill="#F6F5F4"/>
<rect x="-4" y="-6" width="24" height="24" fill="#514B43"/>
<rect x="-3" y="-5" width="22" height="22" fill="#F6F5F4"/>
<path fill-rule="evenodd" clip-rule="evenodd" d="M1 15H15V16H1V15ZM8 13C6.473 13 5.109 11.833 4.192 10H5.299C5.511 10.367 5.75 10.677 6 10.953V0L7 -1V11.728C7.321 11.887 7.652 12 8 12C8.348 12 8.679 11.887 9 11.728V-1L10 0V10.953C10.25 10.677 10.489 10.367 10.701 10H11.808C10.891 11.833 9.527 13 8 13Z" fill="#514B43"/>
<path fill-rule="evenodd" clip-rule="evenodd" d="M1.08205 0.584347C-0.477113 0.0756093 -1.57813 -0.0215695 -3.73107 0.55531C-3.76136 0.542641 -3.97531 -0.398675 -3.99086 -0.414252C-1.09289 -1.19076 -0.00396878 -0.907613 1.21143 -0.689864C2.30052 -0.494745 3.49116 -0.35214 6.17599 -1.07154L6.69453 0.863709C5.47669 1.19003 2.64122 1.09309 1.08205 0.584347Z" fill="#514B43"/>
<path fill-rule="evenodd" clip-rule="evenodd" d="M14.6125 0.584347C16.1717 0.0756093 17.2727 -0.0215695 19.4257 0.55531C19.4559 0.542641 19.6699 -0.398675 19.6854 -0.414252C16.7875 -1.19076 15.6985 -0.907613 14.4832 -0.689864C13.3941 -0.494745 12.2034 -0.35214 9.51859 -1.07154L9.00005 0.863709C10.2179 1.19003 13.0534 1.09309 14.6125 0.584347Z" fill="#514B43"/>
<path fill-rule="evenodd" clip-rule="evenodd" d="M14.5 3C13.672 3 13 2.328 13 1.5C13 0.672 13.672 0 14.5 0C15.328 0 16 0.672 16 1.5C16 2.328 15.328 3 14.5 3ZM1.5 3C0.672 3 0 2.328 0 1.5C0 0.672 0.672 0 1.5 0C2.328 0 3 0.672 3 1.5C3 2.328 2.328 3 1.5 3Z" fill="#514B43"/>
<path fill-rule="evenodd" clip-rule="evenodd" d="M15 8C12.239 8 10 5.761 10 3C10 0.239 12.239 -2 15 -2C17.761 -2 20 0.239 20 3C20 5.761 17.761 8 15 8ZM15 -1C12.791 -1 11 0.791 11 3C11 5.209 12.791 7 15 7C17.209 7 19 5.209 19 3C19 0.791 17.209 -1 15 -1ZM1 8C-1.761 8 -4 5.761 -4 3C-4 0.239 -1.761 -2 1 -2C3.761 -2 6 0.239 6 3C6 5.761 3.761 8 1 8ZM1 -1C-1.209 -1 -3 0.791 -3 3C-3 5.209 -1.209 7 1 7C3.209 7 5 5.209 5 3C5 0.791 3.209 -1 1 -1Z" fill="#514B43"/>
</g>
<defs>
<clipPath id="clip0_457_11016">
<rect width="16" height="16" fill="white"/>
</clipPath>
</defs>
</svg>
