<svg xmlns="http://www.w3.org/2000/svg" xmlns:xlink="http://www.w3.org/1999/xlink"><symbol fill="none" viewBox="0 0 20 20" id="icon-attachment" xmlns="http://www.w3.org/2000/svg"><path d="M12.25 6.25l-4.875 4.875a1.59 1.59 0 102.25 2.25L14.5 8.5A3.182 3.182 0 1010 4L5.125 8.875a4.773 4.773 0 006.75 6.75l4.875-4.875" stroke="var(--icon-stroke)" stroke-width="var(--icon-stroke-width)" stroke-linecap="round" stroke-linejoin="round"/></symbol><symbol fill="none" viewBox="0 0 20 20" id="icon-chevron-down" xmlns="http://www.w3.org/2000/svg"><path d="M6 8l4 4 4-4" stroke="var(--icon-stroke)" stroke-width="var(--icon-stroke-width)" stroke-linecap="round" stroke-linejoin="round"/></symbol><symbol fill="none" viewBox="0 0 20 20" id="icon-chevron-left" xmlns="http://www.w3.org/2000/svg"><path d="M12 14l-4-4 4-4" stroke="var(--icon-stroke)" stroke-width="var(--icon-stroke-width)" stroke-linecap="round" stroke-linejoin="round"/></symbol><symbol fill="none" viewBox="0 0 20 20" id="icon-chevron-right" xmlns="http://www.w3.org/2000/svg"><path d="M8 14l4-4-4-4" stroke="var(--icon-stroke)" stroke-width="var(--icon-stroke-width)" stroke-linecap="round" stroke-linejoin="round"/></symbol><symbol fill="none" viewBox="0 0 20 20" id="icon-company" xmlns="http://www.w3.org/2000/svg"><path d="M10 17a7 7 0 100-14 7 7 0 000 14z" stroke="var(--icon-stroke)" stroke-width="var(--icon-stroke-width)" stroke-linecap="round" stroke-linejoin="round"/><path d="M8 13V7h2.333a1.666 1.666 0 110 3.333H8m1.5 0L12 13" stroke="var(--icon-stroke)" stroke-width="var(--icon-stroke-width)" stroke-linecap="round" stroke-linejoin="round"/></symbol><symbol fill="none" viewBox="0 0 20 20" id="icon-facebook" xmlns="http://www.w3.org/2000/svg"><path d="M11 17v-7m3-4h-1a2 2 0 00-2 2v2m0 0H9.5m1.5 0h2.5" stroke="var(--icon-stroke)" stroke-width="var(--icon-stroke-width)" stroke-linecap="round"/><rect x="3" y="3" width="14" height="14" rx="1" stroke="var(--icon-stroke)" stroke-width="var(--icon-stroke-width)" stroke-linejoin="round"/></symbol><symbol fill="none" viewBox="0 0 20 20" id="icon-flag-ru" xmlns="http://www.w3.org/2000/svg"><path fill="#F6F5F4" d="M2.5 5h15v11h-15z"/><path fill="#F13B10" d="M2.5 12h15v4h-15z"/><path fill="#007AC4" d="M2.5 9h15v3h-15z"/><path fill-rule="evenodd" clip-rule="evenodd" d="M2.5 5h15v11h-15V5zm1 1h13v9h-13V6z" fill="#000" fill-opacity=".12"/></symbol><symbol fill="none" viewBox="0 0 20 20" id="icon-flag-us" xmlns="http://www.w3.org/2000/svg"><path fill="#F6F5F4" d="M2 5h15v11H2z"/><path fill-rule="evenodd" clip-rule="evenodd" d="M10 5h7v1h-7V5zm0 2h7v1h-7V7zm0 2h7v1h-7V9zm0 2h7v1h-7v-1zm-8 2h15v1H2v-1zm0 2h15v1H2v-1z" fill="#CD1D28"/><path fill="#0E2E64" d="M2 5h8v7H2z"/><path fill-rule="evenodd" clip-rule="evenodd" d="M3 5h1v1H3V5zm2 0h1v1H5V5zm2 0h1v1H7V5zm2 0h1v1H9V5zM4 6h1v1H4V6zM2 6h1v1H2V6zm4 0h1v1H6V6zm2 0h1v1H8V6zM5 7h1v1H5V7zM3 7h1v1H3V7zm4 0h1v1H7V7zm2 0h1v1H9V7zM4 8h1v1H4V8zM2 8h1v1H2V8zm4 0h1v1H6V8zm2 0h1v1H8V8zM5 9h1v1H5V9zM3 9h1v1H3V9zm4 0h1v1H7V9zm2 0h1v1H9V9zm-5 1h1v1H4v-1zm-2 0h1v1H2v-1zm4 0h1v1H6v-1zm2 0h1v1H8v-1zm-3 1h1v1H5v-1zm-2 0h1v1H3v-1zm4 0h1v1H7v-1zm2 0h1v1H9v-1z" fill="#8799B7"/><path fill-rule="evenodd" clip-rule="evenodd" d="M2 5h15v11H2V5zm1 1h13v9H3V6z" fill="#000" fill-opacity=".12"/></symbol><symbol fill="none" viewBox="0 0 20 20" id="icon-hamburger" xmlns="http://www.w3.org/2000/svg"><path stroke="var(--icon-stroke)" stroke-width="var(--icon-stroke-width)" stroke-linecap="round" d="M15 5H5M15 10H5M15 15H5"/></symbol><symbol fill="none" viewBox="0 0 20 20" id="icon-linkedin" xmlns="http://www.w3.org/2000/svg"><path d="M15.25 3H4.75A1.75 1.75 0 003 4.75v10.5c0 .966.784 1.75 1.75 1.75h10.5A1.75 1.75 0 0017 15.25V4.75A1.75 1.75 0 0015.25 3zM7 9.167v4.166M7 6.667v.008M10 13.333V9.167" stroke="var(--icon-stroke)" stroke-width="var(--icon-stroke-width)" stroke-linecap="round" stroke-linejoin="round"/><path d="M13 13.333v-2.5c0-.442-.158-.866-.44-1.178a1.428 1.428 0 00-1.06-.488c-.398 0-.78.175-1.06.488-.282.312-.44.736-.44 1.178" stroke="var(--icon-stroke)" stroke-width="var(--icon-stroke-width)" stroke-linecap="round" stroke-linejoin="round"/></symbol><symbol fill="none" viewBox="0 0 20 20" id="icon-loader" xmlns="http://www.w3.org/2000/svg"><path d="M10 5.5V3.25M13.188 6.812L14.8 5.2M14.5 10h2.25M13.188 13.188L14.8 14.8M10 14.5v2.25M6.812 13.188L5.2 14.8M5.5 10H3.25M6.812 6.812L5.2 5.2" stroke="var(--icon-stroke)" stroke-width="var(--icon-stroke-width)" stroke-linecap="round" stroke-linejoin="round"/></symbol><symbol fill="none" viewBox="0 0 20 20" id="icon-mail" xmlns="http://www.w3.org/2000/svg"><path d="M4 5l6 5 6-5" stroke="var(--icon-stroke)" stroke-width="var(--icon-stroke-width)" stroke-linecap="round" stroke-linejoin="round"/><rect x="3" y="4" width="14" height="12" rx="1" stroke="var(--icon-stroke)" stroke-width="var(--icon-stroke-width)"/></symbol><symbol fill="none" viewBox="0 0 36 36" id="icon-md-alert" xmlns="http://www.w3.org/2000/svg"><path d="M6.346 31H29.69a3.309 3.309 0 001.558-.403c.479-.26.887-.635 1.19-1.092a3.39 3.39 0 00.32-3.136L20.919 5.738a3.353 3.353 0 00-1.224-1.271 3.31 3.31 0 00-3.388 0 3.353 3.353 0 00-1.224 1.27L3.245 26.37a3.4 3.4 0 00.276 3.076 3.35 3.35 0 001.134 1.101c.46.27.977.426 1.508.454" fill="#E0E000"/><path d="M6.346 31H29.69a3.309 3.309 0 001.558-.403c.479-.26.887-.635 1.19-1.092a3.39 3.39 0 00.32-3.136L20.919 5.738a3.353 3.353 0 00-1.224-1.271 3.31 3.31 0 00-3.388 0 3.353 3.353 0 00-1.224 1.27L3.245 26.37a3.4 3.4 0 00.276 3.076 3.35 3.35 0 001.134 1.101c.46.27.977.426 1.508.454M18 11.5v7m0 6v.015" stroke="#949400" stroke-width="2" stroke-linecap="round" stroke-linejoin="round"/></symbol><symbol fill="none" viewBox="0 0 36 36" id="icon-md-chevron-left" xmlns="http://www.w3.org/2000/svg"><path d="M25 4L11 18l14 14" stroke="var(--icon-stroke)" stroke-width="var(--icon-stroke-width)" stroke-linecap="round" stroke-linejoin="round"/></symbol><symbol fill="none" viewBox="0 0 36 36" id="icon-md-chevron-right" xmlns="http://www.w3.org/2000/svg"><path d="M11 4l14 14-14 14" stroke="var(--icon-stroke)" stroke-width="var(--icon-stroke-width)" stroke-linecap="round" stroke-linejoin="round"/></symbol><symbol fill="none" viewBox="0 0 36 36" id="icon-md-swipe" xmlns="http://www.w3.org/2000/svg"><path d="M28.706 17.693c-.46 0-.874.197-1.161.511l-2.904 3.357a1.572 1.572 0 01-2.758-1.032l-.66-16.953a1.575 1.575 0 00-3.143-.158l-.915 12.25-6.915 3.06a3.129 3.129 0 00-1.855 3.29l1.239 9.277A3.127 3.127 0 0012.733 34h7.596c1.19 0 2.221-.662 2.751-1.636l6.993-12.316a1.574 1.574 0 00-1.367-2.355z" fill="var(--icon-fill)"/><path d="M24.416 5.544a28.643 28.643 0 017.857 2.493.422.422 0 01.24.45l-.424 3.2a.42.42 0 01-.619.317 24.79 24.79 0 00-6.774-2.444l-.28-4.016zM3.123 10.806v.002a.427.427 0 00-.123.298c0 .218.168.4.37.4l8.1 1.13a.423.423 0 00.456-.55l-.55-1.606a25.002 25.002 0 013.034-.86l.152-4.005a26.18 26.18 0 00-4.46 1.204L9.54 5.117a.426.426 0 00-.698-.155V4.96l-5.72 5.846z" fill="var(--icon-fill)"/></symbol><symbol fill="none" viewBox="0 0 20 20" id="icon-message" xmlns="http://www.w3.org/2000/svg"><path d="M3 5a2 2 0 012-2h10a2 2 0 012 2v8a2 2 0 01-2 2h-2.5L10 17l-2.5-2H5a2 2 0 01-2-2V5z" stroke="var(--icon-stroke)" stroke-width="var(--icon-stroke-width)" stroke-linejoin="round"/><path stroke="var(--icon-stroke)" stroke-width="var(--icon-stroke-width)" stroke-linecap="round" d="M13 7H7M11 11H7"/></symbol><symbol fill="none" viewBox="0 0 20 20" id="icon-modal" xmlns="http://www.w3.org/2000/svg"><path d="M10 17a7 7 0 100-14 7 7 0 000 14zM11.5 8.5L8 12" stroke="var(--icon-stroke)" stroke-width="var(--icon-stroke-width)" stroke-linecap="round" stroke-linejoin="round"/><path d="M12 12V8H8" stroke="var(--icon-stroke)" stroke-width="var(--icon-stroke-width)" stroke-linecap="round" stroke-linejoin="round"/></symbol><symbol fill="none" viewBox="0 0 20 20" id="icon-phone" xmlns="http://www.w3.org/2000/svg"><path d="M14 3H6c-.552 0-1 .392-1 .875v12.25c0 .483.448.875 1 .875h8c.552 0 1-.392 1-.875V3.875C15 3.392 14.552 3 14 3zM9 4h2M10 14v.01" stroke="var(--icon-stroke)" stroke-width="var(--icon-stroke-width)" stroke-linecap="round" stroke-linejoin="round"/></symbol><symbol fill="none" viewBox="0 0 20 20" id="icon-pocket" xmlns="http://www.w3.org/2000/svg"><path d="M4.556 3h10.888c.413 0 .809.174 1.1.482.292.31.456.728.456 1.165v4.941c0 1.966-.738 3.851-2.05 5.241C13.637 16.22 11.857 17 10 17c-1.857 0-3.637-.78-4.95-2.17C3.737 13.44 3 11.553 3 9.587v-4.94c0-.438.164-.857.456-1.166A1.513 1.513 0 014.556 3z" stroke="var(--icon-stroke)" stroke-width="var(--icon-stroke-width)" stroke-linecap="round" stroke-linejoin="round"/><path d="M6.667 8L10 11.333 13.333 8" stroke="var(--icon-stroke)" stroke-width="var(--icon-stroke-width)" stroke-linecap="round" stroke-linejoin="round"/></symbol><symbol fill="none" viewBox="0 0 20 20" id="icon-rss" xmlns="http://www.w3.org/2000/svg"><path d="M4 17a1 1 0 100-2 1 1 0 000 2zM3 3a14 14 0 0114 14M3 9.125A7.875 7.875 0 0110.875 17" stroke="var(--icon-stroke)" stroke-width="var(--icon-stroke-width)" stroke-linecap="round" stroke-linejoin="round"/></symbol><symbol fill="none" viewBox="0 0 20 20" id="icon-search" xmlns="http://www.w3.org/2000/svg"><path d="M8 13A5 5 0 108 3a5 5 0 000 10zM17 17l-5-5" stroke="var(--icon-stroke)" stroke-width="var(--icon-stroke-width)" stroke-linecap="round" stroke-linejoin="round"/></symbol><symbol fill="none" viewBox="0 0 20 20" id="icon-share" xmlns="http://www.w3.org/2000/svg"><path d="M7.5 9H6.25C5.56 9 5 9.448 5 10v6c0 .552.56 1 1.25 1h7.5c.69 0 1.25-.448 1.25-1v-6c0-.552-.56-1-1.25-1H12.5" stroke="var(--icon-stroke)" stroke-width="var(--icon-stroke-width)"/><path d="M10 14V3m0 0L6.5 6.5M10 3l3.5 3.5" stroke="var(--icon-stroke)" stroke-width="var(--icon-stroke-width)" stroke-linejoin="round"/></symbol><symbol fill="none" viewBox="0 0 20 20" id="icon-tag" xmlns="http://www.w3.org/2000/svg"><path d="M13.167 7.667a.833.833 0 110-1.667.833.833 0 010 1.667z" stroke="var(--icon-stroke)" stroke-width="var(--icon-stroke-width)" stroke-linecap="round" stroke-linejoin="round"/><path d="M17 5.47V8.65c0 .442-.175.866-.488 1.179l-6.684 6.684a1.667 1.667 0 01-2.359 0L3.49 12.53a1.668 1.668 0 010-2.359l6.684-6.684A1.668 1.668 0 0111.351 3h3.178A2.47 2.47 0 0117 5.47z" stroke="var(--icon-stroke)" stroke-width="var(--icon-stroke-width)" stroke-linecap="round" stroke-linejoin="round"/></symbol><symbol fill="none" viewBox="0 0 20 20" id="icon-task" xmlns="http://www.w3.org/2000/svg"><path d="M12 3v3a1 1 0 001 1h3" stroke="var(--icon-stroke)" stroke-width="var(--icon-stroke-width)" stroke-linecap="round" stroke-linejoin="round"/><path d="M14.286 18H5.714a1.74 1.74 0 01-1.212-.488A1.643 1.643 0 014 16.333V4.667c0-.442.18-.866.502-1.179A1.74 1.74 0 015.714 3H12l4 4v9.333c0 .442-.18.866-.502 1.179a1.74 1.74 0 01-1.212.488z" stroke="var(--icon-stroke)" stroke-width="var(--icon-stroke-width)" stroke-linecap="round" stroke-linejoin="round"/><path d="M7.5 12.5l1.667 1.667 3.333-3.334" stroke="var(--icon-stroke)" stroke-width="var(--icon-stroke-width)" stroke-linecap="round" stroke-linejoin="round"/></symbol><symbol fill="none" viewBox="0 0 20 20" id="icon-telegram" xmlns="http://www.w3.org/2000/svg"><path d="M12.333 8.667l-3.11 3.11 4.666 4.667L17 4 3 9.444 6.111 11l1.556 4.667L10 12.556" stroke="var(--icon-stroke)" stroke-width="var(--icon-stroke-width)" stroke-linecap="round" stroke-linejoin="round"/></symbol><symbol fill="none" viewBox="0 0 20 20" id="icon-twitter" xmlns="http://www.w3.org/2000/svg"><path d="M17 4.077c-.7.343-1.386.482-2.1.692-.785-.884-1.948-.933-3.066-.515-1.118.418-1.85 1.44-1.834 2.611v.699c-2.271.058-4.295-.975-5.6-2.795 0 0-2.927 5.193 2.8 7.685-1.31.872-2.617 1.46-4.2 1.398 2.316 1.26 4.84 1.692 7.024 1.06 2.506-.727 4.565-2.602 5.356-5.41a9.651 9.651 0 00.347-2.622c-.001-.174 1.057-1.936 1.273-2.803v0z" stroke="var(--icon-stroke)" stroke-width="var(--icon-stroke-width)" stroke-linecap="round" stroke-linejoin="round"/></symbol><symbol fill="none" viewBox="0 0 20 20" id="icon-user" xmlns="http://www.w3.org/2000/svg"><path d="M10 17a7 7 0 100-14 7 7 0 000 14z" stroke="var(--icon-stroke)" stroke-width="var(--icon-stroke-width)" stroke-linecap="round" stroke-linejoin="round"/><path d="M10 10.5a2 2 0 100-4 2 2 0 000 4z" stroke="var(--icon-stroke)" stroke-width="var(--icon-stroke-width)" stroke-linecap="round" stroke-linejoin="round"/><path stroke="var(--icon-stroke)" stroke-width="var(--icon-stroke-width)" d="M4 14h12"/></symbol><symbol fill="none" viewBox="0 0 20 20" id="icon-vk" xmlns="http://www.w3.org/2000/svg"><path d="M8.333 5H10v10c-3.75-.833-6.667-5.417-7.5-10M16.667 5c-.834 1.667-2.5 4.167-4.167 5H10M16.667 15c-.834-1.667-2.5-4.167-4.167-5" stroke="var(--icon-stroke)" stroke-width="var(--icon-stroke-width)" stroke-linecap="round" stroke-linejoin="round"/></symbol><symbol fill="none" viewBox="0 0 20 20" id="icon-whatsapp" xmlns="http://www.w3.org/2000/svg"><path d="M3 16.987l1.283-2.956a7.002 7.002 0 015.605-11.03A6.995 6.995 0 0116.93 9.01a7.002 7.002 0 01-5.079 7.741 6.994 6.994 0 01-4.925-.464l-3.926.7z" stroke="var(--icon-stroke)" stroke-width="var(--icon-stroke-width)" stroke-linecap="round" stroke-linejoin="round"/><path d="M7.5 8.333a.417.417 0 10.833 0V7.5a.417.417 0 10-.833 0v.833zm0 0a4.167 4.167 0 004.167 4.167m0 0h.833a.417.417 0 100-.833h-.833a.417.417 0 000 .833z" stroke="var(--icon-stroke)" stroke-width="var(--icon-stroke-width)" stroke-linecap="round" stroke-linejoin="round"/></symbol><symbol fill="none" viewBox="0 0 20 20" id="icon-x-mark" xmlns="http://www.w3.org/2000/svg"><path d="M14 6l-8 8m0-8l8 8" stroke="var(--icon-stroke)" stroke-width="var(--icon-stroke-width)" stroke-linecap="round" stroke-linejoin="round"/></symbol></svg>