<svg width="32" height="32" viewBox="0 0 32 32" xmlns="http://www.w3.org/2000/svg"><path d="M22.416 3.544a28.642 28.642 0 017.857 2.493.421.421 0 01.24.45l-.424 3.2a.426.426 0 01-.42.37.42.42 0 01-.199-.052 24.793 24.793 0 00-6.774-2.445l-.28-4.016zm4.29 12.149c-.46 0-.874.197-1.161.511l-2.904 3.357a1.572 1.572 0 01-2.758-1.032l-.66-16.953a1.575 1.575 0 00-3.143-.158l-.915 12.25-6.915 3.06a3.129 3.129 0 00-1.855 3.29l1.239 9.277A3.127 3.127 0 0010.733 32h7.596c1.19 0 2.221-.662 2.751-1.636l6.993-12.316a1.574 1.574 0 00-1.367-2.355zM1.123 8.808v-.002l5.72-5.846v.002a.425.425 0 01.697.155l.562 1.702c1.446-.534 2.93-.93 4.46-1.204l-.152 4.006a25.018 25.018 0 00-3.034.859l.55 1.607a.423.423 0 01-.456.55l-8.1-1.132c-.202 0-.37-.18-.37-.399 0-.116.048-.221.123-.298z" fill="#B5B8BC" fill-rule="evenodd"/></svg>