<svg xmlns="http://www.w3.org/2000/svg" xmlns:xlink="http://www.w3.org/1999/xlink" width="2560" height="1058" viewBox="0 0 2560 1058">
  <defs>
    <path id="bg-front-md-a" d="M2039.16274,0 L2560.00029,0 L2560.00029,687.180151 C2320.80894,642.545091 2074.12877,619.206822 1822.00029,619.206822 C1165.76426,619.206822 546.437818,777.311577 -2.27373675e-13,1057.52472 L0.00028533029,185.359732 C255.412402,377.364769 572.925321,491.145212 917.0003,491.145212 C1360.5861,491.145212 1760.02391,302.034253 2039.16274,5.68434189e-14 Z"/>
    <mask id="bg-front-md-b" width="2560" height="1057.525" x="0" y="0" fill="#fff">
      <use xlink:href="#bg-front-md-a"/>
    </mask>
  </defs>
  <g fill="none" fill-rule="evenodd">
    <use fill="#F2B200" stroke="#D99900" stroke-dasharray="4 4" stroke-width="2" mask="url(#bg-front-md-b)" xlink:href="#bg-front-md-a"/>
    <path fill="#F2B200" stroke="#E5A600" d="M920,736.5 C928.560414,736.5 935.5,729.560414 935.5,721 C935.5,712.439586 928.560414,705.5 920,705.5 C911.439586,705.5 904.5,712.439586 904.5,721 C904.5,729.560414 911.439586,736.5 920,736.5 Z"/>
    <path fill="#FFBF0D" d="M920,729 C924.418278,729 928,725.418278 928,721 C928,716.581722 924.418278,713 920,713 C915.581722,713 912,716.581722 912,721 C912,725.418278 915.581722,729 920,729 Z"/>
    <path fill="#F2B200" d="M1786,225 C1792.62742,225 1798,219.627417 1798,213 C1798,206.372583 1792.62742,201 1786,201 C1779.37258,201 1774,206.372583 1774,213 C1774,219.627417 1779.37258,225 1786,225 Z"/>
    <path fill="#E5A600" d="M1790,225 C1794.41828,225 1798,221.418278 1798,217 C1798,212.581722 1794.41828,209 1790,209 C1785.58172,209 1782,212.581722 1782,217 C1782,221.418278 1785.58172,225 1790,225 Z"/>
    <path fill="#F2B200" fill-rule="nonzero" d="M1336,431.792302 L1336,490 L1064,490 L1064,483.111485 C1157.37635,474.160384 1248.29825,456.798632 1336,431.792286 Z"/>
  </g>
</svg>
