<svg xmlns="http://www.w3.org/2000/svg" xmlns:xlink="http://www.w3.org/1999/xlink" width="370" height="192" viewBox="0 0 370 192">
  <defs>
    <path id="bg-services-design-marketing-a" d="M59.5,238 C92.3609426,238 119,211.360943 119,178.5 C119,145.639057 92.3609426,119 59.5,119 C26.6390574,119 0,145.639057 0,178.5 C0,211.360943 26.6390574,238 59.5,238 Z"/>
    <mask id="bg-services-design-marketing-b" width="119" height="119" x="0" y="0" fill="#fff">
      <use xlink:href="#bg-services-design-marketing-a"/>
    </mask>
  </defs>
  <g fill="none" fill-rule="evenodd">
    <use stroke="#FFF" stroke-dasharray="2" stroke-opacity=".4" stroke-width="2" mask="url(#bg-services-design-marketing-b)" xlink:href="#bg-services-design-marketing-a"/>
    <circle cx="60" cy="179" r="23" fill="#FFF" fill-opacity=".16"/>
    <circle cx="60" cy="179" r="37" fill="#FFF" fill-opacity=".16"/>
    <circle cx="177" cy="35" r="37" fill="#FFF" fill-opacity=".16"/>
    <circle cx="117.5" cy="96.5" r="59.5" fill="#FFF" fill-opacity=".2"/>
    <path fill="#FFF" fill-opacity=".2" d="M177.5,237 C144.639057,237 118,210.360943 118,177.5 C118,144.639057 144.639057,118 177.5,118 C210.360943,118 237,144.639057 237,177.5 C237,210.360943 210.360943,237 177.5,237 Z M178,215 C198.434536,215 215,198.434536 215,178 C215,157.565464 198.434536,141 178,141 C157.565464,141 141,157.565464 141,178 C141,198.434536 157.565464,215 178,215 Z"/>
    <path fill="#FFCC19" fill-rule="nonzero" d="M192.767,161.31 L185.08,158 L168.921,158 L161.234,161.31 L155,168.462 L177.002,198 L199.001,168.462 L192.767,161.311 L192.767,161.31 Z M195.001,167.89 L189.433,172 L185.001,165.838 L191.236,163 L195.001,167.89 Z M188.001,175 L167.001,175 L171.304,167 L183.698,167 L188.001,175 Z M182.944,160.002 L189.001,162.384 L182.919,165 L170.083,165 L164.001,162.384 L169.991,160 L182.944,160.002 Z M161.766,163 L168.001,165.838 L163.569,172 L158.001,167.89 L161.766,163 Z M160.001,173 L163.836,175.85 L173.001,190 L160.001,173 Z M167.001,177 L187.001,177 L177.002,195 L167.001,177 Z M181.001,190 L190.166,175.85 L194.001,173 L181.001,190 Z"/>
    <g fill="#E5A600" fill-rule="nonzero" transform="translate(37 156)">
      <path d="M3.94285714,23.6913143 C3.94285714,31.5218286 8.50605714,38.2641143 15.0433143,41.4644 L5.64617143,15.6557714 C4.52169848,18.1853697 3.94138614,20.9230469 3.94285714,23.6913143 Z M36.9708571,22.6701143 C36.9708571,20.2176571 36.0850286,18.5169714 35.3358857,17.2224 C34.3146857,15.5874286 33.4301714,14.2258286 33.4301714,12.5908571 C33.4301714,10.7521714 34.7917714,9.11851429 36.7658286,9.11851429 L37.0378857,9.11851429 C33.4972,5.91822857 28.8669714,3.94285714 23.6913143,3.94285714 C16.8136571,3.94285714 10.7521714,7.48354286 7.21148571,12.8642286 L8.50605714,12.8642286 C10.5484571,12.8642286 13.7500571,12.5908571 13.7500571,12.5908571 C14.8382857,12.5225143 14.9066286,14.0891429 13.8854286,14.2258286 C13.8854286,14.2258286 12.7945714,14.3612 11.638,14.4295429 L18.7206857,35.8129714 L23.0105143,22.8738286 L19.9456,14.4295429 C18.8560571,14.3612 17.9032,14.2258286 17.9032,14.2258286 C16.8123429,14.1574857 16.9490286,12.5225143 18.0385714,12.5908571 C18.0385714,12.5908571 21.3072,12.8642286 23.2142286,12.8642286 C25.2579429,12.8642286 28.4582286,12.5908571 28.4582286,12.5908571 C29.5477714,12.5225143 29.6148,14.0891429 28.5936,14.2258286 C28.5936,14.2258286 27.5040571,14.3612 26.3461714,14.4295429 L33.4972,35.6079429 L35.4725714,29.0023429 C36.4254286,26.4828571 36.9708571,24.3721143 36.9708571,22.6701143 Z M23.9633714,25.3933143 L18.0385714,42.5539429 C19.8102286,43.0993714 21.6489143,43.3714286 23.6242857,43.3714286 C25.9374286,43.3714286 28.1178286,42.964 30.1602286,42.2818857 C30.0918857,42.2135429 30.0918857,42.0781714 30.0248571,42.0098286 L23.9633714,25.3933143 Z M40.9202857,14.2258286 C40.9886286,14.8382857 41.0556571,15.5190857 41.0556571,16.2682286 C41.0556571,18.2436 40.6482286,20.4910286 39.5573714,23.3509143 L33.5642286,40.7836 C39.422,37.3796 43.3714286,31.0447429 43.3714286,23.7596571 C43.3714286,20.286 42.4856,17.0173714 40.9202857,14.2258286 Z"/>
      <path d="M0,23 C0,35.6565714 10.2750857,46 23,46 C35.6565714,46 46,35.7249143 46,23 C46,10.3434286 35.7249143,0 23,0 C10.2750857,0 0,10.3434286 0,23 Z M1.0212,23 C1.0212,10.8875429 10.8192,1.08822857 22.9316571,1.08822857 C35.0441143,1.08822857 44.8434286,10.8875429 44.8434286,23 C44.8434286,35.1124571 34.9757714,44.9117714 22.9316571,44.9117714 C10.8875429,44.9117714 1.0212,35.1124571 1.0212,23 Z"/>
    </g>
    <circle cx="118" cy="97" r="23" fill="#FFF" fill-opacity=".16"/>
    <path fill="#E5A600" d="M273,192 C326.019336,192 369,149.019336 369,96 C369,42.980664 326.019336,0 273,0 C219.980664,0 177,42.980664 177,96 C177,149.019336 219.980664,192 273,192 Z"/>
    <g fill-rule="nonzero" transform="translate(96 156)">
      <polygon fill="#FFBF0D" points="0 0 45 0 45 44 0 44"/>
      <polygon fill="#EDAD00" points="4 4 42 4 42 41 4 41"/>
      <path fill="#FFBF0D" d="M11,12.078 C11,12.078 13.815,12 16.132,12 C18.472,12 20.142,12.578 21.262,13.594 C22.334,14.554 23.056,16.189 23.056,18.052 C23.056,19.914 22.508,21.438 21.512,22.51 C20.216,23.893 18.707,24.71 16.132,24.824 C15.42,24.856 14.762,24.863 14.762,24.863 L14.762,30.917 L11,30.917 L11,12.077 L11,12.078 Z M14.761,21.508 C15.17,21.55 15.426,21.53 16.031,21.523 C18.05,21.497 19.295,20.21 19.295,18.263 C19.295,16.513 18.268,15.078 16.331,15.003 C15.559,14.973 14.761,15.003 14.761,15.003 L14.761,21.509 L14.761,21.508 Z M24.491,26.699 C25.25,27.187 27.039,27.919 28.258,27.919 C29.504,27.919 30.018,27.458 30.018,26.739 C30.018,26.02 29.612,25.265 28.068,24.719 C25.332,23.741 24.275,22.571 24.303,20.933 C24.303,18.288 26.415,16.303 29.693,16.303 C31.237,16.303 32.471,16.833 33.283,17.265 L33.283,20.44 C32.687,20.094 30.966,19.323 29.829,19.323 C28.826,19.323 28.257,19.754 28.257,20.473 C28.257,21.134 28.772,21.479 30.397,22.083 C32.917,23.003 33.973,24.353 34,26.423 C34,29.04 32.078,31.121 28.257,30.995 C26.947,30.951 25.494,30.408 24.492,29.833 L24.492,26.7 L24.491,26.699 Z"/>
    </g>
    <g fill-rule="nonzero" transform="translate(153 13)">
      <rect width="14.324" height="42.646" x="9.732" y=".851" fill="#FFCC19" rx="7.162" transform="rotate(30 16.894 22.174)"/>
      <rect width="14.324" height="42.646" x="23.969" y=".745" fill="#E5A600" rx="7.162" transform="rotate(-30 31.131 22.068)"/>
      <circle cx="9.911" cy="34.333" r="7.261" fill="#EDAD00"/>
    </g>
    <g fill-rule="nonzero" transform="translate(102 81)">
      <path fill="#E5A600" d="M32.0000251,25 L32,2.002 C32.0026609,1.47195825 31.7939653,0.96271245 31.4201041,0.586974377 C31.0462428,0.211236305 30.5380484,-6.67897228e-06 30.008,0 L22.992,0 C21.8902332,0.00550339937 20.9999863,0.90021943 21,2.002 L21,25 L32.0000251,25 Z"/>
      <path fill="#D99900" d="M32,29.998 C32,31.104 31.1,32 30.008,32 L21,32 L21,11 L32,21 L32,29.998 Z"/>
      <path fill="#FFBF0D" d="M11.992,11 C10.8922765,11.0038488 10.0021938,11.895272 10,12.995 L10,21 L2,21 C0.89,21 0,21.892 0,22.992 L0,30.008 C0,31.1 0.895,32 2,32 L21,32 L21,11 L11.992,11 Z"/>
    </g>
  </g>
</svg>
