<svg width="371" height="192" viewBox="0 0 371 192" fill="none" xmlns="http://www.w3.org/2000/svg">
<g id="bg-services-design-marketing" clip-path="url(#clip0_547_9298)">
<circle id="oval-5" cx="60" cy="178.5" r="59" stroke="white" stroke-opacity="0.4" stroke-dasharray="2"/>
<circle id="oval-4" cx="60.5" cy="179" r="23" fill="white" fill-opacity="0.16"/>
<circle id="oval-4_2" cx="60.5" cy="179" r="37" fill="white" fill-opacity="0.16"/>
<circle id="oval-4_3" cx="177.5" cy="35" r="37" fill="white" fill-opacity="0.16"/>
<circle id="oval-3" cx="118" cy="96.5" r="59.5" fill="white" fill-opacity="0.2"/>
<path id="ring" fill-rule="evenodd" clip-rule="evenodd" d="M178 237C210.861 237 237.5 210.361 237.5 177.5C237.5 144.639 210.861 118 178 118C145.139 118 118.5 144.639 118.5 177.5C118.5 210.361 145.139 237 178 237ZM178.5 215C198.935 215 215.5 198.435 215.5 178C215.5 157.565 198.935 141 178.5 141C158.065 141 141.5 157.565 141.5 178C141.5 198.435 158.065 215 178.5 215Z" fill="white" fill-opacity="0.2"/>
<path id="Sketch" fill-rule="evenodd" clip-rule="evenodd" d="M185.58 158L193.267 161.31V161.311L199.501 168.462L177.502 198L155.5 168.462L161.734 161.31L169.421 158H185.58ZM189.933 172L195.501 167.89L191.736 163L185.501 165.838L189.933 172ZM188.501 175H167.501L171.804 167H184.198L188.501 175ZM189.501 162.384L183.444 160.002L170.491 160L164.501 162.384L170.583 165H183.419L189.501 162.384ZM162.266 163L168.501 165.838L164.069 172L158.501 167.89L162.266 163ZM164.336 175.85L160.501 173L173.501 190L164.336 175.85ZM167.501 177H187.501L177.502 195L167.501 177ZM190.666 175.85L181.501 190L194.501 173L190.666 175.85Z" fill="#FFA323"/>
<g id="Wp">
<path id="Shape" fill-rule="evenodd" clip-rule="evenodd" d="M72.8359 173.222C73.585 174.517 74.4709 176.218 74.4709 178.67C74.4709 180.372 73.9254 182.483 72.9726 185.002L70.9972 191.608L63.8462 170.43C65.0041 170.361 66.0936 170.226 66.0936 170.226C67.1148 170.089 67.0478 168.523 65.9582 168.591C65.9582 168.591 62.758 168.864 60.7142 168.864C58.8072 168.864 55.5386 168.591 55.5386 168.591C54.449 168.523 54.3124 170.157 55.4032 170.226C55.4032 170.226 56.3561 170.361 57.4456 170.43L60.5105 178.874L56.2207 191.813L49.138 170.43C50.2946 170.361 51.3854 170.226 51.3854 170.226C52.4066 170.089 52.3383 168.523 51.2501 168.591C51.2501 168.591 48.0485 168.864 46.0061 168.864H44.7115C48.2522 163.484 54.3137 159.943 61.1913 159.943C66.367 159.943 70.9972 161.918 74.5379 165.119H74.2658C72.2918 165.119 70.9302 166.752 70.9302 168.591C70.9302 170.174 71.76 171.502 72.7401 173.069L72.8359 173.222ZM52.5433 197.464C46.0061 194.264 41.4429 187.522 41.4429 179.691C41.4414 176.923 42.0217 174.185 43.1462 171.656L52.5433 197.464ZM61.4634 181.393L55.5386 198.554C57.3102 199.099 59.1489 199.371 61.1243 199.371C63.4374 199.371 65.6178 198.964 67.6602 198.282C67.6258 198.247 67.6087 198.196 67.5917 198.145C67.5749 198.094 67.5581 198.044 67.5249 198.01L61.4634 181.393ZM78.5557 172.268C78.5557 171.519 78.4886 170.838 78.4203 170.226C79.9856 173.017 80.8714 176.286 80.8714 179.76C80.8714 187.045 76.922 193.38 71.0642 196.784L77.0574 179.351C78.1482 176.491 78.5557 174.244 78.5557 172.268Z" fill="#F18D00"/>
<path id="Shape_2" fill-rule="evenodd" clip-rule="evenodd" d="M60.5 202C47.7751 202 37.5 191.657 37.5 179C37.5 166.343 47.7751 156 60.5 156C73.2249 156 83.5 166.343 83.5 179C83.5 191.725 73.1566 202 60.5 202ZM60.4317 157.088C48.3192 157.088 38.5212 166.888 38.5212 179C38.5212 191.112 48.3875 200.912 60.4317 200.912C72.4758 200.912 82.3434 191.112 82.3434 179C82.3434 166.888 72.5441 157.088 60.4317 157.088Z" fill="#F18D00"/>
</g>
<circle id="oval-4_4" cx="118.5" cy="97" r="23" fill="white" fill-opacity="0.16"/>
<circle id="Oval" cx="273.5" cy="96" r="96" fill="#FF9D14"/>
<circle id="Oval_2" cx="274" cy="96.5" r="59" stroke="white" stroke-opacity="0.4" stroke-dasharray="2"/>
<g id="Ps">
<path id="Shape_3" d="M96.5 156H141.5V200H96.5V156Z" fill="#FFAF3E"/>
<path id="Shape_4" d="M100.5 160H138.5V197H100.5V160Z" fill="#F18D00"/>
<path id="Shape_5" fill-rule="evenodd" clip-rule="evenodd" d="M107.5 168.078C107.5 168.078 110.315 168 112.632 168C114.972 168 116.642 168.578 117.762 169.594C118.834 170.554 119.556 172.189 119.556 174.052C119.556 175.914 119.008 177.438 118.012 178.51C116.716 179.893 115.207 180.71 112.632 180.824C111.92 180.856 111.262 180.863 111.262 180.863V186.917H107.5V168.078ZM112.159 177.529H112.159C112.268 177.527 112.39 177.525 112.531 177.523C114.55 177.497 115.795 176.21 115.795 174.263C115.795 172.513 114.768 171.078 112.831 171.003C112.059 170.973 111.261 171.003 111.261 171.003V177.508C111.575 177.54 111.799 177.536 112.159 177.529ZM124.758 183.919C123.539 183.919 121.75 183.187 120.991 182.699L120.992 182.7V185.833C121.994 186.408 123.447 186.951 124.757 186.995C128.578 187.121 130.5 185.04 130.5 182.423C130.473 180.353 129.417 179.003 126.897 178.083C125.272 177.479 124.757 177.134 124.757 176.473C124.757 175.754 125.326 175.323 126.329 175.323C127.466 175.323 129.187 176.094 129.783 176.44V173.265C128.971 172.833 127.737 172.303 126.193 172.303C122.915 172.303 120.803 174.288 120.803 176.933C120.775 178.571 121.832 179.741 124.568 180.719C126.112 181.265 126.518 182.02 126.518 182.739C126.518 183.458 126.004 183.919 124.758 183.919Z" fill="#FFAF3E"/>
</g>
<g id="google ads">
<rect id="Rectangle-path" x="174.854" y="13.1267" width="14.3242" height="42.646" rx="7.16211" transform="rotate(30 174.854 13.1267)" fill="#FFA323"/>
<rect id="Rectangle-path_2" x="167.767" y="20.1825" width="14.3242" height="42.646" rx="7.16211" transform="rotate(-30 167.767 20.1825)" fill="#F18D00"/>
<circle id="Oval_3" cx="163.411" cy="47.3326" r="7.26135" fill="#F18D00"/>
</g>
<g id="GA">
<path id="Shape_6" d="M134.5 106V83.002C134.503 82.472 134.294 81.9627 133.92 81.587C133.546 81.2112 133.038 81 132.508 81H125.492C124.39 81.0055 123.5 81.9002 123.5 83.002V106H134.5Z" fill="#F18D00"/>
<path id="Shape_7" d="M134.5 110.998C134.5 112.104 133.6 113 132.508 113H123.5V92L134.5 102V110.998Z" fill="#E08300"/>
<path id="Shape_8" d="M114.492 92C113.392 92.0038 112.502 92.8953 112.5 93.995V102H104.5C103.39 102 102.5 102.892 102.5 103.992V111.008C102.5 112.1 103.395 113 104.5 113H123.5V92H114.492V92Z" fill="#FFAF3E"/>
</g>
</g>
<defs>
<clipPath id="clip0_547_9298">
<rect width="370" height="192" fill="white" transform="translate(0.5)"/>
</clipPath>
</defs>
</svg>
