<svg width="370" height="192" viewBox="0 0 370 192" fill="none" xmlns="http://www.w3.org/2000/svg">
<g id="bg-services-design-marketing" clip-path="url(#clip0_547_9298)">
<circle id="oval-5" cx="59.5" cy="178.5" r="59" stroke="white" stroke-opacity="0.4" stroke-dasharray="2"/>
<circle id="oval-4" cx="60" cy="179" r="23" fill="white" fill-opacity="0.16"/>
<circle id="oval-4_2" cx="60" cy="179" r="37" fill="white" fill-opacity="0.16"/>
<circle id="oval-4_3" cx="177" cy="35" r="37" fill="white" fill-opacity="0.16"/>
<circle id="oval-3" cx="117.5" cy="96.5" r="59.5" fill="white" fill-opacity="0.2"/>
<path id="ring" fill-rule="evenodd" clip-rule="evenodd" d="M177.5 237C210.361 237 237 210.361 237 177.5C237 144.639 210.361 118 177.5 118C144.639 118 118 144.639 118 177.5C118 210.361 144.639 237 177.5 237ZM178 215C198.435 215 215 198.435 215 178C215 157.565 198.435 141 178 141C157.565 141 141 157.565 141 178C141 198.435 157.565 215 178 215Z" fill="white" fill-opacity="0.2"/>
<path id="Sketch" fill-rule="evenodd" clip-rule="evenodd" d="M185.08 158L192.767 161.31V161.311L199.001 168.462L177.002 198L155 168.462L161.234 161.31L168.921 158H185.08ZM189.433 172L195.001 167.89L191.236 163L185.001 165.838L189.433 172ZM188.001 175H167.001L171.304 167H183.698L188.001 175ZM189.001 162.384L182.944 160.002L169.991 160L164.001 162.384L170.083 165H182.919L189.001 162.384ZM161.766 163L168.001 165.838L163.569 172L158.001 167.89L161.766 163ZM163.836 175.85L160.001 173L173.001 190L163.836 175.85ZM167.001 177H187.001L177.002 195L167.001 177ZM190.166 175.85L181.001 190L194.001 173L190.166 175.85Z" fill="#FFA323"/>
<g id="Wp">
<path id="Shape" fill-rule="evenodd" clip-rule="evenodd" d="M72.3359 173.222C73.085 174.517 73.9709 176.218 73.9709 178.67C73.9709 180.372 73.4254 182.483 72.4726 185.002L70.4972 191.608L63.3462 170.43C64.5041 170.361 65.5936 170.226 65.5936 170.226C66.6148 170.089 66.5478 168.523 65.4582 168.591C65.4582 168.591 62.258 168.864 60.2142 168.864C58.3072 168.864 55.0386 168.591 55.0386 168.591C53.949 168.523 53.8124 170.157 54.9032 170.226C54.9032 170.226 55.8561 170.361 56.9456 170.43L60.0105 178.874L55.7207 191.813L48.638 170.43C49.7946 170.361 50.8854 170.226 50.8854 170.226C51.9066 170.089 51.8383 168.523 50.7501 168.591C50.7501 168.591 47.5485 168.864 45.5061 168.864H44.2115C47.7522 163.484 53.8137 159.943 60.6913 159.943C65.867 159.943 70.4972 161.918 74.0379 165.119H73.7658C71.7918 165.119 70.4302 166.752 70.4302 168.591C70.4302 170.174 71.26 171.502 72.2401 173.069L72.3359 173.222ZM52.0433 197.464C45.5061 194.264 40.9429 187.522 40.9429 179.691C40.9414 176.923 41.5217 174.185 42.6462 171.656L52.0433 197.464ZM60.9634 181.393L55.0386 198.554C56.8102 199.099 58.6489 199.371 60.6243 199.371C62.9374 199.371 65.1178 198.964 67.1602 198.282C67.1258 198.247 67.1087 198.196 67.0917 198.145C67.0749 198.094 67.0581 198.044 67.0249 198.01L60.9634 181.393ZM78.0557 172.268C78.0557 171.519 77.9886 170.838 77.9203 170.226C79.4856 173.017 80.3714 176.286 80.3714 179.76C80.3714 187.045 76.422 193.38 70.5642 196.784L76.5574 179.351C77.6482 176.491 78.0557 174.244 78.0557 172.268Z" fill="#F18D00"/>
<path id="Shape_2" fill-rule="evenodd" clip-rule="evenodd" d="M60 202C47.2751 202 37 191.657 37 179C37 166.343 47.2751 156 60 156C72.7249 156 83 166.343 83 179C83 191.725 72.6566 202 60 202ZM59.9317 157.088C47.8192 157.088 38.0212 166.888 38.0212 179C38.0212 191.112 47.8875 200.912 59.9317 200.912C71.9758 200.912 81.8434 191.112 81.8434 179C81.8434 166.888 72.0441 157.088 59.9317 157.088Z" fill="#F18D00"/>
</g>
<circle id="oval-4_4" cx="118" cy="97" r="23" fill="white" fill-opacity="0.16"/>
<circle id="Oval" cx="273" cy="96" r="96" fill="#FF9D14"/>
<g id="Ps">
<path id="Shape_3" d="M96 156H141V200H96V156Z" fill="#FFAF3E"/>
<path id="Shape_4" d="M100 160H138V197H100V160Z" fill="#F18D00"/>
<path id="Shape_5" fill-rule="evenodd" clip-rule="evenodd" d="M107 168.078C107 168.078 109.815 168 112.132 168C114.472 168 116.142 168.578 117.262 169.594C118.334 170.554 119.056 172.189 119.056 174.052C119.056 175.914 118.508 177.438 117.512 178.51C116.216 179.893 114.707 180.71 112.132 180.824C111.42 180.856 110.762 180.863 110.762 180.863V186.917H107V168.078ZM111.659 177.529H111.659C111.768 177.527 111.89 177.525 112.031 177.523C114.05 177.497 115.295 176.21 115.295 174.263C115.295 172.513 114.268 171.078 112.331 171.003C111.559 170.973 110.761 171.003 110.761 171.003V177.508C111.075 177.54 111.299 177.536 111.659 177.529ZM124.258 183.919C123.039 183.919 121.25 183.187 120.491 182.699L120.492 182.7V185.833C121.494 186.408 122.947 186.951 124.257 186.995C128.078 187.121 130 185.04 130 182.423C129.973 180.353 128.917 179.003 126.397 178.083C124.772 177.479 124.257 177.134 124.257 176.473C124.257 175.754 124.826 175.323 125.829 175.323C126.966 175.323 128.687 176.094 129.283 176.44V173.265C128.471 172.833 127.237 172.303 125.693 172.303C122.415 172.303 120.303 174.288 120.303 176.933C120.275 178.571 121.332 179.741 124.068 180.719C125.612 181.265 126.018 182.02 126.018 182.739C126.018 183.458 125.504 183.919 124.258 183.919Z" fill="#FFAF3E"/>
</g>
<g id="google ads">
<rect id="Rectangle-path" x="174.354" y="13.1267" width="14.3242" height="42.646" rx="7.16211" transform="rotate(30 174.354 13.1267)" fill="#FFA323"/>
<rect id="Rectangle-path_2" x="167.267" y="20.1825" width="14.3242" height="42.646" rx="7.16211" transform="rotate(-30 167.267 20.1825)" fill="#F18D00"/>
<circle id="Oval_2" cx="162.911" cy="47.3326" r="7.26135" fill="#F18D00"/>
</g>
<g id="GA">
<path id="Shape_6" d="M134 106V83.002C134.003 82.472 133.794 81.9627 133.42 81.587C133.046 81.2112 132.538 81 132.008 81H124.992C123.89 81.0055 123 81.9002 123 83.002V106H134Z" fill="#F18D00"/>
<path id="Shape_7" d="M134 110.998C134 112.104 133.1 113 132.008 113H123V92L134 102V110.998Z" fill="#E08300"/>
<path id="Shape_8" d="M113.992 92C112.892 92.0038 112.002 92.8953 112 93.995V102H104C102.89 102 102 102.892 102 103.992V111.008C102 112.1 102.895 113 104 113H123V92H113.992V92Z" fill="#FFAF3E"/>
</g>
</g>
<defs>
<clipPath id="clip0_547_9298">
<rect width="370" height="192" fill="white"/>
</clipPath>
</defs>
</svg>
