<svg xmlns="http://www.w3.org/2000/svg" width="309" height="192" viewBox="0 0 309 192">
  <g fill="none" fill-rule="evenodd">
    <g transform="translate(-2 -13)">
      <g transform="translate(31.591)">
        <polygon fill="#ECAD00" points="9.775 30.986 .988 22.199 .988 9.773 9.775 .986 22.202 .986 30.989 9.773 30.989 22.199 22.202 30.986"/>
        <circle cx="16" cy="16" r="10" fill="#F4B807"/>
      </g>
      <g transform="translate(17.591 28)">
        <polygon fill="#ECAD00" points="9.775 30.986 .988 22.199 .988 9.773 9.775 .986 22.202 .986 30.989 9.773 30.989 22.199 22.202 30.986"/>
        <circle cx="16" cy="16" r="10" fill="#F4B807"/>
      </g>
      <g transform="translate(4.591 58)">
        <polygon fill="#ECAD00" points="9.775 30.986 .988 22.199 .988 9.773 9.775 .986 22.202 .986 30.989 9.773 30.989 22.199 22.202 30.986"/>
        <circle cx="16" cy="16" r="10" fill="#F4B807"/>
      </g>
      <g transform="translate(.591 89)">
        <polygon fill="#ECAD00" points="9.775 30.986 .988 22.199 .988 9.773 9.775 .986 22.202 .986 30.989 9.773 30.989 22.199 22.202 30.986"/>
        <circle cx="16" cy="16" r="10" fill="#F4B807"/>
      </g>
      <g transform="translate(2.591 120)">
        <polygon fill="#ECAD00" points="9.775 30.986 .988 22.199 .988 9.773 9.775 .986 22.202 .986 30.989 9.773 30.989 22.199 22.202 30.986"/>
        <circle cx="16" cy="16" r="10" fill="#F4B807"/>
      </g>
      <g transform="translate(13.591 151)">
        <polygon fill="#ECAD00" points="9.775 30.986 .988 22.199 .988 9.773 9.775 .986 22.202 .986 30.989 9.773 30.989 22.199 22.202 30.986"/>
        <circle cx="16" cy="16" r="10" fill="#F4B807"/>
      </g>
      <g transform="translate(29.591 179)">
        <polygon fill="#ECAD00" points="9.775 30.986 .988 22.199 .988 9.773 9.775 .986 22.202 .986 30.989 9.773 30.989 22.199 22.202 30.986"/>
        <circle cx="16" cy="16" r="10" fill="#F4B807"/>
      </g>
      <g transform="translate(62.591)">
        <polygon fill="#ECAD00" points="9.775 30.986 .988 22.199 .988 9.773 9.775 .986 22.202 .986 30.989 9.773 30.989 22.199 22.202 30.986"/>
        <circle cx="16" cy="16" r="10" fill="#F4B807"/>
      </g>
      <g transform="translate(48.591 28)">
        <polygon fill="#ECAD00" points="9.775 30.986 .988 22.199 .988 9.773 9.775 .986 22.202 .986 30.989 9.773 30.989 22.199 22.202 30.986"/>
        <circle cx="16" cy="16" r="10" fill="#F4B807"/>
      </g>
      <g transform="translate(35.591 58)">
        <polygon fill="#ECAD00" points="9.775 30.986 .988 22.199 .988 9.773 9.775 .986 22.202 .986 30.989 9.773 30.989 22.199 22.202 30.986"/>
        <circle cx="16" cy="16" r="10" fill="#F4B807"/>
      </g>
      <g transform="translate(31.591 89)">
        <polygon fill="#ECAD00" points="9.775 30.986 .988 22.199 .988 9.773 9.775 .986 22.202 .986 30.989 9.773 30.989 22.199 22.202 30.986"/>
        <circle cx="16" cy="16" r="10" fill="#F4B807"/>
      </g>
      <g transform="translate(33.591 120)">
        <polygon fill="#ECAD00" points="9.775 30.986 .988 22.199 .988 9.773 9.775 .986 22.202 .986 30.989 9.773 30.989 22.199 22.202 30.986"/>
        <circle cx="16" cy="16" r="10" fill="#F4B807"/>
      </g>
      <g transform="translate(44.591 151)">
        <polygon fill="#ECAD00" points="9.775 30.986 .988 22.199 .988 9.773 9.775 .986 22.202 .986 30.989 9.773 30.989 22.199 22.202 30.986"/>
        <circle cx="16" cy="16" r="10" fill="#F4B807"/>
      </g>
      <g transform="translate(60.591 179)">
        <polygon fill="#ECAD00" points="9.775 30.986 .988 22.199 .988 9.773 9.775 .986 22.202 .986 30.989 9.773 30.989 22.199 22.202 30.986"/>
        <circle cx="16" cy="16" r="10" fill="#F4B807"/>
      </g>
      <g transform="translate(93.591)">
        <polygon fill="#ECAD00" points="9.775 30.986 .988 22.199 .988 9.773 9.775 .986 22.202 .986 30.989 9.773 30.989 22.199 22.202 30.986"/>
        <circle cx="16" cy="16" r="10" fill="#F4B807"/>
      </g>
      <g transform="translate(79.591 28)">
        <polygon fill="#ECAD00" points="9.775 30.986 .988 22.199 .988 9.773 9.775 .986 22.202 .986 30.989 9.773 30.989 22.199 22.202 30.986"/>
        <circle cx="16" cy="16" r="10" fill="#F4B807"/>
      </g>
      <g transform="translate(66.591 58)">
        <polygon fill="#ECAD00" points="9.775 30.986 .988 22.199 .988 9.773 9.775 .986 22.202 .986 30.989 9.773 30.989 22.199 22.202 30.986"/>
        <circle cx="16" cy="16" r="10" fill="#F4B807"/>
      </g>
      <g transform="translate(62.591 89)">
        <polygon fill="#ECAD00" points="9.775 30.986 .988 22.199 .988 9.773 9.775 .986 22.202 .986 30.989 9.773 30.989 22.199 22.202 30.986"/>
        <circle cx="16" cy="16" r="10" fill="#F4B807"/>
      </g>
      <g transform="translate(64.591 120)">
        <polygon fill="#ECAD00" points="9.775 30.986 .988 22.199 .988 9.773 9.775 .986 22.202 .986 30.989 9.773 30.989 22.199 22.202 30.986"/>
        <circle cx="16" cy="16" r="10" fill="#F4B807"/>
      </g>
      <g transform="translate(75.591 151)">
        <polygon fill="#ECAD00" points="9.775 30.986 .988 22.199 .988 9.773 9.775 .986 22.202 .986 30.989 9.773 30.989 22.199 22.202 30.986"/>
        <circle cx="16" cy="16" r="10" fill="#F4B807"/>
      </g>
      <g transform="translate(91.591 179)">
        <polygon fill="#ECAD00" points="9.775 30.986 .988 22.199 .988 9.773 9.775 .986 22.202 .986 30.989 9.773 30.989 22.199 22.202 30.986"/>
        <circle cx="16" cy="16" r="10" fill="#F4B807"/>
      </g>
      <g transform="translate(124.591)">
        <polygon fill="#ECAD00" points="9.775 30.986 .988 22.199 .988 9.773 9.775 .986 22.202 .986 30.989 9.773 30.989 22.199 22.202 30.986"/>
        <circle cx="16" cy="16" r="10" fill="#F4B807"/>
      </g>
      <g transform="translate(110.591 28)">
        <polygon fill="#ECAD00" points="9.775 30.986 .988 22.199 .988 9.773 9.775 .986 22.202 .986 30.989 9.773 30.989 22.199 22.202 30.986"/>
        <circle cx="16" cy="16" r="10" fill="#F4B807"/>
      </g>
      <g transform="translate(97.591 58)">
        <polygon fill="#ECAD00" points="9.775 30.986 .988 22.199 .988 9.773 9.775 .986 22.202 .986 30.989 9.773 30.989 22.199 22.202 30.986"/>
        <circle cx="16" cy="16" r="10" fill="#F4B807"/>
      </g>
      <g transform="translate(93.591 89)">
        <polygon fill="#ECAD00" points="9.775 30.986 .988 22.199 .988 9.773 9.775 .986 22.202 .986 30.989 9.773 30.989 22.199 22.202 30.986"/>
        <circle cx="16" cy="16" r="10" fill="#F4B807"/>
      </g>
      <g transform="translate(95.591 120)">
        <polygon fill="#ECAD00" points="9.775 30.986 .988 22.199 .988 9.773 9.775 .986 22.202 .986 30.989 9.773 30.989 22.199 22.202 30.986"/>
        <circle cx="16" cy="16" r="10" fill="#F4B807"/>
      </g>
      <g transform="translate(106.591 151)">
        <polygon fill="#ECAD00" points="9.775 30.986 .988 22.199 .988 9.773 9.775 .986 22.202 .986 30.989 9.773 30.989 22.199 22.202 30.986"/>
        <circle cx="16" cy="16" r="10" fill="#F4B807"/>
      </g>
      <g transform="translate(122.591 179)">
        <polygon fill="#ECAD00" points="9.775 30.986 .988 22.199 .988 9.773 9.775 .986 22.202 .986 30.989 9.773 30.989 22.199 22.202 30.986"/>
        <circle cx="16" cy="16" r="10" fill="#F4B807"/>
      </g>
    </g>
    <ellipse cx="86.5" cy="96.5" fill="#CC8C00" fill-opacity=".32" fill-rule="nonzero" rx="50.5" ry="85.5"/>
  </g>
</svg>
