<svg width="309" height="192" viewBox="0 0 309 192" fill="none" xmlns="http://www.w3.org/2000/svg">
<g id="bg-form-contact-digital-agency">
<g id="Flor" clip-path="url(#clip0_547_9917)">
<g id="Pattern" clip-path="url(#clip1_547_9917)">
<g id="Item">
<path id="Polygon" fill-rule="evenodd" clip-rule="evenodd" d="M39.3661 17.986L30.5791 9.19899V-3.22701L39.3661 -12.014H51.7931L60.5801 -3.22701V9.19899L51.7931 17.986H39.3661Z" fill="#F18D00"/>
<circle id="Oval" cx="45.5913" cy="3" r="10" fill="#FFA323"/>
</g>
<g id="Item_2">
<path id="Polygon_2" fill-rule="evenodd" clip-rule="evenodd" d="M25.3661 45.986L16.5791 37.199V24.773L25.3661 15.986H37.7931L46.5801 24.773V37.199L37.7931 45.986H25.3661Z" fill="#F18D00"/>
<circle id="Oval_2" cx="31.5913" cy="31" r="10" fill="#FFA323"/>
</g>
<g id="Item_3">
<path id="Polygon_3" fill-rule="evenodd" clip-rule="evenodd" d="M12.3661 75.986L3.5791 67.199V54.773L12.3661 45.986H24.7931L33.5801 54.773V67.199L24.7931 75.986H12.3661Z" fill="#F18D00"/>
<circle id="Oval_3" cx="18.5913" cy="61" r="10" fill="#FFA323"/>
</g>
<g id="Item_4">
<path id="Polygon_4" fill-rule="evenodd" clip-rule="evenodd" d="M8.3661 106.986L-0.420898 98.199V85.773L8.3661 76.986H20.7931L29.5801 85.773V98.199L20.7931 106.986H8.3661Z" fill="#F18D00"/>
<circle id="Oval_4" cx="14.5913" cy="92" r="10" fill="#FFA323"/>
</g>
<g id="Item_5">
<path id="Polygon_5" fill-rule="evenodd" clip-rule="evenodd" d="M10.3661 137.986L1.5791 129.199V116.773L10.3661 107.986H22.7931L31.5801 116.773V129.199L22.7931 137.986H10.3661Z" fill="#F18D00"/>
<circle id="Oval_5" cx="16.5913" cy="123" r="10" fill="#FFA323"/>
</g>
<g id="Item_6">
<path id="Polygon_6" fill-rule="evenodd" clip-rule="evenodd" d="M21.3661 168.986L12.5791 160.199V147.773L21.3661 138.986H33.7931L42.5801 147.773V160.199L33.7931 168.986H21.3661Z" fill="#F18D00"/>
<circle id="Oval_6" cx="27.5913" cy="154" r="10" fill="#FFA323"/>
</g>
<g id="Item_7">
<path id="Polygon_7" fill-rule="evenodd" clip-rule="evenodd" d="M37.3661 196.986L28.5791 188.199V175.773L37.3661 166.986H49.7931L58.5801 175.773V188.199L49.7931 196.986H37.3661Z" fill="#F18D00"/>
<circle id="Oval_7" cx="43.5913" cy="182" r="10" fill="#FFA323"/>
</g>
<g id="Item_8">
<path id="Polygon_8" fill-rule="evenodd" clip-rule="evenodd" d="M70.3661 17.986L61.5791 9.19899V-3.22701L70.3661 -12.014H82.7931L91.5801 -3.22701V9.19899L82.7931 17.986H70.3661Z" fill="#F18D00"/>
<circle id="Oval_8" cx="76.5913" cy="3" r="10" fill="#FFA323"/>
</g>
<g id="Item_9">
<path id="Polygon_9" fill-rule="evenodd" clip-rule="evenodd" d="M56.3661 45.986L47.5791 37.199V24.773L56.3661 15.986H68.7931L77.5801 24.773V37.199L68.7931 45.986H56.3661Z" fill="#F18D00"/>
<circle id="Oval_9" cx="62.5913" cy="31" r="10" fill="#FFA323"/>
</g>
<g id="Item_10">
<path id="Polygon_10" fill-rule="evenodd" clip-rule="evenodd" d="M43.3661 75.986L34.5791 67.199V54.773L43.3661 45.986H55.7931L64.5801 54.773V67.199L55.7931 75.986H43.3661Z" fill="#F18D00"/>
<circle id="Oval_10" cx="49.5913" cy="61" r="10" fill="#FFA323"/>
</g>
<g id="Item_11">
<path id="Polygon_11" fill-rule="evenodd" clip-rule="evenodd" d="M39.3661 106.986L30.5791 98.199V85.773L39.3661 76.986H51.7931L60.5801 85.773V98.199L51.7931 106.986H39.3661Z" fill="#F18D00"/>
<circle id="Oval_11" cx="45.5913" cy="92" r="10" fill="#FFA323"/>
</g>
<g id="Item_12">
<path id="Polygon_12" fill-rule="evenodd" clip-rule="evenodd" d="M41.3661 137.986L32.5791 129.199V116.773L41.3661 107.986H53.7931L62.5801 116.773V129.199L53.7931 137.986H41.3661Z" fill="#F18D00"/>
<circle id="Oval_12" cx="47.5913" cy="123" r="10" fill="#FFA323"/>
</g>
<g id="Item_13">
<path id="Polygon_13" fill-rule="evenodd" clip-rule="evenodd" d="M52.3661 168.986L43.5791 160.199V147.773L52.3661 138.986H64.7931L73.5801 147.773V160.199L64.7931 168.986H52.3661Z" fill="#F18D00"/>
<circle id="Oval_13" cx="58.5913" cy="154" r="10" fill="#FFA323"/>
</g>
<g id="Item_14">
<path id="Polygon_14" fill-rule="evenodd" clip-rule="evenodd" d="M68.3661 196.986L59.5791 188.199V175.773L68.3661 166.986H80.7931L89.5801 175.773V188.199L80.7931 196.986H68.3661Z" fill="#F18D00"/>
<circle id="Oval_14" cx="74.5913" cy="182" r="10" fill="#FFA323"/>
</g>
<g id="Item_15">
<path id="Polygon_15" fill-rule="evenodd" clip-rule="evenodd" d="M101.366 17.986L92.5791 9.19899V-3.22701L101.366 -12.014H113.793L122.58 -3.22701V9.19899L113.793 17.986H101.366Z" fill="#F18D00"/>
<circle id="Oval_15" cx="107.591" cy="3" r="10" fill="#FFA323"/>
</g>
<g id="Item_16">
<path id="Polygon_16" fill-rule="evenodd" clip-rule="evenodd" d="M87.3661 45.986L78.5791 37.199V24.773L87.3661 15.986H99.7931L108.58 24.773V37.199L99.7931 45.986H87.3661Z" fill="#F18D00"/>
<circle id="Oval_16" cx="93.5913" cy="31" r="10" fill="#FFA323"/>
</g>
<g id="Item_17">
<path id="Polygon_17" fill-rule="evenodd" clip-rule="evenodd" d="M74.3661 75.986L65.5791 67.199V54.773L74.3661 45.986H86.7931L95.5801 54.773V67.199L86.7931 75.986H74.3661Z" fill="#F18D00"/>
<circle id="Oval_17" cx="80.5913" cy="61" r="10" fill="#FFA323"/>
</g>
<g id="Item_18">
<path id="Polygon_18" fill-rule="evenodd" clip-rule="evenodd" d="M70.3661 106.986L61.5791 98.199V85.773L70.3661 76.986H82.7931L91.5801 85.773V98.199L82.7931 106.986H70.3661Z" fill="#F18D00"/>
<circle id="Oval_18" cx="76.5913" cy="92" r="10" fill="#FFA323"/>
</g>
<g id="Item_19">
<path id="Polygon_19" fill-rule="evenodd" clip-rule="evenodd" d="M72.3661 137.986L63.5791 129.199V116.773L72.3661 107.986H84.7931L93.5801 116.773V129.199L84.7931 137.986H72.3661Z" fill="#F18D00"/>
<circle id="Oval_19" cx="78.5913" cy="123" r="10" fill="#FFA323"/>
</g>
<g id="Item_20">
<path id="Polygon_20" fill-rule="evenodd" clip-rule="evenodd" d="M83.3661 168.986L74.5791 160.199V147.773L83.3661 138.986H95.7931L104.58 147.773V160.199L95.7931 168.986H83.3661Z" fill="#F18D00"/>
<circle id="Oval_20" cx="89.5913" cy="154" r="10" fill="#FFA323"/>
</g>
<g id="Item_21">
<path id="Polygon_21" fill-rule="evenodd" clip-rule="evenodd" d="M99.3661 196.986L90.5791 188.199V175.773L99.3661 166.986H111.793L120.58 175.773V188.199L111.793 196.986H99.3661Z" fill="#F18D00"/>
<circle id="Oval_21" cx="105.591" cy="182" r="10" fill="#FFA323"/>
</g>
<g id="Item_22">
<path id="Polygon_22" fill-rule="evenodd" clip-rule="evenodd" d="M132.366 17.986L123.579 9.19899V-3.22701L132.366 -12.014H144.793L153.58 -3.22701V9.19899L144.793 17.986H132.366Z" fill="#F18D00"/>
<circle id="Oval_22" cx="138.591" cy="3" r="10" fill="#FFA323"/>
</g>
<g id="Item_23">
<path id="Polygon_23" fill-rule="evenodd" clip-rule="evenodd" d="M118.366 45.986L109.579 37.199V24.773L118.366 15.986H130.793L139.58 24.773V37.199L130.793 45.986H118.366Z" fill="#F18D00"/>
<circle id="Oval_23" cx="124.591" cy="31" r="10" fill="#FFA323"/>
</g>
<g id="Item_24">
<path id="Polygon_24" fill-rule="evenodd" clip-rule="evenodd" d="M105.366 75.986L96.5791 67.199V54.773L105.366 45.986H117.793L126.58 54.773V67.199L117.793 75.986H105.366Z" fill="#F18D00"/>
<circle id="Oval_24" cx="111.591" cy="61" r="10" fill="#FFA323"/>
</g>
<g id="Item_25">
<path id="Polygon_25" fill-rule="evenodd" clip-rule="evenodd" d="M101.366 106.986L92.5791 98.199V85.773L101.366 76.986H113.793L122.58 85.773V98.199L113.793 106.986H101.366Z" fill="#F18D00"/>
<circle id="Oval_25" cx="107.591" cy="92" r="10" fill="#FFA323"/>
</g>
<g id="Item_26">
<path id="Polygon_26" fill-rule="evenodd" clip-rule="evenodd" d="M103.366 137.986L94.5791 129.199V116.773L103.366 107.986H115.793L124.58 116.773V129.199L115.793 137.986H103.366Z" fill="#F18D00"/>
<circle id="Oval_26" cx="109.591" cy="123" r="10" fill="#FFA323"/>
</g>
<g id="Item_27">
<path id="Polygon_27" fill-rule="evenodd" clip-rule="evenodd" d="M114.366 168.986L105.579 160.199V147.773L114.366 138.986H126.793L135.58 147.773V160.199L126.793 168.986H114.366Z" fill="#F18D00"/>
<circle id="Oval_27" cx="120.591" cy="154" r="10" fill="#FFA323"/>
</g>
<g id="Item_28">
<path id="Polygon_28" fill-rule="evenodd" clip-rule="evenodd" d="M130.366 196.986L121.579 188.199V175.773L130.366 166.986H142.793L151.58 175.773V188.199L142.793 196.986H130.366Z" fill="#F18D00"/>
<circle id="Oval_28" cx="136.591" cy="182" r="10" fill="#FFA323"/>
</g>
</g>
<ellipse id="shadow" cx="86.5" cy="96.5" rx="50.5" ry="85.5" fill="#E08300" fill-opacity="0.5"/>
</g>
</g>
<defs>
<clipPath id="clip0_547_9917">
<rect width="154" height="192" fill="white"/>
</clipPath>
<clipPath id="clip1_547_9917">
<rect width="155" height="210" fill="white" transform="translate(-1.40869 -13)"/>
</clipPath>
</defs>
</svg>
