<svg width="410" height="192" viewBox="0 0 410 192" fill="none" xmlns="http://www.w3.org/2000/svg"><g id="bg-blog-about-design-marketing-development" clip-path="url(#clip0_547_9854)"><mask id="mask0_547_9854" style="mask-type:luminance" maskUnits="userSpaceOnUse" x="0" y="0" width="410" height="192"><path id="mask" d="M.5 0h405a4 4 0 014 4v184a4 4 0 01-4 4H.5V0z" fill="#fff"/></mask><g mask="url(#mask0_547_9854)"><path id="Desk" fill="#FF9807" d="M40.5 0h369v192h-369z"/><g id="Checked" fill-rule="evenodd" clip-rule="evenodd" fill="#fff" fill-opacity=".08"><path id="V" d="M45.5 0h1v192h-1V0zm8 0h1v192h-1V0zm8 0h1v192h-1V0zm8 0h1v192h-1V0zm8 0h1v192h-1V0zm8 0h1v192h-1V0zm8 0h1v192h-1V0zm8 0h1v192h-1V0zm8 0h1v192h-1V0zm8 0h1v192h-1V0zm8 0h1v192h-1V0zm8 0h1v192h-1V0zm8 0h1v192h-1V0zm8 0h1v192h-1V0zm8 0h1v192h-1V0zm8 0h1v192h-1V0zm8 0h1v192h-1V0zm8 0h1v192h-1V0zm8 0h1v192h-1V0z"/><path id="H" d="M40.5 7h150v1h-150V7zm0 8h150v1h-150v-1zm0 8h150v1h-150v-1zm0 8h150v1h-150v-1zm0 8h150v1h-150v-1zm0 8h150v1h-150v-1zm0 8h150v1h-150v-1zm0 8h150v1h-150v-1zm0 8h150v1h-150v-1zm0 8h150v1h-150v-1zm0 8h150v1h-150v-1zm0 8h150v1h-150v-1zm0 8h150v1h-150v-1zm0 8h150v1h-150v-1zm0 8h150v1h-150v-1zm0 8h150v1h-150v-1zm0 8h150v1h-150v-1zm0 8h150v1h-150v-1zm0 8h150v1h-150v-1zm0 8h150v1h-150v-1zm0 8h150v1h-150v-1zm0 8h150v1h-150v-1zm0 8h150v1h-150v-1z"/></g><path id="Shade" fill="url(#paint0_linear_547_9854)" fill-opacity=".64" d="M.5 0h40v192H.5z"/><g id="Oval"><circle cx="153" cy="152.5" r="59.5" fill="#FF9807"/><circle cx="153" cy="152.5" r="59" stroke="#fff" stroke-opacity=".4" stroke-dasharray="2"/></g><g id="Oval_2"><circle cx="285.5" cy="96" r="96" fill="#FF9807"/><circle cx="285.5" cy="96" r="95.5" stroke="#fff" stroke-opacity=".4" stroke-dasharray="2"/></g><path id="ring" fill-rule="evenodd" clip-rule="evenodd" d="M254 251c85.88 0 155.5-69.62 155.5-155.5S339.88-60 254-60 98.5 9.62 98.5 95.5 168.12 251 254 251zm.5-59c53.019 0 96-42.981 96-96 0-53.02-42.981-96-96-96s-96 42.98-96 96c0 53.019 42.981 96 96 96z" fill="#fff" fill-opacity=".24"/><path id="shadow" fill-rule="evenodd" clip-rule="evenodd" d="M40.5 23.634C49.594 13.996 62.362 8 76.5 8c23.633 0 43.436 16.753 48.655 39.27 12.906 9.238 21.345 24.548 21.345 41.872 0 22.015-13.628 40.777-32.734 47.961a26.283 26.283 0 01-.163 11.015c-2.07 8.983-8.634 15.932-17.288 19.588-2.41 7.644-6.837 20.68-9.15 21.258-2.911.727-10.372-9.698-12.05-18.976a40.846 40.846 0 01-2.364-.475 40.176 40.176 0 01-10.816-4.2c-6.786 5.028-17.791 7.934-21.435 7.058v-5.074c1.853-4.238 5.463-10.491 8.14-14.953-3.51-6.089-4.836-13.087-3.243-20 1.384-6.006 4.777-11.103 9.46-14.914a51.395 51.395 0 01-7.012-16.469 50.558 50.558 0 01-7.345-6.417v-70.91z" fill="#E08300" fill-opacity=".16"/><path id="shadow_2" fill-rule="evenodd" clip-rule="evenodd" d="M40.5 88.495v-52.99C48.785 23.125 62.714 15 78.5 15c24.174 0 43.994 19.053 45.857 43.264C133.021 65.965 138.5 77.327 138.5 90c0 23.196-18.356 42-41 42-17.631 0-32.663-11.4-38.454-27.398-7.507-3.585-13.91-9.18-18.546-16.108z" fill="#E08300" fill-opacity=".16"/><g id="Batarang" opacity=".64" filter="url(#filter0_di_547_9854)"><path fill-rule="evenodd" clip-rule="evenodd" d="M192.728 119.995s-7.803 11.961-6.362 17.884c.971 3.989 3.304 5.675 3.304 5.675s-7.202 4.529-7.219 4.511c-17.096 10.683-13.472 24.504-13.472 24.504s-10.834-9.316-27.93 1.367c.009.023-7.219 4.511-7.219 4.511s-.492-2.836-3.653-5.458c-4.691-3.891-18.862-2.122-18.862-2.122l27.224-17.011s3.367 5.778 8.578 2.501c.326-.186 5.436-2.913 5.436-2.913l-2.413-5.023 2.457 2.577s.519-.907 1.838-1.703c1.294-.837 2.337-.906 2.337-.906l-1.239-3.338 3.457 4.371s4.691-3.397 5.001-3.609c5.23-3.247 1.512-8.806 1.512-8.806l27.225-17.012z" fill="#DB8000"/></g></g></g><defs><linearGradient id="paint0_linear_547_9854" x1=".5" y1="190.76" x2="39.983" y2="190.76" gradientUnits="userSpaceOnUse"><stop stop-color="#E08300" stop-opacity="0"/><stop offset=".789" stop-color="#E08300" stop-opacity=".5"/><stop offset="1" stop-color="#E08300"/></linearGradient><clipPath id="clip0_547_9854"><path fill="#fff" transform="translate(.5)" d="M0 0h409v192H0z"/></clipPath><filter id="filter0_di_547_9854" x="107.315" y="117.995" width="89.413" height="66.452" filterUnits="userSpaceOnUse" color-interpolation-filters="sRGB"><feFlood flood-opacity="0" result="BackgroundImageFix"/><feColorMatrix in="SourceAlpha" values="0 0 0 0 0 0 0 0 0 0 0 0 0 0 0 0 0 0 127 0" result="hardAlpha"/><feOffset dy="2"/><feGaussianBlur stdDeviation="2"/><feColorMatrix values="0 0 0 0 0.603922 0 0 0 0 0.45098 0 0 0 0 0.0313726 0 0 0 0.32 0"/><feBlend in2="BackgroundImageFix" result="effect1_dropShadow_547_9854"/><feBlend in="SourceGraphic" in2="effect1_dropShadow_547_9854" result="shape"/><feColorMatrix in="SourceAlpha" values="0 0 0 0 0 0 0 0 0 0 0 0 0 0 0 0 0 0 127 0" result="hardAlpha"/><feOffset dy="-1"/><feComposite in2="hardAlpha" operator="arithmetic" k2="-1" k3="1"/><feColorMatrix values="0 0 0 0 0.635294 0 0 0 0 0.478431 0 0 0 0 0.0313726 0 0 0 0.551715 0"/><feBlend in2="shape" result="effect2_innerShadow_547_9854"/></filter></defs></svg>