<svg xmlns="http://www.w3.org/2000/svg" xmlns:xlink="http://www.w3.org/1999/xlink" width="430" height="192" viewBox="0 0 430 192">
  <defs>
    <path id="bg-about-marketing-agency-a" d="M59.5,96 C79.6583934,96 96,79.6583934 96,59.5 C96,39.3416066 79.6583934,23 59.5,23 C39.3416066,23 23,39.3416066 23,59.5 C23,79.6583934 39.3416066,96 59.5,96 Z"/>
    <mask id="bg-about-marketing-agency-b" width="73" height="73" x="0" y="0" fill="#fff">
      <use xlink:href="#bg-about-marketing-agency-a"/>
    </mask>
  </defs>
  <g fill="none" fill-rule="evenodd">
    <g transform="translate(357)">
      <path fill="#E5A600" fill-rule="nonzero" d="M36.5,0 C16.3416066,0 -2.84217094e-14,16.3416066 -2.84217094e-14,36.5 C-2.84217094e-14,56.6583934 16.3416066,73 36.5,73 C56.6583934,73 73,56.6583934 73,36.5 C73,16.3416066 56.6583934,0 36.5,0 Z M36.5,69 C18.5507456,69 4,54.4492544 4,36.5 C4,18.5507456 18.5507456,4 36.5,4 C54.4492544,4 69,18.5507456 69,36.5 C69,45.1195359 65.5759027,53.3860381 59.4809704,59.4809704 C53.3860381,65.5759027 45.1195359,69 36.5,69 Z"/>
      <polygon fill="#E5A600" fill-rule="nonzero" points="55 36.5 37.82 35.27 36.5 13 35.18 35.09 34 35 34 38 35.05 37.93 35 39 38 39 37.94 37.72"/>
      <path fill="#E5A600" fill-rule="nonzero" d="M32.82,10.87 L32.82,10.33 C33.1848235,10.3138908 33.543818,10.2326091 33.88,10.09 C34.1335797,9.88349708 34.2953169,9.58518176 34.33,9.26 L34.88,9.26 L34.88,14.83 L34.13,14.83 L34.13,10.83 L32.82,10.87 Z M37.05,13.58 C37.2748227,13.1534207 37.6234207,12.8048227 38.05,12.58 L38.8,12.15 C39.0554723,12.0117802 39.2937799,11.843958 39.51,11.65 C39.9163522,11.2248081 39.9163522,10.5551919 39.51,10.13 C39.2985841,9.93398257 39.0181208,9.82970775 38.73,9.84 C38.3145044,9.79644867 37.9157211,10.0157795 37.73,10.39 C37.6151212,10.6444305 37.5571069,10.9208519 37.56,11.2 L36.85,11.2 C36.8341216,10.7865227 36.9272341,10.3761378 37.12,10.01 C37.4541751,9.45062486 38.0816639,9.13493175 38.73,9.2 C39.2049198,9.14847731 39.6791678,9.30280413 40.0328148,9.62395389 C40.3864619,9.94510366 40.5856471,10.402327 40.58,10.88 C40.5863452,11.3103817 40.4122837,11.7237778 40.1,12.02 C39.7997915,12.2919154 39.4632365,12.5207728 39.1,12.7 L38.57,12.99 C38.3538141,13.1013278 38.1522749,13.2390463 37.97,13.4 C37.7272315,13.5880224 37.5546672,13.8521514 37.48,14.15 L40.53,14.15 L40.53,14.81 L36.69,14.81 C36.7292265,14.3805578 36.8514904,13.9628227 37.05,13.58 Z M37.92,58.7 C38.1519527,58.9824277 38.2822613,59.3346131 38.29,59.7 L37.6,59.7 C37.5688884,59.5181181 37.5008205,59.3445451 37.4,59.19 C37.2221471,58.9457792 36.9314467,58.8098673 36.63,58.83 C36.2398231,58.8282326 35.8796166,59.0389917 35.69,59.38 C35.4285031,59.8580023 35.2942097,60.3951759 35.3,60.94 C35.4498289,60.709817 35.6611475,60.5262124 35.91,60.41 C36.1446626,60.3005733 36.4011108,60.2458643 36.66,60.25 C37.1114755,60.2431203 37.5495559,60.4033937 37.89,60.7 C38.2565212,61.0454066 38.4475893,61.5377744 38.41,62.04 C38.4194422,62.5351461 38.2448422,63.0161867 37.92,63.39 C37.5612762,63.7927384 37.0385017,64.0099475 36.5,63.98 C35.9848762,63.9823873 35.493414,63.7639597 35.15,63.38 C34.7130568,62.8098355 34.5092851,62.094847 34.58,61.38 C34.5634793,60.7801548 34.647992,60.1818044 34.83,59.61 C35.0234871,58.782054 35.7699279,58.2024156 36.62,58.22 C37.1049104,58.1649786 37.5872004,58.3430549 37.92,58.7 Z M37.39,62.98 C37.5801762,62.7267777 37.6788821,62.416559 37.67,62.1 C37.6705981,61.8078083 37.5835099,61.5221588 37.42,61.28 C37.2106784,61.0049145 36.8741328,60.8574394 36.53,60.89 C36.2112768,60.8767734 35.9025087,61.0025589 35.6837593,61.2347402 C35.46501,61.4669215 35.3578259,61.7826291 35.39,62.1 C35.383954,62.4241324 35.493893,62.7397635 35.7,62.99 C35.9182939,63.2327282 36.2338879,63.3648374 36.56,63.35 C36.8765228,63.3716012 37.1845178,63.2417238 37.39,63 L37.39,62.98 Z M9.34,37.48 C9.32803531,37.8099721 9.50179296,38.1188745 9.79,38.28 C9.93742243,38.3595752 10.1024742,38.4008382 10.27,38.4 C10.6060871,38.4000717 10.9234144,38.2450979 11.13,37.98 C11.4479589,37.4655796 11.6207359,36.8746821 11.63,36.27 C11.4998075,36.5053239 11.2960761,36.6914922 11.05,36.8 C10.8166209,36.9014652 10.5644687,36.9525771 10.31,36.95 C9.82959694,36.9734643 9.3626334,36.7874085 9.03,36.44 C8.70999866,36.0884114 8.54117265,35.6250379 8.56,35.15 C8.5537649,34.6618876 8.72023321,34.1872759 9.03,33.81 C9.36666296,33.407386 9.87658993,33.1915045 10.4,33.23 C11.1407456,33.1881477 11.8221654,33.6343154 12.08,34.33 C12.270471,34.8133403 12.3589891,35.330831 12.34,35.85 C12.352196,36.470775 12.2470187,37.0882671 12.03,37.67 C11.8245574,38.456274 11.1126628,39.0035687 10.3,39 C9.84268995,39.0288939 9.39275456,38.8741162 9.05,38.57 C8.77001212,38.2814165 8.61854255,37.8919233 8.63,37.49 L9.34,37.48 Z M11.17,36.05 C11.4387591,35.7915047 11.5654981,35.4187428 11.51,35.05 C11.5371811,34.7138004 11.4251058,34.3811899 11.2,34.13 C10.988343,33.9268522 10.7031496,33.8185509 10.41,33.83 C10.0985062,33.8204543 9.79859379,33.9484657 9.59,34.18 C9.38059131,34.4395162 9.27382765,34.7669248 9.29,35.1 C9.27478576,35.412741 9.37039737,35.7208229 9.56,35.97 C9.77357921,36.2035917 10.0851363,36.3222801 10.4,36.29 C10.6768887,36.3029223 10.9494889,36.217956 11.17,36.05 Z M60.91,38.44 C60.6077865,38.0642106 60.4515272,37.5918811 60.47,37.11 L61.2,37.11 C61.2060968,37.3850654 61.2744774,37.655169 61.4,37.9 C61.6267259,38.2206561 62.0096429,38.3929688 62.4,38.35 C62.7239626,38.366384 63.0420632,38.2591591 63.29,38.05 C63.5110959,37.8558533 63.6354678,37.5741878 63.63,37.28 C63.6588721,36.9680165 63.5269828,36.6627869 63.28,36.47 C62.9748262,36.3010858 62.6283053,36.221386 62.28,36.24 L62,36.24 L62,35.62 L62.19,35.62 L62.35,35.62 C62.57398,35.6297195 62.7969875,35.5851179 63,35.49 C63.2941025,35.3462697 63.4690988,35.036049 63.44,34.71 C63.4530969,34.4599647 63.340559,34.219884 63.14,34.07 C62.9435095,33.9158634 62.6996744,33.834585 62.45,33.84 C62.0525181,33.7815656 61.6586574,33.9666802 61.45,34.31 C61.3389169,34.5409233 61.2808352,34.7937494 61.28,35.05 L60.59,35.05 C60.5764047,34.6774192 60.6627213,34.307984 60.84,33.98 C61.1469253,33.4464904 61.7372868,33.1415355 62.35,33.2 C62.820607,33.1710997 63.2867918,33.3053044 63.67,33.58 C63.9949673,33.8536913 64.1696197,34.2661683 64.14,34.69 C64.1555922,34.9922041 64.0554692,35.2889973 63.86,35.52 C63.7444212,35.6616039 63.5922419,35.7688212 63.42,35.83 C63.6954187,35.9065436 63.9379297,36.0717322 64.11,36.3 C64.2799759,36.5503104 64.3673913,36.8475228 64.36,37.15 C64.3762695,37.6389909 64.1835211,38.1117699 63.83,38.45 C63.4174147,38.8121887 62.8778475,38.9956415 62.33,38.96 C61.8029056,39.0063387 61.2825179,38.8157742 60.91,38.44 Z M57.82,25.58 C58.0492129,25.1566759 58.3966759,24.8092129 58.82,24.58 L59.57,24.15 C59.8226861,24.0122408 60.057735,23.8443487 60.27,23.65 C60.4727494,23.4490664 60.5868068,23.1754499 60.5868068,22.89 C60.5868068,22.6045501 60.4727494,22.3309336 60.27,22.13 C60.0604013,21.9310499 59.7786609,21.8263002 59.49,21.84 C59.0745044,21.7964487 58.6757211,22.0157795 58.49,22.39 C58.3788621,22.6452974 58.32428,22.9216195 58.33,23.2 L57.61,23.2 C57.6035513,22.7874503 57.6961408,22.3793707 57.88,22.01 C58.215908,21.4524914 58.8421299,21.1374357 59.49,21.2 C60.0144821,21.1509648 60.5329432,21.3421703 60.9,21.72 C61.1818144,22.0409182 61.3380879,22.452912 61.34,22.88 C61.3453613,23.3081957 61.1755822,23.7200003 60.87,24.02 C60.5678287,24.2894103 60.2316284,24.5180265 59.87,24.7 L59.33,24.99 C59.1167891,25.1062528 58.9157821,25.2436076 58.73,25.4 C58.4905502,25.5910627 58.3187845,25.8539694 58.24,26.15 L61.3,26.15 L61.3,26.81 L57.46,26.81 C57.4944451,26.3796625 57.6169809,25.9609988 57.82,25.58 Z M10.82,22.87 L10.82,22.33 C11.1848235,22.3138908 11.543818,22.2326091 11.88,22.09 C12.1335797,21.8834971 12.2953169,21.5851818 12.33,21.26 L12.88,21.26 L12.88,26.83 L12.13,26.83 L12.13,22.83 L10.82,22.87 Z M18.23,22.13 C18.5085342,22.7232575 18.6389326,23.3752492 18.61,24.03 C18.6330369,24.6770585 18.5170989,25.3215374 18.27,25.92 C18.012843,26.5806329 17.3686707,27.0087474 16.66,26.99 C16.0322111,27.0101768 15.4486849,26.6678414 15.16,26.11 C14.8547864,25.4892835 14.713635,24.8007401 14.75,24.11 C14.7356459,23.5528477 14.8202919,22.9975697 15,22.47 C15.1872905,21.7099287 15.8774015,21.1819522 16.66,21.2 C17.3227327,21.1660821 17.9412964,21.5324925 18.23,22.13 Z M17.53,25.86 C17.7915385,25.2980861 17.9018425,24.6776261 17.85,24.06 C17.864652,23.5273067 17.7868328,22.9961063 17.62,22.49 C17.4932287,22.1002336 17.1191223,21.845348 16.71,21.87 C16.3171006,21.8708198 15.9610883,22.101641 15.8,22.46 C15.574381,23.0039895 15.4752218,23.5921063 15.51,24.18 C15.4946842,24.643437 15.5554915,25.106248 15.69,25.55 C15.7864736,26.0231232 16.2072392,26.3597357 16.69,26.35 C17.0359125,26.3429777 17.3536195,26.1576487 17.53,25.86 Z M48,13.87 L48,13.33 C48.3649984,13.3152032 48.7242255,13.2338688 49.06,13.09 C49.3135797,12.8834971 49.4753169,12.5851818 49.51,12.26 L50.07,12.26 L50.07,17.83 L49.32,17.83 L49.32,13.83 L48,13.87 Z M21.11,13.87 L21.11,13.33 C21.4749984,13.3152032 21.8342255,13.2338688 22.17,13.09 C22.4235797,12.8834971 22.5853169,12.5851818 22.62,12.26 L23.18,12.26 L23.18,17.83 L22.43,17.83 L22.43,13.83 L21.11,13.87 Z M25,13.87 L25,13.33 C25.3649984,13.3152032 25.7242255,13.2338688 26.06,13.09 C26.3135797,12.8834971 26.4753169,12.5851818 26.51,12.26 L27,12.26 L27,17.83 L26.25,17.83 L26.25,13.83 L25,13.87 Z M49.26,58.41 C49.2847467,58.7669242 49.4982949,59.0834332 49.82,59.24 C50.0019625,59.3227611 50.2001361,59.3637625 50.4,59.36 C50.7565823,59.3857175 51.1034208,59.2365397 51.33,58.96 C51.5245489,58.7079056 51.6300503,58.398435 51.63,58.08 C51.65149,57.7381938 51.5195168,57.4045948 51.27,57.17 C51.034266,56.9581669 50.7268677,56.8437862 50.41,56.85 C50.1950151,56.84547 49.9821784,56.8935299 49.79,56.99 C49.6146298,57.083482 49.4638585,57.2171202 49.35,57.38 L48.74,57.38 L49.16,54.38 L52.07,54.38 L52.07,55 L49.69,55 L49.45,56.56 C49.5620342,56.4691437 49.6866679,56.3950372 49.82,56.34 C50.0486482,56.2481061 50.2936528,56.2038691 50.54,56.21 C51.0239631,56.1956155 51.4942783,56.371535 51.85,56.7 C52.2027473,57.0220577 52.3964809,57.482632 52.38,57.96 C52.3879099,58.4700169 52.2142341,58.9662335 51.89,59.36 C51.4923832,59.7928648 50.9152022,60.0148575 50.33,59.96 C49.8961222,59.9679578 49.4714271,59.8345824 49.12,59.58 C48.755144,59.2960165 48.5382732,58.8622749 48.53,58.4 L49.26,58.41 Z M25.46,54.33 L25.46,55 C25.190779,55.2790233 24.9496208,55.5838204 24.74,55.91 C24.4354341,56.352168 24.1710465,56.8207031 23.95,57.31 C23.7412253,57.7374757 23.5705639,58.1825337 23.44,58.64 C23.36,58.9 23.26,59.31 23.14,59.88 L22.37,59.88 C22.5610929,58.7570608 22.9577319,57.6790162 23.54,56.7 C23.8589552,56.1274801 24.2341403,55.5881515 24.66,55.09 L21.57,55.09 L21.57,54.38 L25.46,54.33 Z M59.93,51.83 L59.93,50.47 L57.48,50.47 L57.48,49.78 L60.04,46.22 L60.63,46.22 L60.63,49.85 L61.46,49.85 L61.46,50.47 L60.63,50.47 L60.63,51.83 L59.93,51.83 Z M59.93,49.83 L59.93,47.29 L58.14,49.83 L59.93,49.83 Z M13,48.56 C12.7890736,48.3445035 12.6768434,48.0512567 12.69,47.75 C12.6841016,47.3432426 12.8470248,46.9522268 13.14,46.67 C13.4881967,46.3529757 13.9500192,46.1906162 14.42,46.22 C14.8826293,46.1964903 15.3368143,46.3502694 15.69,46.65 C15.9790103,46.9014946 16.1434433,47.2669013 16.14,47.65 C16.1517696,47.9545596 16.0601333,48.2541401 15.88,48.5 C15.7468138,48.6437282 15.5915242,48.7652593 15.42,48.86 C15.6228366,48.9415972 15.8066654,49.0641498 15.96,49.22 C16.2131082,49.4904754 16.3496103,49.8496916 16.34,50.22 C16.3478085,50.6868774 16.1676388,51.1373015 15.84,51.47 C15.464136,51.8266054 14.9571675,52.0112867 14.44,51.98 C13.9424922,52.0007616 13.4536718,51.8449058 13.06,51.54 C12.67133,51.2284295 12.4586721,50.747151 12.49,50.25 C12.4805461,49.947255 12.5681449,49.6494189 12.74,49.4 C12.9157451,49.1469126 13.1629332,48.9519474 13.45,48.84 C13.2835404,48.7761698 13.130804,48.6811338 13,48.56 Z M15.26,51.09 C15.4828649,50.8894508 15.6039886,50.599488 15.59,50.3 C15.6108426,49.988585 15.485089,49.685297 15.25,49.48 C15.010932,49.2849639 14.7081794,49.1852337 14.4,49.2 C14.1010491,49.1859691 13.8079353,49.2860567 13.58,49.48 C13.3580285,49.6846818 13.2404219,49.9786983 13.26,50.28 C13.2565248,50.5580085 13.3603987,50.8266478 13.55,51.03 C13.7894177,51.2621052 14.1177942,51.3788613 14.45,51.35 C14.7561692,51.375334 15.0603942,51.282277 15.3,51.09 L15.26,51.09 Z M15.13,48.32 C15.2959915,48.1666703 15.3903865,47.9509716 15.3903865,47.725 C15.3903865,47.4990284 15.2959915,47.2833297 15.13,47.13 C14.9258034,46.9372995 14.6500036,46.839318 14.37,46.86 C14.0953292,46.8345085 13.8237145,46.9336112 13.63,47.13 C13.4834176,47.2989331 13.4049891,47.5163939 13.41,47.74 C13.3959709,47.982339 13.5049989,48.2154332 13.7,48.36 C13.8978242,48.5105625 14.1415344,48.5882672 14.39,48.58 C14.6761267,48.6176647 14.9636974,48.5218078 15.17,48.32 L15.13,48.32 Z"/>
      <path stroke="#E5A600" d="M36.5,5 L36.5,7 M39.79,5.17 L39.58,7.17 M43.05,5.7 L42.63,7.65 M46.23,6.55 L45.62,8.45 M49.31,7.73 L48.5,9.56 M52.25,9.23 L51.25,10.96 M55,11 L53.82,12.61 M57.56,13.07 L56.22,14.56 M59.89,15.4 L58.4,16.74 M62,18 L60.39,19.18 M63.8,20.77 L62.07,21.77 M65.3,23.71 L63.47,24.52 M66.47,26.79 L64.57,27.4 M67.32,29.97 L65.37,30.39 M67.84,33.23 L65.84,33.44 M68,36.5 L66,36.5 M67.83,39.79 L65.83,39.58 M67.3,43.05 L65.35,42.63 M64.55,45.63 L66.45,46.24 M65.27,49.32 L63.44,48.51 M62.04,51.26 L63.77,52.26 M62,55 L60.39,53.82 M59.93,57.56 L58.44,56.22 M57.6,59.89 L56.26,58.4 M55,62 L53.82,60.39 M52.23,63.8 L51.23,62.07 M49.29,65.3 L48.48,63.47 M46.21,66.47 L45.6,64.57 M43.03,67.32 L42.61,65.37 M39.77,67.84 L39.56,65.84 M36.5,68 L36.5,66 M33.21,67.83 L33.42,65.83 M30,67.31 L30.42,65.36 M26.82,66.46 L27.43,64.56 M23.74,65.28 L24.55,63.45 M21.8,62.05 L20.8,63.78 M18,62 L19.18,60.39 M15.44,59.93 L16.78,58.44 M13.11,57.6 L14.6,56.26 M11,55 L12.61,53.82 M9.2,52.23 L10.93,51.23 M7.7,49.29 L9.53,48.48 M6.53,46.21 L8.43,45.6 M5.68,43.03 L7.63,42.61 M7.15,39.61 L5.15,39.82 M5,36.5 L7,36.5 M7.16,33.42 L5.16,33.21 M7.63,30.37 L5.68,29.95 M6.53,26.77 L8.43,27.38 M7.71,23.69 L9.54,24.5 M9.21,20.75 L10.94,21.75 M11,18 L12.61,19.18 M13.07,15.44 L14.56,16.78 M15.4,13.11 L16.74,14.6 M18,11 L19.18,12.61 M20.77,9.2 L21.77,10.93 M23.71,7.7 L24.52,9.53 M26.79,6.53 L27.4,8.43 M29.97,5.68 L30.39,7.63 M33.39,7.15 L33.18,5.15"/>
      <g fill="#D99900" opacity=".64" transform="translate(30 43)">
        <path d="M1,0 L4,0 L4,1 L1,1 L1,0 L1,0 Z M5,0 L6,0 L6,1 L5,1 L5,0 L5,0 Z M11,0 L12,0 L12,1 L11,1 L11,0 L11,0 Z M7,0 L10,0 L10,1 L7,1 L7,0 L7,0 Z" style="mix-blend-mode:multiply"/>
        <path fill-opacity=".5" d="M4,0 L5,0 L5,1 L4,1 L4,0 L4,0 Z M10,0 L11,0 L11,1 L10,1 L10,0 L10,0 Z M0,3 L1,3 L1,4 L0,4 L0,3 L0,3 Z M2,3 L4,3 L4,4 L2,4 L2,3 L2,3 Z M8,3 L13,3 L13,4 L8,4 L8,3 L8,3 Z M6,3 L7,3 L7,4 L6,4 L6,3 L6,3 Z" style="mix-blend-mode:multiply"/>
        <path fill-opacity=".25" d="M1,3 L2,3 L2,4 L1,4 L1,3 Z M7,3 L8,3 L8,4 L7,4 L7,3 Z" style="mix-blend-mode:multiply"/>
      </g>
    </g>
    <g transform="translate(63 16)">
      <rect width="288" height="144" x="8" y="8" fill="#F2B200" rx="1"/>
      <path fill="#E5A600" d="M0,3.00060948 C0,1.34341862 1.33869653,0 3.00879478,0 L300.991205,0 C302.652917,0 304,1.33515149 304,3.00060948 L304,156.999391 C304,158.656581 302.661303,160 300.991205,160 L3.00879478,160 C1.34708331,160 0,158.664849 0,156.999391 L0,3.00060948 Z M8,8.99644065 L8,151.003559 C8,151.560985 8.4478691,152 9.00034362,152 L294.999656,152 C295.551922,152 296,151.553878 296,151.003559 L296,8.99644065 C296,8.43901512 295.552131,8 294.999656,8 L9.00034362,8 C8.4480781,8 8,8.44612167 8,8.99644065 Z"/>
      <text fill="#D99900" font-family="ComicSansMS, Comic Sans MS" font-size="11" letter-spacing="-.366">
        <tspan x="23.5" y="27">Backlog</tspan>
      </text>
      <text fill="#D99900" font-family="ComicSansMS, Comic Sans MS" font-size="11" letter-spacing="-.366">
        <tspan x="78" y="27">To-do</tspan>
      </text>
      <text fill="#D99900" font-family="ComicSansMS, Comic Sans MS" font-size="11" letter-spacing="-.366">
        <tspan x="126" y="27">Des</tspan>
      </text>
      <text fill="#D99900" font-family="ComicSansMS, Comic Sans MS" font-size="11" letter-spacing="-.366">
        <tspan x="170" y="27">Dev</tspan>
      </text>
      <text fill="#D99900" font-family="ComicSansMS, Comic Sans MS" font-size="11" letter-spacing="-.366">
        <tspan x="205" y="27">QA-ST</tspan>
      </text>
      <text fill="#D99900" font-family="ComicSansMS, Comic Sans MS" font-size="11" letter-spacing="-.366">
        <tspan x="256.5" y="27">Done</tspan>
      </text>
      <g fill="#E5A600" opacity=".448" transform="translate(12 13)">
        <rect width="1" height="135" x="58"/>
        <rect width="1" height="280" x="139.5" y="-116.5" transform="rotate(90 140 23.5)"/>
        <rect width="1" height="135" x="101"/>
        <rect width="1" height="135" x="144"/>
        <rect width="1" height="135" x="187"/>
        <rect width="1" height="135" x="233"/>
      </g>
      <g opacity=".502" transform="translate(21 40)">
        <g transform="translate(103 3)">
          <polygon fill="#E5A600" points="3 4 27 4 28 29 1 28"/>
          <polygon fill="#FFCC19" points="0 0 27 0 27 24 0 23"/>
          <g fill="#D99900" opacity=".64" transform="translate(8 9)">
            <path d="M1,0 L4,0 L4,1 L1,1 L1,0 L1,0 Z M5,0 L6,0 L6,1 L5,1 L5,0 L5,0 Z M11,0 L12,0 L12,1 L11,1 L11,0 L11,0 Z M7,0 L10,0 L10,1 L7,1 L7,0 L7,0 Z" style="mix-blend-mode:multiply"/>
            <path fill-opacity=".5" d="M4,0 L5,0 L5,1 L4,1 L4,0 L4,0 Z M10,0 L11,0 L11,1 L10,1 L10,0 L10,0 Z M0,3 L1,3 L1,4 L0,4 L0,3 L0,3 Z M2,3 L4,3 L4,4 L2,4 L2,3 L2,3 Z M8,3 L13,3 L13,4 L8,4 L8,3 L8,3 Z M6,3 L7,3 L7,4 L6,4 L6,3 L6,3 Z" style="mix-blend-mode:multiply"/>
            <path fill-opacity=".25" d="M1,3 L2,3 L2,4 L1,4 L1,3 Z M7,3 L8,3 L8,4 L7,4 L7,3 Z" style="mix-blend-mode:multiply"/>
          </g>
        </g>
        <g transform="translate(1)">
          <polygon fill="#E5A600" points="3 4 27 4 28 29 1 28"/>
          <polygon fill="#FFCC19" points="0 0 27 0 27 24 0 23"/>
          <g fill="#D99900" opacity=".64" transform="translate(8 9)">
            <path d="M1,0 L4,0 L4,1 L1,1 L1,0 L1,0 Z M5,0 L6,0 L6,1 L5,1 L5,0 L5,0 Z M11,0 L12,0 L12,1 L11,1 L11,0 L11,0 Z M7,0 L10,0 L10,1 L7,1 L7,0 L7,0 Z" style="mix-blend-mode:multiply"/>
            <path fill-opacity=".5" d="M4,0 L5,0 L5,1 L4,1 L4,0 L4,0 Z M10,0 L11,0 L11,1 L10,1 L10,0 L10,0 Z M0,3 L1,3 L1,4 L0,4 L0,3 L0,3 Z M2,3 L4,3 L4,4 L2,4 L2,3 L2,3 Z M8,3 L13,3 L13,4 L8,4 L8,3 L8,3 Z M6,3 L7,3 L7,4 L6,4 L6,3 L6,3 Z" style="mix-blend-mode:multiply"/>
            <path fill-opacity=".25" d="M1,3 L2,3 L2,4 L1,4 L1,3 Z M7,3 L8,3 L8,4 L7,4 L7,3 Z" style="mix-blend-mode:multiply"/>
          </g>
        </g>
        <g transform="translate(53 8)">
          <polygon fill="#E5A600" points="3 4 27 4 28 29 1 28"/>
          <polygon fill="#FFCC19" points="0 0 27 0 27 24 0 23"/>
          <g fill="#D99900" opacity=".64" transform="translate(8 9)">
            <path d="M1,0 L4,0 L4,1 L1,1 L1,0 L1,0 Z M5,0 L6,0 L6,1 L5,1 L5,0 L5,0 Z M11,0 L12,0 L12,1 L11,1 L11,0 L11,0 Z M7,0 L10,0 L10,1 L7,1 L7,0 L7,0 Z" style="mix-blend-mode:multiply"/>
            <path fill-opacity=".5" d="M4,0 L5,0 L5,1 L4,1 L4,0 L4,0 Z M10,0 L11,0 L11,1 L10,1 L10,0 L10,0 Z M0,3 L1,3 L1,4 L0,4 L0,3 L0,3 Z M2,3 L4,3 L4,4 L2,4 L2,3 L2,3 Z M8,3 L13,3 L13,4 L8,4 L8,3 L8,3 Z M6,3 L7,3 L7,4 L6,4 L6,3 L6,3 Z" style="mix-blend-mode:multiply"/>
            <path fill-opacity=".25" d="M1,3 L2,3 L2,4 L1,4 L1,3 Z M7,3 L8,3 L8,4 L7,4 L7,3 Z" style="mix-blend-mode:multiply"/>
          </g>
        </g>
        <g transform="translate(94 27)">
          <polygon fill="#E5A600" points="3 4 27 4 28 29 1 28"/>
          <polygon fill="#FFCC19" points="0 0 27 0 27 24 0 23"/>
          <g fill="#D99900" opacity=".64" transform="translate(8 9)">
            <path d="M1,0 L4,0 L4,1 L1,1 L1,0 L1,0 Z M5,0 L6,0 L6,1 L5,1 L5,0 L5,0 Z M11,0 L12,0 L12,1 L11,1 L11,0 L11,0 Z M7,0 L10,0 L10,1 L7,1 L7,0 L7,0 Z" style="mix-blend-mode:multiply"/>
            <path fill-opacity=".5" d="M4,0 L5,0 L5,1 L4,1 L4,0 L4,0 Z M10,0 L11,0 L11,1 L10,1 L10,0 L10,0 Z M0,3 L1,3 L1,4 L0,4 L0,3 L0,3 Z M2,3 L4,3 L4,4 L2,4 L2,3 L2,3 Z M8,3 L13,3 L13,4 L8,4 L8,3 L8,3 Z M6,3 L7,3 L7,4 L6,4 L6,3 L6,3 Z" style="mix-blend-mode:multiply"/>
            <path fill-opacity=".25" d="M1,3 L2,3 L2,4 L1,4 L1,3 Z M7,3 L8,3 L8,4 L7,4 L7,3 Z" style="mix-blend-mode:multiply"/>
          </g>
        </g>
        <g transform="translate(106 49)">
          <polygon fill="#E5A600" points="3 4 27 4 28 29 1 28"/>
          <polygon fill="#FFCC19" points="0 0 27 0 27 24 0 23"/>
          <g fill="#D99900" opacity=".64" transform="translate(8 9)">
            <path d="M1,0 L4,0 L4,1 L1,1 L1,0 L1,0 Z M5,0 L6,0 L6,1 L5,1 L5,0 L5,0 Z M11,0 L12,0 L12,1 L11,1 L11,0 L11,0 Z M7,0 L10,0 L10,1 L7,1 L7,0 L7,0 Z" style="mix-blend-mode:multiply"/>
            <path fill-opacity=".5" d="M4,0 L5,0 L5,1 L4,1 L4,0 L4,0 Z M10,0 L11,0 L11,1 L10,1 L10,0 L10,0 Z M0,3 L1,3 L1,4 L0,4 L0,3 L0,3 Z M2,3 L4,3 L4,4 L2,4 L2,3 L2,3 Z M8,3 L13,3 L13,4 L8,4 L8,3 L8,3 Z M6,3 L7,3 L7,4 L6,4 L6,3 L6,3 Z" style="mix-blend-mode:multiply"/>
            <path fill-opacity=".25" d="M1,3 L2,3 L2,4 L1,4 L1,3 Z M7,3 L8,3 L8,4 L7,4 L7,3 Z" style="mix-blend-mode:multiply"/>
          </g>
        </g>
        <g transform="translate(136 7)">
          <polygon fill="#E5A600" points="3 4 27 4 28 29 1 28"/>
          <polygon fill="#FFCC19" points="0 0 27 0 27 24 0 23"/>
          <g fill="#D99900" opacity=".64" transform="translate(8 9)">
            <path d="M1,0 L4,0 L4,1 L1,1 L1,0 L1,0 Z M5,0 L6,0 L6,1 L5,1 L5,0 L5,0 Z M11,0 L12,0 L12,1 L11,1 L11,0 L11,0 Z M7,0 L10,0 L10,1 L7,1 L7,0 L7,0 Z" style="mix-blend-mode:multiply"/>
            <path fill-opacity=".5" d="M4,0 L5,0 L5,1 L4,1 L4,0 L4,0 Z M10,0 L11,0 L11,1 L10,1 L10,0 L10,0 Z M0,3 L1,3 L1,4 L0,4 L0,3 L0,3 Z M2,3 L4,3 L4,4 L2,4 L2,3 L2,3 Z M8,3 L13,3 L13,4 L8,4 L8,3 L8,3 Z M6,3 L7,3 L7,4 L6,4 L6,3 L6,3 Z" style="mix-blend-mode:multiply"/>
            <path fill-opacity=".25" d="M1,3 L2,3 L2,4 L1,4 L1,3 Z M7,3 L8,3 L8,4 L7,4 L7,3 Z" style="mix-blend-mode:multiply"/>
          </g>
        </g>
        <g transform="translate(153 37)">
          <polygon fill="#E5A600" points="3 4 27 4 28 29 1 28"/>
          <polygon fill="#FFCC19" points="0 0 27 0 27 24 0 23"/>
          <g fill="#D99900" opacity=".64" transform="translate(8 9)">
            <path d="M1,0 L4,0 L4,1 L1,1 L1,0 L1,0 Z M5,0 L6,0 L6,1 L5,1 L5,0 L5,0 Z M11,0 L12,0 L12,1 L11,1 L11,0 L11,0 Z M7,0 L10,0 L10,1 L7,1 L7,0 L7,0 Z" style="mix-blend-mode:multiply"/>
            <path fill-opacity=".5" d="M4,0 L5,0 L5,1 L4,1 L4,0 L4,0 Z M10,0 L11,0 L11,1 L10,1 L10,0 L10,0 Z M0,3 L1,3 L1,4 L0,4 L0,3 L0,3 Z M2,3 L4,3 L4,4 L2,4 L2,3 L2,3 Z M8,3 L13,3 L13,4 L8,4 L8,3 L8,3 Z M6,3 L7,3 L7,4 L6,4 L6,3 L6,3 Z" style="mix-blend-mode:multiply"/>
            <path fill-opacity=".25" d="M1,3 L2,3 L2,4 L1,4 L1,3 Z M7,3 L8,3 L8,4 L7,4 L7,3 Z" style="mix-blend-mode:multiply"/>
          </g>
        </g>
        <g transform="translate(143 69)">
          <polygon fill="#E5A600" points="3 4 27 4 28 29 1 28"/>
          <polygon fill="#FFCC19" points="0 0 27 0 27 24 0 23"/>
          <g fill="#D99900" opacity=".64" transform="translate(8 9)">
            <path d="M1,0 L4,0 L4,1 L1,1 L1,0 L1,0 Z M5,0 L6,0 L6,1 L5,1 L5,0 L5,0 Z M11,0 L12,0 L12,1 L11,1 L11,0 L11,0 Z M7,0 L10,0 L10,1 L7,1 L7,0 L7,0 Z" style="mix-blend-mode:multiply"/>
            <path fill-opacity=".5" d="M4,0 L5,0 L5,1 L4,1 L4,0 L4,0 Z M10,0 L11,0 L11,1 L10,1 L10,0 L10,0 Z M0,3 L1,3 L1,4 L0,4 L0,3 L0,3 Z M2,3 L4,3 L4,4 L2,4 L2,3 L2,3 Z M8,3 L13,3 L13,4 L8,4 L8,3 L8,3 Z M6,3 L7,3 L7,4 L6,4 L6,3 L6,3 Z" style="mix-blend-mode:multiply"/>
            <path fill-opacity=".25" d="M1,3 L2,3 L2,4 L1,4 L1,3 Z M7,3 L8,3 L8,4 L7,4 L7,3 Z" style="mix-blend-mode:multiply"/>
          </g>
        </g>
        <g transform="translate(183 4)">
          <polygon fill="#E5A600" points="3 4 27 4 28 29 1 28"/>
          <polygon fill="#FFCC19" points="0 0 27 0 27 24 0 23"/>
          <g fill="#D99900" opacity=".64" transform="translate(8 9)">
            <path d="M1,0 L4,0 L4,1 L1,1 L1,0 L1,0 Z M5,0 L6,0 L6,1 L5,1 L5,0 L5,0 Z M11,0 L12,0 L12,1 L11,1 L11,0 L11,0 Z M7,0 L10,0 L10,1 L7,1 L7,0 L7,0 Z" style="mix-blend-mode:multiply"/>
            <path fill-opacity=".5" d="M4,0 L5,0 L5,1 L4,1 L4,0 L4,0 Z M10,0 L11,0 L11,1 L10,1 L10,0 L10,0 Z M0,3 L1,3 L1,4 L0,4 L0,3 L0,3 Z M2,3 L4,3 L4,4 L2,4 L2,3 L2,3 Z M8,3 L13,3 L13,4 L8,4 L8,3 L8,3 Z M6,3 L7,3 L7,4 L6,4 L6,3 L6,3 Z" style="mix-blend-mode:multiply"/>
            <path fill-opacity=".25" d="M1,3 L2,3 L2,4 L1,4 L1,3 Z M7,3 L8,3 L8,4 L7,4 L7,3 Z" style="mix-blend-mode:multiply"/>
          </g>
        </g>
        <g transform="translate(194 29)">
          <polygon fill="#E5A600" points="3 4 27 4 28 29 1 28"/>
          <polygon fill="#FFCC19" points="0 0 27 0 27 24 0 23"/>
          <g fill="#D99900" opacity=".64" transform="translate(8 9)">
            <path d="M1,0 L4,0 L4,1 L1,1 L1,0 L1,0 Z M5,0 L6,0 L6,1 L5,1 L5,0 L5,0 Z M11,0 L12,0 L12,1 L11,1 L11,0 L11,0 Z M7,0 L10,0 L10,1 L7,1 L7,0 L7,0 Z" style="mix-blend-mode:multiply"/>
            <path fill-opacity=".5" d="M4,0 L5,0 L5,1 L4,1 L4,0 L4,0 Z M10,0 L11,0 L11,1 L10,1 L10,0 L10,0 Z M0,3 L1,3 L1,4 L0,4 L0,3 L0,3 Z M2,3 L4,3 L4,4 L2,4 L2,3 L2,3 Z M8,3 L13,3 L13,4 L8,4 L8,3 L8,3 Z M6,3 L7,3 L7,4 L6,4 L6,3 L6,3 Z" style="mix-blend-mode:multiply"/>
            <path fill-opacity=".25" d="M1,3 L2,3 L2,4 L1,4 L1,3 Z M7,3 L8,3 L8,4 L7,4 L7,3 Z" style="mix-blend-mode:multiply"/>
          </g>
        </g>
        <g transform="translate(231 7)">
          <polygon fill="#E5A600" points="3 4 27 4 28 29 1 28"/>
          <polygon fill="#FFCC19" points="0 0 27 0 27 24 0 23"/>
          <g fill="#D99900" opacity=".64" transform="translate(8 9)">
            <path d="M1,0 L4,0 L4,1 L1,1 L1,0 L1,0 Z M5,0 L6,0 L6,1 L5,1 L5,0 L5,0 Z M11,0 L12,0 L12,1 L11,1 L11,0 L11,0 Z M7,0 L10,0 L10,1 L7,1 L7,0 L7,0 Z" style="mix-blend-mode:multiply"/>
            <path fill-opacity=".5" d="M4,0 L5,0 L5,1 L4,1 L4,0 L4,0 Z M10,0 L11,0 L11,1 L10,1 L10,0 L10,0 Z M0,3 L1,3 L1,4 L0,4 L0,3 L0,3 Z M2,3 L4,3 L4,4 L2,4 L2,3 L2,3 Z M8,3 L13,3 L13,4 L8,4 L8,3 L8,3 Z M6,3 L7,3 L7,4 L6,4 L6,3 L6,3 Z" style="mix-blend-mode:multiply"/>
            <path fill-opacity=".25" d="M1,3 L2,3 L2,4 L1,4 L1,3 Z M7,3 L8,3 L8,4 L7,4 L7,3 Z" style="mix-blend-mode:multiply"/>
          </g>
        </g>
        <g transform="translate(16 68)">
          <polygon fill="#E5A600" points="3 4 27 4 28 29 1 28"/>
          <polygon fill="#FFCC19" points="0 0 27 0 27 24 0 23"/>
          <g fill="#D99900" opacity=".64" transform="translate(8 9)">
            <path d="M1,0 L4,0 L4,1 L1,1 L1,0 L1,0 Z M5,0 L6,0 L6,1 L5,1 L5,0 L5,0 Z M11,0 L12,0 L12,1 L11,1 L11,0 L11,0 Z M7,0 L10,0 L10,1 L7,1 L7,0 L7,0 Z" style="mix-blend-mode:multiply"/>
            <path fill-opacity=".5" d="M4,0 L5,0 L5,1 L4,1 L4,0 L4,0 Z M10,0 L11,0 L11,1 L10,1 L10,0 L10,0 Z M0,3 L1,3 L1,4 L0,4 L0,3 L0,3 Z M2,3 L4,3 L4,4 L2,4 L2,3 L2,3 Z M8,3 L13,3 L13,4 L8,4 L8,3 L8,3 Z M6,3 L7,3 L7,4 L6,4 L6,3 L6,3 Z" style="mix-blend-mode:multiply"/>
            <path fill-opacity=".25" d="M1,3 L2,3 L2,4 L1,4 L1,3 Z M7,3 L8,3 L8,4 L7,4 L7,3 Z" style="mix-blend-mode:multiply"/>
          </g>
        </g>
        <g transform="translate(1)">
          <polygon fill="#E5A600" points="3 4 27 4 28 29 1 28"/>
          <polygon fill="#FFCC19" points="0 0 27 0 27 24 0 23"/>
          <g fill="#D99900" opacity=".64" transform="translate(8 9)">
            <path d="M1,0 L4,0 L4,1 L1,1 L1,0 L1,0 Z M5,0 L6,0 L6,1 L5,1 L5,0 L5,0 Z M11,0 L12,0 L12,1 L11,1 L11,0 L11,0 Z M7,0 L10,0 L10,1 L7,1 L7,0 L7,0 Z" style="mix-blend-mode:multiply"/>
            <path fill-opacity=".5" d="M4,0 L5,0 L5,1 L4,1 L4,0 L4,0 Z M10,0 L11,0 L11,1 L10,1 L10,0 L10,0 Z M0,3 L1,3 L1,4 L0,4 L0,3 L0,3 Z M2,3 L4,3 L4,4 L2,4 L2,3 L2,3 Z M8,3 L13,3 L13,4 L8,4 L8,3 L8,3 Z M6,3 L7,3 L7,4 L6,4 L6,3 L6,3 Z" style="mix-blend-mode:multiply"/>
            <path fill-opacity=".25" d="M1,3 L2,3 L2,4 L1,4 L1,3 Z M7,3 L8,3 L8,4 L7,4 L7,3 Z" style="mix-blend-mode:multiply"/>
          </g>
        </g>
        <g transform="translate(58 8)">
          <polygon fill="#E5A600" points="3 4 27 4 28 29 1 28"/>
          <polygon fill="#FFCC19" points="0 0 27 0 27 24 0 23"/>
          <g fill="#D99900" opacity=".64" transform="translate(8 9)">
            <path d="M1,0 L4,0 L4,1 L1,1 L1,0 L1,0 Z M5,0 L6,0 L6,1 L5,1 L5,0 L5,0 Z M11,0 L12,0 L12,1 L11,1 L11,0 L11,0 Z M7,0 L10,0 L10,1 L7,1 L7,0 L7,0 Z" style="mix-blend-mode:multiply"/>
            <path fill-opacity=".5" d="M4,0 L5,0 L5,1 L4,1 L4,0 L4,0 Z M10,0 L11,0 L11,1 L10,1 L10,0 L10,0 Z M0,3 L1,3 L1,4 L0,4 L0,3 L0,3 Z M2,3 L4,3 L4,4 L2,4 L2,3 L2,3 Z M8,3 L13,3 L13,4 L8,4 L8,3 L8,3 Z M6,3 L7,3 L7,4 L6,4 L6,3 L6,3 Z" style="mix-blend-mode:multiply"/>
            <path fill-opacity=".25" d="M1,3 L2,3 L2,4 L1,4 L1,3 Z M7,3 L8,3 L8,4 L7,4 L7,3 Z" style="mix-blend-mode:multiply"/>
          </g>
        </g>
        <g transform="translate(11 27)">
          <polygon fill="#E5A600" points="3 4 27 4 28 29 1 28"/>
          <polygon fill="#FFCC19" points="0 0 27 0 27 24 0 23"/>
          <g fill="#D99900" opacity=".64" transform="translate(8 9)">
            <path d="M1,0 L4,0 L4,1 L1,1 L1,0 L1,0 Z M5,0 L6,0 L6,1 L5,1 L5,0 L5,0 Z M11,0 L12,0 L12,1 L11,1 L11,0 L11,0 Z M7,0 L10,0 L10,1 L7,1 L7,0 L7,0 Z" style="mix-blend-mode:multiply"/>
            <path fill-opacity=".5" d="M4,0 L5,0 L5,1 L4,1 L4,0 L4,0 Z M10,0 L11,0 L11,1 L10,1 L10,0 L10,0 Z M0,3 L1,3 L1,4 L0,4 L0,3 L0,3 Z M2,3 L4,3 L4,4 L2,4 L2,3 L2,3 Z M8,3 L13,3 L13,4 L8,4 L8,3 L8,3 Z M6,3 L7,3 L7,4 L6,4 L6,3 L6,3 Z" style="mix-blend-mode:multiply"/>
            <path fill-opacity=".25" d="M1,3 L2,3 L2,4 L1,4 L1,3 Z M7,3 L8,3 L8,4 L7,4 L7,3 Z" style="mix-blend-mode:multiply"/>
          </g>
        </g>
        <g transform="translate(0 49)">
          <polygon fill="#E5A600" points="3 4 27 4 28 29 1 28"/>
          <polygon fill="#FFCC19" points="0 0 27 0 27 24 0 23"/>
          <g fill="#D99900" opacity=".64" transform="translate(8 9)">
            <path d="M1,0 L4,0 L4,1 L1,1 L1,0 L1,0 Z M5,0 L6,0 L6,1 L5,1 L5,0 L5,0 Z M11,0 L12,0 L12,1 L11,1 L11,0 L11,0 Z M7,0 L10,0 L10,1 L7,1 L7,0 L7,0 Z" style="mix-blend-mode:multiply"/>
            <path fill-opacity=".5" d="M4,0 L5,0 L5,1 L4,1 L4,0 L4,0 Z M10,0 L11,0 L11,1 L10,1 L10,0 L10,0 Z M0,3 L1,3 L1,4 L0,4 L0,3 L0,3 Z M2,3 L4,3 L4,4 L2,4 L2,3 L2,3 Z M8,3 L13,3 L13,4 L8,4 L8,3 L8,3 Z M6,3 L7,3 L7,4 L6,4 L6,3 L6,3 Z" style="mix-blend-mode:multiply"/>
            <path fill-opacity=".25" d="M1,3 L2,3 L2,4 L1,4 L1,3 Z M7,3 L8,3 L8,4 L7,4 L7,3 Z" style="mix-blend-mode:multiply"/>
          </g>
        </g>
        <g transform="translate(55 37)">
          <polygon fill="#E5A600" points="3 4 27 4 28 29 1 28"/>
          <polygon fill="#FFCC19" points="0 0 27 0 27 24 0 23"/>
          <g fill="#D99900" opacity=".64" transform="translate(8 9)">
            <path d="M1,0 L4,0 L4,1 L1,1 L1,0 L1,0 Z M5,0 L6,0 L6,1 L5,1 L5,0 L5,0 Z M11,0 L12,0 L12,1 L11,1 L11,0 L11,0 Z M7,0 L10,0 L10,1 L7,1 L7,0 L7,0 Z" style="mix-blend-mode:multiply"/>
            <path fill-opacity=".5" d="M4,0 L5,0 L5,1 L4,1 L4,0 L4,0 Z M10,0 L11,0 L11,1 L10,1 L10,0 L10,0 Z M0,3 L1,3 L1,4 L0,4 L0,3 L0,3 Z M2,3 L4,3 L4,4 L2,4 L2,3 L2,3 Z M8,3 L13,3 L13,4 L8,4 L8,3 L8,3 Z M6,3 L7,3 L7,4 L6,4 L6,3 L6,3 Z" style="mix-blend-mode:multiply"/>
            <path fill-opacity=".25" d="M1,3 L2,3 L2,4 L1,4 L1,3 Z M7,3 L8,3 L8,4 L7,4 L7,3 Z" style="mix-blend-mode:multiply"/>
          </g>
        </g>
        <g transform="translate(65 69)">
          <polygon fill="#E5A600" points="3 4 27 4 28 29 1 28"/>
          <polygon fill="#FFCC19" points="0 0 27 0 27 24 0 23"/>
          <g fill="#D99900" opacity=".64" transform="translate(8 9)">
            <path d="M1,0 L4,0 L4,1 L1,1 L1,0 L1,0 Z M5,0 L6,0 L6,1 L5,1 L5,0 L5,0 Z M11,0 L12,0 L12,1 L11,1 L11,0 L11,0 Z M7,0 L10,0 L10,1 L7,1 L7,0 L7,0 Z" style="mix-blend-mode:multiply"/>
            <path fill-opacity=".5" d="M4,0 L5,0 L5,1 L4,1 L4,0 L4,0 Z M10,0 L11,0 L11,1 L10,1 L10,0 L10,0 Z M0,3 L1,3 L1,4 L0,4 L0,3 L0,3 Z M2,3 L4,3 L4,4 L2,4 L2,3 L2,3 Z M8,3 L13,3 L13,4 L8,4 L8,3 L8,3 Z M6,3 L7,3 L7,4 L6,4 L6,3 L6,3 Z" style="mix-blend-mode:multiply"/>
            <path fill-opacity=".25" d="M1,3 L2,3 L2,4 L1,4 L1,3 Z M7,3 L8,3 L8,4 L7,4 L7,3 Z" style="mix-blend-mode:multiply"/>
          </g>
        </g>
        <g transform="translate(16 68)">
          <polygon fill="#E5A600" points="3 4 27 4 28 29 1 28"/>
          <polygon fill="#FFCC19" points="0 0 27 0 27 24 0 23"/>
          <g fill="#D99900" opacity=".64" transform="translate(8 9)">
            <path d="M1,0 L4,0 L4,1 L1,1 L1,0 L1,0 Z M5,0 L6,0 L6,1 L5,1 L5,0 L5,0 Z M11,0 L12,0 L12,1 L11,1 L11,0 L11,0 Z M7,0 L10,0 L10,1 L7,1 L7,0 L7,0 Z" style="mix-blend-mode:multiply"/>
            <path fill-opacity=".5" d="M4,0 L5,0 L5,1 L4,1 L4,0 L4,0 Z M10,0 L11,0 L11,1 L10,1 L10,0 L10,0 Z M0,3 L1,3 L1,4 L0,4 L0,3 L0,3 Z M2,3 L4,3 L4,4 L2,4 L2,3 L2,3 Z M8,3 L13,3 L13,4 L8,4 L8,3 L8,3 Z M6,3 L7,3 L7,4 L6,4 L6,3 L6,3 Z" style="mix-blend-mode:multiply"/>
            <path fill-opacity=".25" d="M1,3 L2,3 L2,4 L1,4 L1,3 Z M7,3 L8,3 L8,4 L7,4 L7,3 Z" style="mix-blend-mode:multiply"/>
          </g>
        </g>
      </g>
    </g>
    <g transform="translate(2 118)">
      <circle cx="59.5" cy="59.5" r="59.5" fill="#FFF" fill-opacity=".2"/>
      <use stroke="#FFF" stroke-dasharray="2" stroke-opacity=".4" stroke-width="2" mask="url(#bg-about-marketing-agency-b)" xlink:href="#bg-about-marketing-agency-a"/>
      <circle cx="60" cy="60" r="23" fill="#FFF" fill-opacity=".2"/>
    </g>
  </g>
</svg>
