<svg width="430" height="192" viewBox="0 0 430 192" fill="none" xmlns="http://www.w3.org/2000/svg">
<g id="bg-about-marketing-agency" clip-path="url(#clip0_547_9348)">
<g id="Watch">
<path id="Shape" fill-rule="evenodd" clip-rule="evenodd" d="M357 36.5C357 16.3416 373.342 0 393.5 0C413.658 0 430 16.3416 430 36.5C430 56.6584 413.658 73 393.5 73C373.342 73 357 56.6584 357 36.5ZM361 36.5C361 54.4493 375.551 69 393.5 69C402.12 69 410.386 65.5759 416.481 59.481C422.576 53.386 426 45.1195 426 36.5C426 18.5507 411.449 4 393.5 4C375.551 4 361 18.5507 361 36.5Z" fill="#F18D00"/>
<path id="Shape_2" d="M412 36.5L394.82 35.27L393.5 13L392.18 35.09L391 35V38L392.05 37.93L392 39H395L394.94 37.72L412 36.5Z" fill="#F18D00"/>
<path id="Combined Shape" fill-rule="evenodd" clip-rule="evenodd" d="M394.05 13.58C394.275 13.1534 394.623 12.8048 395.05 12.58L395.8 12.15C396.055 12.0118 396.294 11.844 396.51 11.65C396.916 11.2248 396.916 10.5552 396.51 10.13C396.299 9.93398 396.018 9.8297 395.73 9.84C395.315 9.79644 394.916 10.0158 394.73 10.39C394.615 10.6444 394.557 10.9208 394.56 11.2H393.85C393.834 10.7865 393.927 10.3761 394.12 10.01C394.454 9.45062 395.082 9.13493 395.73 9.2C396.205 9.14847 396.679 9.3028 397.033 9.62395C397.386 9.9451 397.586 10.4023 397.58 10.88C397.586 11.3104 397.412 11.7238 397.1 12.02C396.8 12.2919 396.463 12.5208 396.1 12.7L395.57 12.99C395.354 13.1013 395.152 13.239 394.97 13.4C394.727 13.588 394.555 13.8521 394.48 14.15H397.53V14.81H393.69C393.729 14.3806 393.852 13.9628 394.05 13.58ZM389.82 10.87V10.33C390.185 10.3139 390.544 10.2326 390.88 10.09C391.134 9.88349 391.295 9.58518 391.33 9.26H391.88V14.83H391.13V10.83L389.82 10.87ZM395.29 59.7C395.282 59.3346 395.152 58.9824 394.92 58.7C394.587 58.343 394.105 58.165 393.62 58.22C392.77 58.2024 392.024 58.782 391.83 59.61C391.648 60.1818 391.563 60.7802 391.58 61.38C391.509 62.0948 391.713 62.8098 392.15 63.38C392.493 63.764 392.985 63.9824 393.5 63.98C394.039 64.0099 394.561 63.7927 394.92 63.39C395.245 63.0162 395.419 62.5351 395.41 62.04C395.448 61.5378 395.257 61.0454 394.89 60.7C394.55 60.4034 394.111 60.2431 393.66 60.25C393.401 60.2459 393.145 60.3006 392.91 60.41C392.661 60.5262 392.45 60.7098 392.3 60.94C392.294 60.3952 392.429 59.858 392.69 59.38C392.88 59.039 393.24 58.8282 393.63 58.83C393.931 58.8099 394.222 58.9458 394.4 59.19C394.501 59.3445 394.569 59.5181 394.6 59.7H395.29ZM394.39 62.98C394.58 62.7268 394.679 62.4166 394.67 62.1C394.671 61.8078 394.584 61.5222 394.42 61.28C394.211 61.0049 393.874 60.8574 393.53 60.89C393.211 60.8768 392.903 61.0026 392.684 61.2347C392.465 61.4669 392.358 61.7826 392.39 62.1C392.384 62.4241 392.494 62.7398 392.7 62.99C392.918 63.2327 393.234 63.3648 393.56 63.35C393.877 63.3716 394.185 63.2417 394.39 63V62.98ZM366.79 38.28C366.502 38.1189 366.328 37.81 366.34 37.48L365.63 37.49C365.619 37.8919 365.77 38.2814 366.05 38.57C366.393 38.8741 366.843 39.0289 367.3 39C368.113 39.0036 368.825 38.4563 369.03 37.67C369.247 37.0883 369.352 36.4708 369.34 35.85C369.359 35.3308 369.27 34.8133 369.08 34.33C368.822 33.6343 368.141 33.1881 367.4 33.23C366.877 33.1915 366.367 33.4074 366.03 33.81C365.72 34.1873 365.554 34.6619 365.56 35.15C365.541 35.625 365.71 36.0884 366.03 36.44C366.363 36.7874 366.83 36.9735 367.31 36.95C367.564 36.9526 367.817 36.9015 368.05 36.8C368.296 36.6915 368.5 36.5053 368.63 36.27C368.621 36.8747 368.448 37.4656 368.13 37.98C367.923 38.2451 367.606 38.4001 367.27 38.4C367.102 38.4008 366.937 38.3596 366.79 38.28ZM368.17 36.05C368.439 35.7915 368.566 35.4187 368.51 35.05C368.537 34.7138 368.425 34.3812 368.2 34.13C367.988 33.9268 367.703 33.8185 367.41 33.83C367.099 33.8204 366.799 33.9485 366.59 34.18C366.381 34.4395 366.274 34.7669 366.29 35.1C366.275 35.4127 366.37 35.7208 366.56 35.97C366.774 36.2036 367.085 36.3223 367.4 36.29C367.677 36.3029 367.95 36.218 368.17 36.05ZM417.47 37.11C417.452 37.5919 417.608 38.0642 417.91 38.44C418.283 38.8158 418.803 39.0063 419.33 38.96C419.878 38.9956 420.417 38.8122 420.83 38.45C421.184 38.1118 421.376 37.639 421.36 37.15C421.367 36.8475 421.28 36.5503 421.11 36.3C420.938 36.0717 420.695 35.9065 420.42 35.83C420.592 35.7688 420.744 35.6616 420.86 35.52C421.055 35.289 421.156 34.9922 421.14 34.69C421.17 34.2662 420.995 33.8537 420.67 33.58C420.287 33.3053 419.821 33.1711 419.35 33.2C418.737 33.1415 418.147 33.4465 417.84 33.98C417.663 34.308 417.576 34.6774 417.59 35.05H418.28C418.281 34.7937 418.339 34.5409 418.45 34.31C418.659 33.9667 419.053 33.7816 419.45 33.84C419.7 33.8346 419.944 33.9159 420.14 34.07C420.341 34.2199 420.453 34.46 420.44 34.71C420.469 35.036 420.294 35.3463 420 35.49C419.797 35.5851 419.574 35.6297 419.35 35.62H419.19H419V36.24H419.28C419.628 36.2214 419.975 36.3011 420.28 36.47C420.527 36.6628 420.659 36.968 420.63 37.28C420.635 37.5742 420.511 37.8559 420.29 38.05C420.042 38.2592 419.724 38.3664 419.4 38.35C419.01 38.393 418.627 38.2207 418.4 37.9C418.274 37.6552 418.206 37.3851 418.2 37.11H417.47ZM414.82 25.58C415.049 25.1567 415.397 24.8092 415.82 24.58L416.57 24.15C416.823 24.0122 417.058 23.8443 417.27 23.65C417.473 23.4491 417.587 23.1754 417.587 22.89C417.587 22.6045 417.473 22.3309 417.27 22.13C417.06 21.931 416.779 21.8263 416.49 21.84C416.075 21.7964 415.676 22.0158 415.49 22.39C415.379 22.6453 415.324 22.9216 415.33 23.2H414.61C414.604 22.7874 414.696 22.3794 414.88 22.01C415.216 21.4525 415.842 21.1374 416.49 21.2C417.014 21.151 417.533 21.3422 417.9 21.72C418.182 22.0409 418.338 22.4529 418.34 22.88C418.345 23.3082 418.176 23.72 417.87 24.02C417.568 24.2894 417.232 24.518 416.87 24.7L416.33 24.99C416.117 25.1062 415.916 25.2436 415.73 25.4C415.491 25.5911 415.319 25.854 415.24 26.15H418.3V26.81H414.46C414.494 26.3797 414.617 25.961 414.82 25.58ZM367.82 22.33V22.87L369.13 22.83V26.83H369.88V21.26H369.33C369.295 21.5852 369.134 21.8835 368.88 22.09C368.544 22.2326 368.185 22.3139 367.82 22.33ZM375.23 22.13C375.509 22.7233 375.639 23.3752 375.61 24.03C375.633 24.6771 375.517 25.3215 375.27 25.92C375.013 26.5806 374.369 27.0087 373.66 26.99C373.032 27.0102 372.449 26.6678 372.16 26.11C371.855 25.4893 371.714 24.8007 371.75 24.11C371.736 23.5528 371.82 22.9976 372 22.47C372.187 21.7099 372.877 21.1819 373.66 21.2C374.323 21.1661 374.941 21.5325 375.23 22.13ZM374.85 24.06C374.902 24.6776 374.792 25.2981 374.53 25.86C374.354 26.1576 374.036 26.343 373.69 26.35C373.207 26.3597 372.786 26.0231 372.69 25.55C372.556 25.1062 372.495 24.6434 372.51 24.18C372.475 23.5921 372.574 23.004 372.8 22.46C372.961 22.1016 373.317 21.8708 373.71 21.87C374.119 21.8453 374.493 22.1002 374.62 22.49C374.787 22.9961 374.865 23.5273 374.85 24.06ZM405 13.87V13.33C405.365 13.3152 405.724 13.2339 406.06 13.09C406.314 12.8835 406.475 12.5852 406.51 12.26H407.07V17.83H406.32V13.83L405 13.87ZM378.11 13.33V13.87L379.43 13.83V17.83H380.18V12.26H379.62C379.585 12.5852 379.424 12.8835 379.17 13.09C378.834 13.2339 378.475 13.3152 378.11 13.33ZM382 13.87V13.33C382.365 13.3152 382.724 13.2339 383.06 13.09C383.314 12.8835 383.475 12.5852 383.51 12.26H384V17.83H383.25V13.83L382 13.87ZM406.82 59.24C406.498 59.0834 406.285 58.7669 406.26 58.41L405.53 58.4C405.538 58.8623 405.755 59.296 406.12 59.58C406.471 59.8346 406.896 59.968 407.33 59.96C407.915 60.0149 408.492 59.7929 408.89 59.36C409.214 58.9662 409.388 58.47 409.38 57.96C409.396 57.4826 409.203 57.0221 408.85 56.7C408.494 56.3715 408.024 56.1956 407.54 56.21C407.294 56.2039 407.049 56.2481 406.82 56.34C406.687 56.395 406.562 56.4691 406.45 56.56L406.69 55H409.07V54.38H406.16L405.74 57.38H406.35C406.464 57.2171 406.615 57.0835 406.79 56.99C406.982 56.8935 407.195 56.8455 407.41 56.85C407.727 56.8438 408.034 56.9582 408.27 57.17C408.52 57.4046 408.652 57.7382 408.63 58.08C408.63 58.3984 408.525 58.7079 408.33 58.96C408.103 59.2365 407.757 59.3857 407.4 59.36C407.2 59.3638 407.002 59.3228 406.82 59.24ZM382.46 54.33V55C382.191 55.279 381.95 55.5838 381.74 55.91C381.435 56.3522 381.171 56.8207 380.95 57.31C380.741 57.7375 380.571 58.1825 380.44 58.64C380.36 58.9 380.26 59.31 380.14 59.88H379.37C379.561 58.7571 379.958 57.679 380.54 56.7C380.859 56.1275 381.234 55.5882 381.66 55.09H378.57V54.38L382.46 54.33ZM416.93 50.47V51.83H417.63V50.47H418.46V49.85H417.63V46.22H417.04L414.48 49.78V50.47H416.93ZM415.14 49.83H416.93V47.29L415.14 49.83ZM369.69 47.75C369.677 48.0513 369.789 48.3445 370 48.56C370.131 48.6811 370.284 48.7762 370.45 48.84C370.163 48.9519 369.916 49.1469 369.74 49.4C369.568 49.6494 369.481 49.9473 369.49 50.25C369.459 50.7471 369.671 51.2284 370.06 51.54C370.454 51.8449 370.943 52.0008 371.44 51.98C371.957 52.0113 372.464 51.8266 372.84 51.47C373.168 51.1373 373.348 50.6869 373.34 50.22C373.35 49.8497 373.213 49.4905 372.96 49.22C372.807 49.0641 372.623 48.9416 372.42 48.86C372.592 48.7653 372.747 48.6437 372.88 48.5C373.06 48.2541 373.152 47.9546 373.14 47.65C373.143 47.2669 372.979 46.9015 372.69 46.65C372.337 46.3503 371.883 46.1965 371.42 46.22C370.95 46.1906 370.488 46.353 370.14 46.67C369.847 46.9522 369.684 47.3432 369.69 47.75ZM372.26 51.09C372.483 50.8894 372.604 50.5995 372.59 50.3C372.611 49.9886 372.485 49.6853 372.25 49.48C372.011 49.285 371.708 49.1852 371.4 49.2C371.101 49.186 370.808 49.2861 370.58 49.48C370.358 49.6847 370.24 49.9787 370.26 50.28C370.257 50.558 370.36 50.8266 370.55 51.03C370.789 51.2621 371.118 51.3789 371.45 51.35C371.756 51.3753 372.06 51.2823 372.3 51.09H372.26ZM372.39 47.725C372.39 47.951 372.296 48.1667 372.13 48.32H372.17C371.964 48.5218 371.676 48.6177 371.39 48.58C371.142 48.5883 370.898 48.5106 370.7 48.36C370.505 48.2154 370.396 47.9823 370.41 47.74C370.405 47.5164 370.483 47.2989 370.63 47.13C370.824 46.9336 371.095 46.8345 371.37 46.86C371.65 46.8393 371.926 46.9373 372.13 47.13C372.296 47.2833 372.39 47.499 372.39 47.725Z" fill="#F18D00"/>
<g id="Shape_3">
<path fill-rule="evenodd" clip-rule="evenodd" d="M393 7V5H394V7H393ZM396.083 7.11779L396.293 5.11779L397.287 5.22221L397.077 7.22221L396.083 7.11779ZM399.141 7.54472L399.561 5.59472L400.539 5.80528L400.119 7.75528L399.141 7.54472ZM402.144 8.29716L402.754 6.39716L403.706 6.70284L403.096 8.60284L402.144 8.29716ZM405.043 9.35763L405.853 7.52763L406.767 7.93237L405.957 9.76237L405.043 9.35763ZM407.817 10.7098L408.817 8.97978L409.683 9.48022L408.683 11.2102L407.817 10.7098ZM410.417 12.3144L411.597 10.7044L412.403 11.2956L411.223 12.9056L410.417 12.3144ZM412.848 14.2257L414.188 12.7357L414.932 13.4043L413.592 14.8943L412.848 14.2257ZM415.066 16.3682L416.556 15.0282L417.224 15.7718L415.734 17.1118L415.066 16.3682ZM417.094 18.7767L418.704 17.5967L419.296 18.4033L417.686 19.5833L417.094 18.7767ZM418.82 21.3371L420.55 20.3371L421.05 21.2029L419.32 22.2029L418.82 21.3371ZM420.268 24.0628L422.098 23.2528L422.502 24.1672L420.672 24.9772L420.268 24.0628ZM421.417 26.9239L423.317 26.3139L423.623 27.2661L421.723 27.8761L421.417 26.9239ZM422.265 29.9012L424.215 29.4812L424.425 30.4588L422.475 30.8788L422.265 29.9012ZM422.788 32.9427L424.788 32.7327L424.892 33.7273L422.892 33.9373L422.788 32.9427ZM423 36H425V37H423V36ZM422.882 39.0827L424.882 39.2927L424.778 40.2873L422.778 40.0773L422.882 39.0827ZM422.455 42.1412L424.405 42.5612L424.195 43.5388L422.245 43.1188L422.455 42.1412ZM423.297 46.7161L421.397 46.1061L421.703 45.1539L423.603 45.7639L423.297 46.7161ZM420.642 48.0528L422.472 48.8628L422.068 49.7772L420.238 48.9672L420.642 48.0528ZM420.52 52.6929L418.79 51.6929L419.29 50.8271L421.02 51.8271L420.52 52.6929ZM417.686 53.4167L419.296 54.5967L418.704 55.4033L417.094 54.2233L417.686 53.4167ZM415.774 55.8482L417.264 57.1882L416.596 57.9318L415.106 56.5918L415.774 55.8482ZM413.632 58.0657L414.972 59.5557L414.228 60.2243L412.888 58.7343L413.632 58.0657ZM411.223 60.0944L412.403 61.7044L411.597 62.2956L410.417 60.6856L411.223 60.0944ZM408.663 61.8198L409.663 63.5498L408.797 64.0502L407.797 62.3202L408.663 61.8198ZM405.937 63.2676L406.747 65.0976L405.833 65.5024L405.023 63.6724L405.937 63.2676ZM403.076 64.4172L403.686 66.3172L402.734 66.6228L402.124 64.7228L403.076 64.4172ZM400.099 65.2647L400.519 67.2147L399.541 67.4253L399.121 65.4753L400.099 65.2647ZM397.057 65.7878L397.267 67.7878L396.273 67.8922L396.063 65.8922L397.057 65.7878ZM394 66V68H393V66H394ZM390.917 65.8822L390.707 67.8822L389.713 67.7778L389.923 65.7778L390.917 65.8822ZM387.909 65.4653L387.489 67.4153L386.511 67.2047L386.931 65.2547L387.909 65.4653ZM384.906 64.7128L384.296 66.6128L383.344 66.3072L383.954 64.4072L384.906 64.7128ZM382.007 63.6524L381.197 65.4824L380.283 65.0776L381.093 63.2476L382.007 63.6524ZM377.367 63.5298L378.367 61.7998L379.233 62.3002L378.233 64.0302L377.367 63.5298ZM376.583 60.6856L375.403 62.2956L374.597 61.7044L375.777 60.0944L376.583 60.6856ZM374.152 58.7743L372.812 60.2643L372.068 59.5957L373.408 58.1057L374.152 58.7743ZM371.934 56.6318L370.444 57.9718L369.776 57.2282L371.266 55.8882L371.934 56.6318ZM369.906 54.2233L368.296 55.4033L367.704 54.5967L369.314 53.4167L369.906 54.2233ZM368.18 51.6629L366.45 52.6629L365.95 51.7971L367.68 50.7971L368.18 51.6629ZM366.732 48.9372L364.902 49.7472L364.498 48.8328L366.328 48.0228L366.732 48.9372ZM365.583 46.0761L363.683 46.6861L363.377 45.7339L365.277 45.1239L365.583 46.0761ZM364.735 43.0988L362.785 43.5188L362.575 42.5412L364.525 42.1212L364.735 43.0988ZM362.098 39.3227L364.098 39.1127L364.202 40.1073L362.202 40.3173L362.098 39.3227ZM364 37H362V36H364V37ZM362.212 32.7127L364.212 32.9227L364.108 33.9173L362.108 33.7073L362.212 32.7127ZM362.785 29.4612L364.735 29.8812L364.525 30.8588L362.575 30.4388L362.785 29.4612ZM365.277 27.8561L363.377 27.2461L363.683 26.2939L365.583 26.9039L365.277 27.8561ZM366.338 24.9572L364.508 24.1472L364.912 23.2328L366.742 24.0428L366.338 24.9572ZM367.69 22.1829L365.96 21.1829L366.46 20.3171L368.19 21.3171L367.69 22.1829ZM369.314 19.5833L367.704 18.4033L368.296 17.5967L369.906 18.7767L369.314 19.5833ZM371.226 17.1518L369.736 15.8118L370.404 15.0682L371.894 16.4082L371.226 17.1518ZM373.368 14.9343L372.028 13.4443L372.772 12.7757L374.112 14.2657L373.368 14.9343ZM375.777 12.9056L374.597 11.2956L375.403 10.7044L376.583 12.3144L375.777 12.9056ZM378.337 11.1802L377.337 9.45022L378.203 8.94978L379.203 10.6798L378.337 11.1802ZM381.063 9.73237L380.253 7.90237L381.167 7.49763L381.977 9.32763L381.063 9.73237ZM383.924 8.58284L383.314 6.68284L384.266 6.37716L384.876 8.27716L383.924 8.58284ZM386.901 7.73528L386.481 5.78528L387.459 5.57472L387.879 7.52472L386.901 7.73528ZM390.677 5.09779L390.887 7.09779L389.893 7.20221L389.683 5.20221L390.677 5.09779Z" fill="#F18D00"/>
<path d="M393 5V4.5H392.5V5H393ZM393 7H392.5V7.5H393V7ZM394 5H394.5V4.5H394V5ZM394 7V7.5H394.5V7H394ZM396.293 5.11779L396.345 4.62052L395.848 4.56831L395.795 5.06557L396.293 5.11779ZM396.083 7.11779L395.585 7.06557L395.533 7.56284L396.031 7.61505L396.083 7.11779ZM397.287 5.22221L397.785 5.27443L397.837 4.77716L397.339 4.72495L397.287 5.22221ZM397.077 7.22221L397.025 7.71948L397.522 7.77169L397.575 7.27443L397.077 7.22221ZM399.561 5.59472L399.666 5.10593L399.178 5.00065L399.072 5.48944L399.561 5.59472ZM399.141 7.54472L398.652 7.43944L398.547 7.92823L399.036 8.03351L399.141 7.54472ZM400.539 5.80528L401.028 5.91056L401.133 5.42177L400.644 5.31649L400.539 5.80528ZM400.119 7.75528L400.014 8.24407L400.502 8.34935L400.608 7.86056L400.119 7.75528ZM402.754 6.39716L402.907 5.92109L402.431 5.76825L402.278 6.24432L402.754 6.39716ZM402.144 8.29716L401.668 8.14432L401.515 8.62038L401.991 8.77322L402.144 8.29716ZM403.706 6.70284L404.182 6.85568L404.335 6.37962L403.859 6.22678L403.706 6.70284ZM403.096 8.60284L402.943 9.07891L403.419 9.23175L403.572 8.75568L403.096 8.60284ZM405.853 7.52763L406.055 7.07041L405.598 6.86804L405.396 7.32525L405.853 7.52763ZM405.043 9.35763L404.586 9.15525L404.383 9.61247L404.84 9.81484L405.043 9.35763ZM406.767 7.93237L407.224 8.13475L407.427 7.67753L406.97 7.47516L406.767 7.93237ZM405.957 9.76237L405.755 10.2196L406.212 10.422L406.414 9.96475L405.957 9.76237ZM408.817 8.97978L409.067 8.54689L408.634 8.29667L408.384 8.72956L408.817 8.97978ZM407.817 10.7098L407.384 10.4596L407.134 10.8924L407.567 11.1427L407.817 10.7098ZM409.683 9.48022L410.116 9.73044L410.366 9.29756L409.933 9.04734L409.683 9.48022ZM408.683 11.2102L408.433 11.6431L408.866 11.8933L409.116 11.4604L408.683 11.2102ZM411.597 10.7044L411.892 10.3011L411.489 10.0056L411.193 10.4089L411.597 10.7044ZM410.417 12.3144L410.013 12.0189L409.718 12.4221L410.121 12.7177L410.417 12.3144ZM412.403 11.2956L412.807 11.5911L413.102 11.1879L412.699 10.8923L412.403 11.2956ZM411.223 12.9056L410.928 13.3089L411.331 13.6044L411.627 13.2011L411.223 12.9056ZM414.188 12.7357L414.523 12.3639L414.151 12.0295L413.816 12.4013L414.188 12.7357ZM412.848 14.2257L412.476 13.8913L412.142 14.2631L412.514 14.5974L412.848 14.2257ZM414.932 13.4043L415.304 13.7387L415.638 13.3669L415.266 13.0326L414.932 13.4043ZM413.592 14.8943L413.257 15.2661L413.629 15.6005L413.964 15.2287L413.592 14.8943ZM416.556 15.0282L416.927 14.6939L416.593 14.3221L416.221 14.6565L416.556 15.0282ZM415.066 16.3682L414.731 15.9965L414.36 16.3308L414.694 16.7026L415.066 16.3682ZM417.224 15.7718L417.559 16.1435L417.93 15.8092L417.596 15.4374L417.224 15.7718ZM415.734 17.1118L415.363 17.4461L415.697 17.8179L416.069 17.4835L415.734 17.1118ZM418.704 17.5967L419.108 17.3011L418.812 16.8979L418.409 17.1934L418.704 17.5967ZM417.094 18.7767L416.799 18.3734L416.396 18.669L416.691 19.0723L417.094 18.7767ZM419.296 18.4033L419.591 18.8066L419.994 18.511L419.699 18.1077L419.296 18.4033ZM417.686 19.5833L417.282 19.8789L417.578 20.2821L417.981 19.9866L417.686 19.5833ZM420.55 20.3371L420.983 20.0869L420.732 19.654L420.3 19.9042L420.55 20.3371ZM418.82 21.3371L418.57 20.9042L418.137 21.1545L418.387 21.5873L418.82 21.3371ZM421.05 21.2029L421.3 21.6358L421.733 21.3855L421.483 20.9527L421.05 21.2029ZM419.32 22.2029L418.887 22.4531L419.138 22.886L419.57 22.6358L419.32 22.2029ZM422.098 23.2528L422.555 23.0504L422.352 22.5932L421.895 22.7956L422.098 23.2528ZM420.268 24.0628L420.065 23.6056L419.608 23.8079L419.81 24.2652L420.268 24.0628ZM422.502 24.1672L422.705 24.6244L423.162 24.4221L422.96 23.9648L422.502 24.1672ZM420.672 24.9772L420.215 25.1796L420.418 25.6368L420.875 25.4344L420.672 24.9772ZM423.317 26.3139L423.793 26.1611L423.64 25.685L423.164 25.8379L423.317 26.3139ZM421.417 26.9239L421.264 26.4479L420.788 26.6007L420.941 27.0768L421.417 26.9239ZM423.623 27.2661L423.776 27.7421L424.252 27.5893L424.099 27.1132L423.623 27.2661ZM421.723 27.8761L421.247 28.0289L421.4 28.505L421.876 28.3521L421.723 27.8761ZM424.215 29.4812L424.704 29.3759L424.598 28.8871L424.109 28.9924L424.215 29.4812ZM422.265 29.9012L422.159 29.4124L421.671 29.5177L421.776 30.0065L422.265 29.9012ZM424.425 30.4588L424.531 30.9476L425.019 30.8423L424.914 30.3535L424.425 30.4588ZM422.475 30.8788L421.986 30.9841L422.092 31.4729L422.581 31.3676L422.475 30.8788ZM424.788 32.7327L425.285 32.6805L425.233 32.1833L424.736 32.2355L424.788 32.7327ZM422.788 32.9427L422.736 32.4455L422.238 32.4977L422.291 32.9949L422.788 32.9427ZM424.892 33.7273L424.944 34.2245L425.442 34.1723L425.389 33.6751L424.892 33.7273ZM422.892 33.9373L422.395 33.9895L422.447 34.4867L422.944 34.4345L422.892 33.9373ZM425 36H425.5V35.5H425V36ZM423 36V35.5H422.5V36H423ZM425 37V37.5H425.5V37H425ZM423 37H422.5V37.5H423V37ZM424.882 39.2927L425.379 39.3449L425.432 38.8477L424.934 38.7955L424.882 39.2927ZM422.882 39.0827L422.934 38.5855L422.437 38.5333L422.385 39.0305L422.882 39.0827ZM424.778 40.2873L424.726 40.7845L425.223 40.8367L425.275 40.3395L424.778 40.2873ZM422.778 40.0773L422.281 40.0251L422.228 40.5223L422.726 40.5745L422.778 40.0773ZM424.405 42.5612L424.894 42.6665L424.999 42.1777L424.511 42.0724L424.405 42.5612ZM422.455 42.1412L422.561 41.6524L422.072 41.5471L421.966 42.0359L422.455 42.1412ZM424.195 43.5388L424.089 44.0276L424.578 44.1329L424.684 43.6441L424.195 43.5388ZM422.245 43.1188L421.756 43.0135L421.651 43.5023L422.139 43.6076L422.245 43.1188ZM421.397 46.1061L420.921 45.9532L420.768 46.4293L421.244 46.5821L421.397 46.1061ZM423.297 46.7161L423.144 47.1921L423.62 47.345L423.773 46.8689L423.297 46.7161ZM421.703 45.1539L421.856 44.6779L421.38 44.525L421.227 45.0011L421.703 45.1539ZM423.603 45.7639L424.079 45.9168L424.232 45.4407L423.756 45.2879L423.603 45.7639ZM422.472 48.8628L422.93 49.0652L423.132 48.6079L422.675 48.4056L422.472 48.8628ZM420.642 48.0528L420.845 47.5956L420.388 47.3932L420.185 47.8504L420.642 48.0528ZM422.068 49.7772L421.865 50.2344L422.322 50.4368L422.525 49.9796L422.068 49.7772ZM420.238 48.9672L419.78 48.7648L419.578 49.2221L420.035 49.4244L420.238 48.9672ZM418.79 51.6929L418.357 51.4427L418.107 51.8755L418.54 52.1258L418.79 51.6929ZM420.52 52.6929L420.27 53.1258L420.702 53.376L420.953 52.9431L420.52 52.6929ZM419.29 50.8271L419.54 50.3942L419.108 50.144L418.857 50.5769L419.29 50.8271ZM421.02 51.8271L421.453 52.0773L421.703 51.6445L421.27 51.3942L421.02 51.8271ZM419.296 54.5967L419.699 54.8923L419.994 54.489L419.591 54.1934L419.296 54.5967ZM417.686 53.4167L417.981 53.0134L417.578 52.7179L417.282 53.1211L417.686 53.4167ZM418.704 55.4033L418.409 55.8066L418.812 56.1021L419.108 55.6989L418.704 55.4033ZM417.094 54.2233L416.691 53.9277L416.396 54.331L416.799 54.6266L417.094 54.2233ZM417.264 57.1882L417.636 57.5226L417.97 57.1508L417.599 56.8165L417.264 57.1882ZM415.774 55.8482L416.109 55.4765L415.737 55.1421L415.403 55.5139L415.774 55.8482ZM416.596 57.9318L416.261 58.3035L416.633 58.6379L416.967 58.2661L416.596 57.9318ZM415.106 56.5918L414.734 56.2574L414.4 56.6292L414.771 56.9635L415.106 56.5918ZM414.972 59.5557L415.306 59.9274L415.678 59.5931L415.344 59.2213L414.972 59.5557ZM413.632 58.0657L414.004 57.7313L413.669 57.3595L413.297 57.6939L413.632 58.0657ZM414.228 60.2243L413.856 60.5587L414.191 60.9305L414.563 60.5961L414.228 60.2243ZM412.888 58.7343L412.554 58.3626L412.182 58.6969L412.516 59.0687L412.888 58.7343ZM412.403 61.7044L412.699 62.1077L413.102 61.8121L412.807 61.4089L412.403 61.7044ZM411.223 60.0944L411.627 59.7989L411.331 59.3956L410.928 59.6911L411.223 60.0944ZM411.597 62.2956L411.193 62.5911L411.489 62.9944L411.892 62.6989L411.597 62.2956ZM410.417 60.6856L410.121 60.2823L409.718 60.5779L410.013 60.9811L410.417 60.6856ZM409.663 63.5498L409.913 63.9827L410.346 63.7324L410.096 63.2996L409.663 63.5498ZM408.663 61.8198L409.096 61.5696L408.846 61.1367L408.413 61.3869L408.663 61.8198ZM408.797 64.0502L408.364 64.3004L408.614 64.7333L409.047 64.4831L408.797 64.0502ZM407.797 62.3202L407.547 61.8873L407.114 62.1376L407.364 62.5704L407.797 62.3202ZM406.747 65.0976L406.95 65.5548L407.407 65.3525L407.204 64.8953L406.747 65.0976ZM405.937 63.2676L406.394 63.0653L406.192 62.608L405.735 62.8104L405.937 63.2676ZM405.833 65.5024L405.376 65.7048L405.578 66.162L406.035 65.9596L405.833 65.5024ZM405.023 63.6724L404.82 63.2152L404.363 63.4175L404.566 63.8747L405.023 63.6724ZM403.686 66.3172L403.839 66.7932L404.315 66.6404L404.162 66.1643L403.686 66.3172ZM403.076 64.4172L403.552 64.2643L403.399 63.7882L402.923 63.9411L403.076 64.4172ZM402.734 66.6228L402.258 66.7757L402.411 67.2518L402.887 67.0989L402.734 66.6228ZM402.124 64.7228L401.971 64.2468L401.495 64.3996L401.648 64.8757L402.124 64.7228ZM400.519 67.2147L400.624 67.7035L401.113 67.5982L401.008 67.1094L400.519 67.2147ZM400.099 65.2647L400.588 65.1594L400.482 64.6707L399.994 64.7759L400.099 65.2647ZM399.541 67.4253L399.052 67.5306L399.158 68.0193L399.646 67.9141L399.541 67.4253ZM399.121 65.4753L399.016 64.9865L398.527 65.0918L398.632 65.5806L399.121 65.4753ZM397.267 67.7878L397.319 68.2851L397.817 68.2328L397.765 67.7356L397.267 67.7878ZM397.057 65.7878L397.555 65.7356L397.502 65.2383L397.005 65.2905L397.057 65.7878ZM396.273 67.8922L395.775 67.9444L395.828 68.4417L396.325 68.3895L396.273 67.8922ZM396.063 65.8922L396.011 65.3949L395.513 65.4472L395.565 65.9444L396.063 65.8922ZM394 68V68.5H394.5V68H394ZM394 66H394.5V65.5H394V66ZM393 68H392.5V68.5H393V68ZM393 66V65.5H392.5V66H393ZM390.707 67.8822L390.655 68.3795L391.152 68.4317L391.205 67.9344L390.707 67.8822ZM390.917 65.8822L391.415 65.9344L391.467 65.4372L390.969 65.3849L390.917 65.8822ZM389.713 67.7778L389.215 67.7256L389.163 68.2228L389.661 68.2751L389.713 67.7778ZM389.923 65.7778L389.975 65.2805L389.478 65.2283L389.425 65.7256L389.923 65.7778ZM387.489 67.4153L387.384 67.9041L387.872 68.0093L387.978 67.5206L387.489 67.4153ZM387.909 65.4653L388.398 65.5706L388.503 65.0818L388.014 64.9765L387.909 65.4653ZM386.511 67.2047L386.022 67.0994L385.917 67.5882L386.406 67.6935L386.511 67.2047ZM386.931 65.2547L387.036 64.7659L386.548 64.6607L386.442 65.1494L386.931 65.2547ZM384.296 66.6128L384.143 67.0889L384.619 67.2418L384.772 66.7657L384.296 66.6128ZM384.906 64.7128L385.382 64.8657L385.535 64.3896L385.059 64.2368L384.906 64.7128ZM383.344 66.3072L382.868 66.1543L382.715 66.6304L383.191 66.7832L383.344 66.3072ZM383.954 64.4072L384.107 63.9311L383.631 63.7783L383.478 64.2543L383.954 64.4072ZM381.197 65.4824L380.995 65.9396L381.452 66.142L381.654 65.6847L381.197 65.4824ZM382.007 63.6524L382.464 63.8547L382.667 63.3975L382.21 63.1952L382.007 63.6524ZM380.283 65.0776L379.826 64.8753L379.623 65.3325L380.08 65.5348L380.283 65.0776ZM381.093 63.2476L381.295 62.7904L380.838 62.588L380.636 63.0453L381.093 63.2476ZM378.367 61.7998L378.617 61.3669L378.184 61.1167L377.934 61.5496L378.367 61.7998ZM377.367 63.5298L376.934 63.2796L376.684 63.7124L377.117 63.9627L377.367 63.5298ZM379.233 62.3002L379.666 62.5504L379.916 62.1176L379.483 61.8673L379.233 62.3002ZM378.233 64.0302L377.983 64.4631L378.416 64.7133L378.666 64.2804L378.233 64.0302ZM375.403 62.2956L375.108 62.6989L375.511 62.9944L375.807 62.5911L375.403 62.2956ZM376.583 60.6856L376.987 60.9811L377.282 60.5779L376.879 60.2823L376.583 60.6856ZM374.597 61.7044L374.193 61.4089L373.898 61.8121L374.301 62.1077L374.597 61.7044ZM375.777 60.0944L376.072 59.6911L375.669 59.3956L375.373 59.7989L375.777 60.0944ZM372.812 60.2643L372.477 60.6361L372.849 60.9705L373.184 60.5987L372.812 60.2643ZM374.152 58.7743L374.524 59.1087L374.858 58.7369L374.486 58.4026L374.152 58.7743ZM372.068 59.5957L371.696 59.2613L371.362 59.6331L371.734 59.9674L372.068 59.5957ZM373.408 58.1057L373.743 57.7339L373.371 57.3995L373.036 57.7713L373.408 58.1057ZM370.444 57.9718L370.073 58.3061L370.407 58.6779L370.779 58.3435L370.444 57.9718ZM371.934 56.6318L372.269 57.0035L372.64 56.6692L372.306 56.2974L371.934 56.6318ZM369.776 57.2282L369.441 56.8565L369.07 57.1908L369.404 57.5626L369.776 57.2282ZM371.266 55.8882L371.637 55.5539L371.303 55.1821L370.931 55.5165L371.266 55.8882ZM368.296 55.4033L367.892 55.6989L368.188 56.1021L368.591 55.8066L368.296 55.4033ZM369.906 54.2233L370.201 54.6266L370.604 54.331L370.309 53.9277L369.906 54.2233ZM367.704 54.5967L367.409 54.1934L367.006 54.489L367.301 54.8923L367.704 54.5967ZM369.314 53.4167L369.718 53.1211L369.422 52.7179L369.019 53.0134L369.314 53.4167ZM366.45 52.6629L366.017 52.9131L366.268 53.346L366.7 53.0958L366.45 52.6629ZM368.18 51.6629L368.43 52.0958L368.863 51.8455L368.613 51.4127L368.18 51.6629ZM365.95 51.7971L365.7 51.3642L365.267 51.6145L365.517 52.0473L365.95 51.7971ZM367.68 50.7971L368.113 50.5469L367.862 50.114L367.43 50.3642L367.68 50.7971ZM364.902 49.7472L364.445 49.9496L364.648 50.4068L365.105 50.2044L364.902 49.7472ZM366.732 48.9372L366.935 49.3944L367.392 49.1921L367.19 48.7348L366.732 48.9372ZM364.498 48.8328L364.295 48.3756L363.838 48.5779L364.04 49.0352L364.498 48.8328ZM366.328 48.0228L366.785 47.8204L366.582 47.3632L366.125 47.5656L366.328 48.0228ZM363.683 46.6861L363.207 46.8389L363.36 47.315L363.836 47.1621L363.683 46.6861ZM365.583 46.0761L365.736 46.5521L366.212 46.3993L366.059 45.9232L365.583 46.0761ZM363.377 45.7339L363.224 45.2579L362.748 45.4107L362.901 45.8868L363.377 45.7339ZM365.277 45.1239L365.753 44.9711L365.6 44.495L365.124 44.6479L365.277 45.1239ZM362.785 43.5188L362.296 43.6241L362.402 44.1129L362.891 44.0076L362.785 43.5188ZM364.735 43.0988L364.841 43.5876L365.329 43.4823L365.224 42.9935L364.735 43.0988ZM362.575 42.5412L362.469 42.0524L361.981 42.1577L362.086 42.6465L362.575 42.5412ZM364.525 42.1212L365.014 42.0159L364.908 41.5271L364.419 41.6324L364.525 42.1212ZM364.098 39.1127L364.595 39.0605L364.543 38.5633L364.046 38.6155L364.098 39.1127ZM362.098 39.3227L362.046 38.8255L361.548 38.8777L361.601 39.3749L362.098 39.3227ZM364.202 40.1073L364.254 40.6045L364.752 40.5523L364.699 40.0551L364.202 40.1073ZM362.202 40.3173L361.705 40.3695L361.757 40.8667L362.254 40.8145L362.202 40.3173ZM362 37H361.5V37.5H362V37ZM364 37V37.5H364.5V37H364ZM362 36V35.5H361.5V36H362ZM364 36H364.5V35.5H364V36ZM364.212 32.9227L364.709 32.9749L364.762 32.4777L364.264 32.4255L364.212 32.9227ZM362.212 32.7127L362.264 32.2155L361.767 32.1633L361.715 32.6605L362.212 32.7127ZM364.108 33.9173L364.056 34.4145L364.553 34.4667L364.605 33.9695L364.108 33.9173ZM362.108 33.7073L361.611 33.6551L361.558 34.1523L362.056 34.2045L362.108 33.7073ZM364.735 29.8812L365.224 29.9865L365.329 29.4977L364.841 29.3924L364.735 29.8812ZM362.785 29.4612L362.891 28.9724L362.402 28.8671L362.296 29.3559L362.785 29.4612ZM364.525 30.8588L364.419 31.3476L364.908 31.4529L365.014 30.9641L364.525 30.8588ZM362.575 30.4388L362.086 30.3335L361.981 30.8223L362.469 30.9276L362.575 30.4388ZM363.377 27.2461L362.901 27.0932L362.748 27.5693L363.224 27.7221L363.377 27.2461ZM365.277 27.8561L365.124 28.3321L365.6 28.485L365.753 28.0089L365.277 27.8561ZM363.683 26.2939L363.836 25.8179L363.36 25.665L363.207 26.1411L363.683 26.2939ZM365.583 26.9039L366.059 27.0568L366.212 26.5807L365.736 26.4279L365.583 26.9039ZM364.508 24.1472L364.05 23.9448L363.848 24.4021L364.305 24.6044L364.508 24.1472ZM366.338 24.9572L366.135 25.4144L366.592 25.6168L366.795 25.1596L366.338 24.9572ZM364.912 23.2328L365.115 22.7756L364.658 22.5732L364.455 23.0304L364.912 23.2328ZM366.742 24.0428L367.2 24.2452L367.402 23.7879L366.945 23.5856L366.742 24.0428ZM365.96 21.1829L365.527 20.9327L365.277 21.3655L365.71 21.6158L365.96 21.1829ZM367.69 22.1829L367.44 22.6158L367.872 22.866L368.123 22.4331L367.69 22.1829ZM366.46 20.3171L366.71 19.8842L366.278 19.634L366.027 20.0669L366.46 20.3171ZM368.19 21.3171L368.623 21.5673L368.873 21.1345L368.44 20.8842L368.19 21.3171ZM367.704 18.4033L367.301 18.1077L367.006 18.511L367.409 18.8066L367.704 18.4033ZM369.314 19.5833L369.019 19.9866L369.422 20.2821L369.718 19.8789L369.314 19.5833ZM368.296 17.5967L368.591 17.1934L368.188 16.8979L367.892 17.3011L368.296 17.5967ZM369.906 18.7767L370.309 19.0723L370.604 18.669L370.201 18.3734L369.906 18.7767ZM369.736 15.8118L369.364 15.4774L369.03 15.8492L369.401 16.1835L369.736 15.8118ZM371.226 17.1518L370.891 17.5235L371.263 17.8579L371.597 17.4861L371.226 17.1518ZM370.404 15.0682L370.739 14.6965L370.367 14.3621L370.033 14.7339L370.404 15.0682ZM371.894 16.4082L372.266 16.7426L372.6 16.3708L372.229 16.0365L371.894 16.4082ZM372.028 13.4443L371.694 13.0726L371.322 13.4069L371.656 13.7787L372.028 13.4443ZM373.368 14.9343L372.996 15.2687L373.331 15.6405L373.703 15.3061L373.368 14.9343ZM372.772 12.7757L373.144 12.4413L372.809 12.0695L372.437 12.4039L372.772 12.7757ZM374.112 14.2657L374.446 14.6374L374.818 14.3031L374.484 13.9313L374.112 14.2657ZM374.597 11.2956L374.301 10.8923L373.898 11.1879L374.193 11.5911L374.597 11.2956ZM375.777 12.9056L375.373 13.2011L375.669 13.6044L376.072 13.3089L375.777 12.9056ZM375.403 10.7044L375.807 10.4089L375.511 10.0056L375.108 10.3011L375.403 10.7044ZM376.583 12.3144L376.879 12.7177L377.282 12.4221L376.987 12.0189L376.583 12.3144ZM377.337 9.45022L377.087 9.01734L376.654 9.26756L376.904 9.70044L377.337 9.45022ZM378.337 11.1802L377.904 11.4304L378.154 11.8633L378.587 11.6131L378.337 11.1802ZM378.203 8.94978L378.636 8.69956L378.386 8.26667L377.953 8.51689L378.203 8.94978ZM379.203 10.6798L379.453 11.1127L379.886 10.8624L379.636 10.4296L379.203 10.6798ZM380.253 7.90237L380.05 7.44516L379.593 7.64753L379.796 8.10475L380.253 7.90237ZM381.063 9.73237L380.606 9.93475L380.808 10.392L381.265 10.1896L381.063 9.73237ZM381.167 7.49763L381.624 7.29525L381.422 6.83804L380.965 7.04041L381.167 7.49763ZM381.977 9.32763L382.18 9.78484L382.637 9.58247L382.434 9.12525L381.977 9.32763ZM383.314 6.68284L383.161 6.20678L382.685 6.35962L382.838 6.83568L383.314 6.68284ZM383.924 8.58284L383.448 8.73568L383.601 9.21175L384.077 9.05891L383.924 8.58284ZM384.266 6.37716L384.742 6.22432L384.589 5.74825L384.113 5.90109L384.266 6.37716ZM384.876 8.27716L385.029 8.75322L385.505 8.60038L385.352 8.12432L384.876 8.27716ZM386.481 5.78528L386.376 5.29649L385.887 5.40177L385.992 5.89056L386.481 5.78528ZM386.901 7.73528L386.412 7.84056L386.518 8.32935L387.006 8.22407L386.901 7.73528ZM387.459 5.57472L387.948 5.46944L387.842 4.98065L387.354 5.08593L387.459 5.57472ZM387.879 7.52472L387.984 8.01351L388.473 7.90823L388.368 7.41944L387.879 7.52472ZM390.887 7.09779L390.939 7.59505L391.437 7.54284L391.385 7.04557L390.887 7.09779ZM390.677 5.09779L391.175 5.04557L391.122 4.54831L390.625 4.60052L390.677 5.09779ZM389.893 7.20221L389.395 7.25443L389.448 7.75169L389.945 7.69948L389.893 7.20221ZM389.683 5.20221L389.631 4.70495L389.133 4.75716L389.185 5.25443L389.683 5.20221ZM392.5 5V7H393.5V5H392.5ZM394 4.5H393V5.5H394V4.5ZM394.5 7V5H393.5V7H394.5ZM393 7.5H394V6.5H393V7.5ZM395.795 5.06557L395.585 7.06557L396.58 7.17L396.79 5.17L395.795 5.06557ZM397.339 4.72495L396.345 4.62052L396.241 5.61505L397.235 5.71948L397.339 4.72495ZM397.575 7.27443L397.785 5.27443L396.79 5.17L396.58 7.17L397.575 7.27443ZM396.031 7.61505L397.025 7.71948L397.129 6.72495L396.135 6.62052L396.031 7.61505ZM399.072 5.48944L398.652 7.43944L399.63 7.65L400.05 5.7L399.072 5.48944ZM400.644 5.31649L399.666 5.10593L399.456 6.08351L400.434 6.29407L400.644 5.31649ZM400.608 7.86056L401.028 5.91056L400.05 5.7L399.63 7.65L400.608 7.86056ZM399.036 8.03351L400.014 8.24407L400.224 7.26649L399.246 7.05593L399.036 8.03351ZM402.278 6.24432L401.668 8.14432L402.62 8.45L403.23 6.55L402.278 6.24432ZM403.859 6.22678L402.907 5.92109L402.601 6.87322L403.553 7.17891L403.859 6.22678ZM403.572 8.75568L404.182 6.85568L403.23 6.55L402.62 8.45L403.572 8.75568ZM401.991 8.77322L402.943 9.07891L403.249 8.12678L402.297 7.82109L401.991 8.77322ZM405.396 7.32525L404.586 9.15525L405.5 9.56L406.31 7.73L405.396 7.32525ZM406.97 7.47516L406.055 7.07041L405.65 7.98484L406.565 8.38959L406.97 7.47516ZM406.414 9.96475L407.224 8.13475L406.31 7.73L405.5 9.56L406.414 9.96475ZM404.84 9.81484L405.755 10.2196L406.16 9.30516L405.245 8.90041L404.84 9.81484ZM408.384 8.72956L407.384 10.4596L408.25 10.96L409.25 9.23L408.384 8.72956ZM409.933 9.04734L409.067 8.54689L408.567 9.41266L409.433 9.91311L409.933 9.04734ZM409.116 11.4604L410.116 9.73044L409.25 9.23L408.25 10.96L409.116 11.4604ZM407.567 11.1427L408.433 11.6431L408.933 10.7773L408.067 10.2769L407.567 11.1427ZM411.193 10.4089L410.013 12.0189L410.82 12.61L412 11L411.193 10.4089ZM412.699 10.8923L411.892 10.3011L411.301 11.1077L412.108 11.6989L412.699 10.8923ZM411.627 13.2011L412.807 11.5911L412 11L410.82 12.61L411.627 13.2011ZM410.121 12.7177L410.928 13.3089L411.519 12.5023L410.712 11.9111L410.121 12.7177ZM413.816 12.4013L412.476 13.8913L413.22 14.56L414.56 13.07L413.816 12.4013ZM415.266 13.0326L414.523 12.3639L413.854 13.1074L414.597 13.7761L415.266 13.0326ZM413.964 15.2287L415.304 13.7387L414.56 13.07L413.22 14.56L413.964 15.2287ZM412.514 14.5974L413.257 15.2661L413.926 14.5226L413.183 13.8539L412.514 14.5974ZM416.221 14.6565L414.731 15.9965L415.4 16.74L416.89 15.4L416.221 14.6565ZM417.596 15.4374L416.927 14.6939L416.184 15.3626L416.853 16.1061L417.596 15.4374ZM416.069 17.4835L417.559 16.1435L416.89 15.4L415.4 16.74L416.069 17.4835ZM414.694 16.7026L415.363 17.4461L416.106 16.7774L415.437 16.0339L414.694 16.7026ZM418.409 17.1934L416.799 18.3734L417.39 19.18L419 18L418.409 17.1934ZM419.699 18.1077L419.108 17.3011L418.301 17.8923L418.892 18.6989L419.699 18.1077ZM417.981 19.9866L419.591 18.8066L419 18L417.39 19.18L417.981 19.9866ZM416.691 19.0723L417.282 19.8789L418.089 19.2877L417.498 18.4811L416.691 19.0723ZM420.3 19.9042L418.57 20.9042L419.07 21.77L420.8 20.77L420.3 19.9042ZM421.483 20.9527L420.983 20.0869L420.117 20.5873L420.617 21.4531L421.483 20.9527ZM419.57 22.6358L421.3 21.6358L420.8 20.77L419.07 21.77L419.57 22.6358ZM418.387 21.5873L418.887 22.4531L419.753 21.9527L419.253 21.0869L418.387 21.5873ZM421.895 22.7956L420.065 23.6056L420.47 24.52L422.3 23.71L421.895 22.7956ZM422.96 23.9648L422.555 23.0504L421.64 23.4552L422.045 24.3696L422.96 23.9648ZM420.875 25.4344L422.705 24.6244L422.3 23.71L420.47 24.52L420.875 25.4344ZM419.81 24.2652L420.215 25.1796L421.13 24.7748L420.725 23.8604L419.81 24.2652ZM423.164 25.8379L421.264 26.4479L421.57 27.4L423.47 26.79L423.164 25.8379ZM424.099 27.1132L423.793 26.1611L422.841 26.4668L423.147 27.4189L424.099 27.1132ZM421.876 28.3521L423.776 27.7421L423.47 26.79L421.57 27.4L421.876 28.3521ZM420.941 27.0768L421.247 28.0289L422.199 27.7232L421.893 26.7711L420.941 27.0768ZM424.109 28.9924L422.159 29.4124L422.37 30.39L424.32 29.97L424.109 28.9924ZM424.914 30.3535L424.704 29.3759L423.726 29.5865L423.936 30.5641L424.914 30.3535ZM422.581 31.3676L424.531 30.9476L424.32 29.97L422.37 30.39L422.581 31.3676ZM421.776 30.0065L421.986 30.9841L422.964 30.7735L422.754 29.7959L421.776 30.0065ZM424.736 32.2355L422.736 32.4455L422.84 33.44L424.84 33.23L424.736 32.2355ZM425.389 33.6751L425.285 32.6805L424.291 32.7849L424.395 33.7795L425.389 33.6751ZM422.944 34.4345L424.944 34.2245L424.84 33.23L422.84 33.44L422.944 34.4345ZM422.291 32.9949L422.395 33.9895L423.389 33.8851L423.285 32.8905L422.291 32.9949ZM425 35.5H423V36.5H425V35.5ZM425.5 37V36H424.5V37H425.5ZM423 37.5H425V36.5H423V37.5ZM422.5 36V37H423.5V36H422.5ZM424.934 38.7955L422.934 38.5855L422.83 39.58L424.83 39.79L424.934 38.7955ZM425.275 40.3395L425.379 39.3449L424.385 39.2405L424.281 40.2351L425.275 40.3395ZM422.726 40.5745L424.726 40.7845L424.83 39.79L422.83 39.58L422.726 40.5745ZM422.385 39.0305L422.281 40.0251L423.275 40.1295L423.379 39.1349L422.385 39.0305ZM424.511 42.0724L422.561 41.6524L422.35 42.63L424.3 43.05L424.511 42.0724ZM424.684 43.6441L424.894 42.6665L423.916 42.4559L423.706 43.4335L424.684 43.6441ZM422.139 43.6076L424.089 44.0276L424.3 43.05L422.35 42.63L422.139 43.6076ZM421.966 42.0359L421.756 43.0135L422.734 43.2241L422.944 42.2465L421.966 42.0359ZM421.244 46.5821L423.144 47.1921L423.45 46.24L421.55 45.63L421.244 46.5821ZM421.227 45.0011L420.921 45.9532L421.873 46.2589L422.179 45.3068L421.227 45.0011ZM423.756 45.2879L421.856 44.6779L421.55 45.63L423.45 46.24L423.756 45.2879ZM423.773 46.8689L424.079 45.9168L423.127 45.6111L422.821 46.5632L423.773 46.8689ZM422.675 48.4056L420.845 47.5956L420.44 48.51L422.27 49.32L422.675 48.4056ZM422.525 49.9796L422.93 49.0652L422.015 48.6604L421.61 49.5748L422.525 49.9796ZM420.035 49.4244L421.865 50.2344L422.27 49.32L420.44 48.51L420.035 49.4244ZM420.185 47.8504L419.78 48.7648L420.695 49.1696L421.1 48.2552L420.185 47.8504ZM418.54 52.1258L420.27 53.1258L420.77 52.26L419.04 51.26L418.54 52.1258ZM418.857 50.5769L418.357 51.4427L419.223 51.9431L419.723 51.0773L418.857 50.5769ZM421.27 51.3942L419.54 50.3942L419.04 51.26L420.77 52.26L421.27 51.3942ZM420.953 52.9431L421.453 52.0773L420.587 51.5769L420.087 52.4427L420.953 52.9431ZM419.591 54.1934L417.981 53.0134L417.39 53.82L419 55L419.591 54.1934ZM419.108 55.6989L419.699 54.8923L418.892 54.3011L418.301 55.1077L419.108 55.6989ZM416.799 54.6266L418.409 55.8066L419 55L417.39 53.82L416.799 54.6266ZM417.282 53.1211L416.691 53.9277L417.498 54.5189L418.089 53.7123L417.282 53.1211ZM417.599 56.8165L416.109 55.4765L415.44 56.22L416.93 57.56L417.599 56.8165ZM416.967 58.2661L417.636 57.5226L416.893 56.8539L416.224 57.5974L416.967 58.2661ZM414.771 56.9635L416.261 58.3035L416.93 57.56L415.44 56.22L414.771 56.9635ZM415.403 55.5139L414.734 56.2574L415.477 56.9261L416.146 56.1826L415.403 55.5139ZM415.344 59.2213L414.004 57.7313L413.26 58.4L414.6 59.89L415.344 59.2213ZM414.563 60.5961L415.306 59.9274L414.637 59.1839L413.894 59.8526L414.563 60.5961ZM412.516 59.0687L413.856 60.5587L414.6 59.89L413.26 58.4L412.516 59.0687ZM413.297 57.6939L412.554 58.3626L413.223 59.1061L413.966 58.4374L413.297 57.6939ZM412.807 61.4089L411.627 59.7989L410.82 60.39L412 62L412.807 61.4089ZM411.892 62.6989L412.699 62.1077L412.108 61.3011L411.301 61.8923L411.892 62.6989ZM410.013 60.9811L411.193 62.5911L412 62L410.82 60.39L410.013 60.9811ZM410.928 59.6911L410.121 60.2823L410.712 61.0889L411.519 60.4977L410.928 59.6911ZM410.096 63.2996L409.096 61.5696L408.23 62.07L409.23 63.8L410.096 63.2996ZM409.047 64.4831L409.913 63.9827L409.413 63.1169L408.547 63.6173L409.047 64.4831ZM407.364 62.5704L408.364 64.3004L409.23 63.8L408.23 62.07L407.364 62.5704ZM408.413 61.3869L407.547 61.8873L408.047 62.7531L408.913 62.2527L408.413 61.3869ZM407.204 64.8953L406.394 63.0653L405.48 63.47L406.29 65.3L407.204 64.8953ZM406.035 65.9596L406.95 65.5548L406.545 64.6404L405.63 65.0452L406.035 65.9596ZM404.566 63.8747L405.376 65.7048L406.29 65.3L405.48 63.47L404.566 63.8747ZM405.735 62.8104L404.82 63.2152L405.225 64.1296L406.14 63.7248L405.735 62.8104ZM404.162 66.1643L403.552 64.2643L402.6 64.57L403.21 66.47L404.162 66.1643ZM402.887 67.0989L403.839 66.7932L403.533 65.8411L402.581 66.1468L402.887 67.0989ZM401.648 64.8757L402.258 66.7757L403.21 66.47L402.6 64.57L401.648 64.8757ZM402.923 63.9411L401.971 64.2468L402.277 65.1989L403.229 64.8932L402.923 63.9411ZM401.008 67.1094L400.588 65.1594L399.61 65.37L400.03 67.32L401.008 67.1094ZM399.646 67.9141L400.624 67.7035L400.414 66.7259L399.436 66.9365L399.646 67.9141ZM398.632 65.5806L399.052 67.5306L400.03 67.32L399.61 65.37L398.632 65.5806ZM399.994 64.7759L399.016 64.9865L399.226 65.9641L400.204 65.7535L399.994 64.7759ZM397.765 67.7356L397.555 65.7356L396.56 65.84L396.77 67.84L397.765 67.7356ZM396.325 68.3895L397.319 68.2851L397.215 67.2905L396.221 67.3949L396.325 68.3895ZM395.565 65.9444L395.775 67.9444L396.77 67.84L396.56 65.84L395.565 65.9444ZM397.005 65.2905L396.011 65.3949L396.115 66.3895L397.109 66.2851L397.005 65.2905ZM394.5 68V66H393.5V68H394.5ZM393 68.5H394V67.5H393V68.5ZM392.5 66V68H393.5V66H392.5ZM394 65.5H393V66.5H394V65.5ZM391.205 67.9344L391.415 65.9344L390.42 65.83L390.21 67.83L391.205 67.9344ZM389.661 68.2751L390.655 68.3795L390.759 67.3849L389.765 67.2805L389.661 68.2751ZM389.425 65.7256L389.215 67.7256L390.21 67.83L390.42 65.83L389.425 65.7256ZM390.969 65.3849L389.975 65.2805L389.871 66.2751L390.865 66.3795L390.969 65.3849ZM387.978 67.5206L388.398 65.5706L387.42 65.36L387 67.31L387.978 67.5206ZM386.406 67.6935L387.384 67.9041L387.594 66.9265L386.616 66.7159L386.406 67.6935ZM386.442 65.1494L386.022 67.0994L387 67.31L387.42 65.36L386.442 65.1494ZM388.014 64.9765L387.036 64.7659L386.826 65.7435L387.804 65.9541L388.014 64.9765ZM384.772 66.7657L385.382 64.8657L384.43 64.56L383.82 66.46L384.772 66.7657ZM383.191 66.7832L384.143 67.0889L384.449 66.1368L383.497 65.8311L383.191 66.7832ZM383.478 64.2543L382.868 66.1543L383.82 66.46L384.43 64.56L383.478 64.2543ZM385.059 64.2368L384.107 63.9311L383.801 64.8832L384.753 65.1889L385.059 64.2368ZM381.654 65.6847L382.464 63.8547L381.55 63.45L380.74 65.28L381.654 65.6847ZM380.08 65.5348L380.995 65.9396L381.4 65.0252L380.485 64.6204L380.08 65.5348ZM380.636 63.0453L379.826 64.8753L380.74 65.28L381.55 63.45L380.636 63.0453ZM382.21 63.1952L381.295 62.7904L380.89 63.7048L381.805 64.1096L382.21 63.1952ZM377.934 61.5496L376.934 63.2796L377.8 63.78L378.8 62.05L377.934 61.5496ZM379.483 61.8673L378.617 61.3669L378.117 62.2327L378.983 62.7331L379.483 61.8673ZM378.666 64.2804L379.666 62.5504L378.8 62.05L377.8 63.78L378.666 64.2804ZM377.117 63.9627L377.983 64.4631L378.483 63.5973L377.617 63.0969L377.117 63.9627ZM375.807 62.5911L376.987 60.9811L376.18 60.39L375 62L375.807 62.5911ZM374.301 62.1077L375.108 62.6989L375.699 61.8923L374.892 61.3011L374.301 62.1077ZM375.373 59.7989L374.193 61.4089L375 62L376.18 60.39L375.373 59.7989ZM376.879 60.2823L376.072 59.6911L375.481 60.4977L376.288 61.0889L376.879 60.2823ZM373.184 60.5987L374.524 59.1087L373.78 58.44L372.44 59.93L373.184 60.5987ZM371.734 59.9674L372.477 60.6361L373.146 59.8926L372.403 59.2239L371.734 59.9674ZM373.036 57.7713L371.696 59.2613L372.44 59.93L373.78 58.44L373.036 57.7713ZM374.486 58.4026L373.743 57.7339L373.074 58.4774L373.817 59.1461L374.486 58.4026ZM370.779 58.3435L372.269 57.0035L371.6 56.26L370.11 57.6L370.779 58.3435ZM369.404 57.5626L370.073 58.3061L370.816 57.6374L370.147 56.8939L369.404 57.5626ZM370.931 55.5165L369.441 56.8565L370.11 57.6L371.6 56.26L370.931 55.5165ZM372.306 56.2974L371.637 55.5539L370.894 56.2226L371.563 56.9661L372.306 56.2974ZM368.591 55.8066L370.201 54.6266L369.61 53.82L368 55L368.591 55.8066ZM367.301 54.8923L367.892 55.6989L368.699 55.1077L368.108 54.3011L367.301 54.8923ZM369.019 53.0134L367.409 54.1934L368 55L369.61 53.82L369.019 53.0134ZM370.309 53.9277L369.718 53.1211L368.911 53.7123L369.502 54.5189L370.309 53.9277ZM366.7 53.0958L368.43 52.0958L367.93 51.23L366.2 52.23L366.7 53.0958ZM365.517 52.0473L366.017 52.9131L366.883 52.4127L366.383 51.5469L365.517 52.0473ZM367.43 50.3642L365.7 51.3642L366.2 52.23L367.93 51.23L367.43 50.3642ZM368.613 51.4127L368.113 50.5469L367.247 51.0473L367.747 51.9131L368.613 51.4127ZM365.105 50.2044L366.935 49.3944L366.53 48.48L364.7 49.29L365.105 50.2044ZM364.04 49.0352L364.445 49.9496L365.36 49.5448L364.955 48.6304L364.04 49.0352ZM366.125 47.5656L364.295 48.3756L364.7 49.29L366.53 48.48L366.125 47.5656ZM367.19 48.7348L366.785 47.8204L365.87 48.2252L366.275 49.1396L367.19 48.7348ZM363.836 47.1621L365.736 46.5521L365.43 45.6L363.53 46.21L363.836 47.1621ZM362.901 45.8868L363.207 46.8389L364.159 46.5332L363.853 45.5811L362.901 45.8868ZM365.124 44.6479L363.224 45.2579L363.53 46.21L365.43 45.6L365.124 44.6479ZM366.059 45.9232L365.753 44.9711L364.801 45.2768L365.107 46.2289L366.059 45.9232ZM362.891 44.0076L364.841 43.5876L364.63 42.61L362.68 43.03L362.891 44.0076ZM362.086 42.6465L362.296 43.6241L363.274 43.4135L363.064 42.4359L362.086 42.6465ZM364.419 41.6324L362.469 42.0524L362.68 43.03L364.63 42.61L364.419 41.6324ZM365.224 42.9935L365.014 42.0159L364.036 42.2265L364.246 43.2041L365.224 42.9935ZM364.046 38.6155L362.046 38.8255L362.15 39.82L364.15 39.61L364.046 38.6155ZM364.699 40.0551L364.595 39.0605L363.601 39.1649L363.705 40.1595L364.699 40.0551ZM362.254 40.8145L364.254 40.6045L364.15 39.61L362.15 39.82L362.254 40.8145ZM361.601 39.3749L361.705 40.3695L362.699 40.2651L362.595 39.2705L361.601 39.3749ZM362 37.5H364V36.5H362V37.5ZM361.5 36V37H362.5V36H361.5ZM364 35.5H362V36.5H364V35.5ZM364.5 37V36H363.5V37H364.5ZM364.264 32.4255L362.264 32.2155L362.16 33.21L364.16 33.42L364.264 32.4255ZM364.605 33.9695L364.709 32.9749L363.715 32.8705L363.611 33.8651L364.605 33.9695ZM362.056 34.2045L364.056 34.4145L364.16 33.42L362.16 33.21L362.056 34.2045ZM361.715 32.6605L361.611 33.6551L362.605 33.7595L362.709 32.7649L361.715 32.6605ZM364.841 29.3924L362.891 28.9724L362.68 29.95L364.63 30.37L364.841 29.3924ZM365.014 30.9641L365.224 29.9865L364.246 29.7759L364.036 30.7535L365.014 30.9641ZM362.469 30.9276L364.419 31.3476L364.63 30.37L362.68 29.95L362.469 30.9276ZM362.296 29.3559L362.086 30.3335L363.064 30.5441L363.274 29.5665L362.296 29.3559ZM363.224 27.7221L365.124 28.3321L365.43 27.38L363.53 26.77L363.224 27.7221ZM363.207 26.1411L362.901 27.0932L363.853 27.3989L364.159 26.4468L363.207 26.1411ZM365.736 26.4279L363.836 25.8179L363.53 26.77L365.43 27.38L365.736 26.4279ZM365.753 28.0089L366.059 27.0568L365.107 26.7511L364.801 27.7032L365.753 28.0089ZM364.305 24.6044L366.135 25.4144L366.54 24.5L364.71 23.69L364.305 24.6044ZM364.455 23.0304L364.05 23.9448L364.965 24.3496L365.37 23.4352L364.455 23.0304ZM366.945 23.5856L365.115 22.7756L364.71 23.69L366.54 24.5L366.945 23.5856ZM366.795 25.1596L367.2 24.2452L366.285 23.8404L365.88 24.7548L366.795 25.1596ZM365.71 21.6158L367.44 22.6158L367.94 21.75L366.21 20.75L365.71 21.6158ZM366.027 20.0669L365.527 20.9327L366.393 21.4331L366.893 20.5673L366.027 20.0669ZM368.44 20.8842L366.71 19.8842L366.21 20.75L367.94 21.75L368.44 20.8842ZM368.123 22.4331L368.623 21.5673L367.757 21.0669L367.257 21.9327L368.123 22.4331ZM367.409 18.8066L369.019 19.9866L369.61 19.18L368 18L367.409 18.8066ZM367.892 17.3011L367.301 18.1077L368.108 18.6989L368.699 17.8923L367.892 17.3011ZM370.201 18.3734L368.591 17.1934L368 18L369.61 19.18L370.201 18.3734ZM369.718 19.8789L370.309 19.0723L369.502 18.4811L368.911 19.2877L369.718 19.8789ZM369.401 16.1835L370.891 17.5235L371.56 16.78L370.07 15.44L369.401 16.1835ZM370.033 14.7339L369.364 15.4774L370.107 16.1461L370.776 15.4026L370.033 14.7339ZM372.229 16.0365L370.739 14.6965L370.07 15.44L371.56 16.78L372.229 16.0365ZM371.597 17.4861L372.266 16.7426L371.523 16.0739L370.854 16.8174L371.597 17.4861ZM371.656 13.7787L372.996 15.2687L373.74 14.6L372.4 13.11L371.656 13.7787ZM372.437 12.4039L371.694 13.0726L372.363 13.8161L373.106 13.1474L372.437 12.4039ZM374.484 13.9313L373.144 12.4413L372.4 13.11L373.74 14.6L374.484 13.9313ZM373.703 15.3061L374.446 14.6374L373.777 13.8939L373.034 14.5626L373.703 15.3061ZM374.193 11.5911L375.373 13.2011L376.18 12.61L375 11L374.193 11.5911ZM375.108 10.3011L374.301 10.8923L374.892 11.6989L375.699 11.1077L375.108 10.3011ZM376.987 12.0189L375.807 10.4089L375 11L376.18 12.61L376.987 12.0189ZM376.072 13.3089L376.879 12.7177L376.288 11.9111L375.481 12.5023L376.072 13.3089ZM376.904 9.70044L377.904 11.4304L378.77 10.93L377.77 9.2L376.904 9.70044ZM377.953 8.51689L377.087 9.01734L377.587 9.88311L378.453 9.38266L377.953 8.51689ZM379.636 10.4296L378.636 8.69956L377.77 9.2L378.77 10.93L379.636 10.4296ZM378.587 11.6131L379.453 11.1127L378.953 10.2469L378.087 10.7473L378.587 11.6131ZM379.796 8.10475L380.606 9.93475L381.52 9.53L380.71 7.7L379.796 8.10475ZM380.965 7.04041L380.05 7.44516L380.455 8.35959L381.37 7.95484L380.965 7.04041ZM382.434 9.12525L381.624 7.29525L380.71 7.7L381.52 9.53L382.434 9.12525ZM381.265 10.1896L382.18 9.78484L381.775 8.87041L380.86 9.27516L381.265 10.1896ZM382.838 6.83568L383.448 8.73568L384.4 8.43L383.79 6.53L382.838 6.83568ZM384.113 5.90109L383.161 6.20678L383.467 7.15891L384.419 6.85322L384.113 5.90109ZM385.352 8.12432L384.742 6.22432L383.79 6.53L384.4 8.43L385.352 8.12432ZM384.077 9.05891L385.029 8.75322L384.723 7.80109L383.771 8.10678L384.077 9.05891ZM385.992 5.89056L386.412 7.84056L387.39 7.63L386.97 5.68L385.992 5.89056ZM387.354 5.08593L386.376 5.29649L386.586 6.27407L387.564 6.06351L387.354 5.08593ZM388.368 7.41944L387.948 5.46944L386.97 5.68L387.39 7.63L388.368 7.41944ZM387.006 8.22407L387.984 8.01351L387.774 7.03593L386.796 7.24649L387.006 8.22407ZM391.385 7.04557L391.175 5.04557L390.18 5.15L390.39 7.15L391.385 7.04557ZM389.945 7.69948L390.939 7.59505L390.835 6.60052L389.841 6.70495L389.945 7.69948ZM389.185 5.25443L389.395 7.25443L390.39 7.15L390.18 5.15L389.185 5.25443ZM390.625 4.60052L389.631 4.70495L389.735 5.69948L390.729 5.59505L390.625 4.60052Z" fill="#F18D00"/>
</g>
<g id="Label" opacity="0.64">
<g id="Rectangle 39" style="mix-blend-mode:multiply">
<path fill-rule="evenodd" clip-rule="evenodd" d="M388 43H391V44H388V43ZM392 43H393V44H392V43ZM398 43H399V44H398V43ZM394 43H397V44H394V43Z" fill="#E08300"/>
</g>
<g id="Rectangle 39_2" style="mix-blend-mode:multiply">
<path fill-rule="evenodd" clip-rule="evenodd" d="M391 43H392V44H391V43ZM397 43H398V44H397V43ZM387 46H388V47H387V46ZM389 46H391V47H389V46ZM395 46H400V47H395V46ZM393 46H394V47H393V46Z" fill="#E08300" fill-opacity="0.5"/>
</g>
<g id="Rectangle 39_3" style="mix-blend-mode:multiply">
<path fill-rule="evenodd" clip-rule="evenodd" d="M389 46H388V47H389V46ZM395 46H394V47H395V46Z" fill="#E08300" fill-opacity="0.25"/>
</g>
</g>
</g>
<g id="Whiteboard" clip-path="url(#clip1_547_9348)">
<rect id="Base" x="71" y="24" width="288" height="144" rx="1" fill="#FF9807"/>
<path id="Border" fill-rule="evenodd" clip-rule="evenodd" d="M66 16C64.3431 16 63 17.3431 63 19V173C63 174.657 64.3432 176 66 176H364C365.657 176 367 174.657 367 173V19C367 17.3431 365.657 16 364 16H66ZM72 24C71.4477 24 71 24.4477 71 25V167C71 167.552 71.4477 168 72 168H358C358.552 168 359 167.552 359 167V25C359 24.4477 358.552 24 358 24H72Z" fill="#F18D00"/>
<path id="Backlog" d="M90.5122 41C92.1611 41 93.1387 40.189 93.1387 38.8247C93.1387 37.7988 92.4673 37.0737 91.4092 36.9395V36.8535C92.1558 36.7192 92.7466 35.9888 92.7466 35.1831C92.7466 33.9961 91.8765 33.2495 90.4531 33.2495H87.4883V41H90.5122ZM88.4551 34.1035H90.249C91.2104 34.1035 91.769 34.5601 91.769 35.3496C91.769 36.1714 91.1729 36.5903 90.002 36.5903H88.4551V34.1035ZM88.4551 40.146V37.4229H90.2759C91.5112 37.4229 92.145 37.8794 92.145 38.7764C92.145 39.6733 91.5327 40.146 90.3672 40.146H88.4551ZM96.0171 40.291C95.3457 40.291 94.8462 39.9473 94.8462 39.3564C94.8462 38.7764 95.2329 38.4702 96.1137 38.4111L97.6714 38.3091V38.8408C97.6714 39.668 96.9677 40.291 96.0171 40.291ZM95.8452 41.1021C96.6186 41.1021 97.2524 40.7637 97.6284 40.146H97.7143V41H98.5952V37.0361C98.5952 35.833 97.8056 35.1079 96.393 35.1079C95.1577 35.1079 94.2446 35.7202 94.1211 36.6494H95.0556C95.1845 36.1929 95.6679 35.9297 96.3608 35.9297C97.2256 35.9297 97.6714 36.3218 97.6714 37.0361V37.5625L96.0009 37.6646C94.6528 37.7451 93.8901 38.3413 93.8901 39.3779C93.8901 40.436 94.7226 41.1021 95.8452 41.1021ZM104.728 36.9824C104.567 35.9512 103.708 35.1079 102.301 35.1079C100.679 35.1079 99.6474 36.2788 99.6474 38.0835C99.6474 39.9258 100.684 41.1021 102.306 41.1021C103.697 41.1021 104.562 40.3179 104.728 39.2544H103.794C103.622 39.9097 103.08 40.2695 102.301 40.2695C101.269 40.2695 100.603 39.4209 100.603 38.0835C100.603 36.7729 101.259 35.9404 102.301 35.9404C103.133 35.9404 103.644 36.4077 103.794 36.9824H104.728ZM106.79 37.7397H106.705V32.9111H105.781V41H106.705V38.8032L107.258 38.2876L109.428 41H110.604L107.945 37.6914L110.437 35.21H109.304L106.79 37.7397ZM111.388 41H112.311V32.9111H111.388V41ZM116.119 41.1021C117.768 41.1021 118.788 39.9634 118.788 38.105C118.788 36.2412 117.768 35.1079 116.119 35.1079C114.47 35.1079 113.45 36.2412 113.45 38.105C113.45 39.9634 114.47 41.1021 116.119 41.1021ZM116.119 40.2695C115.023 40.2695 114.406 39.4746 114.406 38.105C114.406 36.73 115.023 35.9404 116.119 35.9404C117.215 35.9404 117.832 36.73 117.832 38.105C117.832 39.4746 117.215 40.2695 116.119 40.2695ZM122.215 40.0977C121.14 40.0977 120.539 39.2812 120.539 38.019C120.539 36.7568 121.14 35.9404 122.215 35.9404C123.284 35.9404 123.933 36.7568 123.933 38.019C123.933 39.2812 123.289 40.0977 122.215 40.0977ZM122.258 43.2236C123.837 43.2236 124.836 42.3965 124.836 41.1021V35.21H123.955V36.1284H123.869C123.536 35.5054 122.822 35.1079 122.011 35.1079C120.523 35.1079 119.583 36.2842 119.583 38.019C119.583 39.7539 120.512 40.9141 122.011 40.9141C122.806 40.9141 123.461 40.5542 123.826 39.915H123.912V41.0537C123.912 41.9077 123.294 42.418 122.258 42.418C121.425 42.418 120.91 42.1118 120.807 41.6392H119.83C119.97 42.5952 120.861 43.2236 122.258 43.2236Z" fill="#E08300"/>
<path id="To-do" d="M144.969 41V34.1196H147.467V33.2495H141.505V34.1196H144.002V41H144.969ZM149.781 41.1021C151.43 41.1021 152.451 39.9634 152.451 38.105C152.451 36.2412 151.43 35.1079 149.781 35.1079C148.132 35.1079 147.112 36.2412 147.112 38.105C147.112 39.9634 148.132 41.1021 149.781 41.1021ZM149.781 40.2695C148.686 40.2695 148.068 39.4746 148.068 38.105C148.068 36.73 148.686 35.9404 149.781 35.9404C150.877 35.9404 151.495 36.73 151.495 38.105C151.495 39.4746 150.877 40.2695 149.781 40.2695ZM157.021 38.3198V37.4443H153.498V38.3198H157.021ZM160.501 41.1021C161.301 41.1021 161.989 40.7207 162.354 40.0762H162.44V41H163.321V32.9111H162.397V36.123H162.316C161.989 35.4893 161.307 35.1079 160.501 35.1079C159.029 35.1079 158.068 36.2896 158.068 38.105C158.068 39.9258 159.018 41.1021 160.501 41.1021ZM160.716 35.9404C161.763 35.9404 162.418 36.7783 162.418 38.105C162.418 39.4424 161.768 40.2695 160.716 40.2695C159.658 40.2695 159.024 39.4585 159.024 38.105C159.024 36.7568 159.663 35.9404 160.716 35.9404ZM167.128 41.1021C168.777 41.1021 169.798 39.9634 169.798 38.105C169.798 36.2412 168.777 35.1079 167.128 35.1079C165.479 35.1079 164.459 36.2412 164.459 38.105C164.459 39.9634 165.479 41.1021 167.128 41.1021ZM167.128 40.2695C166.033 40.2695 165.415 39.4746 165.415 38.105C165.415 36.73 166.033 35.9404 167.128 35.9404C168.224 35.9404 168.842 36.73 168.842 38.105C168.842 39.4746 168.224 40.2695 167.128 40.2695Z" fill="#E08300"/>
<path id="Des" d="M189.988 33.2495V41H192.647C194.951 41 196.305 39.5659 196.305 37.1221C196.305 34.6836 194.946 33.2495 192.647 33.2495H189.988ZM190.955 34.1196H192.583C194.301 34.1196 195.316 35.2368 195.316 37.1328C195.316 39.0234 194.312 40.1299 192.583 40.1299H190.955V34.1196ZM199.806 35.9243C200.725 35.9243 201.337 36.6011 201.358 37.627H198.168C198.238 36.6011 198.882 35.9243 199.806 35.9243ZM201.332 39.5015C201.09 40.0117 200.585 40.2856 199.838 40.2856C198.855 40.2856 198.216 39.5605 198.168 38.4165V38.3735H202.331V38.019C202.331 36.2197 201.38 35.1079 199.817 35.1079C198.227 35.1079 197.207 36.2896 197.207 38.1104C197.207 39.9419 198.211 41.1021 199.817 41.1021C201.084 41.1021 201.976 40.4951 202.255 39.5015H201.332ZM203.281 36.7944C203.281 37.6323 203.775 38.0996 204.86 38.3628L205.853 38.6045C206.471 38.7549 206.772 39.0234 206.772 39.4209C206.772 39.9526 206.213 40.3232 205.435 40.3232C204.693 40.3232 204.231 40.0117 204.076 39.5229H203.125C203.227 40.4844 204.113 41.1021 205.402 41.1021C206.718 41.1021 207.723 40.3877 207.723 39.3511C207.723 38.5186 207.196 38.0459 206.106 37.7827L205.214 37.5679C204.532 37.4014 204.21 37.1543 204.21 36.7568C204.21 36.2412 204.747 35.8921 205.435 35.8921C206.133 35.8921 206.584 36.1982 206.707 36.6602H207.621C207.497 35.7095 206.654 35.1079 205.44 35.1079C204.21 35.1079 203.281 35.833 203.281 36.7944Z" fill="#E08300"/>
<path id="Dev" d="M233.988 33.2495V41H236.647C238.951 41 240.305 39.5659 240.305 37.1221C240.305 34.6836 238.946 33.2495 236.647 33.2495H233.988ZM234.955 34.1196H236.583C238.301 34.1196 239.316 35.2368 239.316 37.1328C239.316 39.0234 238.312 40.1299 236.583 40.1299H234.955V34.1196ZM243.806 35.9243C244.725 35.9243 245.337 36.6011 245.358 37.627H242.168C242.238 36.6011 242.882 35.9243 243.806 35.9243ZM245.332 39.5015C245.09 40.0117 244.585 40.2856 243.838 40.2856C242.855 40.2856 242.216 39.5605 242.168 38.4165V38.3735H246.331V38.019C246.331 36.2197 245.38 35.1079 243.817 35.1079C242.227 35.1079 241.207 36.2896 241.207 38.1104C241.207 39.9419 242.211 41.1021 243.817 41.1021C245.084 41.1021 245.976 40.4951 246.255 39.5015H245.332ZM252.034 35.21H251.046L249.461 39.9795H249.375L247.791 35.21H246.803L248.946 41H249.891L252.034 35.21Z" fill="#E08300"/>
<path id="QA-ST" d="M272.249 41.1826C272.748 41.1826 273.221 41.1021 273.634 40.9463L274.316 41.8755H275.401L274.418 40.5112C275.299 39.8774 275.793 38.6689 275.793 37.1274C275.793 34.6299 274.429 33.0669 272.249 33.0669C270.057 33.0669 268.688 34.6245 268.688 37.1274C268.688 39.6411 270.041 41.1826 272.249 41.1826ZM272.254 40.291C270.664 40.291 269.681 39.0825 269.681 37.1274C269.681 35.1777 270.669 33.9585 272.249 33.9585C273.817 33.9585 274.8 35.1831 274.8 37.1274C274.8 38.3091 274.461 39.2329 273.854 39.7163L273.151 38.7817H272.055L273.081 40.1729C272.812 40.2534 272.539 40.291 272.254 40.291ZM281.771 41H282.786L279.929 33.2495H278.973L276.115 41H277.13L277.909 38.7817H280.992L281.771 41ZM279.408 34.501H279.494L280.707 37.96H278.194L279.408 34.501ZM286.986 38.3198V37.4443H283.462V38.3198H286.986ZM288.07 38.9751C288.172 40.3125 289.306 41.1826 290.949 41.1826C292.722 41.1826 293.844 40.2749 293.844 38.8516C293.844 37.7129 293.2 37.0898 291.594 36.687L290.783 36.4722C289.714 36.1982 289.289 35.8491 289.289 35.2422C289.289 34.458 289.972 33.9424 291.003 33.9424C291.97 33.9424 292.625 34.415 292.759 35.21H293.731C293.651 33.9585 292.534 33.0669 291.035 33.0669C289.397 33.0669 288.296 33.9585 288.296 35.2744C288.296 36.3755 288.903 37.0093 290.305 37.3638L291.298 37.6216C292.367 37.8901 292.851 38.3091 292.851 38.9697C292.851 39.7378 292.082 40.3018 291.04 40.3018C289.939 40.3018 289.166 39.7861 289.048 38.9751H288.07ZM298.071 41V34.1196H300.568V33.2495H294.606V34.1196H297.104V41H298.071Z" fill="#E08300"/>
<path id="Done" d="M320.488 33.2495V41H323.147C325.451 41 326.805 39.5659 326.805 37.1221C326.805 34.6836 325.446 33.2495 323.147 33.2495H320.488ZM321.455 34.1196H323.083C324.801 34.1196 325.816 35.2368 325.816 37.1328C325.816 39.0234 324.812 40.1299 323.083 40.1299H321.455V34.1196ZM330.376 41.1021C332.025 41.1021 333.045 39.9634 333.045 38.105C333.045 36.2412 332.025 35.1079 330.376 35.1079C328.727 35.1079 327.707 36.2412 327.707 38.105C327.707 39.9634 328.727 41.1021 330.376 41.1021ZM330.376 40.2695C329.28 40.2695 328.663 39.4746 328.663 38.105C328.663 36.73 329.28 35.9404 330.376 35.9404C331.472 35.9404 332.089 36.73 332.089 38.105C332.089 39.4746 331.472 40.2695 330.376 40.2695ZM334.13 41H335.054V37.5732C335.054 36.5581 335.65 35.9404 336.574 35.9404C337.498 35.9404 337.938 36.4346 337.938 37.4766V41H338.862V37.251C338.862 35.876 338.137 35.1079 336.837 35.1079C335.951 35.1079 335.387 35.4839 335.097 36.123H335.011V35.21H334.13V41ZM342.497 35.9243C343.416 35.9243 344.028 36.6011 344.05 37.627H340.859C340.929 36.6011 341.574 35.9243 342.497 35.9243ZM344.023 39.5015C343.781 40.0117 343.276 40.2856 342.53 40.2856C341.547 40.2856 340.908 39.5605 340.859 38.4165V38.3735H345.022V38.019C345.022 36.2197 344.071 35.1079 342.508 35.1079C340.918 35.1079 339.898 36.2896 339.898 38.1104C339.898 39.9419 340.902 41.1021 342.508 41.1021C343.776 41.1021 344.667 40.4951 344.947 39.5015H344.023Z" fill="#E08300"/>
<g id="Diveiders" opacity="0.44782">
<rect id="Rectangle 42" x="133" y="29" width="1" height="135" fill="#F18D00"/>
<rect id="Rectangle 42_2" x="355" y="52" width="1" height="280" transform="rotate(90 355 52)" fill="#F18D00"/>
<rect id="Rectangle 42_3" x="176" y="29" width="1" height="135" fill="#F18D00"/>
<rect id="Rectangle 42_4" x="219" y="29" width="1" height="135" fill="#F18D00"/>
<rect id="Rectangle 42_5" x="262" y="29" width="1" height="135" fill="#F18D00"/>
<rect id="Rectangle 42_6" x="308" y="29" width="1" height="135" fill="#F18D00"/>
</g>
<g id="Cards" opacity="0.502274">
<g id="Img / Scrum Card">
<path id="Rectangle 49" fill-rule="evenodd" clip-rule="evenodd" d="M190 63H214L215 88L188 87L190 63Z" fill="#F18D00"/>
<rect id="Rectangle 48" x="187" y="59" width="27" height="24" fill="#FFA323"/>
<g id="Label_2" opacity="0.64">
<g id="Rectangle 39_4" style="mix-blend-mode:multiply">
<path fill-rule="evenodd" clip-rule="evenodd" d="M196 68H199V69H196V68ZM200 68H201V69H200V68ZM206 68H207V69H206V68ZM202 68H205V69H202V68Z" fill="#E08300"/>
</g>
<g id="Rectangle 39_5" style="mix-blend-mode:multiply">
<path fill-rule="evenodd" clip-rule="evenodd" d="M199 68H200V69H199V68ZM205 68H206V69H205V68ZM195 71H196V72H195V71ZM197 71H199V72H197V71ZM203 71H208V72H203V71ZM201 71H202V72H201V71Z" fill="#E08300" fill-opacity="0.5"/>
</g>
<g id="Rectangle 39_6" style="mix-blend-mode:multiply">
<path fill-rule="evenodd" clip-rule="evenodd" d="M197 71H196V72H197V71ZM203 71H202V72H203V71Z" fill="#E08300" fill-opacity="0.25"/>
</g>
</g>
</g>
<g id="Img / Scrum Card_2">
<path id="Rectangle 49_2" fill-rule="evenodd" clip-rule="evenodd" d="M88 60H112L113 85L86 84L88 60Z" fill="#F18D00"/>
<rect id="Rectangle 48_2" x="85" y="56" width="27" height="24" fill="#FFA323"/>
<g id="Label_3" opacity="0.64">
<g id="Rectangle 39_7" style="mix-blend-mode:multiply">
<path fill-rule="evenodd" clip-rule="evenodd" d="M94 65H97V66H94V65ZM98 65H99V66H98V65ZM104 65H105V66H104V65ZM100 65H103V66H100V65Z" fill="#E08300"/>
</g>
<g id="Rectangle 39_8" style="mix-blend-mode:multiply">
<path fill-rule="evenodd" clip-rule="evenodd" d="M97 65H98V66H97V65ZM103 65H104V66H103V65ZM93 68H94V69H93V68ZM95 68H97V69H95V68ZM101 68H106V69H101V68ZM99 68H100V69H99V68Z" fill="#E08300" fill-opacity="0.5"/>
</g>
<g id="Rectangle 39_9" style="mix-blend-mode:multiply">
<path fill-rule="evenodd" clip-rule="evenodd" d="M95 68H94V69H95V68ZM101 68H100V69H101V68Z" fill="#E08300" fill-opacity="0.25"/>
</g>
</g>
</g>
<g id="Img / Scrum Card_3">
<path id="Rectangle 49_3" fill-rule="evenodd" clip-rule="evenodd" d="M140 68H164L165 93L138 92L140 68Z" fill="#F18D00"/>
<rect id="Rectangle 48_3" x="137" y="64" width="27" height="24" fill="#FFA323"/>
<g id="Label_4" opacity="0.64">
<g id="Rectangle 39_10" style="mix-blend-mode:multiply">
<path fill-rule="evenodd" clip-rule="evenodd" d="M146 73H149V74H146V73ZM150 73H151V74H150V73ZM156 73H157V74H156V73ZM152 73H155V74H152V73Z" fill="#E08300"/>
</g>
<g id="Rectangle 39_11" style="mix-blend-mode:multiply">
<path fill-rule="evenodd" clip-rule="evenodd" d="M149 73H150V74H149V73ZM155 73H156V74H155V73ZM145 76H146V77H145V76ZM147 76H149V77H147V76ZM153 76H158V77H153V76ZM151 76H152V77H151V76Z" fill="#E08300" fill-opacity="0.5"/>
</g>
<g id="Rectangle 39_12" style="mix-blend-mode:multiply">
<path fill-rule="evenodd" clip-rule="evenodd" d="M147 76H146V77H147V76ZM153 76H152V77H153V76Z" fill="#E08300" fill-opacity="0.25"/>
</g>
</g>
</g>
<g id="Img / Scrum Card_4">
<path id="Rectangle 49_4" fill-rule="evenodd" clip-rule="evenodd" d="M181 87H205L206 112L179 111L181 87Z" fill="#F18D00"/>
<rect id="Rectangle 48_4" x="178" y="83" width="27" height="24" fill="#FFA323"/>
<g id="Label_5" opacity="0.64">
<g id="Rectangle 39_13" style="mix-blend-mode:multiply">
<path fill-rule="evenodd" clip-rule="evenodd" d="M187 92H190V93H187V92ZM191 92H192V93H191V92ZM197 92H198V93H197V92ZM193 92H196V93H193V92Z" fill="#E08300"/>
</g>
<g id="Rectangle 39_14" style="mix-blend-mode:multiply">
<path fill-rule="evenodd" clip-rule="evenodd" d="M190 92H191V93H190V92ZM196 92H197V93H196V92ZM186 95H187V96H186V95ZM188 95H190V96H188V95ZM194 95H199V96H194V95ZM192 95H193V96H192V95Z" fill="#E08300" fill-opacity="0.5"/>
</g>
<g id="Rectangle 39_15" style="mix-blend-mode:multiply">
<path fill-rule="evenodd" clip-rule="evenodd" d="M188 95H187V96H188V95ZM194 95H193V96H194V95Z" fill="#E08300" fill-opacity="0.25"/>
</g>
</g>
</g>
<g id="Img / Scrum Card_5">
<path id="Rectangle 49_5" fill-rule="evenodd" clip-rule="evenodd" d="M193 109H217L218 134L191 133L193 109Z" fill="#F18D00"/>
<rect id="Rectangle 48_5" x="190" y="105" width="27" height="24" fill="#FFA323"/>
<g id="Label_6" opacity="0.64">
<g id="Rectangle 39_16" style="mix-blend-mode:multiply">
<path fill-rule="evenodd" clip-rule="evenodd" d="M199 114H202V115H199V114ZM203 114H204V115H203V114ZM209 114H210V115H209V114ZM205 114H208V115H205V114Z" fill="#E08300"/>
</g>
<g id="Rectangle 39_17" style="mix-blend-mode:multiply">
<path fill-rule="evenodd" clip-rule="evenodd" d="M202 114H203V115H202V114ZM208 114H209V115H208V114ZM198 117H199V118H198V117ZM200 117H202V118H200V117ZM206 117H211V118H206V117ZM204 117H205V118H204V117Z" fill="#E08300" fill-opacity="0.5"/>
</g>
<g id="Rectangle 39_18" style="mix-blend-mode:multiply">
<path fill-rule="evenodd" clip-rule="evenodd" d="M200 117H199V118H200V117ZM206 117H205V118H206V117Z" fill="#E08300" fill-opacity="0.25"/>
</g>
</g>
</g>
<g id="Img / Scrum Card_6">
<path id="Rectangle 49_6" fill-rule="evenodd" clip-rule="evenodd" d="M223 67H247L248 92L221 91L223 67Z" fill="#F18D00"/>
<rect id="Rectangle 48_6" x="220" y="63" width="27" height="24" fill="#FFA323"/>
<g id="Label_7" opacity="0.64">
<g id="Rectangle 39_19" style="mix-blend-mode:multiply">
<path fill-rule="evenodd" clip-rule="evenodd" d="M229 72H232V73H229V72ZM233 72H234V73H233V72ZM239 72H240V73H239V72ZM235 72H238V73H235V72Z" fill="#E08300"/>
</g>
<g id="Rectangle 39_20" style="mix-blend-mode:multiply">
<path fill-rule="evenodd" clip-rule="evenodd" d="M232 72H233V73H232V72ZM238 72H239V73H238V72ZM228 75H229V76H228V75ZM230 75H232V76H230V75ZM236 75H241V76H236V75ZM234 75H235V76H234V75Z" fill="#E08300" fill-opacity="0.5"/>
</g>
<g id="Rectangle 39_21" style="mix-blend-mode:multiply">
<path fill-rule="evenodd" clip-rule="evenodd" d="M230 75H229V76H230V75ZM236 75H235V76H236V75Z" fill="#E08300" fill-opacity="0.25"/>
</g>
</g>
</g>
<g id="Img / Scrum Card_7">
<path id="Rectangle 49_7" fill-rule="evenodd" clip-rule="evenodd" d="M240 97H264L265 122L238 121L240 97Z" fill="#F18D00"/>
<rect id="Rectangle 48_7" x="237" y="93" width="27" height="24" fill="#FFA323"/>
<g id="Label_8" opacity="0.64">
<g id="Rectangle 39_22" style="mix-blend-mode:multiply">
<path fill-rule="evenodd" clip-rule="evenodd" d="M246 102H249V103H246V102ZM250 102H251V103H250V102ZM256 102H257V103H256V102ZM252 102H255V103H252V102Z" fill="#E08300"/>
</g>
<g id="Rectangle 39_23" style="mix-blend-mode:multiply">
<path fill-rule="evenodd" clip-rule="evenodd" d="M249 102H250V103H249V102ZM255 102H256V103H255V102ZM245 105H246V106H245V105ZM247 105H249V106H247V105ZM253 105H258V106H253V105ZM251 105H252V106H251V105Z" fill="#E08300" fill-opacity="0.5"/>
</g>
<g id="Rectangle 39_24" style="mix-blend-mode:multiply">
<path fill-rule="evenodd" clip-rule="evenodd" d="M247 105H246V106H247V105ZM253 105H252V106H253V105Z" fill="#E08300" fill-opacity="0.25"/>
</g>
</g>
</g>
<g id="Img / Scrum Card_8">
<path id="Rectangle 49_8" fill-rule="evenodd" clip-rule="evenodd" d="M230 129H254L255 154L228 153L230 129Z" fill="#F18D00"/>
<rect id="Rectangle 48_8" x="227" y="125" width="27" height="24" fill="#FFA323"/>
<g id="Label_9" opacity="0.64">
<g id="Rectangle 39_25" style="mix-blend-mode:multiply">
<path fill-rule="evenodd" clip-rule="evenodd" d="M236 134H239V135H236V134ZM240 134H241V135H240V134ZM246 134H247V135H246V134ZM242 134H245V135H242V134Z" fill="#E08300"/>
</g>
<g id="Rectangle 39_26" style="mix-blend-mode:multiply">
<path fill-rule="evenodd" clip-rule="evenodd" d="M239 134H240V135H239V134ZM245 134H246V135H245V134ZM235 137H236V138H235V137ZM237 137H239V138H237V137ZM243 137H248V138H243V137ZM241 137H242V138H241V137Z" fill="#E08300" fill-opacity="0.5"/>
</g>
<g id="Rectangle 39_27" style="mix-blend-mode:multiply">
<path fill-rule="evenodd" clip-rule="evenodd" d="M237 137H236V138H237V137ZM243 137H242V138H243V137Z" fill="#E08300" fill-opacity="0.25"/>
</g>
</g>
</g>
<g id="Img / Scrum Card_9">
<path id="Rectangle 49_9" fill-rule="evenodd" clip-rule="evenodd" d="M270 64H294L295 89L268 88L270 64Z" fill="#F18D00"/>
<rect id="Rectangle 48_9" x="267" y="60" width="27" height="24" fill="#FFA323"/>
<g id="Label_10" opacity="0.64">
<g id="Rectangle 39_28" style="mix-blend-mode:multiply">
<path fill-rule="evenodd" clip-rule="evenodd" d="M276 69H279V70H276V69ZM280 69H281V70H280V69ZM286 69H287V70H286V69ZM282 69H285V70H282V69Z" fill="#E08300"/>
</g>
<g id="Rectangle 39_29" style="mix-blend-mode:multiply">
<path fill-rule="evenodd" clip-rule="evenodd" d="M279 69H280V70H279V69ZM285 69H286V70H285V69ZM275 72H276V73H275V72ZM277 72H279V73H277V72ZM283 72H288V73H283V72ZM281 72H282V73H281V72Z" fill="#E08300" fill-opacity="0.5"/>
</g>
<g id="Rectangle 39_30" style="mix-blend-mode:multiply">
<path fill-rule="evenodd" clip-rule="evenodd" d="M277 72H276V73H277V72ZM283 72H282V73H283V72Z" fill="#E08300" fill-opacity="0.25"/>
</g>
</g>
</g>
<g id="Img / Scrum Card_10">
<path id="Rectangle 49_10" fill-rule="evenodd" clip-rule="evenodd" d="M281 89H305L306 114L279 113L281 89Z" fill="#F18D00"/>
<rect id="Rectangle 48_10" x="278" y="85" width="27" height="24" fill="#FFA323"/>
<g id="Label_11" opacity="0.64">
<g id="Rectangle 39_31" style="mix-blend-mode:multiply">
<path fill-rule="evenodd" clip-rule="evenodd" d="M287 94H290V95H287V94ZM291 94H292V95H291V94ZM297 94H298V95H297V94ZM293 94H296V95H293V94Z" fill="#E08300"/>
</g>
<g id="Rectangle 39_32" style="mix-blend-mode:multiply">
<path fill-rule="evenodd" clip-rule="evenodd" d="M290 94H291V95H290V94ZM296 94H297V95H296V94ZM286 97H287V98H286V97ZM288 97H290V98H288V97ZM294 97H299V98H294V97ZM292 97H293V98H292V97Z" fill="#E08300" fill-opacity="0.5"/>
</g>
<g id="Rectangle 39_33" style="mix-blend-mode:multiply">
<path fill-rule="evenodd" clip-rule="evenodd" d="M288 97H287V98H288V97ZM294 97H293V98H294V97Z" fill="#E08300" fill-opacity="0.25"/>
</g>
</g>
</g>
<g id="Img / Scrum Card_11">
<path id="Rectangle 49_11" fill-rule="evenodd" clip-rule="evenodd" d="M318 67H342L343 92L316 91L318 67Z" fill="#F18D00"/>
<rect id="Rectangle 48_11" x="315" y="63" width="27" height="24" fill="#FFA323"/>
<g id="Label_12" opacity="0.64">
<g id="Rectangle 39_34" style="mix-blend-mode:multiply">
<path fill-rule="evenodd" clip-rule="evenodd" d="M324 72H327V73H324V72ZM328 72H329V73H328V72ZM334 72H335V73H334V72ZM330 72H333V73H330V72Z" fill="#E08300"/>
</g>
<g id="Rectangle 39_35" style="mix-blend-mode:multiply">
<path fill-rule="evenodd" clip-rule="evenodd" d="M327 72H328V73H327V72ZM333 72H334V73H333V72ZM323 75H324V76H323V75ZM325 75H327V76H325V75ZM331 75H336V76H331V75ZM329 75H330V76H329V75Z" fill="#E08300" fill-opacity="0.5"/>
</g>
<g id="Rectangle 39_36" style="mix-blend-mode:multiply">
<path fill-rule="evenodd" clip-rule="evenodd" d="M325 75H324V76H325V75ZM331 75H330V76H331V75Z" fill="#E08300" fill-opacity="0.25"/>
</g>
</g>
</g>
<g id="Img / Scrum Card_12">
<path id="Rectangle 49_12" fill-rule="evenodd" clip-rule="evenodd" d="M103 128H127L128 153L101 152L103 128Z" fill="#F18D00"/>
<rect id="Rectangle 48_12" x="100" y="124" width="27" height="24" fill="#FFA323"/>
<g id="Label_13" opacity="0.64">
<g id="Rectangle 39_37" style="mix-blend-mode:multiply">
<path fill-rule="evenodd" clip-rule="evenodd" d="M109 133H112V134H109V133ZM113 133H114V134H113V133ZM119 133H120V134H119V133ZM115 133H118V134H115V133Z" fill="#E08300"/>
</g>
<g id="Rectangle 39_38" style="mix-blend-mode:multiply">
<path fill-rule="evenodd" clip-rule="evenodd" d="M112 133H113V134H112V133ZM118 133H119V134H118V133ZM108 136H109V137H108V136ZM110 136H112V137H110V136ZM116 136H121V137H116V136ZM114 136H115V137H114V136Z" fill="#E08300" fill-opacity="0.5"/>
</g>
<g id="Rectangle 39_39" style="mix-blend-mode:multiply">
<path fill-rule="evenodd" clip-rule="evenodd" d="M110 136H109V137H110V136ZM116 136H115V137H116V136Z" fill="#E08300" fill-opacity="0.25"/>
</g>
</g>
</g>
<g id="Img / Scrum Card_13">
<path id="Rectangle 49_13" fill-rule="evenodd" clip-rule="evenodd" d="M88 60H112L113 85L86 84L88 60Z" fill="#F18D00"/>
<rect id="Rectangle 48_13" x="85" y="56" width="27" height="24" fill="#FFA323"/>
<g id="Label_14" opacity="0.64">
<g id="Rectangle 39_40" style="mix-blend-mode:multiply">
<path fill-rule="evenodd" clip-rule="evenodd" d="M94 65H97V66H94V65ZM98 65H99V66H98V65ZM104 65H105V66H104V65ZM100 65H103V66H100V65Z" fill="#E08300"/>
</g>
<g id="Rectangle 39_41" style="mix-blend-mode:multiply">
<path fill-rule="evenodd" clip-rule="evenodd" d="M97 65H98V66H97V65ZM103 65H104V66H103V65ZM93 68H94V69H93V68ZM95 68H97V69H95V68ZM101 68H106V69H101V68ZM99 68H100V69H99V68Z" fill="#E08300" fill-opacity="0.5"/>
</g>
<g id="Rectangle 39_42" style="mix-blend-mode:multiply">
<path fill-rule="evenodd" clip-rule="evenodd" d="M95 68H94V69H95V68ZM101 68H100V69H101V68Z" fill="#E08300" fill-opacity="0.25"/>
</g>
</g>
</g>
<g id="Img / Scrum Card_14">
<path id="Rectangle 49_14" fill-rule="evenodd" clip-rule="evenodd" d="M145 68H169L170 93L143 92L145 68Z" fill="#F18D00"/>
<rect id="Rectangle 48_14" x="142" y="64" width="27" height="24" fill="#FFA323"/>
<g id="Label_15" opacity="0.64">
<g id="Rectangle 39_43" style="mix-blend-mode:multiply">
<path fill-rule="evenodd" clip-rule="evenodd" d="M151 73H154V74H151V73ZM155 73H156V74H155V73ZM161 73H162V74H161V73ZM157 73H160V74H157V73Z" fill="#E08300"/>
</g>
<g id="Rectangle 39_44" style="mix-blend-mode:multiply">
<path fill-rule="evenodd" clip-rule="evenodd" d="M154 73H155V74H154V73ZM160 73H161V74H160V73ZM150 76H151V77H150V76ZM152 76H154V77H152V76ZM158 76H163V77H158V76ZM156 76H157V77H156V76Z" fill="#E08300" fill-opacity="0.5"/>
</g>
<g id="Rectangle 39_45" style="mix-blend-mode:multiply">
<path fill-rule="evenodd" clip-rule="evenodd" d="M152 76H151V77H152V76ZM158 76H157V77H158V76Z" fill="#E08300" fill-opacity="0.25"/>
</g>
</g>
</g>
<g id="Img / Scrum Card_15">
<path id="Rectangle 49_15" fill-rule="evenodd" clip-rule="evenodd" d="M98 87H122L123 112L96 111L98 87Z" fill="#F18D00"/>
<rect id="Rectangle 48_15" x="95" y="83" width="27" height="24" fill="#FFA323"/>
<g id="Label_16" opacity="0.64">
<g id="Rectangle 39_46" style="mix-blend-mode:multiply">
<path fill-rule="evenodd" clip-rule="evenodd" d="M104 92H107V93H104V92ZM108 92H109V93H108V92ZM114 92H115V93H114V92ZM110 92H113V93H110V92Z" fill="#E08300"/>
</g>
<g id="Rectangle 39_47" style="mix-blend-mode:multiply">
<path fill-rule="evenodd" clip-rule="evenodd" d="M107 92H108V93H107V92ZM113 92H114V93H113V92ZM103 95H104V96H103V95ZM105 95H107V96H105V95ZM111 95H116V96H111V95ZM109 95H110V96H109V95Z" fill="#E08300" fill-opacity="0.5"/>
</g>
<g id="Rectangle 39_48" style="mix-blend-mode:multiply">
<path fill-rule="evenodd" clip-rule="evenodd" d="M105 95H104V96H105V95ZM111 95H110V96H111V95Z" fill="#E08300" fill-opacity="0.25"/>
</g>
</g>
</g>
<g id="Img / Scrum Card_16">
<path id="Rectangle 49_16" fill-rule="evenodd" clip-rule="evenodd" d="M87 109H111L112 134L85 133L87 109Z" fill="#F18D00"/>
<rect id="Rectangle 48_16" x="84" y="105" width="27" height="24" fill="#FFA323"/>
<g id="Label_17" opacity="0.64">
<g id="Rectangle 39_49" style="mix-blend-mode:multiply">
<path fill-rule="evenodd" clip-rule="evenodd" d="M93 114H96V115H93V114ZM97 114H98V115H97V114ZM103 114H104V115H103V114ZM99 114H102V115H99V114Z" fill="#E08300"/>
</g>
<g id="Rectangle 39_50" style="mix-blend-mode:multiply">
<path fill-rule="evenodd" clip-rule="evenodd" d="M96 114H97V115H96V114ZM102 114H103V115H102V114ZM92 117H93V118H92V117ZM94 117H96V118H94V117ZM100 117H105V118H100V117ZM98 117H99V118H98V117Z" fill="#E08300" fill-opacity="0.5"/>
</g>
<g id="Rectangle 39_51" style="mix-blend-mode:multiply">
<path fill-rule="evenodd" clip-rule="evenodd" d="M94 117H93V118H94V117ZM100 117H99V118H100V117Z" fill="#E08300" fill-opacity="0.25"/>
</g>
</g>
</g>
<g id="Img / Scrum Card_17">
<path id="Rectangle 49_17" fill-rule="evenodd" clip-rule="evenodd" d="M142 97H166L167 122L140 121L142 97Z" fill="#F18D00"/>
<rect id="Rectangle 48_17" x="139" y="93" width="27" height="24" fill="#FFA323"/>
<g id="Label_18" opacity="0.64">
<g id="Rectangle 39_52" style="mix-blend-mode:multiply">
<path fill-rule="evenodd" clip-rule="evenodd" d="M148 102H151V103H148V102ZM152 102H153V103H152V102ZM158 102H159V103H158V102ZM154 102H157V103H154V102Z" fill="#E08300"/>
</g>
<g id="Rectangle 39_53" style="mix-blend-mode:multiply">
<path fill-rule="evenodd" clip-rule="evenodd" d="M151 102H152V103H151V102ZM157 102H158V103H157V102ZM147 105H148V106H147V105ZM149 105H151V106H149V105ZM155 105H160V106H155V105ZM153 105H154V106H153V105Z" fill="#E08300" fill-opacity="0.5"/>
</g>
<g id="Rectangle 39_54" style="mix-blend-mode:multiply">
<path fill-rule="evenodd" clip-rule="evenodd" d="M149 105H148V106H149V105ZM155 105H154V106H155V105Z" fill="#E08300" fill-opacity="0.25"/>
</g>
</g>
</g>
<g id="Img / Scrum Card_18">
<path id="Rectangle 49_18" fill-rule="evenodd" clip-rule="evenodd" d="M152 129H176L177 154L150 153L152 129Z" fill="#F18D00"/>
<rect id="Rectangle 48_18" x="149" y="125" width="27" height="24" fill="#FFA323"/>
<g id="Label_19" opacity="0.64">
<g id="Rectangle 39_55" style="mix-blend-mode:multiply">
<path fill-rule="evenodd" clip-rule="evenodd" d="M158 134H161V135H158V134ZM162 134H163V135H162V134ZM168 134H169V135H168V134ZM164 134H167V135H164V134Z" fill="#E08300"/>
</g>
<g id="Rectangle 39_56" style="mix-blend-mode:multiply">
<path fill-rule="evenodd" clip-rule="evenodd" d="M161 134H162V135H161V134ZM167 134H168V135H167V134ZM157 137H158V138H157V137ZM159 137H161V138H159V137ZM165 137H170V138H165V137ZM163 137H164V138H163V137Z" fill="#E08300" fill-opacity="0.5"/>
</g>
<g id="Rectangle 39_57" style="mix-blend-mode:multiply">
<path fill-rule="evenodd" clip-rule="evenodd" d="M159 137H158V138H159V137ZM165 137H164V138H165V137Z" fill="#E08300" fill-opacity="0.25"/>
</g>
</g>
</g>
<g id="Img / Scrum Card_19">
<path id="Rectangle 49_19" fill-rule="evenodd" clip-rule="evenodd" d="M103 128H127L128 153L101 152L103 128Z" fill="#F18D00"/>
<rect id="Rectangle 48_19" x="100" y="124" width="27" height="24" fill="#FFA323"/>
<g id="Label_20" opacity="0.64">
<g id="Rectangle 39_58" style="mix-blend-mode:multiply">
<path fill-rule="evenodd" clip-rule="evenodd" d="M109 133H112V134H109V133ZM113 133H114V134H113V133ZM119 133H120V134H119V133ZM115 133H118V134H115V133Z" fill="#E08300"/>
</g>
<g id="Rectangle 39_59" style="mix-blend-mode:multiply">
<path fill-rule="evenodd" clip-rule="evenodd" d="M112 133H113V134H112V133ZM118 133H119V134H118V133ZM108 136H109V137H108V136ZM110 136H112V137H110V136ZM116 136H121V137H116V136ZM114 136H115V137H114V136Z" fill="#E08300" fill-opacity="0.5"/>
</g>
<g id="Rectangle 39_60" style="mix-blend-mode:multiply">
<path fill-rule="evenodd" clip-rule="evenodd" d="M110 136H109V137H110V136ZM116 136H115V137H116V136Z" fill="#E08300" fill-opacity="0.25"/>
</g>
</g>
</g>
</g>
</g>
<g id="Ovals">
<circle id="Oval 1" cx="61.5" cy="177.5" r="59.5" fill="white" fill-opacity="0.2"/>
<circle id="Oval 1_2" cx="61.5" cy="177.5" r="36" stroke="white" stroke-opacity="0.4" stroke-dasharray="2"/>
<circle id="Oval 1_3" cx="62" cy="178" r="23" fill="white" fill-opacity="0.2"/>
</g>
</g>
<defs>
<clipPath id="clip0_547_9348">
<rect width="430" height="192" fill="white"/>
</clipPath>
<clipPath id="clip1_547_9348">
<rect width="304" height="160" fill="white" transform="translate(63 16)"/>
</clipPath>
</defs>
</svg>
