<svg xmlns="http://www.w3.org/2000/svg" width="247" height="144" viewBox="0 0 247 144"><defs><radialGradient id="prices-mr-incredible-a" cx="49.579%" cy="43.255%" r="155.799%" fx="49.579%" fy="43.255%" gradientTransform="scale(.41376 1) rotate(25.56 .847 1.981)"><stop offset="0%" stop-color="#CC998C"/><stop offset="100%" stop-color="#FFD9CC"/></radialGradient><radialGradient id="prices-mr-incredible-b" cx="7.876%" cy="7.334%" r="136.116%" fx="7.876%" fy="7.334%" gradientTransform="matrix(.8209 0 0 1 .014 0)"><stop offset="0%" stop-color="#FF2626"/><stop offset="100%" stop-color="#C91D1D"/></radialGradient><radialGradient id="prices-mr-incredible-e" cx="29.217%" cy="49.556%" r="65.964%" fx="29.217%" fy="49.556%" gradientTransform="matrix(1 0 0 .73778 0 .13)"><stop offset="0%" stop-color="#9C756B"/><stop offset="100%" stop-color="#CC998C" stop-opacity="0"/></radialGradient><radialGradient id="prices-mr-incredible-f" cx="28.181%" cy="8.503%" r="50.448%" fx="28.181%" fy="8.503%" gradientTransform="matrix(-.68106 -.72674 .72054 -.68692 .412 .348)"><stop offset="0%" stop-color="#9C756B"/><stop offset="100%" stop-color="#CC998C" stop-opacity="0"/></radialGradient><radialGradient id="prices-mr-incredible-g" cx="50.048%" cy="50.001%" r="84.344%" fx="50.048%" fy="50.001%" gradientTransform="matrix(.59697 0 0 1 .202 0)"><stop offset="0%" stop-color="#474752"/><stop offset="35%" stop-color="#454550"/><stop offset="54%" stop-color="#3E3E48"/><stop offset="70%" stop-color="#32323A"/><stop offset="83%" stop-color="#212126"/><stop offset="95%" stop-color="#0C0C0E"/><stop offset="100%"/></radialGradient><radialGradient id="prices-mr-incredible-h" cx="54.835%" cy="58.863%" r="135.986%" fx="54.835%" fy="58.863%" gradientTransform="matrix(.54368 0 0 1 .25 0)"><stop offset="0%" stop-color="#FFF"/><stop offset="100%" stop-color="#8C7373"/></radialGradient><radialGradient id="prices-mr-incredible-i" cx="50.067%" r="55.2%" fx="50.067%" fy="50%"><stop offset="0%" stop-color="#69B4D9"/><stop offset="100%" stop-color="#006FA6"/></radialGradient><radialGradient id="prices-mr-incredible-j" cx="38.285%" cy="31.443%" r="120.241%" fx="38.285%" fy="31.443%" gradientTransform="matrix(.6255 0 0 1 .143 0)"><stop offset="0%" stop-color="#FFF"/><stop offset="100%" stop-color="#8C7373"/></radialGradient><radialGradient id="prices-mr-incredible-k" r="55.2%" fx="50%" fy="50%"><stop offset="0%" stop-color="#69B4D9"/><stop offset="100%" stop-color="#006FA6"/></radialGradient><linearGradient id="prices-mr-incredible-c" x1="-.054%" x2="99.997%" y1="50.018%" y2="50.018%"><stop offset="0%"/><stop offset="51%" stop-color="#262633"/><stop offset="100%"/></linearGradient><linearGradient id="prices-mr-incredible-d" x1="17.998%" x2="102.215%" y1="44.824%" y2="53.014%"><stop offset="0%" stop-color="#FFD9CC"/><stop offset="78%" stop-color="#CC998C"/><stop offset="100%" stop-color="#CC998C"/></linearGradient></defs><g fill="none" fill-rule="evenodd" transform="translate(0 -13)"><path fill="#C9ABA2" d="M173.29 48a48.57 48.57 0 00-7.43-5.37c.24 8.88 1.13 17.76 1.69 26.63a66.49 66.49 0 007.37-15.08 5.79 5.79 0 00-1.63-6.18z"/><path fill="#F5D0C4" d="M113.07 35.69a5.75 5.75 0 00-3.7 4.82 64.68 64.68 0 00.63 18.08c5.28-8.57 11.94-16.2 15.83-25.48a45.87 45.87 0 00-12.76 2.58z"/><path fill="#CC998C" d="M112 41.88c.69-2.39.49-4.54-.44-4.81a.84.84 0 00-.64.11 5.79 5.79 0 00-1.51 3.33 71.08 71.08 0 00-.33 5.21c.92.28 2.2-1.46 2.92-3.84z" opacity=".25"/><path fill="url(#prices-mr-incredible-a)" d="M186.4 100L173 89.46l-70-15-6.62 4.67c9.09 12 29.77 24.6 53.16 30.21 23.69 5.71 36.92.5 36.86-9.34z"/><path fill="#FF2626" d="M42 138.91L40 157H.92l8.83-16.5L14 124a16.13 16.13 0 013.94-7.09 18.51 18.51 0 00-1.32 1.61c6.91 7.64 18.44 19.33 25.38 20.39z"/><path fill="#BA1C1C" d="M118 157H85.75a78 78 0 003.5-15.82A154.28 154.28 0 00118 157z"/><path fill="url(#prices-mr-incredible-b)" d="M256.66 157H218s-1.71-25.63-14.16-43.36l5.41 4.24a19.08 19.08 0 003.76 2.31l22.35 8.53A31.7 31.7 0 01250 142.87l6.66 14.13z"/><path fill="#E02121" d="M218 157H118a154.28 154.28 0 01-28.72-15.82 78 78 0 01-3.5 15.82H40l2-18.09c-7-1.06-18.48-12.75-25.35-20.37.41-.561.85-1.099 1.32-1.61.24-.25.49-.49.74-.73l.78-.69c.23-.19.46-.37.69-.53a7.51 7.51 0 01.68-.47 3.74 3.74 0 01.49-.32 15.61 15.61 0 011.71-.92l57.15-26.08L93.89 81l2.53-1.78c.56.73 1.17 1.45 1.79 2.2 8.52 10.3 37.52 24.24 50.2 27.71l1.17.3c23.65 5.67 36.88.46 36.82-9.42l17.44 13.68C216.29 131.37 218 157 218 157z"/><path fill="#FF5151" d="M117 96.3C101 106.83 51.35 139 43 139c-.335 0-.67-.03-1-.09-7-1.06-18.48-12.75-25.35-20.37.41-.561.85-1.099 1.32-1.61.24-.25.49-.49.74-.73l.78-.69c.23-.19.46-.37.69-.53a7.51 7.51 0 01.68-.47 3.74 3.74 0 01.49-.32 15.61 15.61 0 011.71-.92L93.89 81l2.53-1.78c.56.73 1.15 1.47 1.79 2.2a61.32 61.32 0 008.15 7.67c.41.33 10 6.86 10.47 7.15l.17.06z"/><path fill="#FF2626" d="M218 157H118a154.28 154.28 0 01-28.72-15.82L89 141l-2-26 1.39-.86L117 96.3a120.05 120.05 0 0031.4 12.78l1.17.3c23.65 5.67 36.88.46 36.82-9.42l17.44 13.68C216.29 131.37 218 157 218 157z"/><path fill="#801313" d="M89.25 141.18a78 78 0 01-3.5 15.82h-3S94 129 80.22 87.19a106.69 106.69 0 018.17 26.95 95.52 95.52 0 01.86 27.04zm115.85-26.56S217 137 218 157h2s-3-23-14.9-42.38z"/><path fill="url(#prices-mr-incredible-c)" d="M150.58 111.39c24.67 5.83 38.19.19 37.4-10.19l-4.22-3.31c-1.4 8.18-13.83 12.42-35 7.82-22.46-4.86-42.31-16.38-50.94-27.5l-2.26 1.6c8.61 12.39 30.33 25.76 55.02 31.58z"/><path fill="url(#prices-mr-incredible-d)" d="M173 87.15c.62 8.41-17.09 10.64-34.48 6.6-19.75-4.58-40.14-16.25-34.79-27.14l11.2-25.45 9.44-21.45a12.26 12.26 0 015.15-5.71L153.24.56a3.46 3.46 0 014.56 1.06c2.66 3.9 7.46 11.12 8.94 14.37a72.12 72.12 0 014.59 14.72c.03.185.05.372.06.56l.85 29.69.76 26.19z"/><path fill="#997369" d="M173 87.45c.19 8.16-17.31 10.29-34.49 6.3-18.57-4.31-37.7-14.88-35.48-25.17 7.12 7.32 18.49 13.84 32.09 17.65C149.33 90.2 163 90.39 173 87.45z" opacity=".17" style="mix-blend-mode:multiply"/><path stroke="#FFF" d="M173 87.45c-10 2.94-23.68 2.75-37.88-1.22-13.6-3.81-25-10.33-32.09-17.65" opacity=".09"/><path fill="#CC998C" d="M143.33 46.78l10.92 2s-3.09-5.73-10.92-2z"/><path fill="#FFD9CC" d="M151.75 30.32l-8.42 16.46s7.42-2.25 10.92 2L156 31l-4.25-.68z"/><path fill="#997369" d="M152.89 47.54a6.43 6.43 0 011.36 1.21l1.28-13a39 39 0 00-2.64 11.79z" opacity=".56"/><path fill="#BFA399" d="M143.33 46.78a16.55 16.55 0 015.55-.54c.662-4.18 1.06-8.4 1.19-12.63l-6.74 13.17z" opacity=".5"/><path fill="url(#prices-mr-incredible-e)" d="M157.83 50.13a4.44 4.44 0 00-2.14.57 4.44 4.44 0 010 7.83 4.54 4.54 0 002.14.56 4.5 4.5 0 000-9v.04z"/><path fill="url(#prices-mr-incredible-f)" d="M136.92 42.23a4.58 4.58 0 011.08 1.94 4.44 4.44 0 00-5.69 5.38 4.33 4.33 0 01-1.88-1.16 4.481 4.481 0 116.51-6.16h-.02z"/><path fill="#5C5C5C" d="M158.13 53.89a28.23 28.23 0 01-7.89-.19c-8.76-1.38-16-6.08-16.67-10.71a4.39 4.39 0 00-.07.82c0 4.83 7.28 9.88 16.23 11.27a26 26 0 008.4 0v-1.19z"/><path fill="url(#prices-mr-incredible-g)" d="M139 18.17h11.33a5 5 0 013.75 1.69c2.23 2.52 5.14 6 9.09 7.4 3.95 1.4 9.74 7.16 9.4 10.33-.34 3.17-.77 9.13-.77 9.13.88 0-15.7.93-16-6.2-.09-2 .49-4.52-1.21-5.36a6.87 6.87 0 00-4.43-.16c-1.84.66-2.95 2.7-4.34 4.08-2.31 2.31-12.31 4.09-20.4-3.17a2.18 2.18 0 01-.45-2.69 88.16 88.16 0 015-8.29 63.46 63.46 0 015.87-5.59 4.8 4.8 0 013.16-1.17z"/><path fill="#000" d="M155.69 36.64c9.09-1.45 14.13 2.05 16.56 4.71.11-1.35.24-2.7.35-3.75a6.43 6.43 0 00-1.57-4 39.54 39.54 0 00-10.73-5.31 22.1 22.1 0 00-4.85 7.71c.102.204.183.419.24.64zm-7.57-16.52c-1.54-.4-8.5.13-11.12 1.13-2.62 1-9.63 9.07-9.63 9.07s8.63-3.07 11.75-3.06a7.12 7.12 0 016.5 3.74c.72 1.35.26 5.52-.18 8.4.14-.094.27-.2.39-.32 1.34-1.34 2.43-3.28 4.18-4 .07-1.57.11-3.15.11-4.76 0-3.06-.127-6.04-.38-8.94a4.24 4.24 0 00-1.62-1.26z"/><path fill="url(#prices-mr-incredible-h)" d="M130.38 31.38c.27-1.87 4.25-3 7.37-2.63 3.12.37 6.72 1.68 6.37 4.37-.38 3-4.21 3.35-7.5 2.88-3.13-.45-6.52-2.77-6.24-4.62z"/><circle cx="138" cy="32" r="3" fill="url(#prices-mr-incredible-i)"/><circle cx="138" cy="32" r="2" fill="#000"/><circle cx="137" cy="31" r="1" fill="#FFF"/><path fill="url(#prices-mr-incredible-j)" d="M157.94 36.571c1.07-2.81 4.63-1.87 6.92-1 2.7 1 5.47 2.77 5.12 4.28-.73 3.14-4.5 2.78-7.93 1.53-2.37-.84-4.66-3.35-4.11-4.81z"/><circle cx="162" cy="38" r="3" fill="url(#prices-mr-incredible-k)"/><circle cx="162" cy="38" r="2" fill="#000"/><circle cx="161" cy="37" r="1" fill="#FFF"/><path fill="#EDC68C" d="M124.37 19.71l-9.16 20.81c6.51-8.46 13.4-19.38 14.31-26.52a12.26 12.26 0 00-5.15 5.71z" opacity=".58"/><path fill="#D99900" d="M145.59 157h55.78a12.08 12.08 0 002-6.59c.26-14.37-21.78-28.46-44.38-31-18.59-2.1-31.69 4.52-32 14.54-.3 7.63 6.91 16.58 18.6 23.05z"/><path fill="#262633" d="M156.15 157h16.18l-.33-2s24 2 24-11c0-10-23-23-30-22l1 6s-30-2-30 9c0 6.09 8.25 14.92 19.15 20z"/><path fill="#F2B200" d="M152 123c-.65 4.3 9.18 11.44 18 10 2.73-.45 7.54-2.08 8-5 .64-4.07-7.22-10-15-10-4.4 0-10.52 1.86-11 5z"/><path fill="#FFF" d="M173 128c.5-2-3.81-5.27-8-6-1.7-.3-5.32-.52-6 1-.82 1.83 2.67 6.15 7 7 2.88.56 6.59-.31 7-2z"/><path fill="#F2B200" d="M183.14 157L178 139l-17 1 3.86 17z"/></g></svg>