<svg xmlns="http://www.w3.org/2000/svg" width="113" height="127" viewBox="0 0 113 127"><defs><radialGradient id="prices-elastigirl-d" cx="46.287%" cy="14.002%" r="268.592%" fx="46.287%" fy="14.002%" gradientTransform="matrix(.6666 -.1776 .1203 .9841 .137 .084)"><stop offset="0%" stop-color="#806D66"/><stop offset="100%" stop-color="#FFD9CC" stop-opacity="0"/></radialGradient><radialGradient id="prices-elastigirl-f" cx="50.001%" r="50.532%" fx="50.001%" fy="50%" gradientTransform="matrix(1 0 0 .97885 0 .01)"><stop offset="0%" stop-color="#FFD9CC"/><stop offset="87%" stop-color="#CC998C"/><stop offset="100%" stop-color="#D1A296"/></radialGradient><radialGradient id="prices-elastigirl-g" cx="50.16%" r="119.169%" fx="50.16%" fy="50%" gradientTransform="matrix(1 0 0 .31113 0 .344)"><stop offset="0%" stop-color="#FFD9CC"/><stop offset="87%" stop-color="#CC998C"/><stop offset="100%" stop-color="#D1A296"/></radialGradient><radialGradient id="prices-elastigirl-h" r="74.25%" fx="50%" fy="50%" gradientTransform="matrix(.54054 0 0 1 .23 0)"><stop offset="0%" stop-color="#FFD9CC"/><stop offset="87%" stop-color="#CC998C"/><stop offset="100%" stop-color="#D1A296"/></radialGradient><radialGradient id="prices-elastigirl-i" cx="50.183%" r="147.619%" fx="50.183%" fy="50%" gradientTransform="matrix(1 0 0 .24683 0 .377)"><stop offset="0%" stop-color="#FFD9CC"/><stop offset="87%" stop-color="#CC998C"/><stop offset="100%" stop-color="#D1A296"/></radialGradient><radialGradient id="prices-elastigirl-j" r="91.781%" fx="50%" fy="50%" gradientTransform="matrix(1 0 0 .41714 0 .291)"><stop offset="0%" stop-color="#FFD9CC"/><stop offset="87%" stop-color="#CC998C"/><stop offset="100%" stop-color="#D1A296"/></radialGradient><radialGradient id="prices-elastigirl-k" cx="50.006%" cy="49.982%" r="97.779%" fx="50.006%" fy="49.982%" gradientTransform="matrix(.38788 0 0 1 .306 0)"><stop offset="0%" stop-color="#FFD9CC"/><stop offset="87%" stop-color="#CC998C"/><stop offset="100%" stop-color="#D1A296"/></radialGradient><radialGradient id="prices-elastigirl-l" cx="40.088%" cy="39.97%" r="83.707%" fx="40.088%" fy="39.97%" gradientTransform="matrix(.74245 0 0 1 .103 0)"><stop offset="0%" stop-color="#FFD9CC"/><stop offset="87%" stop-color="#CC998C"/><stop offset="100%" stop-color="#D1A296"/></radialGradient><radialGradient id="prices-elastigirl-m" cx="41.266%" cy="32.919%" r="78.502%" fx="41.266%" fy="32.919%" gradientTransform="matrix(.80298 0 0 1 .081 0)"><stop offset="0%" stop-color="#FFD9CC"/><stop offset="87%" stop-color="#CC998C"/><stop offset="100%" stop-color="#D1A296"/></radialGradient><radialGradient id="prices-elastigirl-n" r="53.25%" fx="50%" fy="50%" gradientTransform="matrix(1 0 0 .88889 0 .056)"><stop offset="0%" stop-color="#FFD9CC"/><stop offset="87%" stop-color="#CC998C"/><stop offset="100%" stop-color="#D1A296"/></radialGradient><radialGradient id="prices-elastigirl-o" fx="50%" fy="50%"><stop offset="0%" stop-color="#FFD9CC"/><stop offset="87%" stop-color="#CC998C"/><stop offset="100%" stop-color="#D1A296"/></radialGradient><radialGradient id="prices-elastigirl-p" cy="50.604%" r="112.566%" fx="50%" fy="50.604%" gradientTransform="matrix(.33123 0 0 1 .334 0)"><stop offset="0%" stop-color="#FFD9CC"/><stop offset="87%" stop-color="#CC998C"/><stop offset="100%" stop-color="#D1A296"/></radialGradient><radialGradient id="prices-elastigirl-q" cx="49.879%" cy="50.061%" r="157.966%" fx="49.879%" fy="50.061%" gradientTransform="matrix(.22978 0 0 1 .384 0)"><stop offset="0%" stop-color="#FFD9CC"/><stop offset="87%" stop-color="#CC998C"/><stop offset="100%" stop-color="#D1A296"/></radialGradient><radialGradient id="prices-elastigirl-s" cx="40.088%" cy="39.97%" r="83.707%" fx="40.088%" fy="39.97%" gradientTransform="matrix(.74245 0 0 1 .103 0)"><stop offset="0%" stop-color="#FFF"/><stop offset="100%" stop-color="#8C7373"/></radialGradient><radialGradient id="prices-elastigirl-t" cx="41.266%" cy="32.919%" r="78.502%" fx="41.266%" fy="32.919%" gradientTransform="matrix(.80298 0 0 1 .081 0)"><stop offset="0%" stop-color="#FFF"/><stop offset="100%" stop-color="#8C7373"/></radialGradient><radialGradient id="prices-elastigirl-w" cx="34.418%" cy="29.808%" r="95.604%" fx="34.418%" fy="29.808%" gradientTransform="matrix(.66846 0 0 1 .114 0)"><stop offset="0%" stop-color="#8E7979"/><stop offset="89%" stop-color="#735959"/></radialGradient><linearGradient id="prices-elastigirl-a" x1=".054%" x2="100.751%" y1="101%" y2="32.251%"><stop offset="0%"/><stop offset="51%" stop-color="#262633"/><stop offset="100%"/></linearGradient><linearGradient id="prices-elastigirl-b" x1="50.082%" x2="51.986%" y1="54.158%" y2="92.129%"><stop offset="18%" stop-color="#574343"/><stop offset="55%" stop-color="#8E7979"/><stop offset="100%" stop-color="#574343"/></linearGradient><linearGradient id="prices-elastigirl-c" x1="0%" y1="50.099%" y2="50.099%"><stop offset="0%" stop-color="#CC998C"/><stop offset="51%" stop-color="#FFD9CC"/><stop offset="100%" stop-color="#CC998C"/></linearGradient><linearGradient id="prices-elastigirl-e" x1="0%" y1="49.826%" y2="49.826%"><stop offset="0%"/><stop offset="51%" stop-color="#262633"/><stop offset="100%"/></linearGradient><linearGradient id="prices-elastigirl-r" x1="50.006%" x2="50.006%" y1="100.02%" y2="-.013%"><stop offset="0%" stop-color="#262633"/><stop offset="100%"/></linearGradient><linearGradient id="prices-elastigirl-u" x1="50%" x2="50%" y1="100%" y2="0%"><stop offset="0%" stop-color="#BF8066"/><stop offset="9%" stop-color="#A26D57"/><stop offset="25%" stop-color="#714C3C"/><stop offset="41%" stop-color="#483127"/><stop offset="57%" stop-color="#291B16"/><stop offset="73%" stop-color="#120C0A"/><stop offset="87%" stop-color="#050302"/><stop offset="100%"/></linearGradient><linearGradient id="prices-elastigirl-v" x1="50%" x2="50%" y1="100.889%" y2=".889%"><stop offset="0%" stop-color="#BF8066"/><stop offset="9%" stop-color="#A26D57"/><stop offset="25%" stop-color="#714C3C"/><stop offset="41%" stop-color="#483127"/><stop offset="57%" stop-color="#291B16"/><stop offset="73%" stop-color="#120C0A"/><stop offset="87%" stop-color="#050302"/><stop offset="100%"/></linearGradient></defs><g fill="none" fill-rule="evenodd"><path fill="#F20000" d="M93.4 123.87A24.11 24.11 0 0093 120a25.13 25.13 0 00-4.22-10c-1-2.5-2.25-5.29-3.19-7.44 2.63 1.06 7.68 3.46 8.41 6.4.73 2.94-.07 10.54-.6 14.91z"/><path fill="#FF2626" d="M53 115h-8l-29 9a12.8 12.8 0 00-5-1c-4.06 0-7.79 2-10.19 3.71l-.4-2.81c-.25-1.75 2.59-5.9 7-7.07C14.83 114.89 36 106 36 106l7.49-3.74c.34-.17.7-.3 1.07-.39l4.23-1c2 3.48 4.88 9.47 4.21 14.13z"/><path fill="url(#prices-elastigirl-a)" d="M19.5 127l-.24-1a11.61 11.61 0 00-3.22-2 12.8 12.8 0 00-5-1c-4.06 0-7.79 2-10.19 3.71v.29H19.5z"/><path fill="#BF0000" d="M53 115a11.06 11.06 0 01-3.24 6.53L49 120s3-4-30 5l.26 1a11.61 11.61 0 00-3.22-2l29-9H53z"/><path fill="#D80000" d="M53 115a11.06 11.06 0 01-3.24 6.53L52.5 127H93s.18-1.26.4-3.12A24.11 24.11 0 0093 120a25.13 25.13 0 00-4.22-10c.45 1.06.87 2.07 1.22 3 2 5 2 7-3 8s-7 1-15 2-11-2-14-6c-2.19-2.92-6.53-11.73-8.69-16.25l-.52.12c2 3.48 4.88 9.47 4.21 14.13z"/><path fill="#FF2626" d="M87 121c-5 1-7 1-15 2s-11-2-14-6c-2.19-2.92-6.53-11.73-8.69-16.25L61 97h12s1.87 4.73 10.1 5a5.59 5.59 0 011.82.34l.67.27c1.34 3.07 3.23 7.44 4.41 10.4 2 4.99 2 6.99-3 7.99z"/><path fill="url(#prices-elastigirl-b)" d="M106 42c-6.13-7.39-2-14.72-8-19-4.89-3.48-10.44.37-14-4-1.09-1.34-2.61-2.88-2.84-4.34A9.38 9.38 0 0181 16c-1.52 7.82-11.88 8.51-28 15-24.77 10-28.66 12.84-30 15-2.93 4.71-2.55 12.84-2.6 18.88a43.61 43.61 0 007.15 10.77c-2.47-1-3.86-1.54-4.05-1.15-.6 1.27 11.51 12 28.2 14.58a46.4 46.4 0 0012.7.7A10.69 10.69 0 0068 93c5.58 2.91 13.07-1.2 20-5 1.74-.95 21.41-12.18 24-35 .1-.91.28-2.77.31-5.21-2.39-.79-3.88-2.86-6.31-5.79z"/><path fill="url(#prices-elastigirl-c)" d="M76 85a57.47 57.47 0 01-2.16 10.49h-.34a30.81 30.81 0 01-13-2.53V86.5L76 85z"/><path fill="url(#prices-elastigirl-d)" d="M76 85a57.47 57.47 0 01-2.16 10.49h-.34a30.81 30.81 0 01-13-2.53V86.5L76 85z"/><path fill="url(#prices-elastigirl-e)" d="M73.84 95.49c-.12.35-.68 2.2-.84 2.51-2 4-12.5 3.5-12.5-1.5V93a30.81 30.81 0 0013 2.53l.34-.04z"/><path fill="#CC998C" d="M96 57c2.44-6.38 5.33-7 6-7 2 0 4.15 3.6 4 7-.18 4.06-3 8-11 8 .63-2.2-.41-4.32 1-8z"/><path fill="url(#prices-elastigirl-f)" d="M100 54a34 34 0 01-54.48 27.14c-4-3.06-8.65-6.92-10.8-11.56A25.06 25.06 0 0133 54c3.68-18.41 14.22-35 33-35a33.28 33.28 0 0123.55 10c3.83 3.83 5.8 8.56 7.58 13.78C98.34 46.3 100 50.09 100 54z"/><path fill="url(#prices-elastigirl-g)" d="M60.68 54.26l-1.38 9.8L62 61l.43-7z"/><path fill="url(#prices-elastigirl-h)" d="M61.26 60.82l-1.8 2.4a.8.8 0 00.64 1.28h5.8a.8.8 0 00.64-1.28l-1.8-2.4a.81.81 0 00-.64-.32h-2.2a.81.81 0 00-.64.32z"/><path fill="url(#prices-elastigirl-i)" d="M66 54l.73 10.06L64 60v-7z"/><path fill="url(#prices-elastigirl-j)" d="M61.58 60.5l.92-7h2v7z"/><path fill="url(#prices-elastigirl-k)" d="M62 42c8.3.36 10.24-6.25 19-6 5.14.15 11.82 2.64 13 7 1.53 5.63-6.22 13.9-14 15-6.88 1-8.74-4.37-17-4-8.26.37-9.54 5.65-16 5-7.66-.77-13.6-9.22-12-15 1.28-4.63 9-6 12-6 7.26 0 8.16 3.7 15 4z"/><path fill="url(#prices-elastigirl-l)" d="M70 50c.18 2.93 4.38 5.36 8 5 3.85-.38 8-2 7-7-.78-3.92-4.33-4.67-7-4-4 1-8.19 2.88-8 6z"/><path fill="url(#prices-elastigirl-m)" d="M43 49c-1.1 2.6.76 5.76 3 7 3.8 2.09 9.66-.82 10-4 .29-2.7-3.36-5.83-7-6-1.85-.08-5 .54-6 3z"/><ellipse cx="51" cy="51.5" fill="url(#prices-elastigirl-n)" rx="4" ry="4.5"/><circle cx="77.5" cy="50.5" r="4.5" fill="url(#prices-elastigirl-o)"/><circle cx="77.25" cy="50.5" r="2.5" fill="url(#prices-elastigirl-o)"/><circle cx="51.5" cy="51.5" r="2.5" fill="url(#prices-elastigirl-o)"/><circle cx="48.5" cy="48.5" r="1.5" fill="url(#prices-elastigirl-o)"/><circle cx="74.5" cy="47.5" r="1.5" fill="url(#prices-elastigirl-o)"/><path fill="url(#prices-elastigirl-p)" d="M74.52 67a13 13 0 01-21 2.84 18 18 0 0020.67-2.63 3.13 3.13 0 00.33-.21z"/><path fill="url(#prices-elastigirl-q)" d="M74.18 67.24a18 18 0 01-20.67 2.63 25 25 0 0020.69-2.61l-.02-.02z"/><path fill="#000" d="M97.13 42.73c-1.78-5.22-3.75-10-7.58-13.78A33.35 33.35 0 0067 19c-8.44 2.77-18.88 7.85-24.33 12a41.54 41.54 0 00-3.46 5.32c2.11 3.26 29-.37 38.42-12.33 4.05 1.94 11.53 6.21 13.6 12a13.14 13.14 0 006.08 7.31c-.05-.19-.12-.38-.18-.57z" opacity=".12"/><path fill="#E3C1B6" d="M60.68 54.26l-1.38 9.8L62 61l.43-7z"/><path fill="#CC998C" d="M61.26 60.82l-1.8 2.4a.8.8 0 00.64 1.28h5.8a.8.8 0 00.64-1.28l-1.8-2.4a.81.81 0 00-.64-.32h-2.2a.81.81 0 00-.64.32z"/><path fill="#BFA399" d="M66 54l.73 10.06L64 60v-7z"/><path fill="#FFD9CC" d="M61.58 60.5l.92-7h2v7z"/><path fill="url(#prices-elastigirl-r)" d="M62 42c8.3.36 10.24-6.25 19-6 5.14.15 11.82 2.64 13 7 1.53 5.63-6.22 13.9-14 15-6.88 1-8.74-4.37-17-4-8.26.37-9.54 5.65-16 5-7.66-.77-13.6-9.22-12-15 1.28-4.63 9-6 12-6 7.26 0 8.16 3.7 15 4z"/><path fill="url(#prices-elastigirl-s)" d="M70 50c.18 2.93 4.38 5.36 8 5 3.85-.38 8-2 7-7-.78-3.92-4.33-4.67-7-4-4 1-8.19 2.88-8 6z"/><path fill="url(#prices-elastigirl-t)" d="M43 49c-1.1 2.6.76 5.76 3 7 3.8 2.09 9.66-.82 10-4 .29-2.7-3.36-5.83-7-6-1.85-.08-5 .54-6 3z"/><ellipse cx="51" cy="51.5" fill="url(#prices-elastigirl-u)" rx="4" ry="4.5"/><circle cx="77.5" cy="50.5" r="4.5" fill="url(#prices-elastigirl-v)"/><circle cx="77.25" cy="50.5" r="2.5" fill="#000"/><circle cx="51.5" cy="51.5" r="2.5" fill="#000"/><circle cx="48.5" cy="48.5" r="1.5" fill="#FFF"/><circle cx="74.5" cy="47.5" r="1.5" fill="#FFF"/><path fill="#8C7373" d="M74.52 67a13 13 0 01-21 2.84 18 18 0 0020.67-2.63 3.13 3.13 0 00.33-.21z"/><path fill="#5C5C5C" d="M74.18 67.24a18 18 0 01-20.67 2.63 25 25 0 0020.69-2.61l-.02-.02z"/><path fill="url(#prices-elastigirl-w)" d="M25 48c1.34-2.16 3.23-4 28-14 16.12-6.49 26.48-10.18 28-18a9.38 9.38 0 00.16-1.34A9 9 0 0083 19c3.56 4.37 9.11 1.52 14 5 6 4.28 1.87 11.61 8 19a14.58 14.58 0 007.31 4.79C112.4 39.92 110.9 26 100 18c-1.28-.93-9.78-7.14-18.2-5.2l-.3-.3C78.65 9.73 69.1.44 55.5.5c-18.9.08-35.94 18.16-39 38a46 46 0 003.9 26.38A33.19 33.19 0 0125 48z"/><path fill="#564343" d="M75 12c-.18-.55-12.13 2.37-24 7a149.41 149.41 0 00-19 9c12.74-4.17 23.23-8 31-11 7.31-2.8 12.12-4.65 12-5z"/><path fill="#D99900" d="M73 105c-5.92-.3-12.29 5.08-12 9 .36 4.79 10.52 8 19 7 4-.48 11.93-1 9.93-6-1.69-4.23-7.93-9.54-16.93-10z"/><path fill="#262633" d="M74.77 107.73c-3.9.32-10.18 2.8-10.21 5.5-.05 3.59 9.19 8.52 16 6.48 2.44-.73 6.1-3.33 6.13-5.83 0-2.9-4.85-6.74-9.54-7.13-.79-.07-1.6.92-2.38.98z"/><ellipse cx="73.46" cy="107.09" fill="#F2B200" rx="4.54" ry="3.01"/><ellipse cx="73.55" cy="107.25" fill="#FFF" rx="2.45" ry="1.5"/><path fill="#F2B200" d="M86.08 120.51l-7.16-10.41-6.42 2.65 4.25 9.17z"/><path fill="#997369" d="M100.38 55.88c-.79-.91.48-3.1 1.81-3.26 1.33-.16 2.89 2 2.69 3.94-.3 2.75-4.21 4.71-4.69 3.69-.56-1.19 2.11-2.06 2.12-3.19a.89.89 0 00-.67-1c-.48-.13-1.06.06-1.26-.18z"/></g></svg>