<svg xmlns="http://www.w3.org/2000/svg" width="75" height="107" viewBox="0 0 75 107"><defs><radialGradient id="prices-violet-a" cx="26.772%" cy="-13.426%" r="106.65%" fx="26.772%" fy="-13.426%" gradientTransform="matrix(.96831 0 0 1 .008 0)"><stop offset="0%" stop-color="#FFD9CC"/><stop offset="87%" stop-color="#CC998C"/><stop offset="100%" stop-color="#D1A296"/></radialGradient><radialGradient id="prices-violet-b" cx="217.896%" cy="-13.426%" r="840.505%" fx="217.896%" fy="-13.426%" gradientTransform="matrix(1 0 0 .12689 0 -.117)"><stop offset="0%" stop-color="#FFD9CC"/><stop offset="87%" stop-color="#CC998C"/><stop offset="100%" stop-color="#D1A296"/></radialGradient><radialGradient id="prices-violet-c" cx="-172.281%" cy="-39.824%" r="383.988%" fx="-172.281%" fy="-39.824%" gradientTransform="matrix(1 0 0 .34238 0 -.262)"><stop offset="0%" stop-color="#FFD9CC"/><stop offset="87%" stop-color="#CC998C"/><stop offset="100%" stop-color="#D1A296"/></radialGradient><radialGradient id="prices-violet-d" cx="22.842%" cy="-20.908%" r="457.194%" fx="22.842%" fy="-20.908%" gradientTransform="matrix(1 0 0 .24866 0 -.157)"><stop offset="0%" stop-color="#FFD9CC"/><stop offset="87%" stop-color="#CC998C"/><stop offset="100%" stop-color="#D1A296"/></radialGradient><radialGradient id="prices-violet-e" cx="20.605%" cy="-314.553%" r="389.789%" fx="20.605%" fy="-314.553%" gradientTransform="matrix(.91804 0 0 1 .017 0)"><stop offset="0%" stop-color="#FFD9CC"/><stop offset="87%" stop-color="#CC998C"/><stop offset="100%" stop-color="#D1A296"/></radialGradient><radialGradient id="prices-violet-f" cx="-10.3%" cy="-240.921%" r="355.232%" fx="-10.3%" fy="-240.921%" gradientTransform="matrix(.56266 0 0 1 -.045 0)"><stop offset="0%" stop-color="#FFD9CC"/><stop offset="87%" stop-color="#CC998C"/><stop offset="100%" stop-color="#D1A296"/></radialGradient><radialGradient id="prices-violet-g" cx="-41.531%" cy="-300.815%" r="376.872%" fx="-41.531%" fy="-300.815%" gradientTransform="matrix(.6507 0 0 1 -.145 0)"><stop offset="0%" stop-color="#FFD9CC"/><stop offset="87%" stop-color="#CC998C"/><stop offset="100%" stop-color="#D1A296"/></radialGradient><radialGradient id="prices-violet-h" cx="16.349%" cy="-97.587%" r="327.481%" fx="16.349%" fy="-97.587%" gradientTransform="matrix(.68784 0 0 1 .051 0)"><stop offset="0%" stop-color="#FFD9CC"/><stop offset="87%" stop-color="#CC998C"/><stop offset="100%" stop-color="#D1A296"/></radialGradient><radialGradient id="prices-violet-i" cx="16.312%" cy="-97.746%" r="327.366%" fx="16.312%" fy="-97.746%" gradientTransform="matrix(.68839 0 0 1 .05 0)"><stop offset="0%" stop-color="#FFD9CC"/><stop offset="87%" stop-color="#CC998C"/><stop offset="100%" stop-color="#D1A296"/></radialGradient><radialGradient id="prices-violet-j" cx="-56.658%" cy="-446.82%" r="776.627%" fx="-56.658%" fy="-446.82%" gradientTransform="matrix(.54146 0 0 1 -.26 0)"><stop offset="0%" stop-color="#FFD9CC"/><stop offset="87%" stop-color="#CC998C"/><stop offset="100%" stop-color="#D1A296"/></radialGradient><radialGradient id="prices-violet-k" cx="-270.425%" cy="-300.815%" r="502.868%" fx="-270.425%" fy="-300.815%" gradientTransform="matrix(1 0 0 .74944 0 -.754)"><stop offset="0%" stop-color="#FFD9CC"/><stop offset="87%" stop-color="#CC998C"/><stop offset="100%" stop-color="#D1A296"/></radialGradient><radialGradient id="prices-violet-l" cx="-9.57%" cy="-301.039%" r="377.151%" fx="-9.57%" fy="-301.039%" gradientTransform="matrix(.5039 0 0 1 -.047 0)"><stop offset="0%" stop-color="#FFD9CC"/><stop offset="87%" stop-color="#CC998C"/><stop offset="100%" stop-color="#D1A296"/></radialGradient><radialGradient id="prices-violet-m" cx="-30.817%" cy="-448.34%" r="641.919%" fx="-30.817%" fy="-448.34%" gradientTransform="matrix(.26437 .79937 -.35172 .60084 -1.804 -1.543)"><stop offset="0%" stop-color="#FFD9CC"/><stop offset="87%" stop-color="#CC998C"/><stop offset="100%" stop-color="#D1A296"/></radialGradient><radialGradient id="prices-violet-n" cx="-270.875%" cy="-29.737%" r="404.896%" fx="-270.875%" fy="-29.737%" gradientTransform="matrix(1 0 0 .82812 0 -.051)"><stop offset="0%" stop-color="#FFD9CC"/><stop offset="87%" stop-color="#CC998C"/><stop offset="100%" stop-color="#D1A296"/></radialGradient><radialGradient id="prices-violet-o" cx="-52.49%" cy="-552.91%" r="784.568%" fx="-52.49%" fy="-552.91%" gradientTransform="matrix(.26414 .79937 -.35142 .60084 -2.33 -1.787)"><stop offset="0%" stop-color="#FFD9CC"/><stop offset="87%" stop-color="#CC998C"/><stop offset="100%" stop-color="#D1A296"/></radialGradient><radialGradient id="prices-violet-p" cx="30.589%" cy="52.197%" r="93.903%" fx="30.589%" fy="52.197%" gradientTransform="matrix(.7598 0 0 1 .073 0)"><stop offset="0%" stop-color="#FFD9CC"/><stop offset="87%" stop-color="#CC998C"/><stop offset="100%" stop-color="#D1A296"/></radialGradient><radialGradient id="prices-violet-q" cx="30.589%" cy="52.244%" r="93.887%" fx="30.589%" fy="52.244%" gradientTransform="matrix(.75992 0 0 1 .073 0)"><stop offset="0%" stop-color="#FFD9CC"/><stop offset="87%" stop-color="#CC998C"/><stop offset="100%" stop-color="#D1A296"/></radialGradient><radialGradient id="prices-violet-r" cx="36.959%" cy="-17.262%" r="230.212%" fx="36.959%" fy="-17.262%" gradientTransform="matrix(.5026 0 0 1 .184 0)"><stop offset="0%" stop-color="#FFD9CC"/><stop offset="87%" stop-color="#CC998C"/><stop offset="100%" stop-color="#D1A296"/></radialGradient><radialGradient id="prices-violet-s" cx="13.087%" cy="79.281%" r="137.704%" fx="13.087%" fy="79.281%" gradientTransform="matrix(.68093 0 0 1 .042 0)"><stop offset="0%" stop-color="#FFD9CC"/><stop offset="87%" stop-color="#CC998C"/><stop offset="100%" stop-color="#D1A296"/></radialGradient><radialGradient id="prices-violet-t" cx="13.043%" cy="79.338%" r="137.664%" fx="13.043%" fy="79.338%" gradientTransform="matrix(.68147 0 0 1 .042 0)"><stop offset="0%" stop-color="#FFD9CC"/><stop offset="87%" stop-color="#CC998C"/><stop offset="100%" stop-color="#D1A296"/></radialGradient><radialGradient id="prices-violet-u" cx="-131.719%" cy="81.761%" r="259.659%" fx="-131.719%" fy="81.761%" gradientTransform="matrix(1 0 0 .93939 0 .05)"><stop offset="0%" stop-color="#FFD9CC"/><stop offset="87%" stop-color="#CC998C"/><stop offset="100%" stop-color="#D1A296"/></radialGradient><radialGradient id="prices-violet-v" cx="16.211%" cy="109.94%" r="222.156%" fx="16.211%" fy="109.94%" gradientTransform="matrix(.86268 0 0 1 .022 0)"><stop offset="0%" stop-color="#FFD9CC"/><stop offset="87%" stop-color="#CC998C"/><stop offset="100%" stop-color="#D1A296"/></radialGradient><radialGradient id="prices-violet-w" cx="4.85%" cy="131.483%" r="377.819%" fx="4.85%" fy="131.483%" gradientTransform="matrix(.74282 0 0 1 .012 0)"><stop offset="0%" stop-color="#FFD9CC"/><stop offset="87%" stop-color="#CC998C"/><stop offset="100%" stop-color="#D1A296"/></radialGradient><radialGradient id="prices-violet-x" cx="-22.497%" cy="140.794%" r="482.019%" fx="-22.497%" fy="140.794%" gradientTransform="matrix(.95927 0 0 1 -.01 0)"><stop offset="0%" stop-color="#FFD9CC"/><stop offset="87%" stop-color="#CC998C"/><stop offset="100%" stop-color="#D1A296"/></radialGradient><radialGradient id="prices-violet-y" cx="-81.333%" cy="198.833%" r="847.333%" fx="-81.333%" fy="198.833%"><stop offset="0%" stop-color="#FFD9CC"/><stop offset="87%" stop-color="#CC998C"/><stop offset="100%" stop-color="#D1A296"/></radialGradient><radialGradient id="prices-violet-z" cx="-97%" cy="373.25%" r="1271%" fx="-97%" fy="373.25%"><stop offset="0%" stop-color="#FFD9CC"/><stop offset="87%" stop-color="#CC998C"/><stop offset="100%" stop-color="#D1A296"/></radialGradient><radialGradient id="prices-violet-A" cx="-187.344%" cy="69.999%" r="365.56%" fx="-187.344%" fy="69.999%" gradientTransform="matrix(.92668 0 0 1 -.137 0)"><stop offset="0%" stop-color="#FFD9CC"/><stop offset="87%" stop-color="#CC998C"/><stop offset="100%" stop-color="#D1A296"/></radialGradient><radialGradient id="prices-violet-B" cx="-300.919%" cy="73.426%" r="544.25%" fx="-300.919%" fy="73.426%" gradientTransform="matrix(1 0 0 .86493 0 .1)"><stop offset="0%" stop-color="#FFD9CC"/><stop offset="87%" stop-color="#CC998C"/><stop offset="100%" stop-color="#D1A296"/></radialGradient><radialGradient id="prices-violet-C" cx="-481.333%" cy="83.833%" r="847.333%" fx="-481.333%" fy="83.833%"><stop offset="0%" stop-color="#FFD9CC"/><stop offset="87%" stop-color="#CC998C"/><stop offset="100%" stop-color="#D1A296"/></radialGradient><radialGradient id="prices-violet-D" cx="-759.299%" cy="202.601%" r="1370.35%" fx="-759.299%" fy="202.601%" gradientTransform="matrix(1 0 0 .93605 0 .13)"><stop offset="0%" stop-color="#FFD9CC"/><stop offset="87%" stop-color="#CC998C"/><stop offset="100%" stop-color="#D1A296"/></radialGradient><radialGradient id="prices-violet-E" cx="19.346%" cy="88.991%" r="150.458%" fx="19.346%" fy="88.991%" gradientTransform="matrix(.55089 0 0 1 .087 0)"><stop offset="0%" stop-color="#FFD9CC"/><stop offset="87%" stop-color="#CC998C"/><stop offset="100%" stop-color="#D1A296"/></radialGradient><radialGradient id="prices-violet-F" cx="395.911%" cy="113.483%" r="1034.672%" fx="395.911%" fy="113.483%" gradientTransform="matrix(1 0 0 .5521 0 .508)"><stop offset="0%" stop-color="#FFD9CC"/><stop offset="87%" stop-color="#CC998C"/><stop offset="100%" stop-color="#D1A296"/></radialGradient><radialGradient id="prices-violet-G" cx="441.043%" cy="172.355%" r="1152.834%" fx="441.043%" fy="172.355%" gradientTransform="matrix(1 0 0 .75256 0 .426)"><stop offset="0%" stop-color="#FFD9CC"/><stop offset="87%" stop-color="#CC998C"/><stop offset="100%" stop-color="#D1A296"/></radialGradient><radialGradient id="prices-violet-H" cx="24.808%" cy="93.08%" r="89.982%" fx="24.808%" fy="93.08%" gradientTransform="matrix(.80416 0 0 1 .049 0)"><stop offset="0%" stop-color="#FFD9CC"/><stop offset="87%" stop-color="#CC998C"/><stop offset="100%" stop-color="#D1A296"/></radialGradient><radialGradient id="prices-violet-I" cx="10.469%" cy="87.179%" r="176.161%" fx="10.469%" fy="87.179%" gradientTransform="matrix(.53097 0 0 1 .05 0)"><stop offset="0%" stop-color="#FFD9CC"/><stop offset="87%" stop-color="#CC998C"/><stop offset="100%" stop-color="#D1A296"/></radialGradient><radialGradient id="prices-violet-J" cx="11.413%" cy="359.354%" r="407.591%" fx="11.413%" fy="359.354%" gradientTransform="matrix(.33182 0 0 1 .076 0)"><stop offset="0%" stop-color="#FFD9CC"/><stop offset="87%" stop-color="#CC998C"/><stop offset="100%" stop-color="#D1A296"/></radialGradient><radialGradient id="prices-violet-K" cx="28.994%" cy="171.535%" r="269.995%" fx="28.994%" fy="171.535%" gradientTransform="matrix(.31305 0 0 1 .2 0)"><stop offset="0%" stop-color="#FFD9CC"/><stop offset="87%" stop-color="#CC998C"/><stop offset="100%" stop-color="#D1A296"/></radialGradient><radialGradient id="prices-violet-L" cx="-196.643%" cy="5.963%" r="877.221%" fx="-196.643%" fy="5.963%" gradientTransform="matrix(.67039 0 0 1 -.648 0)"><stop offset="0%" stop-color="#FFD9CC"/><stop offset="87%" stop-color="#CC998C"/><stop offset="100%" stop-color="#D1A296"/></radialGradient><radialGradient id="prices-violet-M" cx="-196.987%" cy="-18.272%" r="1103.292%" fx="-196.987%" fy="-18.272%" gradientTransform="matrix(.53395 0 0 1 -.918 0)"><stop offset="0%" stop-color="#FFD9CC"/><stop offset="87%" stop-color="#CC998C"/><stop offset="100%" stop-color="#D1A296"/></radialGradient><radialGradient id="prices-violet-N" cx="-42.976%" cy="-62.581%" r="576.382%" fx="-42.976%" fy="-62.581%" gradientTransform="matrix(.43323 0 0 1 -.244 0)"><stop offset="0%" stop-color="#FFD9CC"/><stop offset="87%" stop-color="#CC998C"/><stop offset="100%" stop-color="#D1A296"/></radialGradient><radialGradient id="prices-violet-O" cx="-42.829%" cy="-62.616%" r="576.704%" fx="-42.829%" fy="-62.616%" gradientTransform="matrix(.43299 0 0 1 -.243 0)"><stop offset="0%" stop-color="#FFD9CC"/><stop offset="87%" stop-color="#CC998C"/><stop offset="100%" stop-color="#D1A296"/></radialGradient><radialGradient id="prices-violet-P" cx="-91.136%" cy="-41.984%" r="836.441%" fx="-91.136%" fy="-41.984%" gradientTransform="matrix(.9862 0 0 1 -.013 0)"><stop offset="0%" stop-color="#FFD9CC"/><stop offset="87%" stop-color="#CC998C"/><stop offset="100%" stop-color="#D1A296"/></radialGradient><radialGradient id="prices-violet-Q" cx="-860.122%" cy="-221.383%" r="1594.189%" fx="-860.122%" fy="-221.383%" gradientTransform="matrix(1 0 0 .6756 0 -.718)"><stop offset="0%" stop-color="#FFD9CC"/><stop offset="87%" stop-color="#CC998C"/><stop offset="100%" stop-color="#D1A296"/></radialGradient><radialGradient id="prices-violet-R" cx="-44.069%" cy="-73.645%" r="669.788%" fx="-44.069%" fy="-73.645%" gradientTransform="matrix(.3767 0 0 1 -.275 0)"><stop offset="0%" stop-color="#FFD9CC"/><stop offset="87%" stop-color="#CC998C"/><stop offset="100%" stop-color="#D1A296"/></radialGradient><radialGradient id="prices-violet-S" cx="-43.722%" cy="-73.259%" r="666.28%" fx="-43.722%" fy="-73.259%" gradientTransform="matrix(.37868 0 0 1 -.272 0)"><stop offset="0%" stop-color="#FFD9CC"/><stop offset="87%" stop-color="#CC998C"/><stop offset="100%" stop-color="#D1A296"/></radialGradient><radialGradient id="prices-violet-T" cx="-74.311%" cy="-437.323%" r="584.169%" fx="-74.311%" fy="-437.323%" gradientTransform="matrix(.56638 0 0 1 -.322 0)"><stop offset="0%" stop-color="#FFD9CC"/><stop offset="87%" stop-color="#CC998C"/><stop offset="100%" stop-color="#D1A296"/></radialGradient><radialGradient id="prices-violet-U" cx="-126.559%" cy="-585.545%" r="766.218%" fx="-126.559%" fy="-585.545%" gradientTransform="matrix(.60844 0 0 1 -.496 0)"><stop offset="0%" stop-color="#FFD9CC"/><stop offset="87%" stop-color="#CC998C"/><stop offset="100%" stop-color="#D1A296"/></radialGradient><radialGradient id="prices-violet-V" cx="-253.991%" cy="-713.565%" r="884.174%" fx="-253.991%" fy="-713.565%" gradientTransform="matrix(.83454 0 0 1 -.42 0)"><stop offset="0%" stop-color="#FFD9CC"/><stop offset="87%" stop-color="#CC998C"/><stop offset="100%" stop-color="#D1A296"/></radialGradient><radialGradient id="prices-violet-W" cx="-263.62%" cy="-1107.738%" r="1513.095%" fx="-263.62%" fy="-1107.738%" gradientTransform="matrix(.60215 0 0 1 -1.049 0)"><stop offset="0%" stop-color="#FFD9CC"/><stop offset="87%" stop-color="#CC998C"/><stop offset="100%" stop-color="#D1A296"/></radialGradient><radialGradient id="prices-violet-X" cx="-427.446%" cy="-1837.379%" r="2467.961%" fx="-427.446%" fy="-1837.379%" gradientTransform="matrix(.55978 0 0 1 -1.882 0)"><stop offset="0%" stop-color="#FFD9CC"/><stop offset="87%" stop-color="#CC998C"/><stop offset="100%" stop-color="#D1A296"/></radialGradient><radialGradient id="prices-violet-Z" cx="38.272%" cy="32.147%" r="76.363%" fx="38.272%" fy="32.147%" gradientTransform="matrix(.91804 0 0 1 .031 0)"><stop offset="0%" stop-color="#FF2626"/><stop offset="100%" stop-color="#D80000"/></radialGradient><radialGradient id="prices-violet-aa" cx="40.408%" cy="8.309%" r="187.123%" fx="40.408%" fy="8.309%" gradientTransform="matrix(.68784 0 0 1 .126 0)"><stop offset="0%" stop-color="#CC998C"/><stop offset="100%" stop-color="#FFD9CC"/></radialGradient><radialGradient id="prices-violet-ab" cx="30.912%" cy="-553.791%" r="561.49%" fx="30.912%" fy="-553.791%" gradientTransform="matrix(.26437 .79937 -.35172 .60084 -1.72 -2.458)"><stop offset="0%" stop-color="#FFD9CC"/><stop offset="87%" stop-color="#CC998C"/><stop offset="100%" stop-color="#D1A296"/></radialGradient><radialGradient id="prices-violet-ac" cx="-270.875%" cy="-121.411%" r="354.165%" fx="-270.875%" fy="-121.411%" gradientTransform="matrix(1 0 0 .82812 0 -.209)"><stop offset="0%" stop-color="#FFD9CC"/><stop offset="87%" stop-color="#CC998C"/><stop offset="100%" stop-color="#D1A296"/></radialGradient><radialGradient id="prices-violet-ad" cx="22.891%" cy="-681.793%" r="686.265%" fx="22.891%" fy="-681.793%" gradientTransform="matrix(.26414 .79937 -.35142 .60084 -2.228 -2.904)"><stop offset="0%" stop-color="#FFD9CC"/><stop offset="87%" stop-color="#CC998C"/><stop offset="100%" stop-color="#D1A296"/></radialGradient><radialGradient id="prices-violet-ae" cx="30.589%" cy="26.523%" r="82.137%" fx="30.589%" fy="26.523%" gradientTransform="matrix(.7598 0 0 1 .073 0)"><stop offset="0%" stop-color="#FFD9CC"/><stop offset="87%" stop-color="#CC998C"/><stop offset="100%" stop-color="#D1A296"/></radialGradient><radialGradient id="prices-violet-af" cx="30.589%" cy="26.574%" r="82.124%" fx="30.589%" fy="26.574%" gradientTransform="matrix(.75992 0 0 1 .073 0)"><stop offset="0%" stop-color="#FFD9CC"/><stop offset="87%" stop-color="#CC998C"/><stop offset="100%" stop-color="#D1A296"/></radialGradient><radialGradient id="prices-violet-ag" cx="36.959%" cy="-80.204%" r="201.368%" fx="36.959%" fy="-80.204%" gradientTransform="matrix(.5026 0 0 1 .184 0)"><stop offset="0%" stop-color="#FFD9CC"/><stop offset="87%" stop-color="#CC998C"/><stop offset="100%" stop-color="#D1A296"/></radialGradient><radialGradient id="prices-violet-ah" cx="13.087%" cy="41.632%" r="120.45%" fx="13.087%" fy="41.632%" gradientTransform="matrix(.68093 0 0 1 .042 0)"><stop offset="0%" stop-color="#FFD9CC"/><stop offset="87%" stop-color="#CC998C"/><stop offset="100%" stop-color="#D1A296"/></radialGradient><radialGradient id="prices-violet-ai" cx="13.043%" cy="41.7%" r="120.415%" fx="13.043%" fy="41.7%" gradientTransform="matrix(.68147 0 0 1 .042 0)"><stop offset="0%" stop-color="#FFD9CC"/><stop offset="87%" stop-color="#CC998C"/><stop offset="100%" stop-color="#D1A296"/></radialGradient><radialGradient id="prices-violet-aj" cx="-131.719%" cy="15.072%" r="227.125%" fx="-131.719%" fy="15.072%" gradientTransform="matrix(1 0 0 .93939 0 .01)"><stop offset="0%" stop-color="#FFD9CC"/><stop offset="87%" stop-color="#CC998C"/><stop offset="100%" stop-color="#D1A296"/></radialGradient><radialGradient id="prices-violet-ak" cx="16.211%" cy="49.201%" r="194.321%" fx="16.211%" fy="49.201%" gradientTransform="matrix(.86268 0 0 1 .022 0)"><stop offset="0%" stop-color="#FFD9CC"/><stop offset="87%" stop-color="#CC998C"/><stop offset="100%" stop-color="#D1A296"/></radialGradient><radialGradient id="prices-violet-al" cx="4.85%" cy="28.184%" r="330.48%" fx="4.85%" fy="28.184%" gradientTransform="matrix(.74282 0 0 1 .012 0)"><stop offset="0%" stop-color="#FFD9CC"/><stop offset="87%" stop-color="#CC998C"/><stop offset="100%" stop-color="#D1A296"/></radialGradient><radialGradient id="prices-violet-am" cx="-22.497%" cy="9.007%" r="421.625%" fx="-22.497%" fy="9.007%" gradientTransform="matrix(.95927 0 0 1 -.01 0)"><stop offset="0%" stop-color="#FFD9CC"/><stop offset="87%" stop-color="#CC998C"/><stop offset="100%" stop-color="#D1A296"/></radialGradient><radialGradient id="prices-violet-an" cx="-81.333%" cy="-32.833%" r="741.167%" fx="-81.333%" fy="-32.833%"><stop offset="0%" stop-color="#FFD9CC"/><stop offset="87%" stop-color="#CC998C"/><stop offset="100%" stop-color="#D1A296"/></radialGradient><radialGradient id="prices-violet-ao" cx="-97%" cy="25.75%" r="1111.75%" fx="-97%" fy="25.75%"><stop offset="0%" stop-color="#FFD9CC"/><stop offset="87%" stop-color="#CC998C"/><stop offset="100%" stop-color="#D1A296"/></radialGradient><radialGradient id="prices-violet-ap" cx="-187.344%" cy="-29.947%" r="319.757%" fx="-187.344%" fy="-29.947%" gradientTransform="matrix(.92668 0 0 1 -.137 0)"><stop offset="0%" stop-color="#FFD9CC"/><stop offset="87%" stop-color="#CC998C"/><stop offset="100%" stop-color="#D1A296"/></radialGradient><radialGradient id="prices-violet-aq" cx="-300.919%" cy="-55.278%" r="476.058%" fx="-300.919%" fy="-55.278%" gradientTransform="matrix(1 0 0 .86493 0 -.075)"><stop offset="0%" stop-color="#FFD9CC"/><stop offset="87%" stop-color="#CC998C"/><stop offset="100%" stop-color="#D1A296"/></radialGradient><radialGradient id="prices-violet-ar" cx="-481.333%" cy="-147.833%" r="741.167%" fx="-481.333%" fy="-147.833%"><stop offset="0%" stop-color="#FFD9CC"/><stop offset="87%" stop-color="#CC998C"/><stop offset="100%" stop-color="#D1A296"/></radialGradient><radialGradient id="prices-violet-as" cx="-759.299%" cy="-148.103%" r="1198.652%" fx="-759.299%" fy="-148.103%" gradientTransform="matrix(1 0 0 .93605 0 -.095)"><stop offset="0%" stop-color="#FFD9CC"/><stop offset="87%" stop-color="#CC998C"/><stop offset="100%" stop-color="#D1A296"/></radialGradient><radialGradient id="prices-violet-at" cx="19.346%" cy="47.855%" r="131.607%" fx="19.346%" fy="47.855%" gradientTransform="matrix(.55089 0 0 1 .087 0)"><stop offset="0%" stop-color="#FFD9CC"/><stop offset="87%" stop-color="#CC998C"/><stop offset="100%" stop-color="#D1A296"/></radialGradient><radialGradient id="prices-violet-au" cx="395.911%" cy="-42.697%" r="905.033%" fx="395.911%" fy="-42.697%" gradientTransform="matrix(1 0 0 .5521 0 -.191)"><stop offset="0%" stop-color="#FFD9CC"/><stop offset="87%" stop-color="#CC998C"/><stop offset="100%" stop-color="#D1A296"/></radialGradient><radialGradient id="prices-violet-av" cx="441.043%" cy="-64.846%" r="1008.39%" fx="441.043%" fy="-64.846%" gradientTransform="matrix(1 0 0 .75256 0 -.16)"><stop offset="0%" stop-color="#FFD9CC"/><stop offset="87%" stop-color="#CC998C"/><stop offset="100%" stop-color="#D1A296"/></radialGradient><radialGradient id="prices-violet-aw" cx="24.808%" cy="68.478%" r="78.708%" fx="24.808%" fy="68.478%" gradientTransform="matrix(.80416 0 0 1 .049 0)"><stop offset="0%" stop-color="#FFD9CC"/><stop offset="87%" stop-color="#CC998C"/><stop offset="100%" stop-color="#D1A296"/></radialGradient><radialGradient id="prices-violet-ax" cx="10.469%" cy="39.016%" r="154.089%" fx="10.469%" fy="39.016%" gradientTransform="matrix(.53097 0 0 1 .05 0)"><stop offset="0%" stop-color="#FFD9CC"/><stop offset="87%" stop-color="#CC998C"/><stop offset="100%" stop-color="#D1A296"/></radialGradient><radialGradient id="prices-violet-ay" cx="11.413%" cy="247.916%" r="356.522%" fx="11.413%" fy="247.916%" gradientTransform="matrix(.33182 0 0 1 .076 0)"><stop offset="0%" stop-color="#FFD9CC"/><stop offset="87%" stop-color="#CC998C"/><stop offset="100%" stop-color="#D1A296"/></radialGradient><radialGradient id="prices-violet-az" cx="28.994%" cy="97.716%" r="236.166%" fx="28.994%" fy="97.716%" gradientTransform="matrix(.31305 0 0 1 .2 0)"><stop offset="0%" stop-color="#FFD9CC"/><stop offset="87%" stop-color="#CC998C"/><stop offset="100%" stop-color="#D1A296"/></radialGradient><radialGradient id="prices-violet-aA" cx="-196.643%" cy="-233.875%" r="767.309%" fx="-196.643%" fy="-233.875%" gradientTransform="matrix(.67039 0 0 1 -.648 0)"><stop offset="0%" stop-color="#FFD9CC"/><stop offset="87%" stop-color="#CC998C"/><stop offset="100%" stop-color="#D1A296"/></radialGradient><radialGradient id="prices-violet-aB" cx="-196.987%" cy="-319.919%" r="965.055%" fx="-196.987%" fy="-319.919%" gradientTransform="matrix(.53395 0 0 1 -.918 0)"><stop offset="0%" stop-color="#FFD9CC"/><stop offset="87%" stop-color="#CC998C"/><stop offset="100%" stop-color="#D1A296"/></radialGradient><radialGradient id="prices-violet-aC" cx="-42.976%" cy="-220.168%" r="504.165%" fx="-42.976%" fy="-220.168%" gradientTransform="matrix(.43323 0 0 1 -.244 0)"><stop offset="0%" stop-color="#FFD9CC"/><stop offset="87%" stop-color="#CC998C"/><stop offset="100%" stop-color="#D1A296"/></radialGradient><radialGradient id="prices-violet-aD" cx="-42.829%" cy="-220.291%" r="504.446%" fx="-42.829%" fy="-220.291%" gradientTransform="matrix(.43299 0 0 1 -.243 0)"><stop offset="0%" stop-color="#FFD9CC"/><stop offset="87%" stop-color="#CC998C"/><stop offset="100%" stop-color="#D1A296"/></radialGradient><radialGradient id="prices-violet-aE" cx="-91.136%" cy="-270.673%" r="731.639%" fx="-91.136%" fy="-270.673%" gradientTransform="matrix(.9862 0 0 1 -.013 0)"><stop offset="0%" stop-color="#FFD9CC"/><stop offset="87%" stop-color="#CC998C"/><stop offset="100%" stop-color="#D1A296"/></radialGradient><radialGradient id="prices-violet-aF" cx="-860.122%" cy="-515.85%" r="1394.445%" fx="-860.122%" fy="-515.85%" gradientTransform="matrix(1 0 0 .6756 0 -1.673)"><stop offset="0%" stop-color="#FFD9CC"/><stop offset="87%" stop-color="#CC998C"/><stop offset="100%" stop-color="#D1A296"/></radialGradient><radialGradient id="prices-violet-aG" cx="-44.069%" cy="-256.77%" r="585.867%" fx="-44.069%" fy="-256.77%" gradientTransform="matrix(.3767 0 0 1 -.275 0)"><stop offset="0%" stop-color="#FFD9CC"/><stop offset="87%" stop-color="#CC998C"/><stop offset="100%" stop-color="#D1A296"/></radialGradient><radialGradient id="prices-violet-aH" cx="-43.722%" cy="-255.425%" r="582.798%" fx="-43.722%" fy="-255.425%" gradientTransform="matrix(.37868 0 0 1 -.272 0)"><stop offset="0%" stop-color="#FFD9CC"/><stop offset="87%" stop-color="#CC998C"/><stop offset="100%" stop-color="#D1A296"/></radialGradient><radialGradient id="prices-violet-aJ" cx="61.085%" cy="37.033%" r="99.979%" fx="61.085%" fy="37.033%" gradientTransform="matrix(.7598 0 0 1 .147 0)"><stop offset="0%" stop-color="#FFD9CC"/><stop offset="87%" stop-color="#CC998C"/><stop offset="100%" stop-color="#D1A296"/></radialGradient><radialGradient id="prices-violet-aK" cx="50.048%" cy="50.001%" r="73.944%" fx="50.048%" fy="50.001%" gradientTransform="matrix(.68093 0 0 1 .16 0)"><stop offset="0%" stop-color="#474752"/><stop offset="35%" stop-color="#454550"/><stop offset="54%" stop-color="#3E3E48"/><stop offset="70%" stop-color="#32323A"/><stop offset="83%" stop-color="#212126"/><stop offset="95%" stop-color="#0C0C0E"/><stop offset="100%"/></radialGradient><radialGradient id="prices-violet-aN" cx="33.445%" cy="24.617%" r="109.615%" fx="33.445%" fy="24.617%" gradientTransform="matrix(.74282 0 0 1 .086 0)"><stop offset="0%" stop-color="#FFF"/><stop offset="100%" stop-color="#8C7373"/></radialGradient><radialGradient id="prices-violet-aO" cx="32.436%" cy="6.352%" r="98.319%" fx="32.436%" fy="6.352%" gradientTransform="matrix(.95927 0 0 1 .013 0)"><stop offset="0%"/><stop offset="15%" stop-color="#171B28"/><stop offset="34%" stop-color="#2F3650"/><stop offset="52%" stop-color="#414B70"/><stop offset="69%" stop-color="#4E5A87"/><stop offset="85%" stop-color="#566394"/><stop offset="100%" stop-color="#596699"/></radialGradient><radialGradient id="prices-violet-aP" cx="35.406%" cy="20.745%" r="95.776%" fx="35.406%" fy="20.745%" gradientTransform="matrix(.92668 0 0 1 .026 0)"><stop offset="0%" stop-color="#FFF"/><stop offset="100%" stop-color="#8C7373"/></radialGradient><radialGradient id="prices-violet-aQ" cx="24.09%" cy="4.907%" r="121.396%" fx="24.09%" fy="4.907%" gradientTransform="matrix(1 0 0 .86493 0 .007)"><stop offset="0%"/><stop offset="15%" stop-color="#171B28"/><stop offset="34%" stop-color="#2F3650"/><stop offset="52%" stop-color="#414B70"/><stop offset="69%" stop-color="#4E5A87"/><stop offset="85%" stop-color="#566394"/><stop offset="100%" stop-color="#596699"/></radialGradient><radialGradient id="prices-violet-aR" cx="46.783%" cy="28.991%" r="104.602%" fx="46.783%" fy="28.991%" gradientTransform="matrix(.80416 0 0 1 .092 0)"><stop offset="0%" stop-color="#666673"/><stop offset="100%"/></radialGradient><radialGradient id="prices-violet-aS" cx="8.092%" cy="-2.462%" r="50.405%" fx="8.092%" fy="-2.462%" gradientTransform="scale(-.9862 -1) rotate(46.614 -.058 -.19)"><stop offset="0%" stop-color="#9C756B"/><stop offset="100%" stop-color="#CC998C" stop-opacity="0"/></radialGradient><radialGradient id="prices-violet-aT" cx="124.738%" cy="-67.827%" r="61.458%" fx="124.738%" fy="-67.827%" gradientTransform="matrix(.9943 .07197 -.10653 .67175 -.065 -.312)"><stop offset="0%" stop-color="#9C756B"/><stop offset="100%" stop-color="#CC998C" stop-opacity="0"/></radialGradient><linearGradient id="prices-violet-Y" x1="0%" x2="98.944%" y1="49.99%" y2="64.863%"><stop offset="0%"/><stop offset="44%" stop-color="#62626F"/><stop offset="100%"/></linearGradient><linearGradient id="prices-violet-aI" x1="100.381%" x2="37.407%" y1="53.3%" y2="49.191%"><stop offset="0%" stop-color="#BF8066"/><stop offset="100%" stop-color="#666673" stop-opacity="0"/></linearGradient><linearGradient id="prices-violet-aL" x1="50.001%" x2="50.001%" y1="1.638%" y2="95.579%"><stop offset="0%"/><stop offset="100%" stop-opacity="0"/></linearGradient><linearGradient id="prices-violet-aM" x1="47.913%" x2="52.248%" y1="1.79%" y2="98.229%"><stop offset="0%"/><stop offset="100%" stop-opacity="0"/></linearGradient></defs><g fill="none" fill-rule="evenodd"><path fill="url(#prices-violet-a)" d="M8.94 107h36.7l12.53-37.17L9 59.33c1.85 22.11 2.75 22.81-.06 47.67z"/><path fill="url(#prices-violet-b)" d="M13.56 107H8.94c2.81-24.86 1.91-25.56.06-47.67l3.9.83c1.37 7.42 3.56 24.31.66 46.84z"/><path fill="url(#prices-violet-b)" d="M13.56 107H8.94c2.81-24.86 1.91-25.56.06-47.67l3.9.83c1.37 7.42 3.56 24.31.66 46.84z"/><path fill="url(#prices-violet-c)" d="M58.17 69.83L45.64 107h-.71c5.25-22.46 6.18-33.72 6.22-38.67l7.02 1.5z"/><path fill="url(#prices-violet-c)" d="M58.17 69.83L45.64 107h-.71c5.25-22.46 6.18-33.72 6.22-38.67l7.02 1.5z"/><path fill="url(#prices-violet-d)" d="M30.7 63.96L24.14 107h-4.56l3.25-44.72z"/><path fill="url(#prices-violet-d)" d="M30.7 63.96L24.14 107h-4.56l3.25-44.72z"/><path fill="url(#prices-violet-e)" d="M33.4 107H21.31c-1.09-1.65-2.41-4.07-2.06-5.83.35-1.76 1.8-3.49 3.21-4.95.82-.84 1.63-1.59 2.22-2.21a5.69 5.69 0 014.67 1.49c.44.451.78.99 1 1.58a6.58 6.58 0 01.37 1.75c.14 1.91-.22 3.94 1 5.79.53.75 1.1 1.57 1.68 2.38z"/><path fill="url(#prices-violet-f)" d="M46 101c-2.89 1.13-8.79.67-11.59.37a5.68 5.68 0 01-3.63-2.54 6.58 6.58 0 00-.37-1.75 4.53 4.53 0 00-1-1.58 5.69 5.69 0 00-4.67-1.49l.24-.26c1.5-1.67 2.66-2 3.66-4a8.14 8.14 0 00.71-2.34 16.68 16.68 0 0011.77.46A3 3 0 0042 89c2.73 1.82 7.22 4.31 7.46 4.51 1.92 4.09-.29 6.24-3.46 7.49z"/><path fill="url(#prices-violet-g)" d="M51.38 107h-18c-.58-.81-1.15-1.63-1.65-2.38-1.23-1.85-.87-3.88-1-5.79a5.68 5.68 0 003.63 2.54c2.8.3 8.7.76 11.59-.37 3.21-1.25 5.42-3.4 3.5-7.49a17.88 17.88 0 011.92 4.61c.33 2.05-.37 5.88.01 8.88z"/><path fill="url(#prices-violet-h)" d="M39.81 82.75v.4c-3.64.851-7.457.5-10.88-1a9.47 9.47 0 00-.5-.84c-2.3-3.57-10-13.23-10-13.23L41 72a91 91 0 00-1.21 10.08c0 .25 0 .48.02.67z"/><path fill="url(#prices-violet-i)" fill-rule="nonzero" d="M20.85 69.54l19 3.28a79.18 79.18 0 00-1.06 9.26v.29a13.94 13.94 0 01-2.75.27 18 18 0 01-6.37-1.26c-.09-.16-.21-.35-.36-.58-1.67-2.59-6.05-8.21-8.46-11.26zm-2.41-1.43s7.73 9.66 10 13.23c.181.271.348.552.5.84a19.18 19.18 0 007.07 1.46 15.09 15.09 0 003.81-.49v-1.07A91 91 0 0141 72l-22.56-3.89z"/><path fill="url(#prices-violet-j)" d="M41.06 87.87a16.68 16.68 0 01-11.77-.46c.06-.3.1-.604.12-.91a9.88 9.88 0 00-.33-4.08 1.22 1.22 0 00-.11-.24 17.29 17.29 0 0010.88 1c.123 1.4.43 2.779.91 4.1.089.202.19.4.3.59z"/><path fill="url(#prices-violet-k)" d="M59.57 107h-8.19c-.41-3 .32-6.83 0-8.88a17.88 17.88 0 00-1.92-4.61c3.21 2.6 7.54 9.82 10.11 13.49z"/><path fill="url(#prices-violet-l)" fill-rule="nonzero" d="M24.68 94a5.39 5.39 0 014.67 1.49 4.64 4.64 0 011.39 3.33c0 2 0 5.25 2.17 7.6m18.47.57c-.41-1.92.08-7.09.05-8.48-.03-1.39-2-5-2-5"/><path fill="url(#prices-violet-l)" fill-rule="nonzero" d="M24.68 94a5.39 5.39 0 014.67 1.49 4.64 4.64 0 011.39 3.33c0 2 0 5.25 2.17 7.6m18.47.57c-.41-1.92.08-7.09.05-8.48-.03-1.39-2-5-2-5"/><ellipse cx="62.412" cy="65.014" fill="url(#prices-violet-m)" rx="9" ry="3.96" transform="rotate(-53.07 62.412 65.014)"/><path fill="url(#prices-violet-n)" fill-rule="nonzero" d="M66.55 58.44a1.13 1.13 0 01.67.18c.49.37.59 1.43.28 2.77a15.29 15.29 0 01-2.72 5.41c-2.37 3.15-5.07 4.8-6.51 4.8a1.11 1.11 0 01-.67-.18c-.49-.37-.6-1.43-.28-2.77a15.29 15.29 0 012.72-5.41c2.37-3.15 5.07-4.8 6.51-4.8zm0-1c-2 0-4.91 2-7.31 5.2-3 4-4 8.26-2.24 9.58.37.262.817.395 1.27.38 2 0 4.91-2 7.31-5.2 3-4 4-8.26 2.24-9.58a2.08 2.08 0 00-1.27-.38z"/><ellipse cx="62.422" cy="64.323" fill="url(#prices-violet-o)" rx="7.37" ry="3.24" transform="rotate(-53.07 62.422 64.323)"/><path fill="url(#prices-violet-p)" d="M8.25 38.92S.33 38.54.33 44.08A16.61 16.61 0 009.5 59.42s15 17.39 28.5 19.07c14.08 1.75 20.3-3.88 25.33-11.32 5.42-8 8.25-27.66 8.25-27.66L69 24.67H22L8.25 38.92z"/><path fill="url(#prices-violet-q)" fill-rule="nonzero" d="M68.16 25.67l2.41 13.85c-.28 1.85-3.09 19.74-8.06 27.09-4.56 6.72-9.64 11.2-19.61 11.2a38.65 38.65 0 01-4.78-.31C25.18 75.89 10.4 58.93 10.26 58.76l-.15-.17-.22-.09a15.69 15.69 0 01-8.56-14.42c0-3.87 5.06-4.17 6.61-4.17h.72l.31-.33 13.45-13.94h45.74v.03zm.84-1.03H22L8.25 38.89h-.31c-1.46 0-7.61.29-7.61 5.17A16.61 16.61 0 009.5 59.4s15 17.39 28.5 19.07a39.28 39.28 0 004.9.32c10.71 0 16-5.13 20.43-11.64 5.42-8 8.25-27.66 8.25-27.66L69 24.67v-.03z"/><path fill="url(#prices-violet-r)" d="M49.82 77.94c-2.55 0-5.31.55-8.28.29C24.42 76.76 9.92 58.08 8.67 57.1a3.58 3.58 0 00-2.79-.14 15 15 0 003.62 2.46s15 17.39 28.5 19.07a30.53 30.53 0 0011.82-.55z"/><path fill="url(#prices-violet-s)" d="M16.75 45.92c3.66 5.94 12.9 7.78 19.08 5.91a30.88 30.88 0 016.65-1.6 6.72 6.72 0 017 4.27c1.16 2.61 4.38 4.39 5.67 4.92 2.77 1.14 7.2 2.45 10.5-1.5 2-2.44 3.77-7.26 3.58-13.59a13.7 13.7 0 00-4.83-9.83c-11-9.17-28.49-11-31.25-10.83-5.27.39-7.92 1.63-9.42 2.5-1.5.87-8.24 5.08-8.67 12.5a12.39 12.39 0 001.69 7.25z"/><path fill="url(#prices-violet-t)" fill-rule="nonzero" d="M33.65 24.65c3.45 0 19.65 1.89 30.13 10.62a12.6 12.6 0 014.47 9.09c.19 6.32-1.61 10.82-3.35 12.92a5.92 5.92 0 01-4.78 2.3 12.38 12.38 0 01-4.57-1.09c-1.08-.44-4.12-2.1-5.14-4.4a7.65 7.65 0 00-7.27-4.88h-.73a25.53 25.53 0 00-5.8 1.31l-1.07.33a17 17 0 01-4.75.65c-5.71 0-10.89-2.41-13.19-6.14a11.32 11.32 0 01-1.52-6.67c.39-6.68 6.35-10.64 8.17-11.69 1.44-.83 3.95-2 9-2.37h.41l-.01.02zm.01-1.02h-.48c-5.27.39-7.92 1.63-9.42 2.5-1.5.87-8.24 5.08-8.67 12.5a12.39 12.39 0 001.67 7.25c2.75 4.46 8.66 6.61 14 6.61a17.35 17.35 0 005-.7 30.88 30.88 0 016.65-1.6h.66a6.63 6.63 0 016.36 4.29c1.16 2.61 4.38 4.39 5.67 4.92a13.3 13.3 0 005 1.16 6.94 6.94 0 005.55-2.66c2-2.44 3.77-7.26 3.58-13.59a13.7 13.7 0 00-4.83-9.83c-10.49-8.73-26.86-10.85-30.77-10.85h.03z"/><path fill="url(#prices-violet-u)" d="M59.75 36.08a10.2 10.2 0 00-6.75 1 10 10 0 00-5.08 8.17 9.8 9.8 0 001.25 5.25c3.09 5.5 11.44 7.74 15 5.17 3.07-2.23 3.76-8.7 3.08-11.84a10.59 10.59 0 00-2.42-4.75 10.28 10.28 0 00-5.08-3z"/><path fill="url(#prices-violet-v)" d="M44.25 37.75a12.46 12.46 0 00-4-6.5c-4.75-4.21-12.62-4.7-17.67-.92-.63.48-5 3.71-4.75 8.67.18 4.26 3.58 6.93 4.84 7.92 4.66 3.65 13.35 5.75 18.33.91 3.6-3.49 3.48-8.78 3.25-10.08z"/><path fill="url(#prices-violet-w)" d="M21.8 38.57a5.35 5.35 0 015-3.32c4.74-.19 11.17 1.79 12.36 5.19a6.65 6.65 0 01-7.44 8.18c-1.57-.14-7-1.11-9.15-3.28-1.67-1.74-1.57-4.53-.77-6.77z"/><path fill="url(#prices-violet-x)" d="M30.1 38.1a5.49 5.49 0 00-3.93 9.34 29.92 29.92 0 005.58 1.18 5 5 0 00.54 0 5.5 5.5 0 00-2.19-10.54v.02z"/><circle cx="30" cy="44" r="3" fill="url(#prices-violet-y)"/><circle cx="28" cy="40" r="2" fill="url(#prices-violet-z)"/><path fill="url(#prices-violet-A)" d="M50.81 46.31a6.18 6.18 0 015.45-3.11c3.5-.13 8.39 2.23 8.93 6.49.36 2.9-1.1 6.3-3.69 7.19-3.59 1.22-10.48-2.78-11.19-7.13a5.81 5.81 0 01.5-3.44z"/><path fill="url(#prices-violet-B)" d="M54.1 45a5.47 5.47 0 00-3.06.93c-.08.12-.16.25-.23.38a5.64 5.64 0 00-.5 3.44c.39 2.4 2.67 4.69 5.23 6.05A5.5 5.5 0 0054.1 45z"/><circle cx="54" cy="50.9" r="3" fill="url(#prices-violet-C)"/><path fill="url(#prices-violet-D)" d="M54 46.9a2 2 0 00-2-2h-.1a5 5 0 00-1.61 3 2 2 0 003.71-1z"/><path fill="url(#prices-violet-E)" d="M10.92 41.5A23.79 23.79 0 0127 34.08c10.25-.5 17.58 2.31 25.92 1.16a21.58 21.58 0 0012.91-6.74s-.08 9 1.09 12.5c1.17 3.5 1.16 15.65 1.16 15.65s3.74-5.85 3.5-10.73c-.24-4.88 1-15.75-2.91-19.34s-19.59-5.25-35.17-1.91c-15.58 3.34-21.08 5.08-22.58 8.66s0 8.17 0 8.17z"/><path fill="url(#prices-violet-F)" d="M7.58 46.17s-.08-3.34-2.08-3.34-2.75 1.75-2.83 3.34c-.08 1.59 1.16 5.56 3.75 5.56a10 10 0 01-1.3-4.06c0-2.59 2.46-1.5 2.46-1.5z"/><path fill="url(#prices-violet-G)" d="M5.55 43.42a2 2 0 011.53.56 1.75 1.75 0 00-1.58-1.15c-2 0-2.75 1.75-2.83 3.34 0 .864.167 1.72.49 2.52-.03-2.85.93-5.09 2.39-5.27z"/><path fill="url(#prices-violet-H)" d="M67.87 56.84c4.55-3.84 7.08-13.32 7.08-21.6 0-3.44-1.63-12.4-7-13.93-.45-6.8-4.82-12.06-8.89-15.51C54.15 1.64 47.15.34 40.23.34 21 .34 4.69 18.5 4.69 39.46c0 0 2.7-1.46 3.2-.08s-.44 4.68 1.37 4.37C11.07 43.44 11 39.17 13 37s6.16-4.41 13.62-5c7.24-.58 18.58 1.07 24.76.38C57.56 31.69 66 28.29 66 28.29S69.06 38.38 69.25 42c.19 3.62.5 10.75-1.38 14.84z"/><path fill="url(#prices-violet-I)" fill-rule="nonzero" d="M68.89 53.39A53.26 53.26 0 0069.25 42C69.06 38.38 66 28.29 66 28.29s-8.33 3.38-14.62 4.09c-6.29.71-17.52-1-24.76-.38a27.43 27.43 0 00-10.19 2.52c2.1-1.07 11.68-5.58 22.18-4.5 9.108.871 18.3.11 27.14-2.25 0 0 4.56 6.11 5 11.74.25 3.73-.98 10.05-1.86 13.88zm-.8 3.24s.13-.5.31-1.23c-.13.42-.27.82-.43 1.2h.11l.01.03z"/><path fill="url(#prices-violet-J)" d="M55.42 8.25c-9.59 2.08-29.42 8.5-37.59 12.33C24.6 16.33 41.67 6.83 55.42 8.25z"/><path fill="url(#prices-violet-K)" d="M23.26 28.59a69.84 69.84 0 00-18.51 8.56c0 .76-.07 1.53-.07 2.31 0 0 1.69-.91 2.64-.61a88 88 0 0111.38-6A69.88 69.88 0 0133 28.64c2.6-.48 14.36-2.15 18.53-3.12a70.33 70.33 0 0013.3-4.89s-6.35 2.28-13.62 4.09c-3.08.71-20.12 1.7-27.95 3.87z"/><path fill="url(#prices-violet-L)" d="M45.06 52.62c1.57.24 2.86 2.08 2.69 5.76-2-2.58-8.63-2.58-8.63-2.58s3.04-3.61 5.94-3.18z"/><path fill="url(#prices-violet-M)" d="M39.12 55.8s3.76-2.63 6.19-1.9c2.43.73 2.44 4.48 2.44 4.48s-5.75-.52-8.63-2.58z"/><path fill="url(#prices-violet-N)" d="M41 63.75a37.07 37.07 0 01-10.13-5.3c1.06 2.91 4.21 5.85 8.5 7.53 4.57 1.79 9.15 1.65 11.86 0A38.24 38.24 0 0141 63.75z"/><path fill="url(#prices-violet-O)" fill-rule="nonzero" d="M34.77 62.14a42.38 42.38 0 005.87 2.55 43.33 43.33 0 005.58 1.57h-.41a17.06 17.06 0 01-6.1-1.21 17.66 17.66 0 01-4.94-2.91zm-3.93-3.69c1.06 2.91 4.21 5.85 8.5 7.53a18 18 0 006.47 1.28 10.22 10.22 0 005.39-1.33A38.24 38.24 0 0141 63.75a37.07 37.07 0 01-10.13-5.3h-.03z"/><path fill="url(#prices-violet-P)" d="M33.17 56.46c.353.381.604.846.73 1.35a3.1 3.1 0 00-4 3.75 3.17 3.17 0 01-1.31-.81 3.123 3.123 0 014.54-4.29h.04z"/><path fill="url(#prices-violet-Q)" d="M51 63.39a1.76 1.76 0 00-1 .19 2.57 2.57 0 01-.45 4.12c.26.217.575.355.91.4a2.19 2.19 0 002.24-2.13 2.22 2.22 0 00-1.7-2.58z"/><path fill="url(#prices-violet-R)" d="M41 63.75a37.27 37.27 0 01-10-5.23 22.75 22.75 0 008.81 5.85 21.82 21.82 0 0011.34 1.56A38.89 38.89 0 0141 63.75z"/><path fill="url(#prices-violet-S)" d="M30.93 58.52a22.75 22.75 0 008.81 5.85 24.34 24.34 0 008.7 1.78 14.61 14.61 0 002.64-.22A38.89 38.89 0 0141 63.75a37.27 37.27 0 01-10-5.23h-.07z"/><ellipse cx="62.412" cy="65.014" fill="url(#prices-violet-m)" rx="9" ry="3.96" transform="rotate(-53.07 62.412 65.014)"/><path fill="url(#prices-violet-n)" fill-rule="nonzero" d="M66.55 58.44a1.13 1.13 0 01.67.18c.49.37.59 1.43.28 2.77a15.29 15.29 0 01-2.72 5.41c-2.37 3.15-5.07 4.8-6.51 4.8a1.11 1.11 0 01-.67-.18c-.49-.37-.6-1.43-.28-2.77a15.29 15.29 0 012.72-5.41c2.37-3.15 5.07-4.8 6.51-4.8zm0-1c-2 0-4.91 2-7.31 5.2-3 4-4 8.26-2.24 9.58.37.262.817.395 1.27.38 2 0 4.91-2 7.31-5.2 3-4 4-8.26 2.24-9.58a2.08 2.08 0 00-1.27-.38z"/><ellipse cx="62.422" cy="64.323" fill="url(#prices-violet-o)" rx="7.37" ry="3.24" transform="rotate(-53.07 62.422 64.323)"/><path fill="url(#prices-violet-p)" d="M8.25 38.92S.33 38.54.33 44.08A16.61 16.61 0 009.5 59.42s15 17.39 28.5 19.07c14.08 1.75 20.3-3.88 25.33-11.32 5.42-8 8.25-27.66 8.25-27.66L69 24.67H22L8.25 38.92z"/><path fill="url(#prices-violet-q)" fill-rule="nonzero" d="M68.16 25.67l2.41 13.85c-.28 1.85-3.09 19.74-8.06 27.09-4.56 6.72-9.64 11.2-19.61 11.2a38.65 38.65 0 01-4.78-.31C25.18 75.89 10.4 58.93 10.26 58.76l-.15-.17-.22-.09a15.69 15.69 0 01-8.56-14.42c0-3.87 5.06-4.17 6.61-4.17h.72l.31-.33 13.45-13.94h45.74v.03zm.84-1.03H22L8.25 38.89h-.31c-1.46 0-7.61.29-7.61 5.17A16.61 16.61 0 009.5 59.4s15 17.39 28.5 19.07a39.28 39.28 0 004.9.32c10.71 0 16-5.13 20.43-11.64 5.42-8 8.25-27.66 8.25-27.66L69 24.67v-.03z"/><path fill="url(#prices-violet-r)" d="M49.82 77.94c-2.55 0-5.31.55-8.28.29C24.42 76.76 9.92 58.08 8.67 57.1a3.58 3.58 0 00-2.79-.14 15 15 0 003.62 2.46s15 17.39 28.5 19.07a30.53 30.53 0 0011.82-.55z"/><path fill="url(#prices-violet-s)" d="M16.75 45.92c3.66 5.94 12.9 7.78 19.08 5.91a30.88 30.88 0 016.65-1.6 6.72 6.72 0 017 4.27c1.16 2.61 4.38 4.39 5.67 4.92 2.77 1.14 7.2 2.45 10.5-1.5 2-2.44 3.77-7.26 3.58-13.59a13.7 13.7 0 00-4.83-9.83c-11-9.17-28.49-11-31.25-10.83-5.27.39-7.92 1.63-9.42 2.5-1.5.87-8.24 5.08-8.67 12.5a12.39 12.39 0 001.69 7.25z"/><path fill="url(#prices-violet-t)" fill-rule="nonzero" d="M33.65 24.65c3.45 0 19.65 1.89 30.13 10.62a12.6 12.6 0 014.47 9.09c.19 6.32-1.61 10.82-3.35 12.92a5.92 5.92 0 01-4.78 2.3 12.38 12.38 0 01-4.57-1.09c-1.08-.44-4.12-2.1-5.14-4.4a7.65 7.65 0 00-7.27-4.88h-.73a25.53 25.53 0 00-5.8 1.31l-1.07.33a17 17 0 01-4.75.65c-5.71 0-10.89-2.41-13.19-6.14a11.32 11.32 0 01-1.52-6.67c.39-6.68 6.35-10.64 8.17-11.69 1.44-.83 3.95-2 9-2.37h.41l-.01.02zm.01-1.02h-.48c-5.27.39-7.92 1.63-9.42 2.5-1.5.87-8.24 5.08-8.67 12.5a12.39 12.39 0 001.67 7.25c2.75 4.46 8.66 6.61 14 6.61a17.35 17.35 0 005-.7 30.88 30.88 0 016.65-1.6h.66a6.63 6.63 0 016.36 4.29c1.16 2.61 4.38 4.39 5.67 4.92a13.3 13.3 0 005 1.16 6.94 6.94 0 005.55-2.66c2-2.44 3.77-7.26 3.58-13.59a13.7 13.7 0 00-4.83-9.83c-10.49-8.73-26.86-10.85-30.77-10.85h.03z"/><path fill="url(#prices-violet-u)" d="M59.75 36.08a10.2 10.2 0 00-6.75 1 10 10 0 00-5.08 8.17 9.8 9.8 0 001.25 5.25c3.09 5.5 11.44 7.74 15 5.17 3.07-2.23 3.76-8.7 3.08-11.84a10.59 10.59 0 00-2.42-4.75 10.28 10.28 0 00-5.08-3z"/><path fill="url(#prices-violet-v)" d="M44.25 37.75a12.46 12.46 0 00-4-6.5c-4.75-4.21-12.62-4.7-17.67-.92-.63.48-5 3.71-4.75 8.67.18 4.26 3.58 6.93 4.84 7.92 4.66 3.65 13.35 5.75 18.33.91 3.6-3.49 3.48-8.78 3.25-10.08z"/><path fill="url(#prices-violet-w)" d="M21.8 38.57a5.35 5.35 0 015-3.32c4.74-.19 11.17 1.79 12.36 5.19a6.65 6.65 0 01-7.44 8.18c-1.57-.14-7-1.11-9.15-3.28-1.67-1.74-1.57-4.53-.77-6.77z"/><path fill="url(#prices-violet-x)" d="M30.1 38.1a5.49 5.49 0 00-3.93 9.34 29.92 29.92 0 005.58 1.18 5 5 0 00.54 0 5.5 5.5 0 00-2.19-10.54v.02z"/><circle cx="30" cy="44" r="3" fill="url(#prices-violet-y)"/><circle cx="28" cy="40" r="2" fill="url(#prices-violet-z)"/><path fill="url(#prices-violet-A)" d="M50.81 46.31a6.18 6.18 0 015.45-3.11c3.5-.13 8.39 2.23 8.93 6.49.36 2.9-1.1 6.3-3.69 7.19-3.59 1.22-10.48-2.78-11.19-7.13a5.81 5.81 0 01.5-3.44z"/><path fill="url(#prices-violet-B)" d="M54.1 45a5.47 5.47 0 00-3.06.93c-.08.12-.16.25-.23.38a5.64 5.64 0 00-.5 3.44c.39 2.4 2.67 4.69 5.23 6.05A5.5 5.5 0 0054.1 45z"/><circle cx="54" cy="50.9" r="3" fill="url(#prices-violet-C)"/><path fill="url(#prices-violet-D)" d="M54 46.9a2 2 0 00-2-2h-.1a5 5 0 00-1.61 3 2 2 0 003.71-1z"/><path fill="url(#prices-violet-E)" d="M10.92 41.5A23.79 23.79 0 0127 34.08c10.25-.5 17.58 2.31 25.92 1.16a21.58 21.58 0 0012.91-6.74s-.08 9 1.09 12.5c1.17 3.5 1.16 15.65 1.16 15.65s3.74-5.85 3.5-10.73c-.24-4.88 1-15.75-2.91-19.34s-19.59-5.25-35.17-1.91c-15.58 3.34-21.08 5.08-22.58 8.66s0 8.17 0 8.17z"/><path fill="url(#prices-violet-F)" d="M7.58 46.17s-.08-3.34-2.08-3.34-2.75 1.75-2.83 3.34c-.08 1.59 1.16 5.56 3.75 5.56a10 10 0 01-1.3-4.06c0-2.59 2.46-1.5 2.46-1.5z"/><path fill="url(#prices-violet-G)" d="M5.55 43.42a2 2 0 011.53.56 1.75 1.75 0 00-1.58-1.15c-2 0-2.75 1.75-2.83 3.34 0 .864.167 1.72.49 2.52-.03-2.85.93-5.09 2.39-5.27z"/><path fill="url(#prices-violet-H)" d="M67.87 56.84c4.55-3.84 7.08-13.32 7.08-21.6 0-3.44-1.63-12.4-7-13.93-.45-6.8-4.82-12.06-8.89-15.51C54.15 1.64 47.15.34 40.23.34 21 .34 4.69 18.5 4.69 39.46c0 0 2.7-1.46 3.2-.08s-.44 4.68 1.37 4.37C11.07 43.44 11 39.17 13 37s6.16-4.41 13.62-5c7.24-.58 18.58 1.07 24.76.38C57.56 31.69 66 28.29 66 28.29S69.06 38.38 69.25 42c.19 3.62.5 10.75-1.38 14.84z"/><path fill="url(#prices-violet-I)" fill-rule="nonzero" d="M68.89 53.39A53.26 53.26 0 0069.25 42C69.06 38.38 66 28.29 66 28.29s-8.33 3.38-14.62 4.09c-6.29.71-17.52-1-24.76-.38a27.43 27.43 0 00-10.19 2.52c2.1-1.07 11.68-5.58 22.18-4.5 9.108.871 18.3.11 27.14-2.25 0 0 4.56 6.11 5 11.74.25 3.73-.98 10.05-1.86 13.88zm-.8 3.24s.13-.5.31-1.23c-.13.42-.27.82-.43 1.2h.11l.01.03z"/><path fill="url(#prices-violet-J)" d="M55.42 8.25c-9.59 2.08-29.42 8.5-37.59 12.33C24.6 16.33 41.67 6.83 55.42 8.25z"/><path fill="url(#prices-violet-K)" d="M23.26 28.59a69.84 69.84 0 00-18.51 8.56c0 .76-.07 1.53-.07 2.31 0 0 1.69-.91 2.64-.61a88 88 0 0111.38-6A69.88 69.88 0 0133 28.64c2.6-.48 14.36-2.15 18.53-3.12a70.33 70.33 0 0013.3-4.89s-6.35 2.28-13.62 4.09c-3.08.71-20.12 1.7-27.95 3.87z"/><path fill="url(#prices-violet-L)" d="M45.06 52.62c1.57.24 2.86 2.08 2.69 5.76-2-2.58-8.63-2.58-8.63-2.58s3.04-3.61 5.94-3.18z"/><path fill="url(#prices-violet-M)" d="M39.12 55.8s3.76-2.63 6.19-1.9c2.43.73 2.44 4.48 2.44 4.48s-5.75-.52-8.63-2.58z"/><path fill="url(#prices-violet-N)" d="M41 63.75a37.07 37.07 0 01-10.13-5.3c1.06 2.91 4.21 5.85 8.5 7.53 4.57 1.79 9.15 1.65 11.86 0A38.24 38.24 0 0141 63.75z"/><path fill="url(#prices-violet-O)" fill-rule="nonzero" d="M34.77 62.14a42.38 42.38 0 005.87 2.55 43.33 43.33 0 005.58 1.57h-.41a17.06 17.06 0 01-6.1-1.21 17.66 17.66 0 01-4.94-2.91zm-3.93-3.69c1.06 2.91 4.21 5.85 8.5 7.53a18 18 0 006.47 1.28 10.22 10.22 0 005.39-1.33A38.24 38.24 0 0141 63.75a37.07 37.07 0 01-10.13-5.3h-.03z"/><path fill="url(#prices-violet-P)" d="M33.17 56.46c.353.381.604.846.73 1.35a3.1 3.1 0 00-4 3.75 3.17 3.17 0 01-1.31-.81 3.123 3.123 0 014.54-4.29h.04z"/><path fill="url(#prices-violet-Q)" d="M51 63.39a1.76 1.76 0 00-1 .19 2.57 2.57 0 01-.45 4.12c.26.217.575.355.91.4a2.19 2.19 0 002.24-2.13 2.22 2.22 0 00-1.7-2.58z"/><path fill="url(#prices-violet-R)" d="M41 63.75a37.27 37.27 0 01-10-5.23 22.75 22.75 0 008.81 5.85 21.82 21.82 0 0011.34 1.56A38.89 38.89 0 0141 63.75z"/><path fill="url(#prices-violet-S)" d="M30.93 58.52a22.75 22.75 0 008.81 5.85 24.34 24.34 0 008.7 1.78 14.61 14.61 0 002.64-.22A38.89 38.89 0 0141 63.75a37.27 37.27 0 01-10-5.23h-.07z"/><ellipse cx="62.412" cy="65.014" fill="url(#prices-violet-m)" rx="9" ry="3.96" transform="rotate(-53.07 62.412 65.014)"/><path fill="url(#prices-violet-n)" fill-rule="nonzero" d="M66.55 58.44a1.13 1.13 0 01.67.18c.49.37.59 1.43.28 2.77a15.29 15.29 0 01-2.72 5.41c-2.37 3.15-5.07 4.8-6.51 4.8a1.11 1.11 0 01-.67-.18c-.49-.37-.6-1.43-.28-2.77a15.29 15.29 0 012.72-5.41c2.37-3.15 5.07-4.8 6.51-4.8zm0-1c-2 0-4.91 2-7.31 5.2-3 4-4 8.26-2.24 9.58.37.262.817.395 1.27.38 2 0 4.91-2 7.31-5.2 3-4 4-8.26 2.24-9.58a2.08 2.08 0 00-1.27-.38z"/><ellipse cx="62.422" cy="64.323" fill="url(#prices-violet-o)" rx="7.37" ry="3.24" transform="rotate(-53.07 62.422 64.323)"/><path fill="url(#prices-violet-p)" d="M8.25 38.92S.33 38.54.33 44.08A16.61 16.61 0 009.5 59.42s15 17.39 28.5 19.07c14.08 1.75 20.3-3.88 25.33-11.32 5.42-8 8.25-27.66 8.25-27.66L69 24.67H22L8.25 38.92z"/><path fill="url(#prices-violet-q)" fill-rule="nonzero" d="M68.16 25.67l2.41 13.85c-.28 1.85-3.09 19.74-8.06 27.09-4.56 6.72-9.64 11.2-19.61 11.2a38.65 38.65 0 01-4.78-.31C25.18 75.89 10.4 58.93 10.26 58.76l-.15-.17-.22-.09a15.69 15.69 0 01-8.56-14.42c0-3.87 5.06-4.17 6.61-4.17h.72l.31-.33 13.45-13.94h45.74v.03zm.84-1.03H22L8.25 38.89h-.31c-1.46 0-7.61.29-7.61 5.17A16.61 16.61 0 009.5 59.4s15 17.39 28.5 19.07a39.28 39.28 0 004.9.32c10.71 0 16-5.13 20.43-11.64 5.42-8 8.25-27.66 8.25-27.66L69 24.67v-.03z"/><path fill="url(#prices-violet-r)" d="M49.82 77.94c-2.55 0-5.31.55-8.28.29C24.42 76.76 9.92 58.08 8.67 57.1a3.58 3.58 0 00-2.79-.14 15 15 0 003.62 2.46s15 17.39 28.5 19.07a30.53 30.53 0 0011.82-.55z"/><path fill="url(#prices-violet-s)" d="M16.75 45.92c3.66 5.94 12.9 7.78 19.08 5.91a30.88 30.88 0 016.65-1.6 6.72 6.72 0 017 4.27c1.16 2.61 4.38 4.39 5.67 4.92 2.77 1.14 7.2 2.45 10.5-1.5 2-2.44 3.77-7.26 3.58-13.59a13.7 13.7 0 00-4.83-9.83c-11-9.17-28.49-11-31.25-10.83-5.27.39-7.92 1.63-9.42 2.5-1.5.87-8.24 5.08-8.67 12.5a12.39 12.39 0 001.69 7.25z"/><path fill="url(#prices-violet-t)" fill-rule="nonzero" d="M33.65 24.65c3.45 0 19.65 1.89 30.13 10.62a12.6 12.6 0 014.47 9.09c.19 6.32-1.61 10.82-3.35 12.92a5.92 5.92 0 01-4.78 2.3 12.38 12.38 0 01-4.57-1.09c-1.08-.44-4.12-2.1-5.14-4.4a7.65 7.65 0 00-7.27-4.88h-.73a25.53 25.53 0 00-5.8 1.31l-1.07.33a17 17 0 01-4.75.65c-5.71 0-10.89-2.41-13.19-6.14a11.32 11.32 0 01-1.52-6.67c.39-6.68 6.35-10.64 8.17-11.69 1.44-.83 3.95-2 9-2.37h.41l-.01.02zm.01-1.02h-.48c-5.27.39-7.92 1.63-9.42 2.5-1.5.87-8.24 5.08-8.67 12.5a12.39 12.39 0 001.67 7.25c2.75 4.46 8.66 6.61 14 6.61a17.35 17.35 0 005-.7 30.88 30.88 0 016.65-1.6h.66a6.63 6.63 0 016.36 4.29c1.16 2.61 4.38 4.39 5.67 4.92a13.3 13.3 0 005 1.16 6.94 6.94 0 005.55-2.66c2-2.44 3.77-7.26 3.58-13.59a13.7 13.7 0 00-4.83-9.83c-10.49-8.73-26.86-10.85-30.77-10.85h.03z"/><path fill="url(#prices-violet-u)" d="M59.75 36.08a10.2 10.2 0 00-6.75 1 10 10 0 00-5.08 8.17 9.8 9.8 0 001.25 5.25c3.09 5.5 11.44 7.74 15 5.17 3.07-2.23 3.76-8.7 3.08-11.84a10.59 10.59 0 00-2.42-4.75 10.28 10.28 0 00-5.08-3z"/><path fill="url(#prices-violet-v)" d="M44.25 37.75a12.46 12.46 0 00-4-6.5c-4.75-4.21-12.62-4.7-17.67-.92-.63.48-5 3.71-4.75 8.67.18 4.26 3.58 6.93 4.84 7.92 4.66 3.65 13.35 5.75 18.33.91 3.6-3.49 3.48-8.78 3.25-10.08z"/><path fill="url(#prices-violet-w)" d="M21.8 38.57a5.35 5.35 0 015-3.32c4.74-.19 11.17 1.79 12.36 5.19a6.65 6.65 0 01-7.44 8.18c-1.57-.14-7-1.11-9.15-3.28-1.67-1.74-1.57-4.53-.77-6.77z"/><path fill="url(#prices-violet-x)" d="M30.1 38.1a5.49 5.49 0 00-3.93 9.34 29.92 29.92 0 005.58 1.18 5 5 0 00.54 0 5.5 5.5 0 00-2.19-10.54v.02z"/><circle cx="30" cy="44" r="3" fill="url(#prices-violet-y)"/><circle cx="28" cy="40" r="2" fill="url(#prices-violet-z)"/><path fill="url(#prices-violet-A)" d="M50.81 46.31a6.18 6.18 0 015.45-3.11c3.5-.13 8.39 2.23 8.93 6.49.36 2.9-1.1 6.3-3.69 7.19-3.59 1.22-10.48-2.78-11.19-7.13a5.81 5.81 0 01.5-3.44z"/><path fill="url(#prices-violet-B)" d="M54.1 45a5.47 5.47 0 00-3.06.93c-.08.12-.16.25-.23.38a5.64 5.64 0 00-.5 3.44c.39 2.4 2.67 4.69 5.23 6.05A5.5 5.5 0 0054.1 45z"/><circle cx="54" cy="50.9" r="3" fill="url(#prices-violet-C)"/><path fill="url(#prices-violet-D)" d="M54 46.9a2 2 0 00-2-2h-.1a5 5 0 00-1.61 3 2 2 0 003.71-1z"/><path fill="url(#prices-violet-E)" d="M10.92 41.5A23.79 23.79 0 0127 34.08c10.25-.5 17.58 2.31 25.92 1.16a21.58 21.58 0 0012.91-6.74s-.08 9 1.09 12.5c1.17 3.5 1.16 15.65 1.16 15.65s3.74-5.85 3.5-10.73c-.24-4.88 1-15.75-2.91-19.34s-19.59-5.25-35.17-1.91c-15.58 3.34-21.08 5.08-22.58 8.66s0 8.17 0 8.17z"/><path fill="url(#prices-violet-F)" d="M7.58 46.17s-.08-3.34-2.08-3.34-2.75 1.75-2.83 3.34c-.08 1.59 1.16 5.56 3.75 5.56a10 10 0 01-1.3-4.06c0-2.59 2.46-1.5 2.46-1.5z"/><path fill="url(#prices-violet-G)" d="M5.55 43.42a2 2 0 011.53.56 1.75 1.75 0 00-1.58-1.15c-2 0-2.75 1.75-2.83 3.34 0 .864.167 1.72.49 2.52-.03-2.85.93-5.09 2.39-5.27z"/><path fill="url(#prices-violet-H)" d="M67.87 56.84c4.55-3.84 7.08-13.32 7.08-21.6 0-3.44-1.63-12.4-7-13.93-.45-6.8-4.82-12.06-8.89-15.51C54.15 1.64 47.15.34 40.23.34 21 .34 4.69 18.5 4.69 39.46c0 0 2.7-1.46 3.2-.08s-.44 4.68 1.37 4.37C11.07 43.44 11 39.17 13 37s6.16-4.41 13.62-5c7.24-.58 18.58 1.07 24.76.38C57.56 31.69 66 28.29 66 28.29S69.06 38.38 69.25 42c.19 3.62.5 10.75-1.38 14.84z"/><path fill="url(#prices-violet-I)" fill-rule="nonzero" d="M68.89 53.39A53.26 53.26 0 0069.25 42C69.06 38.38 66 28.29 66 28.29s-8.33 3.38-14.62 4.09c-6.29.71-17.52-1-24.76-.38a27.43 27.43 0 00-10.19 2.52c2.1-1.07 11.68-5.58 22.18-4.5 9.108.871 18.3.11 27.14-2.25 0 0 4.56 6.11 5 11.74.25 3.73-.98 10.05-1.86 13.88zm-.8 3.24s.13-.5.31-1.23c-.13.42-.27.82-.43 1.2h.11l.01.03z"/><path fill="url(#prices-violet-J)" d="M55.42 8.25c-9.59 2.08-29.42 8.5-37.59 12.33C24.6 16.33 41.67 6.83 55.42 8.25z"/><path fill="url(#prices-violet-K)" d="M23.26 28.59a69.84 69.84 0 00-18.51 8.56c0 .76-.07 1.53-.07 2.31 0 0 1.69-.91 2.64-.61a88 88 0 0111.38-6A69.88 69.88 0 0133 28.64c2.6-.48 14.36-2.15 18.53-3.12a70.33 70.33 0 0013.3-4.89s-6.35 2.28-13.62 4.09c-3.08.71-20.12 1.7-27.95 3.87z"/><path fill="url(#prices-violet-L)" d="M45.06 52.62c1.57.24 2.86 2.08 2.69 5.76-2-2.58-8.63-2.58-8.63-2.58s3.04-3.61 5.94-3.18z"/><path fill="url(#prices-violet-M)" d="M39.12 55.8s3.76-2.63 6.19-1.9c2.43.73 2.44 4.48 2.44 4.48s-5.75-.52-8.63-2.58z"/><path fill="url(#prices-violet-N)" d="M41 63.75a37.07 37.07 0 01-10.13-5.3c1.06 2.91 4.21 5.85 8.5 7.53 4.57 1.79 9.15 1.65 11.86 0A38.24 38.24 0 0141 63.75z"/><path fill="url(#prices-violet-O)" fill-rule="nonzero" d="M34.77 62.14a42.38 42.38 0 005.87 2.55 43.33 43.33 0 005.58 1.57h-.41a17.06 17.06 0 01-6.1-1.21 17.66 17.66 0 01-4.94-2.91zm-3.93-3.69c1.06 2.91 4.21 5.85 8.5 7.53a18 18 0 006.47 1.28 10.22 10.22 0 005.39-1.33A38.24 38.24 0 0141 63.75a37.07 37.07 0 01-10.13-5.3h-.03z"/><path fill="url(#prices-violet-P)" d="M33.17 56.46c.353.381.604.846.73 1.35a3.1 3.1 0 00-4 3.75 3.17 3.17 0 01-1.31-.81 3.123 3.123 0 014.54-4.29h.04z"/><path fill="url(#prices-violet-Q)" d="M51 63.39a1.76 1.76 0 00-1 .19 2.57 2.57 0 01-.45 4.12c.26.217.575.355.91.4a2.19 2.19 0 002.24-2.13 2.22 2.22 0 00-1.7-2.58z"/><path fill="url(#prices-violet-R)" d="M41 63.75a37.27 37.27 0 01-10-5.23 22.75 22.75 0 008.81 5.85 21.82 21.82 0 0011.34 1.56A38.89 38.89 0 0141 63.75z"/><path fill="url(#prices-violet-S)" d="M30.93 58.52a22.75 22.75 0 008.81 5.85 24.34 24.34 0 008.7 1.78 14.61 14.61 0 002.64-.22A38.89 38.89 0 0141 63.75a37.27 37.27 0 01-10-5.23h-.07z"/><path fill="url(#prices-violet-T)" d="M48.85 95.5c.59 2.94-3.69 4.82-8.7 4-4.2-.69-6.88-3-6.59-5.14.27-1.93 3-3.37 6.51-3.37 4.07.01 8.25 1.91 8.78 4.51z"/><path fill="url(#prices-violet-U)" d="M40 92s-4.74 2.14-4 4c1.33 3.33 7.25 2.25 7.25 2.25v-.92s4-.66 3.54-2.54c-.46-1.88-3.67-3.12-4.91-3A15.87 15.87 0 0140 92z"/><path fill="url(#prices-violet-V)" d="M39.62 95.12l3.26-1.16 3.63 5s-1.33.46-1.84.55c-.51.09-2.2.2-2.2.2l-2.85-4.59z"/><ellipse cx="39.62" cy="91.83" fill="url(#prices-violet-W)" rx="2.79" ry="1.68"/><ellipse cx="39.69" cy="91.81" fill="url(#prices-violet-X)" rx="1.84" ry="1.03"/><path fill="url(#prices-violet-Y)" d="M8.94 107h36.7l12.53-37.17L9 59.33c1.85 22.11 2.75 22.81-.06 47.67z"/><path fill="#62626F" d="M13.56 107H8.94c2.81-24.86 1.91-25.56.06-47.67l3.9.83c1.37 7.42 3.56 24.31.66 46.84z" opacity=".63"/><path fill="#62626F" d="M58.17 69.83L45.64 107h-.71c5.25-22.46 6.18-33.72 6.22-38.67l7.02 1.5z" opacity=".62"/><path fill="#000" opacity=".35" d="M30.7 63.96L24.14 107h-4.56l3.25-44.72z"/><path fill="url(#prices-violet-Z)" d="M33.4 107H21.31c-1.09-1.65-2.41-4.07-2.06-5.83.35-1.76 1.8-3.49 3.21-4.95.82-.84 1.63-1.59 2.22-2.21a5.69 5.69 0 014.67 1.49c.44.451.78.99 1 1.58a6.58 6.58 0 01.37 1.75c.14 1.91-.22 3.94 1 5.79.53.75 1.1 1.57 1.68 2.38z"/><path fill="#FF2626" d="M46 101c-2.89 1.13-8.79.67-11.59.37a5.68 5.68 0 01-3.63-2.54 6.58 6.58 0 00-.37-1.75 4.53 4.53 0 00-1-1.58 5.69 5.69 0 00-4.67-1.49l.24-.26c1.5-1.67 2.66-2 3.66-4a8.14 8.14 0 00.71-2.34 16.68 16.68 0 0011.77.46A3 3 0 0042 89c2.73 1.82 7.22 4.31 7.46 4.51 1.92 4.09-.29 6.24-3.46 7.49z"/><path fill="#D80000" d="M51.38 107h-18c-.58-.81-1.15-1.63-1.65-2.38-1.23-1.85-.87-3.88-1-5.79a5.68 5.68 0 003.63 2.54c2.8.3 8.7.76 11.59-.37 3.21-1.25 5.42-3.4 3.5-7.49a17.88 17.88 0 011.92 4.61c.33 2.05-.37 5.88.01 8.88z"/><path fill="url(#prices-violet-aa)" d="M39.81 82.75v.4c-3.64.851-7.457.5-10.88-1a9.47 9.47 0 00-.5-.84c-2.3-3.57-10-13.23-10-13.23L41 72a91 91 0 00-1.21 10.08c0 .25 0 .48.02.67z"/><path fill="#000" d="M41.06 87.87a16.68 16.68 0 01-11.77-.46c.06-.3.1-.604.12-.91a9.88 9.88 0 00-.33-4.08 1.22 1.22 0 00-.11-.24 17.29 17.29 0 0010.88 1c.123 1.4.43 2.779.91 4.1.089.202.19.4.3.59z"/><path fill="#FF2626" d="M59.57 107h-8.19c-.41-3 .32-6.83 0-8.88a17.88 17.88 0 00-1.92-4.61c3.21 2.6 7.54 9.82 10.11 13.49z"/><path stroke="#614427" d="M24.68 94a5.39 5.39 0 014.67 1.49 4.64 4.64 0 011.39 3.33c0 2 0 5.25 2.17 7.6m18.47.57c-.41-1.92.08-7.09.05-8.48-.03-1.39-2-5-2-5"/><ellipse cx="62.412" cy="65.014" fill="url(#prices-violet-ab)" rx="9" ry="3.96" transform="rotate(-53.07 62.412 65.014)"/><path fill="url(#prices-violet-ac)" fill-rule="nonzero" d="M66.55 58.44a1.13 1.13 0 01.67.18c.49.37.59 1.43.28 2.77a15.29 15.29 0 01-2.72 5.41c-2.37 3.15-5.07 4.8-6.51 4.8a1.11 1.11 0 01-.67-.18c-.49-.37-.6-1.43-.28-2.77a15.29 15.29 0 012.72-5.41c2.37-3.15 5.07-4.8 6.51-4.8zm0-1c-2 0-4.91 2-7.31 5.2-3 4-4 8.26-2.24 9.58.37.262.817.395 1.27.38 2 0 4.91-2 7.31-5.2 3-4 4-8.26 2.24-9.58a2.08 2.08 0 00-1.27-.38z"/><ellipse cx="62.422" cy="64.323" fill="url(#prices-violet-ad)" rx="7.37" ry="3.24" transform="rotate(-53.07 62.422 64.323)"/><path fill="url(#prices-violet-ae)" d="M8.25 38.92S.33 38.54.33 44.08A16.61 16.61 0 009.5 59.42s15 17.39 28.5 19.07c14.08 1.75 20.3-3.88 25.33-11.32 5.42-8 8.25-27.66 8.25-27.66L69 24.67H22L8.25 38.92z"/><path fill="url(#prices-violet-af)" fill-rule="nonzero" d="M68.16 25.67l2.41 13.85c-.28 1.85-3.09 19.74-8.06 27.09-4.56 6.72-9.64 11.2-19.61 11.2a38.65 38.65 0 01-4.78-.31C25.18 75.89 10.4 58.93 10.26 58.76l-.15-.17-.22-.09a15.69 15.69 0 01-8.56-14.42c0-3.87 5.06-4.17 6.61-4.17h.72l.31-.33 13.45-13.94h45.74v.03zm.84-1.03H22L8.25 38.89h-.31c-1.46 0-7.61.29-7.61 5.17A16.61 16.61 0 009.5 59.4s15 17.39 28.5 19.07a39.28 39.28 0 004.9.32c10.71 0 16-5.13 20.43-11.64 5.42-8 8.25-27.66 8.25-27.66L69 24.67v-.03z"/><path fill="url(#prices-violet-ag)" d="M49.82 77.94c-2.55 0-5.31.55-8.28.29C24.42 76.76 9.92 58.08 8.67 57.1a3.58 3.58 0 00-2.79-.14 15 15 0 003.62 2.46s15 17.39 28.5 19.07a30.53 30.53 0 0011.82-.55z"/><path fill="url(#prices-violet-ah)" d="M16.75 45.92c3.66 5.94 12.9 7.78 19.08 5.91a30.88 30.88 0 016.65-1.6 6.72 6.72 0 017 4.27c1.16 2.61 4.38 4.39 5.67 4.92 2.77 1.14 7.2 2.45 10.5-1.5 2-2.44 3.77-7.26 3.58-13.59a13.7 13.7 0 00-4.83-9.83c-11-9.17-28.49-11-31.25-10.83-5.27.39-7.92 1.63-9.42 2.5-1.5.87-8.24 5.08-8.67 12.5a12.39 12.39 0 001.69 7.25z"/><path fill="url(#prices-violet-ai)" fill-rule="nonzero" d="M33.65 24.65c3.45 0 19.65 1.89 30.13 10.62a12.6 12.6 0 014.47 9.09c.19 6.32-1.61 10.82-3.35 12.92a5.92 5.92 0 01-4.78 2.3 12.38 12.38 0 01-4.57-1.09c-1.08-.44-4.12-2.1-5.14-4.4a7.65 7.65 0 00-7.27-4.88h-.73a25.53 25.53 0 00-5.8 1.31l-1.07.33a17 17 0 01-4.75.65c-5.71 0-10.89-2.41-13.19-6.14a11.32 11.32 0 01-1.52-6.67c.39-6.68 6.35-10.64 8.17-11.69 1.44-.83 3.95-2 9-2.37h.41l-.01.02zm.01-1.02h-.48c-5.27.39-7.92 1.63-9.42 2.5-1.5.87-8.24 5.08-8.67 12.5a12.39 12.39 0 001.67 7.25c2.75 4.46 8.66 6.61 14 6.61a17.35 17.35 0 005-.7 30.88 30.88 0 016.65-1.6h.66a6.63 6.63 0 016.36 4.29c1.16 2.61 4.38 4.39 5.67 4.92a13.3 13.3 0 005 1.16 6.94 6.94 0 005.55-2.66c2-2.44 3.77-7.26 3.58-13.59a13.7 13.7 0 00-4.83-9.83c-10.49-8.73-26.86-10.85-30.77-10.85h.03z"/><path fill="url(#prices-violet-aj)" d="M59.75 36.08a10.2 10.2 0 00-6.75 1 10 10 0 00-5.08 8.17 9.8 9.8 0 001.25 5.25c3.09 5.5 11.44 7.74 15 5.17 3.07-2.23 3.76-8.7 3.08-11.84a10.59 10.59 0 00-2.42-4.75 10.28 10.28 0 00-5.08-3z"/><path fill="url(#prices-violet-ak)" d="M44.25 37.75a12.46 12.46 0 00-4-6.5c-4.75-4.21-12.62-4.7-17.67-.92-.63.48-5 3.71-4.75 8.67.18 4.26 3.58 6.93 4.84 7.92 4.66 3.65 13.35 5.75 18.33.91 3.6-3.49 3.48-8.78 3.25-10.08z"/><path fill="url(#prices-violet-al)" d="M21.8 38.57a5.35 5.35 0 015-3.32c4.74-.19 11.17 1.79 12.36 5.19a6.65 6.65 0 01-7.44 8.18c-1.57-.14-7-1.11-9.15-3.28-1.67-1.74-1.57-4.53-.77-6.77z"/><path fill="url(#prices-violet-am)" d="M30.1 38.1a5.49 5.49 0 00-3.93 9.34 29.92 29.92 0 005.58 1.18 5 5 0 00.54 0 5.5 5.5 0 00-2.19-10.54v.02z"/><circle cx="30" cy="44" r="3" fill="url(#prices-violet-an)"/><circle cx="28" cy="40" r="2" fill="url(#prices-violet-ao)"/><path fill="url(#prices-violet-ap)" d="M50.81 46.31a6.18 6.18 0 015.45-3.11c3.5-.13 8.39 2.23 8.93 6.49.36 2.9-1.1 6.3-3.69 7.19-3.59 1.22-10.48-2.78-11.19-7.13a5.81 5.81 0 01.5-3.44z"/><path fill="url(#prices-violet-aq)" d="M54.1 45a5.47 5.47 0 00-3.06.93c-.08.12-.16.25-.23.38a5.64 5.64 0 00-.5 3.44c.39 2.4 2.67 4.69 5.23 6.05A5.5 5.5 0 0054.1 45z"/><circle cx="54" cy="50.9" r="3" fill="url(#prices-violet-ar)"/><path fill="url(#prices-violet-as)" d="M54 46.9a2 2 0 00-2-2h-.1a5 5 0 00-1.61 3 2 2 0 003.71-1z"/><path fill="url(#prices-violet-at)" d="M10.92 41.5A23.79 23.79 0 0127 34.08c10.25-.5 17.58 2.31 25.92 1.16a21.58 21.58 0 0012.91-6.74s-.08 9 1.09 12.5c1.17 3.5 1.16 15.65 1.16 15.65s3.74-5.85 3.5-10.73c-.24-4.88 1-15.75-2.91-19.34s-19.59-5.25-35.17-1.91c-15.58 3.34-21.08 5.08-22.58 8.66s0 8.17 0 8.17z"/><path fill="url(#prices-violet-au)" d="M7.58 46.17s-.08-3.34-2.08-3.34-2.75 1.75-2.83 3.34c-.08 1.59 1.16 5.56 3.75 5.56a10 10 0 01-1.3-4.06c0-2.59 2.46-1.5 2.46-1.5z"/><path fill="url(#prices-violet-av)" d="M5.55 43.42a2 2 0 011.53.56 1.75 1.75 0 00-1.58-1.15c-2 0-2.75 1.75-2.83 3.34 0 .864.167 1.72.49 2.52-.03-2.85.93-5.09 2.39-5.27z"/><path fill="url(#prices-violet-aw)" d="M67.87 56.84c4.55-3.84 7.08-13.32 7.08-21.6 0-3.44-1.63-12.4-7-13.93-.45-6.8-4.82-12.06-8.89-15.51C54.15 1.64 47.15.34 40.23.34 21 .34 4.69 18.5 4.69 39.46c0 0 2.7-1.46 3.2-.08s-.44 4.68 1.37 4.37C11.07 43.44 11 39.17 13 37s6.16-4.41 13.62-5c7.24-.58 18.58 1.07 24.76.38C57.56 31.69 66 28.29 66 28.29S69.06 38.38 69.25 42c.19 3.62.5 10.75-1.38 14.84z"/><path fill="url(#prices-violet-ax)" fill-rule="nonzero" d="M68.89 53.39A53.26 53.26 0 0069.25 42C69.06 38.38 66 28.29 66 28.29s-8.33 3.38-14.62 4.09c-6.29.71-17.52-1-24.76-.38a27.43 27.43 0 00-10.19 2.52c2.1-1.07 11.68-5.58 22.18-4.5 9.108.871 18.3.11 27.14-2.25 0 0 4.56 6.11 5 11.74.25 3.73-.98 10.05-1.86 13.88zm-.8 3.24s.13-.5.31-1.23c-.13.42-.27.82-.43 1.2h.11l.01.03z"/><path fill="url(#prices-violet-ay)" d="M55.42 8.25c-9.59 2.08-29.42 8.5-37.59 12.33C24.6 16.33 41.67 6.83 55.42 8.25z"/><path fill="url(#prices-violet-az)" d="M23.26 28.59a69.84 69.84 0 00-18.51 8.56c0 .76-.07 1.53-.07 2.31 0 0 1.69-.91 2.64-.61a88 88 0 0111.38-6A69.88 69.88 0 0133 28.64c2.6-.48 14.36-2.15 18.53-3.12a70.33 70.33 0 0013.3-4.89s-6.35 2.28-13.62 4.09c-3.08.71-20.12 1.7-27.95 3.87z"/><path fill="url(#prices-violet-aA)" d="M45.06 52.62c1.57.24 2.86 2.08 2.69 5.76-2-2.58-8.63-2.58-8.63-2.58s3.04-3.61 5.94-3.18z"/><path fill="url(#prices-violet-aB)" d="M39.12 55.8s3.76-2.63 6.19-1.9c2.43.73 2.44 4.48 2.44 4.48s-5.75-.52-8.63-2.58z"/><path fill="url(#prices-violet-aC)" d="M41 63.75a37.07 37.07 0 01-10.13-5.3c1.06 2.91 4.21 5.85 8.5 7.53 4.57 1.79 9.15 1.65 11.86 0A38.24 38.24 0 0141 63.75z"/><path fill="url(#prices-violet-aD)" fill-rule="nonzero" d="M34.77 62.14a42.38 42.38 0 005.87 2.55 43.33 43.33 0 005.58 1.57h-.41a17.06 17.06 0 01-6.1-1.21 17.66 17.66 0 01-4.94-2.91zm-3.93-3.69c1.06 2.91 4.21 5.85 8.5 7.53a18 18 0 006.47 1.28 10.22 10.22 0 005.39-1.33A38.24 38.24 0 0141 63.75a37.07 37.07 0 01-10.13-5.3h-.03z"/><path fill="url(#prices-violet-aE)" d="M33.17 56.46c.353.381.604.846.73 1.35a3.1 3.1 0 00-4 3.75 3.17 3.17 0 01-1.31-.81 3.123 3.123 0 014.54-4.29h.04z"/><path fill="url(#prices-violet-aF)" d="M51 63.39a1.76 1.76 0 00-1 .19 2.57 2.57 0 01-.45 4.12c.26.217.575.355.91.4a2.19 2.19 0 002.24-2.13 2.22 2.22 0 00-1.7-2.58z"/><path fill="url(#prices-violet-aG)" d="M41 63.75a37.27 37.27 0 01-10-5.23 22.75 22.75 0 008.81 5.85 21.82 21.82 0 0011.34 1.56A38.89 38.89 0 0141 63.75z"/><path fill="url(#prices-violet-aH)" d="M30.93 58.52a22.75 22.75 0 008.81 5.85 24.34 24.34 0 008.7 1.78 14.61 14.61 0 002.64-.22A38.89 38.89 0 0141 63.75a37.27 37.27 0 01-10-5.23h-.07z"/><ellipse cx="62.412" cy="65.014" fill="#E6C4B7" rx="9" ry="3.96" transform="rotate(-53.07 62.412 65.014)"/><ellipse cx="62.422" cy="64.323" fill="url(#prices-violet-aI)" rx="7.37" ry="3.24" transform="rotate(-53.07 62.422 64.323)"/><path fill="url(#prices-violet-aJ)" d="M8.25 38.92S.33 38.54.33 44.08A16.61 16.61 0 009.5 59.42s15 17.39 28.5 19.07c14.08 1.75 20.3-3.88 25.33-11.32 5.42-8 8.25-27.66 8.25-27.66L69 24.67H22L8.25 38.92z"/><path fill="#997369" d="M49.82 77.94c-2.55 0-5.31.55-8.28.29C24.42 76.76 9.92 58.08 8.67 57.1a3.58 3.58 0 00-2.79-.14 15 15 0 003.62 2.46s15 17.39 28.5 19.07a30.53 30.53 0 0011.82-.55z" opacity=".33"/><path fill="url(#prices-violet-aK)" d="M16.75 45.92c3.66 5.94 12.9 7.78 19.08 5.91a30.88 30.88 0 016.65-1.6 6.72 6.72 0 017 4.27c1.16 2.61 4.38 4.39 5.67 4.92 2.77 1.14 7.2 2.45 10.5-1.5 2-2.44 3.77-7.26 3.58-13.59a13.7 13.7 0 00-4.83-9.83c-11-9.17-28.49-11-31.25-10.83-5.27.39-7.92 1.63-9.42 2.5-1.5.87-8.24 5.08-8.67 12.5a12.39 12.39 0 001.69 7.25z"/><path fill="url(#prices-violet-aL)" d="M59.75 36.08a10.2 10.2 0 00-6.75 1 10 10 0 00-5.08 8.17 9.8 9.8 0 001.25 5.25c3.09 5.5 11.44 7.74 15 5.17 3.07-2.23 3.76-8.7 3.08-11.84a10.59 10.59 0 00-2.42-4.75 10.28 10.28 0 00-5.08-3z"/><path fill="url(#prices-violet-aM)" d="M44.25 37.75a12.46 12.46 0 00-4-6.5c-4.75-4.21-12.62-4.7-17.67-.92-.63.48-5 3.71-4.75 8.67.18 4.26 3.58 6.93 4.84 7.92 4.66 3.65 13.35 5.75 18.33.91 3.6-3.49 3.48-8.78 3.25-10.08z"/><path fill="url(#prices-violet-aN)" d="M21.8 38.57a5.35 5.35 0 015-3.32c4.74-.19 11.17 1.79 12.36 5.19a6.65 6.65 0 01-7.44 8.18c-1.57-.14-7-1.11-9.15-3.28-1.67-1.74-1.57-4.53-.77-6.77z"/><path fill="url(#prices-violet-aO)" d="M30.1 38.1a5.49 5.49 0 00-3.93 9.34 29.92 29.92 0 005.58 1.18 5 5 0 00.54 0 5.5 5.5 0 00-2.19-10.54v.02z"/><circle cx="30" cy="44" r="3" fill="#262633"/><circle cx="28" cy="40" r="2" fill="#FFF"/><path fill="url(#prices-violet-aP)" d="M50.81 46.31a6.18 6.18 0 015.45-3.11c3.5-.13 8.39 2.23 8.93 6.49.36 2.9-1.1 6.3-3.69 7.19-3.59 1.22-10.48-2.78-11.19-7.13a5.81 5.81 0 01.5-3.44z"/><path fill="url(#prices-violet-aQ)" d="M54.1 45a5.47 5.47 0 00-3.06.93c-.08.12-.16.25-.23.38a5.64 5.64 0 00-.5 3.44c.39 2.4 2.67 4.69 5.23 6.05A5.5 5.5 0 0054.1 45z"/><circle cx="54" cy="50.9" r="3" fill="#262633"/><path fill="#FFF" d="M54 46.9a2 2 0 00-2-2h-.1a5 5 0 00-1.61 3 2 2 0 003.71-1z"/><path fill="#000" d="M10.92 41.5A23.79 23.79 0 0127 34.08c10.25-.5 17.58 2.31 25.92 1.16a21.58 21.58 0 0012.91-6.74s-.08 9 1.09 12.5c1.17 3.5 1.16 15.65 1.16 15.65s3.74-5.85 3.5-10.73c-.24-4.88 1-15.75-2.91-19.34s-19.59-5.25-35.17-1.91c-15.58 3.34-21.08 5.08-22.58 8.66s0 8.17 0 8.17z" opacity=".2"/><path fill="#997369" d="M7.58 46.17s-.08-3.34-2.08-3.34-2.75 1.75-2.83 3.34c-.08 1.59 1.16 5.56 3.75 5.56a10 10 0 01-1.3-4.06c0-2.59 2.46-1.5 2.46-1.5z" opacity=".32"/><path fill="#997369" d="M5.55 43.42a2 2 0 011.53.56 1.75 1.75 0 00-1.58-1.15c-2 0-2.75 1.75-2.83 3.34 0 .864.167 1.72.49 2.52-.03-2.85.93-5.09 2.39-5.27z" opacity=".32"/><path fill="url(#prices-violet-aR)" d="M67.87 56.84c4.55-3.84 7.08-13.32 7.08-21.6 0-3.44-1.63-12.4-7-13.93-.45-6.8-4.82-12.06-8.89-15.51C54.15 1.64 47.15.34 40.23.34 21 .34 4.69 18.5 4.69 39.46c0 0 2.7-1.46 3.2-.08s-.44 4.68 1.37 4.37C11.07 43.44 11 39.17 13 37s6.16-4.41 13.62-5c7.24-.58 18.58 1.07 24.76.38C57.56 31.69 66 28.29 66 28.29S69.06 38.38 69.25 42c.19 3.62.5 10.75-1.38 14.84z"/><path fill="#262633" fill-rule="nonzero" d="M68.89 53.39A53.26 53.26 0 0069.25 42C69.06 38.38 66 28.29 66 28.29s-8.33 3.38-14.62 4.09c-6.29.71-17.52-1-24.76-.38a27.43 27.43 0 00-10.19 2.52c2.1-1.07 11.68-5.58 22.18-4.5 9.108.871 18.3.11 27.14-2.25 0 0 4.56 6.11 5 11.74.25 3.73-.98 10.05-1.86 13.88zm-.8 3.24s.13-.5.31-1.23c-.13.42-.27.82-.43 1.2h.11l.01.03z"/><path fill="#000" d="M55.42 8.25c-9.59 2.08-29.42 8.5-37.59 12.33C24.6 16.33 41.67 6.83 55.42 8.25zM23.26 28.59a69.84 69.84 0 00-18.51 8.56c0 .76-.07 1.53-.07 2.31 0 0 1.69-.91 2.64-.61a88 88 0 0111.38-6A69.88 69.88 0 0133 28.64c2.6-.48 14.36-2.15 18.53-3.12a70.33 70.33 0 0013.3-4.89s-6.35 2.28-13.62 4.09c-3.08.71-20.12 1.7-27.95 3.87z" opacity=".37"/><path fill="#FFD9CC" d="M45.06 52.62c1.57.24 2.86 2.08 2.69 5.76-2-2.58-8.63-2.58-8.63-2.58s3.04-3.61 5.94-3.18z"/><path fill="#CC998C" d="M39.12 55.8s3.76-2.63 6.19-1.9c2.43.73 2.44 4.48 2.44 4.48s-5.75-.52-8.63-2.58z"/><path fill="#8C7373" d="M41 63.75a37.07 37.07 0 01-10.13-5.3c1.06 2.91 4.21 5.85 8.5 7.53 4.57 1.79 9.15 1.65 11.86 0A38.24 38.24 0 0141 63.75z"/><path fill="url(#prices-violet-aS)" d="M33.17 56.46c.353.381.604.846.73 1.35a3.1 3.1 0 00-4 3.75 3.17 3.17 0 01-1.31-.81 3.123 3.123 0 014.54-4.29h.04z"/><path fill="url(#prices-violet-aT)" d="M51 63.39a1.76 1.76 0 00-1 .19 2.57 2.57 0 01-.45 4.12c.26.217.575.355.91.4a2.19 2.19 0 002.24-2.13 2.22 2.22 0 00-1.7-2.58z"/><path fill="#5C5C5C" d="M41 63.75a37.27 37.27 0 01-10-5.23 22.75 22.75 0 008.81 5.85 21.82 21.82 0 0011.34 1.56A38.89 38.89 0 0141 63.75z"/><path fill="#D99900" d="M48.85 95.5c.59 2.94-3.69 4.82-8.7 4-4.2-.69-6.88-3-6.59-5.14.27-1.93 3-3.37 6.51-3.37 4.07.01 8.25 1.91 8.78 4.51z"/><path fill="#262633" d="M40 92s-4.74 2.14-4 4c1.33 3.33 7.25 2.25 7.25 2.25v-.92s4-.66 3.54-2.54c-.46-1.88-3.67-3.12-4.91-3A15.87 15.87 0 0140 92z"/><path fill="#F2B200" d="M39.62 95.12l3.26-1.16 3.63 5s-1.33.46-1.84.55c-.51.09-2.2.2-2.2.2l-2.85-4.59z"/><ellipse cx="39.62" cy="91.83" fill="#F2B200" rx="2.79" ry="1.68"/><ellipse cx="39.69" cy="91.81" fill="#FFF" rx="1.84" ry="1.03"/></g></svg>