<svg xmlns="http://www.w3.org/2000/svg" xmlns:xlink="http://www.w3.org/1999/xlink" width="400" height="192" viewBox="0 0 400 192">
  <defs>
    <path id="bg-benefits-of-supermark-development-a" d="M59.5,272 C92.3609426,272 119,245.360943 119,212.5 C119,179.639057 92.3609426,153 59.5,153 C26.6390574,153 0,179.639057 0,212.5 C0,245.360943 26.6390574,272 59.5,272 Z"/>
    <mask id="bg-benefits-of-supermark-development-b" width="119" height="119" x="0" y="0" fill="#fff">
      <use xlink:href="#bg-benefits-of-supermark-development-a"/>
    </mask>
  </defs>
  <g fill="none" fill-rule="evenodd" transform="translate(16 -22)">
    <use stroke="#FFF" stroke-dasharray="2" stroke-opacity=".4" stroke-width="2" mask="url(#bg-benefits-of-supermark-development-b)" xlink:href="#bg-benefits-of-supermark-development-a"/>
    <circle cx="183" cy="37" r="37" fill="#FFF" fill-opacity=".16"/>
    <circle cx="132.5" cy="118.5" r="59.5" fill="#FFF" fill-opacity=".2"/>
    <g transform="translate(55 31)">
      <path fill="#D99900" d="M61,192 L61,184.885 C59.972,186.733 58.724,188.5 57.276,191.5 L57.488,191.5 L57.088,192 L8.13,192 L22.221,169.779 C25.0315515,164.932436 27.2006963,159.741346 28.674,154.336 C29.3250334,152.000853 30.2185626,149.740217 31.34,147.591 C31.9604697,146.225723 32.6655055,144.900483 33.451,143.623 C33.894,142.752 34.383,141.653 34.951,140.403 C35.282,139.67 35.632,138.876 36.005,138.072 L36.005,121 C36.005,109.421 45.425,100.5 57.005,100.5 L72.432,100.5 C70.118,95.5 70.652,90.533 73.943,86.873 C81.0021377,79.2991659 88.9697989,72.6263084 97.665,67.006 C95.593,65.365 93.587,61.953 92.265,57.784 C90.45,52.042 90.348,45.297 93.734,44.163 C94.0205253,44.0606488 94.3217942,44.0055963 94.626,44 C94.8938217,43.9997647 95.1606004,44.033364 95.42,44.1 L95,41.069 L95,35 C95.0131669,28.8692065 96.8932488,22.8878251 100.39,17.852 L100.963,17.031 L100.991,17.301 C106.677947,9.79246764 115.581273,5.41626922 125,5.5 L128,5.5 C137.39079,5.41356193 146.272422,9.76079886 151.965,17.23 L152.065,17.023 L152.611,17.915 C156.055139,22.9390025 157.930666,28.8721965 158,34.963 L158,41.069 L157.58,44.092 C157.839473,44.0257486 158.106203,43.9921554 158.374,43.992 C158.676107,43.9913949 158.976322,44.0396858 159.263,44.135 C162.648,45.269 162.546,51.983 160.73,57.724 C159.949416,60.3186721 158.742609,62.7654058 157.159,64.964 C172.337,73.704 183.939,86.743 184.059,86.875 C187.351,90.536 187.884,95.503 185.57,100.503 L195,100.503 C206.579,100.503 216,109.424 216,121.003 L216,192.003 L61,192.003 L61,192 Z"/>
      <g transform="translate(9 64)">
        <path fill="#D99900" d="M0.008,128 L14.063,106.069 C16.863,101.32 19.824,94.278 20.652,90.421 C21.48,86.564 26.26,78.336 25.165,80.402 C29.14,72.9 36.992,45.92 55,73 C70.753,96.688 44.835,129.916 46.4,128 L0.008,128 L0.008,128 Z" opacity=".5"/>
        <path fill="#E5A600" d="M1.692,128 L14.874,106.725 C17.738,101.846 20.741,94.557 21.587,90.598 C22.194,87.762 25.248,81.977 25.967,80.744 L26,80.73 L26.054,80.612 C26.548,79.666 27.081,78.468 27.699,77.089 C30.39,71.089 34.456,62.007 40.549,62.007 C44.523,62.007 49.073,66.08 54.073,73.624 C66.146,91.84 51.123,118.159 45.215,128 L1.692,128 L1.692,128 Z"/>
        <rect width="153" height="54" x="53" y="74" fill="#E5A600"/>
        <path fill="#D99900" d="M166 74L167 74 167 128 166 128 166 74 166 74 166 74zM53 74L54 74 54 128 53 128 53 74 53 74 53 74zM205 74L206 74 206 128 205 128 205 74 205 74 205 74zM28 74L28 57C28 45.954305 36.954305 37 48 37L186 37C197.045695 37 206 45.954305 206 57L206 74 28 74 28 74z"/>
        <path fill="#E5A600" d="M29,73 L29,56.5 C29,46.023 37.523,38 48,38 L186,38 C196.477,38 205,46.023 205,56.5 L205,73 L29,73 L29,73 Z"/>
        <path fill="#F2B200" d="M132.347,17.045 L141.355,31.789 C144.233,36.5 144.875,44.515 142.781,49.602 L127.847,85.888 C125.753,90.974 125.56,99.368 127.416,104.54 L134.9,128 L105.1,128 L112.586,104.54 C114.442,99.368 114.249,90.974 112.155,85.888 L97.219,49.6 C95.125,44.513 95.767,36.5 98.645,31.787 L107.653,17.043 C108.240335,16.1159887 108.638005,15.0817066 108.823,14 L131.177,14 C131.361741,15.0824003 131.75942,16.1173855 132.347,17.045 L132.347,17.045 Z"/>
        <path fill="#D99900" d="M107.208,16.875 L98.365,31.694 C95.539,36.429 94.909,44.484 96.965,49.594 L109.993,82 L66.057,37.881 C62.1551539,33.8553463 61.9937959,27.509758 65.686,23.291 C65.686,23.291 77.871,9.752 93.813,0.991 C93.813,0.995 110,12.2 107.208,16.875 L107.208,16.875 Z M132.792,16.875 L141.635,31.694 C144.461,36.429 145.091,44.484 143.035,49.594 L130.007,82 L173.943,37.881 C177.844846,33.8553463 178.006204,27.509758 174.314,23.291 C174.314,23.291 162.129,9.752 146.187,0.991 C146.187,0.995 130,12.2 132.792,16.875 L132.792,16.875 Z"/>
        <path fill="#E5A600" d="M66.744,37.179 C63.1991273,33.5367151 63.0532109,27.7802033 66.409,23.963 C66.528,23.831 78.396,10.754 93.742,2.176 C103.98,9.364 107.288,14.786 106.342,16.367 L97.5,31.184 C94.526,36.165 93.867,44.592 96.03,49.971 L107.23,77.809 L66.744,37.179 Z M143.973,49.971 C146.137,44.592 145.473,36.165 142.503,31.185 L133.656,16.367 C132.712,14.786 136.02,9.367 146.256,2.177 C161.613,10.761 173.471,23.832 173.59,23.964 C176.944409,27.7814857 176.798073,33.5369127 173.254,37.179 L132.773,77.809 L143.973,49.971 Z"/>
        <path fill="#D99900" d="M70.931,58.988 L93.284,41.533 C94.1468814,40.8479203 95.1305332,40.3306551 96.184,40.008 C95.850142,43.1160584 96.2290717,46.2593279 97.292,49.199 L111.927,85.255 C112.396624,86.4676135 112.752163,87.7213731 112.989,89 L72.089,69.446 C67.125,67.072 66.6,62.367 70.931,58.988 L70.931,58.988 Z M169.069,58.988 L146.716,41.533 C145.853119,40.8479203 144.869467,40.3306551 143.816,40.008 C144.149858,43.1160584 143.770928,46.2593279 142.708,49.199 L128.073,85.255 C127.603376,86.4676135 127.247837,87.7213731 127.011,89 L167.911,69.446 C172.875,67.072 173.4,62.367 169.069,58.988 L169.069,58.988 Z"/>
        <path fill="#E5A600" d="M72.513,68.54 C70.433,67.546 69.19,66.101 69.013,64.474 C68.836,62.847 69.734,61.182 71.541,59.774 L93.9,42.313 C94.2769084,42.0179211 94.6783725,41.7556313 95.1,41.529 C94.9777142,44.2670855 95.4093321,47.0016855 96.369,49.569 L111,85.632 C111.204427,86.1429363 111.381675,86.6643319 111.531,87.194 L72.513,68.54 Z M128.468,87.2 C128.617046,86.6702451 128.794299,86.1488348 128.999,85.638 L143.637,49.574 C144.596728,47.0067208 145.028018,44.2720407 144.905,41.534 C145.326981,41.7600364 145.728495,42.0223589 146.105,42.318 L168.462,59.776 C170.268,61.187 171.162,62.857 170.989,64.476 C170.816,66.095 169.568,67.548 167.489,68.542 L128.468,87.2 Z"/>
        <path fill="#E5A600" d="M119,64 C119.067,67.05 117,72 117,72 C117.319382,69.6775957 117.319382,67.3224043 117,65 C116.424,62.068 103.462,55.34 103,51 C102.775,48.888 100.163,49.073 97.542,49.815 L97.292,49.199 C97.075408,48.6405794 96.894052,48.0691244 96.749,47.488 C98.0041296,46.6142821 99.4739673,46.099787 101,46 C103.116,45.949 104.777,45.88 106.14,45.76 C107.265897,47.4067949 108.224013,49.1622237 109,51 C109.433,52.659 108.959,54.237 110,56 C111.041,57.763 118.8,63.081 118,67 C119.588,61.267 112.488,60.749 112,56 C111.512,51.251 112.706,52.3 111,49 C110.340205,47.7440016 109.600693,46.5315229 108.786,45.37 C109.19927,45.2768978 109.605054,45.1532242 110,45 C111.729,44.3 113.923,44.435 114,47 C114.077,49.565 110.533,55.062 113,57 C115.467,58.938 118.933,60.95 119,64 L119,64 Z M139,36.618 L141.857,39.493 L139,40.452 L138.6,36.838 C137.733,37.253 135.629,37.889 134.237,35.181 C133.437,33.628 134.165,29.606 134.713,27.994 C135.093,30.294 141.465,33.877 141.856,35.661 C142.247,37.445 139,36.618 139,36.618 L139,36.618 Z M135.381,42.806 C136.226087,42.4174824 137.024777,41.935115 137.762,41.368 L140.219,43.841 C139.696,43.927 141.85,43.373 143.897,42.741 C143.889,43.115 143.854,43.479 143.828,43.848 C143.209,44.041 140.955,44.821 140.149,45.13 C140.448396,45.7409304 140.589384,46.4173306 140.559,47.097 C140.591,48.213 140.648,48.576 141.631,48.79 C142.01362,48.8784481 142.40437,48.9270406 142.797,48.935 L142.409,49.949 C142.076384,49.9246206 141.745899,49.8768357 141.42,49.806 C139.061,49.291 139.72,47.366 139.471,46.232 C139.405078,45.9631442 139.308443,45.7027655 139.183,45.456 C138.268643,45.7769836 137.286639,45.8551994 136.333,45.683 C134.499,45.183 133,42.808 133,42.808 C133,42.808 133.78,43.582 135.377,42.806 L135.381,42.806 Z M133.481,48.842 L134.73,52.584 L135.042,52.376 L134.5,47.05 L135.405,46.709 L140.405,53.709 L138.275,51.416 L135.499,53.267 L135.499,54.923 L136.472,57.842 L135.5,55.7 L135.5,57.047 L135.328,55.322 L134.964,54.522 L131.731,55.33 L134,61 L128,51 L130,51 L131.358,54.395 L134.545,53.595 L132.526,49.155 L133.481,48.842 Z M135.507,52.066 L137.638,50.645 L135.5,48.29 L135.507,52.066 Z M137.514,62 L137.214,62.732 L135.581,60.282 L136.413,59.728 L137.514,62 Z M115.5,71 C117.985281,71 120,73.0147186 120,75.5 C120,77.9852814 117.985281,80 115.5,80 C113.014719,80 111,77.9852814 111,75.5 C111,73.0147186 113.014719,71 115.5,71 L115.5,71 Z M115.5,72 C117.432997,72 119,73.5670034 119,75.5 C119,77.4329966 117.432997,79 115.5,79 C113.567003,79 112,77.4329966 112,75.5 C112,73.5670034 113.567003,72 115.5,72 L115.5,72 Z"/>
      </g>
      <g transform="translate(92 10)">
        <path fill="#D99900" d="M29.933,0 L40.166,0 C58.634,0 66.966,33.5 58.918,58.638 L54.276,73.143 C50.758,84.137 42.958,93 36.631,93 L33.2,93 C26.872,93 19.087,84.137 15.6,73.144 L11,58.639 C3.038,33.51 11.462,0 29.933,0 L29.933,0 Z M23.181,87.005 L17.552,69.77 C16.9369744,67.8761859 15.3333911,66.4718508 13.375,66.112 L13.035,65.038 C15.5674501,65.2988938 17.7063857,67.0317769 18.487,69.455 L24.693,88.455 C24.716,88.525 24.73,88.595 24.75,88.666 C24.2186667,88.15 23.6956667,87.5963333 23.181,87.005 L23.181,87.005 Z M56.519,66.134 C54.6120382,66.5303273 53.0635084,67.9178223 52.461,69.77 L46.924,86.694 C46.392,87.321 45.854,87.923 45.304,88.469 L45.304,88.456 L51.521,69.456 C52.2924179,67.0759413 54.3760638,65.3607094 56.86,65.061 L56.519,66.134 Z M10.184,55.769 C9.92694663,56.2844579 9.48696585,56.6855749 8.95,56.894 C6.587,57.685 3.127,53.444 1.223,47.42 C-0.681,41.396 -0.309,35.871 2.055,35.08 C3.807,34.493 6.161,36.68 8.038,40.298 C8.061,41.188 10.034,55.2 10.184,55.769 L10.184,55.769 Z M58.816,55.769 C59.0730534,56.2844579 59.5130341,56.6855749 60.05,56.894 C62.413,57.685 65.873,53.444 67.777,47.42 C69.681,41.396 69.309,35.871 66.945,35.08 C65.193,34.493 62.839,36.68 60.962,40.298 C60.939,41.188 58.966,55.2 58.816,55.769 L58.816,55.769 Z"/>
        <path fill="#F2B200" d="M33.2,92.5 C27.371,92.5 19.9,83.655 16.555,73.091 L11.955,58.461 C6.54,41.381 8.731,20.116 17.05,8.746 C20.609,3.883 25.063,1.5 29.93,1.5 L40.162,1.5 C45.024,1.5 49.467,3.816 53.009,8.67 C61.303,20.037 63.433,41.37 57.964,58.459 L53.321,73.151 C49.939,83.716 42.451,92.5 36.628,92.5 L33.2,92.5 L33.2,92.5 Z"/>
        <path fill="#F2B200" d="M59.82,55.487 C59.9505033,55.6928645 60.1416038,55.8532213 60.367,55.946 C60.4556552,55.975454 60.5485853,55.9899849 60.642,55.989 C62.274,55.989 65.142,52.425 66.824,47.119 C68.748,41.034 67.993,36.486 66.624,36.029 C66.5349413,35.9997914 66.4417233,35.9852683 66.348,35.986 C65.204,35.986 63.448,37.766 61.928,40.645 C61.955,39.946 59.723,55.86 59.82,55.487 L59.82,55.487 Z M9.754,54.046 C9.70289293,54.8213016 9.2869123,55.5263535 8.633,55.946 C8.54434483,55.975454 8.45141471,55.9899849 8.358,55.989 C6.726,55.989 3.853,52.425 2.176,47.119 C0.252,41.034 1.008,36.486 2.376,36.029 C2.46472364,35.9998293 2.55760656,35.9853057 2.651,35.986 C4.081,35.986 6.463,38.724 8.161,42.971 C8.1,42.079 9.888,54.624 9.754,54.046 L9.754,54.046 Z"/>
        <path fill="#E5A600" d="M23.181,87.005 L17.552,69.77 C16.9369744,67.8761859 15.3333911,66.4718508 13.375,66.112 L13.035,65.038 C15.5674501,65.2988938 17.7063857,67.0317769 18.487,69.455 L24.693,88.455 C24.716,88.525 24.73,88.595 24.75,88.666 C24.2186667,88.15 23.6956667,87.5963333 23.181,87.005 L23.181,87.005 Z M56.519,66.134 C54.6120382,66.5303273 53.0635084,67.9178223 52.461,69.77 L46.924,86.694 C46.392,87.321 45.854,87.923 45.304,88.469 L45.304,88.456 L51.521,69.456 C52.2924179,67.0759413 54.3760638,65.3607094 56.86,65.061 L56.519,66.134 Z"/>
        <path fill="#D99900" d="M24.565 33.19C24.7102212 33.1231643 24.8587462 33.0637543 25.01 33.012 25.1853333 32.9506667 25.371 32.8943333 25.567 32.843 25.7443586 32.7967136 25.9248278 32.7632934 26.107 32.743 25.4456181 33.5981993 24.8720566 34.5178408 24.395 35.488 24.3533324 35.5795227 24.3198679 35.674562 24.295 35.772 24.2718385 35.8763553 24.2614291 35.9831362 24.264 36.09 24.2603849 36.1702054 24.2708775 36.2504227 24.295 36.327 24.3105933 36.3760918 24.3472509 36.4156821 24.395 36.435 24.4596299 36.4553808 24.5272794 36.4645135 24.595 36.462 25.0634094 36.4588779 25.5279329 36.3767242 25.969 36.219 26.4181087 36.0656155 26.8407767 35.8436558 27.222 35.561 27.5765143 35.3006547 27.8782194 34.9751933 28.111 34.602 28.3250011 34.2669883 28.4404002 33.8785127 28.444 33.481 28.4474106 33.2472992 28.4059969 33.0151106 28.322 32.797 28.2467169 32.601864 28.1284585 32.4261852 27.976 32.283 27.8138655 32.1360493 27.6227684 32.0246612 27.415 31.956 27.1782302 31.876424 26.9297689 31.837211 26.68 31.84 26.4147017 31.8407362 26.1502271 31.8695636 25.891 31.926 25.6423092 31.9769063 25.3971394 32.0437101 25.157 32.126 24.9522068 32.1973285 24.751851 32.2808102 24.557 32.376 24.4219148 32.4389842 24.2933042 32.5150118 24.173 32.603 23.9546895 32.8157045 23.8462811 33.1169618 23.879 33.42 23.8647274 33.4739948 23.8763268 33.531556 23.9103976 33.5758089 23.9444684 33.6200619 23.9971507 33.6459929 24.053 33.646 24.0974569 33.6444431 24.1413641 33.6356616 24.183 33.62 24.233 33.603 24.316 33.569 24.431 33.52 24.546 33.471 24.658 33.42 24.766 33.38 24.8930531 33.3315617 25.0225652 33.2898374 25.154 33.255 25.003129 33.2586935 24.852729 33.2733993 24.704 33.299 24.539 33.326 24.446 33.34 24.426 33.34 24.406 33.34 24.381 33.332 24.381 33.316 24.4262568 33.2543356 24.4911447 33.2099015 24.565 33.19L24.565 33.19zM26.726 32.698C27.0778571 32.6757044 27.4277846 32.7649359 27.726 32.953 27.9561956 33.1213231 28.0862369 33.3941843 28.072 33.679 28.0684029 33.9659351 27.9723079 34.2440494 27.798 34.472 27.5985418 34.7412623 27.351468 34.971729 27.069 35.152 26.7661276 35.3515706 26.4378716 35.5096447 26.093 35.622 25.7755932 35.729767 25.4431763 35.786801 25.108 35.791 25.0139702 35.794675 24.9199921 35.7825052 24.83 35.755 24.7715102 35.7418878 24.7299532 35.6899415 24.73 35.63 24.7328128 35.5887535 24.7422678 35.5482319 24.758 35.51 24.7817612 35.4450394 24.8108606 35.3821579 24.845 35.322L24.932 35.165C24.95 35.133 24.9833333 35.0716667 25.032 34.981 25.1846667 34.6936667 25.318 34.4603333 25.432 34.281 25.543 34.099 25.678 33.887 25.832 33.645 25.986 33.403 26.095 33.235 26.148 33.145 26.192058 33.0788422 26.2195013 33.00303 26.228 32.924 26.227472 32.8833482 26.2231195 32.8428362 26.215 32.803 26.206 32.756 26.201 32.731 26.201 32.726 26.363 32.712 26.536 32.706 26.721 32.706L26.721 32.706 26.726 32.698zM28.505 34.926C28.4514393 34.9910794 28.4107186 35.065734 28.385 35.146 28.3627638 35.2335516 28.3523381 35.3236841 28.354 35.414 28.3537002 35.5615119 28.3836503 35.7075187 28.442 35.843 28.490213 35.9653074 28.5577379 36.0790868 28.642 36.18 28.6850569 36.2464437 28.752634 36.2931726 28.83 36.31 28.9870152 36.2823143 29.1289193 36.1993004 29.23 36.076 29.392 35.92 29.6393333 35.6573333 29.972 35.288 29.8621498 35.5360257 29.7945509 35.8006757 29.772 36.071 29.7662173 36.16066 29.785982 36.2501215 29.829 36.329 29.8717897 36.3898551 29.9439438 36.4230688 30.018 36.416 30.5231365 36.2374052 30.9572631 35.9007643 31.256 35.456L31.256 35.248C31.0572011 35.4694206 30.7961183 35.6255822 30.507 35.696 30.4398506 35.7024522 30.3735661 35.6770141 30.3279737 35.6272949 30.2823813 35.5775756 30.2627678 35.5093403 30.275 35.443 30.2719548 35.3518341 30.2948412 35.2616756 30.341 35.183 30.386 35.112 30.463 35.002 30.574 34.853 30.6532987 34.765949 30.7102652 34.6609385 30.74 34.547 30.738939 34.5146292 30.7318158 34.4827447 30.719 34.453 30.705 34.418 30.686 34.372 30.661 34.315L30.599 34.175C30.657107 34.1570854 30.713364 34.133645 30.767 34.105 30.7982474 34.0860284 30.8166528 34.0515183 30.815 34.015 30.8104912 33.9743947 30.7982725 33.9350234 30.779 33.899 30.7547432 33.8467677 30.7208117 33.7996029 30.679 33.76 30.644046 33.7230374 30.5958516 33.7014578 30.545 33.7 30.2804716 33.724669 30.0236609 33.8025626 29.79 33.929 29.4211206 34.1110123 29.0813963 34.346932 28.782 34.629 28.6831006 34.721666 28.5905576 34.8208907 28.505 34.926L28.505 34.926zM29.711 35.177C29.5233109 35.3949488 29.3018212 35.5813242 29.055 35.729 29.014122 35.7533111 28.9689821 35.7696022 28.922 35.777 28.8780119 35.7747425 28.8391775 35.7475584 28.822 35.707 28.7952479 35.6512455 28.7825451 35.5897917 28.785 35.528 28.8108059 35.284514 28.9507308 35.0677605 29.162 34.944 29.5607906 34.672903 29.9851448 34.4414676 30.429 34.253 30.149 34.6423333 29.9096667 34.9506667 29.711 35.178L29.711 35.177zM33.089 35.009C33.1977713 34.8529262 33.297921 34.6910175 33.389 34.524 33.4396766 34.4406856 33.4736422 34.3482992 33.489 34.252 33.4911966 34.1826927 33.4676895 34.1150206 33.423 34.062 33.3809172 34.0119144 33.3184031 33.9835992 33.253 33.985 33.1007809 34.0023961 32.957967 34.0675024 32.845 34.171 32.6609611 34.3158019 32.4862781 34.4721148 32.322 34.639 32.134 34.827 31.9613333 35.0006667 31.804 35.16 31.7253545 35.2608939 31.6248277 35.3426147 31.51 35.399 31.4871643 35.3990687 31.4655759 35.3885905 31.451502 35.3706071 31.4374281 35.3526238 31.4324452 35.3291499 31.438 35.307 31.451588 35.2305173 31.4834976 35.1584634 31.531 35.097 31.5858254 35.0083059 31.650944 34.9264042 31.725 34.853 31.840494 34.7499702 31.9465799 34.6368565 32.042 34.515 32.1039301 34.4490053 32.1467869 34.3674392 32.166 34.279 32.1661869 34.2328616 32.1396869 34.1907734 32.098 34.171 32.0467262 34.1435547 31.9891262 34.1301032 31.931 34.132 31.8139977 34.13602 31.7036094 34.187246 31.625 34.274 31.486323 34.420323 31.3608358 34.5786042 31.25 34.747 31.1690938 34.8696157 31.0965942 34.9975758 31.033 35.13 30.9840436 35.2456761 30.960185 35.3704223 30.963 35.496 30.9595045 35.6714886 30.9957417 35.8454955 31.069 36.005 31.0974116 36.1156459 31.1861965 36.2005538 31.298 36.224 31.3468506 36.2200085 31.3916401 36.1952468 31.421 36.156 31.4922094 36.0687629 31.5589613 35.9779803 31.621 35.884 31.6991177 35.7691111 31.7839311 35.6589204 31.875 35.554 32.1456667 35.2533333 32.3286667 35.0556667 32.424 34.961 32.4781281 34.8904181 32.5546511 34.8403431 32.641 34.819 32.6597378 34.8162789 32.6786606 34.8225621 32.6920493 34.8359507 32.7054379 34.8493394 32.7117211 34.8682622 32.709 34.887 32.7110337 34.9167 32.7040636 34.9463229 32.689 34.972 32.525 35.2453333 32.3983333 35.4703333 32.309 35.647 32.2420521 35.7599141 32.1969347 35.8844108 32.176 36.014 32.176 36.183 32.235 36.267 32.354 36.267 32.4966708 36.2487898 32.6253072 36.1719703 32.709 36.055L32.979 35.746C33.093 35.6126667 33.24 35.4593333 33.42 35.286 33.6 35.1126667 33.8063333 34.9303333 34.039 34.739 33.961 34.8663333 33.8756667 35.007 33.783 35.161 33.6903333 35.315 33.615 35.4466667 33.557 35.556 33.5081069 35.6475947 33.4656703 35.7424922 33.43 35.84 33.4035028 35.9158909 33.3896518 35.995619 33.389 36.076 33.3866195 36.1494087 33.4123755 36.2209532 33.461 36.276 33.5054328 36.3278789 33.5707049 36.3572147 33.639 36.356 33.7457155 36.3479119 33.8487747 36.3135588 33.939 36.256 34.0883622 36.1688321 34.229596 36.068429 34.361 35.956 34.523 35.8226667 34.703 35.6613333 34.901 35.472L34.901 35.227C34.701 35.4023333 34.5556667 35.5243333 34.465 35.593 34.3982264 35.6500146 34.3154331 35.6849485 34.228 35.693 34.1735953 35.6940838 34.1208939 35.6740071 34.081 35.637 34.0394498 35.5988519 34.0167764 35.5443627 34.019 35.488 34.0207759 35.3787977 34.0587636 35.2732765 34.127 35.188 34.199 35.092 34.3073333 34.9636667 34.452 34.803 34.5465537 34.718732 34.6207503 34.6141045 34.669 34.497 34.6623227 34.4048486 34.6378731 34.3148605 34.597 34.232 34.582374 34.1536172 34.5240278 34.0906033 34.447 34.07 34.3758143 34.0962081 34.3115249 34.1382697 34.259 34.193 34.159 34.275 34.047 34.375 33.919 34.493L33.387 34.98C33.161 35.186 32.891 35.428 32.577 35.706 32.787 35.4353333 32.9576667 35.2033333 33.089 35.01L33.089 35.009zM34.789 34.925C34.7353368 34.9898515 34.6949077 35.0645943 34.67 35.145 34.6472718 35.2324604 34.6368382 35.3226606 34.639 35.413 34.6389672 35.5603844 34.6685529 35.7062724 34.726 35.842 34.7746089 35.964113 34.8420982 36.0778324 34.926 36.179 34.9690569 36.2454437 35.036634 36.2921726 35.114 36.309 35.2709843 36.28123 35.412861 36.198232 35.514 36.075 35.676 35.919 35.9233333 35.6563333 36.256 35.287 36.1478704 35.5353267 36.0819642 35.7999655 36.061 36.07 36.0554504 36.1595238 36.0748353 36.2488329 36.117 36.328 36.1602491 36.3888534 36.2326738 36.4220163 36.307 36.415 36.811803 36.2362814 37.2455742 35.8996441 37.544 35.455L37.544 35.248C37.3455489 35.4693465 37.0848058 35.6255135 36.796 35.696 36.7286851 35.7027917 36.6620998 35.6775015 36.6162669 35.6277344 36.570434 35.5779673 36.5507003 35.5095292 36.563 35.443 36.5603119 35.3517429 36.5835429 35.2615927 36.63 35.183 36.674 35.112 36.752 35.002 36.862 34.853 36.9416989 34.7662341 36.9987224 34.6611186 37.028 34.547 37.0268409 34.5147432 37.0200731 34.4829347 37.008 34.453 36.994 34.418 36.975 34.372 36.95 34.315L36.888 34.175C36.946107 34.1570854 37.002364 34.133645 37.056 34.105 37.0868642 34.0857761 37.1048611 34.0513138 37.103 34.015 37.0984591 33.9745319 37.0865997 33.9352262 37.068 33.899 37.0436808 33.8468042 37.0097573 33.7996505 36.968 33.76 36.9335521 33.7229104 36.885603 33.7012792 36.835 33.7 36.570145 33.7246182 36.3129973 33.8025108 36.079 33.929 35.7104057 34.1114956 35.3707495 34.347368 35.071 34.629 34.9699559 34.7216988 34.8750865 34.8209108 34.787 34.926L34.789 34.925zM35.996 35.176C35.8083109 35.3939488 35.5868212 35.5803242 35.34 35.728 35.29885 35.7524987 35.2533461 35.7687987 35.206 35.776 35.1618472 35.7742261 35.1227794 35.7468787 35.106 35.706 35.0788643 35.6503461 35.0658153 35.5888784 35.068 35.527 35.0938708 35.2832669 35.2342335 35.0664102 35.446 34.943 35.8445462 34.6720799 36.2685509 34.4406524 36.712 34.252 36.4313333 34.642 36.192 34.9506667 35.994 35.178L35.996 35.176zM40.021 35.246L39.194 35.846C39.41 35.3926667 39.5596667 35.0663333 39.643 34.867 39.7117104 34.7237391 39.7540531 34.5692728 39.768 34.411 39.7714693 34.3651926 39.7559158 34.3199789 39.725 34.286 39.6955812 34.2568674 39.6553672 34.241289 39.614 34.243 39.5087244 34.2560328 39.4126306 34.3094581 39.346 34.392 39.2133631 34.5291279 39.0878641 34.6729844 38.97 34.823 38.8577697 34.9668557 38.7361724 35.1031515 38.606 35.231 38.4617319 35.3681419 38.3098227 35.4970144 38.151 35.617 38.0733661 35.6805289 37.9780402 35.7185895 37.878 35.726 37.8327457 35.7273535 37.789594 35.7068937 37.762 35.671 37.7301286 35.6288428 37.7141892 35.5767742 37.717 35.524 37.7291713 35.3681658 37.7908392 35.220303 37.893 35.102 38.0243648 34.9324064 38.1800424 34.7831311 38.355 34.659 38.5340328 34.5263945 38.7272123 34.4140419 38.931 34.324 39.1564316 34.2763911 39.3382898 34.1102302 39.406 33.89 39.406 33.7833333 39.333 33.7296667 39.187 33.729 38.8885454 33.7670466 38.6048384 33.8810115 38.363 34.06 38.1907954 34.1632388 38.027258 34.2802901 37.874 34.41 37.7488206 34.5155195 37.6339693 34.6327147 37.531 34.76 37.4502302 34.8575399 37.3829593 34.9655096 37.331 35.081 37.2903671 35.1713175 37.2685896 35.268976 37.267 35.368 37.2681268 35.5678656 37.3186234 35.7643559 37.414 35.94 37.4611837 36.085587 37.5851786 36.1930235 37.736 36.219 37.8643463 36.2123164 37.9886003 36.1715887 38.096 36.101 38.2536489 36.0042306 38.4007777 35.8912866 38.535 35.764 38.695 35.618 38.882 35.4313333 39.096 35.204 38.996 35.45 38.832 35.8053333 38.604 36.27L38.348 36.484C38.222 36.588 38.122 36.6746667 38.048 36.744 37.974 36.8133333 37.8913333 36.8986667 37.8 37 37.7173627 37.0924144 37.6414992 37.1906694 37.573 37.294 37.4339 37.4768715 37.3477603 37.6944694 37.324 37.923 37.3153477 37.9537696 37.3219255 37.9868214 37.3416991 38.0119338 37.3614726 38.0370463 37.3920593 38.0511934 37.424 38.05 37.6590423 37.9824842 37.8648847 37.8385704 38.009 37.641 38.3458642 37.2638385 38.6381267 36.8491009 38.88 36.405L40.015 35.472 40.015 35.248 40.021 35.246zM41.146 34.957C41.3328591 34.8453915 41.4987031 34.7018856 41.636 34.533 41.7354723 34.4116474 41.7920713 34.260834 41.797 34.104 41.8027616 34.0195483 41.7678316 33.9374256 41.703 33.883 41.6289051 33.8300184 41.5389463 33.8039127 41.448 33.809 41.2892011 33.8148708 41.1333058 33.853334 40.99 33.922 40.8025362 34.0078195 40.6286834 34.120689 40.474 34.257 40.2585142 34.4307019 40.0736259 34.6392505 39.927 34.874 39.8144314 35.0722877 39.7567837 35.2970102 39.76 35.525 39.747189 35.7538509 39.809328 35.9806406 39.937 36.171 40.0485013 36.3248344 40.2291097 36.4132651 40.419 36.407 40.6688379 36.4010388 40.9099619 36.3139955 41.106 36.159 41.3753557 35.9512337 41.6187675 35.7118509 41.831 35.446L41.831 35.241C41.6596667 35.387 41.515 35.5033333 41.397 35.59 41.2858187 35.6722363 41.1661335 35.7423041 41.04 35.799 40.9310404 35.8490444 40.812885 35.8759443 40.693 35.878 40.5937451 35.8813753 40.498248 35.8398708 40.433 35.765 40.3618814 35.6759676 40.3262569 35.5637504 40.333 35.45L40.333 35.364C40.614952 35.2536397 40.8863834 35.1180913 41.144 34.959L41.146 34.957zM40.515 34.767C40.5863551 34.6561602 40.6721036 34.5552797 40.77 34.467 40.8558064 34.388939 40.9496669 34.3202196 41.05 34.262 41.1099948 34.2211827 41.1783062 34.1941997 41.25 34.183 41.2709092 34.1810772 41.2915105 34.189068 41.3056545 34.2045871 41.3197984 34.2201061 41.325849 34.2413583 41.322 34.262 41.3086728 34.3483291 41.2743323 34.4300596 41.222 34.5 41.1328253 34.6295671 41.0238268 34.7443024 40.899 34.84 40.7405347 34.96704 40.5630192 35.0682845 40.373 35.14 40.3935656 35.0079975 40.4412322 34.8816809 40.513 34.769L40.515 34.767zM43.101 35.953C43.0933013 36.0789379 43.1173716 36.2047914 43.171 36.319 43.2179941 36.4009546 43.3077697 36.4487572 43.402 36.442 43.8878116 36.2784341 44.2941432 35.9378012 44.54 35.488L44.54 35.238C44.3761715 35.3980614 44.2039271 35.549276 44.024 35.691 43.9400453 35.7654452 43.8353967 35.812537 43.724 35.826 43.5906667 35.826 43.524 35.7233333 43.524 35.518 43.5309331 35.2622162 43.592655 35.0108957 43.705 34.781 43.8325612 34.5028229 43.9775148 34.2329555 44.139 33.973 44.308 33.699 44.478 33.419 44.652 33.13 44.7829106 32.9486199 44.8714212 32.7401586 44.911 32.52 44.9112061 32.4587879 44.8887668 32.3996622 44.848 32.354 44.8156023 32.3096821 44.7648418 32.2824627 44.71 32.28 44.6123967 32.322027 44.5317472 32.395633 44.481 32.489 44.3329921 32.6914084 44.1993322 32.9039277 44.081 33.125 43.9223333 33.4096667 43.7556667 33.7356667 43.581 34.103 43.5111994 33.9845787 43.3896398 33.9060097 43.253 33.891 43.0337771 33.9185398 42.8233916 33.9943606 42.637 34.113 42.3655556 34.259891 42.1188802 34.4485251 41.906 34.672 41.7161175 34.8443869 41.6009572 35.0840352 41.585 35.34 41.5851993 35.493672 41.6115766 35.6461871 41.663 35.791 41.7068287 35.9221748 41.7709395 36.0456724 41.853 36.157 41.8955782 36.2315923 41.9686458 36.2838356 42.053 36.3 42.1285213 36.2780935 42.1973053 36.2375109 42.253 36.182 42.3883871 36.0701159 42.5175785 35.9509393 42.64 35.825 42.798 35.6656667 42.9773333 35.472 43.178 35.244 43.1254773 35.4763972 43.0979873 35.7137498 43.096 35.952L43.096 35.952 43.101 35.953zM43.344 34.673C43.3009689 34.7509683 43.2478443 34.8229218 43.186 34.887 43.125 34.951 43.027 35.039 42.894 35.152L42.636 35.372C42.609 35.395 42.55 35.446 42.46 35.526 42.3968308 35.583872 42.330028 35.6376482 42.26 35.687 42.2285381 35.7111764 42.1905959 35.7254482 42.151 35.728 42.11841 35.7286805 42.0872259 35.7147393 42.066 35.69 42.0412953 35.6627683 42.0286694 35.6266941 42.031 35.59 42.0375851 35.4930805 42.0574369 35.3975227 42.09 35.306 42.112024 35.210812 42.1577775 35.1227451 42.223 35.05 42.3787789 34.9292068 42.5462845 34.8243483 42.723 34.737 42.9511848 34.6062259 43.1904422 34.4957994 43.438 34.407 43.4207573 34.5009515 43.3883331 34.5914689 43.342 34.675L43.344 34.673zM53.7 62.261L53 62.637C53.2113333 62.229 53.3746667 61.9013333 53.49 61.654 53.599964 61.419894 53.6931976 61.1782887 53.769 60.931 53.791 60.8556667 53.8386667 60.702 53.912 60.47 53.9853333 60.238 54.0366667 60.0693333 54.066 59.964 54.096 59.864 54.12 59.755 54.139 59.653 54.1578075 59.5618342 54.1678532 59.4690786 54.169 59.376 54.1768591 59.23489 54.1327457 59.0957904 54.045 58.985 53.9564045 58.8875306 53.8284942 58.8353373 53.697 58.843 53.5173935 58.8603815 53.3438859 58.9174205 53.189 59.01 52.949567 59.1386939 52.7263259 59.2954662 52.524 59.477 52.3010487 59.6712639 52.1067803 59.8961707 51.947 60.145 51.7418581 60.4810292 51.5859393 60.8447274 51.484 61.225 51.3759119 61.5880996 51.3177118 61.9642134 51.311 62.343 51.306973 62.4440863 51.3180961 62.5452061 51.344 62.643 51.3581518 62.7050838 51.4154868 62.7475542 51.479 62.743 51.5610731 62.7316962 51.6381491 62.6969772 51.701 62.643 51.7841796 62.5867865 51.8577848 62.5175707 51.919 62.438 52.015 62.3106667 52.128 62.1676667 52.258 62.009 52.3310511 61.9293921 52.3963465 61.8430013 52.453 61.751 52.453 61.733 52.432 61.731 52.391 61.746 52.3530541 61.7592358 52.3173196 61.7781144 52.285 61.802 52.2325527 61.8359303 52.184519 61.8762384 52.142 61.922 52.0998305 61.9648455 52.0619813 62.0117383 52.029 62.062L51.954 62.178C51.945 62.078 51.94 62.013 51.94 61.983 51.9468423 61.8265445 51.9737284 61.6716132 52.02 61.522 52.0820453 61.3080549 52.1585548 61.0985725 52.249 60.895 52.3409827 60.6811491 52.4513992 60.4757076 52.579 60.281 52.6923414 60.1060001 52.8229991 59.9428455 52.969 59.794 53.0845002 59.672737 53.214867 59.5665619 53.357 59.478 53.4375346 59.421462 53.530478 59.3851078 53.628 59.372 53.704 59.372 53.741 59.421 53.741 59.519 53.7317906 59.6318415 53.7140736 59.7438265 53.688 59.854 53.6533333 60.0293333 53.5913333 60.2626667 53.502 60.554 53.4126667 60.8453333 53.2833333 61.194 53.114 61.6 52.9446667 62.008 52.7303333 62.4613333 52.471 62.96 51.9745002 63.283266 51.5312175 63.6816807 51.157 64.141 50.9271532 64.3995258 50.782284 64.722427 50.742 65.066 50.7413806 65.1303018 50.7657617 65.1923302 50.81 65.239 50.8558692 65.2882052 50.9207663 65.3151849 50.988 65.313 51.0863738 65.2882658 51.1747235 65.2337893 51.241 65.157 51.3857899 65.0172314 51.5195241 64.8664461 51.641 64.706 51.797 64.506 51.9756667 64.2563333 52.177 63.957 52.3783333 63.6576667 52.5783333 63.337 52.777 62.995L53.686 62.482 53.686 62.261 53.7 62.261zM32 53L33 53 33 69 32 69 32 53 32 53zM37 53L38 53 38 69 37 69 37 53 37 53zM37 71L37 70 41 70 41 71 37 71 37 71zM33 71L29 71 29 70 33 70 33 71 33 71zM33 70L33 71C33 72.1045695 33.8954305 73 35 73 36.1045695 73 37 72.1045695 37 71L37 70 38 70 38 71C38 72.6568542 36.6568542 74 35 74 33.3431458 74 32 72.6568542 32 71L32 70 33 70 33 70z"/>
        <path fill="#E5A600" d="M33,58.119 C30.1329551,60.9508431 25.8445708,61.7814645 22.1275307,60.2248993 C18.4104907,58.6683342 15.9936334,55.0297942 16,51 C16,50.94 16.008,50.882 16.009,50.822 C17.7883884,50.276977 19.6390129,49.9999395 21.5,50 C25.7153291,49.9349534 29.8077452,51.4203225 33,54.174 L33,58.12 L33,58.119 Z M37,58.119 C39.8670449,60.9508431 44.1554292,61.7814645 47.8724693,60.2248993 C51.5895093,58.6683342 54.0063666,55.0297942 54,51 C54,50.94 53.992,50.882 53.991,50.822 C52.2116116,50.276977 50.3609871,49.9999395 48.5,50 C44.2846709,49.9349534 40.1922548,51.4203225 37,54.174 L37,58.12 L37,58.119 Z"/>
        <path fill="#D99900" d="M33,56 C33,56 32.4,56.194 32.381,56.2 C29.8450482,57.9155592 26.6861053,58.4374379 23.7331206,57.6286881 C20.7801359,56.8199382 18.3279319,54.7613044 17.02,51.993 C20.9035381,50.3755663 25.33153,50.7513131 28.887,53 L33,53 L33,56 L33,56 Z M37,56 C37,56 37.6,56.194 37.619,56.2 C40.1549518,57.9155592 43.3138947,58.4374379 46.2668794,57.6286881 C49.2198641,56.8199382 51.6720681,54.7613044 52.98,51.993 C49.0964619,50.3755663 44.66847,50.7513131 41.113,53 L37,53 L37,56 L37,56 Z"/>
        <path fill="#F2B200" d="M29.373,53 C28.4450088,54.8394635 26.5602897,55.9996194 24.5,55.9996194 C22.4397103,55.9996194 20.5549912,54.8394635 19.627,53 L29.373,53 L29.373,53 Z M40.627,53 C41.5549912,54.8394635 43.4397103,55.9996194 45.5,55.9996194 C47.5602897,55.9996194 49.4450088,54.8394635 50.373,53 L40.627,53 L40.627,53 Z"/>
        <path fill="#E5A600" d="M26.95,53 C26.7134038,54.165162 25.6889408,55.0025063 24.5,55.0025063 C23.3110592,55.0025063 22.2865962,54.165162 22.05,53 L26.95,53 L26.95,53 Z M43.05,53 C43.2865962,54.165162 44.3110592,55.0025063 45.5,55.0025063 C46.6889408,55.0025063 47.7134038,54.165162 47.95,53 L43.05,53 L43.05,53 Z"/>
        <path fill="#D99900" d="M35,77 C39.1253668,77.0028103 43.2398378,76.5765166 47.277,75.728 C44.8195356,80.2118282 40.1131053,82.9993099 35,82.9993099 C29.8868947,82.9993099 25.1804644,80.2118282 22.723,75.728 C26.7601622,76.5765166 30.8746332,77.0028103 35,77 L35,77 Z"/>
      </g>
      <g transform="translate(95 6)">
        <path fill="#E5A600" d="M32,31 C19.848,31 8.97,27.88 1.634,22.962 C4.48674571,9.57361986 16.3110674,0.00194695416 30,0 L33,0 C46.9110191,0.000840750807 58.8618503,9.87957911 61.48,23.542 C54.168,28.125 43.669,31 32,31 L32,31 Z"/>
        <path fill="#E5A600" d="M9,45 C9.0000109,48.9605462 7.03887784,52.6641181 3.763,54.89 L1,35 L1,29 C0.992514658,23.0706344 2.81166228,17.2828818 6.21,12.424 C9.22499378,14.6840649 10.9996853,18.231966 11,22 L9,45 Z M54,45 C54.0000387,48.9607772 55.9616075,52.6644646 59.238,54.89 L62,35 L62,29 C62.0073556,23.0706543 60.18822,17.2829398 56.79,12.424 C53.7750062,14.6840649 52.0003147,18.231966 52,22 L54,45 Z"/>
        <path fill="#D99900" d="M41,1 L42,1 L42,31 L41,31 L41,1 L41,1 Z M39,1 L40,1 L40,31 L39,31 L39,1 L39,1 Z M37,0 L38,0 L38,31 L37,31 L37,0 L37,0 Z M35,0 L36,0 L36,31 L35,31 L35,0 L35,0 Z M33,0 L34,0 L34,31 L33,31 L33,0 L33,0 Z M31,0 L32,0 L32,31 L31,31 L31,0 L31,0 Z M29,0 L30,0 L30,31 L29,31 L29,0 L29,0 Z M43,30 L43,2 L44,2 L44,30 L43,30 L43,30 Z M45,30 L45,3 L46,3 L46,30 L45,30 L45,30 Z M47,29 L47,4 L48,4 L48,29 L47,29 L47,29 Z M49,29 L49,5 L50,5 L50,29 L49,29 L49,29 Z M51,28 L51,7 L52,7 L52,28 L51,28 L51,28 Z M53,17 L53,8 L54,8 L54,17 L53,17 L53,17 Z M55,14 L55,10 L56,10 L56,14 L55,14 L55,14 Z M57.62,12.675 L58.38,13.326 L52.38,20.326 L51.62,19.675 L57.62,12.675 Z M58.62,14.675 L59.372,15.334 L52.372,23.334 L51.62,22.675 L58.62,14.675 Z M59.62,16.675 L60.368,17.339 L52.368,26.339 L51.62,25.675 L59.62,16.675 Z M60.62,18.675 L61.364,19.344 L52.364,29.344 L51.62,28.675 L60.62,18.675 Z M61.605,19.693 L62.379,20.326 L53.379,31.326 L52.605,30.693 L61.605,19.693 Z M61.605,22.693 L62.379,23.326 L53.379,34.326 L52.605,33.693 L61.605,22.693 Z M61.605,25.693 L62.379,26.326 L53.379,37.326 L52.605,36.693 L61.605,25.693 Z M61.605,28.693 L62.379,29.326 L53.379,40.326 L52.605,39.693 L61.605,28.693 Z M61.605,31.693 L62.385,32.318 L54.385,42.318 L53.605,41.693 L61.605,31.693 Z M61.621,35.673 L62.369,36.337 L54.369,45.337 L53.621,44.673 L61.621,35.673 Z M61.641,39.652 L62.349,40.359 L54.349,48.359 L53.641,47.652 L61.641,39.652 Z M20,30 L20,2 L19,2 L19,30 L20,30 L20,30 Z M18,30 L18,3 L17,3 L17,30 L18,30 L18,30 Z M16,29 L16,4 L15,4 L15,29 L16,29 L16,29 Z M14,29 L14,5 L13,5 L13,29 L14,29 L14,29 Z M12,28 L12,7 L11,7 L11,28 L12,28 L12,28 Z M10,17 L10,8 L9,8 L9,17 L10,17 L10,17 Z M8,14 L8,10 L7,10 L7,14 L8,14 L8,14 Z M5.38,12.675 L4.62,13.326 L10.62,20.326 L11.38,19.675 L5.38,12.675 Z M4.38,14.675 L3.627,15.334 L10.627,23.334 L11.379,22.675 L4.38,14.675 Z M3.38,16.675 L2.633,17.339 L10.633,26.339 L11.381,25.675 L3.38,16.675 Z M2.38,18.675 L1.637,19.344 L10.637,29.344 L11.381,28.675 L2.38,18.675 Z M1.395,19.693 L0.621,20.326 L9.621,31.326 L10.395,30.693 L1.395,19.693 Z M1.395,22.693 L0.621,23.326 L9.621,34.326 L10.395,33.693 L1.395,22.693 Z M1.395,25.693 L0.621,26.326 L9.621,37.326 L10.395,36.693 L1.395,25.693 Z M1.395,28.693 L0.621,29.326 L9.621,40.326 L10.395,39.693 L1.395,28.693 Z M1.395,31.693 L0.614,32.318 L8.614,42.318 L9.394,41.693 L1.395,31.693 Z M1.378,35.673 L0.631,36.337 L8.631,45.337 L9.379,44.673 L1.378,35.673 Z M1.358,39.652 L0.651,40.359 L8.651,48.359 L9.359,47.652 L1.358,39.652 Z M22,30 L22,1 L21,1 L21,30 L22,30 L22,30 Z M24,31 L24,1 L23,1 L23,31 L24,31 L24,31 Z M26,31 L26,0 L25,0 L25,31 L26,31 L26,31 Z M28,31 L28,0 L27,0 L27,31 L28,31 L28,31 Z"/>
      </g>
    </g>
    <circle cx="133" cy="119" r="23" fill="#FFF" fill-opacity=".16"/>
    <text fill="#FFF" fill-opacity=".4" font-family="HelveticaNeue-Bold, Helvetica Neue" font-size="8" font-weight="bold">
      <tspan x="26" y="142">Business Intelligence</tspan>
    </text>
    <text fill="#FFF" fill-opacity=".24" font-family="HelveticaNeue-Bold, Helvetica Neue" font-size="8" font-weight="bold">
      <tspan x="110.2" y="154">Analytics</tspan>
    </text>
    <text fill="#FFF" fill-opacity=".24" font-family="HelveticaNeue-Bold, Helvetica Neue" font-size="8" font-weight="bold">
      <tspan x="127.072" y="130">CRO</tspan>
    </text>
    <text fill="#FFF" fill-opacity=".24" font-family="HelveticaNeue-Bold, Helvetica Neue" font-size="8" font-weight="bold">
      <tspan x="58.744" y="130">Laad Generation</tspan>
    </text>
    <text fill="#FFF" font-family="HelveticaNeue-Bold, Helvetica Neue" font-size="8" font-weight="bold" opacity=".4">
      <tspan x="112" y="142">Strategy</tspan>
    </text>
  </g>
</svg>
