<svg width="400" height="192" viewBox="0 0 400 192" fill="none" xmlns="http://www.w3.org/2000/svg">
<g id="bg-benefits-of-supermark-development" clip-path="url(#clip0_547_11984)">
<g id="Header">
<g id="back-ovals">
<circle id="oval-5" cx="75.5" cy="190.5" r="59" stroke="white" stroke-opacity="0.4" stroke-dasharray="2"/>
<circle id="oval-4" cx="199" cy="15" r="37" fill="white" fill-opacity="0.16"/>
<circle id="oval-3" cx="148.5" cy="96.5" r="59.5" fill="white" fill-opacity="0.2"/>
</g>
<g id="Jocker">
<path id="Outline" fill-rule="evenodd" clip-rule="evenodd" d="M132 201V193.885C130.972 195.733 129.724 197.5 128.276 200.5H128.488L128.088 201H79.1299L93.2209 178.779C96.0314 173.932 98.2006 168.741 99.6739 163.336C100.325 161.001 101.218 158.74 102.34 156.591C102.96 155.226 103.665 153.9 104.451 152.623C104.894 151.752 105.383 150.653 105.951 149.403C106.282 148.67 106.632 147.876 107.005 147.072V130C107.005 118.421 116.425 109.5 128.005 109.5H143.432C141.118 104.5 141.652 99.533 144.943 95.873C152.002 88.2991 159.97 81.6263 168.665 76.006C166.593 74.365 164.587 70.953 163.265 66.784C161.45 61.042 161.348 54.297 164.734 53.163C165.02 53.0606 165.322 53.0056 165.626 53C165.894 52.9997 166.16 53.0333 166.42 53.1L166 50.069V44C166.013 37.8692 167.893 31.8878 171.39 26.852L171.963 26.031L171.991 26.301C177.678 18.7925 186.581 14.4163 196 14.5H199C208.391 14.4135 217.272 18.7608 222.965 26.23L223.065 26.023L223.611 26.915C227.055 31.939 228.931 37.8722 229 43.963V50.069L228.58 53.092C228.839 53.0257 229.106 52.9921 229.374 52.992C229.676 52.9914 229.976 53.0397 230.263 53.135C233.648 54.269 233.546 60.983 231.73 66.724C230.949 69.3187 229.742 71.7654 228.159 73.964C243.337 82.704 254.939 95.743 255.059 95.875C258.351 99.536 258.884 104.503 256.57 109.503H266C277.579 109.503 287 118.424 287 130.003V201.003H132V201Z" fill="#E08300"/>
<g id="Body">
<path id="R_Hand_Outline" opacity="0.5" fill-rule="evenodd" clip-rule="evenodd" d="M80.0078 201L94.0628 179.069C96.8628 174.32 99.8238 167.278 100.652 163.421C101.48 159.564 106.26 151.336 105.165 153.402C109.14 145.9 116.992 118.92 135 146C150.753 169.688 124.835 202.916 126.4 201H80.0078Z" fill="#E08300"/>
<path id="R_Hand" fill-rule="evenodd" clip-rule="evenodd" d="M81.6919 201L94.8739 179.725C97.7379 174.846 100.741 167.557 101.587 163.598C102.194 160.762 105.248 154.977 105.967 153.744L106 153.73L106.054 153.612C106.548 152.666 107.081 151.468 107.699 150.089C110.39 144.089 114.456 135.007 120.549 135.007C124.523 135.007 129.073 139.08 134.073 146.624C146.146 164.84 131.123 191.159 125.215 201H81.6919Z" fill="#F18D00"/>
<rect id="Front" x="133" y="147" width="153" height="54" fill="#F18D00"/>
<path id="Front_Outlines" fill-rule="evenodd" clip-rule="evenodd" d="M246 147H247V201H246V147ZM133 147H134V201H133V147ZM285 147H286V201H285V147Z" fill="#E08300"/>
<path id="Shoulders_Outline" fill-rule="evenodd" clip-rule="evenodd" d="M108 147V130C108 118.954 116.954 110 128 110H266C277.046 110 286 118.954 286 130V147H108Z" fill="#E08300"/>
<path id="Shoulders" fill-rule="evenodd" clip-rule="evenodd" d="M109 146V129.5C109 119.023 117.523 111 128 111H266C276.477 111 285 119.023 285 129.5V146H109Z" fill="#F18D00"/>
<path id="Body_2" fill-rule="evenodd" clip-rule="evenodd" d="M212.347 90.0449L221.355 104.789C224.233 109.5 224.875 117.515 222.781 122.602L207.847 158.888C205.753 163.974 205.56 172.368 207.416 177.54L214.9 201H185.1L192.586 177.54C194.442 172.368 194.249 163.974 192.155 158.888L177.219 122.6C175.125 117.513 175.767 109.5 178.645 104.787L187.653 90.0429C188.24 89.1159 188.638 88.0816 188.823 86.9999H211.177C211.362 88.0823 211.759 89.1173 212.347 90.0449Z" fill="#FF9807"/>
<path id="Collar_B_Outline" fill-rule="evenodd" clip-rule="evenodd" d="M187.208 89.875L178.365 104.694C175.539 109.429 174.909 117.484 176.965 122.594L189.993 155L146.057 110.881C142.155 106.855 141.994 100.51 145.686 96.291C145.686 96.291 157.871 82.752 173.813 73.991C173.813 73.995 190 85.2 187.208 89.875ZM212.792 89.875L221.635 104.694C224.461 109.429 225.091 117.484 223.035 122.594L210.007 155L253.943 110.881C257.845 106.855 258.006 100.51 254.314 96.291C254.314 96.291 242.129 82.752 226.187 73.991C226.187 73.995 210 85.2 212.792 89.875Z" fill="#E08300"/>
<path id="Collar_B" fill-rule="evenodd" clip-rule="evenodd" d="M146.744 110.179C143.199 106.537 143.053 100.78 146.409 96.963C146.528 96.831 158.396 83.754 173.742 75.176C183.98 82.364 187.288 87.786 186.342 89.367L177.5 104.184C174.526 109.165 173.867 117.592 176.03 122.971L187.23 150.809L146.744 110.179ZM223.973 122.971C226.137 117.592 225.473 109.165 222.503 104.185L213.656 89.367C212.712 87.786 216.02 82.367 226.256 75.177C241.613 83.761 253.471 96.832 253.59 96.964C256.944 100.781 256.798 106.537 253.254 110.179L212.773 150.809L223.973 122.971Z" fill="#F18D00"/>
<path id="Collar_F_Outline" fill-rule="evenodd" clip-rule="evenodd" d="M150.931 131.988L173.284 114.533C174.147 113.848 175.13 113.331 176.184 113.008C175.85 116.116 176.229 119.259 177.292 122.199L191.927 158.255C192.396 159.468 192.752 160.721 192.989 162L152.089 142.446C147.125 140.072 146.6 135.367 150.931 131.988ZM249.069 131.988L226.716 114.533C225.853 113.848 224.869 113.331 223.816 113.008C224.15 116.116 223.771 119.259 222.708 122.199L208.073 158.255C207.603 159.468 207.248 160.721 207.011 162L247.911 142.446C252.875 140.072 253.4 135.367 249.069 131.988Z" fill="#E08300"/>
<path id="Collar_F" fill-rule="evenodd" clip-rule="evenodd" d="M152.513 141.54C150.433 140.546 149.19 139.101 149.013 137.474C148.836 135.847 149.734 134.182 151.541 132.774L173.9 115.313C174.277 115.018 174.678 114.756 175.1 114.529C174.977 117.267 175.409 120.002 176.369 122.569L191 158.632C191.204 159.143 191.381 159.664 191.531 160.194L152.513 141.54ZM208.468 160.2C208.617 159.67 208.794 159.149 208.999 158.638L223.637 122.574C224.596 120.007 225.028 117.272 224.905 114.534C225.327 114.76 225.728 115.022 226.105 115.318L248.462 132.776C250.268 134.187 251.162 135.857 250.989 137.476C250.816 139.095 249.568 140.548 247.489 141.542L208.468 160.2Z" fill="#F18D00"/>
<path id="Tattoo" fill-rule="evenodd" clip-rule="evenodd" d="M199 137C199.067 140.05 197 145 197 145C197.319 142.678 197.319 140.322 197 138C196.424 135.068 183.462 128.34 183 124C182.775 121.888 180.163 122.073 177.542 122.815L177.292 122.199C177.075 121.641 176.894 121.069 176.749 120.488C178.004 119.614 179.474 119.1 181 119C183.116 118.949 184.777 118.88 186.14 118.76C187.266 120.407 188.224 122.162 189 124C189.433 125.659 188.959 127.237 190 129C191.041 130.763 198.8 136.081 198 140C199.588 134.267 192.488 133.749 192 129C191.512 124.251 192.706 125.3 191 122C190.34 120.744 189.601 119.531 188.786 118.37C189.199 118.277 189.605 118.153 190 118C191.729 117.3 193.923 117.435 194 120C194.077 122.565 190.533 128.062 193 130C195.467 131.938 198.933 133.95 199 137ZM219 109.618L221.857 112.493L219 113.452L218.6 109.838C217.733 110.253 215.629 110.889 214.237 108.181C213.437 106.628 214.165 102.606 214.713 100.994C215.093 103.294 221.465 106.877 221.856 108.661C222.247 110.445 219 109.618 219 109.618ZM215.381 115.806C216.226 115.417 217.025 114.935 217.762 114.368L220.219 116.841C219.696 116.927 221.85 116.373 223.897 115.741C223.889 116.115 223.854 116.479 223.828 116.848C223.209 117.041 220.955 117.821 220.149 118.13C220.448 118.741 220.589 119.417 220.559 120.097C220.591 121.213 220.648 121.576 221.631 121.79C222.014 121.878 222.404 121.927 222.797 121.935L222.409 122.949C222.076 122.925 221.746 122.877 221.42 122.806C219.061 122.291 219.72 120.366 219.471 119.232C219.405 118.963 219.308 118.703 219.183 118.456C218.269 118.777 217.287 118.855 216.333 118.683C214.499 118.183 213 115.808 213 115.808C213 115.808 213.78 116.582 215.377 115.806H215.381ZM213.481 121.842L214.73 125.584L215.042 125.376L214.5 120.05L215.405 119.709L220.405 126.709L218.275 124.416L215.499 126.267V127.923L216.472 130.842L215.5 128.7V130.047L215.328 128.322L214.964 127.522L211.731 128.33L214 134L208 124H210L211.358 127.395L214.545 126.595L212.526 122.155L213.481 121.842ZM215.507 125.066L217.638 123.645L215.5 121.29L215.507 125.066ZM217.514 135L217.214 135.732L215.581 133.282L216.413 132.728L217.514 135ZM195.5 144C197.985 144 200 146.015 200 148.5C200 150.985 197.985 153 195.5 153C193.015 153 191 150.985 191 148.5C191 146.015 193.015 144 195.5 144ZM195.5 145C197.433 145 199 146.567 199 148.5C199 150.433 197.433 152 195.5 152C193.567 152 192 150.433 192 148.5C192 146.567 193.567 145 195.5 145Z" fill="#F18D00"/>
</g>
<g id="Head">
<path id="Face_Outline" fill-rule="evenodd" clip-rule="evenodd" d="M192.933 19H203.166C221.634 19 229.966 52.5 221.918 77.638L217.276 92.143C213.758 103.137 205.958 112 199.631 112H196.2C189.872 112 182.087 103.137 178.6 92.144L174 77.639C166.038 52.51 174.462 19 192.933 19ZM186.181 106.005L180.552 88.77C179.937 86.8762 178.333 85.4718 176.375 85.112L176.035 84.038C178.568 84.2989 180.706 86.0317 181.487 88.455L187.693 107.455C187.716 107.525 187.73 107.595 187.75 107.666C187.219 107.15 186.696 106.596 186.181 106.005ZM219.519 85.134C217.612 85.5303 216.064 86.9178 215.461 88.77L209.924 105.694C209.392 106.321 208.854 106.923 208.304 107.469V107.456L214.521 88.456C215.292 86.0759 217.376 84.3607 219.86 84.061L219.519 85.134ZM173.184 74.769C172.927 75.2844 172.487 75.6855 171.95 75.894C169.587 76.685 166.127 72.444 164.223 66.42C162.319 60.396 162.691 54.871 165.055 54.08C166.807 53.493 169.161 55.68 171.038 59.298C171.061 60.188 173.034 74.2 173.184 74.769ZM221.816 74.769C222.073 75.2844 222.513 75.6855 223.05 75.894C225.413 76.685 228.873 72.444 230.777 66.42C232.681 60.396 232.309 54.871 229.945 54.08C228.193 53.493 225.839 55.68 223.962 59.298C223.939 60.188 221.966 74.2 221.816 74.769Z" fill="#E08300"/>
<path id="Face" fill-rule="evenodd" clip-rule="evenodd" d="M196.2 111.5C190.371 111.5 182.9 102.655 179.555 92.091L174.955 77.461C169.54 60.381 171.731 39.116 180.05 27.746C183.609 22.883 188.063 20.5 192.93 20.5H203.162C208.024 20.5 212.467 22.816 216.009 27.67C224.303 39.037 226.433 60.37 220.964 77.459L216.321 92.151C212.939 102.716 205.451 111.5 199.628 111.5H196.2Z" fill="#FF9807"/>
<path id="Ears" fill-rule="evenodd" clip-rule="evenodd" d="M222.82 74.487C222.95 74.6928 223.142 74.8532 223.367 74.946C223.456 74.9754 223.548 74.9899 223.642 74.989C225.274 74.989 228.142 71.425 229.824 66.119C231.748 60.034 230.993 55.486 229.624 55.029C229.535 54.9997 229.442 54.9852 229.348 54.986C228.204 54.986 226.448 56.766 224.928 59.645C224.955 58.946 222.723 74.86 222.82 74.487ZM172.754 73.046C172.703 73.8213 172.287 74.5263 171.633 74.946C171.544 74.9754 171.451 74.9899 171.358 74.989C169.726 74.989 166.853 71.425 165.176 66.119C163.252 60.034 164.008 55.486 165.376 55.029C165.465 54.9998 165.558 54.9853 165.651 54.986C167.081 54.986 169.463 57.724 171.161 61.971C171.1 61.079 172.888 73.624 172.754 73.046Z" fill="#FF9807"/>
<path id="Cheekbones" fill-rule="evenodd" clip-rule="evenodd" d="M186.181 106.005L180.552 88.77C179.937 86.8761 178.334 85.4718 176.375 85.112L176.035 84.038C178.568 84.2989 180.707 86.0317 181.487 88.455L187.693 107.455C187.716 107.525 187.73 107.595 187.75 107.666C187.219 107.15 186.696 106.596 186.181 106.005ZM219.519 85.134C217.612 85.5303 216.064 86.9178 215.461 88.77L209.924 105.694C209.392 106.321 208.854 106.923 208.304 107.469V107.456L214.521 88.456C215.293 86.0759 217.376 84.3607 219.86 84.061L219.519 85.134Z" fill="#F18D00"/>
<path id="Tattoo_2" fill-rule="evenodd" clip-rule="evenodd" d="M187.565 52.19C187.71 52.1231 187.859 52.0637 188.01 52.012C188.185 51.9506 188.371 51.8943 188.567 51.843C188.744 51.7967 188.925 51.7633 189.107 51.743C188.446 52.5982 187.872 53.5178 187.395 54.488C187.353 54.5795 187.32 54.6745 187.295 54.772C187.272 54.8763 187.261 54.9831 187.264 55.09C187.26 55.1702 187.271 55.2504 187.295 55.327C187.311 55.3761 187.347 55.4157 187.395 55.435C187.46 55.4554 187.527 55.4645 187.595 55.462C188.063 55.4589 188.528 55.3767 188.969 55.219C189.418 55.0656 189.841 54.8436 190.222 54.561C190.577 54.3006 190.878 53.9752 191.111 53.602C191.325 53.267 191.44 52.8785 191.444 52.481C191.447 52.2473 191.406 52.0151 191.322 51.797C191.247 51.6018 191.128 51.4262 190.976 51.283C190.814 51.136 190.623 51.0246 190.415 50.956C190.178 50.8764 189.93 50.8372 189.68 50.84C189.415 50.8407 189.15 50.8695 188.891 50.926C188.642 50.9769 188.397 51.0437 188.157 51.126C187.952 51.1973 187.752 51.2808 187.557 51.376C187.422 51.439 187.293 51.515 187.173 51.603C186.955 51.8157 186.846 52.1169 186.879 52.42C186.865 52.474 186.876 52.5315 186.91 52.5758C186.944 52.62 186.997 52.646 187.053 52.646C187.097 52.6444 187.141 52.6356 187.183 52.62C187.233 52.603 187.316 52.569 187.431 52.52C187.546 52.471 187.658 52.42 187.766 52.38C187.893 52.3315 188.023 52.2898 188.154 52.255C188.003 52.2587 187.853 52.2734 187.704 52.299C187.539 52.326 187.446 52.34 187.426 52.34C187.406 52.34 187.381 52.332 187.381 52.316C187.426 52.2543 187.491 52.2099 187.565 52.19ZM189.726 51.698C190.078 51.6757 190.428 51.7649 190.726 51.953C190.956 52.1213 191.086 52.3942 191.072 52.679C191.068 52.9659 190.972 53.244 190.798 53.472C190.599 53.7412 190.351 53.9717 190.069 54.152C189.766 54.3516 189.438 54.5096 189.093 54.622C188.776 54.7297 188.443 54.7868 188.108 54.791C188.014 54.7947 187.92 54.7825 187.83 54.755C187.772 54.7419 187.73 54.6899 187.73 54.63C187.733 54.5887 187.742 54.5482 187.758 54.51C187.782 54.445 187.811 54.3821 187.845 54.322L187.932 54.165C187.95 54.133 187.983 54.0716 188.032 53.981C188.185 53.6936 188.318 53.4603 188.432 53.281C188.543 53.099 188.678 52.887 188.832 52.645C188.986 52.403 189.095 52.235 189.148 52.145C189.192 52.0788 189.22 52.003 189.228 51.924C189.227 51.8833 189.223 51.8428 189.215 51.803C189.206 51.756 189.201 51.731 189.201 51.726C189.363 51.712 189.536 51.706 189.721 51.706L189.726 51.698ZM191.505 53.926C191.451 53.9911 191.411 54.0657 191.385 54.146C191.363 54.2335 191.352 54.3237 191.354 54.414C191.354 54.5615 191.384 54.7075 191.442 54.843C191.49 54.9653 191.558 55.0791 191.642 55.18C191.685 55.2464 191.753 55.2932 191.83 55.31C191.987 55.2823 192.129 55.1993 192.23 55.076C192.392 54.92 192.639 54.6573 192.972 54.288C192.862 54.536 192.795 54.8007 192.772 55.071C192.766 55.1606 192.786 55.2501 192.829 55.329C192.872 55.3898 192.944 55.4231 193.018 55.416C193.523 55.2374 193.957 54.9007 194.256 54.456V54.248C194.057 54.4694 193.796 54.6256 193.507 54.696C193.44 54.7024 193.374 54.677 193.328 54.6273C193.282 54.5776 193.263 54.5093 193.275 54.443C193.272 54.3518 193.295 54.2617 193.341 54.183C193.386 54.112 193.463 54.002 193.574 53.853C193.653 53.7659 193.71 53.6609 193.74 53.547C193.739 53.5146 193.732 53.4827 193.719 53.453C193.705 53.418 193.686 53.372 193.661 53.315L193.599 53.175C193.657 53.1571 193.713 53.1336 193.767 53.105C193.798 53.086 193.817 53.0515 193.815 53.015C193.811 52.9744 193.798 52.935 193.779 52.899C193.755 52.8468 193.721 52.7996 193.679 52.76C193.644 52.723 193.596 52.7014 193.545 52.7C193.28 52.7247 193.024 52.8025 192.79 52.929C192.421 53.111 192.081 53.3469 191.782 53.629C191.683 53.7216 191.591 53.8209 191.505 53.926ZM192.711 54.177C192.523 54.3949 192.302 54.5813 192.055 54.729C192.014 54.7533 191.969 54.7696 191.922 54.777C191.878 54.7747 191.839 54.7475 191.822 54.707C191.795 54.6512 191.783 54.5898 191.785 54.528C191.811 54.2845 191.951 54.0677 192.162 53.944C192.561 53.6729 192.985 53.4415 193.429 53.253C193.149 53.6423 192.91 53.9506 192.711 54.178V54.177ZM196.089 54.009C196.198 53.8529 196.298 53.691 196.389 53.524C196.44 53.4407 196.474 53.3483 196.489 53.252C196.491 53.1827 196.468 53.115 196.423 53.062C196.381 53.0119 196.318 52.9836 196.253 52.985C196.101 53.0024 195.958 53.0675 195.845 53.171C195.661 53.3158 195.486 53.4721 195.322 53.639C195.134 53.827 194.961 54.0006 194.804 54.16C194.725 54.2609 194.625 54.3426 194.51 54.399C194.487 54.3991 194.466 54.3886 194.452 54.3706C194.437 54.3526 194.432 54.3291 194.438 54.307C194.452 54.2305 194.484 54.1584 194.531 54.097C194.586 54.0083 194.651 53.9264 194.725 53.853C194.841 53.75 194.947 53.6368 195.042 53.515C195.104 53.449 195.147 53.3674 195.166 53.279C195.166 53.2328 195.14 53.1908 195.098 53.171C195.047 53.1435 194.989 53.1301 194.931 53.132C194.814 53.136 194.704 53.1872 194.625 53.274C194.486 53.4203 194.361 53.5786 194.25 53.747C194.169 53.8696 194.097 53.9976 194.033 54.13C193.984 54.2457 193.96 54.3704 193.963 54.496C193.96 54.6715 193.996 54.8455 194.069 55.005C194.097 55.1156 194.186 55.2005 194.298 55.224C194.347 55.22 194.392 55.1952 194.421 55.156C194.492 55.0687 194.559 54.978 194.621 54.884C194.699 54.7691 194.784 54.6589 194.875 54.554C195.146 54.2533 195.329 54.0556 195.424 53.961C195.478 53.8904 195.555 53.8403 195.641 53.819C195.66 53.8163 195.679 53.8225 195.692 53.8359C195.705 53.8493 195.712 53.8682 195.709 53.887C195.711 53.9167 195.704 53.9463 195.689 53.972C195.525 54.2453 195.398 54.4703 195.309 54.647C195.242 54.7599 195.197 54.8844 195.176 55.014C195.176 55.183 195.235 55.267 195.354 55.267C195.497 55.2488 195.625 55.172 195.709 55.055L195.979 54.746C196.093 54.6126 196.24 54.4593 196.42 54.286C196.6 54.1126 196.806 53.9303 197.039 53.739C196.961 53.8663 196.876 54.007 196.783 54.161C196.69 54.315 196.615 54.4466 196.557 54.556C196.508 54.6476 196.466 54.7425 196.43 54.84C196.404 54.9159 196.39 54.9956 196.389 55.076C196.387 55.1494 196.412 55.2209 196.461 55.276C196.505 55.3279 196.571 55.3572 196.639 55.356C196.746 55.3479 196.849 55.3135 196.939 55.256C197.088 55.1688 197.23 55.0684 197.361 54.956C197.523 54.8226 197.703 54.6613 197.901 54.472V54.227C197.701 54.4023 197.556 54.5243 197.465 54.593C197.398 54.65 197.315 54.6849 197.228 54.693C197.174 54.6941 197.121 54.674 197.081 54.637C197.039 54.5988 197.017 54.5443 197.019 54.488C197.021 54.3788 197.059 54.2733 197.127 54.188C197.199 54.092 197.307 53.9636 197.452 53.803C197.547 53.7187 197.621 53.6141 197.669 53.497C197.662 53.4048 197.638 53.3148 197.597 53.232C197.582 53.1536 197.524 53.0906 197.447 53.07C197.376 53.0962 197.312 53.1383 197.259 53.193C197.159 53.275 197.047 53.375 196.919 53.493L196.387 53.98C196.161 54.186 195.891 54.428 195.577 54.706C195.787 54.4353 195.958 54.2033 196.089 54.01V54.009ZM197.789 53.925C197.735 53.9898 197.695 54.0646 197.67 54.145C197.647 54.2324 197.637 54.3226 197.639 54.413C197.639 54.5604 197.669 54.7063 197.726 54.842C197.775 54.9641 197.842 55.0778 197.926 55.179C197.969 55.2454 198.037 55.2922 198.114 55.309C198.271 55.2812 198.413 55.1982 198.514 55.075C198.676 54.919 198.923 54.6563 199.256 54.287C199.148 54.5353 199.082 54.7999 199.061 55.07C199.055 55.1595 199.075 55.2488 199.117 55.328C199.16 55.3888 199.233 55.422 199.307 55.415C199.812 55.2363 200.246 54.8996 200.544 54.455V54.248C200.346 54.4693 200.085 54.6255 199.796 54.696C199.729 54.7028 199.662 54.6775 199.616 54.6277C199.57 54.578 199.551 54.5095 199.563 54.443C199.56 54.3517 199.584 54.2616 199.63 54.183C199.674 54.112 199.752 54.002 199.862 53.853C199.942 53.7662 199.999 53.6611 200.028 53.547C200.027 53.5147 200.02 53.4829 200.008 53.453C199.994 53.418 199.975 53.372 199.95 53.315L199.888 53.175C199.946 53.1571 200.002 53.1336 200.056 53.105C200.087 53.0858 200.105 53.0513 200.103 53.015C200.098 52.9745 200.087 52.9352 200.068 52.899C200.044 52.8468 200.01 52.7996 199.968 52.76C199.934 52.7229 199.886 52.7013 199.835 52.7C199.57 52.7246 199.313 52.8025 199.079 52.929C198.71 53.1115 198.371 53.3474 198.071 53.629C197.97 53.7217 197.875 53.8209 197.787 53.926L197.789 53.925ZM198.996 54.176C198.808 54.3939 198.587 54.5803 198.34 54.728C198.299 54.7525 198.253 54.7688 198.206 54.776C198.162 54.7742 198.123 54.7469 198.106 54.706C198.079 54.6503 198.066 54.5889 198.068 54.527C198.094 54.2832 198.234 54.0664 198.446 53.943C198.845 53.6721 199.269 53.4406 199.712 53.252C199.431 53.642 199.192 53.9506 198.994 54.178L198.996 54.176ZM203.021 54.246L202.194 54.846C202.41 54.3926 202.56 54.0663 202.643 53.867C202.712 53.7237 202.754 53.5693 202.768 53.411C202.771 53.3652 202.756 53.32 202.725 53.286C202.696 53.2569 202.655 53.2413 202.614 53.243C202.509 53.256 202.413 53.3094 202.346 53.392C202.213 53.5291 202.088 53.673 201.97 53.823C201.858 53.9668 201.736 54.1031 201.606 54.231C201.462 54.3681 201.31 54.497 201.151 54.617C201.073 54.6805 200.978 54.7186 200.878 54.726C200.833 54.7273 200.79 54.7069 200.762 54.671C200.73 54.6288 200.714 54.5768 200.717 54.524C200.729 54.3681 200.791 54.2203 200.893 54.102C201.024 53.9324 201.18 53.7831 201.355 53.659C201.534 53.5264 201.727 53.414 201.931 53.324C202.156 53.2764 202.338 53.1102 202.406 52.89C202.406 52.7833 202.333 52.7296 202.187 52.729C201.889 52.767 201.605 52.881 201.363 53.06C201.191 53.1632 201.027 53.2803 200.874 53.41C200.749 53.5155 200.634 53.6327 200.531 53.76C200.45 53.8575 200.383 53.9655 200.331 54.081C200.29 54.1713 200.269 54.269 200.267 54.368C200.268 54.5678 200.319 54.7643 200.414 54.94C200.461 55.0856 200.585 55.193 200.736 55.219C200.864 55.2123 200.989 55.1716 201.096 55.101C201.254 55.0042 201.401 54.8913 201.535 54.764C201.695 54.618 201.882 54.4313 202.096 54.204C201.996 54.45 201.832 54.8053 201.604 55.27L201.348 55.484C201.222 55.588 201.122 55.6746 201.048 55.744C200.974 55.8133 200.891 55.8986 200.8 56C200.717 56.0924 200.642 56.1907 200.573 56.294C200.434 56.4769 200.348 56.6945 200.324 56.923C200.315 56.9538 200.322 56.9868 200.342 57.0119C200.361 57.037 200.392 57.0512 200.424 57.05C200.659 56.9825 200.865 56.8386 201.009 56.641C201.346 56.2638 201.638 55.8491 201.88 55.405L203.015 54.472V54.248L203.021 54.246ZM204.146 53.957C204.333 53.8454 204.499 53.7019 204.636 53.533C204.735 53.4116 204.792 53.2608 204.797 53.104C204.803 53.0195 204.768 52.9374 204.703 52.883C204.629 52.83 204.539 52.8039 204.448 52.809C204.289 52.8149 204.133 52.8533 203.99 52.922C203.803 53.0078 203.629 53.1207 203.474 53.257C203.259 53.4307 203.074 53.6392 202.927 53.874C202.814 54.0723 202.757 54.297 202.76 54.525C202.747 54.7538 202.809 54.9806 202.937 55.171C203.049 55.3248 203.229 55.4132 203.419 55.407C203.669 55.401 203.91 55.314 204.106 55.159C204.375 54.9512 204.619 54.7118 204.831 54.446V54.241C204.66 54.387 204.515 54.5033 204.397 54.59C204.286 54.6722 204.166 54.7423 204.04 54.799C203.931 54.849 203.813 54.8759 203.693 54.878C203.594 54.8814 203.498 54.8399 203.433 54.765C203.362 54.676 203.326 54.5637 203.333 54.45V54.364C203.615 54.2536 203.886 54.1181 204.144 53.959L204.146 53.957ZM203.515 53.767C203.586 53.6561 203.672 53.5553 203.77 53.467C203.856 53.3889 203.95 53.3202 204.05 53.262C204.11 53.2212 204.178 53.1942 204.25 53.183C204.271 53.1811 204.292 53.1891 204.306 53.2046C204.32 53.2201 204.326 53.2413 204.322 53.262C204.309 53.3483 204.274 53.43 204.222 53.5C204.133 53.6295 204.024 53.7443 203.899 53.84C203.741 53.967 203.563 54.0683 203.373 54.14C203.394 54.008 203.441 53.8817 203.513 53.769L203.515 53.767ZM206.101 54.953C206.093 55.0789 206.117 55.2048 206.171 55.319C206.218 55.4009 206.308 55.4487 206.402 55.442C206.888 55.2784 207.294 54.9378 207.54 54.488V54.238C207.376 54.398 207.204 54.5493 207.024 54.691C206.94 54.7654 206.835 54.8125 206.724 54.826C206.591 54.826 206.524 54.7233 206.524 54.518C206.531 54.2622 206.593 54.0109 206.705 53.781C206.833 53.5028 206.978 53.2329 207.139 52.973C207.308 52.699 207.478 52.419 207.652 52.13C207.783 51.9486 207.871 51.7401 207.911 51.52C207.911 51.4588 207.889 51.3996 207.848 51.354C207.816 51.3097 207.765 51.2824 207.71 51.28C207.612 51.322 207.532 51.3956 207.481 51.489C207.333 51.6914 207.199 51.9039 207.081 52.125C206.922 52.4096 206.756 52.7356 206.581 53.103C206.511 52.9846 206.39 52.906 206.253 52.891C206.034 52.9185 205.823 52.9943 205.637 53.113C205.366 53.2599 205.119 53.4485 204.906 53.672C204.716 53.8444 204.601 54.084 204.585 54.34C204.585 54.4937 204.612 54.6462 204.663 54.791C204.707 54.9222 204.771 55.0457 204.853 55.157C204.896 55.2316 204.969 55.2838 205.053 55.3C205.129 55.2781 205.197 55.2375 205.253 55.182C205.388 55.0701 205.518 54.9509 205.64 54.825C205.798 54.6656 205.977 54.472 206.178 54.244C206.126 54.4764 206.098 54.7137 206.096 54.952L206.101 54.953ZM206.344 53.673C206.301 53.751 206.248 53.8229 206.186 53.887C206.125 53.951 206.027 54.039 205.894 54.152L205.636 54.372C205.609 54.395 205.55 54.446 205.46 54.526C205.397 54.5839 205.33 54.6376 205.26 54.687C205.229 54.7112 205.191 54.7254 205.151 54.728C205.118 54.7287 205.087 54.7147 205.066 54.69C205.041 54.6628 205.029 54.6267 205.031 54.59C205.038 54.4931 205.057 54.3975 205.09 54.306C205.112 54.2108 205.158 54.1227 205.223 54.05C205.379 53.9292 205.546 53.8243 205.723 53.737C205.951 53.6062 206.19 53.4958 206.438 53.407C206.421 53.5009 206.388 53.5915 206.342 53.675L206.344 53.673ZM216.7 81.261L216 81.637C216.211 81.229 216.375 80.9013 216.49 80.654C216.6 80.4199 216.693 80.1783 216.769 79.931C216.791 79.8556 216.839 79.702 216.912 79.47C216.985 79.238 217.037 79.0693 217.066 78.964C217.096 78.864 217.12 78.755 217.139 78.653C217.158 78.5618 217.168 78.4691 217.169 78.376C217.177 78.2349 217.133 78.0958 217.045 77.985C216.956 77.8875 216.829 77.8353 216.697 77.843C216.517 77.8604 216.344 77.9174 216.189 78.01C215.95 78.1387 215.726 78.2954 215.524 78.477C215.301 78.6712 215.107 78.8962 214.947 79.145C214.742 79.481 214.586 79.8447 214.484 80.225C214.376 80.5881 214.318 80.9642 214.311 81.343C214.307 81.4441 214.318 81.5452 214.344 81.643C214.358 81.7051 214.416 81.7475 214.479 81.743C214.561 81.7317 214.638 81.697 214.701 81.643C214.784 81.5868 214.858 81.5176 214.919 81.438C215.015 81.3106 215.128 81.1677 215.258 81.009C215.331 80.9294 215.396 80.843 215.453 80.751C215.453 80.733 215.432 80.731 215.391 80.746C215.353 80.7592 215.317 80.7781 215.285 80.802C215.233 80.8359 215.185 80.8762 215.142 80.922C215.1 80.9648 215.062 81.0117 215.029 81.062L214.954 81.178C214.945 81.078 214.94 81.013 214.94 80.983C214.947 80.8265 214.974 80.6716 215.02 80.522C215.082 80.308 215.159 80.0986 215.249 79.895C215.341 79.6811 215.451 79.4757 215.579 79.281C215.692 79.106 215.823 78.9428 215.969 78.794C216.085 78.6727 216.215 78.5665 216.357 78.478C216.438 78.4214 216.531 78.3851 216.628 78.372C216.704 78.372 216.741 78.421 216.741 78.519C216.732 78.6318 216.714 78.7438 216.688 78.854C216.653 79.0293 216.591 79.2626 216.502 79.554C216.413 79.8453 216.283 80.194 216.114 80.6C215.945 81.008 215.73 81.4613 215.471 81.96C214.975 82.2832 214.531 82.6817 214.157 83.141C213.927 83.3995 213.782 83.7224 213.742 84.066C213.741 84.1303 213.766 84.1923 213.81 84.239C213.856 84.2882 213.921 84.3152 213.988 84.313C214.086 84.2882 214.175 84.2338 214.241 84.157C214.386 84.0172 214.52 83.8664 214.641 83.706C214.797 83.506 214.976 83.2563 215.177 82.957C215.378 82.6576 215.578 82.337 215.777 81.995L216.686 81.482V81.261H216.7Z" fill="#E08300"/>
<path id="Nose" fill-rule="evenodd" clip-rule="evenodd" d="M195 72H196V88H195V72ZM200 72H201V88H200V72ZM200 90V89H204V90H200ZM196 90H192V89H196V90ZM196 89V90C196 91.1045 196.895 92 198 92C199.105 92 200 91.1045 200 90V89H201V90C201 91.6568 199.657 93 198 93C196.343 93 195 91.6568 195 90V89H196Z" fill="#E08300"/>
<path id="Eyes_Shade_Outer" fill-rule="evenodd" clip-rule="evenodd" d="M196 77.119C193.133 79.9508 188.845 80.7814 185.128 79.2249C181.411 77.6683 178.994 74.0298 179 70C179 69.94 179.008 69.882 179.009 69.822C180.788 69.277 182.639 68.9999 184.5 69C188.715 68.9349 192.808 70.4203 196 73.174V77.12V77.119ZM200 77.119C202.867 79.9508 207.155 80.7814 210.872 79.2249C214.59 77.6683 217.006 74.0298 217 70C217 69.94 216.992 69.882 216.991 69.822C215.212 69.277 213.361 68.9999 211.5 69C207.285 68.9349 203.192 70.4203 200 73.174V77.12V77.119Z" fill="#F18D00"/>
<path id="Eye_shade_inner" fill-rule="evenodd" clip-rule="evenodd" d="M196 75C196 75 195.4 75.194 195.381 75.2C192.845 76.9155 189.686 77.4374 186.733 76.6287C183.78 75.8199 181.328 73.7613 180.02 70.993C183.904 69.3755 188.332 69.7513 191.887 72H196V75ZM200 75C200 75 200.6 75.194 200.619 75.2C203.155 76.9155 206.314 77.4374 209.267 76.6287C212.22 75.8199 214.672 73.7613 215.98 70.993C212.096 69.3755 207.668 69.7513 204.113 72H200V75Z" fill="#E08300"/>
<path id="Eyeballs" fill-rule="evenodd" clip-rule="evenodd" d="M192.373 72C191.445 73.8394 189.56 74.9996 187.5 74.9996C185.44 74.9996 183.555 73.8394 182.627 72H192.373ZM203.627 72C204.555 73.8394 206.44 74.9996 208.5 74.9996C210.56 74.9996 212.445 73.8394 213.373 72H203.627Z" fill="#FF9807"/>
<path id="Irises" fill-rule="evenodd" clip-rule="evenodd" d="M189.95 72C189.714 73.1651 188.689 74.0025 187.5 74.0025C186.311 74.0025 185.287 73.1651 185.05 72H189.95ZM206.05 72C206.287 73.1651 207.311 74.0025 208.5 74.0025C209.689 74.0025 210.714 73.1651 210.95 72H206.05Z" fill="#F18D00"/>
<path id="Mouth" fill-rule="evenodd" clip-rule="evenodd" d="M198 96C202.126 96.0028 206.24 95.5765 210.277 94.728C207.82 99.2118 203.113 101.999 198 101.999C192.887 101.999 188.181 99.2118 185.723 94.728C189.76 95.5765 193.875 96.0028 198 96Z" fill="#E08300"/>
</g>
<g id="Hair">
<path id="Head_Top" fill-rule="evenodd" clip-rule="evenodd" d="M198 46C185.848 46 174.97 42.88 167.634 37.962C170.487 24.5736 182.311 15.0019 196 15H199C212.911 15.0008 224.862 24.8795 227.48 38.542C220.168 43.125 209.669 46 198 46Z" fill="#F18D00"/>
<path id="Head_Side" fill-rule="evenodd" clip-rule="evenodd" d="M175 60C175 63.9605 173.038 67.6641 169.763 69.89L167 50V44C166.992 38.0706 168.811 32.2829 172.21 27.424C175.225 29.684 176.999 33.2319 177 37L175 60ZM220 60C220 63.9608 221.961 67.6644 225.238 69.89L228 50V44C228.007 38.0706 226.188 32.2829 222.79 27.424C219.775 29.684 218 33.2319 218 37L220 60Z" fill="#F18D00"/>
<path id="Hair_2" fill-rule="evenodd" clip-rule="evenodd" d="M207 16H208V46H207V16ZM205 16H206V46H205V16ZM203 15H204V46H203V15ZM201 15H202V46H201V15ZM199 15H200V46H199V15ZM197 15H198V46H197V15ZM195 15H196V46H195V15ZM209 45V17H210V45H209ZM211 45V18H212V45H211ZM213 44V19H214V44H213ZM215 44V20H216V44H215ZM217 43V22H218V43H217ZM219 32V23H220V32H219ZM221 29V25H222V29H221ZM223.62 27.675L224.38 28.326L218.38 35.326L217.62 34.675L223.62 27.675ZM224.62 29.675L225.372 30.334L218.372 38.334L217.62 37.675L224.62 29.675ZM225.62 31.675L226.368 32.339L218.368 41.339L217.62 40.675L225.62 31.675ZM226.62 33.675L227.364 34.344L218.364 44.344L217.62 43.675L226.62 33.675ZM227.605 34.693L228.379 35.326L219.379 46.326L218.605 45.693L227.605 34.693ZM227.605 37.693L228.379 38.326L219.379 49.326L218.605 48.693L227.605 37.693ZM227.605 40.693L228.379 41.326L219.379 52.326L218.605 51.693L227.605 40.693ZM227.605 43.693L228.379 44.326L219.379 55.326L218.605 54.693L227.605 43.693ZM227.605 46.693L228.385 47.318L220.385 57.318L219.605 56.693L227.605 46.693ZM227.621 50.673L228.369 51.337L220.369 60.337L219.621 59.673L227.621 50.673ZM227.641 54.652L228.349 55.359L220.349 63.359L219.641 62.652L227.641 54.652ZM186 45V17H185V45H186ZM184 45V18H183V45H184ZM182 44V19H181V44H182ZM180 44V20H179V44H180ZM178 43V22H177V43H178ZM176 32V23H175V32H176ZM174 29V25H173V29H174ZM171.38 27.675L170.62 28.326L176.62 35.326L177.38 34.675L171.38 27.675ZM170.38 29.675L169.627 30.334L176.627 38.334L177.379 37.675L170.38 29.675ZM169.38 31.675L168.633 32.339L176.633 41.339L177.381 40.675L169.38 31.675ZM168.38 33.675L167.637 34.344L176.637 44.344L177.381 43.675L168.38 33.675ZM167.395 34.693L166.621 35.326L175.621 46.326L176.395 45.693L167.395 34.693ZM167.395 37.693L166.621 38.326L175.621 49.326L176.395 48.693L167.395 37.693ZM167.395 40.693L166.621 41.326L175.621 52.326L176.395 51.693L167.395 40.693ZM167.395 43.693L166.621 44.326L175.621 55.326L176.395 54.693L167.395 43.693ZM167.395 46.693L166.614 47.318L174.614 57.318L175.394 56.693L167.395 46.693ZM167.378 50.673L166.631 51.337L174.631 60.337L175.379 59.673L167.378 50.673ZM167.358 54.652L166.651 55.359L174.651 63.359L175.359 62.652L167.358 54.652ZM188 45V16H187V45H188ZM190 46V16H189V46H190ZM192 46V15H191V46H192ZM194 46V15H193V46H194Z" fill="#E08300"/>
</g>
</g>
<circle id="oval-4_2" cx="149" cy="97" r="23" fill="white" fill-opacity="0.16"/>
<path id="Business Intelligenc" d="M45.2148 120C46.418 120 47.1641 119.375 47.1641 118.387C47.1641 117.66 46.6211 117.098 45.875 117.043V116.973C46.4531 116.887 46.8945 116.367 46.8945 115.77C46.8945 114.898 46.2422 114.363 45.1484 114.363H42.6836V120H45.2148ZM43.8633 115.266H44.8477C45.4102 115.266 45.7344 115.535 45.7344 115.984C45.7344 116.438 45.3867 116.699 44.75 116.699H43.8633V115.266ZM43.8633 119.098V117.496H44.8867C45.582 117.496 45.9609 117.77 45.9609 118.285C45.9609 118.812 45.5938 119.098 44.9141 119.098H43.8633ZM52.0156 115.691H50.8789V118.176C50.8789 118.75 50.5742 119.105 50.0078 119.105C49.4844 119.105 49.2148 118.801 49.2148 118.207V115.691H48.0781V118.5C48.0781 119.5 48.6562 120.094 49.5859 120.094C50.2383 120.094 50.6406 119.809 50.8438 119.309H50.9141V120H52.0156V115.691ZM53.0586 116.957C53.0586 117.621 53.4648 118.02 54.3008 118.203L55.082 118.379C55.4609 118.461 55.625 118.59 55.625 118.801C55.625 119.078 55.3203 119.262 54.8789 119.262C54.4258 119.262 54.1484 119.094 54.0625 118.801H52.9531C53.0312 119.629 53.7188 120.094 54.8555 120.094C55.9844 120.094 56.7539 119.531 56.7539 118.672C56.7539 118.027 56.3789 117.676 55.543 117.492L54.7344 117.316C54.3359 117.227 54.1523 117.098 54.1523 116.887C54.1523 116.613 54.4531 116.43 54.8594 116.43C55.2812 116.43 55.543 116.602 55.6016 116.879H56.6523C56.5898 116.055 55.9453 115.598 54.8516 115.598C53.7773 115.598 53.0586 116.141 53.0586 116.957ZM57.6953 120H58.832V115.691H57.6953V120ZM58.2656 115.09C58.6719 115.09 58.9375 114.852 58.9375 114.516C58.9375 114.176 58.6719 113.941 58.2656 113.941C57.8555 113.941 57.5938 114.176 57.5938 114.516C57.5938 114.852 57.8555 115.09 58.2656 115.09ZM59.9844 120H61.1211V117.516C61.1211 116.949 61.4453 116.578 61.9727 116.578C62.5117 116.578 62.7656 116.891 62.7656 117.484V120H63.9023V117.215C63.9023 116.184 63.3867 115.598 62.4297 115.598C61.793 115.598 61.3555 115.898 61.1562 116.383H61.0859V115.691H59.9844V120ZM66.8711 116.469C67.4023 116.469 67.7461 116.824 67.7695 117.395H65.9336C65.9727 116.836 66.3438 116.469 66.8711 116.469ZM67.793 118.773C67.6719 119.059 67.3633 119.219 66.9141 119.219C66.3203 119.219 65.9453 118.82 65.9297 118.18V118.121H68.8867V117.773C68.8867 116.406 68.1367 115.598 66.8672 115.598C65.5859 115.598 64.7969 116.465 64.7969 117.867C64.7969 119.266 65.5703 120.094 66.8828 120.094C67.9375 120.094 68.6797 119.586 68.8516 118.773H67.793ZM69.7227 116.957C69.7227 117.621 70.1289 118.02 70.9648 118.203L71.7461 118.379C72.125 118.461 72.2891 118.59 72.2891 118.801C72.2891 119.078 71.9844 119.262 71.543 119.262C71.0898 119.262 70.8125 119.094 70.7266 118.801H69.6172C69.6953 119.629 70.3828 120.094 71.5195 120.094C72.6484 120.094 73.418 119.531 73.418 118.672C73.418 118.027 73.043 117.676 72.207 117.492L71.3984 117.316C71 117.227 70.8164 117.098 70.8164 116.887C70.8164 116.613 71.1172 116.43 71.5234 116.43C71.9453 116.43 72.207 116.602 72.2656 116.879H73.3164C73.2539 116.055 72.6094 115.598 71.5156 115.598C70.4414 115.598 69.7227 116.141 69.7227 116.957ZM74.1758 116.957C74.1758 117.621 74.582 118.02 75.418 118.203L76.1992 118.379C76.5781 118.461 76.7422 118.59 76.7422 118.801C76.7422 119.078 76.4375 119.262 75.9961 119.262C75.543 119.262 75.2656 119.094 75.1797 118.801H74.0703C74.1484 119.629 74.8359 120.094 75.9727 120.094C77.1016 120.094 77.8711 119.531 77.8711 118.672C77.8711 118.027 77.4961 117.676 76.6602 117.492L75.8516 117.316C75.4531 117.227 75.2695 117.098 75.2695 116.887C75.2695 116.613 75.5703 116.43 75.9766 116.43C76.3984 116.43 76.6602 116.602 76.7188 116.879H77.7695C77.707 116.055 77.0625 115.598 75.9688 115.598C74.8945 115.598 74.1758 116.141 74.1758 116.957ZM82.1602 120V114.363H80.9805V120H82.1602ZM83.4141 120H84.5508V117.516C84.5508 116.949 84.875 116.578 85.4023 116.578C85.9414 116.578 86.1953 116.891 86.1953 117.484V120H87.332V117.215C87.332 116.184 86.8164 115.598 85.8594 115.598C85.2227 115.598 84.7852 115.898 84.5859 116.383H84.5156V115.691H83.4141V120ZM88.7617 114.668V115.734H88.0898V116.629H88.7617V118.836C88.7617 119.676 89.1758 120.016 90.2227 120.016C90.4414 120.016 90.6523 119.992 90.793 119.965V119.098C90.6836 119.109 90.6055 119.113 90.457 119.113C90.0703 119.113 89.8984 118.941 89.8984 118.566V116.629H90.793V115.734H89.8984V114.668H88.7617ZM93.5742 116.469C94.1055 116.469 94.4492 116.824 94.4727 117.395H92.6367C92.6758 116.836 93.0469 116.469 93.5742 116.469ZM94.4961 118.773C94.375 119.059 94.0664 119.219 93.6172 119.219C93.0234 119.219 92.6484 118.82 92.6328 118.18V118.121H95.5898V117.773C95.5898 116.406 94.8398 115.598 93.5703 115.598C92.2891 115.598 91.5 116.465 91.5 117.867C91.5 119.266 92.2734 120.094 93.5859 120.094C94.6406 120.094 95.3828 119.586 95.5547 118.773H94.4961ZM96.5625 120H97.6992V114.047H96.5625V120ZM98.9219 120H100.059V114.047H98.9219V120ZM101.25 120H102.387V115.691H101.25V120ZM101.82 115.09C102.227 115.09 102.492 114.852 102.492 114.516C102.492 114.176 102.227 113.941 101.82 113.941C101.41 113.941 101.148 114.176 101.148 114.516C101.148 114.852 101.41 115.09 101.82 115.09ZM105.453 119.039C104.836 119.039 104.484 118.566 104.484 117.805C104.484 117.051 104.84 116.574 105.453 116.574C106.066 116.574 106.438 117.051 106.438 117.809C106.438 118.566 106.07 119.039 105.453 119.039ZM105.438 121.633C106.738 121.633 107.562 120.996 107.562 119.984V115.691H106.461V116.383H106.391C106.16 115.91 105.664 115.621 105.082 115.621C103.988 115.621 103.316 116.473 103.316 117.809C103.316 119.105 103.984 119.938 105.059 119.938C105.664 119.938 106.117 119.695 106.355 119.242H106.426V120.039C106.426 120.523 106.07 120.805 105.461 120.805C104.969 120.805 104.648 120.637 104.59 120.371H103.465C103.535 121.129 104.293 121.633 105.438 121.633ZM110.566 116.469C111.098 116.469 111.441 116.824 111.465 117.395H109.629C109.668 116.836 110.039 116.469 110.566 116.469ZM111.488 118.773C111.367 119.059 111.059 119.219 110.609 119.219C110.016 119.219 109.641 118.82 109.625 118.18V118.121H112.582V117.773C112.582 116.406 111.832 115.598 110.562 115.598C109.281 115.598 108.492 116.465 108.492 117.867C108.492 119.266 109.266 120.094 110.578 120.094C111.633 120.094 112.375 119.586 112.547 118.773H111.488ZM113.516 120H114.652V117.516C114.652 116.949 114.977 116.578 115.504 116.578C116.043 116.578 116.297 116.891 116.297 117.484V120H117.434V117.215C117.434 116.184 116.918 115.598 115.961 115.598C115.324 115.598 114.887 115.898 114.688 116.383H114.617V115.691H113.516V120ZM122.352 117.211C122.258 116.23 121.574 115.598 120.434 115.598C119.086 115.598 118.328 116.406 118.328 117.836C118.328 119.281 119.09 120.094 120.434 120.094C121.555 120.094 122.258 119.473 122.352 118.508H121.289C121.203 118.934 120.898 119.16 120.434 119.16C119.824 119.16 119.477 118.695 119.477 117.836C119.477 116.988 119.82 116.531 120.434 116.531C120.918 116.531 121.211 116.801 121.289 117.211H122.352ZM125.105 116.469C125.637 116.469 125.98 116.824 126.004 117.395H124.168C124.207 116.836 124.578 116.469 125.105 116.469ZM126.027 118.773C125.906 119.059 125.598 119.219 125.148 119.219C124.555 119.219 124.18 118.82 124.164 118.18V118.121H127.121V117.773C127.121 116.406 126.371 115.598 125.102 115.598C123.82 115.598 123.031 116.465 123.031 117.867C123.031 119.266 123.805 120.094 125.117 120.094C126.172 120.094 126.914 119.586 127.086 118.773H126.027Z" fill="white" fill-opacity="0.4"/>
<path id="Analytics" d="M123.703 132H124.941L125.359 130.633H127.348L127.766 132H129.008L127.047 126.363H125.66L123.703 132ZM126.32 127.488H126.391L127.078 129.75H125.629L126.32 127.488ZM129.852 132H130.992V129.512C130.992 128.93 131.312 128.551 131.84 128.551C132.379 128.551 132.629 128.871 132.629 129.477V132H133.77V129.219C133.77 128.191 133.254 127.605 132.297 127.605C131.684 127.605 131.258 127.898 131.062 128.363H130.992V127.699H129.852V132ZM136.047 132.066C136.609 132.066 137.062 131.828 137.281 131.43H137.352V132H138.477V129.062C138.477 128.145 137.832 127.605 136.691 127.605C135.609 127.605 134.898 128.105 134.809 128.859L134.805 128.895H135.859L135.867 128.879C135.957 128.625 136.219 128.48 136.629 128.48C137.098 128.48 137.352 128.691 137.352 129.062V129.418L136.312 129.48C135.242 129.543 134.645 129.996 134.645 130.77V130.777C134.645 131.559 135.227 132.066 136.047 132.066ZM135.758 130.707V130.699C135.758 130.387 135.996 130.203 136.484 130.172L137.352 130.117V130.434C137.352 130.887 136.957 131.234 136.43 131.234C136.035 131.234 135.758 131.035 135.758 130.707ZM139.633 132H140.773V126.055H139.633V132ZM142.465 133.516C143.527 133.516 144.094 133.133 144.477 131.996L145.941 127.699H144.738L143.836 130.957H143.758L142.855 127.699H141.602L143.113 132L143.074 132.164C142.992 132.5 142.758 132.656 142.352 132.656C142.246 132.656 142.133 132.652 142.055 132.645V133.504C142.188 133.512 142.332 133.516 142.465 133.516ZM148.52 132.016C148.738 132.016 148.949 131.992 149.09 131.965V131.117C148.98 131.129 148.902 131.137 148.754 131.137C148.367 131.137 148.203 130.965 148.203 130.578V128.559H149.09V127.699H148.203V126.672H147.051V127.699H146.387V128.559H147.051V130.84C147.051 131.676 147.473 132.016 148.52 132.016ZM150.621 127.039C150.973 127.039 151.262 126.758 151.262 126.406C151.262 126.051 150.973 125.77 150.621 125.77C150.27 125.77 149.977 126.051 149.977 126.406C149.977 126.758 150.27 127.039 150.621 127.039ZM150.047 132H151.188V127.699H150.047V132ZM154.23 132.09C155.352 132.09 156.023 131.488 156.141 130.551L156.145 130.527H155.09L155.082 130.543C154.98 130.973 154.703 131.195 154.234 131.195C153.625 131.195 153.285 130.715 153.285 129.844V129.836C153.285 128.977 153.621 128.5 154.234 128.5C154.723 128.5 155.008 128.773 155.082 129.191L155.086 129.199H156.148V129.188C156.047 128.227 155.371 127.605 154.23 127.605C152.883 127.605 152.125 128.422 152.125 129.836V129.844C152.125 131.273 152.887 132.09 154.23 132.09ZM158.75 132.09C159.852 132.09 160.637 131.535 160.637 130.684V130.68C160.637 130.043 160.234 129.684 159.375 129.5L158.66 129.348C158.215 129.25 158.055 129.117 158.055 128.887V128.883C158.055 128.594 158.336 128.41 158.73 128.41C159.156 128.41 159.41 128.625 159.473 128.855L159.477 128.875H160.535V128.859C160.488 128.168 159.863 127.605 158.734 127.605C157.66 127.605 156.941 128.145 156.941 128.953V128.957C156.941 129.602 157.348 130.004 158.168 130.18L158.887 130.332C159.324 130.43 159.496 130.574 159.496 130.805V130.812C159.496 131.098 159.199 131.285 158.762 131.285C158.312 131.285 158.051 131.094 157.961 130.828L157.953 130.812H156.832L156.836 130.828C156.918 131.566 157.582 132.09 158.75 132.09Z" fill="white" fill-opacity="0.24"/>
<path id="CRO" d="M146.305 108.145C147.664 108.145 148.656 107.305 148.754 106.086H147.605C147.492 106.707 146.984 107.105 146.309 107.105C145.418 107.105 144.867 106.367 144.867 105.18C144.867 103.992 145.418 103.258 146.305 103.258C146.977 103.258 147.488 103.684 147.602 104.332H148.75C148.664 103.105 147.641 102.219 146.305 102.219C144.668 102.219 143.66 103.348 143.66 105.18C143.66 107.016 144.672 108.145 146.305 108.145ZM151.02 103.316H152.043C152.629 103.316 152.996 103.652 152.996 104.188C152.996 104.73 152.648 105.051 152.055 105.051H151.02V103.316ZM151.02 105.957H151.984L153.035 108H154.371L153.184 105.773C153.832 105.516 154.207 104.891 154.207 104.172C154.207 103.051 153.445 102.363 152.207 102.363H149.84V108H151.02V105.957ZM157.859 102.219C156.203 102.219 155.145 103.352 155.145 105.18C155.145 107.008 156.188 108.145 157.859 108.145C159.527 108.145 160.566 107.008 160.566 105.18C160.566 103.355 159.523 102.219 157.859 102.219ZM157.859 103.254C158.777 103.254 159.363 104 159.363 105.18C159.363 106.355 158.777 107.109 157.859 107.109C156.934 107.109 156.352 106.355 156.352 105.18C156.352 104 156.945 103.254 157.859 103.254Z" fill="white" fill-opacity="0.24"/>
<path id="Laad Generation" d="M76.457 106.973H73.9492V102.363H72.7695V108H76.457V106.973ZM78.9688 107.211C78.5742 107.211 78.2969 107.016 78.2969 106.695C78.2969 106.387 78.5352 106.211 79.0234 106.176L79.8945 106.121V106.438C79.8945 106.875 79.4961 107.211 78.9688 107.211ZM78.5938 108.066C79.1523 108.066 79.6211 107.832 79.8438 107.438H79.9141V108H81.0156V105.059C81.0156 104.137 80.3711 103.598 79.2305 103.598C78.1484 103.598 77.418 104.098 77.3438 104.895H78.3906C78.4844 104.637 78.7578 104.496 79.168 104.496C79.6367 104.496 79.8945 104.699 79.8945 105.059V105.41L78.8516 105.473C77.7812 105.535 77.1836 105.988 77.1836 106.77C77.1836 107.559 77.7656 108.066 78.5938 108.066ZM83.6875 107.211C83.293 107.211 83.0156 107.016 83.0156 106.695C83.0156 106.387 83.2539 106.211 83.7422 106.176L84.6133 106.121V106.438C84.6133 106.875 84.2148 107.211 83.6875 107.211ZM83.3125 108.066C83.8711 108.066 84.3398 107.832 84.5625 107.438H84.6328V108H85.7344V105.059C85.7344 104.137 85.0898 103.598 83.9492 103.598C82.8672 103.598 82.1367 104.098 82.0625 104.895H83.1094C83.2031 104.637 83.4766 104.496 83.8867 104.496C84.3555 104.496 84.6133 104.699 84.6133 105.059V105.41L83.5703 105.473C82.5 105.535 81.9023 105.988 81.9023 106.77C81.9023 107.559 82.4844 108.066 83.3125 108.066ZM88.3945 108.066C88.9922 108.066 89.4805 107.789 89.7109 107.324H89.7812V108H90.8828V102.047H89.7461V104.379H89.6797C89.457 103.902 88.9766 103.621 88.3945 103.621C87.3125 103.621 86.6406 104.469 86.6406 105.84C86.6406 107.215 87.3086 108.066 88.3945 108.066ZM88.7812 104.574C89.3867 104.574 89.7578 105.062 89.7578 105.848C89.7578 106.637 89.3906 107.117 88.7812 107.117C88.1719 107.117 87.8086 106.641 87.8086 105.844C87.8086 105.055 88.1758 104.574 88.7812 104.574ZM99.1914 105.699V104.98H96.8242V105.867H98.0469L98.043 105.969C98.0195 106.648 97.4844 107.105 96.7109 107.105C95.7812 107.105 95.1953 106.371 95.1953 105.164C95.1953 103.98 95.7539 103.258 96.6641 103.258C97.3203 103.258 97.793 103.59 97.9688 104.16H99.1406C98.9766 102.988 97.9961 102.219 96.6641 102.219C95.0234 102.219 93.9883 103.359 93.9883 105.176C93.9883 107.02 95.0156 108.145 96.6914 108.145C98.2305 108.145 99.1914 107.207 99.1914 105.699ZM102.074 104.469C102.605 104.469 102.949 104.824 102.973 105.395H101.137C101.176 104.836 101.547 104.469 102.074 104.469ZM102.996 106.773C102.875 107.059 102.566 107.219 102.117 107.219C101.523 107.219 101.148 106.82 101.133 106.18V106.121H104.09V105.773C104.09 104.406 103.34 103.598 102.07 103.598C100.789 103.598 100 104.465 100 105.867C100 107.266 100.773 108.094 102.086 108.094C103.141 108.094 103.883 107.586 104.055 106.773H102.996ZM105.023 108H106.16V105.516C106.16 104.949 106.484 104.578 107.012 104.578C107.551 104.578 107.805 104.891 107.805 105.484V108H108.941V105.215C108.941 104.184 108.426 103.598 107.469 103.598C106.832 103.598 106.395 103.898 106.195 104.383H106.125V103.691H105.023V108ZM111.91 104.469C112.441 104.469 112.785 104.824 112.809 105.395H110.973C111.012 104.836 111.383 104.469 111.91 104.469ZM112.832 106.773C112.711 107.059 112.402 107.219 111.953 107.219C111.359 107.219 110.984 106.82 110.969 106.18V106.121H113.926V105.773C113.926 104.406 113.176 103.598 111.906 103.598C110.625 103.598 109.836 104.465 109.836 105.867C109.836 107.266 110.609 108.094 111.922 108.094C112.977 108.094 113.719 107.586 113.891 106.773H112.832ZM114.859 108H115.996V105.613C115.996 105.008 116.422 104.641 117.043 104.641C117.227 104.641 117.492 104.676 117.582 104.711V103.676C117.484 103.641 117.293 103.621 117.137 103.621C116.59 103.621 116.145 103.949 116.031 104.379H115.961V103.691H114.859V108ZM119.82 107.211C119.426 107.211 119.148 107.016 119.148 106.695C119.148 106.387 119.387 106.211 119.875 106.176L120.746 106.121V106.438C120.746 106.875 120.348 107.211 119.82 107.211ZM119.445 108.066C120.004 108.066 120.473 107.832 120.695 107.438H120.766V108H121.867V105.059C121.867 104.137 121.223 103.598 120.082 103.598C119 103.598 118.27 104.098 118.195 104.895H119.242C119.336 104.637 119.609 104.496 120.02 104.496C120.488 104.496 120.746 104.699 120.746 105.059V105.41L119.703 105.473C118.633 105.535 118.035 105.988 118.035 106.77C118.035 107.559 118.617 108.066 119.445 108.066ZM123.309 102.668V103.734H122.637V104.629H123.309V106.836C123.309 107.676 123.723 108.016 124.77 108.016C124.988 108.016 125.199 107.992 125.34 107.965V107.098C125.23 107.109 125.152 107.113 125.004 107.113C124.617 107.113 124.445 106.941 124.445 106.566V104.629H125.34V103.734H124.445V102.668H123.309ZM126.297 108H127.434V103.691H126.297V108ZM126.867 103.09C127.273 103.09 127.539 102.852 127.539 102.516C127.539 102.176 127.273 101.941 126.867 101.941C126.457 101.941 126.195 102.176 126.195 102.516C126.195 102.852 126.457 103.09 126.867 103.09ZM130.496 108.094C131.82 108.094 132.617 107.254 132.617 105.844C132.617 104.445 131.809 103.598 130.496 103.598C129.184 103.598 128.375 104.449 128.375 105.844C128.375 107.254 129.172 108.094 130.496 108.094ZM130.496 107.164C129.887 107.164 129.543 106.684 129.543 105.844C129.543 105.016 129.891 104.527 130.496 104.527C131.098 104.527 131.449 105.016 131.449 105.844C131.449 106.68 131.102 107.164 130.496 107.164ZM133.547 108H134.684V105.516C134.684 104.949 135.008 104.578 135.535 104.578C136.074 104.578 136.328 104.891 136.328 105.484V108H137.465V105.215C137.465 104.184 136.949 103.598 135.992 103.598C135.355 103.598 134.918 103.898 134.719 104.383H134.648V103.691H133.547V108Z" fill="white" fill-opacity="0.24"/>
</g>
</g>
<defs>
<clipPath id="clip0_547_11984">
<rect width="400" height="192" fill="white"/>
</clipPath>
</defs>
</svg>
