<svg width="2560" height="1058" viewBox="0 0 2560 1058" fill="none" xmlns="http://www.w3.org/2000/svg"><g clip-path="url(#clip0_2436_6976)"><path d="M0 185.36c255.412 192.005 572.925 305.785 917 305.785 443.59 0 843.02-189.111 1122.16-491.145M0 1057.52c546.438-280.208 1165.76-438.313 1822-438.313 252.13 0 498.81 23.338 738 67.973" stroke="#E0E4E6" stroke-dasharray="4 4"/><g clip-path="url(#clip1_2436_6976)"><circle cx="967" cy="34" r="3" fill="#E3E6E8"/><circle cx="940" cy="66" r="3" fill="#E3E6E8"/><circle cx="937" cy="41" r="6" fill="#E3E6E8"/><circle cx="898" cy="261" r="6" fill="#E3E6E8"/><circle cx="1619" cy="69" r="3" fill="#E3E6E8"/><circle cx="1606" cy="44" r="6" fill="#E3E6E8"/><circle cx="1813" cy="200" r="12" fill="#F4F5F6" stroke="#E3E6E8" stroke-width="8"/><path d="M945.505 678.262l4.838 6.476 8.049-.738-4.664 6.602 3.19 7.428-7.72-2.396-6.079 5.329-.107-8.083-6.946-4.134 7.654-2.6 1.785-7.884z" fill="#D5DADD"/></g></g><defs><clipPath id="clip0_2436_6976"><path fill="#fff" d="M0 0h2560v1057.52H0z"/></clipPath><clipPath id="clip1_2436_6976"><path fill="#fff" transform="translate(892 31)" d="M0 0h937v673.233H0z"/></clipPath></defs></svg>