<svg width="24" height="24" viewBox="0 0 24 24" xmlns="http://www.w3.org/2000/svg"><g id="Export" stroke="none" stroke-width="1" fill="none" fill-rule="evenodd"><g id="Logos-+-Bg" transform="translate(-159 -17)"><g id="Components-/-Logo-Mobile" transform="translate(159 17)"><path d="M137.334 22.011l-1.96-2.881a59.385 59.385 0 00-2.17-2.989l-.962.912v2.789c0 .286.051.522.152.709a.905.905 0 00.492.411c.188.08.367.139.539.179.172.04.371.067.598.083v.787h-5.66v-.787c.178-.016.364-.033.559-.053.193-.02.356-.05.488-.09a.862.862 0 00.489-.376c.109-.178.163-.411.163-.697V6.778c0-.294-.06-.571-.182-.829a1.44 1.44 0 00-.474-.59c-.164-.127-.42-.211-.768-.251a22.22 22.22 0 00-.838-.083v-.763L132.078 4l.164.179v11.994c.61-.619 1.268-1.284 1.976-1.995a40.695 40.695 0 001.788-1.9 2.35 2.35 0 00.205-.281c.074-.115.111-.209.111-.281 0-.215-.169-.374-.509-.478a5.91 5.91 0 00-.979-.215v-.763h5.084v.739a7.921 7.921 0 00-1.741.745c-.504.298-.888.566-1.154.804-.187.159-.453.417-.798.774-.344.357-.825.825-1.443 1.404a70.224 70.224 0 012.164 2.885 270.064 270.064 0 001.752 2.433c.344.469.653.775.927.918.273.143.671.231 1.195.262v.787h-3.486zm-8.562-11.548c.309.325.463.762.463 1.311a2 2 0 01-.293 1.078c-.195.314-.496.471-.902.471-.438 0-.772-.115-1.002-.346-.231-.23-.346-.484-.346-.763 0-.174.014-.333.041-.476.027-.143.053-.286.076-.429-.367 0-.797.151-1.289.453-.492.302-.91.731-1.254 1.287v6.84c0 .279.053.505.158.68a.96.96 0 00.498.393c.196.08.448.139.756.179.309.04.576.067.803.083v.787h-6.094v-.787l.557-.047c.191-.016.357-.048.498-.096a.84.84 0 00.486-.374c.106-.179.158-.411.158-.697v-7.249c0-.246-.056-.488-.169-.726a1.45 1.45 0 00-.475-.572 1.6 1.6 0 00-.527-.208 4.74 4.74 0 00-.657-.089v-.787l3.844-.262.164.167v1.656h.059c.484-.643 1.023-1.132 1.617-1.466.594-.333 1.137-.5 1.629-.5s.892.163 1.201.489zm-10.729 11.786c-.61 0-1.096-.145-1.459-.435-.364-.29-.596-.713-.698-1.269h-.07c-.508.572-1.053 1.009-1.635 1.311-.582.302-1.283.453-2.103.453-.867 0-1.581-.27-2.139-.811-.559-.54-.838-1.247-.838-2.121 0-.453.063-.858.188-1.216.125-.357.312-.679.562-.965.195-.238.453-.451.774-.638a6.75 6.75 0 01.902-.446 70.31 70.31 0 012.139-.751c1.074-.366 1.798-.652 2.173-.858v-1.18c0-.103-.021-.302-.064-.596a2.536 2.536 0 00-.275-.834 2.37 2.37 0 00-.663-.769c-.285-.218-.689-.328-1.212-.328-.36 0-.694.062-1.002.185-.309.123-.526.252-.651.387 0 .159.037.394.112.703.074.31.111.596.111.859 0 .278-.123.532-.369.762-.246.231-.588.346-1.026.346-.39 0-.678-.141-.861-.423a1.696 1.696 0 01-.275-.948c0-.365.127-.715.38-1.048.254-.334.584-.632.991-.894a5.312 5.312 0 011.277-.566c.5-.155.988-.233 1.465-.233.656 0 1.228.046 1.717.137.488.092.931.288 1.33.59.398.294.701.694.908 1.198.207.505.311 1.154.311 1.949 0 1.136-.012 2.143-.036 3.021-.023.878-.035 1.837-.035 2.878 0 .31.053.556.158.739.106.183.268.337.487.464.117.072.302.112.556.12.254.008.514.012.78.012v.762c-.368.135-.69.245-.967.328a3.293 3.293 0 01-.943.125zm-3.926-6.16c-.5.191-.965.43-1.395.717a3.2 3.2 0 00-.926.961c-.226.37-.339.81-.339 1.32 0 .661.17 1.146.509 1.457.34.311.772.466 1.295.466.555 0 1.043-.138 1.465-.412a4.302 4.302 0 001.067-.974l.07-4.12c-.664.199-1.246.394-1.746.585zm-13.157 5.076a12.72 12.72 0 001.025-.084c.418-.047.705-.115.862-.202.242-.151.42-.324.533-.519.113-.194.17-.439.17-.733V7.328h-.176l-5.797 14.409h-.586L91.339 7.03h-.153v10.095c0 .977.061 1.72.182 2.228.121.509.307.874.557 1.097.172.166.527.325 1.066.476.539.151.891.231 1.055.239v.846h-6.715v-.846a8.58 8.58 0 001.107-.179c.387-.087.686-.219.897-.393.273-.223.461-.564.562-1.025.102-.461.153-1.232.153-2.312V8.603c0-.5-.059-.909-.176-1.227a1.92 1.92 0 00-.504-.775 2.297 2.297 0 00-.891-.476 4.379 4.379 0 00-1.043-.179V5.1h5.67l4.639 12.693 4.566-10.618c.148-.39.275-.797.381-1.223.105-.425.162-.709.169-.852h5.423v.846a5.994 5.994 0 00-.838.107c-.34.064-.588.123-.744.179-.266.095-.445.254-.539.477a1.843 1.843 0 00-.141.726v12.192c0 .278.047.513.141.703.094.191.273.358.539.501.141.079.391.153.75.22.359.068.645.106.856.114v.846h-7.348v-.846zm-12.678-9.391a2 2 0 01-.293 1.078c-.196.314-.497.471-.903.471-.437 0-.771-.115-1.002-.346-.23-.23-.345-.484-.345-.763 0-.174.013-.333.041-.476.027-.143.052-.286.076-.429-.368 0-.797.151-1.289.453-.493.302-.911.731-1.254 1.287v6.84c0 .279.052.505.158.68a.952.952 0 00.498.393c.195.08.447.139.756.179.308.04.576.067.803.083v.787h-6.094v-.787l.556-.047c.192-.016.358-.048.499-.096a.847.847 0 00.486-.374c.105-.179.158-.411.158-.697v-7.249c0-.246-.057-.488-.17-.726a1.44 1.44 0 00-.474-.572 1.606 1.606 0 00-.528-.208 4.726 4.726 0 00-.656-.089v-.787l3.844-.262.164.167v1.656h.058c.485-.643 1.024-1.132 1.618-1.466.593-.333 1.136-.5 1.628-.5.493 0 .893.163 1.202.489.308.325.463.762.463 1.311zm-16.128 7.755c.305.461.703.826 1.195 1.092.492.267 1.078.401 1.758.401.695 0 1.295-.166 1.799-.498.504-.331.99-.928 1.459-1.791l.82.513c-.484.937-1.133 1.684-1.945 2.24-.813.556-1.746.835-2.801.835-.93 0-1.744-.167-2.443-.501a4.797 4.797 0 01-1.729-1.359 5.811 5.811 0 01-1.014-2.002 8.61 8.61 0 01-.334-2.419c0-.763.12-1.511.358-2.246a6.37 6.37 0 011.049-1.985 5.083 5.083 0 011.658-1.364c.66-.346 1.4-.519 2.221-.519.843 0 1.566.135 2.168.405.601.271 1.089.64 1.464 1.109.36.445.627.969.803 1.573a7 7 0 01.264 1.966v.787h-7.652c0 .772.072 1.473.216 2.102a5.09 5.09 0 00.686 1.661zm4.441-4.764a9.9 9.9 0 00-.111-1.426c-.074-.507-.193-.93-.357-1.271a2.404 2.404 0 00-.739-.891c-.312-.23-.715-.345-1.207-.345-.82 0-1.502.347-2.045 1.04-.543.693-.838 1.657-.884 2.893h5.343zm-9.623 5.851a5.666 5.666 0 01-1.746 1.264c-.64.294-1.32.441-2.039.441-.695 0-1.265-.08-1.711-.239-.445-.159-.808-.345-1.09-.56h-.093v4.203c0 .287.054.526.164.717.109.191.277.33.504.418a5.2 5.2 0 00.802.209c.348.068.635.105.862.113v.787h-6.457v-.787c.242-.016.476-.035.703-.059a3.27 3.27 0 00.609-.119.794.794 0 00.492-.418c.094-.198.141-.433.141-.703V12.715c0-.238-.059-.469-.176-.691a1.52 1.52 0 00-.457-.537c-.14-.095-.336-.168-.586-.22a5.358 5.358 0 00-.726-.101v-.787l3.937-.262.164.143v1.323l.094.024c.406-.477.91-.874 1.512-1.192.601-.318 1.199-.477 1.793-.477.718 0 1.377.155 1.974.465.598.31 1.112.727 1.541 1.251a6.162 6.162 0 011.073 1.937c.253.735.38 1.575.38 2.521 0 .929-.152 1.777-.457 2.544a6.225 6.225 0 01-1.207 1.96zM66 14.407a5.215 5.215 0 00-.586-1.597 3.327 3.327 0 00-1.043-1.12c-.43-.286-.946-.429-1.547-.429-.578 0-1.071.129-1.477.387a4.484 4.484 0 00-1.054.924v6.948c.07.215.185.437.345.667.16.231.338.429.534.596.242.199.503.36.785.483.281.123.625.185 1.031.185.437 0 .859-.117 1.266-.352a2.951 2.951 0 001.019-.995 5.46 5.46 0 00.692-1.716 9.873 9.873 0 00.222-2.181 8.98 8.98 0 00-.187-1.8zm-8.937 6.603v.786l-3.773.262-.177-.166v-1.49h-.07c-.187.199-.398.411-.632.638a4.437 4.437 0 01-.807.613 5.08 5.08 0 01-1.018.489c-.327.111-.791.167-1.392.167-1.022 0-1.8-.34-2.334-1.018-.534-.679-.801-1.665-.801-2.958v-5.62c0-.285-.053-.525-.159-.72a1.508 1.508 0 00-.466-.506 1.493 1.493 0 00-.531-.208 4.98 4.98 0 00-.672-.089v-.787l3.855-.286.176.167v8.163c0 .851.187 1.49.562 1.919.375.429.825.644 1.348.644.43 0 .813-.068 1.149-.203.335-.134.617-.293.843-.476.211-.166.397-.343.557-.529.16-.187.283-.359.369-.518V12.63a1.45 1.45 0 00-.164-.697 1.563 1.563 0 00-.457-.517c-.141-.096-.35-.153-.627-.173-.277-.02-.588-.037-.932-.053v-.787l4.207-.286.176.167v9.321c0 .27.055.5.164.691.11.19.262.353.457.487.141.088.309.146.504.173.195.028.41.046.645.054zm-19.434-9.749c.57.278 1.131.518 1.682.721a25.15 25.15 0 011.599.65c.469.206.92.441 1.354.703.434.262.81.568 1.131.917.351.398.611.833.779 1.305.168.473.252 1.023.252 1.651 0 1.494-.543 2.725-1.629 3.694-1.086.97-2.433 1.454-4.043 1.454a7.366 7.366 0 01-2.226-.351 8.517 8.517 0 01-1.922-.852l-.504.87h-.938L33 16.231h.95c.195.715.423 1.36.685 1.936a6.764 6.764 0 001.037 1.615c.406.469.881.842 1.424 1.12.543.279 1.174.418 1.893.418.539 0 1.009-.072 1.412-.215.402-.143.728-.346.978-.609a2.49 2.49 0 00.557-.925c.121-.354.181-.762.181-1.223 0-.676-.187-1.307-.562-1.891-.375-.585-.934-1.029-1.676-1.331a84.585 84.585 0 00-1.746-.682 25.94 25.94 0 01-1.699-.707c-.938-.429-1.666-.991-2.186-1.685-.519-.695-.779-1.603-.779-2.723 0-.643.129-1.243.387-1.799a4.691 4.691 0 011.101-1.489 4.975 4.975 0 011.606-.971 5.405 5.405 0 011.933-.352c.766 0 1.451.119 2.057.358a9.694 9.694 0 011.658.834l.481-.81h.937l.094 5.613h-.949a21.98 21.98 0 00-.58-1.847 6.585 6.585 0 00-.838-1.597 3.86 3.86 0 00-1.231-1.103c-.484-.274-1.078-.411-1.781-.411-.742 0-1.375.243-1.898.727-.524.485-.786 1.077-.786 1.776 0 .731.168 1.337.504 1.817.336.481.825.876 1.465 1.186z" id="Shade" fill-opacity=".24" fill="#000"/><path d="M137.334 21.011l-1.96-2.881a59.385 59.385 0 00-2.17-2.989l-.962.912v2.789c0 .286.051.522.152.709a.905.905 0 00.492.411c.188.08.367.139.539.179.172.04.371.067.598.083v.787h-5.66v-.787c.178-.016.364-.033.559-.053.193-.02.356-.05.488-.09a.862.862 0 00.489-.376c.109-.178.163-.411.163-.697V5.778c0-.294-.06-.571-.182-.829a1.44 1.44 0 00-.474-.59c-.164-.127-.42-.211-.768-.251a22.22 22.22 0 00-.838-.083v-.763L132.078 3l.164.179v11.994c.61-.619 1.268-1.284 1.976-1.995a40.695 40.695 0 001.788-1.9 2.35 2.35 0 00.205-.281c.074-.115.111-.209.111-.281 0-.215-.169-.374-.509-.478a5.91 5.91 0 00-.979-.215V9.26h5.084v.739a7.921 7.921 0 00-1.741.745c-.504.298-.888.566-1.154.804-.187.159-.453.417-.798.774-.344.357-.825.825-1.443 1.404a70.224 70.224 0 012.164 2.885 270.064 270.064 0 001.752 2.433c.344.469.653.775.927.918.273.143.671.231 1.195.262v.787h-3.486zm-8.562-11.548c.309.325.463.762.463 1.311a2 2 0 01-.293 1.078c-.195.314-.496.471-.902.471-.438 0-.772-.115-1.002-.346-.231-.23-.346-.484-.346-.763 0-.174.014-.333.041-.476.027-.143.053-.286.076-.429-.367 0-.797.151-1.289.453-.492.302-.91.731-1.254 1.287v6.84c0 .279.053.505.158.68a.96.96 0 00.498.393c.196.08.448.139.756.179.309.04.576.067.803.083v.787h-6.094v-.787l.557-.047c.191-.016.357-.048.498-.096a.84.84 0 00.486-.374c.106-.179.158-.411.158-.697v-7.249c0-.246-.056-.488-.169-.726a1.45 1.45 0 00-.475-.572 1.6 1.6 0 00-.527-.208 4.74 4.74 0 00-.657-.089v-.787l3.844-.262.164.167v1.656h.059c.484-.643 1.023-1.132 1.617-1.466.594-.333 1.137-.5 1.629-.5s.892.163 1.201.489zm-10.729 11.786c-.61 0-1.096-.145-1.459-.435-.364-.29-.596-.713-.698-1.269h-.07c-.508.572-1.053 1.009-1.635 1.311-.582.302-1.283.453-2.103.453-.867 0-1.581-.27-2.139-.811-.559-.54-.838-1.247-.838-2.121 0-.453.063-.858.188-1.216.125-.357.312-.679.562-.965.195-.238.453-.451.774-.638a6.75 6.75 0 01.902-.446 70.31 70.31 0 012.139-.751c1.074-.366 1.798-.652 2.173-.858v-1.18c0-.103-.021-.302-.064-.596a2.536 2.536 0 00-.275-.834 2.37 2.37 0 00-.663-.769c-.285-.218-.689-.328-1.212-.328-.36 0-.694.062-1.002.185-.309.123-.526.252-.651.387 0 .159.037.394.112.703.074.31.111.596.111.859 0 .278-.123.532-.369.762-.246.231-.588.346-1.026.346-.39 0-.678-.141-.861-.423a1.696 1.696 0 01-.275-.948c0-.365.127-.715.38-1.048.254-.334.584-.632.991-.894a5.312 5.312 0 011.277-.566c.5-.155.988-.233 1.465-.233.656 0 1.228.046 1.717.137.488.092.931.288 1.33.59.398.294.701.694.908 1.198.207.505.311 1.154.311 1.949 0 1.136-.012 2.143-.036 3.021-.023.878-.035 1.837-.035 2.878 0 .31.053.556.158.739.106.183.268.337.487.464.117.072.302.112.556.12.254.008.514.012.78.012v.762c-.368.135-.69.245-.967.328a3.293 3.293 0 01-.943.125zm-3.926-6.16c-.5.191-.965.43-1.395.717a3.2 3.2 0 00-.926.961c-.226.37-.339.81-.339 1.32 0 .661.17 1.146.509 1.457.34.311.772.466 1.295.466.555 0 1.043-.138 1.465-.412a4.302 4.302 0 001.067-.974l.07-4.12c-.664.199-1.246.394-1.746.585zm-13.157 5.076a12.72 12.72 0 001.025-.084c.418-.047.705-.115.862-.202.242-.151.42-.324.533-.519.113-.194.17-.439.17-.733V6.328h-.176l-5.797 14.409h-.586L91.339 6.03h-.153v10.095c0 .977.061 1.72.182 2.228.121.509.307.874.557 1.097.172.166.527.325 1.066.476.539.151.891.231 1.055.239v.846h-6.715v-.846a8.58 8.58 0 001.107-.179c.387-.087.686-.219.897-.393.273-.223.461-.564.562-1.025.102-.461.153-1.232.153-2.312V7.603c0-.5-.059-.909-.176-1.227a1.92 1.92 0 00-.504-.775 2.297 2.297 0 00-.891-.476 4.379 4.379 0 00-1.043-.179V4.1h5.67l4.639 12.693 4.566-10.618c.148-.39.275-.797.381-1.223.105-.425.162-.709.169-.852h5.423v.846a5.994 5.994 0 00-.838.107c-.34.064-.588.123-.744.179-.266.095-.445.254-.539.477a1.843 1.843 0 00-.141.726v12.192c0 .278.047.513.141.703.094.191.273.358.539.501.141.079.391.153.75.22.359.068.645.106.856.114v.846h-7.348v-.846z" id="Mark" fill="#FFF"/><path d="M88.282 10.774a2 2 0 01-.293 1.078c-.196.314-.497.471-.903.471-.437 0-.771-.115-1.002-.346-.23-.23-.345-.484-.345-.763 0-.174.013-.333.041-.476.027-.143.052-.286.076-.429-.368 0-.797.151-1.289.453-.493.302-.911.731-1.254 1.287v6.84c0 .279.052.505.158.68a.952.952 0 00.498.393c.195.08.447.139.756.179.308.04.576.067.803.083v.787h-6.094v-.787l.556-.047c.192-.016.358-.048.499-.096a.847.847 0 00.486-.374c.105-.179.158-.411.158-.697v-7.249c0-.246-.057-.488-.17-.726a1.44 1.44 0 00-.474-.572 1.606 1.606 0 00-.528-.208 4.726 4.726 0 00-.656-.089v-.787l3.844-.262.164.167v1.656h.058c.485-.643 1.024-1.132 1.618-1.466.593-.333 1.136-.5 1.628-.5.493 0 .893.163 1.202.489.308.325.463.762.463 1.311zm-16.128 7.755c.305.461.703.826 1.195 1.092.492.267 1.078.401 1.758.401.695 0 1.295-.166 1.799-.498.504-.331.99-.928 1.459-1.791l.82.513c-.484.937-1.133 1.684-1.945 2.24-.813.556-1.746.835-2.801.835-.93 0-1.744-.167-2.443-.501a4.797 4.797 0 01-1.729-1.359 5.811 5.811 0 01-1.014-2.002 8.61 8.61 0 01-.334-2.419c0-.763.12-1.511.358-2.246a6.37 6.37 0 011.049-1.985 5.083 5.083 0 011.658-1.364c.66-.346 1.4-.519 2.221-.519.843 0 1.566.135 2.168.405.601.271 1.089.64 1.464 1.109.36.445.627.969.803 1.573a7 7 0 01.264 1.966v.787h-7.652c0 .772.072 1.473.216 2.102a5.09 5.09 0 00.686 1.661zm4.441-4.764a9.9 9.9 0 00-.111-1.426c-.074-.507-.193-.93-.357-1.271a2.404 2.404 0 00-.739-.891c-.312-.23-.715-.345-1.207-.345-.82 0-1.502.347-2.045 1.04-.543.693-.838 1.657-.884 2.893h5.343zm-9.623 5.851a5.666 5.666 0 01-1.746 1.264c-.64.294-1.32.441-2.039.441-.695 0-1.265-.08-1.711-.239-.445-.159-.808-.345-1.09-.56h-.093v4.203c0 .287.054.526.164.717.109.191.277.33.504.418a5.2 5.2 0 00.802.209c.348.068.635.105.862.113v.787h-6.457v-.787c.242-.016.476-.035.703-.059a3.27 3.27 0 00.609-.119.794.794 0 00.492-.418c.094-.198.141-.433.141-.703V11.715c0-.238-.059-.469-.176-.691a1.52 1.52 0 00-.457-.537c-.14-.095-.336-.168-.586-.22a5.358 5.358 0 00-.726-.101v-.787l3.937-.262.164.143v1.323l.094.024c.406-.477.91-.874 1.512-1.192.601-.318 1.199-.477 1.793-.477.718 0 1.377.155 1.974.465.598.31 1.112.727 1.541 1.251a6.162 6.162 0 011.073 1.937c.253.735.38 1.575.38 2.521 0 .929-.152 1.777-.457 2.544a6.225 6.225 0 01-1.207 1.96zM66 13.407a5.215 5.215 0 00-.586-1.597 3.327 3.327 0 00-1.043-1.12c-.43-.286-.946-.429-1.547-.429-.578 0-1.071.129-1.477.387a4.484 4.484 0 00-1.054.924v6.948c.07.215.185.437.345.667.16.231.338.429.534.596.242.199.503.36.785.483.281.123.625.185 1.031.185.437 0 .859-.117 1.266-.352a2.951 2.951 0 001.019-.995 5.46 5.46 0 00.692-1.716 9.873 9.873 0 00.222-2.181 8.98 8.98 0 00-.187-1.8zm-8.937 6.603v.786l-3.773.262-.177-.166v-1.49h-.07c-.187.199-.398.411-.632.638a4.437 4.437 0 01-.807.613 5.08 5.08 0 01-1.018.489c-.327.111-.791.167-1.392.167-1.022 0-1.8-.34-2.334-1.018-.534-.679-.801-1.665-.801-2.958v-5.62c0-.285-.053-.525-.159-.72a1.508 1.508 0 00-.466-.506 1.493 1.493 0 00-.531-.208 4.98 4.98 0 00-.672-.089v-.787l3.855-.286.176.167v8.163c0 .851.187 1.49.562 1.919.375.429.825.644 1.348.644.43 0 .813-.068 1.149-.203.335-.134.617-.293.843-.476.211-.166.397-.343.557-.529.16-.187.283-.359.369-.518V11.63a1.45 1.45 0 00-.164-.697 1.563 1.563 0 00-.457-.517c-.141-.096-.35-.153-.627-.173-.277-.02-.588-.037-.932-.053v-.787l4.207-.286.176.167v9.321c0 .27.055.5.164.691.11.19.262.353.457.487.141.088.309.146.504.173.195.028.41.046.645.054zm-19.434-9.749c.57.278 1.131.518 1.682.721a25.15 25.15 0 011.599.65c.469.206.92.441 1.354.703.434.262.81.568 1.131.917.351.398.611.833.779 1.305.168.473.252 1.023.252 1.651 0 1.494-.543 2.725-1.629 3.694-1.086.97-2.433 1.454-4.043 1.454a7.366 7.366 0 01-2.226-.351 8.517 8.517 0 01-1.922-.852l-.504.87h-.938L33 15.231h.95c.195.715.423 1.36.685 1.936a6.764 6.764 0 001.037 1.615c.406.469.881.842 1.424 1.12.543.279 1.174.418 1.893.418.539 0 1.009-.072 1.412-.215.402-.143.728-.346.978-.609a2.49 2.49 0 00.557-.925c.121-.354.181-.762.181-1.223 0-.676-.187-1.307-.562-1.891-.375-.585-.934-1.029-1.676-1.331a84.585 84.585 0 00-1.746-.682 25.94 25.94 0 01-1.699-.707c-.938-.429-1.666-.991-2.186-1.685-.519-.695-.779-1.603-.779-2.723 0-.643.129-1.243.387-1.799a4.691 4.691 0 011.101-1.489 4.975 4.975 0 011.606-.971 5.405 5.405 0 011.933-.352c.766 0 1.451.119 2.057.358a9.694 9.694 0 011.658.834l.481-.81h.937l.094 5.613h-.949a21.98 21.98 0 00-.58-1.847 6.585 6.585 0 00-.838-1.597 3.86 3.86 0 00-1.231-1.103c-.484-.274-1.078-.411-1.781-.411-.742 0-1.375.243-1.898.727-.524.485-.786 1.077-.786 1.776 0 .731.168 1.337.504 1.817.336.481.825.876 1.465 1.186z" id="Super" fill="#86898D"/><g id="Supermark" stroke-width="1"><path id="Outline" fill="#1F2226" d="M0 0h24v24H0z"/><path id="Box" fill="#FFF" d="M1 1h22v22H1z"/><g id="Lineament" transform="translate(0 3)" fill="#1F2226"><path d="M5 18h14v1H5v-1zm7-2c-1.527 0-2.891-1.167-3.808-3h1.107c.212.367.451.677.701.953V3l1-1v12.728c.321.159.652.272 1 .272s.679-.113 1-.272V2l1 1v10.953a5.53 5.53 0 00.701-.953h1.107c-.917 1.833-2.281 3-3.808 3z" id="Nose,-lips,-Adam's-apple"/><g id="Normal"><path d="M4.998 3.503C3.624 2.61 2.586 2.23.357 2.23c-.026-.02.01-.985 0-1.004 3 0 3.978.555 5.096 1.08 1.002.47 2.115.916 4.894.916v2.004c-1.26 0-3.974-.828-5.349-1.723z" id="Eyebrow" transform="rotate(-15 5.347 3.226)"/><path d="M17.998 3.503c-1.374-.894-2.412-1.273-4.641-1.273-.026-.02.01-.985 0-1.004 3 0 3.978.555 5.096 1.08 1.002.47 2.115.916 4.894.916v2.004c-1.26 0-3.974-.828-5.349-1.723z" id="Eyebrow" transform="scale(-1 1) rotate(-15 0 142.587)"/><path d="M18.5 6a1.5 1.5 0 11.001-3.001A1.5 1.5 0 0118.5 6zm-13 0a1.5 1.5 0 11.001-3.001A1.5 1.5 0 015.5 6z" id="Eyes"/></g></g><path d="M19 14a5 5 0 11.001-10.001A5 5 0 0119 14zm0-9a4 4 0 100 8 4 4 0 000-8zM5 14a5 5 0 11.001-10.001A5 5 0 015 14zm0-9a4 4 0 100 8 4 4 0 000-8z" id="Glasses" fill="#1F2226"/><path d="M6 0h.056c.63.617 1.491 1 2.444 1 .954 0 1.818-.381 2.45-1h2.793A5.489 5.489 0 019.5 2C8.163 2 6.953 1.504 6 .71V0z" id="Rectangle-273" fill="#1F2226"/></g></g></g></g></svg>