<svg width="80" height="88" viewBox="0 0 80 88" fill="none" xmlns="http://www.w3.org/2000/svg"><circle cx="40" cy="48" r="40" fill="#534F63"/><circle cx="40" cy="48" r="32" fill="#FCFCFD"/><mask id="mask0_1234_2860" style="mask-type:luminance" maskUnits="userSpaceOnUse" x="8" y="16" width="64" height="64"><circle cx="40" cy="48" r="32" fill="#fff"/></mask><g mask="url(#mask0_1234_2860)"><path fill-rule="evenodd" clip-rule="evenodd" d="M40 90c-2.468 0-4.857-.69-6.932-2H8V70H7V53.434L17.723 47h5.436l.841-.544V34.751c-.978-.409-1.684-1.275-1.786-2.288l-1.067-10.492a2.616 2.616 0 01.667-2.045 2.812 2.812 0 011.392-.83l-.121-1.389H23V16c0-9.374 7.626-17 17-17 9.374 0 17 7.626 17 17v.029l.06.027-.033.721-.205 2.274a2.88 2.88 0 011.601.87c.51.557.755 1.28.688 2.036l-.922 10.493c-.102 1.153-.985 2.081-2.189 2.416v11.59l.841.544h5.436L73 53.434V70h-1v18H46.932c-2.075 1.31-4.464 2-6.932 2z" fill="#534F63"/><path fill="#8F8BA2" d="M9 65h62v22H9z"/><path fill-rule="evenodd" clip-rule="evenodd" d="M72 65H8V54l10-6h44l10 6v11z" fill="#534F63"/><path fill-rule="evenodd" clip-rule="evenodd" d="M9 64v-9.4l9.3-5.6h43.4l9.3 5.6V64H9z" fill="#716D88"/></g><path d="M55 16.988l-.768 8.553c-.126-.477-.19-1.038-.216-1.695l-.355-.02.306-.08-1.032-3.933C52.595 17.11 50.31 15 47.5 15c-2.522 0-4.62 1.699-5.27 4h-.374l.098 1.09c.008.085.02.181.03.244A1.04 1.04 0 0142 20.5a4.494 4.494 0 01-1.859 3.643A4.48 4.48 0 0041 21.5a4.45 4.45 0 00-1.416-3.248l-.282-.265-.386-.007c-4.152-.076-8.105-.586-11.73-1.452l-1.371-.327.143 1.402c.013.12.022.192.029.242A.973.973 0 0126 18v5c0 1.022-.053 1.852-.227 2.523L25 16.642V16c0-8.285 6.715-15 15-15s15 6.715 15 15v.988z" fill="#534F63" stroke="#534F63" stroke-width="2"/><circle cx="40" cy="76" r="12" fill="#534F63"/><circle cx="40" cy="76" r="8" fill="#8575D7"/><path fill-rule="evenodd" clip-rule="evenodd" d="M59 65H21l-4-12.8 8-5.2V33h30v14l8 5.2L59 65z" fill="#534F63"/><path fill-rule="evenodd" clip-rule="evenodd" d="M21.7 64l-3.5-11.4 7.8-5.1V34h28v13.5l7.8 5.1L58.3 64H21.7z" fill="#FCFCFD"/><path d="M23.706 32.313h0L22.64 21.82s0 0 0 0c-.07-.697.474-1.32 1.331-1.32h32.291c.86 0 1.417.627 1.356 1.326l-.923 10.493s0 0 0 0c-.053.598-.687 1.181-1.517 1.181H25.246c-.83 0-1.479-.585-1.54-1.188z" fill="#FCFCFD" stroke="#534F63"/><path d="M40 1.5c8.04 0 14.5 6.076 14.5 13.5v22c0 3.737-1.63 8.133-4.29 11.595C47.548 52.06 43.929 54.5 40 54.5c-3.929 0-7.548-2.44-10.21-5.905C27.13 45.133 25.5 40.737 25.5 37V15c0-7.424 6.46-13.5 14.5-13.5z" fill="#FCFCFD" stroke="#534F63"/><path fill-rule="evenodd" clip-rule="evenodd" d="M54 50v-8h1v8h-1zm-21-5h14v1H33v-1zm7-2c-1.527 0-2.891-1.167-3.808-3h1.107c.212.367.451.677.701.953V30l1-1v12.728c.321.159.652.272 1 .272s.679-.113 1-.272V29l1 1v10.953a5.53 5.53 0 00.701-.953h1.107c-.917 1.833-2.281 3-3.808 3zm-15-1h1v8h-1v-8zm11 6h8v1h-8v-1zm4 11c1.551 0 2.938-1.338 3.855-3h1.114c-1.079 2.176-2.902 4-4.969 4s-3.89-1.824-4.969-4h1.114c.917 1.662 2.304 3 3.855 3z" fill="#534F63"/><path fill-rule="evenodd" clip-rule="evenodd" d="M33.082 30.584c-1.56-.508-2.66-.606-4.813-.029-.03-.012-.244-.954-.26-.97 2.898-.776 3.987-.493 5.202-.275 1.09.195 2.28.338 4.965-.381l.518 1.935c-1.217.326-4.053.23-5.612-.28zm13.53 0c1.56-.508 2.66-.606 4.814-.029.03-.012.244-.954.26-.97-2.899-.776-3.987-.493-5.203-.275-1.089.195-2.28.338-4.964-.381L41 30.863c1.218.326 4.053.23 5.612-.28z" fill="#534F63"/><path fill-rule="evenodd" clip-rule="evenodd" d="M46.5 33a1.5 1.5 0 11.001-3.001A1.5 1.5 0 0146.5 33zm-13 0a1.5 1.5 0 11.001-3.001A1.5 1.5 0 0133.5 33z" fill="#534F63"/><path fill-rule="evenodd" clip-rule="evenodd" d="M47 38a5 5 0 11.001-10.001A5 5 0 0147 38zm0-9a4 4 0 100 8 4 4 0 000-8zm-14 9a5 5 0 11.001-10.001A5 5 0 0133 38zm0-9a4 4 0 100 8 4 4 0 000-8z" fill="#534F63"/><path fill-rule="evenodd" clip-rule="evenodd" d="M26.974 25.342l2 6 .158.474-.948.316-.159-.474-2-6-.158-.474.95-.317.157.475zm26.052 0l-2 6-.159.474.95.316.157-.474 2-6 .158-.474-.948-.317-.158.475z" fill="#534F63"/><path fill-rule="evenodd" clip-rule="evenodd" d="M56.031 16.688L55 28.168c-1.543-.898-1.911-2.449-1.983-4.283L53 24l-1.05-4c-.252-2.247-2.136-4-4.45-4s-4.198 1.753-4.45 4h-.1c.015.167.05.329.05.5a5.5 5.5 0 01-5.5 5.5c-1.337 0-2.547-.496-3.5-1.29v-.766A3.484 3.484 0 0036.5 25a3.5 3.5 0 003.5-3.5c0-.999-.429-1.886-1.102-2.52-4.222-.077-8.247-.596-11.945-1.479.017.166.047.328.047.499v5c0 2.215-.214 4.128-2 5.168l-.998-11.46-.002-.001V16c0-8.837 7.163-16 16-16s16 7.163 16 16v.674l.031.014z" fill="#534F63"/></svg>