<svg width="100" height="106" viewBox="0 0 100 106" fill="none" xmlns="http://www.w3.org/2000/svg"><circle cx="50" cy="58" r="40" fill="#514B43"/><circle cx="50" cy="58" r="32" fill="#F6F5F4"/><mask id="mask0_560_6199" style="mask-type:luminance" maskUnits="userSpaceOnUse" x="18" y="26" width="64" height="64"><circle cx="50" cy="58" r="32" fill="#fff"/></mask><g mask="url(#mask0_560_6199)"><path fill-rule="evenodd" clip-rule="evenodd" d="M50 100c-2.468 0-4.857-.69-6.932-2H18V80h-1V63.434L27.723 57h5.436l.841-.544V44.751c-.978-.409-1.684-1.275-1.786-2.288l-1.067-10.492a2.616 2.616 0 01.667-2.045 2.812 2.812 0 011.392-.83l-.121-1.389H33V26c0-9.374 7.626-17 17-17 9.374 0 17 7.626 17 17v.029l.06.027-.033.721-.205 2.274a2.88 2.88 0 011.601.87c.51.557.755 1.28.688 2.036l-.922 10.493c-.102 1.153-.985 2.081-2.189 2.416v11.59l.841.544h5.436L83 63.434V80h-1v18H56.932c-2.075 1.31-4.464 2-6.932 2z" fill="#514B43"/><path fill="#918778" d="M19 75h62v22H19z"/><path fill-rule="evenodd" clip-rule="evenodd" d="M82 75H18V64l10-6h44l10 6v11z" fill="#514B43"/><path fill-rule="evenodd" clip-rule="evenodd" d="M19 74v-9.4l9.3-5.6h43.4l9.3 5.6V74H19z" fill="#796F63"/></g><path d="M64.016 33.846l-.356-.02.307-.08-1.032-3.933C62.595 27.11 60.31 25 57.5 25c-2.522 0-4.62 1.699-5.27 4h-.374l.098 1.09c.008.085.02.181.03.244A1.04 1.04 0 0152 30.5a4.494 4.494 0 01-1.859 3.643A4.48 4.48 0 0051 31.5a4.45 4.45 0 00-1.416-3.248l-.282-.265-.386-.007c-4.152-.076-8.105-.586-11.73-1.452l-1.371-.327.143 1.402c.013.12.022.192.029.242A.973.973 0 0136 28v5c0 1.022-.053 1.852-.227 2.523L35 26.642V26c0-8.285 6.715-15 15-15s15 6.715 15 15v.988l-.768 8.553c-.126-.477-.19-1.038-.216-1.695z" fill="#514B43" stroke="#514B43" stroke-width="2"/><circle cx="50" cy="86" r="12" fill="#514B43"/><circle cx="50" cy="86" r="8" fill="#FF9500"/><path fill-rule="evenodd" clip-rule="evenodd" d="M69 75H31l-4-12.8 8-5.2V43h30v14l8 5.2L69 75z" fill="#514B43"/><path fill-rule="evenodd" clip-rule="evenodd" d="M31.7 74l-3.5-11.4 7.8-5.1V44h28v13.5l7.8 5.1L68.3 74H31.7z" fill="#F6F5F4"/><path d="M33.706 42.313h0L32.64 31.82s0 0 0 0c-.07-.697.474-1.32 1.331-1.32h32.291c.86 0 1.417.627 1.356 1.326l-.923 10.493s0 0 0 0c-.053.598-.687 1.181-1.517 1.181H35.246c-.83 0-1.479-.585-1.54-1.188z" fill="#F6F5F4" stroke="#514B43"/><path d="M50 11.5c8.04 0 14.5 6.076 14.5 13.5v22c0 3.737-1.63 8.133-4.29 11.595C57.548 62.06 53.929 64.5 50 64.5c-3.929 0-7.548-2.44-10.21-5.905C37.13 55.133 35.5 50.737 35.5 47V25c0-7.424 6.46-13.5 14.5-13.5z" fill="#F6F5F4" stroke="#514B43"/><path fill-rule="evenodd" clip-rule="evenodd" d="M64 60v-8h1v8h-1zm-21-5h14v1H43v-1zm7-2c-1.527 0-2.891-1.167-3.808-3h1.107c.212.367.451.677.701.953V40l1-1v12.728c.321.159.652.272 1 .272s.679-.113 1-.272V39l1 1v10.953a5.53 5.53 0 00.701-.953h1.107c-.917 1.833-2.281 3-3.808 3zm-15-1h1v8h-1v-8zm11 6h8v1h-8v-1zm4 11c1.551 0 2.938-1.338 3.855-3h1.114c-1.079 2.176-2.902 4-4.969 4s-3.89-1.824-4.969-4h1.114c.917 1.662 2.304 3 3.855 3z" fill="#514B43"/><path fill-rule="evenodd" clip-rule="evenodd" d="M43.082 40.584c-1.56-.508-2.66-.606-4.813-.029-.03-.012-.244-.954-.26-.97 2.898-.776 3.987-.493 5.202-.275 1.09.195 2.28.338 4.965-.382l.518 1.936c-1.217.326-4.053.23-5.612-.28zm13.53 0c1.56-.508 2.66-.606 4.814-.029.03-.012.244-.954.26-.97-2.898-.776-3.987-.493-5.203-.275-1.089.195-2.28.338-4.964-.382L51 40.864c1.218.326 4.053.23 5.612-.28z" fill="#514B43"/><path fill-rule="evenodd" clip-rule="evenodd" d="M56.5 43a1.5 1.5 0 11.001-3.001A1.5 1.5 0 0156.5 43zm-13 0a1.5 1.5 0 11.001-3.001A1.5 1.5 0 0143.5 43z" fill="#514B43"/><path fill-rule="evenodd" clip-rule="evenodd" d="M57 48a5 5 0 11.001-10.001A5 5 0 0157 48zm0-9a4 4 0 100 8 4 4 0 000-8zm-14 9a5 5 0 11.001-10.001A5 5 0 0143 48zm0-9a4 4 0 100 8 4 4 0 000-8z" fill="#514B43"/><path fill-rule="evenodd" clip-rule="evenodd" d="M36.974 35.342l2 6 .158.474-.948.316-.158-.474-2-6-.159-.474.95-.316.157.474zm26.052 0l-2 6-.159.474.95.316.157-.474 2-6 .158-.474-.948-.316-.158.474z" fill="#514B43"/><path fill-rule="evenodd" clip-rule="evenodd" d="M66.031 26.688L65 38.168c-1.543-.898-1.911-2.449-1.983-4.283L63 34l-1.05-4c-.252-2.247-2.136-4-4.45-4s-4.198 1.753-4.45 4h-.1c.015.167.05.329.05.5a5.5 5.5 0 01-5.5 5.5c-1.337 0-2.547-.496-3.5-1.29v-.766A3.484 3.484 0 0046.5 35a3.5 3.5 0 003.5-3.5c0-.999-.429-1.886-1.102-2.52-4.222-.077-8.247-.596-11.945-1.479.017.166.047.328.047.499v5c0 2.215-.214 4.128-2 5.168l-.998-11.46-.002-.001V26c0-8.837 7.163-16 16-16s16 7.163 16 16v.674l.031.014z" fill="#514B43"/></svg>