<svg width="122" height="32" viewBox="0 0 122 32" fill="none" xmlns="http://www.w3.org/2000/svg"><path fill-rule="evenodd" clip-rule="evenodd" d="M108.88 24h4.48v-4.41l.55-.76 2.73 5.17h5.17l-4.36-7.61 4.12-5.39h-5l-3 4.67h-.21V7h-4.48v17zm-42 0V8h4.82l3.61 7.65h.15L79.09 8h4.79v16h-4.16v-9.2h-.21l-2.9 6.2h-2.49l-2.93-6.2H71V24h-4.12zm22.43.18a3.85 3.85 0 01-4.18-4c0-2.33 1.62-4.2 4.57-4.2h2.77v-.83A1.17 1.17 0 0091.14 14c-.85 0-1.37.32-1.38 1h-4.17c0-2 1.22-4.18 5.6-4.18 3.16 0 5.67 1.19 5.67 4.5V24h-4.18v-1.49h-.21a3.17 3.17 0 01-3.16 1.66v.01zm3.16-5.93v1.67a1.41 1.41 0 01-1.54 1.3A1.29 1.29 0 0189.51 20a1.71 1.71 0 011.55-1.75h1.41zM98.88 11h4.47v2h.22a2.85 2.85 0 012.75-2.14 3.7 3.7 0 011.27.13v3.72a4.6 4.6 0 00-1.53-.19c-1.83 0-2.56 1-2.56 2.7V24h-4.62V11z" fill="#534F63"/><path fill-rule="evenodd" clip-rule="evenodd" d="M4.36 19c0 .84.88 1.82 2.51 1.82s2.18-.64 2.18-1.41c0-.77-.8-1.2-2.28-1.48l-2-.38C2.21 17.08.3 15.77.3 12.85c0-3.28 2.66-5.14 6.54-5.14 4.34 0 6.44 2.7 6.45 5.26H9.06a2.13 2.13 0 00-2.24-1.88c-1.32 0-1.94.61-1.94 1.4 0 .79.78 1.13 2.12 1.36l2.12.35c2.24.36 4.47 1.5 4.47 4.73 0 3.23-2.28 5.33-6.83 5.33C1.61 24.26 0 21.47 0 19h4.36zm22.5 5h-4.32v-2.09h-.23A3.21 3.21 0 0119 24.17c-2.51 0-4.08-1.51-4.08-4.58V11h4.44v7.44c0 1.72.83 2.06 1.53 2.06.7 0 1.53-.63 1.53-2.09V11h4.48l-.04 13zm6.5-2h.23a3.52 3.52 0 003.51 2.16c2.77 0 4.53-2.1 4.53-6v-1.33c0-3.93-1.77-5.93-4.53-5.93a3.55 3.55 0 00-3.53 2.1h-.21v-2h-4.48v17.18h4.48V22zM37 18v-1c0-1.78-.73-2.66-1.81-2.66s-1.82.88-1.82 2.66v1c0 1.78.78 2.67 1.83 2.67S37 19.85 37 18zm6.2-1.19v.84l-.03.04c0 4.19 2.6 6.55 6.26 6.58 4.11 0 5.73-2.59 5.8-4.53h-4c-.04.83-.83 1.31-1.83 1.31a1.84 1.84 0 01-1.88-2V18h7.76v-.8c0-3.8-2.39-6.48-6-6.48-3.31 0-6.08 1.94-6.08 6.09zm7.85-1.16a1.61 1.61 0 00-1.75-1.8 1.65 1.65 0 00-1.78 1.79l3.53.01zM61.35 11h-4.47v13h4.62v-6.78c0-1.7.73-2.7 2.56-2.7a4.599 4.599 0 011.53.19V11a3.7 3.7 0 00-1.27-.14A2.85 2.85 0 0061.57 13h-.22v-2z" fill="#8F8BA2"/></svg>