<svg width="24" height="24" viewBox="0 0 24 24" fill="none" xmlns="http://www.w3.org/2000/svg"><path fill="#514B43" d="M0 0h24v24H0z"/><path fill="#F6F5F4" d="M1 1h22v22H1z"/><path fill-rule="evenodd" clip-rule="evenodd" d="M5 21h14v1H5v-1zm7-2c-1.527 0-2.891-1.167-3.808-3h1.107c.212.367.451.677.701.953V6l1-1v12.728c.321.159.652.272 1 .272s.679-.113 1-.272V5l1 1v10.953a5.53 5.53 0 00.701-.953h1.107c-.917 1.833-2.281 3-3.808 3z" fill="#514B43"/><path fill-rule="evenodd" clip-rule="evenodd" d="M5.082 6.584c-1.56-.508-2.66-.606-4.813-.029-.03-.012-.244-.954-.26-.97 2.898-.776 3.987-.493 5.202-.275 1.09.195 2.28.338 4.965-.382l.518 1.936c-1.217.326-4.053.23-5.612-.28zm13.531 0c1.559-.508 2.66-.606 4.813-.029.03-.012.244-.954.26-.97-2.898-.776-3.988-.493-5.203-.275-1.089.195-2.28.338-4.964-.382L13 6.864c1.218.326 4.053.23 5.613-.28z" fill="#514B43"/><path fill-rule="evenodd" clip-rule="evenodd" d="M18.5 9a1.5 1.5 0 11.001-3.001A1.5 1.5 0 0118.5 9zm-13 0a1.5 1.5 0 11.001-3.001A1.5 1.5 0 015.5 9z" fill="#514B43"/><path fill-rule="evenodd" clip-rule="evenodd" d="M19 14a5 5 0 11.001-10.001A5 5 0 0119 14zm0-9a4 4 0 100 8 4 4 0 000-8zM5 14a5 5 0 11.001-10.001A5 5 0 015 14zm0-9a4 4 0 100 8 4 4 0 000-8z" fill="#514B43"/></svg>