<svg width="100" height="106" viewBox="0 0 100 106" xmlns="http://www.w3.org/2000/svg" xmlns:xlink="http://www.w3.org/1999/xlink"><defs><path d="M56.031 16.688L55 28.168c-1.543-.898-1.911-2.449-1.983-4.283L53 24l-1.05-4c-.252-2.247-2.136-4-4.45-4s-4.198 1.753-4.45 4h-.1c.015.167.05.329.05.5a5.5 5.5 0 01-5.5 5.5c-1.337 0-2.547-.496-3.5-1.29v-.766A3.484 3.484 0 0036.5 25a3.5 3.5 0 003.5-3.5c0-.999-.429-1.886-1.102-2.52-4.222-.077-8.247-.596-11.945-1.479.017.166.047.328.047.499v5c0 2.215-.214 4.128-2 5.168l-.998-11.46-.002-.001V16c0-8.837 7.163-16 16-16s16 7.163 16 16v.674l.031.014z" id="path-3"/><path id="path-5" d="M59 65H21l-4-12.824L25 47V33h30v14l8 5.176z"/><path d="M23.97 20h32.291c1.115 0 1.944.842 1.854 1.87l-.923 10.493c-.08.908-.982 1.637-2.015 1.637H25.246c-1.033 0-1.945-.729-2.037-1.637L22.142 21.87c-.104-1.028.714-1.87 1.828-1.87z" id="path-7"/><path d="M40 1c8.284 0 15 6.268 15 14v22c0 7.732-6.716 18-15 18-8.284 0-15-10.268-15-18V15c0-7.732 6.716-14 15-14z" id="path-9"/><mask id="mask-4" maskContentUnits="userSpaceOnUse" maskUnits="objectBoundingBox" x="0" y="0" width="32.031" height="28.168" fill="#fff"><use xlink:href="#path-3"/></mask><mask id="mask-6" maskContentUnits="userSpaceOnUse" maskUnits="objectBoundingBox" x="0" y="0" width="46" height="32" fill="#fff"><use xlink:href="#path-5"/></mask><mask id="mask-8" maskContentUnits="userSpaceOnUse" maskUnits="objectBoundingBox" x="0" y="0" width="35.989" height="14" fill="#fff"><use xlink:href="#path-7"/></mask><mask id="mask-10" maskContentUnits="userSpaceOnUse" maskUnits="objectBoundingBox" x="0" y="0" width="30" height="54" fill="#fff"><use xlink:href="#path-9"/></mask><circle id="path-1" cx="40" cy="49" r="32"/></defs><g id="Export" stroke="none" stroke-width="1" fill="none" fill-rule="evenodd"><g id="Logos" transform="translate(-27 -50)"><g id="Components-/-Logo-Supermark" transform="translate(37 60)"><circle id="Outline" fill="#1F2226" fill-rule="evenodd" cx="40" cy="49" r="40"/><mask id="mask-2" fill="#fff"><use xlink:href="#path-1"/></mask><use id="Mask" fill="#FFF" fill-rule="evenodd" xlink:href="#path-1"/><path d="M40 90c-2.5 0-4.9-.7-6.9-2H8V66H7V53.4L17.7 47h5.4l.8-.5V34.8c-1-.4-1.7-1.3-1.8-2.3L21 22c-.1-.8.2-1.5.7-2 .5-.6 1.3-.9 2.2-.9v-4c0-8.3 7.2-15 16-15s16 6.7 16 15v4h.3c.8 0 1.6.3 2.2.9.5.6.8 1.3.7 2l-.9 10.5c-.1 1.2-1 2.1-2.2 2.4v11.6l.8.5h5.4l10.7 6.4V66h-1v22H46.8c-1.9 1.3-4.3 2-6.8 2z" id="Outline" fill="#000" fill-rule="evenodd" mask="url(#mask-2)"/><path id="Chest" fill="#797C80" fill-rule="evenodd" mask="url(#mask-2)" d="M9 65h62v22H9z"/><path id="Cloack" fill="#515458" fill-rule="evenodd" mask="url(#mask-2)" d="M9 64v-9.4l9.3-5.6h43.4l9.3 5.6V64z"/><use id="Hair-Outline" stroke="#1F2226" mask="url(#mask-4)" stroke-width="4" fill="#292C30" fill-rule="evenodd" xlink:href="#path-3"/><path d="M40 89c6.627 0 12-5.373 12-12s-5.373-12-12-12-12 5.373-12 12 5.373 12 12 12z" id="Circle-Small-Outline" fill="#1F2226" fill-rule="evenodd"/><path d="M40 85a8 8 0 100-16 8 8 0 000 16z" id="Circle-Small" fill="#F2B200" fill-rule="evenodd"/><use id="Neck" stroke="#1F2226" mask="url(#mask-6)" stroke-width="2" fill="#FFF" fill-rule="evenodd" xlink:href="#path-5"/><use id="Ears" stroke="#1F2226" mask="url(#mask-8)" stroke-width="2" fill="#FFF" fill-rule="evenodd" xlink:href="#path-7"/><use id="Face" stroke="#1F2226" mask="url(#mask-10)" stroke-width="2" fill="#FFF" fill-rule="evenodd" xlink:href="#path-9"/><path d="M40 59c1.551 0 2.938-1.338 3.855-3h1.114c-1.079 2.176-2.902 4-4.969 4s-3.89-1.824-4.969-4h1.114c.917 1.662 2.304 3 3.855 3z" id="Adam's-apple" fill="#1F2226" fill-rule="evenodd"/><path d="M54 50v-8h1v8h-1zm-29-8h1v8h-1v-8z" id="Neck" fill="#1F2226" fill-rule="evenodd"/><path d="M43.5 48.5h-7" id="Lip-B" stroke="#1F2226" stroke-width="1" stroke-linecap="square"/><path d="M46.5 45.5h-13" id="Lip-T" stroke="#1F2226" stroke-width="1" stroke-linecap="square"/><path d="M44 40c-.939 1.829-2.382 3-4 3-1.618 0-3.061-1.171-4-3h1.131c.74 1.237 1.752 2 2.869 2 1.117 0 2.13-.763 2.869-2H44z" id="Nose-B" fill="#1F2226" fill-rule="evenodd"/><path d="M38 30l1-1v13h-1V30zm4 0l-1-1v13h1V30z" id="Nose" fill="#1F2226" fill-rule="evenodd"/><path d="M32.998 30.503c-1.374-.894-2.412-1.273-4.641-1.273-.026-.02.01-.985 0-1.004 3 0 3.978.555 5.096 1.08 1.002.47 2.115.916 4.894.916v2.004c-1.26 0-3.974-.828-5.349-1.723z" id="Eyebrow" fill="#1F2226" fill-rule="evenodd" transform="rotate(-15 33.347 30.226)"/><path d="M45.998 30.503c-1.374-.894-2.412-1.273-4.641-1.273-.026-.02.01-.985 0-1.004 3 0 3.978.555 5.096 1.08 1.002.47 2.115.916 4.894.916v2.004c-1.26 0-3.974-.828-5.349-1.723z" id="Eyebrow" fill="#1F2226" fill-rule="evenodd" transform="scale(-1 1) rotate(-15 0 382.268)"/><path d="M46.5 33a1.5 1.5 0 11.001-3.001A1.5 1.5 0 0146.5 33zm-13 0a1.5 1.5 0 11.001-3.001A1.5 1.5 0 0133.5 33z" id="Eyes" fill="#1F2226" fill-rule="evenodd"/><path d="M47 38a5 5 0 11.001-10.001A5 5 0 0147 38zm0-9a4 4 0 100 8 4 4 0 000-8zm-14 9a5 5 0 11.001-10.001A5 5 0 0133 38zm0-9a4 4 0 100 8 4 4 0 000-8z" id="Glasses" fill="#1F2226" fill-rule="evenodd"/><path d="M28.974 31.342l-2-6-.158-.474-.948.316.158.474 2 6 .158.474.948-.316-.158-.474zm22.052 0l2-6 .158-.474.948.316-.158.474-2 6-.158.474-.948-.316.158-.474z" id="Spectacle-Bow" fill="#1F2226" fill-rule="evenodd"/><path d="M56.031 16.688L55 28.168c-1.543-.898-1.911-2.449-1.983-4.283L53 24l-1.05-4c-.252-2.247-2.136-4-4.45-4s-4.198 1.753-4.45 4h-.1c.015.167.05.329.05.5a5.5 5.5 0 01-5.5 5.5c-1.337 0-2.547-.496-3.5-1.29v-.766A3.484 3.484 0 0036.5 25a3.5 3.5 0 003.5-3.5c0-.999-.429-1.886-1.102-2.52-4.222-.077-8.247-.596-11.945-1.479.017.166.047.328.047.499v5c0 2.215-.214 4.128-2 5.168l-.998-11.46-.002-.001V16c0-8.837 7.163-16 16-16s16 7.163 16 16v.674l.031.014z" id="Hair" fill="#1F2226" fill-rule="evenodd"/></g></g></g></svg>