<svg width="25" height="24" viewBox="0 0 25 24" fill="none" xmlns="http://www.w3.org/2000/svg"><path fill="#534F63" d="M.5 0h24v24H.5z"/><path fill="#FCFCFD" d="M1.5 1h22v22h-22z"/><path fill-rule="evenodd" clip-rule="evenodd" d="M5.5 21h14v1h-14v-1zm7-2c-1.527 0-2.891-1.167-3.808-3h1.107c.212.367.451.677.701.953V6l1-1v12.728c.321.159.652.272 1 .272s.679-.113 1-.272V5l1 1v10.953a5.53 5.53 0 00.701-.953h1.107c-.917 1.833-2.281 3-3.808 3z" fill="#534F63"/><path fill-rule="evenodd" clip-rule="evenodd" d="M5.582 6.584c-1.56-.508-2.66-.606-4.813-.029-.03-.012-.244-.954-.26-.97 2.898-.776 3.987-.493 5.202-.275 1.09.195 2.28.338 4.965-.382l.518 1.936c-1.217.326-4.053.23-5.612-.28zm13.531 0c1.559-.508 2.66-.606 4.813-.029.03-.012.244-.954.26-.97-2.898-.776-3.988-.493-5.203-.275-1.089.195-2.28.338-4.964-.382L13.5 6.864c1.218.326 4.053.23 5.613-.28z" fill="#534F63"/><path fill-rule="evenodd" clip-rule="evenodd" d="M19 9a1.5 1.5 0 11.001-3.001A1.5 1.5 0 0119 9zM6 9a1.5 1.5 0 11.001-3.001A1.5 1.5 0 016 9z" fill="#534F63"/><path fill-rule="evenodd" clip-rule="evenodd" d="M19.5 14a5 5 0 11.001-10.001A5 5 0 0119.5 14zm0-9a4 4 0 100 8 4 4 0 000-8zm-14 9a5 5 0 11.001-10.001A5 5 0 015.5 14zm0-9a4 4 0 100 8 4 4 0 000-8z" fill="#534F63"/></svg>