<svg xmlns="http://www.w3.org/2000/svg" width="116" height="25" viewBox="0 0 116 25"><g fill="none"><path fill="#FFF" d="M62.88 20V4h4.82l3.61 7.65h.15L75.09 4h4.79v16h-4.16v-9.2h-.21l-2.9 6.2h-2.49l-2.93-6.2H67V20h-4.12zm21.43.18a3.85 3.85 0 01-4.18-4c0-2.33 1.62-4.2 4.57-4.2h2.77v-.83A1.17 1.17 0 0086.14 10c-.85 0-1.37.32-1.38 1h-4.17c0-2 1.22-4.18 5.6-4.18 3.16 0 5.67 1.19 5.67 4.5V20h-4.18v-1.49h-.21a3.17 3.17 0 01-3.16 1.66v.01zm3.16-4.25v-1.68h-1.41A1.71 1.71 0 0084.51 16a1.29 1.29 0 001.42 1.22 1.41 1.41 0 001.54-1.3v.01zM92.88 7h4.47v2h.22a2.85 2.85 0 012.75-2.14 3.7 3.7 0 011.27.13v3.72a4.6 4.6 0 00-1.53-.19c-1.83 0-2.56 1-2.56 2.7V20h-4.62V7zm13.48 13h-4.48V3h4.48v8.67h.21l3-4.67h5l-4.12 5.39 4.36 7.61h-5.17l-2.73-5.17-.55.76V20zm-101-5c0 .84.88 1.82 2.51 1.82s2.18-.64 2.18-1.41c0-.77-.8-1.2-2.28-1.48l-2-.38c-2.56-.47-4.47-1.78-4.47-4.7 0-3.28 2.66-5.14 6.54-5.14 4.34 0 6.44 2.7 6.45 5.26h-4.23a2.13 2.13 0 00-2.24-1.88c-1.32 0-1.94.61-1.94 1.4 0 .79.78 1.13 2.12 1.36l2.12.35c2.24.36 4.47 1.5 4.47 4.73 0 3.23-2.28 5.33-6.83 5.33C2.61 20.26 1 17.47 1 15h4.36zm21.5 5h-4.32v-2.09h-.23A3.21 3.21 0 0119 20.17c-2.51 0-4.08-1.51-4.08-4.58V7h4.44v7.44c0 1.72.83 2.06 1.53 2.06.7 0 1.53-.63 1.53-2.09V7h4.48l-.04 13zm5.73-2h-.23v6.18h-4.48V7h4.48v2h.21a3.55 3.55 0 013.53-2.1c2.76 0 4.53 2 4.53 5.93v1.33c0 3.9-1.76 6-4.53 6A3.52 3.52 0 0132.59 18zM36 14v-1c0-1.78-.73-2.66-1.81-2.66s-1.82.88-1.82 2.66v1c0 1.78.78 2.67 1.83 2.67S36 15.85 36 14zm5.2-.35v-.84c0-4.15 2.77-6.09 6.08-6.09 3.61 0 6 2.68 6 6.48v.8h-7.76v1.05a1.84 1.84 0 001.88 2c1 0 1.79-.48 1.83-1.31h4c-.07 1.94-1.69 4.53-5.8 4.53-3.66-.03-6.26-2.39-6.26-6.58l.03-.04zm7.85-2a1.61 1.61 0 00-1.75-1.8 1.65 1.65 0 00-1.78 1.79l3.53.01zM53.88 7h4.47v2h.22a2.85 2.85 0 012.75-2.14 3.7 3.7 0 011.27.14v3.71a4.6 4.6 0 00-1.53-.19c-1.83 0-2.56 1-2.56 2.7V20h-4.62V7z"/><path fill="#73767A" d="M62.88 19V3h4.82l3.61 7.65h.15L75.09 3h4.79v16h-4.16V9.8h-.21l-2.9 6.2h-2.49l-2.93-6.2H67V19h-4.12zm21.43.18a3.85 3.85 0 01-4.18-4c0-2.33 1.62-4.2 4.57-4.2h2.77v-.83A1.17 1.17 0 0086.14 9c-.85 0-1.37.32-1.38 1h-4.17c0-2 1.22-4.18 5.6-4.18 3.16 0 5.67 1.19 5.67 4.5V19h-4.18v-1.49h-.21a3.17 3.17 0 01-3.16 1.66v.01zm3.16-4.25v-1.68h-1.41A1.71 1.71 0 0084.51 15a1.29 1.29 0 001.42 1.22 1.41 1.41 0 001.54-1.3v.01zM92.88 6h4.47v2h.22a2.85 2.85 0 012.75-2.14 3.7 3.7 0 011.27.13v3.72a4.6 4.6 0 00-1.53-.19c-1.83 0-2.56 1-2.56 2.7V19h-4.62V6zm13.48 13h-4.48V2h4.48v8.67h.21l3-4.67h5l-4.12 5.39 4.36 7.61h-5.17l-2.73-5.17-.55.76V19z"/><path fill="#8D9094" d="M5.36 14c0 .84.88 1.82 2.51 1.82s2.18-.64 2.18-1.41c0-.77-.8-1.2-2.28-1.48l-2-.38c-2.56-.47-4.47-1.78-4.47-4.7 0-3.28 2.66-5.14 6.54-5.14 4.34 0 6.44 2.7 6.45 5.26h-4.23a2.13 2.13 0 00-2.24-1.88c-1.32 0-1.94.61-1.94 1.4 0 .79.78 1.13 2.12 1.36l2.12.35c2.24.36 4.47 1.5 4.47 4.73 0 3.23-2.28 5.33-6.83 5.33C2.61 19.26 1 16.47 1 14h4.36zm21.5 5h-4.32v-2.09h-.23A3.21 3.21 0 0119 19.17c-2.51 0-4.08-1.51-4.08-4.58V6h4.44v7.44c0 1.72.83 2.06 1.53 2.06.7 0 1.53-.63 1.53-2.09V6h4.48l-.04 13zm5.73-2h-.23v6.18h-4.48V6h4.48v2h.21a3.55 3.55 0 013.53-2.1c2.76 0 4.53 2 4.53 5.93v1.33c0 3.9-1.76 6-4.53 6A3.52 3.52 0 0132.59 17zM36 13v-1c0-1.78-.73-2.66-1.81-2.66s-1.82.88-1.82 2.66v1c0 1.78.78 2.67 1.83 2.67S36 14.85 36 13zm5.2-.35v-.84c0-4.15 2.77-6.09 6.08-6.09 3.61 0 6 2.68 6 6.48v.8h-7.76v1.05a1.84 1.84 0 001.88 2c1 0 1.79-.48 1.83-1.31h4c-.07 1.94-1.69 4.53-5.8 4.53-3.66-.03-6.26-2.39-6.26-6.58l.03-.04zm7.85-2a1.61 1.61 0 00-1.75-1.8 1.65 1.65 0 00-1.78 1.79l3.53.01zM53.88 6h4.47v2h.22a2.85 2.85 0 012.75-2.14 3.7 3.7 0 011.27.14v3.71a4.6 4.6 0 00-1.53-.19c-1.83 0-2.56 1-2.56 2.7V19h-4.62V6z"/></g></svg>