<svg xmlns="http://www.w3.org/2000/svg" width="79" height="15" viewBox="0 0 79 15"><g fill="none" fill-rule="evenodd"><path fill="#FFF" d="M72.86 12H70V1h2.86v6H73l1.88-3h3.18l-2.62 3.43 2.81 4.59H75l-1.74-3-.35.49-.05 2.49zM64 4h2.85v1.25H67a1.79 1.79 0 011.74-1.37c.276-.017.553.01.82.08v2.39a3.09 3.09 0 00-1-.12c-1.17 0-1.63.64-1.63 1.72V12H64V4zm-5.81 8.12a2.38 2.38 0 01-2.66-2.43c0-1.49 1-2.44 2.91-2.44h1.76v-.61a.74.74 0 00-.84-.76.79.79 0 00-.89.76h-2.65c0-1.27.77-2.77 3.57-2.77 2 0 3.61.76 3.61 2.87V12h-2.67v-.94h-.13a2 2 0 01-2.01 1.06zm2-2.7v-.74h-.9c-.6 0-1 .3-1 .76a.82.82 0 00.9.78.9.9 0 001.01-.8h-.01zM44 12V2h3.08l2.3 4.88h.1L51.78 2h3.05v10h-2.65V6.33H52l-1.84 4h-1.59l-1.87-4h-.13V12H44zm-7-8h2.86v1.25H40a1.8 1.8 0 011.74-1.37 2.54 2.54 0 01.82.08v2.39a3 3 0 00-1-.12c-1.16 0-1.63.65-1.63 1.72V12H37V4zm-9 4.24v-.53a3.86 3.86 0 017.72 0v.83h-4.95v.32a1.18 1.18 0 001.21 1.25c.62 0 1.13-.31 1.16-.84h2.55c0 1.24-1.08 2.89-3.7 2.89-2.32.01-3.99-1.25-3.99-3.92zm5-1.2a1.11 1.11 0 00-1.1-1.24 1.14 1.14 0 00-1.14 1.24H33zm-11 3.7h-.14V15H19V4h2.86v1.26H22a2.26 2.26 0 012.25-1.34c1.75 0 2.88 1.28 2.88 3.78v.6c0 2.49-1.12 3.79-2.88 3.79A2.26 2.26 0 0122 10.74zm2.17-2.52v-.45c0-1.14-.47-1.7-1.15-1.7-.68 0-1.16.56-1.16 1.7v.45c0 1.14.49 1.71 1.16 1.71.67 0 1.15-.56 1.15-1.71zM17.82 12h-2.75v-1.32h-.14a2.31 2.31 0 01-2.32 1.43c-1.59 0-2.61-1-2.61-2.91V4h2.84v4.49c0 1.1.62 1.32 1.06 1.32.44 0 1.07-.4 1.07-1.34V4h2.85v8zM3.56 8.93c0 .53.56 1.07 1.59 1.07s1.39-.41 1.39-.9c0-.49-.51-.76-1.45-.94L3.8 7.92c-1.63-.3-2.84-1.14-2.84-3 0-2.09 1.69-3.27 4.16-3.27 2.77 0 4.1 1.56 4.11 3.19H6.55c0-.48-.47-1-1.43-1s-1.24.39-1.24.89.5.72 1.35.86l1.35.23c1.42.23 2.85.95 2.85 3s-1.46 3.4-4.35 3.4C1.8 12.22.79 10.5.78 8.96l2.78-.03z"/><g fill="#73767A"><path d="M72.86 11H70V0h2.86v6H73l1.88-3h3.18l-2.62 3.43 2.81 4.59H75l-1.74-3-.35.49zM64 3h2.85v1.25H67a1.79 1.79 0 011.74-1.37c.276-.017.553.01.82.08v2.39a3.09 3.09 0 00-1-.12c-1.17 0-1.63.64-1.63 1.72V11H64V3z"/><path fill-rule="nonzero" d="M58.19 11.12a2.38 2.38 0 01-2.66-2.43c0-1.49 1-2.44 2.91-2.44h1.76v-.61a.74.74 0 00-.84-.76.79.79 0 00-.89.76h-2.65c0-1.27.77-2.77 3.57-2.77 2 0 3.61.76 3.61 2.87V11h-2.67v-.94h-.13a2 2 0 01-2.01 1.06zm2-2.7v-.74h-.9c-.6 0-1 .3-1 .76a.82.82 0 00.9.78.9.9 0 001.01-.8h-.01z"/><path d="M44 11V1h3.08l2.3 4.88h.1L51.78 1h3.05v10h-2.65V5.33H52l-1.84 4h-1.59l-1.87-4h-.13V11z"/></g><g fill="#8D9094"><path d="M37 3h2.86v1.25H40a1.8 1.8 0 011.74-1.37 2.54 2.54 0 01.82.08v2.39a3 3 0 00-1-.12c-1.16 0-1.63.65-1.63 1.72V11H37V3z"/><path fill-rule="nonzero" d="M28 7.24v-.53a3.86 3.86 0 017.72 0v.83h-4.95v.32a1.18 1.18 0 001.21 1.25c.62 0 1.13-.31 1.16-.84h2.55c0 1.24-1.08 2.89-3.7 2.89-2.32.01-3.99-1.25-3.99-3.92zm5-1.2a1.11 1.11 0 00-1.1-1.24 1.14 1.14 0 00-1.14 1.24H33zm-11 3.7h-.14V14H19V3h2.86v1.26H22a2.26 2.26 0 012.25-1.34c1.75 0 2.88 1.28 2.88 3.78v.6c0 2.49-1.12 3.79-2.88 3.79A2.26 2.26 0 0122 9.74zm2.17-2.52v-.45c0-1.14-.47-1.7-1.15-1.7-.68 0-1.16.56-1.16 1.7v.45c0 1.14.49 1.71 1.16 1.71.67 0 1.15-.56 1.15-1.71z"/><path d="M17.82 11h-2.75V9.68h-.14a2.31 2.31 0 01-2.32 1.43c-1.59 0-2.61-1-2.61-2.91V3h2.84v4.49c0 1.1.62 1.32 1.06 1.32.44 0 1.07-.4 1.07-1.34V3h2.85v8zM3.56 7.93c0 .53.56 1.07 1.59 1.07s1.39-.41 1.39-.9c0-.49-.51-.76-1.45-.94L3.8 6.92c-1.63-.3-2.84-1.14-2.84-3C.96 1.83 2.65.65 5.12.65c2.77 0 4.1 1.56 4.11 3.19H6.55c0-.48-.47-1-1.43-1s-1.24.39-1.24.89.5.72 1.35.86l1.35.23c1.42.23 2.85.95 2.85 3s-1.46 3.4-4.35 3.4C1.8 11.22.79 9.5.78 7.96l2.78-.03z"/></g></g></svg>