<?xml version="1.0" encoding="UTF-8" standalone="no"?>
<svg width="24px" height="16px" viewBox="0 0 24 16" version="1.1" xmlns="http://www.w3.org/2000/svg" xmlns:xlink="http://www.w3.org/1999/xlink">
    <!-- Generator: Sketch 3.8.1 (29687) - http://www.bohemiancoding.com/sketch -->
    <title>social-vk</title>
    <desc>Created with Sketch.</desc>
    <defs></defs>
    <g id="Export" stroke="none" stroke-width="1" fill="none" fill-rule="evenodd">
        <g id="Icon-(Sprite)" transform="translate(-60.000000, -40.000000)" fill="#FFFFFF">
            <g id="Icons-/-Social-/-VK" transform="translate(60.000000, 40.000000)">
                <path d="M23.873,12.3338529 C23.844,12.2708529 23.817,12.2198529 23.792,12.1778529 C23.376,11.4298529 22.58,10.5118529 21.405,9.42385295 L21.381,9.39885295 L21.368,9.38585295 L21.356,9.37385295 L21.343,9.37385295 C20.81,8.86685295 20.472,8.52585295 20.331,8.35185295 C20.072,8.01885295 20.014,7.68285295 20.156,7.34185295 C20.255,7.08485295 20.631,6.54085295 21.28,5.70985295 C21.622,5.26885295 21.893,4.91585295 22.092,4.64985295 C23.534,2.73885295 24.159,1.51785295 23.967,0.985852948 L23.892,0.861852948 C23.842,0.786852948 23.713,0.718852948 23.505,0.655852948 C23.297,0.593852948 23.03,0.583852948 22.705,0.624852948 L19.107,0.649852948 C19.048,0.628852948 18.965,0.630852948 18.857,0.655852948 C18.748,0.680852948 18.694,0.693852948 18.694,0.693852948 L18.631,0.724852948 L18.582,0.761852948 C18.54,0.786852948 18.494,0.830852948 18.444,0.892852948 C18.394,0.954852948 18.353,1.02785295 18.319,1.11085295 C17.928,2.11685295 17.482,3.05085295 16.982,3.91485295 C16.674,4.43085295 16.391,4.87685295 16.132,5.25485295 C15.874,5.63285295 15.658,5.91185295 15.483,6.08985295 C15.308,6.26885295 15.15,6.41185295 15.008,6.51985295 C14.866,6.62785295 14.758,6.67385295 14.683,6.65685295 C14.608,6.63985295 14.537,6.62385295 14.47,6.60685295 C14.354,6.53185295 14.26,6.43085295 14.189,6.30185295 C14.118,6.17285295 14.071,6.01085295 14.046,5.81585295 C14.021,5.61985295 14.006,5.45185295 14.002,5.31085295 C13.998,5.16985295 14,4.96985295 14.008,4.71285295 C14.017,4.45485295 14.021,4.28085295 14.021,4.18885295 C14.021,3.87385295 14.027,3.53085295 14.039,3.16085295 C14.052,2.79085295 14.062,2.49785295 14.071,2.28285295 C14.079,2.06585295 14.083,1.83785295 14.083,1.59685295 C14.083,1.35585295 14.068,1.16685295 14.039,1.02985295 C14.011,0.892852948 13.967,0.759852948 13.908,0.630852948 C13.85,0.501852948 13.764,0.402852948 13.652,0.331852948 C13.54,0.260852948 13.4,0.204852948 13.234,0.163852948 C12.792,0.0638529477 12.23,0.00985294772 11.547,0.00185294772 C9.997,-0.0151470523 9.002,0.0848529477 8.56,0.300852948 C8.385,0.391852948 8.227,0.516852948 8.085,0.674852948 C7.935,0.856852948 7.914,0.956852948 8.023,0.973852948 C8.522,1.04785295 8.876,1.22685295 9.085,1.50985295 L9.16,1.65885295 C9.218,1.76685295 9.276,1.95785295 9.335,2.23285295 C9.393,2.50685295 9.431,2.80985295 9.447,3.14185295 C9.489,3.74885295 9.489,4.26785295 9.447,4.69985295 C9.405,5.13185295 9.366,5.46885295 9.328,5.70985295 C9.291,5.95085295 9.235,6.14585295 9.16,6.29485295 C9.085,6.44485295 9.035,6.53585295 9.01,6.56985295 C8.985,6.60285295 8.964,6.62385295 8.947,6.63185295 C8.839,6.67285295 8.726,6.69385295 8.61,6.69385295 C8.493,6.69385295 8.352,6.63585295 8.185,6.51985295 C8.018,6.40285295 7.846,6.24285295 7.666,6.03985295 C7.487,5.83585295 7.285,5.55185295 7.06,5.18585295 C6.835,4.82085295 6.602,4.38785295 6.361,3.88985295 L6.161,3.52785295 C6.036,3.29585295 5.865,2.95685295 5.648,2.51285295 C5.432,2.06785295 5.24,1.63785295 5.074,1.22285295 C5.007,1.04785295 4.907,0.914852948 4.774,0.823852948 L4.711,0.785852948 C4.67,0.752852948 4.603,0.717852948 4.511,0.679852948 C4.42,0.642852948 4.324,0.615852948 4.224,0.599852948 L0.8,0.623852948 C0.45,0.623852948 0.213,0.702852948 0.088,0.860852948 L0.038,0.935852948 C0.013,0.977852948 0,1.04385295 0,1.13485295 C0,1.22685295 0.025,1.33885295 0.075,1.47185295 C0.575,2.64385295 1.118,3.77285295 1.706,4.86185295 C2.293,5.94985295 2.803,6.82685295 3.236,7.49085295 C3.67,8.15585295 4.111,8.78385295 4.561,9.37285295 C5.011,9.96285295 5.309,10.3408529 5.454,10.5078529 C5.6,10.6738529 5.715,10.7978529 5.798,10.8808529 L6.111,11.1808529 C6.311,11.3798529 6.604,11.6188529 6.992,11.8968529 C7.379,12.1758529 7.808,12.4498529 8.279,12.7198529 C8.749,12.9898529 9.297,13.2098529 9.922,13.3798529 C10.547,13.5508529 11.155,13.6188529 11.746,13.5858529 L13.184,13.5858529 C13.475,13.5608529 13.696,13.4698529 13.846,13.3118529 L13.896,13.2488529 C13.929,13.1998529 13.96,13.1228529 13.989,13.0188529 C14.018,12.9148529 14.033,12.8008529 14.033,12.6758529 C14.024,12.3188529 14.052,11.9968529 14.114,11.7108529 C14.176,11.4238529 14.247,11.2078529 14.327,11.0628529 C14.406,10.9168529 14.496,10.7938529 14.595,10.6948529 C14.695,10.5948529 14.766,10.5348529 14.808,10.5138529 C14.85,10.4928529 14.883,10.4788529 14.908,10.4708529 C15.108,10.4038529 15.343,10.4688529 15.614,10.6638529 C15.885,10.8588529 16.139,11.0998529 16.376,11.3868529 C16.614,11.6738529 16.899,11.9948529 17.232,12.3528529 C17.566,12.7098529 17.857,12.9758529 18.107,13.1498529 L18.357,13.2998529 C18.524,13.3998529 18.74,13.4908529 19.007,13.5738529 C19.273,13.6568529 19.506,13.6778529 19.706,13.6358529 L22.905,13.5868529 C23.222,13.5868529 23.468,13.5338529 23.642,13.4308529 C23.817,13.3268529 23.921,13.2128529 23.955,13.0878529 C23.988,12.9628529 23.99,12.8218529 23.961,12.6638529 C23.932,12.5058529 23.902,12.3958529 23.873,12.3338529 L23.873,12.3338529 Z" id="Shape"></path>
            </g>
        </g>
    </g>
</svg>