<svg xmlns="http://www.w3.org/2000/svg" width="12" height="16" viewBox="0 0 12 16">
  <g fill="none" fill-rule="evenodd" transform="translate(-2)">
    <path fill="#B5B8BC" d="M14,11.0033512 L14,12 L2,12 L2,11.0033512 C2,9.34464615 3.34162278,8 4.99715203,8 L11.002848,8 C12.6581293,8 14,9.34237885 14,11.0033512 Z M5,3.00925446 C5,1.34728911 6.34651712,0 8,0 C9.65685425,0 11,1.34967041 11,3.00925446 L11,3.99074554 C11,5.65271089 9.65348288,7 8,7 C6.34314575,7 5,5.65032959 5,3.99074554 L5,3.00925446 Z"/>
    <rect width="11" height="2" x="2.5" y="13.5" fill="#F1F4F8" fill-rule="nonzero" stroke="#B5B8BC"/>
    <path fill="#F1F4F8" d="M6,3.0048815 C6,1.89761602 6.88772964,1 8,1 C9.1045695,1 10,1.8938998 10,3.0048815 L10,3.9951185 C10,5.10238398 9.11227036,6 8,6 C6.8954305,6 6,5.1061002 6,3.9951185 L6,3.0048815 L6,3.0048815 L6,3.0048815 Z"/>
    <path fill="#B5B8BC" d="M10,0.767073843 C9.46924351,0.290256745 8.76835444,0 8,0 C6.34651712,0 5,1.34728911 5,3.00925446 L5,3.23292616 C5.53075649,3.70974325 6.23164556,4 7,4 C8.65348288,4 10,2.65271089 10,0.990745544 L10,0.767073843 L10,0.767073843 Z"/>
  </g>
</svg>
