<svg xmlns="http://www.w3.org/2000/svg" width="17" height="16" viewBox="0 0 17 16">
  <path fill="#FFF" d="M15.990567,1.52626134 L13.2752549,14.6522211 C13.211306,14.962126 12.849708,15.1025556 12.5945729,14.9162349 L8.88792653,12.2117265 C8.66291189,12.0475091 8.35606913,12.0562381 8.14065443,12.2327578 L6.08555459,13.916331 C5.8470797,14.1123506 5.4876658,14.0031105 5.39633932,13.7079071 L3.96935031,9.09578124 L0.282614963,7.71297555 C-0.0918845718,7.57198439 -0.0950845543,7.04063867 0.27834832,6.89607424 L15.4087797,1.03003578 C15.7295398,0.905379596 16.0604586,1.18777027 15.990567,1.52626134 Z M12.3716916,3.89988465 L5.16644851,8.35968695 C4.89028495,8.53094883 4.76030471,8.86612186 4.84939628,9.1799063 L5.62841423,11.9308673 C5.6838298,12.1257638 5.96522509,12.1058555 5.99219637,11.9044761 L6.19465875,10.3958912 C6.23290616,10.111867 6.36766098,9.85004817 6.5767265,9.65459012 L12.5230558,4.09957957 C12.6343949,3.99595465 12.5011131,3.81999647 12.3716916,3.89988465 Z" transform="translate(.48)"/>
</svg>
