<?xml version="1.0" encoding="UTF-8" standalone="no"?>
<svg width="24px" height="16px" viewBox="0 0 24 16" version="1.1" xmlns="http://www.w3.org/2000/svg" xmlns:xlink="http://www.w3.org/1999/xlink">
    <!-- Generator: Sketch 39 (31667) - http://www.bohemiancoding.com/sketch -->
    <title>social-google</title>
    <desc>Created with Sketch.</desc>
    <defs></defs>
    <g id="Export" stroke="none" stroke-width="1" fill="none" fill-rule="evenodd">
        <g id="Icon-(Sprite)" transform="translate(-140.000000, -40.000000)" fill="#DB462F">
            <g id="Icons-/-Social-/-Google" transform="translate(141.000000, 42.000000)">
                <path d="M11,5.5 C11,8.53756612 8.53756612,11 5.5,11 C2.46243388,11 0,8.53756612 0,5.5 C0,2.46243388 2.46243388,0 5.5,0 C7.01878306,0 8.39378306,0.615608469 9.3890873,1.6109127 L7.97487373,3.02512627 C7.34149831,2.39175084 6.46649831,2 5.5,2 C3.56700338,2 2,3.56700338 2,5.5 C2,7.43299662 3.56700338,9 5.5,9 C7.43299662,9 9,7.43299662 9,5.5 C9,5.33023933 8.98791402,5.16330149 8.96455557,5 L10.9775785,5 C10.9924187,5.16468102 11,5.33145515 11,5.5 Z" id="G"></path>
                <polygon id="G-" points="6 5 11 5 10 7 6 7"></polygon>
                <polygon id="Combined-Shape" points="16 5 16 3 15 3 15 5 13 5 13 6 15 6 15 8 16 8 16 6 18 6 18 5"></polygon>
                <path d="M21,10 L22,10 L22,1 L21,1 C21,2 19,2 19,2 L19,3 L21,3 L21,10 Z" id="Combined-Shape"></path>
            </g>
        </g>
    </g>
</svg>