<svg width="20" height="20" viewBox="0 0 20 20" fill="none" xmlns="http://www.w3.org/2000/svg">
<path d="M15.25 3H4.75C3.7835 3 3 3.7835 3 4.75V15.25C3 16.2165 3.7835 17 4.75 17H15.25C16.2165 17 17 16.2165 17 15.25V4.75C17 3.7835 16.2165 3 15.25 3Z" stroke="var(--icon-stroke)" stroke-width="var(--icon-stroke-width)" stroke-linecap="round" stroke-linejoin="round"/>
<path d="M7 9.16663V13.3333" stroke="var(--icon-stroke)" stroke-width="var(--icon-stroke-width)" stroke-linecap="round" stroke-linejoin="round"/>
<path d="M7 6.66663V6.67496" stroke="var(--icon-stroke)" stroke-width="var(--icon-stroke-width)" stroke-linecap="round" stroke-linejoin="round"/>
<path d="M10 13.3333V9.16663" stroke="var(--icon-stroke)" stroke-width="var(--icon-stroke-width)" stroke-linecap="round" stroke-linejoin="round"/>
<path d="M13 13.3333V10.8333C13 10.3913 12.842 9.96734 12.5607 9.65478C12.2794 9.34222 11.8978 9.16663 11.5 9.16663C11.1022 9.16663 10.7206 9.34222 10.4393 9.65478C10.158 9.96734 10 10.3913 10 10.8333" stroke="var(--icon-stroke)" stroke-width="var(--icon-stroke-width)" stroke-linecap="round" stroke-linejoin="round"/>
</svg>
