<svg width="36" height="36" viewBox="0 0 36 36" fill="none" xmlns="http://www.w3.org/2000/svg">
<path d="M28.7058 17.6928C28.2466 17.6928 27.8319 17.8902 27.5449 18.2045L24.6415 21.5613C24.3532 21.8922 23.9305 22.1011 23.4553 22.1011C22.5879 22.1011 21.8833 21.3972 21.8833 20.5297L21.2235 3.57555C21.2235 2.7049 20.5186 2 19.6483 2C18.8304 2 18.1594 2.62075 18.0798 3.41781L17.1649 15.668L10.25 18.7283C9.14319 19.2089 8.36725 20.3128 8.36725 21.5978C8.36725 21.7389 8.37653 21.8803 8.39509 22.0176L9.63403 31.2946C9.83913 32.8212 11.1478 34 12.7327 34H20.3295C21.5182 34 22.5504 33.338 23.0803 32.3637L30.0727 20.0475C30.2039 19.8181 30.2797 19.55 30.2797 19.2655C30.2794 18.3961 29.5755 17.6928 28.7058 17.6928Z" fill="var(--icon-fill)"/>
<path d="M24.4156 5.54404C27.1881 6.00032 29.8263 6.84985 32.2735 8.03696C32.4184 8.10319 32.5192 8.25038 32.5192 8.41997C32.5192 8.44236 32.517 8.46508 32.5138 8.4862L32.0889 11.6879C32.0607 11.8946 31.8834 12.0562 31.6697 12.0562C31.5971 12.0562 31.5296 12.0373 31.47 12.0053C29.3752 10.8815 27.097 10.049 24.6962 9.56004L24.4156 5.54404Z" fill="var(--icon-fill)"/>
<path d="M3.12255 10.8063V10.8079C3.04768 10.8847 3 10.9897 3 11.1062C3 11.3244 3.16799 11.5055 3.36957 11.5055L11.47 12.6363C11.4873 12.6388 11.5068 12.6395 11.5238 12.6395C11.7567 12.6395 11.9465 12.4507 11.9465 12.2174C11.9465 12.1717 11.9394 12.1278 11.9257 12.0872L11.3763 10.48C12.3615 10.1321 13.3729 9.84513 14.4096 9.62051L14.5616 5.61539C13.0328 5.88929 11.5484 6.28542 10.1025 6.81881L9.54028 5.11719C9.48108 4.95496 9.32429 4.83785 9.14159 4.83785C9.02448 4.83785 8.91953 4.88553 8.84209 4.96168V4.96008L3.12255 10.8063Z" fill="var(--icon-fill)"/>
</svg>
