<svg xmlns="http://www.w3.org/2000/svg" width="16" height="16" viewBox="0 0 16 16">
  <g fill="none" fill-rule="evenodd" transform="translate(0 1)">
    <rect width="16" height="11" y="2" fill="#F1F4F8"/>
    <path fill="#B5B8BC" d="M0,2 L16,2 L16,13 L0,13 L0,2 Z M10.689,7.302 L15.012,10.723 L15.012,3.063 L10.689,7.302 L10.689,7.302 Z M15.012,12 L15.012,11.58 L10.515,7.472 L9.027,8.931 C8.458,9.457 7.536,9.457 6.967,8.931 L5.485,7.478 L1.009,11.566 L1.009,12 L15.012,12 L15.012,12 Z M1.009,10.71 L5.31,7.307 L1.009,3.089 L1.009,10.71 L1.009,10.71 Z M1.495,3.005 L6.967,7.528 C7.536,8.033 8.458,8.033 9.027,7.528 L14.499,3.005 L1.495,3.005 L1.495,3.005 Z"/>
  </g>
</svg>
