<svg width="20" height="20" viewBox="0 0 20 20" fill="none" xmlns="http://www.w3.org/2000/svg">
<path d="M3 16.9869L4.28279 14.0313C3.30139 12.6376 2.86213 10.9334 3.04746 9.23873C3.23278 7.54401 4.02995 5.9752 5.28935 4.82672C6.54875 3.67824 8.18381 3.02904 9.88769 3.00095C11.5916 2.97286 13.2471 3.56782 14.5437 4.67416C15.8402 5.78051 16.6886 7.32219 16.9296 9.00988C17.1707 10.6976 16.7878 12.4153 15.8528 13.8406C14.9178 15.2659 13.4951 16.3009 11.8515 16.7513C10.208 17.2017 8.4566 17.0366 6.9261 16.2869L3 16.9869Z" stroke="var(--icon-stroke)" stroke-width="var(--icon-stroke-width)" stroke-linecap="round" stroke-linejoin="round"/>
<path d="M7.5 8.33337C7.5 8.44388 7.5439 8.54986 7.62204 8.628C7.70018 8.70614 7.80616 8.75004 7.91667 8.75004C8.02717 8.75004 8.13315 8.70614 8.21129 8.628C8.28943 8.54986 8.33333 8.44388 8.33333 8.33337V7.50004C8.33333 7.38953 8.28943 7.28355 8.21129 7.20541C8.13315 7.12727 8.02717 7.08337 7.91667 7.08337C7.80616 7.08337 7.70018 7.12727 7.62204 7.20541C7.5439 7.28355 7.5 7.38953 7.5 7.50004V8.33337ZM7.5 8.33337C7.5 9.43844 7.93899 10.4983 8.72039 11.2797C9.50179 12.0611 10.5616 12.5 11.6667 12.5M11.6667 12.5H12.5C12.6105 12.5 12.7165 12.4561 12.7946 12.378C12.8728 12.2999 12.9167 12.1939 12.9167 12.0834C12.9167 11.9729 12.8728 11.8669 12.7946 11.7887C12.7165 11.7106 12.6105 11.6667 12.5 11.6667H11.6667C11.5562 11.6667 11.4502 11.7106 11.372 11.7887C11.2939 11.8669 11.25 11.9729 11.25 12.0834C11.25 12.1939 11.2939 12.2999 11.372 12.378C11.4502 12.4561 11.5562 12.5 11.6667 12.5Z" stroke="var(--icon-stroke)" stroke-width="var(--icon-stroke-width)" stroke-linecap="round" stroke-linejoin="round"/>
</svg>
