<svg width="20" height="20" viewBox="0 0 20 20" fill="none" xmlns="http://www.w3.org/2000/svg">
<path d="M13.1667 7.66667C12.7065 7.66667 12.3334 7.29357 12.3334 6.83333C12.3334 6.3731 12.7065 6 13.1667 6C13.6269 6 14 6.3731 14 6.83333C14 7.29357 13.6269 7.66667 13.1667 7.66667Z" stroke="var(--icon-stroke)" stroke-width="var(--icon-stroke-width)" stroke-linecap="round" stroke-linejoin="round"/>
<path d="M17 5.47056V8.64852C17 9.09075 16.8246 9.51486 16.5117 9.8278L9.82797 16.5115C9.67312 16.6664 9.48927 16.7892 9.28693 16.873C9.08458 16.9569 8.86771 17 8.64869 17C8.42968 17 8.21281 16.9569 8.01046 16.873C7.80812 16.7892 7.62427 16.6664 7.46942 16.5115L3.48853 12.5306C3.33365 12.3757 3.21079 12.1919 3.12696 11.9895C3.04314 11.7872 3 11.5703 3 11.3513C3 11.1323 3.04314 10.9154 3.12696 10.7131C3.21079 10.5107 3.33365 10.3269 3.48853 10.172L10.173 3.48835C10.4856 3.17582 10.9095 3.00017 11.3515 3H14.5294C15.1847 3 15.8131 3.26029 16.2764 3.72361C16.7397 4.18693 17 4.81532 17 5.47056Z" stroke="var(--icon-stroke)" stroke-width="var(--icon-stroke-width)" stroke-linecap="round" stroke-linejoin="round"/>
</svg>
