<?xml version="1.0" encoding="UTF-8" standalone="no"?>
<svg width="16px" height="16px" viewBox="0 0 16 16" version="1.1" xmlns="http://www.w3.org/2000/svg" xmlns:xlink="http://www.w3.org/1999/xlink">
    <!-- Generator: Sketch 3.8.1 (29687) - http://www.bohemiancoding.com/sketch -->
    <title>tag</title>
    <desc>Created with Sketch.</desc>
    <defs></defs>
    <g id="Export" stroke="none" stroke-width="1" fill="none" fill-rule="evenodd">
        <g id="Icon-(Sprite)" transform="translate(-290.000000, -40.000000)" fill="#B5B8BC">
            <g id="Icons-/-Tag" transform="translate(290.000000, 40.000000)">
                <path d="M7.64778775,15.4138012 C6.86770191,16.1953996 5.60318377,16.1953996 4.82309793,15.4138012 L0.585064378,11.1675502 C-0.195021459,10.3859517 -0.195021459,9.11898172 0.585064378,8.33738331 L8.90631291,0 L16,0 L16,7.04539413 L7.64778775,15.4138012 L7.64778775,15.4138012 Z M12.5040968,2.00153242 C11.6770659,2.00153242 11.0058525,2.67404732 11.0058525,3.50268174 C11.0058525,4.33131616 11.6770659,5.00383106 12.5040968,5.00383106 C13.3321264,5.00383106 14.002341,4.33131616 14.002341,3.50268174 C14.002341,2.67404732 13.3321264,2.00153242 12.5040968,2.00153242 L12.5040968,2.00153242 Z" id="tag"></path>
            </g>
        </g>
    </g>
</svg>