<?xml version="1.0" encoding="UTF-8" standalone="no"?>
<svg width="16px" height="16px" viewBox="0 0 16 16" version="1.1" xmlns="http://www.w3.org/2000/svg" xmlns:xlink="http://www.w3.org/1999/xlink">
    <!-- Generator: Sketch 3.8.1 (29687) - http://www.bohemiancoding.com/sketch -->
    <title>skype</title>
    <desc>Created with Sketch.</desc>
    <defs></defs>
    <g id="Export" stroke="none" stroke-width="1" fill="none" fill-rule="evenodd">
        <g id="Icon-(Sprite)" transform="translate(-510.000000, 0.000000)" fill="#B5B8BC">
            <g id="Icons-/-Skype" transform="translate(510.000000, -1.000000)">
                <path d="M11.606,17.02 C10.758,17.02 9.968,16.773 9.295,16.348 C8.864,16.427 8.419,16.474 7.962,16.474 C3.914,16.474 0.634,13.146 0.634,9.039 C0.634,8.641 0.666,8.249 0.726,7.867 C0.279,7.169 0.021,6.335 0.021,5.44 C0.021,2.976 1.977,0.981 4.393,0.979 C5.274,0.979 6.092,1.245 6.78,1.703 C7.162,1.639 7.558,1.605 7.96,1.605 C12.007,1.605 15.287,4.935 15.287,9.039 C15.287,9.382 15.263,9.717 15.219,10.048 C15.7,10.765 15.979,11.629 15.979,12.56 C15.979,15.023 14.023,17.02 11.606,17.02 L11.606,17.02 Z M7.042,7.608 C4.924,7.083 6.084,5.234 7.799,5.262 C9.464,5.289 10.312,7.083 11.065,6.989 C11.821,6.896 12.464,5.742 11.276,4.707 C10.25,3.812 8.948,3.319 6.951,3.503 C5.385,3.648 3.898,4.677 3.714,6.681 C3.533,8.686 5.864,9.705 7.709,9.985 C9.003,10.179 10.765,10.818 9.704,12.051 C8.733,13.185 6.891,12.483 6.408,12.176 C5.924,11.864 5.378,10.755 4.471,10.815 C3.562,10.877 3.115,12.095 4.23,13.162 C5.229,14.116 6.318,14.644 8.647,14.518 C10.977,14.394 13.065,12.298 12.247,10.321 C11.429,8.348 9.161,8.132 7.042,7.608 L7.042,7.608 L7.042,7.608 Z" id="Shape"></path>
            </g>
        </g>
    </g>
</svg>