<svg xmlns="http://www.w3.org/2000/svg" width="32" height="32" viewBox="0 0 32 32">
  <path d="M22.4155668,3.54403648 C25.1881449,4.00031997 27.8263339,4.84985201 30.2734981,6.03695704 C30.4184465,6.10319174 30.5192385,6.25037997 30.5192385,6.4199664 C30.5192385,6.44236461 30.5169986,6.46508279 30.5137989,6.4862011 L30.0888729,9.68786497 C30.0607151,9.89456843 29.8834493,10.0561555 29.6697064,10.0561555 C29.5970722,10.0561555 29.5295576,10.037277 29.4700424,10.0052796 C27.37517,8.88152948 25.0969522,8.04895608 22.6961843,7.5600352 L22.4155668,3.54403648 Z M26.7057835,15.6928246 C27.575474,15.6928246 28.2794176,16.3961283 28.2797376,17.2654988 C28.2797376,17.549956 28.2039037,17.8180946 28.0727142,18.0475162 L21.0803136,30.3636509 C20.550436,31.337973 19.5181985,32 18.3294936,32 L10.7326614,32 C9.14782817,32 7.83913287,30.8212143 7.63402928,29.2946164 L6.39508839,20.0175986 C6.37652988,19.8803296 6.36725062,19.7389009 6.36725062,19.5977922 C6.36725062,18.312775 7.14318854,17.2088633 8.24998,16.7282617 L15.1649468,13.6680266 L16.0797536,1.41780658 C16.1594272,0.62075034 16.8304136,0 17.6482681,0 C18.5185985,0 19.2235021,0.704903608 19.2235021,1.57555396 L19.8832893,18.5297176 C19.8832893,19.3971682 20.587873,20.1011119 21.4553236,20.1011119 C21.9304856,20.1011119 22.3531717,19.8921686 22.6414687,19.5613151 L25.5449164,16.2044636 C25.8319334,15.8902488 26.2466203,15.6928246 26.7057835,15.6928246 Z M1.1225502,8.80793537 L1.1225502,8.80633549 L6.84209263,2.96008319 L6.84209263,2.96168307 C6.91952644,2.88552916 7.02447804,2.83785297 7.14158867,2.83785297 C7.32429406,2.83785297 7.48108151,2.9549636 7.54027678,3.11719062 L8.1024718,4.81881449 C9.54843613,4.28541717 11.0327974,3.88928886 12.5616351,3.61539077 L12.4096472,7.62051036 C11.3729302,7.84513239 10.3614911,8.13214943 9.3762899,8.4799616 L9.92568595,10.087193 C9.93944484,10.1278298 9.94648428,10.1716663 9.94648428,10.2174226 C9.94648428,10.4506839 9.75673946,10.6394688 9.5237981,10.6394688 C9.50683945,10.6394688 9.48732101,10.6388289 9.4700424,10.6362691 L1.36957043,9.50547956 C1.16798656,9.50547956 1,9.32437405 1,9.10615151 C1,8.98968083 1.04767619,8.88472922 1.1225502,8.80793537 Z"/>
</svg>
