<svg xmlns="http://www.w3.org/2000/svg" width="16" height="16" viewBox="0 0 16 16">
  <path d="M16.01775,13.256625 L13.51775,15.7103287 L10.01675,12.2751435 L9.83975,10.3622361 C7.48375,12.3104769 3.97475,12.2221435 1.75575,10.0452176 C-0.58525,7.74658796 -0.58525,4.02088426 1.75575,1.72323611 C4.09775,-0.574412037 7.89375,-0.574412037 10.23475,1.72323611 C12.45075,3.89721759 12.54275,7.33436574 10.56675,9.64673611 L12.51775,9.82143981 L16.01775,13.256625 L16.01775,13.256625 Z M8.82275,3.0963287 C7.26075,1.56423611 4.72775,1.56423611 3.16575,3.0963287 C1.60375,4.63038426 1.60375,7.11549537 3.16575,8.64856944 C4.72775,10.1816435 7.26075,10.1816435 8.82275,8.64856944 C10.38375,7.11549537 10.38375,4.63038426 8.82275,3.0963287 L8.82275,3.0963287 Z"/>
</svg>
