<?xml version="1.0" encoding="UTF-8" standalone="no"?>
<svg width="16px" height="16px" viewBox="0 0 16 16" version="1.1" xmlns="http://www.w3.org/2000/svg" xmlns:xlink="http://www.w3.org/1999/xlink">
    <!-- Generator: Sketch 3.8.1 (29687) - http://www.bohemiancoding.com/sketch -->
    <title>share</title>
    <desc>Created with Sketch.</desc>
    <defs></defs>
    <g id="Export" stroke="none" stroke-width="1" fill="none" fill-rule="evenodd">
        <g id="Icon-(Sprite)" transform="translate(-320.000000, -40.000000)" fill="#B5B8BC">
            <g id="Icons-/-Share" transform="translate(323.000000, 41.000000)">
                <path d="M4,5 L0.995577499,5 C0.444836974,5 0,5.44565467 0,5.99539757 L0,14.0046024 C0,14.5443356 0.445735229,15 0.995577499,15 L10.0044225,15 C10.555163,15 11,14.5543453 11,14.0046024 L11,5.99539757 C11,5.4556644 10.5542648,5 10.0044225,5 L7,5 L7,6 L10,6 L10,14 L1,14 L1,6 L4,6 L4,5 Z M9,3.29289322 L6,0.292893219 L6,0 L5,0 L5,0.292893219 L4.96966991,0.323223305 L2,3.29289322 L2,4 L2.70710678,4 L5,1.70710678 L5,10 L6,10 L6,1.70710678 L8.29289322,4 L9,4 L9,3.29289322 Z" id="Combined-Shape"></path>
            </g>
        </g>
    </g>
</svg>