<?xml version="1.0" encoding="UTF-8" standalone="no"?>
<svg width="16px" height="16px" viewBox="0 0 16 16" version="1.1" xmlns="http://www.w3.org/2000/svg" xmlns:xlink="http://www.w3.org/1999/xlink">
    <!-- Generator: Sketch 3.8.1 (29687) - http://www.bohemiancoding.com/sketch -->
    <title>social-facebook-original</title>
    <desc>Created with Sketch.</desc>
    <defs></defs>
    <g id="Export" stroke="none" stroke-width="1" fill="none" fill-rule="evenodd">
        <g id="Icon-(Sprite)" transform="translate(-30.000000, -40.000000)" fill="#FFFFFF">
            <path d="M44,55 L32,55 C31.448,55 31,54.552 31,54 L31,42 C31,41.448 31.448,41 32,41 L44,41 C44.552,41 45,41.448 45,42 L45,54 C45,54.552 44.552,55 44,55 L44,55 Z M42.826,43.198 C42.632,43.172 41.968,43.115 41.195,43.115 C39.582,43.115 38.478,44.099 38.478,45.907 L38.478,47.466 L36.653,47.466 L36.653,49.579 L38.478,49.579 L38.478,55 L40.66,55 L40.66,49.579 L42.48,49.579 L42.752,47.466 L40.66,47.466 L40.66,46.117 C40.66,45.505 40.83,45.088 41.707,45.088 L42.826,45.088 L42.826,43.198 L42.826,43.198 Z" id="facebook-original"></path>
        </g>
    </g>
</svg>