<?xml version="1.0" encoding="UTF-8" standalone="no"?>
<svg width="16px" height="16px" viewBox="0 0 16 16" version="1.1" xmlns="http://www.w3.org/2000/svg" xmlns:xlink="http://www.w3.org/1999/xlink">
    <!-- Generator: Sketch 3.8.1 (29687) - http://www.bohemiancoding.com/sketch -->
    <title>social-whatsapp</title>
    <desc>Created with Sketch.</desc>
    <defs></defs>
    <g id="Export" stroke="none" stroke-width="1" fill="none" fill-rule="evenodd">
        <g id="Icon-(Sprite)" transform="translate(-210.000000, -40.000000)" fill="#FFFFFF">
            <g id="Icons-/-Social-/-WhatsApp" transform="translate(210.000000, 40.000000)">
                <path d="M7.88951407,0 C3.65558397,0 0.225518613,3.43006536 0.225518613,7.66399545 C0.225518613,9.76641091 1.33856209,11.6433078 1.33856209,11.6433078 L0,15.7208298 L4.19755612,14.3786303 C4.19755612,14.3786303 5.75799943,15.3243535 7.88951407,15.3243535 C12.1234442,15.3243535 15.5535095,11.8942882 15.5535095,7.66035806 C15.5535095,3.43006536 12.1234442,0 7.88951407,0 L7.88951407,0 L7.88951407,0 Z M7.88951407,14.0985507 C5.9180449,14.0985507 4.343052,13.0327934 4.343052,13.0327934 L1.92054561,13.825746 L2.70622336,11.4832623 C2.70622336,11.4832623 1.4513214,9.74822393 1.4513214,7.66399545 C1.4513214,4.1102586 4.33213981,1.22580278 7.88951407,1.22580278 C11.4432509,1.22580278 14.3277067,4.1066212 14.3277067,7.66399545 C14.3277067,11.2177323 11.4468883,14.0985507 7.88951407,14.0985507 L7.88951407,14.0985507 L7.88951407,14.0985507 Z" id="Shape"></path>
                <path d="M4.97232168,4.32486502 C4.97232168,4.32486502 5.17965331,4.19391873 5.28877522,4.19391873 L5.89258312,4.19391873 C5.89258312,4.19391873 6.05626598,4.2230179 6.12901392,4.39033816 C6.20176186,4.55765843 6.71099744,5.75436203 6.75100881,5.84893436 C6.78738278,5.93986928 6.88922989,6.16902529 6.72918443,6.37271952 C6.56913896,6.57641375 6.23813583,6.95834044 6.23813583,6.95834044 C6.23813583,6.95834044 6.10718954,7.07473714 6.21994885,7.26388178 C6.33270816,7.45302643 6.73282182,8.07138392 7.25660699,8.54060813 C7.78039216,9.00983234 8.42057403,9.35538505 8.74066496,9.46086957 C9.0607559,9.56635408 9.12986644,9.4244956 9.25353794,9.26808752 C9.37720943,9.11167945 9.75549872,8.62790566 9.75549872,8.62790566 C9.75549872,8.62790566 9.88644501,8.43512361 10.1447002,8.55515772 C10.4029554,8.67155442 11.6578573,9.28263711 11.6578573,9.28263711 C11.6578573,9.28263711 11.810628,9.30809889 11.8179028,9.47905655 C11.8251776,9.65001421 11.9306621,10.1592498 11.4759875,10.6502984 C11.0213129,11.141347 10.0537653,11.370503 9.59545325,11.2395567 C9.13714123,11.1122478 7.62034669,10.7157715 6.63461211,9.79187269 C5.64524013,8.87161125 4.84501279,7.90042626 4.51764706,7.18385905 C4.19028133,6.46729184 4.20846831,6.04535379 4.2266553,5.84529696 C4.24484228,5.64524013 4.3503268,4.72497869 4.97232168,4.32486502 L4.97232168,4.32486502 Z" id="Shape"></path>
            </g>
        </g>
    </g>
</svg>