<svg width="20" height="20" viewBox="0 0 20 20" fill="none" xmlns="http://www.w3.org/2000/svg">
<path d="M4.55556 3H15.4444C15.857 3 16.2527 3.17353 16.5444 3.48241C16.8361 3.7913 17 4.21023 17 4.64706V9.58824C17 11.554 16.2625 13.4392 14.9497 14.8291C13.637 16.2191 11.8565 17 10 17C8.14348 17 6.36301 16.2191 5.05025 14.8291C3.7375 13.4392 3 11.554 3 9.58824V4.64706C3 4.21023 3.16389 3.7913 3.45561 3.48241C3.74733 3.17353 4.143 3 4.55556 3Z" stroke="var(--icon-stroke)" stroke-width="var(--icon-stroke-width)" stroke-linecap="round" stroke-linejoin="round"/>
<path d="M6.66663 8L9.99996 11.3333L13.3333 8" stroke="var(--icon-stroke)" stroke-width="var(--icon-stroke-width)" stroke-linecap="round" stroke-linejoin="round"/>
</svg>
