<svg width="20" height="20" viewBox="0 0 20 20" fill="none" xmlns="http://www.w3.org/2000/svg">
<path d="M17 4.07727C16.3 4.41962 15.614 4.55866 14.9 4.76895C14.1153 3.88514 12.9519 3.83623 11.834 4.25404C10.7161 4.67184 9.9839 5.69329 10 6.86496V7.56363C7.7285 7.62162 5.7055 6.58899 4.4 4.76895C4.4 4.76895 1.4726 9.96216 7.2 12.4543C5.8896 13.3256 4.5827 13.9131 3 13.8517C5.3156 15.1114 7.8391 15.5445 10.0238 14.9115C12.5298 14.1849 14.5892 12.3104 15.3795 9.50244C15.6153 8.64843 15.7323 7.76615 15.7274 6.88033C15.726 6.70636 16.7844 4.94362 17 4.07657V4.07727Z" stroke="var(--icon-stroke)" stroke-width="var(--icon-stroke-width)" stroke-linecap="round" stroke-linejoin="round"/>
</svg>
