<svg width="20" height="20" viewBox="0 0 20 20" fill="none" xmlns="http://www.w3.org/2000/svg">
<rect x="2" y="5" width="15" height="11" fill="#F6F5F4"/>
<path fill-rule="evenodd" clip-rule="evenodd" d="M10 5H17V6H10V5ZM10 7H17V8H10V7ZM10 9H17V10H10V9ZM10 11H17V12H10V11ZM2 13H17V14H2V13ZM2 15H17V16H2V15Z" fill="#CD1D28"/>
<rect x="2" y="5" width="8" height="7" fill="#0E2E64"/>
<path fill-rule="evenodd" clip-rule="evenodd" d="M3 5H4V6H3V5ZM5 5H6V6H5V5ZM7 5H8V6H7V5ZM9 5H10V6H9V5ZM4 6H5V7H4V6ZM2 6H3V7H2V6ZM6 6H7V7H6V6ZM8 6H9V7H8V6ZM5 7H6V8H5V7ZM3 7H4V8H3V7ZM7 7H8V8H7V7ZM9 7H10V8H9V7ZM4 8H5V9H4V8ZM2 8H3V9H2V8ZM6 8H7V9H6V8ZM8 8H9V9H8V8ZM5 9H6V10H5V9ZM3 9H4V10H3V9ZM7 9H8V10H7V9ZM9 9H10V10H9V9ZM4 10H5V11H4V10ZM2 10H3V11H2V10ZM6 10H7V11H6V10ZM8 10H9V11H8V10ZM5 11H6V12H5V11ZM3 11H4V12H3V11ZM7 11H8V12H7V11ZM9 11H10V12H9V11Z" fill="#8799B7"/>
<path fill-rule="evenodd" clip-rule="evenodd" d="M2 5H17V16H2V5ZM3 6H16V15H3V6Z" fill="black" fill-opacity="0.12"/>
</svg>
