<svg width="20" height="20" viewBox="0 0 20 20" fill="none" xmlns="http://www.w3.org/2000/svg">
<path d="M12.25 6.24997L7.37502 11.125C7.07665 11.4233 6.90903 11.828 6.90903 12.25C6.90903 12.6719 7.07665 13.0766 7.37502 13.375C7.67339 13.6733 8.07806 13.841 8.50002 13.841C8.92198 13.841 9.32665 13.6733 9.62502 13.375L14.5 8.49997C15.0968 7.90324 15.432 7.09389 15.432 6.24997C15.432 5.40606 15.0968 4.59671 14.5 3.99997C13.9033 3.40324 13.0939 3.06799 12.25 3.06799C11.4061 3.06799 10.5968 3.40324 10 3.99997L5.12502 8.87497C4.22992 9.77008 3.72705 10.9841 3.72705 12.25C3.72705 13.5158 4.22992 14.7299 5.12502 15.625C6.02013 16.5201 7.23415 17.0229 8.50002 17.0229C9.76589 17.0229 10.9799 16.5201 11.875 15.625L16.75 10.75" stroke="var(--icon-stroke)" stroke-width="var(--icon-stroke-width)" stroke-linecap="round" stroke-linejoin="round"/>
</svg>
