<svg xmlns="http://www.w3.org/2000/svg" xmlns:xlink="http://www.w3.org/1999/xlink" width="270" height="339" viewBox="0 0 270 339">
  <defs>
    <linearGradient id="awards-b" x1="50%" x2="50%" y1="100%" y2="0%">
      <stop offset="0%" stop-color="#D99900"/>
      <stop offset="100%" stop-color="#F2B200"/>
    </linearGradient>
    <linearGradient id="awards-c" x1="50%" x2="50%" y1="99.478%" y2="1.043%">
      <stop offset="0%" stop-color="#F2B200"/>
      <stop offset="100%" stop-color="#FFE58C"/>
    </linearGradient>
    <linearGradient id="awards-d" x1="50%" x2="50%" y1="100%" y2="0%">
      <stop offset="0%" stop-color="#E5A600"/>
      <stop offset="100%" stop-color="#FFCC19"/>
    </linearGradient>
    <linearGradient id="awards-e" x1="50%" x2="50%" y1="99.478%" y2="1.043%">
      <stop offset="0%" stop-color="#BF8000"/>
      <stop offset="100%" stop-color="#F2B200"/>
    </linearGradient>
    <linearGradient id="awards-f" x1="50%" x2="50%" y1="100%" y2="0%">
      <stop offset="0%" stop-color="#BF8000"/>
      <stop offset="100%" stop-color="#F2B200"/>
    </linearGradient>
    <path id="awards-h" d="M39.55596,83.880004 C39.6800509,84.1405535 39.8695434,84.3644993 40.10596,84.530004 C40.3495348,84.7044846 40.624601,84.8301321 40.91596,84.900004 C41.2425578,84.983849 41.5787976,85.0241977 41.91596,85.020004 C42.1571335,85.0182733 42.3978266,84.9982156 42.63596,84.960004 C42.8848777,84.9253078 43.12742,84.8545663 43.35596,84.750004 C43.5709665,84.6435158 43.7616261,84.4937118 43.91596,84.310004 C44.06871,84.1056535 44.1464018,83.8549209 44.13596,83.600004 C44.1442131,83.3181847 44.0398528,83.0446887 43.84596,82.840004 C43.6181563,82.6327783 43.3536095,82.4699803 43.06596,82.360004 C42.7110616,82.2238582 42.3467771,82.1135702 41.97596,82.030004 C41.57596,81.930004 41.15596,81.830004 40.74596,81.710004 C40.3230066,81.6010842 39.9058109,81.4709192 39.49596,81.320004 C39.1079888,81.1684517 38.7415387,80.9667361 38.40596,80.720004 C38.0869239,80.4714449 37.8244425,80.1578308 37.63596,79.800004 C37.4258858,79.3853057 37.3227625,78.9246884 37.33596,78.460004 C37.3239644,77.9252472 37.4551611,77.3970078 37.71596,76.930004 C37.9687269,76.5030083 38.3096407,76.1348214 38.71596,75.850004 C39.1338369,75.5556036 39.601288,75.3388147 40.09596,75.210004 C40.5942213,75.0716419 41.1088456,75.0010072 41.62596,75.000004 C42.2051288,74.9994057 42.7823813,75.0665281 43.34596,75.200004 C43.8713515,75.3256495 44.3694751,75.5459082 44.81596,75.850004 C45.2344538,76.1500641 45.5769184,76.5438985 45.81596,77.000004 C46.0814022,77.5193143 46.2120712,78.097009 46.19596,78.680004 L43.76596,78.680004 C43.750521,78.3879553 43.6756611,78.1021268 43.54596,77.840004 C43.4350394,77.6212441 43.2653618,77.4377152 43.05596,77.310004 C42.8456723,77.1760571 42.611309,77.0843498 42.36596,77.040004 C42.0831765,76.9813313 41.7947137,76.9544975 41.50596,76.960004 C41.3011845,76.9606223 41.0969317,76.9807127 40.89596,77.020004 C40.7015138,77.0617365 40.515547,77.1361232 40.34596,77.240004 C40.1857763,77.3468888 40.0467668,77.4825078 39.93596,77.640004 C39.8268277,77.8244558 39.7714105,78.0357339 39.77596,78.250004 C39.7655084,78.4420234 39.8106446,78.632984 39.90596,78.800004 C40.0375732,78.9671564 40.2096713,79.097951 40.40596,79.180004 C40.7451243,79.3269612 41.0964543,79.4440712 41.45596,79.530004 L43.18596,79.980004 C43.39596,79.980004 43.69596,80.100004 44.07596,80.210004 C44.4777189,80.3319486 44.858702,80.5140114 45.20596,80.750004 C45.6070465,81.0078947 45.9480692,81.3489175 46.20596,81.750004 C46.4993873,82.2230366 46.6423536,82.7739799 46.61596,83.330004 C46.6211355,83.8292618 46.5188198,84.3237879 46.31596,84.780004 C46.1141961,85.2337713 45.805365,85.6318203 45.41596,85.940004 C44.9742528,86.2890877 44.4678727,86.5473756 43.92596,86.700004 C43.2578725,86.8991555 42.5629658,86.9936088 41.86596,86.980004 C41.2480409,86.9811256 40.6326934,86.9004243 40.03596,86.740004 C39.4712103,86.6031552 38.9381462,86.3586927 38.46596,86.020004 C37.4858724,85.3049866 36.9359786,84.1411705 37.00596,82.930004 L39.43596,82.930004 C39.3984457,83.2517158 39.4396258,83.5777256 39.55596,83.880004 Z M53.37596,86.700004 L53.37596,85.550004 L53.32596,85.550004 C53.0590927,85.9862272 52.6695118,86.3340673 52.20596,86.550004 C51.7646468,86.7574256 51.2835762,86.8666047 50.79596,86.870004 C50.288564,86.885274 49.7828985,86.8038245 49.30596,86.630004 C48.9437501,86.4901451 48.6259356,86.2552387 48.38596,85.950004 C48.1544407,85.6311307 47.9941551,85.2662252 47.91596,84.880004 C47.8208674,84.4194554 47.7739481,83.950263 47.77596,83.480004 L47.775898,78.390004 L50.05596,78.390004 L50.05596,83.060004 C50.0255544,83.5893206 50.1359691,84.1172408 50.37596,84.590004 C50.6413502,84.9458524 51.0744134,85.1357924 51.51596,85.090004 C52.0260874,85.1394875 52.5276952,84.9336038 52.85596,84.540004 C53.1860635,83.9934872 53.3331974,83.3559071 53.27596,82.720004 L53.27596,78.390004 L55.54596,78.390004 L55.54596,86.700004 L53.37596,86.700004 Z M59.42596,78.430004 L59.42596,79.480004 C59.6731001,79.0495531 60.0418546,78.7016715 60.48596,78.480004 C60.9235061,78.2730826 61.4019612,78.1671389 61.88596,78.170004 C62.4675552,78.1565538 63.0438256,78.2834704 63.56596,78.540004 C64.0255179,78.7821154 64.425237,79.1237557 64.73596,79.540004 C65.0539878,79.9615693 65.288218,80.4402137 65.42596,80.950004 C65.57526,81.5008206 65.649266,82.0693215 65.64596,82.640004 C65.6500425,83.1811478 65.5759442,83.7200443 65.42596,84.240004 C65.2852006,84.7314312 65.0546462,85.1925401 64.74596,85.600004 C64.4487386,86.017312 64.0584344,86.3596842 63.60596,86.600004 C63.1114714,86.8418451 62.5662924,86.9618531 62.01596,86.950004 C61.5288758,86.9516745 61.0474258,86.8458237 60.60596,86.640004 C60.1745696,86.4328075 59.8054816,86.1154609 59.53596,85.720004 L59.53596,89.640004 L57.26596,89.640004 L57.26596,78.430004 L59.42596,78.430004 Z M62.42596,84.990004 C62.6709646,84.8415695 62.8794435,84.6399261 63.03596,84.400004 C63.1935388,84.1411101 63.3051822,83.8569268 63.36596,83.560004 C63.4279609,83.2303283 63.4580997,82.8954522 63.45596,82.560004 C63.4593291,82.2240152 63.4257948,81.8886723 63.35596,81.560004 C63.2911159,81.2580036 63.172568,80.9701015 63.00596,80.710004 C62.8529476,80.4619076 62.6440563,80.2530163 62.39596,80.100004 C62.1177436,79.9365797 61.7983507,79.8567314 61.47596,79.870004 C61.1469613,79.8539854 60.8203944,79.9338901 60.53596,80.100004 C60.288304,80.249292 60.0793208,80.4548492 59.92596,80.700004 C59.7674608,80.9610199 59.658945,81.249265 59.60596,81.550004 C59.536363,81.8787093 59.5028314,82.214026 59.50596,82.550004 C59.5071155,82.8857745 59.5406034,83.2206535 59.60596,83.550004 C59.6700309,83.8475077 59.7850585,84.1316935 59.94596,84.390004 C60.2762794,84.9172966 60.8643157,85.2265884 61.48596,85.200004 C61.7958048,85.2082402 62.1024786,85.135879 62.37596,84.990004 L62.42596,84.990004 Z M69.47596,84.700004 C69.880211,85.0542289 70.4100243,85.2308333 70.94596,85.190004 C71.3652156,85.2032166 71.7780133,85.0842749 72.12596,84.850004 C72.4082684,84.6853313 72.624068,84.4270793 72.73596,84.120004 L74.73596,84.120004 C74.5087212,84.9794175 73.9888691,85.7326726 73.26596,86.250004 C72.5444778,86.6904575 71.7109567,86.9127298 70.86596,86.890004 C70.2652128,86.8958882 69.6685432,86.790793 69.10596,86.580004 C68.6037524,86.3824913 68.1500904,86.078913 67.77596,85.690004 C67.4069914,85.2904294 67.1214214,84.8212786 66.93596,84.310004 C66.528928,83.1822742 66.528928,81.9477338 66.93596,80.820004 C67.1271306,80.3069609 67.4196047,79.837642 67.79596,79.440004 C68.1749547,79.04486 68.6310362,78.7317294 69.13596,78.520004 C69.6803563,78.2913736 70.265519,78.1757019 70.85596,78.180004 C71.4931985,78.1681286 72.1240498,78.3086987 72.69596,78.590004 C73.2050954,78.8521933 73.6466219,79.2286888 73.98596,79.690004 C74.3268723,80.1608957 74.571543,80.6944138 74.70596,81.260004 C74.860765,81.8602543 74.9148336,82.4820424 74.86596,83.100004 L68.86596,83.100004 C68.8515551,83.6927034 69.0706308,84.2673282 69.47596,84.700004 Z M72.03596,80.340004 C71.7041568,80.0234272 71.253095,79.863373 70.79596,79.900004 C70.4860628,79.8894252 70.1779503,79.9510477 69.89596,80.080004 C69.6706488,80.188017 69.4724465,80.3452119 69.31596,80.540004 C69.1813572,80.7096774 69.0796142,80.9029891 69.01596,81.110004 C68.9620046,81.2889825 68.9284582,81.4734877 68.91596,81.660004 L72.60596,81.660004 C72.5502125,81.183124 72.3593922,80.7320942 72.05596,80.360004 L72.03596,80.340004 Z M78.38596,78.430004 L78.38596,79.960004 C78.4963798,79.7049052 78.6410437,79.4660414 78.81596,79.250004 C78.9966092,79.0327232 79.2089982,78.843933 79.44596,78.690004 C79.6794513,78.5382733 79.9315287,78.4172761 80.19596,78.330004 C80.4647851,78.2463337 80.7444263,78.2025345 81.02596,78.200004 C81.1953429,78.2053794 81.3633558,78.2322615 81.52596,78.280004 L81.52596,80.400004 C81.3972998,80.3720991 81.2670583,80.3520619 81.13596,80.340004 C80.9927919,80.3302714 80.8491281,80.3302714 80.70596,80.340004 C80.3424568,80.3309329 79.9811663,80.3991009 79.64596,80.540004 C79.3725527,80.670319 79.1355418,80.8661106 78.95596,81.110004 C78.7741365,81.3616254 78.6448962,81.6473145 78.57596,81.950004 C78.5049405,82.2786576 78.468078,82.6137712 78.46596,82.950004 L78.46596,86.700004 L76.19596,86.700004 L76.19596,78.430004 L78.38596,78.430004 Z M44.14596,89.280004 L46.81596,97.130004 L49.34596,89.280004 L52.88596,89.280004 L52.88596,100.700004 L50.55596,100.700004 L50.55596,92.600004 L47.75596,100.700004 L45.82596,100.700004 L43.02596,92.700004 L43.02596,100.700004 L40.67596,100.700004 L40.67596,89.280004 L44.14596,89.280004 Z M54.78596,94.970004 C54.7964807,94.0652254 55.2931675,93.2361405 56.08596,92.800004 C56.4616265,92.5744932 56.8749222,92.4186604 57.30596,92.340004 C57.756915,92.2484207 58.2158018,92.2015272 58.67596,92.200004 C59.0975365,92.2008137 59.5185484,92.230886 59.93596,92.290004 C60.3419198,92.3445064 60.7367594,92.4626209 61.10596,92.640004 C61.4486085,92.7992608 61.7447024,93.0437104 61.96596,93.350004 C62.2111275,93.704103 62.3308101,94.1300322 62.30596,94.560004 L62.30596,98.860004 C62.3051519,99.2175335 62.3251858,99.5748062 62.36596,99.930004 C62.3897405,100.199588 62.4679865,100.461542 62.59596,100.700004 L60.28596,100.700004 C60.243278,100.572582 60.2098577,100.442243 60.18596,100.310004 C60.1562093,100.174943 60.1361581,100.037926 60.12596,99.900004 C59.7721669,100.264123 59.3317534,100.5325 58.84596,100.680004 C58.360228,100.831047 57.8546322,100.908571 57.34596,100.910004 C56.9707561,100.912312 56.5970935,100.861817 56.23596,100.760004 C55.9118682,100.676973 55.6087161,100.5271 55.34596,100.320004 C55.0871573,100.115115 54.8813803,99.8510348 54.74596,99.550004 C54.5897611,99.2013598 54.5145467,98.8218686 54.52596,98.440004 C54.509579,98.0383937 54.5956089,97.6392151 54.77596,97.280004 C54.927444,96.9914438 55.1471502,96.7442744 55.41596,96.560004 C55.6875738,96.3680716 55.9928898,96.2289832 56.31596,96.150004 C56.64596,96.060004 56.98596,95.990004 57.31596,95.930004 L58.31596,95.800004 C58.6121505,95.773522 58.9061745,95.7267455 59.19596,95.660004 C59.4178327,95.6139447 59.6263866,95.5182151 59.80596,95.380004 C59.9624328,95.2468555 60.0413665,95.0438832 60.01596,94.840004 C60.0254809,94.639647 59.9842024,94.4401341 59.89596,94.260004 C59.8176163,94.1230079 59.7079609,94.0064991 59.57596,93.920004 C59.4303455,93.8384908 59.2710638,93.7842673 59.10596,93.760004 C58.9161292,93.7486654 58.7257909,93.7486654 58.53596,93.760004 C58.1808401,93.7523349 57.8318795,93.8535335 57.53596,94.050004 C57.2411685,94.2971638 57.0754383,94.6654532 57.08596,95.050004 L54.78596,94.970004 Z M60.05596,96.700004 C59.9511359,96.7909257 59.8285365,96.8590365 59.69596,96.900004 C59.5425226,96.9517281 59.3854131,96.9918411 59.22596,97.020004 L58.70596,97.100004 L58.16596,97.180004 C57.9936971,97.2139185 57.823438,97.2573179 57.65596,97.310004 C57.5022594,97.3610114 57.3572534,97.4352006 57.22596,97.530004 C57.1048837,97.6200107 57.0057418,97.736246 56.93596,97.870004 C56.847805,98.0322072 56.8062713,98.2156475 56.81596,98.400004 C56.8099239,98.5776476 56.8513456,98.7536899 56.93596,98.910004 C57.0026572,99.0462175 57.1067006,99.1606653 57.23596,99.240004 C57.3758378,99.3205103 57.5277913,99.3779149 57.68596,99.410004 C57.8622985,99.4252324 58.0396215,99.4252324 58.21596,99.410004 C58.5627361,99.4246846 58.9073635,99.3488666 59.21596,99.190004 C59.4381794,99.0578574 59.6238135,98.8722233 59.75596,98.650004 C59.8716939,98.4573003 59.9465771,98.2428619 59.97596,98.020004 C59.97596,97.810004 59.97596,97.640004 59.97596,97.510004 L60.05596,96.700004 Z M66.22596,92.430004 L66.22596,93.960004 C66.3363798,93.7049052 66.4810437,93.4660414 66.65596,93.250004 C66.8366092,93.0327232 67.0489982,92.843933 67.28596,92.690004 C67.5194513,92.5382733 67.7715287,92.4172761 68.03596,92.330004 C68.3047851,92.2463337 68.5844263,92.2025345 68.86596,92.200004 C69.0354276,92.2044799 69.203556,92.2313804 69.36596,92.280004 L69.36596,94.400004 C69.2372998,94.3720991 69.1070583,94.3520619 68.97596,94.340004 C68.8327919,94.3302714 68.6891281,94.3302714 68.54596,94.340004 C68.1825304,94.3318351 67.8214265,94.3999679 67.48596,94.540004 C67.2142699,94.6729968 66.9778473,94.8683024 66.79596,95.110004 C66.6141365,95.3616254 66.4848962,95.6473145 66.41596,95.950004 C66.3449405,96.2786576 66.308078,96.6137712 66.30596,96.950004 L66.30596,100.700004 L64.05596,100.700004 L64.05596,92.430004 L66.22596,92.430004 Z M72.76596,89.280004 L72.76596,95.400004 L75.63596,92.400004 L78.32596,92.400004 L75.19596,95.400004 L78.67596,100.630004 L75.92596,100.630004 L73.64596,96.930004 L72.76596,97.780004 L72.76596,100.700004 L70.49596,100.700004 L70.49596,89.280004 L72.76596,89.280004 Z"/>
    <filter id="awards-g" width="102.2%" height="107.7%" x="-1.1%" y="-1.9%" filterUnits="objectBoundingBox">
      <feOffset dy="1" in="SourceAlpha" result="shadowOffsetOuter1"/>
      <feColorMatrix in="shadowOffsetOuter1" values="0 0 0 0 1   0 0 0 0 0.8   0 0 0 0 0.0980392157  0 0 0 0.5 0"/>
    </filter>
    <path id="awards-a" d="M27.7467791,254.771826 C38.2837474,264.239597 52.2191666,270 67.5,270 C100.360943,270 127,243.360943 127,210.5 C127,177.639057 100.360943,151 67.5,151 C38.5181409,151 14.3759373,171.721028 9.08003857,199.156435"/>
    <mask id="awards-i" width="117.92" height="119" x="0" y="0" fill="#fff">
      <use xlink:href="#awards-a"/>
    </mask>
    <path id="awards-k" d="M39.95,85.880004 C40.0740909,86.1405535 40.2635834,86.3644993 40.5,86.530004 C40.7435748,86.7044846 41.018641,86.8301321 41.31,86.900004 C41.6365977,86.983849 41.9728376,87.0241977 42.31,87.020004 C42.5511735,87.0182733 42.7918666,86.9982156 43.03,86.960004 C43.2789176,86.9253078 43.52146,86.8545663 43.75,86.750004 C43.9650064,86.6435158 44.1556661,86.4937118 44.31,86.310004 C44.4627499,86.1056535 44.5404417,85.8549209 44.53,85.600004 C44.538253,85.3181847 44.4338927,85.0446887 44.24,84.840004 C44.0121963,84.6327783 43.7476494,84.4699803 43.46,84.360004 C43.1051015,84.2238582 42.7408171,84.1135702 42.37,84.030004 C41.97,83.930004 41.55,83.830004 41.14,83.710004 C40.7170466,83.6010842 40.2998508,83.4709192 39.89,83.320004 C39.5020287,83.1684517 39.1355787,82.9667361 38.8,82.720004 C38.4809638,82.4714449 38.2184825,82.1578308 38.03,81.800004 C37.8199258,81.3853057 37.7168025,80.9246884 37.73,80.460004 C37.7180044,79.9252472 37.8492011,79.3970078 38.11,78.930004 C38.3627669,78.5030083 38.7036807,78.1348214 39.11,77.850004 C39.5278769,77.5556036 39.9953279,77.3388147 40.49,77.210004 C40.9882612,77.0716419 41.5028856,77.0010072 42.02,77.000004 C42.5991688,76.9994057 43.1764213,77.0665281 43.74,77.200004 C44.2653915,77.3256495 44.7635151,77.5459082 45.21,77.850004 C45.6284938,78.1500641 45.9709584,78.5438985 46.21,79.000004 C46.4754421,79.5193143 46.6061112,80.097009 46.59,80.680004 L44.16,80.680004 C44.1445609,80.3879553 44.0697011,80.1021268 43.94,79.840004 C43.8290794,79.6212441 43.6594018,79.4377152 43.45,79.310004 C43.2397122,79.1760571 43.005349,79.0843498 42.76,79.040004 C42.4772164,78.9813313 42.1887537,78.9544975 41.9,78.960004 C41.6952244,78.9606223 41.4909717,78.9807127 41.29,79.020004 C41.0955538,79.0617365 40.909587,79.1361232 40.74,79.240004 C40.5798163,79.3468888 40.4408068,79.4825078 40.33,79.640004 C40.2208677,79.8244558 40.1654504,80.0357339 40.17,80.250004 C40.1595484,80.4420234 40.2046846,80.632984 40.3,80.800004 C40.4316132,80.9671564 40.6037113,81.097951 40.8,81.180004 C41.1391643,81.3269612 41.4904943,81.4440712 41.85,81.530004 L43.58,81.980004 C43.79,81.980004 44.09,82.100004 44.47,82.210004 C44.8717588,82.3319486 45.252742,82.5140114 45.6,82.750004 C46.0010865,83.0078947 46.3421092,83.3489175 46.6,83.750004 C46.8934273,84.2230366 47.0363936,84.7739799 47.01,85.330004 C47.0151755,85.8292618 46.9128598,86.3237879 46.71,86.780004 C46.5082361,87.2337713 46.199405,87.6318203 45.81,87.940004 C45.3682928,88.2890877 44.8619127,88.5473756 44.32,88.700004 C43.6519125,88.8991555 42.9570058,88.9936088 42.26,88.980004 C41.6420808,88.9811256 41.0267333,88.9004243 40.43,88.740004 C39.8652502,88.6031552 39.3321862,88.3586927 38.86,88.020004 C37.8799123,87.3049866 37.3300186,86.1411705 37.4,84.930004 L39.83,84.930004 C39.7924856,85.2517158 39.8336658,85.5777256 39.95,85.880004 Z M53.77,88.700004 L53.77,87.550004 L53.72,87.550004 C53.4531326,87.9862272 53.0635517,88.3340673 52.6,88.550004 C52.1586867,88.7574256 51.6776162,88.8666047 51.19,88.870004 C50.682604,88.885274 50.1769385,88.8038245 49.7,88.630004 C49.33779,88.4901451 49.0199756,88.2552387 48.78,87.950004 C48.5484807,87.6311307 48.3881951,87.2662252 48.31,86.880004 C48.2149074,86.4194554 48.1679881,85.950263 48.17,85.480004 L48.169938,80.390004 L50.45,80.390004 L50.45,85.060004 C50.4195944,85.5893206 50.5300091,86.1172408 50.77,86.590004 C51.0353901,86.9458524 51.4684533,87.1357924 51.91,87.090004 C52.4201274,87.1394875 52.9217352,86.9336038 53.25,86.540004 C53.5801035,85.9934872 53.7272373,85.3559071 53.67,84.720004 L53.67,80.390004 L55.94,80.390004 L55.94,88.700004 L53.77,88.700004 Z M59.82,80.430004 L59.82,81.480004 C60.06714,81.0495531 60.4358945,80.7016715 60.88,80.480004 C61.3175461,80.2730826 61.7960012,80.1671389 62.28,80.170004 C62.8615952,80.1565538 63.4378655,80.2834704 63.96,80.540004 C64.4195579,80.7821154 64.819277,81.1237557 65.13,81.540004 C65.4480278,81.9615693 65.682258,82.4402137 65.82,82.950004 C65.9693,83.5008206 66.043306,84.0693215 66.04,84.640004 C66.0440825,85.1811478 65.9699842,85.7200443 65.82,86.240004 C65.6792406,86.7314312 65.4486861,87.1925401 65.14,87.600004 C64.8427785,88.017312 64.4524743,88.3596842 64,88.600004 C63.5055114,88.8418451 62.9603324,88.9618531 62.41,88.950004 C61.9229158,88.9516745 61.4414658,88.8458237 61,88.640004 C60.5686095,88.4328075 60.1995216,88.1154609 59.93,87.720004 L59.93,91.640004 L57.66,91.640004 L57.66,80.430004 L59.82,80.430004 Z M62.82,86.990004 C63.0650046,86.8415695 63.2734834,86.6399261 63.43,86.400004 C63.5875788,86.1411101 63.6992222,85.8569268 63.76,85.560004 C63.8220009,85.2303283 63.8521397,84.8954522 63.85,84.560004 C63.8533691,84.2240152 63.8198348,83.8886723 63.75,83.560004 C63.6851559,83.2580036 63.566608,82.9701015 63.4,82.710004 C63.2469876,82.4619076 63.0380963,82.2530163 62.79,82.100004 C62.5117836,81.9365797 62.1923906,81.8567314 61.87,81.870004 C61.5410013,81.8539854 61.2144344,81.9338901 60.93,82.100004 C60.682344,82.249292 60.4733608,82.4548492 60.32,82.700004 C60.1615007,82.9610199 60.0529849,83.249265 60,83.550004 C59.930403,83.8787093 59.8968713,84.214026 59.9,84.550004 C59.9011554,84.8857745 59.9346433,85.2206535 60,85.550004 C60.0640709,85.8475077 60.1790985,86.1316935 60.34,86.390004 C60.6703194,86.9172966 61.2583556,87.2265884 61.88,87.200004 C62.1898448,87.2082402 62.4965186,87.135879 62.77,86.990004 L62.82,86.990004 Z M69.87,86.700004 C70.274251,87.0542289 70.8040642,87.2308333 71.34,87.190004 C71.7592555,87.2032166 72.1720533,87.0842749 72.52,86.850004 C72.8023083,86.6853313 73.018108,86.4270793 73.13,86.120004 L75.13,86.120004 C74.9027611,86.9794175 74.382909,87.7326726 73.66,88.250004 C72.9385178,88.6904575 72.1049967,88.9127298 71.26,88.890004 C70.6592528,88.8958882 70.0625832,88.790793 69.5,88.580004 C68.9977924,88.3824913 68.5441303,88.078913 68.17,87.690004 C67.8010314,87.2904294 67.5154614,86.8212786 67.33,86.310004 C66.9229679,85.1822742 66.9229679,83.9477338 67.33,82.820004 C67.5211706,82.3069609 67.8136446,81.837642 68.19,81.440004 C68.5689947,81.04486 69.0250762,80.7317294 69.53,80.520004 C70.0743962,80.2913736 70.659559,80.1757019 71.25,80.180004 C71.8872385,80.1681286 72.5180898,80.3086987 73.09,80.590004 C73.5991354,80.8521933 74.0406619,81.2286888 74.38,81.690004 C74.7209123,82.1608957 74.965583,82.6944138 75.1,83.260004 C75.254805,83.8602543 75.3088735,84.4820424 75.26,85.100004 L69.26,85.100004 C69.2455951,85.6927034 69.4646708,86.2673282 69.87,86.700004 Z M72.43,82.340004 C72.0981968,82.0234272 71.6471349,81.863373 71.19,81.900004 C70.8801028,81.8894252 70.5719902,81.9510477 70.29,82.080004 C70.0646887,82.188017 69.8664865,82.3452119 69.71,82.540004 C69.5753971,82.7096774 69.4736542,82.9029891 69.41,83.110004 C69.3560446,83.2889825 69.3224982,83.4734877 69.31,83.660004 L73,83.660004 C72.9442525,83.183124 72.7534322,82.7320942 72.45,82.360004 L72.43,82.340004 Z M78.78,80.430004 L78.78,81.960004 C78.8904197,81.7049052 79.0350837,81.4660414 79.21,81.250004 C79.3906492,81.0327232 79.6030382,80.843933 79.84,80.690004 C80.0734912,80.5382733 80.3255687,80.4172761 80.59,80.330004 C80.8588251,80.2463337 81.1384663,80.2025345 81.42,80.200004 C81.5893829,80.2053794 81.7573958,80.2322615 81.92,80.280004 L81.92,82.400004 C81.7913397,82.3720991 81.6610983,82.3520619 81.53,82.340004 C81.3868319,82.3302714 81.2431681,82.3302714 81.1,82.340004 C80.7364967,82.3309329 80.3752063,82.3991009 80.04,82.540004 C79.7665927,82.670319 79.5295818,82.8661106 79.35,83.110004 C79.1681765,83.3616254 79.0389362,83.6473145 78.97,83.950004 C78.8989805,84.2786576 78.862118,84.6137712 78.86,84.950004 L78.86,88.700004 L76.59,88.700004 L76.59,80.430004 L78.78,80.430004 Z M38.97,91.280004 C39.6722102,91.2707762 40.3702414,91.3893737 41.03,91.630004 C41.6442086,91.837276 42.2044701,92.1788989 42.67,92.630004 C43.1565187,93.1307992 43.5284291,93.7313149 43.76,94.390004 C44.0384406,95.1866386 44.1738577,96.0262244 44.16,96.870004 C44.1676779,97.6522766 44.0564072,98.431172 43.83,99.180004 C43.6277106,99.8499691 43.2870307,100.470007 42.83,101.000004 C42.3871208,101.519238 41.8335732,101.932691 41.21,102.210004 C40.4895272,102.515797 39.7125232,102.665745 38.93,102.650004 L34,102.650004 L34,91.280004 L38.97,91.280004 Z M38.8,100.590004 C39.1409122,100.584869 39.4786952,100.524068 39.8,100.410004 C40.1447052,100.290885 40.4564715,100.092176 40.71,99.830004 C40.9989035,99.5243475 41.2173552,99.1591236 41.35,98.760004 C41.522881,98.2447925 41.6041103,97.7032641 41.59,97.160004 C41.5964729,96.6355975 41.5427889,96.1121784 41.43,95.600004 C41.3277398,95.1688426 41.1370463,94.7636189 40.87,94.410004 C40.6086986,94.0737471 40.2639428,93.8117327 39.87,93.650004 C39.3713459,93.4646201 38.8418244,93.3763665 38.31,93.390004 L36.52,93.390004 L36.52,100.590004 L38.8,100.590004 Z M48.09,100.700004 C48.494251,101.054229 49.0240642,101.230833 49.56,101.190004 C49.9822216,101.201974 50.3978335,101.083227 50.75,100.850004 C51.0296735,100.68486 51.2421369,100.426362 51.35,100.120004 L53.35,100.120004 C53.1227611,100.979418 52.602909,101.732673 51.88,102.250004 C51.1585178,102.690457 50.3249967,102.91273 49.48,102.890004 C48.8792528,102.895888 48.2825832,102.790793 47.72,102.580004 C47.2190828,102.380034 46.76591,102.076783 46.39,101.690004 C46.0210314,101.290429 45.7354614,100.821279 45.55,100.310004 C45.352683,99.7444197 45.2545733,99.1489949 45.26,98.550004 C45.255242,97.9599962 45.3568666,97.3739612 45.56,96.820004 C45.9497377,95.7858684 46.7441984,94.9552958 47.76,94.520004 C48.3043962,94.2913736 48.889559,94.1757019 49.48,94.180004 C50.1175134,94.1653676 50.7490132,94.3060822 51.32,94.590004 C51.8291354,94.8521933 52.2706619,95.2286888 52.61,95.690004 C52.9540034,96.1603619 53.2020522,96.6938367 53.34,97.260004 C53.4899276,97.8610794 53.5439269,98.4820716 53.5,99.100004 L47.5,99.100004 C47.4843788,99.6892357 47.6955768,100.261976 48.09,100.700004 Z M50.66,96.340004 C50.326853,96.0256187 49.8767969,95.8659214 49.42,95.900004 C49.1067518,95.8878573 48.7950347,95.9495156 48.51,96.080004 C48.2859789,96.1855979 48.0905219,96.3433351 47.94,96.540004 C47.7988217,96.7068377 47.6933193,96.9008259 47.63,97.110004 C47.5760446,97.2889825 47.5424982,97.4734877 47.53,97.660004 L51.23,97.660004 C51.1598208,97.1834523 50.9629669,96.7344872 50.66,96.360004 L50.66,96.340004 Z M56.75,100.640004 C56.8534819,100.811264 56.9893476,100.960717 57.15,101.080004 C57.3166726,101.193765 57.5032461,101.275179 57.7,101.320004 C57.911794,101.377271 58.1306405,101.404206 58.35,101.400004 C58.5161397,101.418748 58.6838603,101.418748 58.85,101.400004 C59.0181358,101.364464 59.1799538,101.303783 59.33,101.220004 C59.4742801,101.144262 59.5978648,101.034409 59.69,100.900004 C59.7909595,100.753538 59.8402221,100.577601 59.83,100.400004 C59.83,100.060004 59.61,99.800004 59.16,99.630004 C58.539409,99.4156617 57.9045086,99.2452411 57.26,99.120004 C56.93,99.040004 56.61,98.960004 56.26,98.850004 C55.9623161,98.7575167 55.679436,98.6228119 55.42,98.450004 C55.1796301,98.2898366 54.9780587,98.0780159 54.83,97.830004 C54.6745615,97.5489748 54.5985121,97.2309503 54.61,96.910004 C54.5900508,96.4530576 54.6973703,95.9995461 54.92,95.600004 C55.1218552,95.26612 55.4036645,94.9877473 55.74,94.790004 C56.0964575,94.5851905 56.4854462,94.4431251 56.89,94.370004 C57.3253745,94.2895032 57.7672463,94.2493331 58.21,94.250004 C58.6464385,94.2527153 59.081667,94.2962382 59.51,94.380004 C59.9080039,94.4593415 60.2899381,94.6046793 60.64,94.810004 C60.9674823,95.0190485 61.2469532,95.2951112 61.46,95.620004 C61.6945303,96.0038951 61.8286511,96.4406476 61.85,96.890004 L59.69,96.890004 C59.6971007,96.529823 59.5099202,96.193662 59.2,96.010004 C58.8721531,95.8430158 58.5078026,95.7605214 58.14,95.770004 L57.72,95.770004 C57.582224,95.7820141 57.4472189,95.8157653 57.32,95.870004 C57.1982803,95.923199 57.0892173,96.0015881 57,96.100004 C56.9156527,96.2195879 56.8734404,96.3638131 56.88,96.510004 C56.8735055,96.7014496 56.954466,96.8854508 57.1,97.010004 C57.274715,97.1506016 57.4750995,97.2558884 57.69,97.320004 C57.9591814,97.4080193 58.2329119,97.4814592 58.51,97.540004 L59.45,97.740004 C59.7880068,97.8157606 60.1218001,97.9092228 60.45,98.020004 C60.7510942,98.1131004 61.0348663,98.2549864 61.29,98.440004 C61.5334986,98.6131698 61.7351035,98.8386939 61.88,99.100004 C62.0474169,99.4057493 62.1270174,99.7518387 62.11,100.100004 C62.1527632,101.013449 61.697335,101.87838 60.92,102.360004 C60.5521274,102.588776 60.1453885,102.748082 59.72,102.830004 C59.2623002,102.921617 58.7967761,102.968505 58.33,102.970004 C57.8559852,102.970629 57.3832743,102.92034 56.92,102.820004 C56.4864596,102.739215 56.0723607,102.576291 55.7,102.340004 C55.3430518,102.118051 55.0419526,101.816952 54.82,101.460004 C54.5733639,101.038123 54.4422939,100.558683 54.44,100.070004 L56.6,100.070004 C56.6026623,100.269408 56.6541653,100.465119 56.75,100.640004 Z M63.5,93.150004 L63.5,91.280004 L65.77,91.280004 L65.77,93.150004 L63.5,93.150004 Z M65.77,94.430004 L65.77,102.700004 L63.5,102.700004 L63.5,94.430004 L65.77,94.430004 Z M75.38,103.310004 C75.280522,103.747859 75.0782857,104.155759 74.79,104.500004 C74.4371678,104.907457 73.9959534,105.228962 73.5,105.440004 C72.7770445,105.719708 72.004634,105.84901 71.23,105.820004 C70.8122107,105.818867 70.3960095,105.76852 69.99,105.670004 C69.5815584,105.573627 69.1903344,105.415114 68.83,105.200004 C68.4905652,104.98382 68.1980952,104.701552 67.97,104.370004 C67.7312997,104.010162 67.5963617,103.591508 67.58,103.160004 L69.83,103.160004 C69.8994205,103.534662 70.1297168,103.860001 70.46,104.050004 C70.7897793,104.2225 71.1579288,104.308517 71.53,104.300004 C72.063632,104.348536 72.587033,104.131698 72.93,103.720004 C73.2313205,103.298739 73.3795199,102.787098 73.35,102.270004 L73.35,101.180004 C73.1358084,101.61431 72.7843061,101.965812 72.35,102.180004 C71.9019993,102.387446 71.4136861,102.493304 70.92,102.490004 C70.368425,102.504069 69.8209975,102.391163 69.32,102.160004 C68.8898203,101.951797 68.5134125,101.647249 68.22,101.270004 C67.923527,100.873048 67.7093363,100.420867 67.59,99.940004 C67.45075,99.4148671 67.3834684,98.8732504 67.39,98.330004 C67.3857757,97.8078095 67.4633832,97.2881767 67.62,96.790004 C67.7609579,96.310883 67.9917218,95.8629296 68.3,95.470004 C68.936713,94.665364 69.9141908,94.2062456 70.94,94.230004 C71.434069,94.2229436 71.9232078,94.3289807 72.37,94.540004 C72.7962058,94.765333 73.144671,95.1137981 73.37,95.540004 L73.37,94.440004 L75.53,94.440004 L75.53,102.180004 C75.518497,102.560787 75.4682376,102.939407 75.38,103.310004 Z M72.27,100.560004 C72.5067975,100.434343 72.7119587,100.256537 72.87,100.040004 C73.0362261,99.8245867 73.1616252,99.580567 73.24,99.320004 C73.317165,99.0399843 73.3542009,98.7504309 73.35,98.460004 C73.3531612,98.1245139 73.3230134,97.7895384 73.26,97.460004 C73.1989117,97.1741502 73.0907738,96.9004264 72.94,96.650004 C72.7897609,96.4198264 72.5876977,96.2280376 72.35,96.090004 C72.0605967,95.9495118 71.7415735,95.8809046 71.42,95.890004 C70.8608936,95.8637548 70.3291675,96.1334159 70.02,96.600004 C69.859182,96.8256357 69.7437113,97.0803505 69.68,97.350004 C69.6105565,97.6414929 69.5769746,97.9403724 69.58,98.240004 C69.5802324,98.5389303 69.6103827,98.8370829 69.67,99.130004 C69.7260768,99.4079851 69.8274255,99.67487 69.97,99.920004 C70.1124661,100.152237 70.3077674,100.347538 70.54,100.490004 C70.8049061,100.650188 71.1105931,100.730084 71.42,100.720004 C71.7117892,100.731663 72.0024199,100.676956 72.27,100.560004 Z M79.5,94.430004 L79.5,95.580004 L79.55,95.580004 C79.8154679,95.1426149 80.2054478,94.7944186 80.67,94.580004 C81.1050942,94.3638458 81.5841704,94.2509207 82.07,94.250004 C82.5813862,94.236653 83.0905864,94.3215197 83.57,94.500004 C83.9310331,94.6468274 84.2479602,94.8845228 84.49,95.190004 C84.7234722,95.5077529 84.8839541,95.8731052 84.96,96.260004 C85.0556725,96.7204638 85.1025979,97.1897171 85.1,97.660004 L85.1,102.700004 L82.83,102.700004 L82.83,98.030004 C82.8604056,97.5006873 82.7499909,96.9727671 82.51,96.500004 C82.2459132,96.1425198 81.8118672,95.9521488 81.37,96.000004 C80.8598726,95.9505204 80.3582648,96.1564042 80.03,96.550004 C79.7019783,97.0936858 79.5549225,97.7274262 79.61,98.360004 L79.61,102.700004 L77.34,102.700004 L77.34,94.430004 L79.5,94.430004 Z"/>
    <filter id="awards-j" width="102%" height="106.9%" x="-1%" y="-1.7%" filterUnits="objectBoundingBox">
      <feOffset dy="1" in="SourceAlpha" result="shadowOffsetOuter1"/>
      <feColorMatrix in="shadowOffsetOuter1" values="0 0 0 0 1   0 0 0 0 0.8   0 0 0 0 0.0980392157  0 0 0 0.5 0"/>
    </filter>
    <path id="awards-m" d="M53.0219465,130.440849 C53.2366834,130.897481 53.5645967,131.289962 53.9737112,131.580021 C54.3952128,131.88581 54.8712097,132.106017 55.3754011,132.228472 C55.9405723,132.375417 56.5224292,132.446131 57.1058824,132.438781 C57.5232285,132.435748 57.9397435,132.400595 58.3518289,132.333627 C58.7825762,132.272819 59.2022912,132.14884 59.5977754,131.965587 C59.96984,131.778958 60.299773,131.516416 60.5668449,131.194455 C60.8311758,130.836316 60.96562,130.396889 60.9475508,129.950128 C60.9618325,129.45622 60.781239,128.976898 60.4457112,128.618174 C60.0515012,128.254996 59.5937078,127.96968 59.0959358,127.776939 C58.4817907,127.538333 57.8514032,127.345046 57.2097112,127.19859 C56.5175187,127.023333 55.7907166,126.848076 55.0812193,126.637767 C54.3493063,126.446877 53.6273568,126.218753 52.9181176,125.954264 C52.2467406,125.688657 51.6126057,125.335136 51.031893,124.90272 C50.4798069,124.467103 50.0255879,123.917471 49.6994225,123.290354 C49.3358929,122.563565 49.15744,121.7563 49.1802781,120.941907 C49.1595199,120.004707 49.3865533,119.078929 49.837861,118.260471 C50.2752693,117.512131 50.8652143,116.866857 51.5683422,116.367693 C52.2914704,115.851735 53.1003857,115.471797 53.9564064,115.246047 C54.8186382,115.003558 55.709186,114.879765 56.6040428,114.878007 C57.6062835,114.876958 58.6052081,114.994595 59.5804706,115.228521 C60.4896507,115.448724 61.3516443,115.834744 62.1242781,116.367693 C62.8484737,116.89357 63.4411023,117.583794 63.8547594,118.383151 C64.314102,119.29328 64.5402223,120.305732 64.5123422,121.327473 L60.3072727,121.327473 C60.2805557,120.815637 60.1510122,120.314701 59.9265668,119.855312 C59.7346208,119.47192 59.4409969,119.150272 59.078631,118.926449 C58.714732,118.691697 58.3091708,118.530974 57.8845989,118.453254 C57.3952473,118.350426 56.8960679,118.303398 56.396385,118.313049 C56.0420247,118.314132 55.6885692,118.349342 55.3407914,118.418203 C55.0043059,118.491342 54.6824938,118.62171 54.3890267,118.803769 C54.1118318,118.991092 53.8712785,119.228774 53.6795294,119.504798 C53.4906779,119.828063 53.3947795,120.198343 53.4026524,120.573867 C53.3845661,120.910395 53.4626734,121.245067 53.627615,121.537782 C53.8553691,121.830728 54.1531816,122.059955 54.4928556,122.203759 C55.079773,122.461312 55.687743,122.666556 56.309861,122.817159 L59.3035936,123.605817 C59.6669947,123.605817 60.186139,123.816125 60.8437219,124.008908 C61.5389581,124.222625 62.1982422,124.541703 62.7991658,124.955297 C63.4932385,125.40727 64.0833719,126.004937 64.5296471,126.70787 C65.0374175,127.536894 65.284818,128.502461 65.2391444,129.476934 C65.2481005,130.351919 65.071045,131.218612 64.72,132.018164 C64.3708513,132.813424 63.8364249,133.511033 63.1625668,134.051148 C62.3982007,134.662942 61.5219194,135.11561 60.5841497,135.383102 C59.4280369,135.73213 58.2255138,135.897666 57.0193583,135.873823 C55.9500607,135.875788 54.8852134,135.734354 53.8525775,135.453205 C52.8752887,135.213368 51.9528312,134.78493 51.1357219,134.191353 C49.4396986,132.938234 48.4881178,130.898562 48.6092193,128.775905 L52.8142888,128.775905 C52.7493709,129.339728 52.8206324,129.911084 53.0219465,130.440849 Z M76.9371979,135.383102 L76.9371979,133.367644 L76.8506738,133.367644 C76.3888648,134.132157 75.7147023,134.741772 74.9125348,135.120217 C74.1488504,135.483738 73.3163669,135.675082 72.4725561,135.68104 C71.5945168,135.707802 70.7194722,135.565055 69.894139,135.260422 C69.2673415,135.01531 68.7173696,134.603619 68.3020963,134.068673 C67.9014565,133.509825 67.6240852,132.870302 67.4887701,132.193421 C67.324214,131.386276 67.2430212,130.563983 67.2465027,129.73982 L67.2463953,120.819227 L71.1746952,120.819227 L71.1746952,129.003739 C71.1220789,129.931405 71.3131494,130.856623 71.7284492,131.685175 C72.1877019,132.308825 72.9371096,132.641709 73.7011979,132.561461 C74.5839638,132.648185 75.4519866,132.287358 76.0200428,131.597546 C76.5912807,130.639736 76.8458931,129.522331 76.7468449,128.407865 L76.7468449,120.819227 L80.7096471,120.819227 L80.7096471,135.383102 L76.9371979,135.383102 Z M87.4066096,120.88933 L87.4066096,122.729531 C87.8342808,121.975134 88.4724036,121.365447 89.2409198,120.976958 C89.9980851,120.614314 90.8260428,120.42864 91.6635936,120.433661 C92.6700331,120.410089 93.6672582,120.632519 94.5708021,121.082113 C95.3660585,121.506431 96.0577649,122.10518 96.5954652,122.834685 C97.1458063,123.573509 97.5511374,124.412368 97.7894973,125.305812 C98.0478581,126.271158 98.1759242,127.267497 98.1702032,128.267659 C98.1772679,129.216053 98.0490422,130.160508 97.7894973,131.071775 C97.5459158,131.933036 97.1469456,132.741163 96.6127701,133.455273 C96.0984339,134.186636 95.4230197,134.786667 94.6400214,135.207845 C93.784318,135.631689 92.8408961,135.842012 91.8885561,135.821246 C91.0456661,135.824173 90.2125258,135.638662 89.4485775,135.277948 C88.7105205,134.900013 88.083816,134.331801 87.6315722,133.63053 L87.6315722,140.500613 L83.7033797,140.500613 L83.7033797,120.88933 L87.4066096,120.88933 Z M92.5980535,132.386204 C93.0220294,132.126062 93.3827981,131.772667 93.6536471,131.352186 C93.9263342,130.898456 94.1195311,130.400404 94.2247059,129.880026 C94.3319972,129.302245 94.3841519,128.715351 94.3804492,128.127453 C94.3862793,127.538609 94.3282488,126.950896 94.2074011,126.374881 C94.0951896,125.845604 93.8900446,125.341034 93.6017326,124.885195 C93.3369476,124.450388 92.9754651,124.084291 92.546139,123.816125 C92.0646907,123.529713 91.5119872,123.389773 90.9540963,123.413034 C90.3847702,123.38496 89.8196522,123.524999 89.3274439,123.816125 C88.8988798,124.077763 88.5372383,124.438017 88.2718503,124.867669 C87.9975703,125.325118 87.8097857,125.830288 87.7180963,126.357355 C87.59766,126.933435 87.539634,127.521102 87.5450481,128.109928 C87.5470476,128.69839 87.6049978,129.285289 87.7180963,129.8625 C87.8289698,130.383897 88.0280228,130.881953 88.3064599,131.334661 C88.8780715,132.258779 89.8956571,132.800835 90.9714011,132.754244 C91.5075816,132.768679 92.0382749,132.64186 92.5115294,132.386204 L92.5980535,132.386204 Z M104.797947,131.877958 C105.497495,132.498763 106.414327,132.808275 107.341754,132.736718 C108.067268,132.759874 108.781607,132.55142 109.383722,132.140844 C109.872251,131.852243 110.245688,131.399638 110.439316,130.861466 L113.900278,130.861466 C113.507045,132.36765 112.607451,133.687784 111.356471,134.594445 C110.107959,135.366372 108.665566,135.75592 107.203316,135.716091 C106.163734,135.726404 105.131208,135.542217 104.157668,135.172794 C103.288608,134.826639 102.503554,134.294596 101.856128,133.613004 C101.217635,132.912721 100.723461,132.0905 100.402524,131.194455 C99.6981627,129.218027 99.6981627,127.054406 100.402524,125.077978 C100.733341,124.178832 101.239462,123.356317 101.890738,122.659428 C102.546581,121.966909 103.335822,121.418126 104.209583,121.047061 C105.15165,120.64637 106.164264,120.443647 107.186011,120.451187 C108.28874,120.430374 109.380416,120.676734 110.370096,121.169741 C111.251145,121.629247 112.015199,122.289083 112.602417,123.097571 C113.192359,123.922843 113.615758,124.857872 113.848364,125.849109 C114.116251,126.901091 114.209815,127.99082 114.125241,129.073842 L103.742353,129.073842 C103.717426,130.112591 104.096532,131.119662 104.797947,131.877958 Z M109.227979,124.236743 C108.653799,123.681919 107.873245,123.401413 107.082182,123.465611 C106.54591,123.447071 106.012728,123.555069 105.524749,123.781074 C105.134852,123.970375 104.791866,124.24587 104.52107,124.587257 C104.288142,124.884622 104.112077,125.223415 104.001925,125.586223 C103.908556,125.899896 103.850505,126.223255 103.828877,126.550138 L110.214353,126.550138 C110.107912,125.710658 109.765537,124.919833 109.227979,124.271794 L109.227979,124.236743 Z M120.216535,120.88933 L120.216535,123.570765 C120.407614,123.123686 120.657952,122.70506 120.960642,122.326439 C121.273252,121.945639 121.640787,121.61477 122.050845,121.344999 C122.454897,121.07908 122.891112,120.867023 123.348706,120.714073 C123.813903,120.567434 124.297817,120.490673 124.785005,120.486238 C125.078119,120.495659 125.368862,120.542772 125.650246,120.626444 L125.650246,124.341897 C125.427602,124.292992 125.202221,124.257875 124.975358,124.236743 C124.727609,124.219686 124.479001,124.219686 124.231251,124.236743 C123.602216,124.220845 122.977009,124.340315 122.396941,124.587257 C121.923815,124.815644 121.513672,125.158783 121.202909,125.586223 C120.888267,126.027208 120.664619,126.527899 120.545326,127.058384 C120.422428,127.634373 120.358638,128.221684 120.354973,128.810956 L120.354973,135.383102 L116.426781,135.383102 L116.426781,120.88933 L120.216535,120.88933 Z M29.0374759,141.394425 C29.946878,141.385899 30.8501195,141.546281 31.7024171,141.86762 C32.5116511,142.159286 33.2452327,142.632615 33.8482139,143.252152 C34.4796892,143.90797 34.9585747,144.698339 35.2499037,145.565547 C35.6152541,146.611644 35.7911227,147.715949 35.7690481,148.825332 C35.7773714,149.851088 35.6374508,150.872557 35.3537326,151.857282 C35.1018227,152.732491 34.6714765,153.544467 34.0904813,154.24078 C33.52226,154.927707 32.8058967,155.473338 31.9965989,155.835621 C31.06282,156.241846 30.0534541,156.439123 29.0374759,156.41397 L22.652,156.41397 L22.652,141.394425 L29.0374759,141.394425 Z M28.8125134,153.662431 C29.2786027,153.659245 29.7408072,153.57629 30.1795936,153.417071 C30.6294736,153.272913 31.0348588,153.013294 31.3563209,152.663465 C31.7330268,152.264737 32.0168407,151.785675 32.1869519,151.261407 C32.4098636,150.583842 32.5152491,149.872303 32.4984385,149.15832 C32.5051267,148.469104 32.4354722,147.781303 32.2907807,147.107811 C32.1684536,146.536678 31.9265049,145.998791 31.5812834,145.530496 C31.2235955,145.093098 30.7663207,144.750274 30.2488128,144.53153 C29.6025086,144.285265 28.9141878,144.17206 28.2241497,144.198541 L25.9053048,144.198541 L25.9053048,153.662431 L28.8125134,153.662431 Z M40.9085775,153.802637 C41.4324607,154.266967 42.1176387,154.500378 42.812107,154.451089 C43.3578102,154.469366 43.895748,154.316331 44.3522353,154.012946 C44.7130357,153.786712 44.9921886,153.448681 45.1482567,153.049031 L47.7439786,153.049031 C47.4472884,154.182517 46.767586,155.174775 45.8231444,155.853147 C44.8893769,156.438258 43.8057291,156.730919 42.7082781,156.694381 C41.9327575,156.705523 41.1625989,156.562624 40.4413476,156.273764 C39.7859918,156.024859 39.1944937,155.629487 38.7108663,155.117066 C38.2405309,154.608557 37.8704916,154.013695 37.6206631,153.364494 C37.3570966,152.622911 37.2281193,151.839168 37.2399572,151.051098 C37.230961,150.280388 37.359947,149.514406 37.6206631,148.79028 C38.4034843,146.641493 40.4473454,145.233362 42.7082781,145.285136 C43.5342692,145.26544 44.3529731,145.445691 45.0963422,145.810907 C45.7815057,146.145864 46.3755392,146.645206 46.8268235,147.265542 C47.2667035,147.883467 47.5894316,148.578762 47.7785882,149.316052 C47.9706441,150.106549 48.0406931,150.922396 47.986246,151.734602 L40.2336898,151.734602 C40.1911355,152.485738 40.4324287,153.225125 40.9085775,153.802637 Z M44.2484064,148.089251 C43.8228996,147.663285 43.2355073,147.445798 42.6390588,147.493377 C42.2333791,147.482131 41.8306321,147.566108 41.4623316,147.738737 C41.1738177,147.879155 40.9196714,148.082673 40.7182246,148.334611 C40.536024,148.555577 40.4005571,148.812075 40.3202139,149.088218 C40.2471378,149.321599 40.2006891,149.562688 40.1817754,149.806772 L44.9752086,149.806772 C44.8808097,149.174654 44.6175072,148.580722 44.2137968,148.089251 L44.2484064,148.089251 Z M52.2951444,156.41397 L48.6265241,145.548022 L51.7067807,145.548022 L53.9737112,152.961402 L56.2233369,145.548022 L59.1651551,145.548022 L55.5311444,156.41397 L52.2951444,156.41397 Z M63.5951872,153.802637 C64.1170848,154.270454 64.8037494,154.504371 65.4987166,154.451089 C66.0444198,154.469366 66.5823576,154.316331 67.0388449,154.012946 C67.3996453,153.786712 67.6787982,153.448681 67.8348663,153.049031 L70.4305882,153.049031 C70.133898,154.182517 69.4541956,155.174775 68.509754,155.853147 C67.5759866,156.438258 66.4923387,156.730919 65.3948877,156.694381 C64.6136346,156.70691 63.8375507,156.564003 63.1106524,156.273764 C62.4563677,156.022734 61.865307,155.627654 61.3801711,155.117066 C60.8986142,154.617425 60.5270537,154.020118 60.2899679,153.364494 C60.0205073,152.624014 59.8856619,151.84024 59.8919572,151.051098 C59.8888811,150.279347 60.0237238,149.513401 60.2899679,148.79028 C60.5453088,148.135735 60.9278041,147.539768 61.4147807,147.037708 C61.9066072,146.522251 62.4948774,146.111163 63.145262,145.828433 C63.851284,145.527076 64.6115166,145.377864 65.3775829,145.39029 C66.203574,145.370594 67.022278,145.550845 67.7656471,145.916062 C68.4474913,146.256226 69.0404017,146.754624 69.4961283,147.370697 C69.9372447,147.985601 70.254747,148.682304 70.4305882,149.421206 C70.6381615,150.209024 70.7084342,151.027477 70.638246,151.839756 L62.9029947,151.839756 C62.8912787,152.557376 63.1372514,153.254891 63.5951872,153.802637 Z M66.935016,148.089251 C66.5041773,147.660478 65.9103468,147.442946 65.3083636,147.493377 C64.9082683,147.482287 64.5111755,147.566321 64.1489412,147.738737 C63.8583504,147.883803 63.5994404,148.086424 63.3875294,148.334611 C63.2169267,148.560592 63.0879609,148.815879 63.0068235,149.088218 C62.9337475,149.321599 62.8872988,149.562688 62.868385,149.806772 L67.6618182,149.806772 C67.557427,149.171038 67.2819953,148.576758 66.8657968,148.089251 L66.935016,148.089251 Z M75.3797647,141.394425 L75.3797647,156.41397 L72.4379465,156.41397 L72.4379465,141.394425 L75.3797647,141.394425 Z M77.7678289,148.615023 C78.0280001,147.963014 78.4099145,147.367952 78.8926417,146.862451 C79.3882812,146.364802 79.9764556,145.971651 80.623123,145.705753 C81.3534518,145.429789 82.12791,145.293123 82.9073583,145.302661 C83.6922964,145.29494 84.4721054,145.431516 85.2088984,145.705753 C85.8555658,145.971651 86.4437402,146.364802 86.9393797,146.862451 C87.4263564,147.364511 87.8088517,147.960477 88.0641925,148.615023 C88.3336144,149.373732 88.4683615,150.174736 88.4622032,150.980996 C88.4713388,151.787495 88.3365023,152.58903 88.0641925,153.346968 C87.8164424,154.00545 87.4329903,154.602908 86.9393797,155.09954 C86.4527837,155.608348 85.862141,156.003149 85.2088984,156.256238 C84.4721054,156.530475 83.6922964,156.667051 82.9073583,156.65933 C82.12791,156.668868 81.3534518,156.532202 80.623123,156.256238 C79.9698804,156.003149 79.3792377,155.608348 78.8926417,155.09954 C78.405665,154.59748 78.0231697,154.001514 77.7678289,153.346968 C77.5014094,152.587931 77.3724404,151.786427 77.387123,150.980996 C77.375412,150.175783 77.5042958,149.374809 77.7678289,148.615023 Z M80.4500749,152.260373 C80.5257774,152.657776 80.6723809,153.037871 80.8826952,153.38202 C81.307543,154.102314 82.0987425,154.516545 82.9246631,154.451089 C83.3624305,154.467821 83.7971891,154.371315 84.1879144,154.170677 C84.5097323,153.973447 84.7821671,153.703533 84.9839358,153.38202 C85.1942501,153.037871 85.3408536,152.657776 85.4165561,152.260373 C85.5005588,151.839311 85.5411544,151.410552 85.5376898,150.980996 C85.5402978,150.551478 85.4997105,150.122807 85.4165561,149.701618 C85.3439245,149.30879 85.1970249,148.933877 84.9839358,148.597497 C84.7917455,148.268248 84.5171585,147.996201 84.1879144,147.80884 C83.8034402,147.588154 83.3663658,147.479007 82.9246631,147.493377 C82.4882051,147.476668 82.0560629,147.586083 81.6787166,147.80884 C81.3494725,147.996201 81.0748855,148.268248 80.8826952,148.597497 C80.6696062,148.933877 80.5227065,149.30879 80.4500749,149.701618 C80.3669205,150.122807 80.3263333,150.551478 80.3289412,150.980996 C80.3254766,151.410552 80.3660723,151.839311 80.4500749,152.260373 Z M93.2037219,145.548022 L93.2037219,146.932554 C93.5254389,146.372993 94.0085314,145.926544 94.588107,145.653176 C95.1540527,145.375981 95.7765732,145.237879 96.4051123,145.250084 C97.158785,145.229346 97.9064126,145.391597 98.5855187,145.723279 C99.1810428,146.037021 99.7009802,146.479823 100.108342,147.020182 C100.520689,147.574374 100.820636,148.205751 100.990888,148.877909 C101.194962,149.595477 101.294076,150.339466 101.28507,151.08615 C101.293052,151.798243 101.193853,152.50741 100.990888,153.189237 C100.813057,153.826398 100.51318,154.421899 100.108342,154.941809 C99.7229263,155.469343 99.218619,155.895965 98.6374332,156.186135 C97.999651,156.51234 97.2924961,156.674835 96.5781604,156.65933 C95.9371752,156.66572 95.3034291,156.521757 94.7265455,156.238712 C94.1698588,155.970397 93.6968763,155.552012 93.3594652,155.029438 L93.3594652,160.182 L90.4176471,160.182 L90.4176471,145.548022 L93.2037219,145.548022 Z M97.0280856,154.170677 C97.3451758,153.974707 97.616712,153.711661 97.824107,153.399545 C98.0388814,153.065802 98.1805029,152.6893 98.2394225,152.295425 C98.4238085,151.446816 98.4238085,150.567752 98.2394225,149.719144 C98.1576387,149.320787 98.0051968,148.940756 97.7894973,148.597497 C97.5924599,148.272131 97.3189936,148.001194 96.9934759,147.80884 C96.2456177,147.387638 95.3359652,147.387638 94.588107,147.80884 C94.2625893,148.001194 93.989123,148.272131 93.7920856,148.597497 C93.58469,148.934995 93.4436647,149.309912 93.3767701,149.701618 C93.2861725,150.133783 93.2397814,150.574252 93.2383316,151.016047 C93.2416557,151.446149 93.2880391,151.874802 93.3767701,152.295425 C93.4579006,152.685712 93.6042079,153.059113 93.8093904,153.399545 C94.0186283,153.716264 94.2968883,153.980088 94.6227166,154.170677 C95.3820444,154.544416 96.2687577,154.544416 97.0280856,154.170677 Z M105.957369,145.548022 L105.957369,147.020182 C106.32672,146.485837 106.804638,146.037671 107.359059,145.705753 C107.940581,145.397312 108.588903,145.240692 109.245283,145.250084 C109.885149,145.235649 110.519408,145.373726 111.096898,145.653176 C111.682213,145.941412 112.139254,146.441819 112.377455,147.055234 C112.721414,146.550098 113.162928,146.120833 113.675316,145.793382 C114.254025,145.421994 114.928552,145.232911 115.613455,145.250084 C116.145506,145.245089 116.675608,145.315885 117.188193,145.460393 C117.64594,145.589121 118.070908,145.816273 118.434139,146.12637 C118.795078,146.459337 119.07368,146.87357 119.247465,147.335645 C119.447134,147.897608 119.546739,148.491001 119.541647,149.088218 L119.541647,156.41397 L116.599829,156.41397 L116.599829,150.244915 C116.617977,149.906334 116.617977,149.567005 116.599829,149.228423 C116.578991,148.935963 116.502606,148.650327 116.374866,148.387189 C116.251836,148.142447 116.05887,147.940911 115.821112,147.80884 C115.51559,147.654169 115.175902,147.581743 114.834738,147.598531 C114.484337,147.586013 114.137237,147.670865 113.831059,147.843891 C113.579474,147.998611 113.371014,148.215765 113.22539,148.474817 C113.081232,148.748899 112.981883,149.044831 112.931209,149.351103 C112.914035,149.683865 112.914035,150.017308 112.931209,150.35007 L112.931209,156.41397 L109.98939,156.41397 L109.98939,150.315018 C109.98939,149.999555 109.98939,149.666566 109.98939,149.351103 C109.973076,149.056186 109.908759,148.766024 109.799037,148.492343 C109.702448,148.223485 109.519665,147.995174 109.279893,147.843891 C108.958199,147.662177 108.592037,147.577067 108.224299,147.598531 C108.035752,147.607044 107.849331,147.642444 107.670545,147.703685 C107.422758,147.768543 107.19226,147.888256 106.995658,148.0542 C106.75937,148.257838 106.575305,148.516413 106.459209,148.807806 C106.285936,149.217011 106.203243,149.65968 106.216941,150.104709 L106.216941,156.41397 L103.205904,156.41397 L103.205904,145.548022 L105.957369,145.548022 Z M125.061882,153.802637 C125.58378,154.270454 126.270445,154.504371 126.965412,154.451089 C127.511115,154.469366 128.049053,154.316331 128.50554,154.012946 C128.866341,153.786712 129.145493,153.448681 129.301561,153.049031 L131.897283,153.049031 C131.600593,154.182517 130.920891,155.174775 129.976449,155.853147 C129.042682,156.438258 127.959034,156.730919 126.861583,156.694381 C126.08033,156.70691 125.304246,156.564003 124.577348,156.273764 C123.923063,156.022734 123.332002,155.627654 122.846866,155.117066 C122.365309,154.617425 121.993749,154.020118 121.756663,153.364494 C121.487202,152.624014 121.352357,151.84024 121.358652,151.051098 C121.355576,150.279347 121.490419,149.513401 121.756663,148.79028 C122.012004,148.135735 122.394499,147.539768 122.881476,147.037708 C123.373302,146.522251 123.961573,146.111163 124.611957,145.828433 C125.317979,145.527076 126.078212,145.377864 126.844278,145.39029 C127.670269,145.370594 128.488973,145.550845 129.232342,145.916062 C129.914186,146.256226 130.507097,146.754624 130.962824,147.370697 C131.40394,147.985601 131.721442,148.682304 131.897283,149.421206 C132.097883,150.210248 132.168052,151.027491 132.104941,151.839756 L124.36969,151.839756 C124.357974,152.557376 124.603947,153.254891 125.061882,153.802637 Z M128.384406,148.089251 C127.96148,147.659181 127.372149,147.440977 126.775059,147.493377 C126.374789,147.480286 125.977239,147.564417 125.615636,147.738737 C125.325046,147.883803 125.066136,148.086424 124.854225,148.334611 C124.683622,148.560592 124.554656,148.815879 124.473519,149.088218 C124.39215,149.319376 124.345485,149.56159 124.33508,149.806772 L129.163123,149.806772 C129.072786,149.170112 128.802318,148.573575 128.384406,148.089251 Z M136.621497,145.548022 L136.621497,147.055234 C136.955397,146.454485 137.462575,145.971407 138.075102,145.670702 C138.615873,145.407579 139.205801,145.264189 139.805583,145.250084 C140.471345,145.227206 141.135233,145.334308 141.761027,145.565547 C142.225602,145.759193 142.631506,146.073553 142.937754,146.476885 C143.245306,146.891786 143.458082,147.370657 143.560727,147.878943 C143.68322,148.484311 143.741235,149.101241 143.733775,149.719144 L143.733775,156.41397 L140.791957,156.41397 L140.791957,150.279967 C140.839127,149.582253 140.695422,148.884876 140.376642,148.264509 C140.020973,147.805448 139.463037,147.555771 138.888428,147.598531 C138.226884,147.538851 137.579018,147.814428 137.157947,148.334611 C136.730531,149.050393 136.536766,149.884408 136.604193,150.71811 L136.604193,156.41397 L133.662374,156.41397 L133.662374,145.548022 L136.621497,145.548022 Z M152.022781,145.548022 L152.022781,147.545954 L149.928898,147.545954 L149.928898,152.908825 C149.88842,153.260484 149.97443,153.615139 150.171166,153.907791 C150.461013,154.120486 150.819521,154.214388 151.174845,154.170677 L151.65938,154.170677 L152.092,154.170677 L152.092,156.41397 L151.278674,156.501598 L150.378824,156.501598 C149.94482,156.499889 149.511349,156.470622 149.080963,156.41397 C148.704915,156.355424 148.341838,156.230877 148.008064,156.045929 C147.693721,155.856604 147.436423,155.583901 147.263957,155.257272 C147.068475,154.84811 146.973488,154.397176 146.98708,153.942843 L146.98708,147.528428 L145.256599,147.528428 L145.256599,145.548022 L146.98708,145.548022 L146.98708,142.288237 L149.928898,142.288237 L149.928898,145.548022 L152.022781,145.548022 Z"/>
    <filter id="awards-l" width="100.8%" height="104.4%" x="-.4%" y="-1.1%" filterUnits="objectBoundingBox">
      <feOffset dy="1" in="SourceAlpha" result="shadowOffsetOuter1"/>
      <feColorMatrix in="shadowOffsetOuter1" values="0 0 0 0 1   0 0 0 0 0.8   0 0 0 0 0.0980392157  0 0 0 0.5 0"/>
    </filter>
  </defs>
  <g fill="none" fill-rule="evenodd" transform="translate(0 1)">
    <g fill="#E8AA00" fill-rule="nonzero" transform="translate(170 9)">
      <polygon points="64 21 55.771 25.326 57.343 16.163 50.685 9.674 59.886 8.337 64 0 68.114 8.337 77.315 9.674 70.657 16.163 72.229 25.326"/>
      <polygon points="39 21 30.771 25.326 32.343 16.163 25.685 9.674 34.886 8.337 39 0 43.114 8.337 52.315 9.674 45.657 16.163 47.229 25.326"/>
      <polygon points="14 21 5.771 25.326 7.343 16.163 .685 9.674 9.886 8.337 14 0 18.114 8.337 27.315 9.674 20.657 16.163 22.229 25.326"/>
      <polygon points="64 48 55.771 52.326 57.343 43.163 50.685 36.674 59.886 35.337 64 27 68.114 35.337 77.315 36.674 70.657 43.163 72.229 52.326"/>
      <polygon points="39 48 30.771 52.326 32.343 43.163 25.685 36.674 34.886 35.337 39 27 43.114 35.337 52.315 36.674 45.657 43.163 47.229 52.326"/>
      <polygon points="14 48 5.771 52.326 7.343 43.163 .685 36.674 9.886 35.337 14 27 18.114 35.337 27.315 36.674 20.657 43.163 22.229 52.326"/>
      <polygon points="64 76 55.771 80.326 57.343 71.163 50.685 64.674 59.886 63.337 64 55 68.114 63.337 77.315 64.674 70.657 71.163 72.229 80.326"/>
      <polygon points="39 76 30.771 80.326 32.343 71.163 25.685 64.674 34.886 63.337 39 55 43.114 63.337 52.315 64.674 45.657 71.163 47.229 80.326"/>
      <polygon points="14 76 5.771 80.326 7.343 71.163 .685 64.674 9.886 63.337 14 55 18.114 63.337 27.315 64.674 20.657 71.163 22.229 80.326"/>
      <polygon points="64 244 55.771 248.326 57.343 239.163 50.685 232.674 59.886 231.337 64 223 68.114 231.337 77.315 232.674 70.657 239.163 72.229 248.326"/>
      <polygon points="39 244 30.771 248.326 32.343 239.163 25.685 232.674 34.886 231.337 39 223 43.114 231.337 52.315 232.674 45.657 239.163 47.229 248.326"/>
      <polygon points="14 244 5.771 248.326 7.343 239.163 .685 232.674 9.886 231.337 14 223 18.114 231.337 27.315 232.674 20.657 239.163 22.229 248.326"/>
      <polygon points="64 272 55.771 276.326 57.343 267.163 50.685 260.674 59.886 259.337 64 251 68.114 259.337 77.315 260.674 70.657 267.163 72.229 276.326"/>
      <polygon points="39 272 30.771 276.326 32.343 267.163 25.685 260.674 34.886 259.337 39 251 43.114 259.337 52.315 260.674 45.657 267.163 47.229 276.326"/>
      <polygon points="14 272 5.771 276.326 7.343 267.163 .685 260.674 9.886 259.337 14 251 18.114 259.337 27.315 260.674 20.657 267.163 22.229 276.326"/>
      <polygon points="39 300 30.771 304.326 32.343 295.163 25.685 288.674 34.886 287.337 39 279 43.114 287.337 52.315 288.674 45.657 295.163 47.229 304.326"/>
      <polygon points="14 300 5.771 304.326 7.343 295.163 .685 288.674 9.886 287.337 14 279 18.114 287.337 27.315 288.674 20.657 295.163 22.229 304.326"/>
    </g>
    <g opacity=".315" transform="translate(0 199)">
      <rect width="194" height="55" fill="#D99900" fill-rule="nonzero" rx="3"/>
      <rect width="54" height="23" x="115.5" y="54" fill="url(#awards-b)"/>
      <path fill="url(#awards-c)" d="M111.5 54L115.5 54 115.5 77 111.5 77C110.395431 77 109.5 76.1045695 109.5 75L109.5 56C109.5 54.8954305 110.395431 54 111.5 54zM169.5 54L173.5 54C174.604569 54 175.5 54.8954305 175.5 56L175.5 75C175.5 76.1045695 174.604569 77 173.5 77L169.5 77 169.5 54z"/>
      <rect width="23" height="23" x="148" y="29" fill="url(#awards-d)"/>
      <rect width="12" height="23" x="82" y="29" fill="url(#awards-b)"/>
      <rect width="12" height="23" x="124" y="29" fill="url(#awards-b)"/>
      <rect width="6" height="23" x="100" y="29" fill="url(#awards-b)"/>
      <rect width="6" height="23" x="112" y="29" fill="url(#awards-b)"/>
      <rect width="20" height="23" x="9" y="29" fill="url(#awards-b)"/>
      <rect width="20" height="23" x="47" y="29" fill="url(#awards-b)"/>
      <rect width="6" height="23" x="35" y="29" fill="url(#awards-b)"/>
      <path fill="url(#awards-c)" d="M5,29 L9,29 L9,52 L5,52 C3.8954305,52 3,51.1045695 3,50 L3,31 C3,29.8954305 3.8954305,29 5,29 Z"/>
      <rect width="6" height="23" x="94" y="29" fill="url(#awards-e)"/>
      <rect width="6" height="23" x="106" y="29" fill="url(#awards-e)"/>
      <rect width="6" height="23" x="118" y="29" fill="url(#awards-e)"/>
      <rect width="3" height="23" x="142" y="29" fill="url(#awards-e)"/>
      <rect width="6" height="23" x="29" y="29" fill="url(#awards-e)"/>
      <rect width="6" height="23" x="41" y="29" fill="url(#awards-e)"/>
      <rect width="6" height="23" x="67" y="29" fill="url(#awards-c)"/>
      <rect width="3" height="23" x="73" y="29" fill="url(#awards-e)"/>
      <rect width="6" height="23" x="76" y="29" fill="url(#awards-c)"/>
      <rect width="6" height="23" x="136" y="29" fill="url(#awards-c)"/>
      <rect width="3" height="23" x="145" y="29" fill="url(#awards-c)"/>
      <path fill="url(#awards-d)" d="M5,3 L26,3 L26,26 L5,26 C3.8954305,26 3,25.1045695 3,24 L3,5 C3,3.8954305 3.8954305,3 5,3 Z"/>
      <rect width="23" height="23" x="43" y="3" fill="url(#awards-d)"/>
      <rect width="11" height="23" x="29" y="3" fill="url(#awards-b)"/>
      <rect width="3" height="23" x="26" y="3" fill="url(#awards-c)"/>
      <rect width="3" height="23" x="40" y="3" fill="url(#awards-c)"/>
      <rect width="3" height="23" x="66" y="3" fill="url(#awards-f)"/>
      <rect width="30" height="23" x="102" y="3" fill="url(#awards-b)"/>
      <rect width="30" height="23" x="135" y="3" fill="url(#awards-b)"/>
      <rect width="30" height="23" x="69" y="3" fill="url(#awards-b)"/>
      <rect width="3" height="23" x="99" y="3" fill="url(#awards-c)"/>
      <rect width="3" height="23" x="132" y="3" fill="url(#awards-f)"/>
      <path stroke="#D99900" d="M3,4.75 L159,4.25 L3,4.75 Z M3,6.75 L159,6.25 L3,6.75 Z M3,8.75 L159,8.25 L3,8.75 Z M3,10.75 L159,10.25 L3,10.75 Z M3,12.75 L159,12.25 L3,12.75 Z M3,14.75 L159,14.25 L3,14.75 Z M3,16.75 L159,16.25 L3,16.75 Z M3,18.75 L159,18.25 L3,18.75 Z M3,20.75 L159,20.25 L3,20.75 Z M3,22.75 L159,22.25 L3,22.75 Z M3,24.75 L159,24.25 L3,24.75 Z M3,30.75 L159,30.25 L3,30.75 Z M3,32.75 L159,32.25 L3,32.75 Z M3,34.75 L159,34.25 L3,34.75 Z M3,36.75 L159,36.25 L3,36.75 Z M3,38.75 L159,38.25 L3,38.75 Z M3,40.75 L159,40.25 L3,40.75 Z M3,42.75 L159,42.25 L3,42.75 Z M3,44.75 L159,44.25 L3,44.75 Z M3,46.75 L159,46.25 L3,46.75 Z M3,48.75 L159,48.25 L3,48.75 Z M3,50.75 L159,50.25 L3,50.75 Z" opacity=".16" style="mix-blend-mode:multiply"/>
    </g>
    <g transform="rotate(-27 548.018 24.797)">
      <circle cx="59.5" cy="59.5" r="59.5" fill="#F2B405" stroke="#E7AC12" stroke-width="2"/>
      <path fill="#FFCC19" d="M59.7,113.72 C69.8743975,113.727028 79.9559937,111.785387 89.4,108 C71.3067036,119.626303 48.0932964,119.626303 30,108 C39.4440063,111.785387 49.5256025,113.727028 59.7,113.72 Z" opacity=".18"/>
      <path fill="#E5A600" d="M59.7,2.99972739 C69.8743975,2.9926992 79.9559937,4.93433995 89.4,8.71972739 C71.3067036,-2.9065758 48.0932964,-2.9065758 30,8.71972739 C39.4440063,4.93433995 49.5256025,2.9926992 59.7,2.99972739 Z" opacity=".5"/>
      <use fill="#000" filter="url(#awards-g)" xlink:href="#awards-h"/>
      <use fill="#E5A600" xlink:href="#awards-h"/>
      <path fill="#E5A600" d="M82,23 L82,31 C82,43.1502645 72.1502645,53 60,53 C47.8497355,53 38,43.1502645 38,31 L38,23 L28,23 L28,70 L38,70 L38,54.23 C50.3401698,65.9127999 69.6598302,65.9127999 82,54.23 L82,70 L92,70 L92,23 L82,23 Z"/>
      <path fill="#FAB905" d="M82,22 L82,30 C82,42.1502645 72.1502645,52 60,52 C47.8497355,52 38,42.1502645 38,30 L38,22 L28,22 L28,69 L38,69 L38,53.23 C50.3401698,64.9127999 69.6598302,64.9127999 82,53.23 L82,69 L92,69 L92,22 L82,22 Z"/>
    </g>
    <use stroke="#FFF" stroke-dasharray="2" stroke-opacity=".4" stroke-width="2" mask="url(#awards-i)" xlink:href="#awards-a"/>
    <circle cx="67.5" cy="128.5" r="59.5" fill="#FAB905"/>
    <g transform="translate(67)">
      <circle cx="59.5" cy="59.5" r="59.5" fill="#F2B405" stroke="#E7AC12" stroke-width="2"/>
      <path fill="#FFCC19" d="M59.7,113.72 C69.8743975,113.727028 79.9559937,111.785387 89.4,108 C71.3067036,119.626303 48.0932964,119.626303 30,108 C39.4440063,111.785387 49.5256025,113.727028 59.7,113.72 Z" opacity=".18"/>
      <path fill="#E5A600" d="M59.7,2.99972739 C69.8743975,2.9926992 79.9559937,4.93433995 89.4,8.71972739 C71.3067036,-2.9065758 48.0932964,-2.9065758 30,8.71972739 C39.4440063,4.93433995 49.5256025,2.9926992 59.7,2.99972739 Z" opacity=".5"/>
      <use fill="#000" filter="url(#awards-j)" xlink:href="#awards-k"/>
      <use fill="#E5A600" xlink:href="#awards-k"/>
      <path fill="#E5A600" d="M81.86,18 L38.14,18 L26,35.18 L50.29,72 L69.71,72 L94,35.18 L81.86,18 Z M75,45.36 C75.0106208,49.4991101 73.3758608,53.4727665 70.4556301,56.406126 C67.5353994,59.3394856 63.5691161,60.9920538 59.43,61 L48,61 L48,24 L59.43,24 C63.5691161,24.0079462 67.5353994,25.6605144 70.4556301,28.593874 C73.3758608,31.5272335 75.0106208,35.5008899 75,39.64 L75,45.36 Z"/>
      <path fill="#FAB905" d="M81.86,17 L38.14,17 L26,34.18 L50.29,71 L69.71,71 L94,34.18 L81.86,17 Z M75,44.36 C75.0106208,48.4991101 73.3758608,52.4727665 70.4556301,55.406126 C67.5353994,58.3394856 63.5691161,59.9920538 59.43,60 L48,60 L48,23 L59.43,23 C63.5691161,23.0079462 67.5353994,24.6605144 70.4556301,27.593874 C73.3758608,30.5272335 75.0106208,34.5008899 75,38.64 L75,44.36 Z"/>
    </g>
    <circle cx="170.5" cy="165.5" r="96.5" fill="#FFF" fill-opacity=".08"/>
    <circle cx="68" cy="129" r="23" fill="#FFF" fill-opacity=".12"/>
    <g transform="rotate(15 -130.647 504.374)">
      <path fill="#F2B405" stroke="#E7AC12" stroke-width="2.4" d="M0,60.3007962 L0,137.095204 C0.000482295496,144.915807 4.15842294,152.143293 10.9102375,156.059782 L77.2707625,194.456986 C84.0191616,198.375671 92.3428384,198.375671 99.0912375,194.456986 L165.451763,156.059782 C172.203577,152.143293 176.361518,144.915807 176.362,137.095204 L176.362,60.3007962 C176.361518,52.480193 172.203577,45.2527068 165.451763,41.3362179 L99.0912375,2.93901418 C92.3428384,-0.979671393 84.0191616,-0.979671393 77.2707625,2.93901418 L10.9102375,41.3362179 C4.15842294,45.2527068 0.000482295496,52.480193 1.96569001e-13,60.3007962 Z"/>
      <path fill="#E5A600" d="M83.0045332,103.238148 C83.0045332,91.1055999 76.2827544,89.3895393 70.2486257,89.3895393 C65.3973043,89.5072585 60.5603188,89.9660103 55.7735932,90.7623877 C51.0437629,91.5521753 46.2644043,92.0109098 41.4704732,92.1352362 C25.6201407,92.1352362 18.8983619,81.7187483 18.8983619,67.183715 L18.8983619,63.7515938 L29.2131119,63.7515938 L29.2131119,66.5830938 C29.3850244,76.4504423 34.7315032,79.9683665 44.0319694,79.9683665 C48.137051,79.8182362 52.2298246,79.4285973 56.2893307,78.8014453 C60.6118338,77.9980272 64.9931389,77.5503466 69.3890632,77.462918 C80.4258457,77.291312 85.9270457,82.1477635 88.0071869,89.4753423 L88.3510119,89.4753423 C90.2420494,82.1306029 96.1042657,77.2741514 107.141048,77.462918 C111.593867,77.5508502 116.032247,77.9984881 120.412693,78.8014453 C124.52321,79.4357876 128.667893,79.8254498 132.824776,79.9683665 C142.486258,79.9683665 147.660824,75.9527847 147.832737,66.5830938 L147.832737,63.7687544 L156.428362,63.7687544 L156.428362,67.3553211 C156.428362,81.3583756 150.222321,92.1352362 132.807584,92.1352362 C128.060314,92.0444798 123.330849,91.5275782 118.676377,90.5907817 C114.047296,89.9489869 109.387901,89.5480308 104.717082,89.3895393 C99.2158819,89.3895393 91.8064532,91.1055999 91.8064532,103.238148 L83.0045332,103.238148 Z M87.6633619,46.6081483 C81.0172363,46.6081483 75.6294869,51.9862939 75.6294869,58.6205726 C75.6294869,65.2548513 81.0172363,70.6329968 87.6633619,70.6329968 C94.3094876,70.6329968 99.6972369,65.2548513 99.6972369,58.6205726 C99.6972369,51.9862939 94.3094876,46.6081483 87.6633619,46.6081483 Z"/>
      <path fill="#F7B705" d="M83.5221712,101.934 C83.5221712,89.8014515 76.8003925,88.0853909 70.7662637,88.0853909 C65.9149424,88.2031101 61.0779569,88.661862 56.2912312,89.4582394 C51.561401,90.2480269 46.7820424,90.7067614 41.9881112,90.8310879 C26.1377787,90.8310879 19.416,80.4146 19.416,65.8795667 L19.416,62.4474455 L29.73075,62.4474455 L29.73075,65.2789455 C29.9026625,75.1462939 35.2491412,78.6642182 44.5496075,78.6642182 C48.6546891,78.5140879 52.7474627,78.124449 56.8069687,77.497297 C61.1294719,76.6938789 65.510777,76.2461983 69.9067012,76.1587697 C80.9434837,75.9871636 86.4446837,80.8436152 88.524825,88.1711939 L88.86865,88.1711939 C90.7596875,80.8264545 96.6219038,75.970003 107.658686,76.1587697 C112.111505,76.2467019 116.549885,76.6943398 120.930331,77.497297 C125.040848,78.1316393 129.185531,78.5213014 133.342414,78.6642182 C143.003896,78.6642182 148.178462,74.6486364 148.350375,65.2789455 L148.350375,62.4646061 L156.946,62.4646061 L156.946,66.0511727 C156.946,80.0542273 150.739959,90.8310879 133.325223,90.8310879 C128.577953,90.7403314 123.848487,90.2234298 119.194015,89.2866333 C114.564935,88.6448385 109.905539,88.2438825 105.23472,88.0853909 C99.73352,88.0853909 92.3240913,89.8014515 92.3240913,101.934 L83.5221712,101.934 Z M88.181,45.304 C81.5348744,45.304 76.147125,50.6821455 76.147125,57.3164242 C76.147125,63.950703 81.5348744,69.3288485 88.181,69.3288485 C94.8271256,69.3288485 100.214875,63.950703 100.214875,57.3164242 C100.214875,50.6821455 94.8271256,45.304 88.181,45.304 Z"/>
      <use fill="#000" filter="url(#awards-l)" xlink:href="#awards-m"/>
      <use fill="#E5A600" xlink:href="#awards-m"/>
    </g>
  </g>
</svg>
