<svg width="270" height="339" viewBox="0 0 270 339" fill="none" xmlns="http://www.w3.org/2000/svg">
<g clip-path="url(#clip0_607_6688)">
<g clip-path="url(#clip1_607_6688)">
<path d="M234 31L225.771 35.3262L227.343 26.1631L220.685 19.6738L229.886 18.3369L234 10L238.114 18.3369L247.315 19.6738L240.657 26.1631L242.229 35.3262L234 31Z" fill="#FF9D14"/>
<path d="M209 31L200.771 35.3262L202.343 26.1631L195.685 19.6738L204.886 18.3369L209 10L213.114 18.3369L222.315 19.6738L215.657 26.1631L217.229 35.3262L209 31Z" fill="#FF9D14"/>
<path d="M184 31L175.771 35.3262L177.343 26.1631L170.685 19.6738L179.886 18.3369L184 10L188.114 18.3369L197.315 19.6738L190.657 26.1631L192.229 35.3262L184 31Z" fill="#FF9D14"/>
<path d="M234 58L225.771 62.3262L227.343 53.1631L220.685 46.6738L229.886 45.3369L234 37L238.114 45.3369L247.315 46.6738L240.657 53.1631L242.229 62.3262L234 58Z" fill="#FF9D14"/>
<path d="M209 58L200.771 62.3262L202.343 53.1631L195.685 46.6738L204.886 45.3369L209 37L213.114 45.3369L222.315 46.6738L215.657 53.1631L217.229 62.3262L209 58Z" fill="#FF9D14"/>
<path d="M184 58L175.771 62.3262L177.343 53.1631L170.685 46.6738L179.886 45.3369L184 37L188.114 45.3369L197.315 46.6738L190.657 53.1631L192.229 62.3262L184 58Z" fill="#FF9D14"/>
<path d="M234 86L225.771 90.3262L227.343 81.1631L220.685 74.6738L229.886 73.3369L234 65L238.114 73.3369L247.315 74.6738L240.657 81.1631L242.229 90.3262L234 86Z" fill="#FF9D14"/>
<path d="M209 86L200.771 90.3262L202.343 81.1631L195.685 74.6738L204.886 73.3369L209 65L213.114 73.3369L222.315 74.6738L215.657 81.1631L217.229 90.3262L209 86Z" fill="#FF9D14"/>
<path d="M184 86L175.771 90.3262L177.343 81.1631L170.685 74.6738L179.886 73.3369L184 65L188.114 73.3369L197.315 74.6738L190.657 81.1631L192.229 90.3262L184 86Z" fill="#FF9D14"/>
<path d="M234 254L225.771 258.326L227.343 249.163L220.685 242.674L229.886 241.337L234 233L238.114 241.337L247.315 242.674L240.657 249.163L242.229 258.326L234 254Z" fill="#FF9D14"/>
<path d="M209 254L200.771 258.326L202.343 249.163L195.685 242.674L204.886 241.337L209 233L213.114 241.337L222.315 242.674L215.657 249.163L217.229 258.326L209 254Z" fill="#FF9D14"/>
<path d="M184 254L175.771 258.326L177.343 249.163L170.685 242.674L179.886 241.337L184 233L188.114 241.337L197.315 242.674L190.657 249.163L192.229 258.326L184 254Z" fill="#FF9D14"/>
<path d="M234 282L225.771 286.326L227.343 277.163L220.685 270.674L229.886 269.337L234 261L238.114 269.337L247.315 270.674L240.657 277.163L242.229 286.326L234 282Z" fill="#FF9D14"/>
<path d="M209 282L200.771 286.326L202.343 277.163L195.685 270.674L204.886 269.337L209 261L213.114 269.337L222.315 270.674L215.657 277.163L217.229 286.326L209 282Z" fill="#FF9D14"/>
<path d="M184 282L175.771 286.326L177.343 277.163L170.685 270.674L179.886 269.337L184 261L188.114 269.337L197.315 270.674L190.657 277.163L192.229 286.326L184 282Z" fill="#FF9D14"/>
<path d="M209 310L200.771 314.326L202.343 305.163L195.685 298.674L204.886 297.337L209 289L213.114 297.337L222.315 298.674L215.657 305.163L217.229 314.326L209 310Z" fill="#FF9D14"/>
<path d="M184 310L175.771 314.326L177.343 305.163L170.685 298.674L179.886 297.337L184 289L188.114 297.337L197.315 298.674L190.657 305.163L192.229 314.326L184 310Z" fill="#FF9D14"/>
</g>
<g clip-path="url(#clip2_607_6688)">
<rect y="200" width="194" height="55" rx="3" fill="#DB8000"/>
<rect x="115.5" y="254" width="54" height="23" fill="url(#paint0_linear_607_6688)"/>
<path fill-rule="evenodd" clip-rule="evenodd" d="M111.5 254H115.5V277H111.5C110.395 277 109.5 276.105 109.5 275V256C109.5 254.895 110.395 254 111.5 254Z" fill="url(#paint1_linear_607_6688)"/>
<path fill-rule="evenodd" clip-rule="evenodd" d="M169.5 254H173.5C174.605 254 175.5 254.895 175.5 256V275C175.5 276.105 174.605 277 173.5 277H169.5V254Z" fill="url(#paint2_linear_607_6688)"/>
<rect x="148" y="229" width="23" height="23" fill="url(#paint3_linear_607_6688)"/>
<rect x="82" y="229" width="12" height="23" fill="url(#paint4_linear_607_6688)"/>
<rect x="124" y="229" width="12" height="23" fill="url(#paint5_linear_607_6688)"/>
<rect x="100" y="229" width="6" height="23" fill="url(#paint6_linear_607_6688)"/>
<rect x="112" y="229" width="6" height="23" fill="url(#paint7_linear_607_6688)"/>
<rect x="9" y="229" width="20" height="23" fill="url(#paint8_linear_607_6688)"/>
<rect x="47" y="229" width="20" height="23" fill="url(#paint9_linear_607_6688)"/>
<rect x="35" y="229" width="6" height="23" fill="url(#paint10_linear_607_6688)"/>
<path fill-rule="evenodd" clip-rule="evenodd" d="M5 229H9V252H5C3.89543 252 3 251.105 3 250V231C3 229.895 3.89543 229 5 229Z" fill="url(#paint11_linear_607_6688)"/>
<rect x="94" y="229" width="6" height="23" fill="url(#paint12_linear_607_6688)"/>
<rect x="106" y="229" width="6" height="23" fill="url(#paint13_linear_607_6688)"/>
<rect x="118" y="229" width="6" height="23" fill="url(#paint14_linear_607_6688)"/>
<rect x="142" y="229" width="3" height="23" fill="url(#paint15_linear_607_6688)"/>
<rect x="29" y="229" width="6" height="23" fill="url(#paint16_linear_607_6688)"/>
<rect x="41" y="229" width="6" height="23" fill="url(#paint17_linear_607_6688)"/>
<rect x="67" y="229" width="6" height="23" fill="url(#paint18_linear_607_6688)"/>
<rect x="73" y="229" width="3" height="23" fill="url(#paint19_linear_607_6688)"/>
<rect x="76" y="229" width="6" height="23" fill="url(#paint20_linear_607_6688)"/>
<rect x="136" y="229" width="6" height="23" fill="url(#paint21_linear_607_6688)"/>
<rect x="145" y="229" width="3" height="23" fill="url(#paint22_linear_607_6688)"/>
<path fill-rule="evenodd" clip-rule="evenodd" d="M5 203H26V226H5C3.89543 226 3 225.105 3 224V205C3 203.895 3.89543 203 5 203Z" fill="url(#paint23_linear_607_6688)"/>
<rect x="43" y="203" width="23" height="23" fill="url(#paint24_linear_607_6688)"/>
<rect x="29" y="203" width="11" height="23" fill="url(#paint25_linear_607_6688)"/>
<rect x="26" y="203" width="3" height="23" fill="url(#paint26_linear_607_6688)"/>
<rect x="40" y="203" width="3" height="23" fill="url(#paint27_linear_607_6688)"/>
<rect x="66" y="203" width="3" height="23" fill="url(#paint28_linear_607_6688)"/>
<rect x="102" y="203" width="30" height="23" fill="url(#paint29_linear_607_6688)"/>
<rect x="135" y="203" width="30" height="23" fill="url(#paint30_linear_607_6688)"/>
<rect x="69" y="203" width="30" height="23" fill="url(#paint31_linear_607_6688)"/>
<rect x="99" y="203" width="3" height="23" fill="url(#paint32_linear_607_6688)"/>
<rect x="132" y="203" width="3" height="23" fill="url(#paint33_linear_607_6688)"/>
<g style="mix-blend-mode:multiply" opacity="0.16">
<path d="M3 204.5H130M3 206.5H130M3 208.5H130M3 210.5H130M3 212.5H130M3 214.5H130M3 216.5H130M3 218.5H130M3 220.5H130M3 222.5H130M3 224.5H130" stroke="#F58F00"/>
</g>
<g style="mix-blend-mode:multiply" opacity="0.16">
<path d="M3 230.5H130M3 232.5H130M3 234.5H130M3 236.5H130M3 238.5H130M3 240.5H130M3 242.5H130M3 244.5H130M3 246.5H130M3 248.5H130M3 250.5H130" stroke="#F58F00"/>
</g>
</g>
<circle cx="128.5" cy="278.5" r="59.5" transform="rotate(-27 128.5 278.5)" fill="#FFAF3E" stroke="#F58F00" stroke-width="2"/>
<path opacity="0.18" fill-rule="evenodd" clip-rule="evenodd" d="M153.294 326.72C162.362 322.107 170.464 315.8 177.16 308.14C166.317 326.713 145.633 337.251 124.234 335.107C134.367 334.192 144.231 331.345 153.294 326.72V326.72Z" fill="#FFCC86"/>
<path opacity="0.5" fill-rule="evenodd" clip-rule="evenodd" d="M103.027 228.067C112.09 223.442 121.954 220.595 132.087 219.68C110.688 217.535 90.0043 228.074 79.1613 246.647C85.8575 238.987 93.9587 232.68 103.027 228.067V228.067Z" fill="#E08300" fill-opacity="0.5"/>
<g filter="url(#filter0_d_607_6688)">
<path fill-rule="evenodd" clip-rule="evenodd" d="M121.798 309.277C122.027 309.453 122.297 309.566 122.583 309.607C122.879 309.651 123.182 309.639 123.473 309.569C123.802 309.495 124.12 309.378 124.418 309.221C124.632 309.11 124.838 308.983 125.033 308.841C125.239 308.697 125.423 308.524 125.579 308.327C125.722 308.135 125.824 307.915 125.878 307.681C125.921 307.429 125.877 307.171 125.752 306.948C125.631 306.694 125.414 306.497 125.148 306.403C124.851 306.322 124.542 306.297 124.235 306.329C123.857 306.369 123.483 306.436 123.114 306.53C123.042 306.547 122.969 306.564 122.895 306.581C122.561 306.659 122.217 306.739 121.873 306.803C121.447 306.898 121.016 306.972 120.582 307.023C120.168 307.065 119.75 307.051 119.339 306.984C118.942 306.907 118.565 306.747 118.235 306.514C117.86 306.239 117.559 305.876 117.359 305.456C117.106 304.985 116.983 304.455 117.003 303.92C117.035 303.425 117.171 302.942 117.404 302.504C117.643 302.052 117.961 301.646 118.343 301.307C118.724 300.957 119.151 300.661 119.611 300.425C120.127 300.162 120.672 299.96 121.234 299.823C121.76 299.696 122.303 299.666 122.839 299.734C123.348 299.812 123.832 300.007 124.252 300.305C124.725 300.647 125.103 301.103 125.354 301.629L123.188 302.733C123.042 302.479 122.846 302.259 122.611 302.084C122.413 301.939 122.178 301.853 121.934 301.834C121.686 301.81 121.435 301.835 121.197 301.907C120.918 301.983 120.649 302.09 120.394 302.226C120.212 302.32 120.039 302.43 119.878 302.556C119.723 302.682 119.591 302.833 119.487 303.002C119.393 303.17 119.331 303.354 119.304 303.545C119.29 303.759 119.337 303.972 119.438 304.161C119.516 304.337 119.643 304.486 119.804 304.592C119.997 304.681 120.21 304.72 120.422 304.704C120.791 304.68 121.157 304.625 121.516 304.539L123.262 304.154C123.397 304.085 123.602 304.051 123.853 304.009L123.853 304.009C123.949 303.993 124.051 303.976 124.159 303.955C124.573 303.881 124.995 303.871 125.411 303.923C125.886 303.971 126.344 304.12 126.756 304.36C127.232 304.649 127.61 305.075 127.839 305.582C128.07 306.024 128.203 306.511 128.23 307.01C128.256 307.506 128.162 308.001 127.955 308.452C127.72 308.964 127.386 309.424 126.972 309.806C126.467 310.287 125.891 310.686 125.264 310.991C124.714 311.272 124.129 311.48 123.524 311.608C122.959 311.742 122.373 311.766 121.798 311.679C120.601 311.487 119.582 310.699 119.095 309.588L121.26 308.485C121.372 308.789 121.557 309.061 121.798 309.277ZM135.392 305.516L134.87 304.491L134.825 304.514C134.786 305.024 134.596 305.51 134.281 305.913C133.982 306.298 133.603 306.614 133.17 306.838C132.725 307.082 132.238 307.239 131.734 307.301C131.348 307.341 130.958 307.276 130.605 307.113C130.254 306.934 129.946 306.681 129.701 306.373C129.407 306.006 129.152 305.609 128.941 305.189L126.63 300.654L128.661 299.619L130.781 303.78C130.995 304.265 131.333 304.685 131.761 304.998C132.159 305.194 132.631 305.167 133.004 304.926C133.481 304.738 133.834 304.327 133.948 303.827C133.994 303.19 133.836 302.555 133.496 302.015L131.53 298.157L133.553 297.126L137.326 304.53L135.392 305.516ZM137.028 295.4L137.505 296.336C137.53 295.84 137.7 295.363 137.995 294.964C138.291 294.581 138.669 294.269 139.102 294.052C139.614 293.776 140.185 293.627 140.767 293.619C141.286 293.626 141.797 293.749 142.263 293.979C142.738 294.21 143.164 294.53 143.518 294.922C143.901 295.345 144.225 295.818 144.481 296.328C144.731 296.808 144.909 297.322 145.012 297.853C145.11 298.355 145.113 298.87 145.023 299.374C144.948 299.88 144.756 300.363 144.462 300.782C144.131 301.222 143.7 301.577 143.204 301.816C142.771 302.039 142.294 302.163 141.807 302.18C141.328 302.191 140.855 302.076 140.436 301.846L142.215 305.339L140.193 306.369L135.104 296.381L137.028 295.4ZM142.679 299.883C142.83 299.64 142.924 299.366 142.955 299.081C142.978 298.779 142.948 298.475 142.868 298.183C142.773 297.861 142.648 297.549 142.494 297.251C142.344 296.95 142.162 296.666 141.951 296.405C141.756 296.165 141.52 295.963 141.253 295.807C141.004 295.655 140.723 295.564 140.433 295.54C140.11 295.521 139.79 295.595 139.508 295.753C139.208 295.888 138.953 296.107 138.775 296.384C138.622 296.63 138.53 296.908 138.504 297.196C138.481 297.5 138.516 297.807 138.605 298.099C138.692 298.423 138.815 298.737 138.97 299.035C139.123 299.334 139.305 299.617 139.513 299.881C139.705 300.117 139.937 300.318 140.197 300.475C140.731 300.795 141.395 300.803 141.937 300.497C142.217 300.364 142.457 300.16 142.635 299.906L142.679 299.883ZM150.361 296.194C149.903 296.473 149.35 296.556 148.829 296.424C148.272 296.223 147.816 295.81 147.559 295.276L152.905 292.552C152.668 291.979 152.338 291.449 151.927 290.985C151.551 290.542 151.091 290.178 150.573 289.913C150.061 289.656 149.497 289.521 148.924 289.518C148.287 289.527 147.661 289.689 147.099 289.989C146.571 290.253 146.102 290.621 145.721 291.072C145.367 291.49 145.103 291.976 144.944 292.5C144.79 293.026 144.742 293.576 144.805 294.12C144.954 295.31 145.514 296.41 146.389 297.23C146.786 297.601 147.254 297.89 147.764 298.078C148.274 298.255 148.816 298.319 149.353 298.267C149.95 298.2 150.529 298.023 151.062 297.745C151.825 297.381 152.467 296.805 152.91 296.085C153.319 295.296 153.44 294.389 153.253 293.52L151.471 294.428C151.51 294.752 151.435 295.08 151.259 295.355C151.055 295.722 150.741 296.015 150.361 296.194ZM147.826 291.548C148.217 291.308 148.691 291.246 149.131 291.377L149.158 291.386C149.597 291.58 149.972 291.895 150.238 292.295L146.95 293.97C146.877 293.798 146.823 293.618 146.79 293.435C146.752 293.221 146.755 293.003 146.798 292.79C146.849 292.546 146.954 292.316 147.106 292.117C147.299 291.874 147.545 291.68 147.826 291.548ZM154.616 288.156L153.922 286.793L151.97 287.787L155.725 295.156L157.747 294.125L156.045 290.784C155.894 290.483 155.775 290.168 155.689 289.843C155.613 289.542 155.598 289.229 155.646 288.922C155.695 288.623 155.818 288.341 156.002 288.101C156.237 287.823 156.528 287.598 156.856 287.441C156.979 287.368 157.107 287.302 157.239 287.246C157.361 287.197 157.486 287.156 157.614 287.122L156.651 285.234C156.485 285.265 156.323 285.317 156.169 285.389C155.92 285.519 155.69 285.685 155.489 285.882C155.293 286.08 155.123 286.302 154.984 286.543C154.843 286.788 154.739 287.053 154.677 287.328C154.619 287.6 154.599 287.879 154.616 288.156ZM128.339 312.005L134.282 317.787L132.973 309.644L136.127 308.037L141.311 318.212L139.235 319.27L135.558 312.053L136.74 320.541L135.021 321.417L128.894 315.56L132.526 322.689L130.432 323.755L125.248 313.58L128.339 312.005ZM140.403 312.244C140.001 311.433 140.068 310.469 140.576 309.72C140.808 309.349 141.106 309.023 141.454 308.757C141.814 308.47 142.202 308.22 142.611 308.01C142.987 307.819 143.376 307.655 143.775 307.518C144.161 307.382 144.567 307.308 144.976 307.299C145.354 307.285 145.729 307.369 146.065 307.541C146.444 307.745 146.744 308.07 146.917 308.465L148.869 312.296C149.031 312.615 149.211 312.924 149.408 313.222C149.552 313.452 149.741 313.65 149.963 313.804L147.905 314.853C147.809 314.759 147.72 314.658 147.639 314.551C147.551 314.444 147.471 314.331 147.399 314.212C147.249 314.698 146.979 315.137 146.613 315.489C146.248 315.844 145.833 316.142 145.381 316.375C145.047 316.547 144.691 316.672 144.323 316.745C143.997 316.818 143.659 316.822 143.331 316.757C143.007 316.692 142.704 316.55 142.446 316.343C142.149 316.103 141.91 315.799 141.747 315.454C141.55 315.104 141.445 314.709 141.443 314.307C141.447 313.981 141.53 313.661 141.686 313.375C141.841 313.081 142.05 312.818 142.302 312.601C142.555 312.371 142.826 312.154 143.093 311.951L143.925 311.381C144.177 311.223 144.418 311.048 144.645 310.857C144.822 310.715 144.965 310.535 145.062 310.33C145.141 310.141 145.119 309.924 145.004 309.754C144.921 309.571 144.794 309.412 144.634 309.292C144.502 309.205 144.351 309.151 144.194 309.134C144.027 309.127 143.861 309.151 143.703 309.205C143.528 309.281 143.359 309.367 143.195 309.464C142.875 309.618 142.61 309.867 142.435 310.176C142.285 310.53 142.305 310.933 142.488 311.271L140.403 312.244ZM145.884 311.393C145.832 311.522 145.753 311.638 145.654 311.735C145.541 311.85 145.419 311.958 145.29 312.055L144.863 312.362L144.418 312.679C144.28 312.787 144.148 312.903 144.022 313.026C143.909 313.141 143.813 313.273 143.739 313.417C143.672 313.553 143.637 313.701 143.635 313.852C143.63 314.037 143.676 314.219 143.769 314.379C143.844 314.54 143.961 314.678 144.107 314.779C144.229 314.87 144.373 314.924 144.524 314.936C144.686 314.945 144.847 314.927 145.002 314.884C145.167 314.817 145.325 314.737 145.475 314.643C145.79 314.499 146.063 314.275 146.266 313.993C146.404 313.774 146.485 313.525 146.502 313.267C146.517 313.042 146.487 312.817 146.412 312.605L146.18 312.151L145.884 311.393ZM149.443 304.787L150.137 306.151C150.12 305.873 150.14 305.595 150.198 305.323C150.261 305.047 150.364 304.782 150.505 304.538C150.644 304.297 150.814 304.074 151.01 303.877C151.212 303.68 151.441 303.514 151.691 303.384C151.844 303.311 152.006 303.259 152.172 303.228L153.135 305.117C153.008 305.151 152.883 305.192 152.76 305.241C152.628 305.297 152.5 305.362 152.377 305.436C152.05 305.594 151.759 305.818 151.523 306.095C151.342 306.337 151.22 306.619 151.167 306.916C151.12 307.223 151.134 307.536 151.21 307.837C151.296 308.162 151.415 308.478 151.566 308.778L153.269 312.12L151.264 313.141L147.509 305.772L149.443 304.787ZM157.814 300.489L156.618 304.465L153.84 299.012L151.817 300.042L157.002 310.217L159.025 309.187L157.699 306.585L158.097 305.428L161.808 307.69L164.259 306.441L158.784 303.361L160.21 299.267L157.814 300.489Z" fill="#E08300" fill-opacity="0.5" shape-rendering="crispEdges"/>
</g>
<path fill-rule="evenodd" clip-rule="evenodd" d="M131.977 235.763L135.609 242.892C141.125 253.717 136.821 266.965 125.995 272.481C115.169 277.998 101.921 273.693 96.4048 262.867L92.7729 255.739L83.8628 260.279L105.2 302.156L114.11 297.616L106.951 283.565C123.25 288.372 140.464 279.601 146.155 263.59L153.315 277.641L162.225 273.101L140.887 231.224L131.977 235.763Z" fill="#E08300" fill-opacity="0.5"/>
<path fill-rule="evenodd" clip-rule="evenodd" d="M131.523 234.872L135.155 242.001C140.671 252.827 136.367 266.074 125.541 271.59C114.715 277.107 101.467 272.802 95.9507 261.976L92.3188 254.848L83.4087 259.388L104.746 301.265L113.656 296.725L106.497 282.674C122.796 287.481 140.01 278.71 145.701 262.699L152.861 276.75L161.771 272.21L140.433 230.333L131.523 234.872Z" fill="#FFB854"/>
<path d="M27.7468 255.772C38.2838 265.24 52.2192 271 67.5 271C100.361 271 127 244.361 127 211.5C127 178.639 100.361 152 67.5 152C38.5182 152 14.376 172.721 9.08008 200.156" stroke="white" stroke-opacity="0.4" stroke-dasharray="2"/>
<circle cx="67.5" cy="129.5" r="59.5" fill="#FFB854"/>
<circle cx="126.5" cy="60.5" r="59.5" fill="#FFAF3E" stroke="#F58F00" stroke-width="2"/>
<path opacity="0.18" fill-rule="evenodd" clip-rule="evenodd" d="M126.7 114.72C136.874 114.727 146.956 112.785 156.4 109C138.307 120.626 115.093 120.626 97 109C106.444 112.785 116.526 114.727 126.7 114.72V114.72Z" fill="#FFCC86"/>
<path opacity="0.5" fill-rule="evenodd" clip-rule="evenodd" d="M126.7 3.99973C136.874 3.9927 146.956 5.93434 156.4 9.71973C138.307 -1.90658 115.093 -1.90658 97 9.71973C106.444 5.93434 116.526 3.9927 126.7 3.99973V3.99973Z" fill="#E08300" fill-opacity="0.5"/>
<g filter="url(#filter1_d_607_6688)">
<path fill-rule="evenodd" clip-rule="evenodd" d="M106.95 86.88C107.074 87.1406 107.264 87.3645 107.5 87.53C107.744 87.7045 108.019 87.8301 108.31 87.9C108.637 87.9838 108.973 88.0242 109.31 88.02C109.551 88.0183 109.792 87.9982 110.03 87.96C110.279 87.9253 110.521 87.8546 110.75 87.75C110.965 87.6435 111.156 87.4937 111.31 87.31C111.463 87.1057 111.54 86.8549 111.53 86.6C111.538 86.3182 111.434 86.0447 111.24 85.84C111.012 85.6328 110.748 85.47 110.46 85.36C110.105 85.2239 109.741 85.1136 109.37 85.03C109.298 85.012 109.225 84.9939 109.152 84.9757L109.151 84.9757L109.151 84.9757C108.819 84.8932 108.476 84.8083 108.14 84.71C107.717 84.6011 107.3 84.4709 106.89 84.32C106.502 84.1685 106.136 83.9667 105.8 83.72C105.481 83.4714 105.218 83.1578 105.03 82.8C104.82 82.3853 104.717 81.9247 104.73 81.46C104.718 80.9252 104.849 80.397 105.11 79.93C105.363 79.503 105.704 79.1348 106.11 78.85C106.528 78.5556 106.995 78.3388 107.49 78.21C107.988 78.0716 108.503 78.001 109.02 78C109.599 77.9994 110.176 78.0665 110.74 78.2C111.265 78.3256 111.764 78.5459 112.21 78.85C112.628 79.1501 112.971 79.5439 113.21 80C113.475 80.5193 113.606 81.097 113.59 81.68H111.16C111.145 81.388 111.07 81.1021 110.94 80.84C110.829 80.6212 110.659 80.4377 110.45 80.31C110.24 80.1761 110.005 80.0843 109.76 80.04C109.477 79.9813 109.189 79.9545 108.9 79.96C108.695 79.9606 108.491 79.9807 108.29 80.02C108.096 80.0617 107.91 80.1361 107.74 80.24C107.58 80.3469 107.441 80.4825 107.33 80.64C107.221 80.8245 107.165 81.0357 107.17 81.25C107.16 81.442 107.205 81.633 107.3 81.8C107.432 81.9672 107.604 82.098 107.8 82.18C108.139 82.327 108.49 82.4441 108.85 82.53L110.58 82.98C110.732 82.98 110.93 83.0426 111.172 83.1189L111.172 83.1189C111.265 83.1482 111.365 83.1795 111.47 83.21C111.872 83.3319 112.253 83.514 112.6 83.75C113.001 84.0079 113.342 84.3489 113.6 84.75C113.893 85.223 114.036 85.774 114.01 86.33C114.015 86.8293 113.913 87.3238 113.71 87.78C113.508 88.2338 113.199 88.6318 112.81 88.94C112.368 89.2891 111.862 89.5474 111.32 89.7C110.652 89.8992 109.957 89.9936 109.26 89.98C108.642 89.9811 108.027 89.9004 107.43 89.74C106.865 89.6032 106.332 89.3587 105.86 89.02C104.88 88.305 104.33 87.1412 104.4 85.93H106.83C106.792 86.2517 106.834 86.5777 106.95 86.88ZM120.77 89.7V88.55H120.72C120.453 88.9862 120.064 89.3341 119.6 89.55C119.159 89.7574 118.678 89.8666 118.19 89.87C117.683 89.8853 117.177 89.8038 116.7 89.63C116.338 89.4901 116.02 89.2552 115.78 88.95C115.548 88.6311 115.388 88.2662 115.31 87.88C115.215 87.4195 115.168 86.9503 115.17 86.48V81.39H117.45V86.06C117.42 86.5893 117.53 87.1172 117.77 87.59C118.035 87.9459 118.468 88.1358 118.91 88.09C119.42 88.1395 119.922 87.9336 120.25 87.54C120.58 86.9935 120.727 86.3559 120.67 85.72V81.39H122.94V89.7H120.77ZM126.82 81.43V82.48C127.067 82.0496 127.436 81.7017 127.88 81.48C128.318 81.2731 128.796 81.1671 129.28 81.17C129.862 81.1566 130.438 81.2835 130.96 81.54C131.42 81.7821 131.819 82.1238 132.13 82.54C132.448 82.9616 132.682 83.4402 132.82 83.95C132.969 84.5008 133.043 85.0693 133.04 85.64C133.044 86.1811 132.97 86.72 132.82 87.24C132.679 87.7314 132.449 88.1925 132.14 88.6C131.843 89.0173 131.452 89.3597 131 89.6C130.506 89.8418 129.96 89.9619 129.41 89.95C128.923 89.9517 128.441 89.8458 128 89.64C127.569 89.4328 127.2 89.1155 126.93 88.72V92.64H124.66V81.43H126.82ZM129.82 87.99C130.065 87.8416 130.273 87.6399 130.43 87.4C130.588 87.1411 130.699 86.8569 130.76 86.56C130.822 86.2303 130.852 85.8955 130.85 85.56C130.853 85.224 130.82 84.8887 130.75 84.56C130.685 84.258 130.567 83.9701 130.4 83.71C130.247 83.4619 130.038 83.253 129.79 83.1C129.512 82.9366 129.192 82.8567 128.87 82.87C128.541 82.854 128.214 82.9339 127.93 83.1C127.682 83.2493 127.473 83.4548 127.32 83.7C127.162 83.961 127.053 84.2493 127 84.55C126.93 84.8787 126.897 85.214 126.9 85.55C126.901 85.8858 126.935 86.2207 127 86.55C127.064 86.8475 127.179 87.1317 127.34 87.39C127.67 87.9173 128.258 88.2266 128.88 88.2C129.19 88.2082 129.497 88.1359 129.77 87.99H129.82ZM138.34 88.19C137.804 88.2308 137.274 88.0542 136.87 87.7C136.465 87.2673 136.246 86.6927 136.26 86.1H142.26C142.309 85.482 142.255 84.8603 142.1 84.26C141.966 83.6944 141.721 83.1609 141.38 82.69C141.041 82.2287 140.599 81.8522 140.09 81.59C139.518 81.3087 138.887 81.1681 138.25 81.18C137.66 81.1757 137.074 81.2914 136.53 81.52C136.025 81.7317 135.569 82.0449 135.19 82.44C134.814 82.8376 134.521 83.307 134.33 83.82C133.923 84.9477 133.923 86.1823 134.33 87.31C134.515 87.8213 134.801 88.2904 135.17 88.69C135.544 89.0789 135.998 89.3825 136.5 89.58C137.063 89.7908 137.659 89.8959 138.26 89.89C139.105 89.9127 139.939 89.6905 140.66 89.25C141.383 88.7327 141.903 87.9794 142.13 87.12H140.13C140.018 87.4271 139.802 87.6853 139.52 87.85C139.172 88.0843 138.759 88.2032 138.34 88.19ZM138.19 82.9C138.647 82.8634 139.098 83.0234 139.43 83.34L139.45 83.36C139.753 83.7321 139.944 84.1831 140 84.66H136.31C136.322 84.4735 136.356 84.289 136.41 84.11C136.474 83.903 136.575 83.7097 136.71 83.54C136.866 83.3452 137.065 83.188 137.29 83.08C137.572 82.951 137.88 82.8894 138.19 82.9ZM145.78 82.96V81.43H143.59V89.7H145.86V85.95C145.862 85.6138 145.899 85.2787 145.97 84.95C146.039 84.6473 146.168 84.3616 146.35 84.11C146.53 83.8661 146.767 83.6703 147.04 83.54C147.375 83.3991 147.736 83.3309 148.1 83.34C148.243 83.3303 148.387 83.3303 148.53 83.34C148.661 83.3521 148.791 83.3721 148.92 83.4V81.28C148.757 81.2323 148.589 81.2054 148.42 81.2C148.138 81.2025 147.859 81.2463 147.59 81.33C147.326 81.4173 147.073 81.5383 146.84 81.69C146.603 81.8439 146.391 82.0327 146.21 82.25C146.035 82.466 145.89 82.7049 145.78 82.96ZM108.03 92.63C107.37 92.3894 106.672 92.2708 105.97 92.28H101V103.65H105.93C106.713 103.666 107.49 103.516 108.21 103.21C108.834 102.933 109.387 102.519 109.83 102C110.287 101.47 110.628 100.85 110.83 100.18C111.056 99.4312 111.168 98.6523 111.16 97.87C111.174 97.0262 111.038 96.1866 110.76 95.39C110.528 94.7313 110.157 94.1308 109.67 93.63C109.204 93.1789 108.644 92.8373 108.03 92.63ZM106.8 101.41C106.479 101.524 106.141 101.585 105.8 101.59H103.52V94.39H105.31C105.842 94.3764 106.371 94.4646 106.87 94.65C107.264 94.8117 107.609 95.0737 107.87 95.41C108.137 95.7636 108.328 96.1688 108.43 96.6C108.543 97.1122 108.596 97.6356 108.59 98.16C108.604 98.7033 108.523 99.2448 108.35 99.76C108.217 100.159 107.999 100.524 107.71 100.83C107.456 101.092 107.145 101.291 106.8 101.41ZM115.09 101.7C115.494 102.054 116.024 102.231 116.56 102.19C116.982 102.202 117.398 102.083 117.75 101.85C118.03 101.685 118.242 101.426 118.35 101.12H120.35C120.123 101.979 119.603 102.733 118.88 103.25C118.159 103.69 117.325 103.913 116.48 103.89C115.879 103.896 115.283 103.791 114.72 103.58C114.219 103.38 113.766 103.077 113.39 102.69C113.021 102.29 112.735 101.821 112.55 101.31C112.353 100.744 112.255 100.149 112.26 99.55C112.255 98.96 112.357 98.374 112.56 97.82C112.95 96.7859 113.744 95.9553 114.76 95.52C115.304 95.2914 115.89 95.1757 116.48 95.18C117.118 95.1654 117.749 95.3061 118.32 95.59C118.829 95.8522 119.271 96.2287 119.61 96.69C119.954 97.1604 120.202 97.6938 120.34 98.26C120.49 98.8611 120.544 99.4821 120.5 100.1H114.5C114.484 100.689 114.696 101.262 115.09 101.7ZM117.66 97.34C117.327 97.0256 116.877 96.8659 116.42 96.9C116.107 96.8879 115.795 96.9495 115.51 97.08C115.286 97.1856 115.091 97.3433 114.94 97.54C114.799 97.7068 114.693 97.9008 114.63 98.11C114.576 98.289 114.542 98.4735 114.53 98.66H118.23C118.16 98.1835 117.963 97.7345 117.66 97.36V97.34ZM123.75 101.64C123.853 101.811 123.989 101.961 124.15 102.08C124.317 102.194 124.503 102.275 124.7 102.32C124.912 102.377 125.131 102.404 125.35 102.4C125.516 102.419 125.684 102.419 125.85 102.4C126.018 102.364 126.18 102.304 126.33 102.22C126.474 102.144 126.598 102.034 126.69 101.9C126.791 101.754 126.84 101.578 126.83 101.4C126.83 101.06 126.61 100.8 126.16 100.63C125.539 100.416 124.905 100.245 124.26 100.12C123.93 100.04 123.61 99.96 123.26 99.85C122.962 99.7575 122.679 99.6228 122.42 99.45C122.18 99.2898 121.978 99.078 121.83 98.83C121.675 98.549 121.599 98.231 121.61 97.91C121.59 97.4531 121.697 96.9995 121.92 96.6C122.122 96.2661 122.404 95.9877 122.74 95.79C123.096 95.5852 123.485 95.4431 123.89 95.37C124.325 95.2895 124.767 95.2493 125.21 95.25C125.646 95.2527 126.082 95.2962 126.51 95.38C126.908 95.4593 127.29 95.6047 127.64 95.81C127.967 96.019 128.247 96.2951 128.46 96.62C128.695 97.0039 128.829 97.4406 128.85 97.89H126.69C126.697 97.5298 126.51 97.1937 126.2 97.01C125.872 96.843 125.508 96.7605 125.14 96.77H124.72C124.582 96.782 124.447 96.8158 124.32 96.87C124.198 96.9232 124.089 97.0016 124 97.1C123.916 97.2196 123.873 97.3638 123.88 97.51C123.874 97.7015 123.954 97.8855 124.1 98.01C124.275 98.1506 124.475 98.2559 124.69 98.32C124.959 98.408 125.233 98.4815 125.51 98.54L126.45 98.74C126.788 98.8158 127.122 98.9092 127.45 99.02C127.751 99.1131 128.035 99.255 128.29 99.44C128.533 99.6132 128.735 99.8387 128.88 100.1C129.047 100.406 129.127 100.752 129.11 101.1C129.153 102.013 128.697 102.878 127.92 103.36C127.552 103.589 127.145 103.748 126.72 103.83C126.262 103.922 125.797 103.969 125.33 103.97C124.856 103.971 124.383 103.92 123.92 103.82C123.486 103.739 123.072 103.576 122.7 103.34C122.343 103.118 122.042 102.817 121.82 102.46C121.573 102.038 121.442 101.559 121.44 101.07H123.6C123.603 101.269 123.654 101.465 123.75 101.64ZM130.5 94.15V92.28H132.77V94.15H130.5ZM132.77 95.43V103.7H130.5V95.43H132.77ZM141.79 105.5C142.078 105.156 142.281 104.748 142.38 104.31C142.468 103.939 142.518 103.561 142.53 103.18V95.44H140.37V96.54C140.145 96.1138 139.796 95.7653 139.37 95.54C138.923 95.329 138.434 95.2229 137.94 95.23C136.914 95.2062 135.937 95.6654 135.3 96.47C134.992 96.8629 134.761 97.3109 134.62 97.79C134.463 98.2882 134.386 98.8078 134.39 99.33C134.383 99.8733 134.451 100.415 134.59 100.94C134.709 101.421 134.924 101.873 135.22 102.27C135.513 102.647 135.89 102.952 136.32 103.16C136.821 103.391 137.368 103.504 137.92 103.49C138.414 103.493 138.902 103.387 139.35 103.18C139.784 102.966 140.136 102.614 140.35 102.18V103.27C140.38 103.787 140.231 104.299 139.93 104.72C139.587 105.132 139.064 105.349 138.53 105.3C138.158 105.309 137.79 105.223 137.46 105.05C137.13 104.86 136.899 104.535 136.83 104.16H134.58C134.596 104.592 134.731 105.01 134.97 105.37C135.198 105.702 135.491 105.984 135.83 106.2C136.19 106.415 136.582 106.574 136.99 106.67C137.396 106.769 137.812 106.819 138.23 106.82C139.005 106.849 139.777 106.72 140.5 106.44C140.996 106.229 141.437 105.907 141.79 105.5ZM139.87 101.04C139.712 101.257 139.507 101.434 139.27 101.56C139.002 101.677 138.712 101.732 138.42 101.72C138.111 101.73 137.805 101.65 137.54 101.49C137.308 101.348 137.112 101.152 136.97 100.92C136.827 100.675 136.726 100.408 136.67 100.13C136.61 99.8371 136.58 99.5389 136.58 99.24C136.577 98.9404 136.611 98.6415 136.68 98.35C136.744 98.0804 136.859 97.8256 137.02 97.6C137.329 97.1334 137.861 96.8638 138.42 96.89C138.742 96.8809 139.061 96.9495 139.35 97.09C139.588 97.228 139.79 97.4198 139.94 97.65C140.091 97.9004 140.199 98.1742 140.26 98.46C140.323 98.7895 140.353 99.1245 140.35 99.46C140.354 99.7504 140.317 100.04 140.24 100.32C140.162 100.581 140.036 100.825 139.87 101.04ZM146.5 96.58V95.43H144.34V103.7H146.61V99.36C146.555 98.7274 146.702 98.0937 147.03 97.55C147.358 97.1564 147.86 96.9505 148.37 97C148.812 96.9521 149.246 97.1425 149.51 97.5C149.75 97.9728 149.86 98.5007 149.83 99.03V103.7H152.1V98.66C152.103 98.1897 152.056 97.7205 151.96 97.26C151.884 96.8731 151.723 96.5078 151.49 96.19C151.248 95.8845 150.931 95.6468 150.57 95.5C150.091 95.3215 149.581 95.2367 149.07 95.25C148.584 95.2509 148.105 95.3638 147.67 95.58C147.205 95.7944 146.815 96.1426 146.55 96.58H146.5Z" fill="#E08300" fill-opacity="0.5" shape-rendering="crispEdges"/>
</g>
<path fill-rule="evenodd" clip-rule="evenodd" d="M148.86 19H105.14L93 36.18L117.29 73H136.71L161 36.18L148.86 19ZM142 46.36C142.011 50.4991 140.376 54.4728 137.456 57.4061C134.535 60.3395 130.569 61.9921 126.43 62H115V25H126.43C130.569 25.0079 134.535 26.6605 137.456 29.5939C140.376 32.5272 142.011 36.5009 142 40.64V46.36Z" fill="#E08300" fill-opacity="0.5"/>
<path fill-rule="evenodd" clip-rule="evenodd" d="M148.86 18H105.14L93 35.18L117.29 72H136.71L161 35.18L148.86 18ZM142 45.36C142.011 49.4991 140.376 53.4728 137.456 56.4061C134.535 59.3395 130.569 60.9921 126.43 61H115V24H126.43C130.569 24.0079 134.535 25.6605 137.456 28.5939C140.376 31.5272 142.011 35.5009 142 39.64V45.36Z" fill="#FFB854"/>
<circle cx="170.5" cy="166.5" r="96.5" fill="white" fill-opacity="0.08"/>
<circle cx="68" cy="130" r="23" fill="white" fill-opacity="0.12"/>
<path fill-rule="evenodd" clip-rule="evenodd" d="M110.483 110.246L90.607 184.424C88.5833 191.978 90.729 200.035 96.2371 205.566L150.398 259.83C155.903 265.362 163.943 267.516 171.475 265.478L245.513 245.564C253.048 243.529 258.935 237.624 260.96 230.07L280.835 155.892C282.859 148.338 280.713 140.28 275.205 134.75L221.044 80.4856C215.54 74.9538 207.5 72.7995 199.967 74.838L125.93 94.7515C118.394 96.787 112.507 102.692 110.483 110.246L110.483 110.246Z" fill="#FFAF3E" stroke="#F58F00" stroke-width="2.4"/>
<path fill-rule="evenodd" clip-rule="evenodd" d="M179.546 173.204C182.686 161.484 176.638 158.087 170.809 156.525C166.093 155.383 161.302 154.575 156.472 154.105C151.699 153.644 146.964 152.85 142.301 151.729C126.991 147.627 123.194 135.825 126.956 121.786L127.844 118.471L137.807 121.14L137.075 123.875C134.687 133.451 138.941 138.233 147.924 140.64C151.928 141.557 155.982 142.24 160.066 142.685C164.449 143.028 168.797 143.729 173.066 144.783C183.771 147.473 187.828 153.588 187.94 161.204L188.273 161.293C192 154.688 198.919 151.515 209.531 154.554C213.81 155.791 217.981 157.372 222.004 159.281C225.811 160.958 229.713 162.407 233.691 163.621C243.024 166.122 249.061 163.582 251.652 154.576L252.381 151.858L260.684 154.083L259.755 157.547C256.131 171.073 247.347 179.876 230.526 175.369C225.964 174.053 221.529 172.329 217.276 170.22C212.971 168.402 208.574 166.808 204.103 165.446C198.789 164.023 191.188 163.762 188.048 175.482L179.546 173.204ZM198.703 119.709C192.283 117.989 185.687 121.789 183.97 128.197C182.253 134.606 186.065 141.195 192.485 142.915C198.905 144.635 205.501 140.835 207.218 134.427C208.935 128.018 205.123 121.429 198.703 119.709V119.709Z" fill="#E08300" fill-opacity="0.5"/>
<path fill-rule="evenodd" clip-rule="evenodd" d="M180.384 172.078C183.524 160.359 177.475 156.961 171.647 155.4C166.93 154.258 162.139 153.449 157.309 152.979C152.536 152.518 147.801 151.724 143.138 150.603C127.828 146.501 124.031 134.7 127.793 120.66L128.682 117.345L138.645 120.014L137.912 122.749C135.524 132.325 139.778 137.107 148.762 139.514C152.766 140.432 156.82 141.114 160.903 141.559C165.286 141.902 169.634 142.604 173.903 143.657C184.608 146.348 188.665 152.462 188.778 160.079L189.11 160.168C192.837 153.563 199.757 150.389 210.369 153.428C214.647 154.665 218.818 156.246 222.842 158.156C226.648 159.832 230.551 161.281 234.529 162.495C243.861 164.996 249.899 162.456 252.49 153.451L253.218 150.732L261.521 152.957L260.593 156.421C256.968 169.947 248.185 178.75 231.363 174.243C226.801 172.927 222.367 171.203 218.113 169.094C213.808 167.276 209.411 165.683 204.941 164.321C199.627 162.897 192.026 162.637 188.886 174.356L180.384 172.078ZM199.541 118.583C193.121 116.863 186.525 120.664 184.808 127.072C183.091 133.48 186.903 140.069 193.322 141.789C199.742 143.51 206.338 139.709 208.055 133.301C209.772 126.893 205.96 120.303 199.541 118.583V118.583Z" fill="#FFB854"/>
<g filter="url(#filter2_d_607_6688)">
<path fill-rule="evenodd" clip-rule="evenodd" d="M144.169 193.066C143.849 192.68 143.634 192.216 143.544 191.719C143.487 191.155 143.566 190.585 143.775 190.057L139.713 188.969C139.047 190.988 139.438 193.204 140.752 194.854C141.387 195.639 142.168 196.291 143.049 196.776C143.974 197.315 144.966 197.727 146 198.002C147.158 198.337 148.363 198.488 149.57 198.45C150.545 198.435 151.508 198.224 152.405 197.831C153.196 197.484 153.893 196.948 154.436 196.271C154.982 195.589 155.377 194.798 155.595 193.95C155.891 193.021 155.902 192.024 155.626 191.092C155.377 190.297 154.962 189.567 154.408 188.951C153.935 188.396 153.381 187.917 152.764 187.531C152.602 187.432 152.45 187.335 152.308 187.244L152.308 187.243L152.308 187.243C151.938 187.006 151.635 186.811 151.381 186.743L148.693 185.206C148.132 184.9 147.597 184.544 147.097 184.144C146.806 183.917 146.578 183.618 146.434 183.276C146.35 182.951 146.361 182.607 146.466 182.287C146.556 181.922 146.744 181.589 147.01 181.326C147.267 181.109 147.561 180.942 147.877 180.833C148.207 180.733 148.552 180.69 148.896 180.706C149.25 180.73 149.6 180.787 149.943 180.878C150.428 180.998 150.898 181.173 151.344 181.399C151.734 181.584 152.084 181.844 152.375 182.165C152.667 182.475 152.867 182.861 152.954 183.281C153.051 183.783 153.047 184.301 152.94 184.802L157.002 185.89C157.293 184.911 157.337 183.874 157.129 182.876C156.936 181.997 156.542 181.177 155.979 180.481C155.371 179.767 154.638 179.171 153.817 178.723C152.935 178.244 152.001 177.872 151.032 177.614C150.168 177.384 149.275 177.273 148.38 177.284C147.494 177.281 146.615 177.438 145.783 177.749C144.974 178.05 144.238 178.52 143.621 179.13C142.974 179.804 142.515 180.639 142.292 181.55C142.059 182.33 142.023 183.156 142.186 183.952C142.339 184.643 142.635 185.291 143.056 185.855C143.505 186.423 144.026 186.928 144.605 187.359C145.222 187.798 145.86 188.205 146.518 188.579C147.035 188.896 147.569 189.193 148.088 189.482L148.088 189.482L148.088 189.482L148.089 189.482C148.203 189.545 148.316 189.609 148.429 189.671C149.011 189.979 149.569 190.329 150.101 190.718C150.532 191.033 150.9 191.427 151.187 191.88C151.418 192.313 151.469 192.823 151.327 193.297C151.229 193.733 150.985 194.122 150.637 194.4C150.296 194.642 149.909 194.81 149.502 194.894C149.072 194.969 148.635 194.98 148.203 194.927C147.787 194.885 147.376 194.811 146.972 194.706C146.407 194.562 145.863 194.343 145.355 194.055C144.9 193.806 144.497 193.47 144.169 193.066ZM165.887 200.736L165.366 202.683L169.01 203.659L172.779 189.592L168.951 188.566L166.987 195.896C166.794 196.998 166.259 198.012 165.46 198.789C164.732 199.308 163.8 199.432 162.97 199.12C162.211 199 161.574 198.484 161.291 197.763C161.105 196.855 161.16 195.912 161.451 195.029L163.569 187.124L159.775 186.107L157.466 194.724C157.249 195.519 157.115 196.334 157.065 197.156C157.02 197.845 157.123 198.535 157.365 199.178C157.628 199.802 158.052 200.342 158.594 200.741C159.313 201.249 160.121 201.614 160.976 201.815C161.793 202.028 162.646 202.058 163.478 201.905C164.351 201.747 165.16 201.333 165.804 200.714L165.887 200.736ZM178.753 193.17L179.23 191.393L175.653 190.434L170.577 209.377L174.371 210.394L176.149 203.758C176.405 204.552 176.863 205.263 177.478 205.819C178.123 206.366 178.879 206.76 179.694 206.976C180.609 207.242 181.574 207.283 182.511 207.095C183.376 206.891 184.184 206.486 184.87 205.913C185.571 205.362 186.165 204.684 186.623 203.915C187.11 203.102 187.478 202.223 187.717 201.305C187.981 200.341 188.115 199.345 188.116 198.346C188.117 197.421 187.942 196.506 187.602 195.65C187.271 194.806 186.758 194.049 186.1 193.433C185.343 192.765 184.438 192.292 183.459 192.054C182.652 191.833 181.804 191.798 180.979 191.952C180.136 192.128 179.362 192.552 178.753 193.17ZM182.556 203.116C182.185 203.452 181.745 203.7 181.269 203.841L181.185 203.819C180.662 203.943 180.116 203.929 179.602 203.776C178.551 203.542 177.708 202.755 177.395 201.715C177.244 201.206 177.18 200.673 177.208 200.141C177.248 199.554 177.344 198.972 177.495 198.403C177.642 197.833 177.85 197.28 178.115 196.755C178.34 196.27 178.652 195.83 179.036 195.459C179.403 195.113 179.846 194.859 180.327 194.717C180.878 194.563 181.46 194.574 182.003 194.748C182.548 194.87 183.046 195.149 183.437 195.55C183.782 195.92 184.036 196.367 184.179 196.856C184.34 197.371 184.408 197.911 184.379 198.451C184.347 199.039 184.25 199.622 184.092 200.189C183.944 200.758 183.742 201.311 183.488 201.842C183.252 202.317 182.937 202.748 182.556 203.116ZM193.184 206.508C193.699 207.289 194.505 207.825 195.419 207.996C196.114 208.206 196.858 208.19 197.546 207.949C198.092 207.797 198.57 207.456 198.897 206.986L202.24 207.882C201.47 209.235 200.259 210.277 198.816 210.829C197.41 211.252 195.916 211.255 194.514 210.838C193.507 210.579 192.558 210.134 191.713 209.525C190.963 208.966 190.343 208.248 189.894 207.423C189.458 206.581 189.194 205.659 189.116 204.71C188.947 202.619 189.507 200.529 190.699 198.802C191.251 198.019 191.953 197.356 192.762 196.851C193.575 196.352 194.479 196.026 195.419 195.894C196.433 195.751 197.463 195.817 198.448 196.089C199.519 196.354 200.51 196.874 201.338 197.607C202.07 198.279 202.637 199.114 202.995 200.047C203.352 200.997 203.519 202.009 203.487 203.027C203.473 204.112 203.282 205.189 202.92 206.214L192.89 203.526C192.597 204.523 192.703 205.594 193.184 206.508ZM199.441 200.274C199.03 199.589 198.349 199.116 197.568 198.974C197.055 198.817 196.512 198.783 195.982 198.875C195.556 198.957 195.154 199.134 194.804 199.394C194.502 199.621 194.244 199.903 194.044 200.225C193.872 200.503 193.733 200.801 193.627 201.111L199.795 202.764C199.91 201.925 199.783 201.073 199.432 200.308L199.441 200.274ZM210.922 199.884L210.228 202.475C210.528 202.092 210.878 201.753 211.268 201.465C211.669 201.178 212.11 200.954 212.575 200.799C213.035 200.647 213.511 200.555 213.992 200.526C214.48 200.505 214.967 200.556 215.439 200.677C215.719 200.762 215.988 200.883 216.238 201.037L215.277 204.626C215.074 204.521 214.866 204.429 214.652 204.349C214.417 204.269 214.177 204.205 213.933 204.157C213.33 203.979 212.695 203.932 212.071 204.021C211.554 204.119 211.069 204.344 210.659 204.677C210.241 205.021 209.895 205.447 209.642 205.928C209.375 206.453 209.161 207.004 209.005 207.572L207.304 213.92L203.51 212.903L207.261 198.904L210.922 199.884ZM117.542 196.092C118.423 196.319 119.254 196.708 119.994 197.239C120.7 197.73 121.286 198.377 121.708 199.132C122.148 199.928 122.406 200.816 122.463 201.729C122.546 202.834 122.43 203.946 122.121 205.012C121.864 206.005 121.464 206.955 120.935 207.833C120.465 208.613 119.84 209.286 119.098 209.808C118.372 210.325 117.538 210.666 116.663 210.807C115.656 210.958 114.63 210.887 113.655 210.6L107.487 208.947L111.374 194.439L117.542 196.092ZM114.15 207.884C114.601 208.001 115.069 208.041 115.534 208.001C116.006 207.978 116.464 207.832 116.865 207.577C117.333 207.29 117.731 206.9 118.031 206.438C118.421 205.841 118.707 205.181 118.876 204.487C119.061 203.823 119.171 203.141 119.206 202.453C119.236 201.869 119.141 201.287 118.929 200.745C118.697 200.23 118.344 199.781 117.9 199.436C117.34 199.031 116.704 198.743 116.031 198.59L113.791 197.99L111.342 207.131L114.15 207.884ZM127.468 212.269C126.785 212.137 126.183 211.734 125.797 211.15C125.487 210.469 125.445 209.692 125.681 208.978L133.169 210.984C133.432 210.214 133.575 209.407 133.595 208.594C133.603 207.833 133.471 207.078 133.206 206.367C132.931 205.651 132.486 205.015 131.911 204.514C131.287 203.969 130.543 203.583 129.74 203.388C127.57 202.753 125.231 203.584 123.919 205.457C123.48 206.089 123.157 206.796 122.966 207.543C122.75 208.301 122.672 209.091 122.735 209.876C122.808 210.567 123.012 211.238 123.334 211.851C123.669 212.471 124.138 213.006 124.706 213.416C125.328 213.882 126.035 214.219 126.787 214.409C127.838 214.728 128.96 214.726 130.014 214.402C131.102 213.992 132.015 213.209 132.595 212.191L130.088 211.519C129.833 211.865 129.476 212.119 129.069 212.244C128.55 212.419 127.991 212.428 127.468 212.269ZM129.102 205.503C129.69 205.612 130.201 205.974 130.502 206.496L130.469 206.487C130.731 207.066 130.832 207.708 130.76 208.343L126.13 207.102C126.211 206.871 126.318 206.65 126.449 206.444C126.598 206.198 126.796 205.985 127.029 205.819C127.289 205.628 127.587 205.497 127.902 205.436C128.302 205.364 128.713 205.388 129.102 205.503ZM135.389 205.174L136.12 216.619L139.246 217.457L145.568 207.902L142.727 207.14L138.635 213.719L138.364 205.971L135.389 205.174ZM149.382 218.141C148.697 218.012 148.094 217.609 147.711 217.022C147.41 216.374 147.353 215.637 147.55 214.946L155.022 216.948C155.3 216.182 155.444 215.373 155.447 214.559C155.469 213.799 155.342 213.044 155.076 212.336C154.795 211.623 154.351 210.988 153.78 210.483C153.157 209.938 152.413 209.552 151.61 209.357C150.873 209.147 150.1 209.094 149.34 209.203C148.639 209.307 147.964 209.552 147.356 209.923C146.755 210.282 146.232 210.758 145.816 211.325C145.371 211.954 145.043 212.659 144.846 213.405C144.636 214.166 144.563 214.958 144.632 215.743C144.691 216.438 144.895 217.111 145.231 217.718C145.568 218.337 146.036 218.871 146.603 219.283C147.23 219.752 147.943 220.09 148.701 220.281C149.751 220.6 150.874 220.598 151.927 220.274C153.015 219.863 153.929 219.081 154.508 218.063L152.001 217.391C151.747 217.737 151.39 217.991 150.983 218.116C150.463 218.291 149.904 218.299 149.382 218.141ZM150.999 211.371C151.593 211.478 152.111 211.842 152.416 212.367L152.349 212.349C152.625 212.928 152.737 213.573 152.673 214.214L148.043 212.974C148.125 212.743 148.232 212.522 148.363 212.316C148.512 212.073 148.702 211.86 148.926 211.686C149.195 211.501 149.497 211.373 149.815 211.308C150.21 211.235 150.615 211.256 150.999 211.371ZM158.418 222.594L162.305 208.086L159.464 207.325L155.577 221.833L158.418 222.594ZM164.283 214.277C163.686 214.64 163.163 215.116 162.743 215.679C162.292 216.345 161.96 217.085 161.763 217.866C161.541 218.64 161.458 219.447 161.519 220.25C161.596 220.948 161.811 221.623 162.151 222.234C162.49 222.851 162.958 223.385 163.524 223.799C164.158 224.254 164.87 224.587 165.626 224.779C166.382 224.99 167.17 225.06 167.953 224.986C168.65 224.91 169.322 224.682 169.924 224.316C170.529 223.964 171.054 223.486 171.464 222.914C171.923 222.253 172.261 221.514 172.461 220.732C172.676 219.955 172.753 219.146 172.689 218.344C172.612 217.645 172.396 216.971 172.056 216.36C171.706 215.751 171.24 215.219 170.684 214.795C170.043 214.339 169.325 214.005 168.565 213.81C167.815 213.599 167.031 213.53 166.254 213.608C165.561 213.697 164.891 213.925 164.283 214.277ZM164.518 221.09C164.404 220.703 164.361 220.298 164.391 219.894C164.419 219.466 164.49 219.041 164.605 218.627C164.713 218.212 164.864 217.808 165.053 217.423C165.225 217.062 165.464 216.738 165.757 216.468C166.027 216.2 166.363 216.008 166.73 215.912C167.152 215.795 167.597 215.801 168.015 215.93C168.445 216.031 168.839 216.249 169.153 216.562C169.423 216.828 169.618 217.162 169.718 217.53C169.837 217.91 169.882 218.31 169.85 218.708C169.822 219.136 169.75 219.561 169.636 219.975C169.528 220.391 169.378 220.795 169.188 221.18C169.012 221.544 168.772 221.873 168.48 222.151C168.202 222.409 167.869 222.6 167.507 222.707C167.077 222.8 166.632 222.78 166.214 222.651C165.399 222.5 164.742 221.895 164.518 221.09ZM178.447 216.711L178.089 218.049C178.544 217.592 179.126 217.285 179.757 217.171C180.375 217.05 181.013 217.078 181.616 217.252C182.35 217.427 183.03 217.778 183.6 218.274C184.094 218.731 184.482 219.293 184.735 219.921C184.99 220.563 185.117 221.25 185.107 221.943C185.118 222.689 185.022 223.434 184.82 224.153C184.643 224.842 184.364 225.502 183.991 226.108C183.654 226.677 183.211 227.175 182.685 227.572C182.176 227.982 181.579 228.264 180.942 228.393C180.242 228.543 179.517 228.517 178.831 228.318C178.21 228.158 177.635 227.855 177.151 227.432C176.683 227.029 176.334 226.502 176.144 225.91L174.81 230.887L171.968 230.126L175.756 215.99L178.447 216.711ZM179.909 226.03C180.266 225.923 180.597 225.739 180.878 225.491C181.172 225.225 181.406 224.898 181.565 224.532C181.963 223.76 182.19 222.911 182.232 222.044C182.256 221.638 182.207 221.231 182.087 220.844C181.981 220.479 181.787 220.146 181.523 219.876C180.909 219.276 180.031 219.04 179.199 219.254C178.835 219.355 178.501 219.546 178.226 219.809C177.938 220.082 177.705 220.407 177.539 220.768C177.34 221.162 177.181 221.576 177.065 222.002C176.957 222.418 176.891 222.845 176.868 223.274C176.845 223.672 176.89 224.07 177 224.452C177.12 224.812 177.321 225.139 177.586 225.408C178.223 225.965 179.079 226.195 179.909 226.03ZM190.766 220.012L190.385 221.434C190.88 221.014 191.458 220.705 192.079 220.528C192.721 220.38 193.388 220.397 194.019 220.576C194.641 220.727 195.218 221.025 195.703 221.444C196.194 221.874 196.506 222.476 196.577 223.13C197.04 222.731 197.578 222.431 198.158 222.247C198.813 222.038 199.513 222.03 200.17 222.224C200.686 222.357 201.179 222.562 201.637 222.834C202.046 223.077 202.397 223.407 202.668 223.8C202.931 224.215 203.092 224.687 203.141 225.179C203.188 225.773 203.131 226.372 202.971 226.948L201.075 234.024L198.234 233.263L199.83 227.304C199.935 226.981 200.023 226.654 200.093 226.322C200.149 226.034 200.149 225.738 200.094 225.451C200.038 225.183 199.904 224.938 199.709 224.749C199.454 224.521 199.144 224.363 198.81 224.291C198.475 224.188 198.118 224.18 197.777 224.268C197.494 224.352 197.237 224.508 197.029 224.721C196.819 224.948 196.646 225.208 196.518 225.491C196.415 225.808 196.329 226.13 196.259 226.456L194.69 232.313L191.848 231.552L193.427 225.66L193.676 224.729C193.737 224.44 193.75 224.143 193.715 223.851C193.691 223.566 193.574 223.298 193.381 223.09C193.118 222.831 192.786 222.654 192.425 222.58C192.241 222.539 192.052 222.525 191.863 222.538C191.607 222.536 191.353 222.592 191.12 222.702C190.839 222.837 190.595 223.04 190.407 223.291C190.134 223.641 189.939 224.048 189.837 224.481L188.205 230.575L185.296 229.796L188.108 219.3L190.766 220.012ZM207.083 232.93C207.466 233.517 208.069 233.921 208.754 234.049C209.276 234.208 209.836 234.2 210.355 234.025C210.762 233.9 211.119 233.645 211.373 233.3L213.881 233.972C213.301 234.99 212.387 235.772 211.3 236.183C210.246 236.506 209.124 236.509 208.073 236.189C207.315 235.999 206.603 235.66 205.976 235.192C205.409 234.78 204.94 234.245 204.603 233.627C204.268 233.019 204.063 232.346 204.004 231.652C203.935 230.867 204.008 230.075 204.218 229.314C204.415 228.568 204.744 227.863 205.188 227.233C205.604 226.667 206.128 226.19 206.728 225.832C207.336 225.461 208.011 225.216 208.713 225.111C209.472 225.003 210.245 225.056 210.982 225.266C211.785 225.461 212.529 225.847 213.153 226.392C213.723 226.897 214.167 227.532 214.448 228.245C214.715 228.953 214.841 229.708 214.82 230.467C214.809 231.281 214.666 232.089 214.394 232.857L206.923 230.855C206.726 231.545 206.783 232.283 207.083 232.93ZM211.771 228.272C211.474 227.747 210.961 227.383 210.371 227.279C209.988 227.163 209.582 227.142 209.188 227.216C208.869 227.281 208.567 227.41 208.298 227.595C208.075 227.769 207.884 227.982 207.735 228.224C207.597 228.426 207.489 228.648 207.415 228.883L212.079 230.132C212.156 229.494 212.05 228.848 211.771 228.272ZM220.385 227.949L219.995 229.405C220.473 228.911 221.088 228.575 221.758 228.444C222.348 228.329 222.955 228.344 223.538 228.485C224.187 228.635 224.801 228.911 225.345 229.296C225.744 229.603 226.055 230.012 226.246 230.481C226.436 230.961 226.517 231.479 226.485 231.996C226.447 232.613 226.343 233.224 226.176 233.819L224.443 240.285L221.601 239.524L223.189 233.599C223.415 232.937 223.457 232.226 223.31 231.545C223.085 231.009 222.61 230.624 222.044 230.516C221.421 230.287 220.724 230.386 220.182 230.779C219.584 231.36 219.181 232.116 219.031 232.938L217.556 238.44L214.715 237.679L217.527 227.183L220.385 227.949ZM234.745 233.865L235.262 231.935L233.239 231.393L234.083 228.244L231.241 227.483L230.398 230.632L228.726 230.184L228.214 232.097L229.885 232.545L228.225 238.74C228.094 239.176 228.069 239.636 228.152 240.082C228.234 240.442 228.412 240.772 228.667 241.036C228.941 241.301 229.26 241.515 229.608 241.669C230.009 241.835 230.42 241.976 230.839 242.09L231.708 242.323L232.516 242.449L233.097 240.282L232.679 240.17L232.211 240.044C231.857 239.995 231.535 239.811 231.31 239.531C231.195 239.197 231.204 238.832 231.334 238.503L232.722 233.323L234.745 233.865Z" fill="#E08300" fill-opacity="0.5" shape-rendering="crispEdges"/>
</g>
</g>
<defs>
<filter id="filter0_d_607_6688" x="117.001" y="284.234" width="47.2578" height="39.5219" filterUnits="userSpaceOnUse" color-interpolation-filters="sRGB">
<feFlood flood-opacity="0" result="BackgroundImageFix"/>
<feColorMatrix in="SourceAlpha" type="matrix" values="0 0 0 0 0 0 0 0 0 0 0 0 0 0 0 0 0 0 127 0" result="hardAlpha"/>
<feOffset dy="-1"/>
<feComposite in2="hardAlpha" operator="out"/>
<feColorMatrix type="matrix" values="0 0 0 0 1 0 0 0 0 0.75 0 0 0 0 0.4 0 0 0 1 0"/>
<feBlend mode="normal" in2="BackgroundImageFix" result="effect1_dropShadow_607_6688"/>
<feBlend mode="normal" in="SourceGraphic" in2="effect1_dropShadow_607_6688" result="shape"/>
</filter>
<filter id="filter1_d_607_6688" x="101" y="77" width="51.1001" height="29.824" filterUnits="userSpaceOnUse" color-interpolation-filters="sRGB">
<feFlood flood-opacity="0" result="BackgroundImageFix"/>
<feColorMatrix in="SourceAlpha" type="matrix" values="0 0 0 0 0 0 0 0 0 0 0 0 0 0 0 0 0 0 127 0" result="hardAlpha"/>
<feOffset dy="-1"/>
<feComposite in2="hardAlpha" operator="out"/>
<feColorMatrix type="matrix" values="0 0 0 0 1 0 0 0 0 0.75 0 0 0 0 0.4 0 0 0 1 0"/>
<feBlend mode="normal" in2="BackgroundImageFix" result="effect1_dropShadow_607_6688"/>
<feBlend mode="normal" in="SourceGraphic" in2="effect1_dropShadow_607_6688" result="shape"/>
</filter>
<filter id="filter2_d_607_6688" x="107.487" y="176.283" width="127.775" height="66.1653" filterUnits="userSpaceOnUse" color-interpolation-filters="sRGB">
<feFlood flood-opacity="0" result="BackgroundImageFix"/>
<feColorMatrix in="SourceAlpha" type="matrix" values="0 0 0 0 0 0 0 0 0 0 0 0 0 0 0 0 0 0 127 0" result="hardAlpha"/>
<feOffset dy="-1"/>
<feComposite in2="hardAlpha" operator="out"/>
<feColorMatrix type="matrix" values="0 0 0 0 1 0 0 0 0 0.75 0 0 0 0 0.4 0 0 0 1 0"/>
<feBlend mode="normal" in2="BackgroundImageFix" result="effect1_dropShadow_607_6688"/>
<feBlend mode="normal" in="SourceGraphic" in2="effect1_dropShadow_607_6688" result="shape"/>
</filter>
<linearGradient id="paint0_linear_607_6688" x1="169.5" y1="277" x2="169.5" y2="254" gradientUnits="userSpaceOnUse">
<stop stop-color="#D97F00"/>
<stop offset="1" stop-color="#F28D00"/>
</linearGradient>
<linearGradient id="paint1_linear_607_6688" x1="115.453" y1="276.88" x2="115.453" y2="254.24" gradientUnits="userSpaceOnUse">
<stop stop-color="#F28D00"/>
<stop offset="1" stop-color="#FFCF8C"/>
</linearGradient>
<linearGradient id="paint2_linear_607_6688" x1="175.453" y1="276.88" x2="175.453" y2="254.24" gradientUnits="userSpaceOnUse">
<stop stop-color="#F28D00"/>
<stop offset="1" stop-color="#FFCF8C"/>
</linearGradient>
<linearGradient id="paint3_linear_607_6688" x1="171" y1="252" x2="171" y2="229" gradientUnits="userSpaceOnUse">
<stop stop-color="#E58600"/>
<stop offset="1" stop-color="#FF9F19"/>
</linearGradient>
<linearGradient id="paint4_linear_607_6688" x1="94" y1="252" x2="94" y2="229" gradientUnits="userSpaceOnUse">
<stop stop-color="#D97F00"/>
<stop offset="1" stop-color="#F28D00"/>
</linearGradient>
<linearGradient id="paint5_linear_607_6688" x1="136" y1="252" x2="136" y2="229" gradientUnits="userSpaceOnUse">
<stop stop-color="#D97F00"/>
<stop offset="1" stop-color="#F28D00"/>
</linearGradient>
<linearGradient id="paint6_linear_607_6688" x1="106" y1="252" x2="106" y2="229" gradientUnits="userSpaceOnUse">
<stop stop-color="#D97F00"/>
<stop offset="1" stop-color="#F28D00"/>
</linearGradient>
<linearGradient id="paint7_linear_607_6688" x1="118" y1="252" x2="118" y2="229" gradientUnits="userSpaceOnUse">
<stop stop-color="#D97F00"/>
<stop offset="1" stop-color="#F28D00"/>
</linearGradient>
<linearGradient id="paint8_linear_607_6688" x1="29" y1="252" x2="29" y2="229" gradientUnits="userSpaceOnUse">
<stop stop-color="#D97F00"/>
<stop offset="1" stop-color="#F28D00"/>
</linearGradient>
<linearGradient id="paint9_linear_607_6688" x1="67" y1="252" x2="67" y2="229" gradientUnits="userSpaceOnUse">
<stop stop-color="#D97F00"/>
<stop offset="1" stop-color="#F28D00"/>
</linearGradient>
<linearGradient id="paint10_linear_607_6688" x1="41" y1="252" x2="41" y2="229" gradientUnits="userSpaceOnUse">
<stop stop-color="#D97F00"/>
<stop offset="1" stop-color="#F28D00"/>
</linearGradient>
<linearGradient id="paint11_linear_607_6688" x1="8.95304" y1="251.88" x2="8.95304" y2="229.24" gradientUnits="userSpaceOnUse">
<stop stop-color="#F28D00"/>
<stop offset="1" stop-color="#FFCF8C"/>
</linearGradient>
<linearGradient id="paint12_linear_607_6688" x1="99.953" y1="251.88" x2="99.953" y2="229.24" gradientUnits="userSpaceOnUse">
<stop stop-color="#F08C00"/>
<stop offset="1" stop-color="#FFA424"/>
</linearGradient>
<linearGradient id="paint13_linear_607_6688" x1="111.953" y1="251.88" x2="111.953" y2="229.24" gradientUnits="userSpaceOnUse">
<stop stop-color="#F08C00"/>
<stop offset="1" stop-color="#FFA424"/>
</linearGradient>
<linearGradient id="paint14_linear_607_6688" x1="123.953" y1="251.88" x2="123.953" y2="229.24" gradientUnits="userSpaceOnUse">
<stop stop-color="#F08C00"/>
<stop offset="1" stop-color="#FFA424"/>
</linearGradient>
<linearGradient id="paint15_linear_607_6688" x1="144.977" y1="251.88" x2="144.977" y2="229.24" gradientUnits="userSpaceOnUse">
<stop stop-color="#F08C00"/>
<stop offset="1" stop-color="#FFA424"/>
</linearGradient>
<linearGradient id="paint16_linear_607_6688" x1="34.953" y1="251.88" x2="34.953" y2="229.24" gradientUnits="userSpaceOnUse">
<stop stop-color="#F08C00"/>
<stop offset="1" stop-color="#FFA424"/>
</linearGradient>
<linearGradient id="paint17_linear_607_6688" x1="46.953" y1="251.88" x2="46.953" y2="229.24" gradientUnits="userSpaceOnUse">
<stop stop-color="#F08C00"/>
<stop offset="1" stop-color="#FFA424"/>
</linearGradient>
<linearGradient id="paint18_linear_607_6688" x1="72.953" y1="251.88" x2="72.953" y2="229.24" gradientUnits="userSpaceOnUse">
<stop stop-color="#F28D00"/>
<stop offset="1" stop-color="#FFCF8C"/>
</linearGradient>
<linearGradient id="paint19_linear_607_6688" x1="75.9765" y1="251.88" x2="75.9765" y2="229.24" gradientUnits="userSpaceOnUse">
<stop stop-color="#F08C00"/>
<stop offset="1" stop-color="#FFA424"/>
</linearGradient>
<linearGradient id="paint20_linear_607_6688" x1="81.953" y1="251.88" x2="81.953" y2="229.24" gradientUnits="userSpaceOnUse">
<stop stop-color="#F28D00"/>
<stop offset="1" stop-color="#FFCF8C"/>
</linearGradient>
<linearGradient id="paint21_linear_607_6688" x1="141.953" y1="251.88" x2="141.953" y2="229.24" gradientUnits="userSpaceOnUse">
<stop stop-color="#F28D00"/>
<stop offset="1" stop-color="#FFCF8C"/>
</linearGradient>
<linearGradient id="paint22_linear_607_6688" x1="147.977" y1="251.88" x2="147.977" y2="229.24" gradientUnits="userSpaceOnUse">
<stop stop-color="#F28D00"/>
<stop offset="1" stop-color="#FFCF8C"/>
</linearGradient>
<linearGradient id="paint23_linear_607_6688" x1="26" y1="226" x2="26" y2="203" gradientUnits="userSpaceOnUse">
<stop stop-color="#E58600"/>
<stop offset="1" stop-color="#FF9F19"/>
</linearGradient>
<linearGradient id="paint24_linear_607_6688" x1="66" y1="226" x2="66" y2="203" gradientUnits="userSpaceOnUse">
<stop stop-color="#E58600"/>
<stop offset="1" stop-color="#FF9F19"/>
</linearGradient>
<linearGradient id="paint25_linear_607_6688" x1="40" y1="226" x2="40" y2="203" gradientUnits="userSpaceOnUse">
<stop stop-color="#D97F00"/>
<stop offset="1" stop-color="#F28D00"/>
</linearGradient>
<linearGradient id="paint26_linear_607_6688" x1="28.9765" y1="225.88" x2="28.9765" y2="203.24" gradientUnits="userSpaceOnUse">
<stop stop-color="#F28D00"/>
<stop offset="1" stop-color="#FFCF8C"/>
</linearGradient>
<linearGradient id="paint27_linear_607_6688" x1="42.9765" y1="225.88" x2="42.9765" y2="203.24" gradientUnits="userSpaceOnUse">
<stop stop-color="#F28D00"/>
<stop offset="1" stop-color="#FFCF8C"/>
</linearGradient>
<linearGradient id="paint28_linear_607_6688" x1="68.9765" y1="225.88" x2="68.9765" y2="203.24" gradientUnits="userSpaceOnUse">
<stop stop-color="#F08C00"/>
<stop offset="1" stop-color="#FFA424"/>
</linearGradient>
<linearGradient id="paint29_linear_607_6688" x1="132" y1="226" x2="132" y2="203" gradientUnits="userSpaceOnUse">
<stop stop-color="#D97F00"/>
<stop offset="1" stop-color="#F28D00"/>
</linearGradient>
<linearGradient id="paint30_linear_607_6688" x1="165" y1="226" x2="165" y2="203" gradientUnits="userSpaceOnUse">
<stop stop-color="#D97F00"/>
<stop offset="1" stop-color="#F28D00"/>
</linearGradient>
<linearGradient id="paint31_linear_607_6688" x1="99" y1="226" x2="99" y2="203" gradientUnits="userSpaceOnUse">
<stop stop-color="#D97F00"/>
<stop offset="1" stop-color="#F28D00"/>
</linearGradient>
<linearGradient id="paint32_linear_607_6688" x1="101.977" y1="225.88" x2="101.977" y2="203.24" gradientUnits="userSpaceOnUse">
<stop stop-color="#F28D00"/>
<stop offset="1" stop-color="#FFCF8C"/>
</linearGradient>
<linearGradient id="paint33_linear_607_6688" x1="134.977" y1="225.88" x2="134.977" y2="203.24" gradientUnits="userSpaceOnUse">
<stop stop-color="#F08C00"/>
<stop offset="1" stop-color="#FFA424"/>
</linearGradient>
<clipPath id="clip0_607_6688">
<rect width="270" height="339" fill="white"/>
</clipPath>
<clipPath id="clip1_607_6688">
<rect width="78" height="307" fill="white" transform="translate(170 10)"/>
</clipPath>
<clipPath id="clip2_607_6688">
<rect width="194" height="55" fill="white" transform="translate(0 200)"/>
</clipPath>
</defs>
</svg>
