<svg width="16" height="16" viewBox="0 0 16 16" fill="none" xmlns="http://www.w3.org/2000/svg"><g clip-path="url(#clip0_457_11016)"><path fill="#F6F5F4" d="M0 0h16v16H0z"/><path fill="#514B43" d="M-4-6h24v24H-4z"/><path fill="#F6F5F4" d="M-3-5h22v22H-3z"/><path fill-rule="evenodd" clip-rule="evenodd" d="M1 15h14v1H1v-1zm7-2c-1.527 0-2.891-1.167-3.808-3h1.107c.212.367.451.677.701.953V0l1-1v12.728c.321.159.652.272 1 .272s.679-.113 1-.272V-1l1 1v10.953a5.53 5.53 0 00.701-.953h1.107c-.917 1.833-2.281 3-3.808 3z" fill="#514B43"/><path fill-rule="evenodd" clip-rule="evenodd" d="M1.082.584C-.478.076-1.578-.022-3.731.555c-.03-.012-.244-.954-.26-.97C-1.093-1.19-.004-.907 1.211-.69c1.09.195 2.28.338 4.965-.382L6.695.864c-1.218.326-4.054.23-5.613-.28zm13.531 0c1.559-.508 2.66-.606 4.813-.029.03-.012.244-.954.26-.97-2.898-.776-3.988-.493-5.203-.275-1.089.195-2.28.338-4.964-.382L9 .864c1.218.326 4.053.23 5.613-.28z" fill="#514B43"/><path fill-rule="evenodd" clip-rule="evenodd" d="M14.5 3a1.5 1.5 0 11.001-3.001A1.5 1.5 0 0114.5 3zm-13 0a1.5 1.5 0 11.001-3.001A1.5 1.5 0 011.5 3z" fill="#514B43"/><path fill-rule="evenodd" clip-rule="evenodd" d="M15 8a5 5 0 11.001-10.001A5 5 0 0115 8zm0-9a4 4 0 100 8 4 4 0 000-8zM1 8a5 5 0 11.001-10.001A5 5 0 011 8zm0-9a4 4 0 100 8 4 4 0 000-8z" fill="#514B43"/></g><defs><clipPath id="clip0_457_11016"><path fill="#fff" d="M0 0h16v16H0z"/></clipPath></defs></svg>