<svg xmlns="http://www.w3.org/2000/svg" xmlns:xlink="http://www.w3.org/1999/xlink"><symbol viewBox="0 0 16 16" id="icon-chevron" xmlns="http://www.w3.org/2000/svg"><path fill-opacity=".38" fill-rule="evenodd" d="M5 3.41L6.41 2l6 6-6 6L5 12.59 9.58 8z"/></symbol><symbol viewBox="0 0 24 24" id="icon-close" xmlns="http://www.w3.org/2000/svg"><defs><filter id="aba" width="291.7%" height="291.7%" x="-95.8%" y="-62.5%" filterUnits="objectBoundingBox"><feMorphology in="SourceAlpha" radius=".5" result="shadowSpreadOuter1"/><feOffset dy="3" in="shadowSpreadOuter1" result="shadowOffsetOuter1"/><feGaussianBlur in="shadowOffsetOuter1" result="shadowBlurOuter1" stdDeviation="3"/><feColorMatrix in="shadowBlurOuter1" result="shadowMatrixOuter1" values="0 0 0 0 0 0 0 0 0 0 0 0 0 0 0 0 0 0 0.08 0"/><feMorphology in="SourceAlpha" radius=".5" result="shadowSpreadOuter2"/><feOffset dy="5" in="shadowSpreadOuter2" result="shadowOffsetOuter2"/><feGaussianBlur in="shadowOffsetOuter2" result="shadowBlurOuter2" stdDeviation="5"/><feColorMatrix in="shadowBlurOuter2" result="shadowMatrixOuter2" values="0 0 0 0 0 0 0 0 0 0 0 0 0 0 0 0 0 0 0.12 0"/><feMerge><feMergeNode in="shadowMatrixOuter1"/><feMergeNode in="shadowMatrixOuter2"/></feMerge></filter><circle id="abb" cx="12" cy="12" r="12"/></defs><g fill="none" fill-rule="evenodd"><use fill="#000" filter="url(#aba)" xlink:href="#abb"/><use fill="#F1F4F8" xlink:href="#abb"/><path fill="#B5B8BC" d="M12.615 12L16 15.385l-.615.615L12 12.615 8.615 16 8 15.385 11.385 12 8 8.615 8.615 8 12 11.385 15.385 8l.615.615L12.615 12z"/></g></symbol><symbol viewBox="0 0 16 16" id="icon-comment" xmlns="http://www.w3.org/2000/svg"><g fill="#B5B8BC" fill-rule="evenodd"><path d="M4 10h5l-5 5z"/><ellipse cx="8" cy="6" rx="8" ry="6"/></g></symbol><symbol viewBox="0 0 16 16" id="icon-error" xmlns="http://www.w3.org/2000/svg"><g fill="none" fill-rule="evenodd"><path fill="#FF400D" d="M15.996 11.317L11.311 16H4.685L0 11.317V4.694L4.685.011h6.626l4.685 4.683z"/><path fill="#FFF" d="M11 11.01h-.707L8 8.718 5.707 11.01H5v-.706l2.293-2.293L5 5.72v-.707h.707L8 7.305l2.293-2.292H11v.706L8.707 8.011 11 10.304z"/></g></symbol><symbol viewBox="0 0 16 16" id="icon-flag-ru" xmlns="http://www.w3.org/2000/svg"><g fill="none" fill-rule="evenodd"><path fill="#F1F4F8" d="M0 3h15v11H0z"/><path fill="#F13B10" d="M0 10h15v4H0z"/><path fill="#007AC4" d="M0 7h15v3H0z"/><path d="M0 3h15v11H0V3zm1 1h13v9H1V4z" fill-opacity=".12" fill="#000"/></g></symbol><symbol viewBox="0 0 16 16" id="icon-flag-us" xmlns="http://www.w3.org/2000/svg"><g fill="none" fill-rule="evenodd"><path fill="#F1F4F8" d="M0 3h15v11H0z"/><path d="M8 3h7v1H8V3zm0 2h7v1H8V5zm0 2h7v1H8V7zm0 2h7v1H8V9zm-8 2h15v1H0v-1zm0 2h15v1H0v-1z" fill="#CD1D28"/><path fill="#0E2E64" d="M0 3h8v7H0z"/><path d="M1 3h1v1H1V3zm2 0h1v1H3V3zm2 0h1v1H5V3zm2 0h1v1H7V3zM2 4h1v1H2V4zM0 4h1v1H0V4zm4 0h1v1H4V4zm2 0h1v1H6V4zM3 5h1v1H3V5zM1 5h1v1H1V5zm4 0h1v1H5V5zm2 0h1v1H7V5zM2 6h1v1H2V6zM0 6h1v1H0V6zm4 0h1v1H4V6zm2 0h1v1H6V6zM3 7h1v1H3V7zM1 7h1v1H1V7zm4 0h1v1H5V7zm2 0h1v1H7V7zM2 8h1v1H2V8zM0 8h1v1H0V8zm4 0h1v1H4V8zm2 0h1v1H6V8zM3 9h1v1H3V9zM1 9h1v1H1V9zm4 0h1v1H5V9zm2 0h1v1H7V9z" fill="#8799B7"/><path d="M0 3h15v11H0V3zm1 1h13v9H1V4z" fill-opacity=".12" fill="#000"/></g></symbol><symbol viewBox="0 0 16 16" id="icon-label-details" xmlns="http://www.w3.org/2000/svg"><g fill="none" fill-rule="evenodd"><path fill="#B5B8BC" d="M11.7 15.3c-.4.4-1.1.7-1.7.7H3c-.5 0-1-.4-1-1V1c0-.6.5-1 1-1h10c.5 0 1 .4 1 1v11c0 .5-.3 1.3-.7 1.7l-1.6 1.6z"/><path fill="#F1F4F8" d="M3 15V1h10v11.6L10.6 15z"/><path fill="#FFF" d="M12.6 13L11 14.6V13z"/><path fill="#B5B8BC" d="M13 12h-3v3h1v-2h2z"/><path fill="#B5B8BC" fill-rule="nonzero" d="M5 4h6v1H5zm0 2h6v1H5zm0 2h4v1H5z"/></g></symbol><symbol viewBox="0 0 16 16" id="icon-label-email" xmlns="http://www.w3.org/2000/svg"><g fill="none" fill-rule="evenodd"><path fill="#F1F4F8" d="M0 3h16v11H0z"/><path fill="#B5B8BC" d="M0 3h16v11H0V3zm10.689 5.302l4.323 3.421v-7.66l-4.323 4.239zM15.012 13v-.42l-4.497-4.108-1.488 1.459a1.542 1.542 0 01-2.06 0L5.485 8.478l-4.476 4.088V13h14.003zM1.009 11.71L5.31 8.307 1.009 4.089v7.621zm.486-7.705l5.472 4.523c.569.505 1.491.505 2.06 0l5.472-4.523H1.495z"/></g></symbol><symbol viewBox="0 0 16 16" id="icon-label-more" xmlns="http://www.w3.org/2000/svg"><g fill="none" fill-rule="evenodd"><circle cx="8" cy="8" r="8" fill="#B5B8BC"/><circle cx="8" cy="8" r="7" fill="#F1F4F8"/><path fill="#B5B8BC" d="M7 4h2v8H7z"/><path fill="#B5B8BC" d="M12 7v2H4V7z"/></g></symbol><symbol viewBox="0 0 12 16" id="icon-label-name" xmlns="http://www.w3.org/2000/svg"><g fill="none" fill-rule="evenodd"><path fill="#B5B8BC" d="M12 11.003V12H0v-.997A3 3 0 012.997 8h6.006A2.999 2.999 0 0112 11.003zM3 3.01A3.007 3.007 0 016 0c1.657 0 3 1.35 3 3.01v.98A3.007 3.007 0 016 7C4.343 7 3 5.65 3 3.99v-.98z"/><path fill="#F1F4F8" fill-rule="nonzero" stroke="#B5B8BC" d="M.5 13.5h11v2H.5z"/><path fill="#F1F4F8" d="M4 3.005a2 2 0 114 0v.99a2 2 0 11-4 0v-.99z"/><path fill="#B5B8BC" d="M8 .767A2.983 2.983 0 006 0C4.347 0 3 1.347 3 3.01v.223C3.53 3.71 4.232 4 5 4 6.653 4 8 2.653 8 .99V.768z"/></g></symbol><symbol viewBox="0 0 16 16" id="icon-label-phone" xmlns="http://www.w3.org/2000/svg"><g fill="none" fill-rule="evenodd"><path d="M13 16H4a1 1 0 01-1-1V1a1 1 0 011-1h9a1 1 0 011 1v14a1 1 0 01-1 1z" fill="#B5B8BC"/><path fill="#E7EAEE" d="M13 2H4v12h9z"/><path d="M11 12H6v-1h5v1zM6 3h1v1H6V3zm4 0h1v1h-1V3zM8 3h1v1H8V3zM6 5h1v1H6V5zm4 0h1v1h-1V5zM8 5h1v1H8V5zM6 7h1v1H6V7zm4 0h1v1h-1V7zM8 7h1v1H8V7zM6 9h1v1H6V9zm4 0h1v1h-1V9zM8 9h1v1H8V9z" fill="#B5B8BC"/></g></symbol><symbol viewBox="0 0 16 16" id="icon-search" xmlns="http://www.w3.org/2000/svg"><path d="M16.018 13.257l-2.5 2.453-3.501-3.435-.177-1.913c-2.356 1.948-5.865 1.86-8.084-.317a5.808 5.808 0 010-8.322c2.342-2.297 6.138-2.297 8.479 0 2.216 2.174 2.308 5.611.332 7.924l1.95.174 3.5 3.436zM8.823 3.097a4.056 4.056 0 00-5.657 0 3.875 3.875 0 000 5.552 4.054 4.054 0 005.657 0 3.877 3.877 0 000-5.553z"/></symbol><symbol viewBox="0 0 16 16" id="icon-share" xmlns="http://www.w3.org/2000/svg"><path d="M7 6H3.996A.995.995 0 003 6.995v8.01c0 .54.446.995.996.995h9.008a.995.995 0 00.996-.995v-8.01c0-.54-.446-.995-.996-.995H10v1h3v8H4V7h3V6zm5-1.707l-3-3V1H8v.293l-.03.03L5 4.293V5h.707L8 2.707V11h1V2.707L11.293 5H12v-.707z" fill="#B5B8BC" fill-rule="evenodd"/></symbol><symbol viewBox="0 0 16 16" id="icon-skype" xmlns="http://www.w3.org/2000/svg"><path d="M11.606 16.02a4.31 4.31 0 01-2.311-.672 7.383 7.383 0 01-1.333.126c-4.048 0-7.328-3.328-7.328-7.435 0-.398.032-.79.092-1.172A4.486 4.486 0 01.021 4.44c0-2.464 1.956-4.459 4.372-4.461.881 0 1.699.266 2.387.724A7.154 7.154 0 017.96.605c4.047 0 7.327 3.33 7.327 7.434 0 .343-.024.678-.068 1.009.481.717.76 1.581.76 2.512 0 2.463-1.956 4.46-4.373 4.46zM7.042 6.608c-2.118-.525-.958-2.374.757-2.346 1.665.027 2.513 1.821 3.266 1.727.756-.093 1.399-1.247.211-2.282-1.026-.895-2.328-1.388-4.325-1.204-1.566.145-3.053 1.174-3.237 3.178-.181 2.005 2.15 3.024 3.995 3.304 1.294.194 3.056.833 1.995 2.066-.971 1.134-2.813.432-3.296.125-.484-.312-1.03-1.421-1.937-1.361-.909.062-1.356 1.28-.241 2.347.999.954 2.088 1.482 4.417 1.356 2.33-.124 4.418-2.22 3.6-4.197-.818-1.973-3.086-2.189-5.205-2.713z" fill="#B5B8BC" fill-rule="evenodd"/></symbol><symbol viewBox="0 0 16 16" id="icon-social-facebook-original" xmlns="http://www.w3.org/2000/svg"><path d="M14 15H2a1 1 0 01-1-1V2a1 1 0 011-1h12a1 1 0 011 1v12a1 1 0 01-1 1zM12.826 3.198a14.935 14.935 0 00-1.631-.083c-1.613 0-2.717.984-2.717 2.792v1.559H6.653v2.113h1.825V15h2.182V9.579h1.82l.272-2.113H10.66V6.117c0-.612.17-1.029 1.047-1.029h1.119v-1.89z" fill="#FFF" fill-rule="evenodd"/></symbol><symbol viewBox="0 0 24 16" id="icon-social-google" xmlns="http://www.w3.org/2000/svg"><g fill="#DB462F" fill-rule="evenodd"><path d="M12 7.5a5.5 5.5 0 11-1.61-3.89L8.974 5.026A3.5 3.5 0 109.965 7h2.013c.014.165.022.331.022.5z"/><path d="M7 7h5l-1 2H7zm10 0V5h-1v2h-2v1h2v2h1V8h2V7zm5 5h1V3h-1c0 1-2 1-2 1v1h2v7z"/></g></symbol><symbol viewBox="0 0 16 16" id="icon-social-linkedin" xmlns="http://www.w3.org/2000/svg"><path d="M16 15V7.994A3.004 3.004 0 0012.99 5h-.98C10.35 5 9 6.34 9 7.994V15 9.99A1.99 1.99 0 0111 8a2 2 0 012 1.99V15h3zM1 5h3v10H1V5zm5 0h3v10H6V5zM2.5 4a2 2 0 100-4 2 2 0 000 4z" fill="#FFF" fill-rule="evenodd"/></symbol><symbol viewBox="0 0 16 16" id="icon-social-pocket" xmlns="http://www.w3.org/2000/svg"><path d="M12.533 6.864L8.77 10.4a1.108 1.108 0 01-1.52 0L3.488 6.865a1.061 1.061 0 01-.032-1.52 1.112 1.112 0 011.55-.032l3.006 2.823 3.004-2.823a1.113 1.113 0 011.55.032c.42.43.406 1.11-.03 1.52l-.003-.001zm3.388-4.928A1.452 1.452 0 0014.558 1H1.45c-.596 0-1.14.368-1.354.917A1.377 1.377 0 000 2.422v4.73l.055.94c.232 2.14 1.366 4.01 3.12 5.314.03.024.063.047.094.07l.02.013a7.98 7.98 0 003.128 1.353 8.2 8.2 0 003.064.024c.058-.01.116-.022.175-.034a.216.216 0 00.05-.018 7.99 7.99 0 003.003-1.326l.02-.015c.032-.022.064-.045.096-.07 1.753-1.303 2.887-3.173 3.12-5.312l.054-.94v-4.73c0-.165-.02-.327-.08-.487l.002.002z" fill="#FFF" fill-rule="evenodd"/></symbol><symbol viewBox="0 0 16 16" id="icon-social-rss" xmlns="http://www.w3.org/2000/svg"><path d="M2 .74v2.518l.324-.071A8.272 8.272 0 014 3a9 9 0 019 9c0 .577-.074 1.133-.186 1.676l-.072.324 2.516.001a4.01 4.01 0 01-1.99 1.628 5.858 5.858 0 01-1.612.355l-.332.016H4.71a5.858 5.858 0 01-1.944-.371 3.948 3.948 0 01-1.423-.923 4.093 4.093 0 01-.922-1.424 5.873 5.873 0 01-.37-1.947l-.028-.525a35.45 35.45 0 01-.022-1.457L0 4.685a5.873 5.873 0 01.39-1.946A4.012 4.012 0 011.805.873L2 .74zM4 10a2 2 0 10.001 4.001A2 2 0 004 10zm0-5a6.55 6.55 0 00-1.68.226L2 5.318v3.255l.2-.112A3.832 3.832 0 014 8a4 4 0 014 4c0 .655-.175 1.26-.46 1.8l-.112.2h3.255l.092-.32A6.56 6.56 0 0011 12a7 7 0 00-7-7zm7.294-5a5.858 5.858 0 011.945.391c.533.205 1.018.52 1.423.923.406.402.721.889.922 1.425.233.623.358 1.28.37 1.946l.03.395c.034.589.004 1.08 0 2.683v3.603C15.662 5.19 10.669.248 4.47.01L4.68 0h6.614z"/></symbol><symbol viewBox="0 0 17 16" id="icon-social-telegram" xmlns="http://www.w3.org/2000/svg"><path fill="#FFF" d="M16.47 1.526l-2.715 13.126a.434.434 0 01-.68.264l-3.707-2.704a.61.61 0 00-.747.02l-2.055 1.684a.433.433 0 01-.69-.208L4.45 9.096.763 7.713a.438.438 0 01-.005-.817l15.13-5.866a.435.435 0 01.583.496zM12.853 3.9L5.646 8.36a.73.73 0 00-.317.82l.78 2.75c.055.196.336.176.363-.026l.203-1.508c.038-.284.173-.546.382-.741L13.003 4.1c.111-.104-.022-.28-.151-.2z"/></symbol><symbol viewBox="0 0 16 16" id="icon-social-telegram-v2" xmlns="http://www.w3.org/2000/svg"><path fill-rule="evenodd" d="M8 0a8 8 0 110 16A8 8 0 018 0zm3.815 5.202c.062-.698-.589-.52-.734-.472l-2.364.981-5.388 2.22c-.948.37-.393.716-.393.716l.94.311c.185.059.378.12.563.175.533.16.875.06 1.005.005l.058-.028 3.26-2.197c1.157-.786.88-.139.602.139a88.18 88.18 0 01-2.428 2.312c-.37.324-.185.601-.023.74.6.509 2.243 1.55 2.335 1.618l.098.07c.226.148.73.424 1.058.347.286-.068.389-.367.424-.526l.594-3.729.307-2.014c.046-.311.077-.546.086-.668z"/></symbol><symbol viewBox="0 0 24 16" id="icon-social-twitter" xmlns="http://www.w3.org/2000/svg"><path d="M21.457 1.775a7.563 7.563 0 01-2.174.597A3.798 3.798 0 0020.947.277a7.577 7.577 0 01-2.404.919A3.787 3.787 0 0012.09 4.65 10.749 10.749 0 014.285.693a3.763 3.763 0 00-.512 1.904c0 1.313.668 2.472 1.684 3.152a3.781 3.781 0 01-1.715-.474v.047a3.79 3.79 0 003.037 3.714 3.791 3.791 0 01-1.71.064 3.791 3.791 0 003.537 2.63A7.6 7.6 0 013 13.3 10.722 10.722 0 008.805 15c6.965 0 10.774-5.77 10.774-10.774a9.93 9.93 0 00-.011-.49 7.703 7.703 0 001.89-1.96z" fill="#FFF" fill-rule="evenodd"/></symbol><symbol viewBox="0 0 24 16" id="icon-social-vk" xmlns="http://www.w3.org/2000/svg"><path d="M23.873 12.334a1.67 1.67 0 00-.081-.156c-.416-.748-1.212-1.666-2.387-2.754l-.024-.025-.013-.013-.012-.012h-.013c-.533-.507-.871-.848-1.012-1.022-.259-.333-.317-.67-.175-1.01.099-.257.475-.801 1.124-1.632.342-.441.613-.794.812-1.06 1.442-1.911 2.067-3.132 1.875-3.664l-.075-.124c-.05-.075-.179-.143-.387-.206-.208-.062-.475-.072-.8-.031L19.107.65a.463.463 0 00-.25.006l-.163.038-.063.03-.049.038a.561.561 0 00-.138.13.87.87 0 00-.125.219 20.189 20.189 0 01-1.337 2.804c-.308.516-.591.962-.85 1.34-.258.378-.474.657-.649.835a4.462 4.462 0 01-.475.43c-.142.108-.25.154-.325.137-.075-.017-.146-.033-.213-.05a.836.836 0 01-.281-.305 1.367 1.367 0 01-.143-.486 5.27 5.27 0 01-.044-.505 10.77 10.77 0 01.006-.598c.009-.258.013-.432.013-.524 0-.315.006-.658.018-1.028.013-.37.023-.663.032-.878.008-.217.012-.445.012-.686 0-.241-.015-.43-.044-.567a1.846 1.846 0 00-.131-.4.67.67 0 00-.256-.298 1.413 1.413 0 00-.418-.168c-.442-.1-1.004-.154-1.687-.162C9.997-.015 9.002.085 8.56.3a1.68 1.68 0 00-.475.374c-.15.182-.171.282-.062.299.499.074.853.253 1.062.536l.075.149c.058.108.116.299.175.574.058.274.096.577.112.909a9.58 9.58 0 010 1.558c-.042.432-.081.769-.119 1.01a1.988 1.988 0 01-.168.585c-.075.15-.125.24-.15.275a.208.208 0 01-.063.062.945.945 0 01-.337.062c-.117 0-.258-.058-.425-.174a3.062 3.062 0 01-.519-.48 6.427 6.427 0 01-.606-.854 14.683 14.683 0 01-.699-1.296l-.2-.362a31.153 31.153 0 01-.513-1.015 19.838 19.838 0 01-.574-1.29.823.823 0 00-.3-.4L4.711.787a.86.86 0 00-.2-.106A1.31 1.31 0 004.224.6L.8.624C.45.624.213.703.088.86l-.05.075a.402.402 0 00-.038.2c0 .092.025.204.075.337a40.94 40.94 0 001.631 3.39c.587 1.088 1.097 1.965 1.53 2.629.434.665.875 1.293 1.325 1.882.45.59.748.968.893 1.135.146.166.261.29.344.373l.313.3c.2.199.493.438.881.716.387.279.816.553 1.287.823.47.27 1.018.49 1.643.66a5.681 5.681 0 001.824.206h1.438c.291-.025.512-.116.662-.274l.05-.063a.83.83 0 00.093-.23c.029-.104.044-.218.044-.343a4.08 4.08 0 01.081-.965c.062-.287.133-.503.213-.648a1.581 1.581 0 01.481-.55.741.741 0 01.1-.042c.2-.067.435-.002.706.193.271.195.525.436.762.723.238.287.523.608.856.966.334.357.625.623.875.797l.25.15c.167.1.383.19.65.274.266.083.499.104.699.062l3.199-.05c.317 0 .563-.052.737-.155.175-.104.279-.218.313-.343a.968.968 0 00.006-.424 1.512 1.512 0 00-.088-.33z" fill="#FFF" fill-rule="evenodd"/></symbol><symbol viewBox="0 0 16 16" id="icon-social-whatsapp" xmlns="http://www.w3.org/2000/svg"><g fill="#FFF" fill-rule="evenodd"><path d="M7.89 0A7.662 7.662 0 00.226 7.664c0 2.102 1.113 3.98 1.113 3.98L0 15.72l4.198-1.342s1.56.945 3.692.945A7.662 7.662 0 107.89 0zm0 14.099c-1.972 0-3.547-1.066-3.547-1.066l-2.422.793.785-2.343S1.451 9.748 1.451 7.664a6.438 6.438 0 0112.877 0 6.435 6.435 0 01-6.438 6.435z"/><path d="M4.972 4.325s.208-.131.317-.131h.604s.163.029.236.196c.073.168.582 1.364.622 1.459.036.09.138.32-.022.524-.16.203-.49.585-.49.585s-.132.117-.02.306c.114.189.514.807 1.038 1.277.523.469 1.164.814 1.484.92.32.105.389-.037.513-.193l.501-.64s.131-.193.39-.073c.258.117 1.513.728 1.513.728a.2.2 0 00.16.196c.007.171.113.68-.342 1.171s-1.422.72-1.88.59c-.459-.128-1.976-.524-2.961-1.448-.99-.92-1.79-1.892-2.117-2.608-.328-.717-.31-1.139-.291-1.339.018-.2.123-1.12.745-1.52z"/></g></symbol><symbol viewBox="0 0 16 16" id="icon-success" xmlns="http://www.w3.org/2000/svg"><path fill="#00A666" fill-rule="evenodd" d="M1.871 6.592L0 8.312 6.269 15S8.982 7.739 16 1.338C15.251.764 15.064 0 15.064 0S8.047 5.924 5.801 9.841c-.777-.456-3.93-3.249-3.93-3.249z"/></symbol><symbol viewBox="0 0 32 32" id="icon-swipe" xmlns="http://www.w3.org/2000/svg"><path d="M22.416 3.544a28.642 28.642 0 017.857 2.493.421.421 0 01.24.45l-.424 3.2a.426.426 0 01-.42.37.42.42 0 01-.199-.052 24.793 24.793 0 00-6.774-2.445l-.28-4.016zm4.29 12.149a1.573 1.573 0 011.367 2.355L21.08 30.364A3.128 3.128 0 0118.33 32h-7.597a3.127 3.127 0 01-3.099-2.705l-1.239-9.277a3.129 3.129 0 011.855-3.29l6.915-3.06.915-12.25a1.575 1.575 0 013.144.158l.66 16.954a1.572 1.572 0 002.757 1.031l2.904-3.357a1.57 1.57 0 011.16-.511zM1.123 8.808v-.002l5.72-5.846v.002a.425.425 0 01.697.155l.562 1.702c1.446-.534 2.93-.93 4.46-1.204l-.152 4.006a25.018 25.018 0 00-3.034.859l.55 1.607a.423.423 0 01-.456.55l-8.1-1.132c-.202 0-.37-.18-.37-.399 0-.116.048-.221.123-.298z"/></symbol><symbol viewBox="0 0 16 16" id="icon-tag" xmlns="http://www.w3.org/2000/svg"><path d="M7.648 15.414a1.995 1.995 0 01-2.825 0L.585 11.168a2.004 2.004 0 010-2.83L8.906 0H16v7.045l-8.352 8.369zm4.856-13.412a1.5 1.5 0 000 3.002 1.5 1.5 0 001.498-1.501 1.5 1.5 0 00-1.498-1.501z" fill="#B5B8BC" fill-rule="evenodd"/></symbol><symbol viewBox="0 0 32 32" id="icon-warning-32" xmlns="http://www.w3.org/2000/svg"><g fill="none" fill-rule="evenodd"><path fill="#FFCC19" d="M14.436 3.11c.86-1.48 2.268-1.48 3.128 0l14.068 24.22c.86 1.48.16 2.692-1.564 2.692H1.931c-1.72 0-2.424-1.211-1.564-2.692l14.07-24.218z"/><path fill="#000" fill-opacity=".38" d="M16 22a2 2 0 11-2 2 2 2 0 012-1.996V22zm1.125-2h-2.25l-.375-8h3l-.375 8z" opacity=".64"/><path fill="#000" fill-opacity=".87" d="M16 21a2 2 0 11-2 2 2 2 0 012-1.996V21zm1.125-2h-2.25l-.375-8h3l-.375 8z" opacity=".64"/></g></symbol></svg>