<svg xmlns="http://www.w3.org/2000/svg" xmlns:xlink="http://www.w3.org/1999/xlink" width="430" height="192" viewBox="0 0 430 192"><defs><path id="bg-about-marketing-agency-a" d="M59.5 96C79.658 96 96 79.658 96 59.5S79.658 23 59.5 23 23 39.342 23 59.5 39.342 96 59.5 96z"/><mask id="bg-about-marketing-agency-b" width="73" height="73" x="0" y="0" fill="#fff"><use xlink:href="#bg-about-marketing-agency-a"/></mask></defs><g fill="none" fill-rule="evenodd"><path fill="#E5A600" fill-rule="nonzero" d="M393.5 0C373.342 0 357 16.342 357 36.5S373.342 73 393.5 73 430 56.658 430 36.5 413.658 0 393.5 0zm0 69C375.55 69 361 54.45 361 36.5S375.55 4 393.5 4 426 18.55 426 36.5A32.5 32.5 0 01393.5 69z"/><path fill="#E5A600" fill-rule="nonzero" d="M412 36.5l-17.18-1.23L393.5 13l-1.32 22.09L391 35v3l1.05-.07L392 39h3l-.06-1.28z"/><path fill="#E5A600" fill-rule="nonzero" d="M389.82 10.87v-.54a3.06 3.06 0 001.06-.24 1.24 1.24 0 00.45-.83h.55v5.57h-.75v-4l-1.31.04zm4.23 2.71a2.39 2.39 0 011-1l.75-.43a3.7 3.7 0 00.71-.5 1.1 1.1 0 000-1.52 1.09 1.09 0 00-.78-.29 1 1 0 00-1 .55 1.92 1.92 0 00-.17.81h-.71a2.36 2.36 0 01.27-1.19 1.68 1.68 0 011.61-.81 1.67 1.67 0 011.85 1.68 1.54 1.54 0 01-.48 1.14c-.3.272-.637.5-1 .68l-.53.29a2.94 2.94 0 00-.6.41 1.37 1.37 0 00-.49.75h3.05v.66h-3.84c.04-.43.161-.847.36-1.23zm.87 45.12c.232.282.362.635.37 1h-.69a1.35 1.35 0 00-.2-.51.88.88 0 00-.77-.36 1.07 1.07 0 00-.94.55 3.18 3.18 0 00-.39 1.56c.15-.23.361-.414.61-.53a1.71 1.71 0 01.75-.16 1.83 1.83 0 011.23.45c.367.345.558.838.52 1.34a2 2 0 01-.49 1.35 1.77 1.77 0 01-1.42.59 1.8 1.8 0 01-1.35-.6 2.83 2.83 0 01-.57-2 5.35 5.35 0 01.25-1.77 1.8 1.8 0 011.79-1.39 1.54 1.54 0 011.3.48zm-.53 4.28a1.4 1.4 0 00.28-.88 1.46 1.46 0 00-.25-.82 1 1 0 00-.89-.39 1.1 1.1 0 00-1.14 1.21c-.006.324.104.64.31.89.218.243.534.375.86.36a1 1 0 00.83-.35v-.02zm-28.05-25.5a.88.88 0 00.45.8 1 1 0 00.48.12c.336 0 .653-.155.86-.42a3.35 3.35 0 00.5-1.71 1.23 1.23 0 01-.58.53 1.81 1.81 0 01-.74.15 1.66 1.66 0 01-1.28-.51 1.81 1.81 0 01-.47-1.29 2.07 2.07 0 01.47-1.34 1.63 1.63 0 011.37-.58 1.69 1.69 0 011.68 1.1c.19.483.279 1 .26 1.52a4.93 4.93 0 01-.31 1.82A1.78 1.78 0 01367.3 39a1.72 1.72 0 01-1.25-.43 1.49 1.49 0 01-.42-1.08l.71-.01zm1.83-1.43a1.15 1.15 0 00.34-1 1.23 1.23 0 00-.31-.92 1.08 1.08 0 00-.79-.3 1.06 1.06 0 00-.82.35 1.36 1.36 0 00-.3.92c-.015.313.08.62.27.87a1 1 0 00.84.32c.277.013.55-.072.77-.24zm49.74 2.39a2 2 0 01-.44-1.33h.73c.006.275.074.545.2.79.227.32.61.493 1 .45.324.016.642-.09.89-.3a1 1 0 00.34-.77.92.92 0 00-.35-.81 1.86 1.86 0 00-1-.23H419v-.62h.35c.224.01.447-.035.65-.13a.79.79 0 00.44-.78.75.75 0 00-.3-.64 1.08 1.08 0 00-.69-.23 1 1 0 00-1 .47 1.72 1.72 0 00-.17.74h-.69a2.09 2.09 0 01.25-1.07 1.57 1.57 0 011.51-.78 2.05 2.05 0 011.32.38c.325.274.5.686.47 1.11a1.19 1.19 0 01-.28.83 1 1 0 01-.44.31 1.3 1.3 0 01.69.47c.17.25.257.548.25.85a1.72 1.72 0 01-.53 1.3 2.07 2.07 0 01-1.5.51 1.78 1.78 0 01-1.42-.52zm-3.09-12.86a2.48 2.48 0 011-1l.75-.43a3.56 3.56 0 00.7-.5 1.07 1.07 0 000-1.52 1.06 1.06 0 00-.78-.29 1 1 0 00-1 .55 1.93 1.93 0 00-.16.81h-.72a2.58 2.58 0 01.27-1.19 1.69 1.69 0 011.61-.81 1.74 1.74 0 011.41.52c.282.32.438.733.44 1.16a1.57 1.57 0 01-.47 1.14 4.63 4.63 0 01-1 .68l-.54.29a3.63 3.63 0 00-.6.41 1.43 1.43 0 00-.49.75h3.06v.66h-3.84a3.15 3.15 0 01.36-1.23zm-47-2.71v-.54a3.06 3.06 0 001.06-.24 1.24 1.24 0 00.45-.83h.55v5.57h-.75v-4l-1.31.04zm7.41-.74a4.05 4.05 0 01.38 1.9 4.53 4.53 0 01-.34 1.89 1.68 1.68 0 01-1.61 1.07 1.63 1.63 0 01-1.5-.88 4.05 4.05 0 01-.41-2 4.71 4.71 0 01.25-1.64 1.67 1.67 0 011.66-1.27 1.65 1.65 0 011.57.93zm-.7 3.73a3.56 3.56 0 00.32-1.8 4.61 4.61 0 00-.23-1.57.9.9 0 00-.91-.62 1 1 0 00-.91.59 3.89 3.89 0 00-.29 1.72 4.24 4.24 0 00.18 1.37 1 1 0 001.84.31zM405 13.87v-.54a3 3 0 001.06-.24 1.24 1.24 0 00.45-.83h.56v5.57h-.75v-4l-1.32.04zm-26.89 0v-.54a3 3 0 001.06-.24 1.24 1.24 0 00.45-.83h.56v5.57h-.75v-4l-1.32.04zm3.89 0v-.54a3 3 0 001.06-.24 1.24 1.24 0 00.45-.83h.49v5.57h-.75v-4l-1.25.04zm24.26 44.54a1 1 0 00.56.83c.182.083.38.124.58.12a1.1 1.1 0 00.93-.4c.195-.252.3-.562.3-.88a1.15 1.15 0 00-.36-.91 1.25 1.25 0 00-.86-.32 1.32 1.32 0 00-.62.14 1.26 1.26 0 00-.44.39h-.61l.42-3h2.91V55h-2.38l-.24 1.56a1.49 1.49 0 01.37-.22 1.81 1.81 0 01.72-.13 1.85 1.85 0 011.31.49c.353.322.546.783.53 1.26a2.15 2.15 0 01-.49 1.4 1.88 1.88 0 01-1.56.6 2 2 0 01-1.21-.38 1.53 1.53 0 01-.59-1.18l.73.01zm-23.8-4.08V55a5.92 5.92 0 00-.72.91 9 9 0 00-.79 1.4 8.09 8.09 0 00-.51 1.33c-.08.26-.18.67-.3 1.24h-.77a9.26 9.26 0 011.17-3.18 9.87 9.87 0 011.12-1.61h-3.09v-.71l3.89-.05zm34.47-2.5v-1.36h-2.45v-.69l2.56-3.56h.59v3.63h.83v.62h-.83v1.36h-.7zm0-2v-2.54l-1.79 2.54h1.79zM370 48.56a1.09 1.09 0 01-.31-.81 1.47 1.47 0 01.45-1.08 1.74 1.74 0 011.28-.45 1.82 1.82 0 011.27.43c.289.251.453.617.45 1a1.35 1.35 0 01-.26.85 1.84 1.84 0 01-.46.36c.203.082.387.204.54.36.253.27.39.63.38 1a1.74 1.74 0 01-.5 1.25 1.87 1.87 0 01-1.4.51 2.11 2.11 0 01-1.38-.44 1.53 1.53 0 01-.57-1.29c-.01-.303.078-.6.25-.85a1.55 1.55 0 01.71-.56 1.4 1.4 0 01-.45-.28zm2.26 2.53a1 1 0 00.33-.79 1 1 0 00-.34-.82 1.25 1.25 0 00-.85-.28 1.18 1.18 0 00-.82.28 1 1 0 00-.32.8c-.003.278.1.547.29.75.24.232.568.349.9.32a1.2 1.2 0 00.85-.26h-.04zm-.13-2.77a.81.81 0 000-1.19 1 1 0 00-.76-.27.92.92 0 00-.74.27.9.9 0 00-.22.61.72.72 0 00.29.62c.198.15.442.228.69.22a.94.94 0 00.78-.26h-.04z"/><path stroke="#E5A600" d="M393.5 5v2m3.29-1.83l-.21 2m3.47-1.47l-.42 1.95m3.6-1.1l-.61 1.9m3.69-.72l-.81 1.83m3.75-.33l-1 1.73M412 11l-1.18 1.61m3.74.46l-1.34 1.49m3.67.84l-1.49 1.34M419 18l-1.61 1.18m3.41 1.59l-1.73 1m3.23 1.94l-1.83.81m3 2.27l-1.9.61m2.75 2.57l-1.95.42m2.47 2.84l-2 .21M425 36.5h-2m1.83 3.29l-2-.21m1.47 3.47l-1.95-.42m-.8 3l1.9.61m-1.18 3.08l-1.83-.81m-1.4 2.75l1.73 1M419 55l-1.61-1.18m-.46 3.74l-1.49-1.34m-.84 3.67l-1.34-1.49M412 62l-1.18-1.61m-1.59 3.41l-1-1.73m-1.94 3.23l-.81-1.83m-2.27 3l-.61-1.9m-2.57 2.75l-.42-1.95m-2.84 2.47l-.21-2M393.5 68v-2m-3.29 1.83l.21-2M387 67.31l.42-1.95m-3.6 1.1l.61-1.9m-3.69.72l.81-1.83m-2.75-1.4l-1 1.73M375 62l1.18-1.61m-3.74-.46l1.34-1.49m-3.67-.84l1.49-1.34M368 55l1.61-1.18m-3.41-1.59l1.73-1m-3.23-1.94l1.83-.81m-3-2.27l1.9-.61m-2.75-2.57l1.95-.42m-.48-3l-2 .21M362 36.5h2m.16-3.08l-2-.21m2.47-2.84l-1.95-.42m.85-3.18l1.9.61m-.72-3.69l1.83.81m-.33-3.75l1.73 1M368 18l1.61 1.18m.46-3.74l1.49 1.34m.84-3.67l1.34 1.49M375 11l1.18 1.61m1.59-3.41l1 1.73m1.94-3.23l.81 1.83m2.27-3l.61 1.9m2.57-2.75l.42 1.95m3-.48l-.21-2"/><g fill="#D99900" opacity=".64"><path d="M388 43h3v1h-3v-1zm4 0h1v1h-1v-1zm6 0h1v1h-1v-1zm-4 0h3v1h-3v-1z" style="mix-blend-mode:multiply"/><path fill-opacity=".5" d="M391 43h1v1h-1v-1zm6 0h1v1h-1v-1zm-10 3h1v1h-1v-1zm2 0h2v1h-2v-1zm6 0h5v1h-5v-1zm-2 0h1v1h-1v-1z" style="mix-blend-mode:multiply"/><path fill-opacity=".25" d="M388 46h1v1h-1v-1zm6 0h1v1h-1v-1z" style="mix-blend-mode:multiply"/></g><g transform="translate(63 16)"><rect width="288" height="144" x="8" y="8" fill="#F2B200" rx="1"/><path fill="#E5A600" d="M0 3a3 3 0 013.009-3H300.99A3 3 0 01304 3v154a3 3 0 01-3.009 3H3.01A3 3 0 010 157V3zm8 5.996v142.008c0 .557.448.996 1 .996h286c.552 0 1-.446 1-.996V8.996A.994.994 0 00295 8H9c-.552 0-1 .446-1 .996z"/><text fill="#D99900" font-family="ComicSansMS, Comic Sans MS" font-size="11" letter-spacing="-.366"><tspan x="23.5" y="27">Backlog</tspan></text><text fill="#D99900" font-family="ComicSansMS, Comic Sans MS" font-size="11" letter-spacing="-.366"><tspan x="78" y="27">To-do</tspan></text><text fill="#D99900" font-family="ComicSansMS, Comic Sans MS" font-size="11" letter-spacing="-.366"><tspan x="126" y="27">Des</tspan></text><text fill="#D99900" font-family="ComicSansMS, Comic Sans MS" font-size="11" letter-spacing="-.366"><tspan x="170" y="27">Dev</tspan></text><text fill="#D99900" font-family="ComicSansMS, Comic Sans MS" font-size="11" letter-spacing="-.366"><tspan x="205" y="27">QA-ST</tspan></text><text fill="#D99900" font-family="ComicSansMS, Comic Sans MS" font-size="11" letter-spacing="-.366"><tspan x="256.5" y="27">Done</tspan></text><g fill="#E5A600" opacity=".448"><path d="M70 13h1v135h-1z"/><path d="M292 36v1H12v-1z"/><path d="M113 13h1v135h-1zm43 0h1v135h-1zm43 0h1v135h-1zm46 0h1v135h-1z"/></g><g opacity=".502"><path fill="#E5A600" d="M127 47h24l1 25-27-1z"/><path fill="#FFCC19" d="M124 43h27v24l-27-1z"/><g fill="#D99900" opacity=".64"><path d="M133 52h3v1h-3v-1zm4 0h1v1h-1v-1zm6 0h1v1h-1v-1zm-4 0h3v1h-3v-1z" style="mix-blend-mode:multiply"/><path fill-opacity=".5" d="M136 52h1v1h-1v-1zm6 0h1v1h-1v-1zm-10 3h1v1h-1v-1zm2 0h2v1h-2v-1zm6 0h5v1h-5v-1zm-2 0h1v1h-1v-1z" style="mix-blend-mode:multiply"/><path fill-opacity=".25" d="M133 55h1v1h-1v-1zm6 0h1v1h-1v-1z" style="mix-blend-mode:multiply"/></g><path fill="#E5A600" d="M25 44h24l1 25-27-1z"/><path fill="#FFCC19" d="M22 40h27v24l-27-1z"/><g fill="#D99900" opacity=".64"><path d="M31 49h3v1h-3v-1zm4 0h1v1h-1v-1zm6 0h1v1h-1v-1zm-4 0h3v1h-3v-1z" style="mix-blend-mode:multiply"/><path fill-opacity=".5" d="M34 49h1v1h-1v-1zm6 0h1v1h-1v-1zm-10 3h1v1h-1v-1zm2 0h2v1h-2v-1zm6 0h5v1h-5v-1zm-2 0h1v1h-1v-1z" style="mix-blend-mode:multiply"/><path fill-opacity=".25" d="M31 52h1v1h-1v-1zm6 0h1v1h-1v-1z" style="mix-blend-mode:multiply"/></g><path fill="#E5A600" d="M77 52h24l1 25-27-1z"/><path fill="#FFCC19" d="M74 48h27v24l-27-1z"/><g fill="#D99900" opacity=".64"><path d="M83 57h3v1h-3v-1zm4 0h1v1h-1v-1zm6 0h1v1h-1v-1zm-4 0h3v1h-3v-1z" style="mix-blend-mode:multiply"/><path fill-opacity=".5" d="M86 57h1v1h-1v-1zm6 0h1v1h-1v-1zm-10 3h1v1h-1v-1zm2 0h2v1h-2v-1zm6 0h5v1h-5v-1zm-2 0h1v1h-1v-1z" style="mix-blend-mode:multiply"/><path fill-opacity=".25" d="M83 60h1v1h-1v-1zm6 0h1v1h-1v-1z" style="mix-blend-mode:multiply"/></g><path fill="#E5A600" d="M118 71h24l1 25-27-1z"/><path fill="#FFCC19" d="M115 67h27v24l-27-1z"/><g fill="#D99900" opacity=".64"><path d="M124 76h3v1h-3v-1zm4 0h1v1h-1v-1zm6 0h1v1h-1v-1zm-4 0h3v1h-3v-1z" style="mix-blend-mode:multiply"/><path fill-opacity=".5" d="M127 76h1v1h-1v-1zm6 0h1v1h-1v-1zm-10 3h1v1h-1v-1zm2 0h2v1h-2v-1zm6 0h5v1h-5v-1zm-2 0h1v1h-1v-1z" style="mix-blend-mode:multiply"/><path fill-opacity=".25" d="M124 79h1v1h-1v-1zm6 0h1v1h-1v-1z" style="mix-blend-mode:multiply"/></g><path fill="#E5A600" d="M130 93h24l1 25-27-1z"/><path fill="#FFCC19" d="M127 89h27v24l-27-1z"/><g fill="#D99900" opacity=".64"><path d="M136 98h3v1h-3v-1zm4 0h1v1h-1v-1zm6 0h1v1h-1v-1zm-4 0h3v1h-3v-1z" style="mix-blend-mode:multiply"/><path fill-opacity=".5" d="M139 98h1v1h-1v-1zm6 0h1v1h-1v-1zm-10 3h1v1h-1v-1zm2 0h2v1h-2v-1zm6 0h5v1h-5v-1zm-2 0h1v1h-1v-1z" style="mix-blend-mode:multiply"/><path fill-opacity=".25" d="M136 101h1v1h-1v-1zm6 0h1v1h-1v-1z" style="mix-blend-mode:multiply"/></g><path fill="#E5A600" d="M160 51h24l1 25-27-1z"/><path fill="#FFCC19" d="M157 47h27v24l-27-1z"/><g fill="#D99900" opacity=".64"><path d="M166 56h3v1h-3v-1zm4 0h1v1h-1v-1zm6 0h1v1h-1v-1zm-4 0h3v1h-3v-1z" style="mix-blend-mode:multiply"/><path fill-opacity=".5" d="M169 56h1v1h-1v-1zm6 0h1v1h-1v-1zm-10 3h1v1h-1v-1zm2 0h2v1h-2v-1zm6 0h5v1h-5v-1zm-2 0h1v1h-1v-1z" style="mix-blend-mode:multiply"/><path fill-opacity=".25" d="M166 59h1v1h-1v-1zm6 0h1v1h-1v-1z" style="mix-blend-mode:multiply"/></g><path fill="#E5A600" d="M177 81h24l1 25-27-1z"/><path fill="#FFCC19" d="M174 77h27v24l-27-1z"/><g fill="#D99900" opacity=".64"><path d="M183 86h3v1h-3v-1zm4 0h1v1h-1v-1zm6 0h1v1h-1v-1zm-4 0h3v1h-3v-1z" style="mix-blend-mode:multiply"/><path fill-opacity=".5" d="M186 86h1v1h-1v-1zm6 0h1v1h-1v-1zm-10 3h1v1h-1v-1zm2 0h2v1h-2v-1zm6 0h5v1h-5v-1zm-2 0h1v1h-1v-1z" style="mix-blend-mode:multiply"/><path fill-opacity=".25" d="M183 89h1v1h-1v-1zm6 0h1v1h-1v-1z" style="mix-blend-mode:multiply"/></g><path fill="#E5A600" d="M167 113h24l1 25-27-1z"/><path fill="#FFCC19" d="M164 109h27v24l-27-1z"/><g fill="#D99900" opacity=".64"><path d="M173 118h3v1h-3v-1zm4 0h1v1h-1v-1zm6 0h1v1h-1v-1zm-4 0h3v1h-3v-1z" style="mix-blend-mode:multiply"/><path fill-opacity=".5" d="M176 118h1v1h-1v-1zm6 0h1v1h-1v-1zm-10 3h1v1h-1v-1zm2 0h2v1h-2v-1zm6 0h5v1h-5v-1zm-2 0h1v1h-1v-1z" style="mix-blend-mode:multiply"/><path fill-opacity=".25" d="M173 121h1v1h-1v-1zm6 0h1v1h-1v-1z" style="mix-blend-mode:multiply"/></g><path fill="#E5A600" d="M207 48h24l1 25-27-1z"/><path fill="#FFCC19" d="M204 44h27v24l-27-1z"/><g fill="#D99900" opacity=".64"><path d="M213 53h3v1h-3v-1zm4 0h1v1h-1v-1zm6 0h1v1h-1v-1zm-4 0h3v1h-3v-1z" style="mix-blend-mode:multiply"/><path fill-opacity=".5" d="M216 53h1v1h-1v-1zm6 0h1v1h-1v-1zm-10 3h1v1h-1v-1zm2 0h2v1h-2v-1zm6 0h5v1h-5v-1zm-2 0h1v1h-1v-1z" style="mix-blend-mode:multiply"/><path fill-opacity=".25" d="M213 56h1v1h-1v-1zm6 0h1v1h-1v-1z" style="mix-blend-mode:multiply"/></g><path fill="#E5A600" d="M218 73h24l1 25-27-1z"/><path fill="#FFCC19" d="M215 69h27v24l-27-1z"/><g fill="#D99900" opacity=".64"><path d="M224 78h3v1h-3v-1zm4 0h1v1h-1v-1zm6 0h1v1h-1v-1zm-4 0h3v1h-3v-1z" style="mix-blend-mode:multiply"/><path fill-opacity=".5" d="M227 78h1v1h-1v-1zm6 0h1v1h-1v-1zm-10 3h1v1h-1v-1zm2 0h2v1h-2v-1zm6 0h5v1h-5v-1zm-2 0h1v1h-1v-1z" style="mix-blend-mode:multiply"/><path fill-opacity=".25" d="M224 81h1v1h-1v-1zm6 0h1v1h-1v-1z" style="mix-blend-mode:multiply"/></g><path fill="#E5A600" d="M255 51h24l1 25-27-1z"/><path fill="#FFCC19" d="M252 47h27v24l-27-1z"/><g fill="#D99900" opacity=".64"><path d="M261 56h3v1h-3v-1zm4 0h1v1h-1v-1zm6 0h1v1h-1v-1zm-4 0h3v1h-3v-1z" style="mix-blend-mode:multiply"/><path fill-opacity=".5" d="M264 56h1v1h-1v-1zm6 0h1v1h-1v-1zm-10 3h1v1h-1v-1zm2 0h2v1h-2v-1zm6 0h5v1h-5v-1zm-2 0h1v1h-1v-1z" style="mix-blend-mode:multiply"/><path fill-opacity=".25" d="M261 59h1v1h-1v-1zm6 0h1v1h-1v-1z" style="mix-blend-mode:multiply"/></g><path fill="#E5A600" d="M40 112h24l1 25-27-1z"/><path fill="#FFCC19" d="M37 108h27v24l-27-1z"/><g fill="#D99900" opacity=".64"><path d="M46 117h3v1h-3v-1zm4 0h1v1h-1v-1zm6 0h1v1h-1v-1zm-4 0h3v1h-3v-1z" style="mix-blend-mode:multiply"/><path fill-opacity=".5" d="M49 117h1v1h-1v-1zm6 0h1v1h-1v-1zm-10 3h1v1h-1v-1zm2 0h2v1h-2v-1zm6 0h5v1h-5v-1zm-2 0h1v1h-1v-1z" style="mix-blend-mode:multiply"/><path fill-opacity=".25" d="M46 120h1v1h-1v-1zm6 0h1v1h-1v-1z" style="mix-blend-mode:multiply"/></g><path fill="#E5A600" d="M25 44h24l1 25-27-1z"/><path fill="#FFCC19" d="M22 40h27v24l-27-1z"/><g fill="#D99900" opacity=".64"><path d="M31 49h3v1h-3v-1zm4 0h1v1h-1v-1zm6 0h1v1h-1v-1zm-4 0h3v1h-3v-1z" style="mix-blend-mode:multiply"/><path fill-opacity=".5" d="M34 49h1v1h-1v-1zm6 0h1v1h-1v-1zm-10 3h1v1h-1v-1zm2 0h2v1h-2v-1zm6 0h5v1h-5v-1zm-2 0h1v1h-1v-1z" style="mix-blend-mode:multiply"/><path fill-opacity=".25" d="M31 52h1v1h-1v-1zm6 0h1v1h-1v-1z" style="mix-blend-mode:multiply"/></g><path fill="#E5A600" d="M82 52h24l1 25-27-1z"/><path fill="#FFCC19" d="M79 48h27v24l-27-1z"/><g fill="#D99900" opacity=".64"><path d="M88 57h3v1h-3v-1zm4 0h1v1h-1v-1zm6 0h1v1h-1v-1zm-4 0h3v1h-3v-1z" style="mix-blend-mode:multiply"/><path fill-opacity=".5" d="M91 57h1v1h-1v-1zm6 0h1v1h-1v-1zm-10 3h1v1h-1v-1zm2 0h2v1h-2v-1zm6 0h5v1h-5v-1zm-2 0h1v1h-1v-1z" style="mix-blend-mode:multiply"/><path fill-opacity=".25" d="M88 60h1v1h-1v-1zm6 0h1v1h-1v-1z" style="mix-blend-mode:multiply"/></g><path fill="#E5A600" d="M35 71h24l1 25-27-1z"/><path fill="#FFCC19" d="M32 67h27v24l-27-1z"/><g fill="#D99900" opacity=".64"><path d="M41 76h3v1h-3v-1zm4 0h1v1h-1v-1zm6 0h1v1h-1v-1zm-4 0h3v1h-3v-1z" style="mix-blend-mode:multiply"/><path fill-opacity=".5" d="M44 76h1v1h-1v-1zm6 0h1v1h-1v-1zm-10 3h1v1h-1v-1zm2 0h2v1h-2v-1zm6 0h5v1h-5v-1zm-2 0h1v1h-1v-1z" style="mix-blend-mode:multiply"/><path fill-opacity=".25" d="M41 79h1v1h-1v-1zm6 0h1v1h-1v-1z" style="mix-blend-mode:multiply"/></g><path fill="#E5A600" d="M24 93h24l1 25-27-1z"/><path fill="#FFCC19" d="M21 89h27v24l-27-1z"/><g fill="#D99900" opacity=".64"><path d="M30 98h3v1h-3v-1zm4 0h1v1h-1v-1zm6 0h1v1h-1v-1zm-4 0h3v1h-3v-1z" style="mix-blend-mode:multiply"/><path fill-opacity=".5" d="M33 98h1v1h-1v-1zm6 0h1v1h-1v-1zm-10 3h1v1h-1v-1zm2 0h2v1h-2v-1zm6 0h5v1h-5v-1zm-2 0h1v1h-1v-1z" style="mix-blend-mode:multiply"/><path fill-opacity=".25" d="M30 101h1v1h-1v-1zm6 0h1v1h-1v-1z" style="mix-blend-mode:multiply"/></g><path fill="#E5A600" d="M79 81h24l1 25-27-1z"/><path fill="#FFCC19" d="M76 77h27v24l-27-1z"/><g fill="#D99900" opacity=".64"><path d="M85 86h3v1h-3v-1zm4 0h1v1h-1v-1zm6 0h1v1h-1v-1zm-4 0h3v1h-3v-1z" style="mix-blend-mode:multiply"/><path fill-opacity=".5" d="M88 86h1v1h-1v-1zm6 0h1v1h-1v-1zm-10 3h1v1h-1v-1zm2 0h2v1h-2v-1zm6 0h5v1h-5v-1zm-2 0h1v1h-1v-1z" style="mix-blend-mode:multiply"/><path fill-opacity=".25" d="M85 89h1v1h-1v-1zm6 0h1v1h-1v-1z" style="mix-blend-mode:multiply"/></g><path fill="#E5A600" d="M89 113h24l1 25-27-1z"/><path fill="#FFCC19" d="M86 109h27v24l-27-1z"/><g fill="#D99900" opacity=".64"><path d="M95 118h3v1h-3v-1zm4 0h1v1h-1v-1zm6 0h1v1h-1v-1zm-4 0h3v1h-3v-1z" style="mix-blend-mode:multiply"/><path fill-opacity=".5" d="M98 118h1v1h-1v-1zm6 0h1v1h-1v-1zm-10 3h1v1h-1v-1zm2 0h2v1h-2v-1zm6 0h5v1h-5v-1zm-2 0h1v1h-1v-1z" style="mix-blend-mode:multiply"/><path fill-opacity=".25" d="M95 121h1v1h-1v-1zm6 0h1v1h-1v-1z" style="mix-blend-mode:multiply"/></g><path fill="#E5A600" d="M40 112h24l1 25-27-1z"/><path fill="#FFCC19" d="M37 108h27v24l-27-1z"/><g fill="#D99900" opacity=".64"><path d="M46 117h3v1h-3v-1zm4 0h1v1h-1v-1zm6 0h1v1h-1v-1zm-4 0h3v1h-3v-1z" style="mix-blend-mode:multiply"/><path fill-opacity=".5" d="M49 117h1v1h-1v-1zm6 0h1v1h-1v-1zm-10 3h1v1h-1v-1zm2 0h2v1h-2v-1zm6 0h5v1h-5v-1zm-2 0h1v1h-1v-1z" style="mix-blend-mode:multiply"/><path fill-opacity=".25" d="M46 120h1v1h-1v-1zm6 0h1v1h-1v-1z" style="mix-blend-mode:multiply"/></g></g></g><g transform="translate(2 118)"><circle cx="59.5" cy="59.5" r="59.5" fill="#FFF" fill-opacity=".2"/><use stroke="#FFF" stroke-dasharray="2" stroke-opacity=".4" stroke-width="2" mask="url(#bg-about-marketing-agency-b)" xlink:href="#bg-about-marketing-agency-a"/><circle cx="60" cy="60" r="23" fill="#FFF" fill-opacity=".2"/></g></g></svg>