<svg width="430" height="192" viewBox="0 0 430 192" fill="none" xmlns="http://www.w3.org/2000/svg"><g id="bg-about-marketing-agency" clip-path="url(#clip0_547_9348)"><g id="Watch"><path id="Shape" fill-rule="evenodd" clip-rule="evenodd" d="M357 36.5C357 16.342 373.342 0 393.5 0S430 16.342 430 36.5 413.658 73 393.5 73 357 56.658 357 36.5zm4 0c0 17.95 14.551 32.5 32.5 32.5A32.5 32.5 0 00426 36.5C426 18.55 411.449 4 393.5 4 375.551 4 361 18.55 361 36.5z" fill="#F18D00"/><path id="Shape_2" d="M412 36.5l-17.18-1.23L393.5 13l-1.32 22.09L391 35v3l1.05-.07L392 39h3l-.06-1.28L412 36.5z" fill="#F18D00"/><path id="Combined Shape" fill-rule="evenodd" clip-rule="evenodd" d="M394.05 13.58a2.388 2.388 0 011-1l.75-.43c.255-.138.494-.306.71-.5a1.1 1.1 0 000-1.52 1.09 1.09 0 00-.78-.29 1 1 0 00-1 .55c-.115.254-.173.53-.17.81h-.71a2.356 2.356 0 01.27-1.19 1.68 1.68 0 011.61-.81 1.67 1.67 0 011.85 1.68c.006.43-.168.844-.48 1.14-.3.272-.637.5-1 .68l-.53.29a2.935 2.935 0 00-.6.41 1.37 1.37 0 00-.49.75h3.05v.66h-3.84c.039-.43.162-.847.36-1.23zm-4.23-2.71v-.54a3.058 3.058 0 001.06-.24 1.24 1.24 0 00.45-.83h.55v5.57h-.75v-4l-1.31.04zm5.47 48.83a1.631 1.631 0 00-.37-1 1.54 1.54 0 00-1.3-.48 1.8 1.8 0 00-1.79 1.39 5.338 5.338 0 00-.25 1.77c-.071.715.133 1.43.57 2a1.8 1.8 0 001.35.6 1.77 1.77 0 001.42-.59c.325-.374.499-.855.49-1.35a1.667 1.667 0 00-.52-1.34 1.83 1.83 0 00-1.23-.45 1.712 1.712 0 00-.75.16c-.249.116-.46.3-.61.53a3.183 3.183 0 01.39-1.56c.19-.341.55-.552.94-.55a.88.88 0 01.77.36c.101.154.169.328.2.51h.69zm-.9 3.28a1.4 1.4 0 00.28-.88 1.453 1.453 0 00-.25-.82 1 1 0 00-.89-.39 1.1 1.1 0 00-1.14 1.21c-.006.324.104.64.31.89.218.243.534.375.86.36a.999.999 0 00.83-.35v-.02zm-27.6-24.7a.88.88 0 01-.45-.8l-.71.01c-.011.402.14.791.42 1.08a1.72 1.72 0 001.25.43 1.78 1.78 0 001.73-1.33c.217-.582.322-1.2.31-1.82a3.778 3.778 0 00-.26-1.52 1.69 1.69 0 00-1.68-1.1 1.63 1.63 0 00-1.37.58 2.07 2.07 0 00-.47 1.34c-.019.475.15.938.47 1.29.333.347.8.534 1.28.51a1.81 1.81 0 00.74-.15 1.23 1.23 0 00.58-.53 3.347 3.347 0 01-.5 1.71 1.09 1.09 0 01-.86.42.998.998 0 01-.48-.12zm1.38-2.23c.269-.258.396-.631.34-1a1.231 1.231 0 00-.31-.92 1.08 1.08 0 00-.79-.3 1.061 1.061 0 00-.82.35c-.209.26-.316.587-.3.92-.015.313.08.62.27.87a1 1 0 00.84.32c.277.013.55-.072.77-.24zm49.3 1.06c-.018.482.138.954.44 1.33a1.78 1.78 0 001.42.52 2.07 2.07 0 001.5-.51 1.72 1.72 0 00.53-1.3 1.45 1.45 0 00-.25-.85 1.3 1.3 0 00-.69-.47 1 1 0 00.44-.31 1.19 1.19 0 00.28-.83 1.329 1.329 0 00-.47-1.11 2.049 2.049 0 00-1.32-.38 1.57 1.57 0 00-1.51.78 2.089 2.089 0 00-.25 1.07h.69c.001-.256.059-.51.17-.74a1 1 0 011-.47c.25-.005.494.076.69.23a.75.75 0 01.3.64.79.79 0 01-.44.78 1.39 1.39 0 01-.65.13H419v.62h.28a1.86 1.86 0 011 .23.92.92 0 01.35.81c.005.294-.119.576-.34.77a1.28 1.28 0 01-.89.3 1.08 1.08 0 01-1-.45 1.812 1.812 0 01-.2-.79h-.73zm-2.65-11.53a2.48 2.48 0 011-1l.75-.43c.253-.138.488-.306.7-.5a1.07 1.07 0 000-1.52 1.06 1.06 0 00-.78-.29 1 1 0 00-1 .55 1.928 1.928 0 00-.16.81h-.72c-.006-.413.086-.82.27-1.19a1.69 1.69 0 011.61-.81 1.74 1.74 0 011.41.52c.282.32.438.733.44 1.16a1.57 1.57 0 01-.47 1.14c-.302.27-.638.498-1 .68l-.54.29a3.644 3.644 0 00-.6.41 1.434 1.434 0 00-.49.75h3.06v.66h-3.84c.034-.43.157-.849.36-1.23zm-47-3.25v.54l1.31-.04v4h.75v-5.57h-.55a1.24 1.24 0 01-.45.83 3.058 3.058 0 01-1.06.24zm7.41-.2c.279.593.409 1.245.38 1.9a4.532 4.532 0 01-.34 1.89 1.68 1.68 0 01-1.61 1.07 1.63 1.63 0 01-1.5-.88 4.056 4.056 0 01-.41-2 4.711 4.711 0 01.25-1.64 1.67 1.67 0 011.66-1.27 1.65 1.65 0 011.57.93zm-.38 1.93a3.553 3.553 0 01-.32 1.8 1 1 0 01-1.84-.31 4.263 4.263 0 01-.18-1.37 3.881 3.881 0 01.29-1.72 1 1 0 01.91-.59.9.9 0 01.91.62c.167.506.245 1.037.23 1.57zM405 13.87v-.54a3 3 0 001.06-.24 1.24 1.24 0 00.45-.83h.56v5.57h-.75v-4l-1.32.04zm-26.89-.54v.54l1.32-.04v4h.75v-5.57h-.56a1.24 1.24 0 01-.45.83 3 3 0 01-1.06.24zm3.89.54v-.54a3 3 0 001.06-.24 1.24 1.24 0 00.45-.83h.49v5.57h-.75v-4l-1.25.04zm24.82 45.37a1 1 0 01-.56-.83l-.73-.01c.008.462.225.896.59 1.18.351.255.776.388 1.21.38a1.88 1.88 0 001.56-.6 2.15 2.15 0 00.49-1.4 1.63 1.63 0 00-.53-1.26 1.85 1.85 0 00-1.31-.49 1.813 1.813 0 00-.72.13 1.52 1.52 0 00-.37.22l.24-1.56h2.38v-.62h-2.91l-.42 3h.61c.114-.163.265-.297.44-.39a1.32 1.32 0 01.62-.14 1.25 1.25 0 01.86.32c.25.235.382.568.36.91 0 .318-.105.628-.3.88a1.1 1.1 0 01-.93.4c-.2.004-.398-.037-.58-.12zm-24.36-4.91V55c-.269.279-.51.584-.72.91-.305.442-.569.91-.79 1.4a8.109 8.109 0 00-.51 1.33c-.08.26-.18.67-.3 1.24h-.77a9.264 9.264 0 011.17-3.18 9.867 9.867 0 011.12-1.61h-3.09v-.71l3.89-.05zm34.47-3.86v1.36h.7v-1.36h.83v-.62h-.83v-3.63h-.59l-2.56 3.56v.69h2.45zm-1.79-.64h1.79v-2.54l-1.79 2.54zm-45.45-2.08a1.09 1.09 0 00.31.81c.131.121.284.216.45.28a1.551 1.551 0 00-.71.56c-.172.25-.259.547-.25.85a1.53 1.53 0 00.57 1.29c.394.305.883.46 1.38.44a1.87 1.87 0 001.4-.51c.328-.333.508-.783.5-1.25.01-.37-.127-.73-.38-1a1.585 1.585 0 00-.54-.36c.172-.095.327-.216.46-.36a1.35 1.35 0 00.26-.85 1.312 1.312 0 00-.45-1 1.82 1.82 0 00-1.27-.43 1.74 1.74 0 00-1.28.45 1.47 1.47 0 00-.45 1.08zm2.57 3.34a1 1 0 00.33-.79 1 1 0 00-.34-.82 1.25 1.25 0 00-.85-.28 1.18 1.18 0 00-.82.28.999.999 0 00-.32.8c-.003.278.1.547.29.75.239.232.568.349.9.32a1.2 1.2 0 00.85-.26h-.04zm.13-3.365a.81.81 0 01-.26.595h.04a.94.94 0 01-.78.26 1.08 1.08 0 01-.69-.22.72.72 0 01-.29-.62.898.898 0 01.22-.61.92.92 0 01.74-.27 1 1 0 01.76.27.81.81 0 01.26.595z" fill="#F18D00"/><g id="Shape_3" fill="#F18D00"><path fill-rule="evenodd" clip-rule="evenodd" d="M393 7V5h1v2h-1zm3.083.118l.21-2 .994.104-.21 2-.994-.104zm3.058.427l.42-1.95.978.21-.42 1.95-.978-.21zm3.003.752l.61-1.9.952.306-.61 1.9-.952-.306zm2.899 1.06l.81-1.83.914.405-.81 1.83-.914-.404zm2.774 1.353l1-1.73.866.5-1 1.73-.866-.5zm2.6 1.604l1.18-1.61.806.592-1.18 1.61-.806-.592zm2.431 1.912l1.34-1.49.744.668-1.34 1.49-.744-.668zm2.218 2.142l1.49-1.34.668.744-1.49 1.34-.668-.744zm2.028 2.409l1.61-1.18.592.806-1.61 1.18-.592-.806zm1.726 2.56l1.73-1 .5.866-1.73 1-.5-.866zm1.448 2.726l1.83-.81.404.914-1.83.81-.404-.914zm1.149 2.86l1.9-.61.306.953-1.9.61-.306-.952zm.848 2.978l1.95-.42.21.978-1.95.42-.21-.978zm.523 3.042l2-.21.104.994-2 .21-.104-.994zM423 36h2v1h-2v-1zm-.118 3.083l2 .21-.104.994-2-.21.104-.994zm-.427 3.058l1.95.42-.21.978-1.95-.42.21-.978zm.842 4.575l-1.9-.61.306-.952 1.9.61-.306.952zm-2.655 1.337l1.83.81-.404.914-1.83-.81.404-.914zm-.122 4.64l-1.73-1 .5-.866 1.73 1-.5.866zm-2.834.724l1.61 1.18-.592.806-1.61-1.18.592-.806zm-1.912 2.431l1.49 1.34-.668.744-1.49-1.34.668-.744zm-2.142 2.218l1.34 1.49-.744.668-1.34-1.49.744-.668zm-2.409 2.028l1.18 1.61-.806.592-1.18-1.61.806-.592zm-2.56 1.726l1 1.73-.866.5-1-1.73.866-.5zm-2.726 1.448l.81 1.83-.914.404-.81-1.83.914-.404zm-2.861 1.15l.61 1.9-.952.305-.61-1.9.952-.306zm-2.977.847l.42 1.95-.978.21-.42-1.95.978-.21zm-3.042.523l.21 2-.994.104-.21-2 .994-.104zM394 66v2h-1v-2h1zm-3.083-.118l-.21 2-.994-.104.21-2 .994.104zm-3.008-.417l-.42 1.95-.978-.21.42-1.95.978.21zm-3.003-.752l-.61 1.9-.952-.306.61-1.9.952.306zm-2.899-1.06l-.81 1.83-.914-.405.81-1.83.914.404zm-4.64-.123l1-1.73.866.5-1 1.73-.866-.5zm-.784-2.844l-1.18 1.61-.806-.592 1.18-1.61.806.592zm-2.431-1.912l-1.34 1.49-.744-.668 1.34-1.49.744.668zm-2.218-2.142l-1.49 1.34-.668-.744 1.49-1.34.668.744zm-2.028-2.409l-1.61 1.18-.592-.806 1.61-1.18.592.806zm-1.726-2.56l-1.73 1-.5-.866 1.73-1 .5.866zm-1.448-2.726l-1.83.81-.404-.914 1.83-.81.404.914zm-1.149-2.86l-1.9.61-.306-.953 1.9-.61.306.952zm-.848-2.978l-1.95.42-.21-.978 1.95-.42.21.978zm-2.637-3.776l2-.21.104.994-2 .21-.104-.994zM364 37h-2v-1h2v1zm-1.788-4.287l2 .21-.104.994-2-.21.104-.994zm.573-3.252l1.95.42-.21.978-1.95-.42.21-.978zm2.492-1.605l-1.9-.61.306-.952 1.9.61-.306.952zm1.061-2.899l-1.83-.81.404-.914 1.83.81-.404.914zm1.352-2.774l-1.73-1 .5-.866 1.73 1-.5.866zm1.624-2.6l-1.61-1.18.592-.806 1.61 1.18-.592.806zm1.912-2.431l-1.49-1.34.668-.744 1.49 1.34-.668.744zm2.142-2.218l-1.34-1.49.744-.668 1.34 1.49-.744.668zm2.409-2.028l-1.18-1.61.806-.592 1.18 1.61-.806.592zm2.56-1.726l-1-1.73.866-.5 1 1.73-.866.5zm2.726-1.448l-.81-1.83.914-.404.81 1.83-.914.404zm2.861-1.15l-.61-1.9.952-.305.61 1.9-.952.306zm2.977-.847l-.42-1.95.978-.21.42 1.95-.978.21zm3.776-2.637l.21 2-.994.104-.21-2 .994-.104z"/><path d="M393 5v-.5h-.5V5h.5zm0 2h-.5v.5h.5V7zm1-2h.5v-.5h-.5V5zm0 2v.5h.5V7h-.5zm2.293-1.882l.052-.497-.497-.053-.053.498.498.052zm-.21 2l-.498-.052-.052.497.498.052.052-.497zm1.204-1.896l.498.052.052-.497-.498-.052-.052.497zm-.21 2l-.052.497.497.053.053-.498-.498-.052zm2.484-1.627l.105-.49-.488-.104-.106.488.489.106zm-.42 1.95l-.489-.106-.105.49.489.105.105-.49zm1.398-1.74l.489.106.105-.49-.489-.105-.105.49zm-.42 1.95l-.105.49.488.104.106-.488-.489-.106zm2.635-1.358l.153-.476-.476-.153-.153.476.476.153zm-.61 1.9l-.476-.153-.153.476.476.153.153-.476zm1.562-1.594l.476.153.153-.476-.476-.153-.153.476zm-.61 1.9l-.153.476.476.153.153-.476-.476-.153zm2.757-1.075l.202-.458-.457-.202-.202.457.457.203zm-.81 1.83l-.457-.203-.203.457.457.203.203-.457zm1.724-1.426l.457.203.203-.457-.457-.203-.203.457zm-.81 1.83l-.202.458.457.202.202-.457-.457-.203zm2.86-.782l.25-.433-.433-.25-.25.433.433.25zm-1 1.73l-.433-.25-.25.432.433.25.25-.432zm1.866-1.23l.433.25.25-.432-.433-.25-.25.432zm-1 1.73l-.25.433.433.25.25-.433-.433-.25zm2.914-.506l.295-.403-.403-.295-.296.403.404.295zm-1.18 1.61l-.404-.295-.295.403.403.296.296-.404zm1.986-1.018l.404.295.295-.403-.403-.296-.296.404zm-1.18 1.61l-.295.403.403.295.296-.403-.404-.295zm2.965-.17l.335-.372-.372-.335-.335.372.372.335zm-1.34 1.49l-.372-.335-.334.372.372.334.334-.371zm2.084-.822l.372.335.334-.372-.372-.334-.334.371zm-1.34 1.49l-.335.372.372.335.335-.372-.372-.335zm2.964.134l.371-.334-.334-.372-.372.335.335.371zm-1.49 1.34l-.335-.371-.371.334.334.372.372-.335zm2.158-.596l.335.371.371-.334-.334-.372-.372.335zm-1.49 1.34l-.371.334.334.372.372-.335-.335-.371zm2.97.485l.404-.296-.296-.403-.403.295.295.404zm-1.61 1.18l-.295-.404-.403.296.295.403.403-.295zm2.202-.374l.295.404.403-.296-.295-.403-.403.295zm-1.61 1.18l-.404.296.296.403.403-.295-.295-.404zm2.864.754l.433-.25-.251-.433-.432.25.25.433zm-1.73 1l-.25-.433-.433.25.25.433.433-.25zm2.23-.134l.25.433.433-.25-.25-.433-.433.25zm-1.73 1l-.433.25.251.433.432-.25-.25-.433zm2.778 1.05l.457-.203-.203-.457-.457.203.203.457zm-1.83.81l-.203-.457-.457.202.202.457.458-.202zm2.234.104l.203.457.457-.202-.202-.457-.458.202zm-1.83.81l-.457.203.203.457.457-.203-.203-.457zm2.645 1.337l.476-.153-.153-.476-.476.153.153.476zm-1.9.61l-.153-.476-.476.153.153.476.476-.153zm2.206.342l.153.476.476-.153-.153-.476-.476.153zm-1.9.61l-.476.153.153.476.476-.153-.153-.476zm2.492 1.605l.489-.105-.106-.489-.489.105.106.49zm-1.95.42l-.106-.489-.488.106.105.488.489-.105zm2.16.558l.106.489.488-.106-.105-.488-.489.105zm-1.95.42l-.489.105.106.489.489-.105-.106-.49zm2.313 1.854l.497-.052-.052-.498-.497.053.052.497zm-2 .21l-.052-.497-.498.052.053.497.497-.052zm2.104.784l.052.498.498-.053-.053-.497-.497.052zm-2 .21l-.497.053.052.497.497-.053-.052-.497zM425 36h.5v-.5h-.5v.5zm-2 0v-.5h-.5v.5h.5zm2 1v.5h.5V37h-.5zm-2 0h-.5v.5h.5V37zm1.882 2.293l.497.052.053-.497-.498-.053-.052.498zm-2-.21l.052-.497-.497-.053-.052.498.497.052zm1.896 1.204l-.052.498.497.052.052-.498-.497-.052zm-2-.21l-.497-.052-.053.497.498.053.052-.498zm1.627 2.484l.489.105.105-.488-.488-.106-.106.49zm-1.95-.42l.106-.489-.489-.105-.106.489.489.105zm1.74 1.398l-.106.489.489.105.106-.489-.489-.105zm-1.95-.42l-.489-.105-.105.488.488.106.106-.49zm-.848 2.987l-.476-.153-.153.476.476.153.153-.476zm1.9.61l-.153.476.476.153.153-.476-.476-.153zm-1.594-1.562l.153-.476-.476-.153-.153.476.476.153zm1.9.61l.476.153.153-.476-.476-.153-.153.476zm-1.131 3.099l.458.202.202-.457-.457-.202-.203.457zm-1.83-.81l.203-.457-.457-.203-.203.457.457.203zm1.426 1.724l-.203.457.457.203.203-.457-.457-.203zm-1.83-.81l-.458-.202-.202.457.457.202.203-.457zm-1.448 2.726l-.433-.25-.25.433.433.25.25-.433zm1.73 1l-.25.433.432.25.251-.433-.433-.25zm-1.23-1.866l.25-.433-.432-.25-.251.433.433.25zm1.73 1l.433.25.25-.432-.433-.25-.25.432zm-1.724 2.77l.403.295.295-.403-.403-.296-.295.404zm-1.61-1.18l.295-.404-.403-.295-.296.403.404.296zm1.018 1.986l-.295.404.403.295.296-.403-.404-.296zm-1.61-1.18l-.403-.295-.295.403.403.296.295-.404zm.17 2.965l.372.335.334-.372-.371-.335-.335.372zm-1.49-1.34l.335-.371-.372-.335-.334.372.371.334zm.822 2.084l-.335.371.372.335.334-.372-.371-.334zm-1.49-1.34l-.372-.335-.334.372.371.335.335-.372zm-.134 2.964l.334.371.372-.334-.334-.372-.372.335zm-1.34-1.49l.372-.335-.335-.372-.372.335.335.372zm.596 2.158l-.372.335.335.372.372-.335-.335-.372zm-1.34-1.49l-.334-.371-.372.334.334.372.372-.335zm-.485 2.97l.296.404.403-.296-.295-.403-.404.295zm-1.18-1.61l.404-.295-.296-.403-.403.295.295.403zm.374 2.202l-.404.295.296.403.403-.295-.295-.403zm-1.18-1.61l-.296-.404-.403.296.295.403.404-.295zm-.754 2.864l.25.433.433-.25-.25-.433-.433.25zm-1-1.73l.433-.25-.25-.433-.433.25.25.433zm.134 2.23l-.433.25.25.433.433-.25-.25-.433zm-1-1.73l-.25-.433-.433.25.25.433.433-.25zm-1.05 2.778l.203.457.457-.203-.203-.457-.457.203zm-.81-1.83l.457-.203-.202-.457-.457.202.202.458zm-.104 2.234l-.457.203.202.457.457-.202-.202-.458zm-.81-1.83l-.203-.457-.457.202.203.458.457-.203zm-1.337 2.645l.153.476.476-.153-.153-.476-.476.153zm-.61-1.9l.476-.153-.153-.476-.476.153.153.476zm-.342 2.206l-.476.153.153.476.476-.153-.153-.476zm-.61-1.9l-.153-.476-.476.153.153.476.476-.153zm-1.605 2.492l.105.489.489-.106-.105-.489-.489.106zm-.42-1.95l.489-.106-.106-.488-.488.105.105.489zm-.558 2.16l-.489.106.106.488.488-.105-.105-.489zm-.42-1.95l-.105-.488-.489.105.105.489.489-.106zm-1.854 2.313l.052.497.498-.052-.052-.497-.498.052zm-.21-2l.498-.052-.053-.498-.497.052.052.498zm-.784 2.104l-.498.052.053.498.497-.052-.052-.498zm-.21-2l-.052-.497-.498.052.052.497.498-.052zM394 68v.5h.5V68h-.5zm0-2h.5v-.5h-.5v.5zm-1 2h-.5v.5h.5V68zm0-2v-.5h-.5v.5h.5zm-2.293 1.882l-.052.497.497.053.053-.498-.498-.052zm.21-2l.498.052.052-.497-.498-.052-.052.497zm-1.204 1.896l-.498-.052-.052.497.498.052.052-.497zm.21-2l.052-.498-.497-.052-.053.498.498.052zm-2.434 1.637l-.105.49.488.104.106-.488-.489-.106zm.42-1.95l.489.106.105-.49-.489-.105-.105.49zm-1.398 1.74l-.489-.106-.105.49.489.105.105-.49zm.42-1.95l.105-.49-.488-.104-.106.488.489.106zm-2.635 1.358l-.153.476.476.153.153-.476-.476-.153zm.61-1.9l.476.153.153-.476-.476-.153-.153.476zm-1.562 1.594l-.476-.153-.153.476.476.153.153-.476zm.61-1.9l.153-.476-.476-.153-.153.476.476.153zm-2.757 1.075l-.202.458.457.202.202-.457-.457-.203zm.81-1.83l.457.203.203-.457-.457-.203-.203.457zm-1.724 1.426l-.457-.203-.203.457.457.203.203-.457zm.81-1.83l.202-.458-.457-.202-.202.457.457.203zm-2.726-1.448l.25-.433-.433-.25-.25.433.433.25zm-1 1.73l-.433-.25-.25.432.433.25.25-.432zm1.866-1.23l.433.25.25-.432-.433-.25-.25.432zm-1 1.73l-.25.433.433.25.25-.433-.433-.25zm-2.83-1.734l-.295.403.403.295.296-.403-.404-.295zm1.18-1.61l.404.295.295-.403-.403-.296-.296.404zm-1.986 1.018l-.404-.295-.295.403.403.296.296-.404zm1.18-1.61l.295-.403-.403-.295-.296.403.404.295zm-2.965.17l-.335.372.372.334.335-.371-.372-.335zm1.34-1.49l.372.335.334-.372-.372-.334-.334.371zm-2.084.822l-.372-.335-.334.372.372.334.334-.371zm1.34-1.49l.335-.372-.372-.334-.335.371.372.335zm-2.964-.134l-.371.334.334.372.372-.334-.335-.372zm1.49-1.34l.335.372.371-.335-.334-.372-.372.335zm-2.158.596l-.335-.372-.371.335.334.372.372-.335zm1.49-1.34l.371-.334-.334-.372-.372.334.335.372zm-2.97-.485l-.404.296.296.403.403-.295-.295-.404zm1.61-1.18l.295.404.403-.296-.295-.403-.403.295zm-2.202.374l-.295-.404-.403.296.295.403.403-.295zm1.61-1.18l.404-.296-.296-.403-.403.295.295.404zm-2.864-.754l-.433.25.251.433.432-.25-.25-.433zm1.73-1l.25.433.433-.25-.25-.433-.433.25zm-2.23.134l-.25-.433-.433.25.25.433.433-.25zm1.73-1l.433-.25-.251-.433-.432.25.25.433zm-2.778-1.05l-.457.203.203.457.457-.203-.203-.457zm1.83-.81l.203.457.457-.202-.202-.457-.458.202zm-2.234-.104l-.203-.457-.457.202.202.457.458-.202zm1.83-.81l.457-.203-.203-.457-.457.203.203.457zm-2.645-1.337l-.476.153.153.476.476-.153-.153-.476zm1.9-.61l.153.476.476-.153-.153-.476-.476.153zm-2.206-.342l-.153-.476-.476.153.153.476.476-.153zm1.9-.61l.476-.153-.153-.476-.476.153.153.476zm-2.492-1.605l-.489.105.106.489.489-.105-.106-.49zm1.95-.42l.106.489.488-.106-.105-.489-.489.106zm-2.16-.558l-.106-.489-.488.106.105.489.489-.106zm1.95-.42l.489-.105-.106-.489-.489.105.106.49zm-.427-3.008l.497-.053-.052-.497-.497.052.052.498zm-2 .21l-.052-.498-.498.053.053.497.497-.052zm2.104.784l.052.498.498-.053-.053-.497-.497.052zm-2 .21l-.497.053.052.497.497-.052-.052-.498zM362 37h-.5v.5h.5V37zm2 0v.5h.5V37h-.5zm-2-1v-.5h-.5v.5h.5zm2 0h.5v-.5h-.5v.5zm.212-3.077l.497.052.053-.497-.498-.053-.052.498zm-2-.21l.052-.498-.497-.052-.052.498.497.052zm1.896 1.204l-.052.497.497.053.052-.498-.497-.052zm-2-.21l-.497-.052-.053.497.498.053.052-.498zm2.627-3.826l.489.105.105-.488-.488-.106-.106.49zm-1.95-.42l.106-.489-.489-.105-.106.489.489.105zm1.74 1.398l-.106.489.489.105.106-.489-.489-.105zm-1.95-.42l-.489-.105-.105.488.488.106.106-.49zm.802-3.193l-.476-.153-.153.476.476.153.153-.476zm1.9.61l-.153.476.476.153.153-.476-.476-.153zm-1.594-1.562l.153-.476-.476-.153-.153.476.476.153zm1.9.61l.476.153.153-.476-.476-.153-.153.476zm-1.075-2.757l-.458-.202-.202.457.457.202.203-.457zm1.83.81l-.203.457.457.203.203-.457-.457-.203zm-1.426-1.724l.203-.457-.457-.203-.203.457.457.203zm1.83.81l.458.202.202-.457-.457-.202-.203.457zm-.782-2.86l-.433-.25-.25.433.433.25.25-.433zm1.73 1l-.25.433.432.25.251-.433-.433-.25zm-1.23-1.866l.25-.433-.432-.25-.251.433.433.25zm1.73 1l.433.25.25-.433-.433-.25-.25.433zm-.486-2.914l-.403-.295-.295.403.403.296.295-.404zm1.61 1.18l-.295.404.403.295.296-.403-.404-.296zm-1.018-1.986l.295-.404-.403-.295-.296.403.404.296zm1.61 1.18l.403.295.295-.403-.403-.296-.295.404zm-.17-2.965l-.372-.335-.334.372.371.334.335-.371zm1.49 1.34l-.335.371.372.335.334-.372-.371-.334zm-.822-2.084l.335-.371-.372-.335-.334.372.371.334zm1.49 1.34l.372.335.334-.372-.371-.334-.335.371zm.134-2.964l-.334-.371-.372.334.334.372.372-.335zm1.34 1.49l-.372.335.335.371.372-.334-.335-.372zm-.596-2.158l.372-.335-.335-.372-.372.335.335.372zm1.34 1.49l.334.371.372-.334-.334-.372-.372.335zm.485-2.97l-.296-.404-.403.296.295.403.404-.295zm1.18 1.61l-.404.295.296.403.403-.295-.295-.403zm-.374-2.202l.404-.295-.296-.403-.403.295.295.403zm1.18 1.61l.296.404.403-.296-.295-.403-.404.295zm.754-2.864l-.25-.433-.433.25.25.433.433-.25zm1 1.73l-.433.25.25.433.433-.25-.25-.433zm-.134-2.23l.433-.25-.25-.433-.433.25.25.433zm1 1.73l.25.433.433-.25-.25-.433-.433.25zm1.05-2.778l-.203-.457-.457.203.203.457.457-.203zm.81 1.83l-.457.203.202.457.457-.202-.202-.458zm.104-2.234l.457-.203-.202-.457-.457.202.202.458zm.81 1.83l.203.457.457-.203-.203-.457-.457.203zm1.337-2.645l-.153-.476-.476.153.153.476.476-.153zm.61 1.9l-.476.153.153.476.476-.153-.153-.476zm.342-2.206l.476-.153-.153-.476-.476.153.153.476zm.61 1.9l.153.476.476-.153-.153-.476-.476.153zm1.605-2.492l-.105-.489-.489.106.105.489.489-.106zm.42 1.95l-.489.106.106.488.488-.105-.105-.489zm.558-2.16l.489-.106-.106-.488-.488.105.105.489zm.42 1.95l.105.489.489-.106-.105-.489-.489.106zm3.008-.427l.052.497.498-.052-.052-.497-.498.052zm-.21-2l.498-.052-.053-.498-.497.053.052.497zm-.784 2.104l-.498.052.053.498.497-.053-.052-.497zm-.21-2l-.052-.497-.498.052.052.497.498-.052zM392.5 5v2h1V5h-1zm1.5-.5h-1v1h1v-1zm.5 2.5V5h-1v2h1zm-1.5.5h1v-1h-1v1zm2.795-2.434l-.21 2 .995.104.21-2-.995-.104zm1.544-.341l-.994-.104-.104.994.994.104.104-.994zm.236 2.55l.21-2-.995-.105-.21 2 .995.104zm-1.544.34l.994.104.104-.994-.994-.104-.104.994zm3.041-2.126l-.42 1.95.978.211.42-1.95-.978-.21zm1.572-.173l-.978-.21-.21.978.978.21.21-.978zm-.036 2.545l.42-1.95-.978-.211-.42 1.95.978.21zm-1.572.173l.978.21.21-.978-.978-.21-.21.978zm3.242-1.79l-.61 1.9.952.306.61-1.9-.952-.306zm1.581-.017l-.952-.306-.306.952.952.306.306-.952zm-.287 2.529l.61-1.9-.952-.306-.61 1.9.952.306zm-1.581.017l.952.306.306-.952-.952-.306-.306.952zm3.405-1.448l-.81 1.83.914.405.81-1.83-.914-.405zm1.574.15l-.915-.405-.405.915.915.405.405-.915zm-.556 2.49l.81-1.83-.914-.405-.81 1.83.914.405zm-1.574-.15l.915.405.405-.915-.915-.405-.405.915zm3.544-1.085l-1 1.73.866.5 1-1.73-.866-.5zm1.549.317l-.866-.5-.5.866.866.5.5-.866zm-.817 2.413l1-1.73-.866-.5-1 1.73.866.5zm-1.549-.317l.866.5.5-.866-.866-.5-.5.866zm3.626-.734l-1.18 1.61.807.591L412 11l-.807-.591zm1.506.483l-.807-.59-.591.806.807.59.591-.806zm-1.072 2.31l1.18-1.61L412 11l-1.18 1.61.807.591zm-1.506-.484l.807.59.591-.806-.807-.59-.591.806zm3.695-.317l-1.34 1.49.744.669 1.34-1.49-.744-.669zm1.45.632l-.743-.67-.669.744.743.67.669-.744zm-1.302 2.196l1.34-1.49-.744-.669-1.34 1.49.744.669zm-1.45-.632l.743.67.669-.744-.743-.67-.669.744zm3.707.06l-1.49 1.34.669.743 1.49-1.34-.669-.744zm1.375.78l-.669-.743-.743.669.669.743.743-.669zm-1.527 2.046l1.49-1.34-.669-.743-1.49 1.34.669.744zm-1.375-.78l.669.743.743-.669-.669-.743-.743.669zm3.715.49l-1.61 1.18.591.807L419 18l-.591-.807zm1.29.915l-.591-.807-.807.591.591.807.807-.591zm-1.718 1.879l1.61-1.18L419 18l-1.61 1.18.591.807zm-1.29-.915l.591.807.807-.591-.591-.807-.807.591zm3.609.832l-1.73 1 .5.866 1.73-1-.5-.866zm1.183 1.049l-.5-.866-.866.5.5.866.866-.5zm-1.913 1.683l1.73-1-.5-.866-1.73 1 .5.866zm-1.183-1.049l.5.866.866-.5-.5-.866-.866.5zm3.508 1.209l-1.83.81.405.914 1.83-.81-.405-.914zm1.065 1.169l-.405-.915-.915.405.405.915.915-.405zm-2.085 1.47l1.83-.81-.405-.915-1.83.81.405.914zm-1.065-1.17l.405.915.915-.405-.405-.915-.915.405zm3.354 1.573l-1.9.61.306.952 1.9-.61-.306-.952zm.935 1.275l-.306-.952-.952.306.306.952.952-.306zm-2.223 1.24l1.9-.61-.306-.953-1.9.61.306.952zm-.935-1.276l.306.952.952-.306-.306-.952-.952.306zm3.168 1.915l-1.95.42.211.978 1.95-.42-.211-.978zm.805 1.361l-.21-.977-.978.21.21.978.978-.21zm-2.333 1.015l1.95-.42-.211-.978-1.95.42.211.978zm-.805-1.361l.21.977.978-.21-.21-.978-.978.21zm2.96 2.229l-2 .21.104.994 2-.21-.104-.994zm.653 1.44l-.104-.995-.994.104.104.995.994-.105zm-2.445.758l2-.21-.104-.994-2 .21.104.995zm-.653-1.44l.104.995.994-.104-.104-.994-.994.104zM425 35.5h-2v1h2v-1zm.5 1.5v-1h-1v1h1zm-2.5.5h2v-1h-2v1zm-.5-1.5v1h1v-1h-1zm2.434 2.795l-2-.21-.104.995 2 .21.104-.995zm.341 1.544l.104-.994-.994-.105-.104.995.994.105zm-2.549.236l2 .21.104-.995-2-.21-.104.995zm-.341-1.544l-.104.994.994.105.104-.995-.994-.104zm2.126 3.041l-1.95-.42-.211.978 1.95.42.211-.978zm.173 1.572l.21-.977-.978-.211-.21.977.978.211zm-2.545-.036l1.95.42.211-.978-1.95-.42-.211.978zm-.173-1.572l-.21.977.978.211.21-.977-.978-.211zm-.722 4.546l1.9.61.306-.952-1.9-.61-.306.952zm-.017-1.58l-.306.951.952.306.306-.952-.952-.306zm2.529.286l-1.9-.61-.306.952 1.9.61.306-.952zm.017 1.58l.306-.951-.952-.306-.306.952.952.306zm-1.098 1.538l-1.83-.81-.405.914 1.83.81.405-.914zm-.15 1.574l.405-.915-.915-.405-.405.915.915.405zm-2.49-.556l1.83.81.405-.914-1.83-.81-.405.914zm.15-1.574l-.405.915.915.405.405-.915-.915-.405zm-1.645 4.276l1.73 1 .5-.866-1.73-1-.5.866zm.317-1.55l-.5.867.866.5.5-.866-.866-.5zm2.413.818l-1.73-1-.5.866 1.73 1 .5-.866zm-.317 1.55l.5-.867-.866-.5-.5.866.866.5zm-1.362 1.25l-1.61-1.18-.591.806L419 55l.591-.807zm-.483 1.505l.591-.807-.807-.59-.591.806.807.59zm-2.309-1.072l1.61 1.18L419 55l-1.61-1.18-.591.807zm.483-1.506l-.591.807.807.59.591-.806-.807-.59zm.317 3.695l-1.49-1.34-.669.744 1.49 1.34.669-.744zm-.632 1.45l.669-.743-.743-.67-.669.744.743.67zm-2.196-1.302l1.49 1.34.669-.744-1.49-1.34-.669.744zm.632-1.45l-.669.743.743.67.669-.744-.743-.67zm-.059 3.707l-1.34-1.49-.744.669 1.34 1.49.744-.669zm-.781 1.375l.743-.669-.669-.743-.743.669.669.743zm-2.047-1.527l1.34 1.49.744-.669-1.34-1.49-.744.669zm.781-1.375l-.743.669.669.743.743-.669-.669-.743zm-.49 3.715l-1.18-1.61-.807.591L412 62l.807-.591zm-.915 1.29l.807-.591-.591-.807-.807.591.591.807zm-1.879-1.718l1.18 1.61L412 62l-1.18-1.61-.807.591zm.915-1.29l-.807.591.591.807.807-.591-.591-.807zm-.832 3.609l-1-1.73-.866.5 1 1.73.866-.5zm-1.049 1.183l.866-.5-.5-.866-.866.5.5.866zm-1.683-1.913l1 1.73.866-.5-1-1.73-.866.5zm1.049-1.183l-.866.5.5.866.866-.5-.5-.866zm-1.209 3.508l-.81-1.83-.914.405.81 1.83.914-.405zm-1.169 1.065l.915-.405-.405-.915-.915.405.405.915zm-1.469-2.085l.81 1.83.914-.405-.81-1.83-.914.405zm1.169-1.065l-.915.405.405.915.915-.405-.405-.915zm-1.573 3.354l-.61-1.9-.952.306.61 1.9.952-.306zm-1.275.935l.952-.306-.306-.952-.952.306.306.952zm-1.239-2.223l.61 1.9.952-.306-.61-1.9-.952.306zm1.275-.935l-.952.306.306.952.952-.306-.306-.952zm-1.915 3.168l-.42-1.95-.978.211.42 1.95.978-.21zm-1.362.805l.978-.21-.21-.978-.978.21.21.978zm-1.014-2.333l.42 1.95.978-.211-.42-1.95-.978.21zm1.362-.805l-.978.21.21.978.978-.21-.21-.978zm-2.229 2.96l-.21-2-.995.104.21 2 .995-.104zm-1.44.653l.994-.104-.104-.995-.994.105.104.995zm-.76-2.445l.21 2 .995-.104-.21-2-.995.104zm1.44-.654l-.994.105.104.995.994-.105-.104-.995zM394.5 68v-2h-1v2h1zm-1.5.5h1v-1h-1v1zm-.5-2.5v2h1v-2h-1zm1.5-.5h-1v1h1v-1zm-2.795 2.434l.21-2-.995-.104-.21 2 .995.104zm-1.544.341l.994.104.104-.994-.994-.105-.104.995zm-.236-2.55l-.21 2 .995.105.21-2-.995-.104zm1.544-.34l-.994-.105-.104.995.994.104.104-.994zm-2.991 2.136l.42-1.95-.978-.211-.42 1.95.978.21zm-1.572.172l.978.211.21-.977-.978-.211-.21.978zm.036-2.544l-.42 1.95.978.211.42-1.95-.978-.21zm1.572-.172l-.978-.211-.21.977.978.211.21-.977zm-3.242 1.789l.61-1.9-.952-.306-.61 1.9.952.306zm-1.581.017l.952.306.306-.952-.952-.306-.306.952zm.287-2.529l-.61 1.9.952.306.61-1.9-.952-.306zm1.581-.017l-.952-.306-.306.952.952.306.306-.952zm-3.405 1.448l.81-1.83-.914-.405-.81 1.83.914.405zm-1.574-.15l.915.405.405-.915-.915-.405-.405.915zm.556-2.49l-.81 1.83.914.405.81-1.83-.914-.405zm1.574.15l-.915-.405-.405.915.915.405.405-.915zm-4.276-1.645l-1 1.73.866.5 1-1.73-.866-.5zm1.549.317l-.866-.5-.5.866.866.5.5-.866zm-.817 2.413l1-1.73-.866-.5-1 1.73.866.5zm-1.549-.317l.866.5.5-.866-.866-.5-.5.866zm-1.31-1.372l1.18-1.61-.807-.591L375 62l.807.591zm-1.506-.483l.807.59.591-.806-.807-.59-.591.806zm1.072-2.31l-1.18 1.61L375 62l1.18-1.61-.807-.591zm1.506.484l-.807-.59-.591.806.807.59.591-.806zm-3.695.317l1.34-1.49-.744-.669-1.34 1.49.744.669zm-1.45-.632l.743.67.669-.744-.743-.67-.669.744zm1.302-2.196l-1.34 1.49.744.669 1.34-1.49-.744-.669zm1.45.632l-.743-.67-.669.744.743.67.669-.744zm-3.707-.06l1.49-1.34-.669-.743-1.49 1.34.669.743zm-1.375-.78l.669.743.743-.669-.669-.743-.743.669zm1.527-2.047l-1.49 1.34.669.744 1.49-1.34-.669-.743zm1.375.781l-.669-.743-.743.669.669.743.743-.669zm-3.715-.49l1.61-1.18-.591-.807L368 55l.591.807zm-1.29-.915l.591.807.807-.591-.591-.807-.807.591zm1.718-1.879l-1.61 1.18L368 55l1.61-1.18-.591-.807zm1.29.915l-.591-.807-.807.591.591.807.807-.591zm-3.609-.832l1.73-1-.5-.866-1.73 1 .5.866zm-1.183-1.049l.5.866.866-.5-.5-.866-.866.5zm1.913-1.683l-1.73 1 .5.866 1.73-1-.5-.866zm1.183 1.049l-.5-.866-.866.5.5.866.866-.5zm-3.508-1.209l1.83-.81-.405-.914-1.83.81.405.914zm-1.065-1.169l.405.915.915-.405-.405-.915-.915.405zm2.085-1.47l-1.83.81.405.915 1.83-.81-.405-.914zm1.065 1.17l-.405-.915-.915.405.405.915.915-.405zm-3.354-1.573l1.9-.61-.306-.952-1.9.61.306.952zm-.935-1.275l.306.952.952-.306-.306-.952-.952.306zm2.223-1.24l-1.9.61.306.953 1.9-.61-.306-.952zm.935 1.276l-.306-.952-.952.306.306.952.952-.306zm-3.168-1.915l1.95-.42-.211-.978-1.95.42.211.978zm-.805-1.361l.21.977.978-.21-.21-.978-.978.21zm2.333-1.015l-1.95.42.211.978 1.95-.42-.211-.978zm.805 1.361l-.21-.977-.978.21.21.978.978-.21zm-1.178-4.378l-2 .21.104.995 2-.21-.104-.995zm.653 1.44l-.104-.995-.994.105.104.995.994-.105zm-2.445.76l2-.21-.104-.995-2 .21.104.995zm-.653-1.44l.104.995.994-.105-.104-.995-.994.105zM362 37.5h2v-1h-2v1zm-.5-1.5v1h1v-1h-1zm2.5-.5h-2v1h2v-1zm.5 1.5v-1h-1v1h1zm-.236-4.575l-2-.21-.104.995 2 .21.104-.995zm.341 1.544l.104-.994-.994-.105-.104.995.994.104zm-2.549.236l2 .21.104-.995-2-.21-.104.995zm-.341-1.544l-.104.994.994.105.104-.995-.994-.105zm3.126-3.269l-1.95-.42-.211.978 1.95.42.211-.978zm.173 1.572l.21-.977-.978-.211-.21.977.978.211zm-2.545-.036l1.95.42.211-.978-1.95-.42-.211.978zm-.173-1.572l-.21.977.978.211.21-.977-.978-.211zm.928-1.634l1.9.61.306-.952-1.9-.61-.306.952zm-.017-1.58l-.306.951.952.306.306-.952-.952-.306zm2.529.286l-1.9-.61-.306.952 1.9.61.306-.952zm.017 1.58l.306-.951-.952-.306-.306.952.952.306zm-1.448-3.404l1.83.81.405-.914-1.83-.81-.405.914zm.15-1.574l-.405.915.915.405.405-.915-.915-.405zm2.49.556l-1.83-.81-.405.914 1.83.81.405-.914zm-.15 1.574l.405-.915-.915-.405-.405.915.915.405zm-1.085-3.544l1.73 1 .5-.866-1.73-1-.5.866zm.317-1.55l-.5.867.866.5.5-.866-.866-.5zm2.413.818l-1.73-1-.5.866 1.73 1 .5-.866zm-.317 1.55l.5-.867-.866-.5-.5.866.866.5zm-.714-3.627l1.61 1.18.591-.807L368 18l-.591.807zm.483-1.506l-.591.807.807.59.591-.806-.807-.59zm2.309 1.072l-1.61-1.18L368 18l1.61 1.18.591-.807zm-.483 1.506l.591-.807-.807-.59-.591.806.807.59zm-.317-3.696l1.49 1.34.669-.743-1.49-1.34-.669.743zm.632-1.45l-.669.744.743.67.669-.744-.743-.67zm2.196 1.303l-1.49-1.34-.669.744 1.49 1.34.669-.744zm-.632 1.45l.669-.743-.743-.67-.669.744.743.67zm.059-3.707l1.34 1.49.744-.669-1.34-1.49-.744.669zm.781-1.375l-.743.669.669.743.743-.669-.669-.743zm2.047 1.527l-1.34-1.49-.744.669 1.34 1.49.744-.669zm-.781 1.375l.743-.669-.669-.743-.743.669.669.743zm.49-3.715l1.18 1.61.807-.591L375 11l-.807.591zm.915-1.29l-.807.591.591.807.807-.591-.591-.807zm1.879 1.718l-1.18-1.61L375 11l1.18 1.61.807-.591zm-.915 1.29l.807-.591-.591-.807-.807.591.591.807zm.832-3.609l1 1.73.866-.5-1-1.73-.866.5zm1.049-1.183l-.866.5.5.866.866-.5-.5-.866zm1.683 1.913l-1-1.73-.866.5 1 1.73.866-.5zm-1.049 1.183l.866-.5-.5-.866-.866.5.5.866zm1.209-3.508l.81 1.83.914-.405-.81-1.83-.914.405zm1.169-1.065l-.915.405.405.915.915-.405-.405-.915zm1.469 2.085l-.81-1.83-.914.405.81 1.83.914-.405zm-1.169 1.065l.915-.405-.405-.915-.915.405.405.915zm1.573-3.354l.61 1.9.952-.306-.61-1.9-.952.306zm1.275-.935l-.952.306.306.952.952-.306-.306-.952zm1.239 2.223l-.61-1.9-.952.306.61 1.9.952-.306zm-1.275.935l.952-.306-.306-.952-.952.306.306.952zm1.915-3.168l.42 1.95.978-.211-.42-1.95-.978.21zm1.362-.805l-.978.21.21.978.978-.21-.21-.978zm1.014 2.333l-.42-1.95-.978.211.42 1.95.978-.21zm-1.362.805l.978-.21-.21-.978-.978.21.21.978zm4.379-1.178l-.21-2-.995.104.21 2 .995-.104zm-1.44.653l.994-.104-.104-.994-.994.104.104.994zm-.76-2.445l.21 2 .995-.104-.21-2-.995.104zm1.44-.653l-.994.104.104.994.994-.104-.104-.994z"/></g><g id="Label" opacity=".64" fill-rule="evenodd" clip-rule="evenodd" fill="#E08300"><path d="M388 43h3v1h-3v-1zm4 0h1v1h-1v-1zm6 0h1v1h-1v-1zm-4 0h3v1h-3v-1z" id="Rectangle 39"/><path d="M391 43h1v1h-1v-1zm6 0h1v1h-1v-1zm-10 3h1v1h-1v-1zm2 0h2v1h-2v-1zm6 0h5v1h-5v-1zm-2 0h1v1h-1v-1z" fill-opacity=".5" id="Rectangle 39_2"/><path d="M389 46h-1v1h1v-1zm6 0h-1v1h1v-1z" fill-opacity=".25" id="Rectangle 39_3"/></g></g><g id="Whiteboard" clip-path="url(#clip1_547_9348)"><rect id="Base" x="71" y="24" width="288" height="144" rx="1" fill="#FF9807"/><path id="Border" fill-rule="evenodd" clip-rule="evenodd" d="M66 16a3 3 0 00-3 3v154a3 3 0 003 3h298a3 3 0 003-3V19a3 3 0 00-3-3H66zm6 8a1 1 0 00-1 1v142a1 1 0 001 1h286a1 1 0 001-1V25a1 1 0 00-1-1H72z" fill="#F18D00"/><path id="Backlog" d="M90.512 41c1.65 0 2.627-.811 2.627-2.175 0-1.026-.672-1.751-1.73-1.886v-.086c.747-.134 1.338-.864 1.338-1.67 0-1.187-.87-1.934-2.294-1.934h-2.965V41h3.024zm-2.057-6.897h1.794c.961 0 1.52.457 1.52 1.247 0 .821-.596 1.24-1.767 1.24h-1.547v-2.487zm0 6.043v-2.723h1.82c1.236 0 1.87.456 1.87 1.353s-.612 1.37-1.778 1.37h-1.912zm7.562.145c-.671 0-1.17-.344-1.17-.935 0-.58.386-.886 1.267-.945l1.557-.102v.532c0 .827-.703 1.45-1.654 1.45zm-.172.811c.774 0 1.407-.338 1.783-.956h.086V41h.881v-3.964c0-1.203-.79-1.928-2.202-1.928-1.235 0-2.148.612-2.272 1.541h.935c.129-.456.612-.72 1.305-.72.865 0 1.31.393 1.31 1.107v.526l-1.67.103c-1.348.08-2.11.676-2.11 1.713 0 1.058.832 1.724 1.954 1.724zm8.883-4.12c-.161-1.03-1.02-1.874-2.427-1.874-1.622 0-2.654 1.17-2.654 2.976 0 1.842 1.037 3.018 2.659 3.018 1.391 0 2.256-.784 2.422-1.848h-.934c-.172.656-.714 1.016-1.493 1.016-1.032 0-1.698-.85-1.698-2.187 0-1.31.656-2.143 1.698-2.143.832 0 1.343.468 1.493 1.042h.934zm2.062.758h-.085v-4.83h-.924V41h.924v-2.197l.553-.515 2.17 2.712h1.176l-2.659-3.309 2.492-2.481h-1.133l-2.514 2.53zm4.598 3.26h.923v-8.089h-.923V41zm4.731.102c1.649 0 2.669-1.139 2.669-2.997 0-1.864-1.02-2.997-2.669-2.997s-2.669 1.133-2.669 2.997c0 1.858 1.02 2.997 2.669 2.997zm0-.832c-1.096 0-1.713-.795-1.713-2.165 0-1.375.617-2.165 1.713-2.165s1.713.79 1.713 2.165c0 1.37-.617 2.165-1.713 2.165zm6.096-.172c-1.075 0-1.676-.817-1.676-2.079 0-1.262.601-2.079 1.676-2.079 1.069 0 1.718.817 1.718 2.079 0 1.262-.644 2.079-1.718 2.079zm.043 3.126c1.579 0 2.578-.827 2.578-2.122V35.21h-.881v.918h-.086c-.333-.623-1.047-1.02-1.858-1.02-1.488 0-2.428 1.176-2.428 2.911s.929 2.895 2.428 2.895c.795 0 1.45-.36 1.815-.999h.086v1.139c0 .854-.618 1.364-1.654 1.364-.833 0-1.348-.306-1.451-.779h-.977c.14.956 1.031 1.585 2.428 1.585z" fill="#E08300"/><path id="To-do" d="M144.969 41v-6.88h2.498v-.87h-5.962v.87h2.497V41h.967zm4.812.102c1.649 0 2.67-1.139 2.67-2.997 0-1.864-1.021-2.997-2.67-2.997s-2.669 1.133-2.669 2.997c0 1.858 1.02 2.997 2.669 2.997zm0-.832c-1.095 0-1.713-.795-1.713-2.165 0-1.375.618-2.165 1.713-2.165 1.096 0 1.714.79 1.714 2.165 0 1.37-.618 2.165-1.714 2.165zm7.24-1.95v-.876h-3.523v.876h3.523zm3.48 2.782c.8 0 1.488-.381 1.853-1.026h.086V41h.881v-8.089h-.924v3.212h-.081c-.327-.634-1.009-1.015-1.815-1.015-1.472 0-2.433 1.182-2.433 2.997 0 1.82.95 2.997 2.433 2.997zm.215-5.162c1.047 0 1.702.838 1.702 2.165 0 1.337-.65 2.165-1.702 2.165-1.058 0-1.692-.812-1.692-2.165 0-1.348.639-2.165 1.692-2.165zm6.412 5.162c1.649 0 2.67-1.139 2.67-2.997 0-1.864-1.021-2.997-2.67-2.997s-2.669 1.133-2.669 2.997c0 1.858 1.02 2.997 2.669 2.997zm0-.832c-1.095 0-1.713-.795-1.713-2.165 0-1.375.618-2.165 1.713-2.165 1.096 0 1.714.79 1.714 2.165 0 1.37-.618 2.165-1.714 2.165z" fill="#E08300"/><path id="Des" d="M189.988 33.25V41h2.659c2.304 0 3.658-1.434 3.658-3.878 0-2.438-1.359-3.873-3.658-3.873h-2.659zm.967.87h1.628c1.718 0 2.733 1.117 2.733 3.013 0 1.89-1.004 2.997-2.733 2.997h-1.628v-6.01zm8.851 1.804c.919 0 1.531.677 1.552 1.703h-3.19c.07-1.026.714-1.703 1.638-1.703zm1.526 3.578c-.242.51-.747.784-1.494.784-.983 0-1.622-.726-1.67-1.87v-.042h4.163v-.355c0-1.8-.951-2.911-2.514-2.911-1.59 0-2.61 1.182-2.61 3.002 0 1.832 1.004 2.992 2.61 2.992 1.267 0 2.159-.607 2.438-1.6h-.923zm1.949-2.708c0 .838.494 1.306 1.579 1.569l.993.242c.618.15.919.418.919.816 0 .532-.559.902-1.337.902-.742 0-1.204-.311-1.359-.8h-.951c.102.961.988 1.58 2.277 1.58 1.316 0 2.321-.715 2.321-1.752 0-.832-.527-1.305-1.617-1.568l-.892-.215c-.682-.167-1.004-.414-1.004-.811 0-.516.537-.865 1.225-.865.698 0 1.149.306 1.272.768h.914c-.124-.95-.967-1.552-2.181-1.552-1.23 0-2.159.725-2.159 1.686z" fill="#E08300"/><path id="Dev" d="M233.988 33.25V41h2.659c2.304 0 3.658-1.434 3.658-3.878 0-2.438-1.359-3.873-3.658-3.873h-2.659zm.967.87h1.628c1.718 0 2.733 1.117 2.733 3.013 0 1.89-1.004 2.997-2.733 2.997h-1.628v-6.01zm8.851 1.804c.919 0 1.531.677 1.552 1.703h-3.19c.07-1.026.714-1.703 1.638-1.703zm1.526 3.578c-.242.51-.747.784-1.494.784-.983 0-1.622-.726-1.67-1.87v-.042h4.163v-.355c0-1.8-.951-2.911-2.514-2.911-1.59 0-2.61 1.182-2.61 3.002 0 1.832 1.004 2.992 2.61 2.992 1.267 0 2.159-.607 2.438-1.6h-.923zm6.702-4.292h-.988l-1.585 4.77h-.086l-1.584-4.77h-.988l2.143 5.79h.945l2.143-5.79z" fill="#E08300"/><path id="QA-ST" d="M272.249 41.183c.499 0 .972-.08 1.385-.237l.682.93h1.085l-.983-1.365c.881-.634 1.375-1.842 1.375-3.384 0-2.497-1.364-4.06-3.544-4.06-2.192 0-3.561 1.557-3.561 4.06 0 2.514 1.353 4.056 3.561 4.056zm.005-.892c-1.59 0-2.573-1.208-2.573-3.164 0-1.95.988-3.169 2.568-3.169 1.568 0 2.551 1.225 2.551 3.17 0 1.181-.339 2.105-.946 2.588l-.703-.934h-1.096l1.026 1.39a2.838 2.838 0 01-.827.119zm9.517.709h1.015l-2.857-7.75h-.956L276.115 41h1.015l.779-2.218h3.083l.779 2.218zm-2.363-6.499h.086l1.213 3.459h-2.513l1.214-3.459zm7.578 3.819v-.876h-3.524v.876h3.524zm1.084.655c.102 1.337 1.236 2.208 2.879 2.208 1.773 0 2.895-.908 2.895-2.331 0-1.14-.644-1.762-2.25-2.165l-.811-.215c-1.069-.274-1.494-.623-1.494-1.23 0-.784.683-1.3 1.714-1.3.967 0 1.622.473 1.756 1.268h.972c-.08-1.252-1.197-2.143-2.696-2.143-1.638 0-2.739.892-2.739 2.207 0 1.102.607 1.735 2.009 2.09l.993.258c1.069.268 1.553.687 1.553 1.348 0 .768-.769 1.332-1.811 1.332-1.101 0-1.874-.516-1.992-1.327h-.978zM298.071 41v-6.88h2.497v-.87h-5.962v.87h2.498V41h.967z" fill="#E08300"/><path id="Done" d="M320.488 33.25V41h2.659c2.304 0 3.658-1.434 3.658-3.878 0-2.438-1.359-3.873-3.658-3.873h-2.659zm.967.87h1.628c1.718 0 2.733 1.117 2.733 3.013 0 1.89-1.004 2.997-2.733 2.997h-1.628v-6.01zm8.921 6.982c1.649 0 2.669-1.139 2.669-2.997 0-1.864-1.02-2.997-2.669-2.997s-2.669 1.133-2.669 2.997c0 1.858 1.02 2.997 2.669 2.997zm0-.832c-1.096 0-1.713-.795-1.713-2.165 0-1.375.617-2.165 1.713-2.165s1.713.79 1.713 2.165c0 1.37-.617 2.165-1.713 2.165zm3.754.73h.924v-3.427c0-1.015.596-1.633 1.52-1.633s1.364.495 1.364 1.537V41h.924v-3.749c0-1.375-.725-2.143-2.025-2.143-.886 0-1.45.376-1.74 1.015h-.086v-.913h-.881V41zm8.367-5.076c.919 0 1.531.677 1.553 1.703h-3.191c.07-1.026.715-1.703 1.638-1.703zm1.526 3.578c-.242.51-.747.784-1.493.784-.983 0-1.622-.726-1.671-1.87v-.042h4.163v-.355c0-1.8-.951-2.911-2.514-2.911-1.59 0-2.61 1.182-2.61 3.002 0 1.832 1.004 2.992 2.61 2.992 1.268 0 2.159-.607 2.439-1.6h-.924z" fill="#E08300"/><g id="Diveiders" opacity=".448" fill="#F18D00"><path id="Rectangle 42" d="M133 29h1v135h-1z"/><path id="Rectangle 42_2" transform="rotate(90 355 52)" d="M355 52h1v280h-1z"/><path id="Rectangle 42_3" d="M176 29h1v135h-1z"/><path id="Rectangle 42_4" d="M219 29h1v135h-1z"/><path id="Rectangle 42_5" d="M262 29h1v135h-1z"/><path id="Rectangle 42_6" d="M308 29h1v135h-1z"/></g><g id="Cards" opacity=".502"><g id="Img / Scrum Card"><path id="Rectangle 49" fill-rule="evenodd" clip-rule="evenodd" d="M190 63h24l1 25-27-1 2-24z" fill="#F18D00"/><path id="Rectangle 48" fill="#FFA323" d="M187 59h27v24h-27z"/><g id="Label_2" opacity=".64" fill-rule="evenodd" clip-rule="evenodd" fill="#E08300"><path d="M196 68h3v1h-3v-1zm4 0h1v1h-1v-1zm6 0h1v1h-1v-1zm-4 0h3v1h-3v-1z" id="Rectangle 39_4"/><path d="M199 68h1v1h-1v-1zm6 0h1v1h-1v-1zm-10 3h1v1h-1v-1zm2 0h2v1h-2v-1zm6 0h5v1h-5v-1zm-2 0h1v1h-1v-1z" fill-opacity=".5" id="Rectangle 39_5"/><path d="M197 71h-1v1h1v-1zm6 0h-1v1h1v-1z" fill-opacity=".25" id="Rectangle 39_6"/></g></g><g id="Img / Scrum Card_2"><path id="Rectangle 49_2" fill-rule="evenodd" clip-rule="evenodd" d="M88 60h24l1 25-27-1 2-24z" fill="#F18D00"/><path id="Rectangle 48_2" fill="#FFA323" d="M85 56h27v24H85z"/><g id="Label_3" opacity=".64" fill-rule="evenodd" clip-rule="evenodd" fill="#E08300"><path d="M94 65h3v1h-3v-1zm4 0h1v1h-1v-1zm6 0h1v1h-1v-1zm-4 0h3v1h-3v-1z" id="Rectangle 39_7"/><path d="M97 65h1v1h-1v-1zm6 0h1v1h-1v-1zm-10 3h1v1h-1v-1zm2 0h2v1h-2v-1zm6 0h5v1h-5v-1zm-2 0h1v1h-1v-1z" fill-opacity=".5" id="Rectangle 39_8"/><path d="M95 68h-1v1h1v-1zm6 0h-1v1h1v-1z" fill-opacity=".25" id="Rectangle 39_9"/></g></g><g id="Img / Scrum Card_3"><path id="Rectangle 49_3" fill-rule="evenodd" clip-rule="evenodd" d="M140 68h24l1 25-27-1 2-24z" fill="#F18D00"/><path id="Rectangle 48_3" fill="#FFA323" d="M137 64h27v24h-27z"/><g id="Label_4" opacity=".64" fill-rule="evenodd" clip-rule="evenodd" fill="#E08300"><path d="M146 73h3v1h-3v-1zm4 0h1v1h-1v-1zm6 0h1v1h-1v-1zm-4 0h3v1h-3v-1z" id="Rectangle 39_10"/><path d="M149 73h1v1h-1v-1zm6 0h1v1h-1v-1zm-10 3h1v1h-1v-1zm2 0h2v1h-2v-1zm6 0h5v1h-5v-1zm-2 0h1v1h-1v-1z" fill-opacity=".5" id="Rectangle 39_11"/><path d="M147 76h-1v1h1v-1zm6 0h-1v1h1v-1z" fill-opacity=".25" id="Rectangle 39_12"/></g></g><g id="Img / Scrum Card_4"><path id="Rectangle 49_4" fill-rule="evenodd" clip-rule="evenodd" d="M181 87h24l1 25-27-1 2-24z" fill="#F18D00"/><path id="Rectangle 48_4" fill="#FFA323" d="M178 83h27v24h-27z"/><g id="Label_5" opacity=".64" fill-rule="evenodd" clip-rule="evenodd" fill="#E08300"><path d="M187 92h3v1h-3v-1zm4 0h1v1h-1v-1zm6 0h1v1h-1v-1zm-4 0h3v1h-3v-1z" id="Rectangle 39_13"/><path d="M190 92h1v1h-1v-1zm6 0h1v1h-1v-1zm-10 3h1v1h-1v-1zm2 0h2v1h-2v-1zm6 0h5v1h-5v-1zm-2 0h1v1h-1v-1z" fill-opacity=".5" id="Rectangle 39_14"/><path d="M188 95h-1v1h1v-1zm6 0h-1v1h1v-1z" fill-opacity=".25" id="Rectangle 39_15"/></g></g><g id="Img / Scrum Card_5"><path id="Rectangle 49_5" fill-rule="evenodd" clip-rule="evenodd" d="M193 109h24l1 25-27-1 2-24z" fill="#F18D00"/><path id="Rectangle 48_5" fill="#FFA323" d="M190 105h27v24h-27z"/><g id="Label_6" opacity=".64" fill-rule="evenodd" clip-rule="evenodd" fill="#E08300"><path d="M199 114h3v1h-3v-1zm4 0h1v1h-1v-1zm6 0h1v1h-1v-1zm-4 0h3v1h-3v-1z" id="Rectangle 39_16"/><path d="M202 114h1v1h-1v-1zm6 0h1v1h-1v-1zm-10 3h1v1h-1v-1zm2 0h2v1h-2v-1zm6 0h5v1h-5v-1zm-2 0h1v1h-1v-1z" fill-opacity=".5" id="Rectangle 39_17"/><path d="M200 117h-1v1h1v-1zm6 0h-1v1h1v-1z" fill-opacity=".25" id="Rectangle 39_18"/></g></g><g id="Img / Scrum Card_6"><path id="Rectangle 49_6" fill-rule="evenodd" clip-rule="evenodd" d="M223 67h24l1 25-27-1 2-24z" fill="#F18D00"/><path id="Rectangle 48_6" fill="#FFA323" d="M220 63h27v24h-27z"/><g id="Label_7" opacity=".64" fill-rule="evenodd" clip-rule="evenodd" fill="#E08300"><path d="M229 72h3v1h-3v-1zm4 0h1v1h-1v-1zm6 0h1v1h-1v-1zm-4 0h3v1h-3v-1z" id="Rectangle 39_19"/><path d="M232 72h1v1h-1v-1zm6 0h1v1h-1v-1zm-10 3h1v1h-1v-1zm2 0h2v1h-2v-1zm6 0h5v1h-5v-1zm-2 0h1v1h-1v-1z" fill-opacity=".5" id="Rectangle 39_20"/><path d="M230 75h-1v1h1v-1zm6 0h-1v1h1v-1z" fill-opacity=".25" id="Rectangle 39_21"/></g></g><g id="Img / Scrum Card_7"><path id="Rectangle 49_7" fill-rule="evenodd" clip-rule="evenodd" d="M240 97h24l1 25-27-1 2-24z" fill="#F18D00"/><path id="Rectangle 48_7" fill="#FFA323" d="M237 93h27v24h-27z"/><g id="Label_8" opacity=".64" fill-rule="evenodd" clip-rule="evenodd" fill="#E08300"><path d="M246 102h3v1h-3v-1zm4 0h1v1h-1v-1zm6 0h1v1h-1v-1zm-4 0h3v1h-3v-1z" id="Rectangle 39_22"/><path d="M249 102h1v1h-1v-1zm6 0h1v1h-1v-1zm-10 3h1v1h-1v-1zm2 0h2v1h-2v-1zm6 0h5v1h-5v-1zm-2 0h1v1h-1v-1z" fill-opacity=".5" id="Rectangle 39_23"/><path d="M247 105h-1v1h1v-1zm6 0h-1v1h1v-1z" fill-opacity=".25" id="Rectangle 39_24"/></g></g><g id="Img / Scrum Card_8"><path id="Rectangle 49_8" fill-rule="evenodd" clip-rule="evenodd" d="M230 129h24l1 25-27-1 2-24z" fill="#F18D00"/><path id="Rectangle 48_8" fill="#FFA323" d="M227 125h27v24h-27z"/><g id="Label_9" opacity=".64" fill-rule="evenodd" clip-rule="evenodd" fill="#E08300"><path d="M236 134h3v1h-3v-1zm4 0h1v1h-1v-1zm6 0h1v1h-1v-1zm-4 0h3v1h-3v-1z" id="Rectangle 39_25"/><path d="M239 134h1v1h-1v-1zm6 0h1v1h-1v-1zm-10 3h1v1h-1v-1zm2 0h2v1h-2v-1zm6 0h5v1h-5v-1zm-2 0h1v1h-1v-1z" fill-opacity=".5" id="Rectangle 39_26"/><path d="M237 137h-1v1h1v-1zm6 0h-1v1h1v-1z" fill-opacity=".25" id="Rectangle 39_27"/></g></g><g id="Img / Scrum Card_9"><path id="Rectangle 49_9" fill-rule="evenodd" clip-rule="evenodd" d="M270 64h24l1 25-27-1 2-24z" fill="#F18D00"/><path id="Rectangle 48_9" fill="#FFA323" d="M267 60h27v24h-27z"/><g id="Label_10" opacity=".64" fill-rule="evenodd" clip-rule="evenodd" fill="#E08300"><path d="M276 69h3v1h-3v-1zm4 0h1v1h-1v-1zm6 0h1v1h-1v-1zm-4 0h3v1h-3v-1z" id="Rectangle 39_28"/><path d="M279 69h1v1h-1v-1zm6 0h1v1h-1v-1zm-10 3h1v1h-1v-1zm2 0h2v1h-2v-1zm6 0h5v1h-5v-1zm-2 0h1v1h-1v-1z" fill-opacity=".5" id="Rectangle 39_29"/><path d="M277 72h-1v1h1v-1zm6 0h-1v1h1v-1z" fill-opacity=".25" id="Rectangle 39_30"/></g></g><g id="Img / Scrum Card_10"><path id="Rectangle 49_10" fill-rule="evenodd" clip-rule="evenodd" d="M281 89h24l1 25-27-1 2-24z" fill="#F18D00"/><path id="Rectangle 48_10" fill="#FFA323" d="M278 85h27v24h-27z"/><g id="Label_11" opacity=".64" fill-rule="evenodd" clip-rule="evenodd" fill="#E08300"><path d="M287 94h3v1h-3v-1zm4 0h1v1h-1v-1zm6 0h1v1h-1v-1zm-4 0h3v1h-3v-1z" id="Rectangle 39_31"/><path d="M290 94h1v1h-1v-1zm6 0h1v1h-1v-1zm-10 3h1v1h-1v-1zm2 0h2v1h-2v-1zm6 0h5v1h-5v-1zm-2 0h1v1h-1v-1z" fill-opacity=".5" id="Rectangle 39_32"/><path d="M288 97h-1v1h1v-1zm6 0h-1v1h1v-1z" fill-opacity=".25" id="Rectangle 39_33"/></g></g><g id="Img / Scrum Card_11"><path id="Rectangle 49_11" fill-rule="evenodd" clip-rule="evenodd" d="M318 67h24l1 25-27-1 2-24z" fill="#F18D00"/><path id="Rectangle 48_11" fill="#FFA323" d="M315 63h27v24h-27z"/><g id="Label_12" opacity=".64" fill-rule="evenodd" clip-rule="evenodd" fill="#E08300"><path d="M324 72h3v1h-3v-1zm4 0h1v1h-1v-1zm6 0h1v1h-1v-1zm-4 0h3v1h-3v-1z" id="Rectangle 39_34"/><path d="M327 72h1v1h-1v-1zm6 0h1v1h-1v-1zm-10 3h1v1h-1v-1zm2 0h2v1h-2v-1zm6 0h5v1h-5v-1zm-2 0h1v1h-1v-1z" fill-opacity=".5" id="Rectangle 39_35"/><path d="M325 75h-1v1h1v-1zm6 0h-1v1h1v-1z" fill-opacity=".25" id="Rectangle 39_36"/></g></g><g id="Img / Scrum Card_12"><path id="Rectangle 49_12" fill-rule="evenodd" clip-rule="evenodd" d="M103 128h24l1 25-27-1 2-24z" fill="#F18D00"/><path id="Rectangle 48_12" fill="#FFA323" d="M100 124h27v24h-27z"/><g id="Label_13" opacity=".64" fill-rule="evenodd" clip-rule="evenodd" fill="#E08300"><path d="M109 133h3v1h-3v-1zm4 0h1v1h-1v-1zm6 0h1v1h-1v-1zm-4 0h3v1h-3v-1z" id="Rectangle 39_37"/><path d="M112 133h1v1h-1v-1zm6 0h1v1h-1v-1zm-10 3h1v1h-1v-1zm2 0h2v1h-2v-1zm6 0h5v1h-5v-1zm-2 0h1v1h-1v-1z" fill-opacity=".5" id="Rectangle 39_38"/><path d="M110 136h-1v1h1v-1zm6 0h-1v1h1v-1z" fill-opacity=".25" id="Rectangle 39_39"/></g></g><g id="Img / Scrum Card_13"><path id="Rectangle 49_13" fill-rule="evenodd" clip-rule="evenodd" d="M88 60h24l1 25-27-1 2-24z" fill="#F18D00"/><path id="Rectangle 48_13" fill="#FFA323" d="M85 56h27v24H85z"/><g id="Label_14" opacity=".64" fill-rule="evenodd" clip-rule="evenodd" fill="#E08300"><path d="M94 65h3v1h-3v-1zm4 0h1v1h-1v-1zm6 0h1v1h-1v-1zm-4 0h3v1h-3v-1z" id="Rectangle 39_40"/><path d="M97 65h1v1h-1v-1zm6 0h1v1h-1v-1zm-10 3h1v1h-1v-1zm2 0h2v1h-2v-1zm6 0h5v1h-5v-1zm-2 0h1v1h-1v-1z" fill-opacity=".5" id="Rectangle 39_41"/><path d="M95 68h-1v1h1v-1zm6 0h-1v1h1v-1z" fill-opacity=".25" id="Rectangle 39_42"/></g></g><g id="Img / Scrum Card_14"><path id="Rectangle 49_14" fill-rule="evenodd" clip-rule="evenodd" d="M145 68h24l1 25-27-1 2-24z" fill="#F18D00"/><path id="Rectangle 48_14" fill="#FFA323" d="M142 64h27v24h-27z"/><g id="Label_15" opacity=".64" fill-rule="evenodd" clip-rule="evenodd" fill="#E08300"><path d="M151 73h3v1h-3v-1zm4 0h1v1h-1v-1zm6 0h1v1h-1v-1zm-4 0h3v1h-3v-1z" id="Rectangle 39_43"/><path d="M154 73h1v1h-1v-1zm6 0h1v1h-1v-1zm-10 3h1v1h-1v-1zm2 0h2v1h-2v-1zm6 0h5v1h-5v-1zm-2 0h1v1h-1v-1z" fill-opacity=".5" id="Rectangle 39_44"/><path d="M152 76h-1v1h1v-1zm6 0h-1v1h1v-1z" fill-opacity=".25" id="Rectangle 39_45"/></g></g><g id="Img / Scrum Card_15"><path id="Rectangle 49_15" fill-rule="evenodd" clip-rule="evenodd" d="M98 87h24l1 25-27-1 2-24z" fill="#F18D00"/><path id="Rectangle 48_15" fill="#FFA323" d="M95 83h27v24H95z"/><g id="Label_16" opacity=".64" fill-rule="evenodd" clip-rule="evenodd" fill="#E08300"><path d="M104 92h3v1h-3v-1zm4 0h1v1h-1v-1zm6 0h1v1h-1v-1zm-4 0h3v1h-3v-1z" id="Rectangle 39_46"/><path d="M107 92h1v1h-1v-1zm6 0h1v1h-1v-1zm-10 3h1v1h-1v-1zm2 0h2v1h-2v-1zm6 0h5v1h-5v-1zm-2 0h1v1h-1v-1z" fill-opacity=".5" id="Rectangle 39_47"/><path d="M105 95h-1v1h1v-1zm6 0h-1v1h1v-1z" fill-opacity=".25" id="Rectangle 39_48"/></g></g><g id="Img / Scrum Card_16"><path id="Rectangle 49_16" fill-rule="evenodd" clip-rule="evenodd" d="M87 109h24l1 25-27-1 2-24z" fill="#F18D00"/><path id="Rectangle 48_16" fill="#FFA323" d="M84 105h27v24H84z"/><g id="Label_17" opacity=".64" fill-rule="evenodd" clip-rule="evenodd" fill="#E08300"><path d="M93 114h3v1h-3v-1zm4 0h1v1h-1v-1zm6 0h1v1h-1v-1zm-4 0h3v1h-3v-1z" id="Rectangle 39_49"/><path d="M96 114h1v1h-1v-1zm6 0h1v1h-1v-1zm-10 3h1v1h-1v-1zm2 0h2v1h-2v-1zm6 0h5v1h-5v-1zm-2 0h1v1h-1v-1z" fill-opacity=".5" id="Rectangle 39_50"/><path d="M94 117h-1v1h1v-1zm6 0h-1v1h1v-1z" fill-opacity=".25" id="Rectangle 39_51"/></g></g><g id="Img / Scrum Card_17"><path id="Rectangle 49_17" fill-rule="evenodd" clip-rule="evenodd" d="M142 97h24l1 25-27-1 2-24z" fill="#F18D00"/><path id="Rectangle 48_17" fill="#FFA323" d="M139 93h27v24h-27z"/><g id="Label_18" opacity=".64" fill-rule="evenodd" clip-rule="evenodd" fill="#E08300"><path d="M148 102h3v1h-3v-1zm4 0h1v1h-1v-1zm6 0h1v1h-1v-1zm-4 0h3v1h-3v-1z" id="Rectangle 39_52"/><path d="M151 102h1v1h-1v-1zm6 0h1v1h-1v-1zm-10 3h1v1h-1v-1zm2 0h2v1h-2v-1zm6 0h5v1h-5v-1zm-2 0h1v1h-1v-1z" fill-opacity=".5" id="Rectangle 39_53"/><path d="M149 105h-1v1h1v-1zm6 0h-1v1h1v-1z" fill-opacity=".25" id="Rectangle 39_54"/></g></g><g id="Img / Scrum Card_18"><path id="Rectangle 49_18" fill-rule="evenodd" clip-rule="evenodd" d="M152 129h24l1 25-27-1 2-24z" fill="#F18D00"/><path id="Rectangle 48_18" fill="#FFA323" d="M149 125h27v24h-27z"/><g id="Label_19" opacity=".64" fill-rule="evenodd" clip-rule="evenodd" fill="#E08300"><path d="M158 134h3v1h-3v-1zm4 0h1v1h-1v-1zm6 0h1v1h-1v-1zm-4 0h3v1h-3v-1z" id="Rectangle 39_55"/><path d="M161 134h1v1h-1v-1zm6 0h1v1h-1v-1zm-10 3h1v1h-1v-1zm2 0h2v1h-2v-1zm6 0h5v1h-5v-1zm-2 0h1v1h-1v-1z" fill-opacity=".5" id="Rectangle 39_56"/><path d="M159 137h-1v1h1v-1zm6 0h-1v1h1v-1z" fill-opacity=".25" id="Rectangle 39_57"/></g></g><g id="Img / Scrum Card_19"><path id="Rectangle 49_19" fill-rule="evenodd" clip-rule="evenodd" d="M103 128h24l1 25-27-1 2-24z" fill="#F18D00"/><path id="Rectangle 48_19" fill="#FFA323" d="M100 124h27v24h-27z"/><g id="Label_20" opacity=".64" fill-rule="evenodd" clip-rule="evenodd" fill="#E08300"><path d="M109 133h3v1h-3v-1zm4 0h1v1h-1v-1zm6 0h1v1h-1v-1zm-4 0h3v1h-3v-1z" id="Rectangle 39_58"/><path d="M112 133h1v1h-1v-1zm6 0h1v1h-1v-1zm-10 3h1v1h-1v-1zm2 0h2v1h-2v-1zm6 0h5v1h-5v-1zm-2 0h1v1h-1v-1z" fill-opacity=".5" id="Rectangle 39_59"/><path d="M110 136h-1v1h1v-1zm6 0h-1v1h1v-1z" fill-opacity=".25" id="Rectangle 39_60"/></g></g></g></g><g id="Ovals"><circle id="Oval 1" cx="61.5" cy="177.5" r="59.5" fill="#fff" fill-opacity=".2"/><circle id="Oval 1_2" cx="61.5" cy="177.5" r="36" stroke="#fff" stroke-opacity=".4" stroke-dasharray="2"/><circle id="Oval 1_3" cx="62" cy="178" r="23" fill="#fff" fill-opacity=".2"/></g></g><defs><clipPath id="clip0_547_9348"><path fill="#fff" d="M0 0h430v192H0z"/></clipPath><clipPath id="clip1_547_9348"><path fill="#fff" transform="translate(63 16)" d="M0 0h304v160H0z"/></clipPath></defs></svg>